<svg width="20" height="14" viewBox="0 0 20 14" fill="none" xmlns="http://www.w3.org/2000/svg">
<path d="M19 6.00125H3.14L6.77 1.64125C6.93974 1.43704 7.0214 1.17375 6.99702 0.909329C6.97264 0.644902 6.84422 0.40099 6.64 0.231252C6.43578 0.0615132 6.1725 -0.0201482 5.90808 0.00423152C5.64365 0.0286112 5.39974 0.157035 5.23 0.361252L0.23 6.36125C0.196361 6.40898 0.166279 6.45911 0.14 6.51125C0.14 6.56125 0.14 6.59125 0.0700002 6.64125C0.0246737 6.75591 0.000941121 6.87796 0 7.00125C0.000941121 7.12454 0.0246737 7.24659 0.0700002 7.36125C0.0700002 7.41125 0.0699999 7.44125 0.14 7.49125C0.166279 7.54339 0.196361 7.59353 0.23 7.64125L5.23 13.6413C5.32402 13.7541 5.44176 13.8449 5.57485 13.9071C5.70793 13.9694 5.85309 14.0015 6 14.0013C6.23365 14.0017 6.46009 13.9203 6.64 13.7713C6.74126 13.6873 6.82496 13.5842 6.88631 13.4679C6.94766 13.3515 6.98546 13.2242 6.99754 13.0932C7.00961 12.9622 6.99573 12.8302 6.95669 12.7046C6.91764 12.579 6.8542 12.4623 6.77 12.3613L3.14 8.00125H19C19.2652 8.00125 19.5196 7.8959 19.7071 7.70836C19.8946 7.52082 20 7.26647 20 7.00125C20 6.73604 19.8946 6.48168 19.7071 6.29415C19.5196 6.10661 19.2652 6.00125 19 6.00125Z" fill="black"/>
<path d="M0.0700002 7.36122C0.0700002 7.41122 0.0699999 7.44122 0.14 7.49122C0.166279 7.54336 0.196361 7.5935 0.23 7.64122L5.23 13.6412C5.32402 13.7541 5.44176 13.8449 5.57485 13.9071C5.70793 13.9693 5.85309 14.0015 6 14.0012C6.23365 14.0017 6.46009 13.9203 6.64 13.7712C6.74126 13.6873 6.82496 13.5842 6.88631 13.4678C6.94766 13.3515 6.98546 13.2242 6.99754 13.0932C7.00961 12.9622 6.99573 12.8301 6.95669 12.7045C6.91764 12.5789 6.8542 12.4623 6.77 12.3612L3.14 8.00122H19C19.2652 8.00122 19.5196 7.89586 19.7071 7.70833C19.8946 7.52079 20 7.26644 20 7.00122H0C0.000941121 7.12451 0.0246737 7.24656 0.0700002 7.36122Z" fill="black"/>
</svg>
