<svg width="258" height="320" viewBox="0 0 258 320" fill="none" xmlns="http://www.w3.org/2000/svg">
<path d="M106.631 61.5669C120.111 51.7288 134.807 33.7094 150.001 31.0896C165.228 28.7859 180.81 42.0491 193.104 57.4092C205.365 72.4531 214.37 89.9103 215.701 107.171C217.031 124.431 211.004 141.477 201.375 154.594C191.922 167.859 179.009 177.029 165.836 188.281C152.522 199.7 138.947 213.201 122.301 217.177C105.512 221.319 85.7947 215.769 72.2802 203.978C58.4486 192.205 50.7869 173.875 45.3019 156.535C39.8169 139.194 36.8256 122.824 40.9984 109.384C45.1712 95.9432 56.8251 85.4145 68.7679 79.1636C80.7437 73.2289 93.0085 71.5721 106.631 61.5669Z" fill="#F66464"/>
<path d="M106.836 71.1779H131.826V89.6835H112.288C113.011 90.3356 113.66 91.0667 114.226 91.8614H134V69H104.663V86.3178C105.407 86.3891 106.133 86.5219 106.836 86.7114V71.1779Z" fill="white"/>
<path d="M144.108 106.124C144.108 106.179 144.105 106.229 144.105 106.284H164.436V124.79H139.447V123.072C138.791 123.903 138.062 124.659 137.273 125.333V126.968H166.611V104.106H144.07C144.095 104.796 144.108 105.469 144.108 106.124Z" fill="white"/>
<path d="M131.688 110.91V115.075C132.151 114.135 132.605 112.792 132.902 110.91H131.688Z" fill="white"/>
<path d="M136.82 168.122H166.158V145.261H136.82V168.122ZM138.993 147.438H163.984V165.945H138.993V147.438Z" fill="white"/>
<path d="M147.088 139.635V143.808H156.324V139.635H152.792V133.011H156.324V128.838H147.088V133.011H150.619V139.635H147.088Z" fill="white"/>
<path d="M130.448 116.5V114.323L120.43 114.321L120.431 97.6296H123.95V93.4561H115.203C115.87 94.7402 116.337 96.1446 116.556 97.6296H118.257V116.403C118.331 116.436 118.405 116.468 118.48 116.5H130.448Z" fill="white"/>
<path d="M153.663 91.8614H183V69H153.663V91.8614ZM155.837 71.1774H180.828V89.6835H155.837V71.1774Z" fill="white"/>
<path d="M152.241 75.8047H148.076V85.0586H152.241V75.8047Z" fill="white"/>
<path d="M147.018 79.4678H135.913V81.6457H147.018V79.4678Z" fill="white"/>
<path d="M87.4493 210.269C87.4493 213.986 90.4575 216.999 94.1661 216.999C97.8758 216.999 100.884 213.986 100.884 210.269V161.13H103.402V210.269C103.402 213.986 106.411 216.999 110.119 216.999C113.829 216.999 116.837 213.986 116.837 210.269V126.362C119.294 127.218 122.514 128.086 126.106 128.097C128.059 128.095 130.138 127.828 132.202 127.064C135.301 125.945 138.28 123.544 140.16 119.989C142.065 116.436 143.016 111.912 143.022 106.125C143.02 104.831 142.972 103.474 142.875 102.047C142.742 100.119 141.374 98.573 139.6 98.1261V90.0986H137.478V98.1272C135.475 98.6302 134.055 100.509 134.204 102.646C134.289 103.891 134.329 105.052 134.329 106.125C134.327 112.599 132.859 115.828 131.488 117.33C130.786 118.104 130.061 118.563 129.18 118.897C128.305 119.224 127.26 119.388 126.106 119.387C123.904 119.398 121.373 118.756 119.476 118.063C118.526 117.721 117.731 117.375 117.191 117.124C116.921 116.999 116.715 116.897 116.585 116.833C116.52 116.799 116.475 116.775 116.449 116.762C116.443 116.759 116.439 116.756 116.436 116.754C116.434 116.753 116.433 116.753 116.432 116.752C116.432 116.752 116.432 116.751 116.432 116.751L116.43 116.751L116.429 116.75C116.429 116.75 116.429 116.75 116.429 116.749C116.429 116.749 116.427 116.749 116.427 116.748L116.427 116.75C116.001 116.52 115.554 116.371 115.102 116.293C114.41 115.788 113.56 115.488 112.638 115.488H91.6479C90.9579 115.488 90.3092 115.658 89.7349 115.953C89.1895 116.12 88.6011 116.341 87.9773 116.65C87.6524 116.809 87.3227 116.993 86.9902 117.195C84.2535 118.861 81.3148 122.058 79.1525 127.477C76.7 133.574 75.0071 142.515 75 156.163C75 158.498 75.0511 160.97 75.1576 163.593C75.2526 165.935 77.1792 167.77 79.4975 167.77C79.5567 167.77 79.6164 167.769 79.6768 167.766C82.0754 167.669 83.9406 165.641 83.8433 163.239C83.7401 160.727 83.6929 158.372 83.6929 156.163C83.6793 145.244 84.8756 137.928 86.3621 133.142C86.7125 132.015 87.0782 131.024 87.4487 130.164L87.4493 210.269Z" fill="white"/>
<path d="M103.389 111.841C110.141 111.841 115.614 106.358 115.614 99.5935C115.614 92.8292 110.141 87.3457 103.389 87.3457C96.6381 87.3457 91.165 92.8292 91.165 99.5935C91.165 106.358 96.6381 111.841 103.389 111.841Z" fill="white"/>
<rect y="176" width="258" height="144" rx="28" fill="#EFEDED"/>
<path d="M53.6411 222.416C53.6411 221.328 53.8865 220.352 54.3771 219.488C54.8678 218.613 55.5345 217.931 56.3771 217.44C57.2305 216.949 58.1745 216.704 59.2091 216.704C60.4251 216.704 61.4865 216.997 62.3931 217.584C63.2998 218.171 63.9611 219.003 64.3771 220.08H62.6331C62.3238 219.408 61.8758 218.891 61.2891 218.528C60.7131 218.165 60.0198 217.984 59.2091 217.984C58.4305 217.984 57.7318 218.165 57.1131 218.528C56.4945 218.891 56.0091 219.408 55.6571 220.08C55.3051 220.741 55.1291 221.52 55.1291 222.416C55.1291 223.301 55.3051 224.08 55.6571 224.752C56.0091 225.413 56.4945 225.925 57.1131 226.288C57.7318 226.651 58.4305 226.832 59.2091 226.832C60.0198 226.832 60.7131 226.656 61.2891 226.304C61.8758 225.941 62.3238 225.424 62.6331 224.752H64.3771C63.9611 225.819 63.2998 226.645 62.3931 227.232C61.4865 227.808 60.4251 228.096 59.2091 228.096C58.1745 228.096 57.2305 227.856 56.3771 227.376C55.5345 226.885 54.8678 226.208 54.3771 225.344C53.8865 224.48 53.6411 223.504 53.6411 222.416ZM74.3205 219.232V228H72.8645V226.704C72.5872 227.152 72.1978 227.504 71.6965 227.76C71.2058 228.005 70.6618 228.128 70.0645 228.128C69.3818 228.128 68.7685 227.989 68.2245 227.712C67.6805 227.424 67.2485 226.997 66.9285 226.432C66.6192 225.867 66.4645 225.179 66.4645 224.368V219.232H67.9045V224.176C67.9045 225.04 68.1232 225.707 68.5605 226.176C68.9978 226.635 69.5952 226.864 70.3525 226.864C71.1312 226.864 71.7445 226.624 72.1925 226.144C72.6405 225.664 72.8645 224.965 72.8645 224.048V219.232H74.3205ZM78.2349 220.656C78.4909 220.155 78.8535 219.765 79.3229 219.488C79.8029 219.211 80.3842 219.072 81.0669 219.072V220.576H80.6829C79.0509 220.576 78.2349 221.461 78.2349 223.232V228H76.7789V219.232H78.2349V220.656ZM84.2036 220.656C84.4596 220.155 84.8223 219.765 85.2916 219.488C85.7716 219.211 86.353 219.072 87.0356 219.072V220.576H86.6516C85.0196 220.576 84.2036 221.461 84.2036 223.232V228H82.7476V219.232H84.2036V220.656ZM96.7164 223.28C96.7164 223.557 96.7004 223.851 96.6684 224.16H89.6604C89.7137 225.024 90.007 225.701 90.5404 226.192C91.0844 226.672 91.7404 226.912 92.5084 226.912C93.1377 226.912 93.6604 226.768 94.0764 226.48C94.503 226.181 94.8017 225.787 94.9724 225.296H96.5404C96.3057 226.139 95.8364 226.827 95.1324 227.36C94.4284 227.883 93.5537 228.144 92.5084 228.144C91.6764 228.144 90.9297 227.957 90.2684 227.584C89.6177 227.211 89.1057 226.683 88.7324 226C88.359 225.307 88.1724 224.507 88.1724 223.6C88.1724 222.693 88.3537 221.899 88.7164 221.216C89.079 220.533 89.5857 220.011 90.2364 219.648C90.8977 219.275 91.655 219.088 92.5084 219.088C93.3404 219.088 94.0764 219.269 94.7164 219.632C95.3564 219.995 95.847 220.496 96.1884 221.136C96.5404 221.765 96.7164 222.48 96.7164 223.28ZM95.2124 222.976C95.2124 222.421 95.0897 221.947 94.8444 221.552C94.599 221.147 94.263 220.843 93.8364 220.64C93.4204 220.427 92.9564 220.32 92.4444 220.32C91.7084 220.32 91.079 220.555 90.5564 221.024C90.0444 221.493 89.751 222.144 89.6764 222.976H95.2124ZM102.91 219.072C103.977 219.072 104.841 219.397 105.502 220.048C106.164 220.688 106.494 221.616 106.494 222.832V228H105.054V223.04C105.054 222.165 104.836 221.499 104.398 221.04C103.961 220.571 103.364 220.336 102.606 220.336C101.838 220.336 101.225 220.576 100.766 221.056C100.318 221.536 100.094 222.235 100.094 223.152V228H98.6383V219.232H100.094V220.48C100.382 220.032 100.772 219.685 101.262 219.44C101.764 219.195 102.313 219.072 102.91 219.072ZM110.649 220.432V225.6C110.649 226.027 110.739 226.331 110.921 226.512C111.102 226.683 111.417 226.768 111.865 226.768H112.937V228H111.625C110.814 228 110.206 227.813 109.801 227.44C109.395 227.067 109.193 226.453 109.193 225.6V220.432H108.057V219.232H109.193V217.024H110.649V219.232H112.937V220.432H110.649ZM116.157 216.16V228H114.701V216.16H116.157ZM126.19 219.232L120.91 232.128H119.406L121.134 227.904L117.598 219.232H119.214L121.966 226.336L124.686 219.232H126.19ZM139.472 219.232L134.192 232.128H132.688L134.416 227.904L130.88 219.232H132.496L135.248 226.336L137.968 219.232H139.472ZM144.759 228.144C143.938 228.144 143.191 227.957 142.519 227.584C141.858 227.211 141.335 226.683 140.951 226C140.578 225.307 140.391 224.507 140.391 223.6C140.391 222.704 140.583 221.915 140.967 221.232C141.362 220.539 141.895 220.011 142.567 219.648C143.239 219.275 143.991 219.088 144.823 219.088C145.655 219.088 146.407 219.275 147.079 219.648C147.751 220.011 148.279 220.533 148.663 221.216C149.058 221.899 149.255 222.693 149.255 223.6C149.255 224.507 149.052 225.307 148.647 226C148.252 226.683 147.714 227.211 147.031 227.584C146.348 227.957 145.591 228.144 144.759 228.144ZM144.759 226.864C145.282 226.864 145.772 226.741 146.231 226.496C146.69 226.251 147.058 225.883 147.335 225.392C147.623 224.901 147.767 224.304 147.767 223.6C147.767 222.896 147.628 222.299 147.351 221.808C147.074 221.317 146.711 220.955 146.263 220.72C145.815 220.475 145.33 220.352 144.807 220.352C144.274 220.352 143.783 220.475 143.335 220.72C142.898 220.955 142.546 221.317 142.279 221.808C142.012 222.299 141.879 222.896 141.879 223.6C141.879 224.315 142.007 224.917 142.263 225.408C142.53 225.899 142.882 226.267 143.319 226.512C143.756 226.747 144.236 226.864 144.759 226.864ZM158.946 219.232V228H157.49V226.704C157.212 227.152 156.823 227.504 156.322 227.76C155.831 228.005 155.287 228.128 154.69 228.128C154.007 228.128 153.394 227.989 152.85 227.712C152.306 227.424 151.874 226.997 151.554 226.432C151.244 225.867 151.09 225.179 151.09 224.368V219.232H152.53V224.176C152.53 225.04 152.748 225.707 153.186 226.176C153.623 226.635 154.22 226.864 154.978 226.864C155.756 226.864 156.37 226.624 156.818 226.144C157.266 225.664 157.49 224.965 157.49 224.048V219.232H158.946ZM165.126 223.584C165.126 222.688 165.307 221.904 165.67 221.232C166.032 220.549 166.528 220.021 167.158 219.648C167.798 219.275 168.512 219.088 169.302 219.088C169.984 219.088 170.619 219.248 171.206 219.568C171.792 219.877 172.24 220.288 172.55 220.8V216.16H174.022V228H172.55V226.352C172.262 226.875 171.835 227.307 171.27 227.648C170.704 227.979 170.043 228.144 169.286 228.144C168.507 228.144 167.798 227.952 167.158 227.568C166.528 227.184 166.032 226.645 165.67 225.952C165.307 225.259 165.126 224.469 165.126 223.584ZM172.55 223.6C172.55 222.939 172.416 222.363 172.15 221.872C171.883 221.381 171.52 221.008 171.062 220.752C170.614 220.485 170.118 220.352 169.574 220.352C169.03 220.352 168.534 220.48 168.086 220.736C167.638 220.992 167.28 221.365 167.014 221.856C166.747 222.347 166.614 222.923 166.614 223.584C166.614 224.256 166.747 224.843 167.014 225.344C167.28 225.835 167.638 226.213 168.086 226.48C168.534 226.736 169.03 226.864 169.574 226.864C170.118 226.864 170.614 226.736 171.062 226.48C171.52 226.213 171.883 225.835 172.15 225.344C172.416 224.843 172.55 224.261 172.55 223.6ZM180.306 228.144C179.485 228.144 178.738 227.957 178.066 227.584C177.405 227.211 176.882 226.683 176.498 226C176.125 225.307 175.938 224.507 175.938 223.6C175.938 222.704 176.13 221.915 176.514 221.232C176.909 220.539 177.442 220.011 178.114 219.648C178.786 219.275 179.538 219.088 180.37 219.088C181.202 219.088 181.954 219.275 182.626 219.648C183.298 220.011 183.826 220.533 184.21 221.216C184.605 221.899 184.802 222.693 184.802 223.6C184.802 224.507 184.599 225.307 184.194 226C183.799 226.683 183.261 227.211 182.578 227.584C181.895 227.957 181.138 228.144 180.306 228.144ZM180.306 226.864C180.829 226.864 181.319 226.741 181.778 226.496C182.237 226.251 182.605 225.883 182.882 225.392C183.17 224.901 183.314 224.304 183.314 223.6C183.314 222.896 183.175 222.299 182.898 221.808C182.621 221.317 182.258 220.955 181.81 220.72C181.362 220.475 180.877 220.352 180.354 220.352C179.821 220.352 179.33 220.475 178.882 220.72C178.445 220.955 178.093 221.317 177.826 221.808C177.559 222.299 177.426 222.896 177.426 223.6C177.426 224.315 177.554 224.917 177.81 225.408C178.077 225.899 178.429 226.267 178.866 226.512C179.303 226.747 179.783 226.864 180.306 226.864ZM190.988 219.072C192.055 219.072 192.919 219.397 193.58 220.048C194.242 220.688 194.572 221.616 194.572 222.832V228H193.132V223.04C193.132 222.165 192.914 221.499 192.476 221.04C192.039 220.571 191.442 220.336 190.684 220.336C189.916 220.336 189.303 220.576 188.844 221.056C188.396 221.536 188.172 222.235 188.172 223.152V228H186.716V219.232H188.172V220.48C188.46 220.032 188.85 219.685 189.34 219.44C189.842 219.195 190.391 219.072 190.988 219.072ZM197.175 216.848H198.791L197.255 220.48H196.231L197.175 216.848ZM202.227 220.432V225.6C202.227 226.027 202.317 226.331 202.499 226.512C202.68 226.683 202.995 226.768 203.443 226.768H204.515V228H203.203C202.392 228 201.784 227.813 201.379 227.44C200.973 227.067 200.771 226.453 200.771 225.6V220.432H199.635V219.232H200.771V217.024H202.227V219.232H204.515V220.432H202.227ZM70.3184 243.072C70.9797 243.072 71.577 243.216 72.1104 243.504C72.6437 243.781 73.0597 244.203 73.3584 244.768C73.6677 245.333 73.8224 246.021 73.8224 246.832V252H72.3824V247.04C72.3824 246.165 72.1637 245.499 71.7264 245.04C71.289 244.571 70.6917 244.336 69.9344 244.336C69.1664 244.336 68.553 244.576 68.0944 245.056C67.6464 245.536 67.4224 246.235 67.4224 247.152V252H65.9664V240.16H67.4224V244.48C67.7104 244.032 68.105 243.685 68.6064 243.44C69.1184 243.195 69.689 243.072 70.3184 243.072ZM75.6568 247.584C75.6568 246.688 75.8381 245.904 76.2008 245.232C76.5634 244.549 77.0594 244.021 77.6888 243.648C78.3288 243.275 79.0381 243.088 79.8168 243.088C80.5848 243.088 81.2514 243.253 81.8168 243.584C82.3821 243.915 82.8034 244.331 83.0808 244.832V243.232H84.5528V252H83.0808V250.368C82.7928 250.88 82.3608 251.307 81.7848 251.648C81.2194 251.979 80.5581 252.144 79.8008 252.144C79.0221 252.144 78.3181 251.952 77.6888 251.568C77.0594 251.184 76.5634 250.645 76.2008 249.952C75.8381 249.259 75.6568 248.469 75.6568 247.584ZM83.0808 247.6C83.0808 246.939 82.9474 246.363 82.6808 245.872C82.4141 245.381 82.0514 245.008 81.5928 244.752C81.1448 244.485 80.6488 244.352 80.1048 244.352C79.5608 244.352 79.0648 244.48 78.6168 244.736C78.1688 244.992 77.8114 245.365 77.5448 245.856C77.2781 246.347 77.1448 246.923 77.1448 247.584C77.1448 248.256 77.2781 248.843 77.5448 249.344C77.8114 249.835 78.1688 250.213 78.6168 250.48C79.0648 250.736 79.5608 250.864 80.1048 250.864C80.6488 250.864 81.1448 250.736 81.5928 250.48C82.0514 250.213 82.4141 249.835 82.6808 249.344C82.9474 248.843 83.0808 248.261 83.0808 247.6ZM90.2773 250.656L92.9973 243.232H94.5493L91.1093 252H89.4133L85.9733 243.232H87.5413L90.2773 250.656ZM103.982 247.28C103.982 247.557 103.966 247.851 103.934 248.16H96.926C96.9793 249.024 97.2727 249.701 97.806 250.192C98.35 250.672 99.006 250.912 99.774 250.912C100.403 250.912 100.926 250.768 101.342 250.48C101.769 250.181 102.067 249.787 102.238 249.296H103.806C103.571 250.139 103.102 250.827 102.398 251.36C101.694 251.883 100.819 252.144 99.774 252.144C98.942 252.144 98.1953 251.957 97.534 251.584C96.8833 251.211 96.3713 250.683 95.998 250C95.6247 249.307 95.438 248.507 95.438 247.6C95.438 246.693 95.6193 245.899 95.982 245.216C96.3447 244.533 96.8513 244.011 97.502 243.648C98.1633 243.275 98.9207 243.088 99.774 243.088C100.606 243.088 101.342 243.269 101.982 243.632C102.622 243.995 103.113 244.496 103.454 245.136C103.806 245.765 103.982 246.48 103.982 247.28ZM102.478 246.976C102.478 246.421 102.355 245.947 102.11 245.552C101.865 245.147 101.529 244.843 101.102 244.64C100.686 244.427 100.222 244.32 99.71 244.32C98.974 244.32 98.3447 244.555 97.822 245.024C97.31 245.493 97.0167 246.144 96.942 246.976H102.478ZM115.754 246.256C116.159 246.32 116.527 246.485 116.858 246.752C117.199 247.019 117.466 247.349 117.658 247.744C117.86 248.139 117.962 248.56 117.962 249.008C117.962 249.573 117.818 250.085 117.53 250.544C117.242 250.992 116.82 251.349 116.266 251.616C115.722 251.872 115.076 252 114.33 252H110.17V240.848H114.17C114.927 240.848 115.572 240.976 116.106 241.232C116.639 241.477 117.039 241.813 117.306 242.24C117.572 242.667 117.706 243.147 117.706 243.68C117.706 244.341 117.524 244.891 117.161 245.328C116.81 245.755 116.34 246.064 115.754 246.256ZM111.626 245.664H114.074C114.756 245.664 115.284 245.504 115.658 245.184C116.031 244.864 116.218 244.421 116.218 243.856C116.218 243.291 116.031 242.848 115.658 242.528C115.284 242.208 114.746 242.048 114.042 242.048H111.626V245.664ZM114.202 250.8C114.927 250.8 115.492 250.629 115.898 250.288C116.303 249.947 116.506 249.472 116.506 248.864C116.506 248.245 116.292 247.76 115.866 247.408C115.439 247.045 114.868 246.864 114.154 246.864H111.626V250.8H114.202ZM119.438 247.584C119.438 246.688 119.619 245.904 119.982 245.232C120.345 244.549 120.841 244.021 121.47 243.648C122.11 243.275 122.819 243.088 123.598 243.088C124.366 243.088 125.033 243.253 125.598 243.584C126.163 243.915 126.585 244.331 126.862 244.832V243.232H128.334V252H126.862V250.368C126.574 250.88 126.142 251.307 125.566 251.648C125.001 251.979 124.339 252.144 123.582 252.144C122.803 252.144 122.099 251.952 121.47 251.568C120.841 251.184 120.345 250.645 119.982 249.952C119.619 249.259 119.438 248.469 119.438 247.584ZM126.862 247.6C126.862 246.939 126.729 246.363 126.462 245.872C126.195 245.381 125.833 245.008 125.374 244.752C124.926 244.485 124.43 244.352 123.886 244.352C123.342 244.352 122.846 244.48 122.398 244.736C121.95 244.992 121.593 245.365 121.326 245.856C121.059 246.347 120.926 246.923 120.926 247.584C120.926 248.256 121.059 248.843 121.326 249.344C121.593 249.835 121.95 250.213 122.398 250.48C122.846 250.736 123.342 250.864 123.886 250.864C124.43 250.864 124.926 250.736 125.374 250.48C125.833 250.213 126.195 249.835 126.462 249.344C126.729 248.843 126.862 248.261 126.862 247.6ZM133.899 252.144C133.227 252.144 132.624 252.032 132.091 251.808C131.557 251.573 131.136 251.253 130.827 250.848C130.517 250.432 130.347 249.957 130.315 249.424H131.819C131.861 249.861 132.064 250.219 132.427 250.496C132.8 250.773 133.285 250.912 133.883 250.912C134.437 250.912 134.875 250.789 135.195 250.544C135.515 250.299 135.675 249.989 135.675 249.616C135.675 249.232 135.504 248.949 135.163 248.768C134.821 248.576 134.293 248.389 133.579 248.208C132.928 248.037 132.395 247.867 131.979 247.696C131.573 247.515 131.221 247.253 130.923 246.912C130.635 246.56 130.491 246.101 130.491 245.536C130.491 245.088 130.624 244.677 130.891 244.304C131.157 243.931 131.536 243.637 132.027 243.424C132.517 243.2 133.077 243.088 133.707 243.088C134.677 243.088 135.461 243.333 136.059 243.824C136.656 244.315 136.976 244.987 137.019 245.84H135.563C135.531 245.381 135.344 245.013 135.003 244.736C134.672 244.459 134.224 244.32 133.659 244.32C133.136 244.32 132.72 244.432 132.411 244.656C132.101 244.88 131.947 245.173 131.947 245.536C131.947 245.824 132.037 246.064 132.219 246.256C132.411 246.437 132.645 246.587 132.923 246.704C133.211 246.811 133.605 246.933 134.107 247.072C134.736 247.243 135.248 247.413 135.643 247.584C136.037 247.744 136.373 247.989 136.651 248.32C136.939 248.651 137.088 249.083 137.099 249.616C137.099 250.096 136.965 250.528 136.699 250.912C136.432 251.296 136.053 251.6 135.563 251.824C135.083 252.037 134.528 252.144 133.899 252.144ZM139.906 241.808C139.629 241.808 139.394 241.712 139.202 241.52C139.01 241.328 138.914 241.093 138.914 240.816C138.914 240.539 139.01 240.304 139.202 240.112C139.394 239.92 139.629 239.824 139.906 239.824C140.173 239.824 140.397 239.92 140.578 240.112C140.77 240.304 140.866 240.539 140.866 240.816C140.866 241.093 140.77 241.328 140.578 241.52C140.397 241.712 140.173 241.808 139.906 241.808ZM140.61 243.232V252H139.154V243.232H140.61ZM142.547 247.6C142.547 246.693 142.729 245.904 143.091 245.232C143.454 244.549 143.955 244.021 144.595 243.648C145.246 243.275 145.987 243.088 146.819 243.088C147.897 243.088 148.782 243.349 149.475 243.872C150.179 244.395 150.643 245.12 150.867 246.048H149.299C149.15 245.515 148.857 245.093 148.419 244.784C147.993 244.475 147.459 244.32 146.819 244.32C145.987 244.32 145.315 244.608 144.803 245.184C144.291 245.749 144.035 246.555 144.035 247.6C144.035 248.656 144.291 249.472 144.803 250.048C145.315 250.624 145.987 250.912 146.819 250.912C147.459 250.912 147.993 250.763 148.419 250.464C148.846 250.165 149.139 249.739 149.299 249.184H150.867C150.633 250.08 150.163 250.8 149.459 251.344C148.755 251.877 147.875 252.144 146.819 252.144C145.987 252.144 145.246 251.957 144.595 251.584C143.955 251.211 143.454 250.683 143.091 250C142.729 249.317 142.547 248.517 142.547 247.6ZM164.532 244.112C164.532 245.04 164.212 245.813 163.572 246.432C162.942 247.04 161.977 247.344 160.676 247.344H158.532V252H157.076V240.848H160.676C161.934 240.848 162.889 241.152 163.54 241.76C164.201 242.368 164.532 243.152 164.532 244.112ZM160.676 246.144C161.486 246.144 162.084 245.968 162.468 245.616C162.852 245.264 163.044 244.763 163.044 244.112C163.044 242.736 162.254 242.048 160.676 242.048H158.532V246.144H160.676ZM167.797 240.16V252H166.341V240.16H167.797ZM169.735 247.584C169.735 246.688 169.916 245.904 170.279 245.232C170.642 244.549 171.138 244.021 171.767 243.648C172.407 243.275 173.116 243.088 173.895 243.088C174.663 243.088 175.33 243.253 175.895 243.584C176.46 243.915 176.882 244.331 177.159 244.832V243.232H178.631V252H177.159V250.368C176.871 250.88 176.439 251.307 175.863 251.648C175.298 251.979 174.636 252.144 173.879 252.144C173.1 252.144 172.396 251.952 171.767 251.568C171.138 251.184 170.642 250.645 170.279 249.952C169.916 249.259 169.735 248.469 169.735 247.584ZM177.159 247.6C177.159 246.939 177.026 246.363 176.759 245.872C176.492 245.381 176.13 245.008 175.671 244.752C175.223 244.485 174.727 244.352 174.183 244.352C173.639 244.352 173.143 244.48 172.695 244.736C172.247 244.992 171.89 245.365 171.623 245.856C171.356 246.347 171.223 246.923 171.223 247.584C171.223 248.256 171.356 248.843 171.623 249.344C171.89 249.835 172.247 250.213 172.695 250.48C173.143 250.736 173.639 250.864 174.183 250.864C174.727 250.864 175.223 250.736 175.671 250.48C176.13 250.213 176.492 249.835 176.759 249.344C177.026 248.843 177.159 248.261 177.159 247.6ZM185.363 243.072C186.43 243.072 187.294 243.397 187.955 244.048C188.617 244.688 188.947 245.616 188.947 246.832V252H187.507V247.04C187.507 246.165 187.289 245.499 186.851 245.04C186.414 244.571 185.817 244.336 185.059 244.336C184.291 244.336 183.678 244.576 183.219 245.056C182.771 245.536 182.547 246.235 182.547 247.152V252H181.091V243.232H182.547V244.48C182.835 244.032 183.225 243.685 183.715 243.44C184.217 243.195 184.766 243.072 185.363 243.072ZM192.83 249.984L191.038 254.288H190.062L191.23 249.984H192.83ZM43.7427 269.848C44.0307 269.347 44.4574 268.931 45.0227 268.6C45.5987 268.259 46.2654 268.088 47.0227 268.088C47.8014 268.088 48.5054 268.275 49.1347 268.648C49.7747 269.021 50.276 269.549 50.6387 270.232C51.0014 270.904 51.1827 271.688 51.1827 272.584C51.1827 273.469 51.0014 274.259 50.6387 274.952C50.276 275.645 49.7747 276.184 49.1347 276.568C48.5054 276.952 47.8014 277.144 47.0227 277.144C46.276 277.144 45.6147 276.979 45.0387 276.648C44.4734 276.307 44.0414 275.885 43.7427 275.384V281.16H42.2867V268.232H43.7427V269.848ZM49.6947 272.584C49.6947 271.923 49.5614 271.347 49.2947 270.856C49.028 270.365 48.6654 269.992 48.2067 269.736C47.7587 269.48 47.2627 269.352 46.7187 269.352C46.1854 269.352 45.6894 269.485 45.2307 269.752C44.7827 270.008 44.42 270.387 44.1427 270.888C43.876 271.379 43.7427 271.949 43.7427 272.6C43.7427 273.261 43.876 273.843 44.1427 274.344C44.42 274.835 44.7827 275.213 45.2307 275.48C45.6894 275.736 46.1854 275.864 46.7187 275.864C47.2627 275.864 47.7587 275.736 48.2067 275.48C48.6654 275.213 49.028 274.835 49.2947 274.344C49.5614 273.843 49.6947 273.256 49.6947 272.584ZM54.5552 265.16V277H53.0992V265.16H54.5552ZM65.0367 272.28C65.0367 272.557 65.0207 272.851 64.9887 273.16H57.9807C58.034 274.024 58.3274 274.701 58.8607 275.192C59.4047 275.672 60.0607 275.912 60.8287 275.912C61.458 275.912 61.9807 275.768 62.3967 275.48C62.8234 275.181 63.122 274.787 63.2927 274.296H64.8607C64.626 275.139 64.1567 275.827 63.4527 276.36C62.7487 276.883 61.874 277.144 60.8287 277.144C59.9967 277.144 59.25 276.957 58.5887 276.584C57.938 276.211 57.426 275.683 57.0527 275C56.6794 274.307 56.4927 273.507 56.4927 272.6C56.4927 271.693 56.674 270.899 57.0367 270.216C57.3994 269.533 57.906 269.011 58.5567 268.648C59.218 268.275 59.9754 268.088 60.8287 268.088C61.6607 268.088 62.3967 268.269 63.0367 268.632C63.6767 268.995 64.1674 269.496 64.5087 270.136C64.8607 270.765 65.0367 271.48 65.0367 272.28ZM63.5327 271.976C63.5327 271.421 63.41 270.947 63.1647 270.552C62.9194 270.147 62.5834 269.843 62.1567 269.64C61.7407 269.427 61.2767 269.32 60.7647 269.32C60.0287 269.32 59.3994 269.555 58.8767 270.024C58.3647 270.493 58.0714 271.144 57.9967 271.976H63.5327ZM66.4146 272.584C66.4146 271.688 66.5959 270.904 66.9586 270.232C67.3212 269.549 67.8172 269.021 68.4466 268.648C69.0866 268.275 69.7959 268.088 70.5746 268.088C71.3426 268.088 72.0092 268.253 72.5746 268.584C73.1399 268.915 73.5612 269.331 73.8386 269.832V268.232H75.3106V277H73.8386V275.368C73.5506 275.88 73.1186 276.307 72.5426 276.648C71.9772 276.979 71.3159 277.144 70.5586 277.144C69.7799 277.144 69.0759 276.952 68.4466 276.568C67.8172 276.184 67.3212 275.645 66.9586 274.952C66.5959 274.259 66.4146 273.469 66.4146 272.584ZM73.8386 272.6C73.8386 271.939 73.7052 271.363 73.4386 270.872C73.1719 270.381 72.8092 270.008 72.3506 269.752C71.9026 269.485 71.4066 269.352 70.8626 269.352C70.3186 269.352 69.8226 269.48 69.3746 269.736C68.9266 269.992 68.5692 270.365 68.3026 270.856C68.0359 271.347 67.9026 271.923 67.9026 272.584C67.9026 273.256 68.0359 273.843 68.3026 274.344C68.5692 274.835 68.9266 275.213 69.3746 275.48C69.8226 275.736 70.3186 275.864 70.8626 275.864C71.4066 275.864 71.9026 275.736 72.3506 275.48C72.8092 275.213 73.1719 274.835 73.4386 274.344C73.7052 273.843 73.8386 273.261 73.8386 272.6ZM80.8751 277.144C80.2031 277.144 79.6004 277.032 79.0671 276.808C78.5337 276.573 78.1124 276.253 77.8031 275.848C77.4937 275.432 77.3231 274.957 77.2911 274.424H78.7951C78.8377 274.861 79.0404 275.219 79.4031 275.496C79.7764 275.773 80.2617 275.912 80.8591 275.912C81.4137 275.912 81.8511 275.789 82.1711 275.544C82.4911 275.299 82.6511 274.989 82.6511 274.616C82.6511 274.232 82.4804 273.949 82.1391 273.768C81.7977 273.576 81.2697 273.389 80.5551 273.208C79.9044 273.037 79.3711 272.867 78.9551 272.696C78.5497 272.515 78.1977 272.253 77.8991 271.912C77.6111 271.56 77.4671 271.101 77.4671 270.536C77.4671 270.088 77.6004 269.677 77.8671 269.304C78.1337 268.931 78.5124 268.637 79.0031 268.424C79.4937 268.2 80.0537 268.088 80.6831 268.088C81.6537 268.088 82.4377 268.333 83.0351 268.824C83.6324 269.315 83.9524 269.987 83.9951 270.84H82.5391C82.5071 270.381 82.3204 270.013 81.9791 269.736C81.6484 269.459 81.2004 269.32 80.6351 269.32C80.1124 269.32 79.6964 269.432 79.3871 269.656C79.0777 269.88 78.9231 270.173 78.9231 270.536C78.9231 270.824 79.0137 271.064 79.1951 271.256C79.3871 271.437 79.6217 271.587 79.8991 271.704C80.1871 271.811 80.5817 271.933 81.0831 272.072C81.7124 272.243 82.2244 272.413 82.6191 272.584C83.0137 272.744 83.3497 272.989 83.6271 273.32C83.9151 273.651 84.0644 274.083 84.0751 274.616C84.0751 275.096 83.9417 275.528 83.6751 275.912C83.4084 276.296 83.0297 276.6 82.5391 276.824C82.0591 277.037 81.5044 277.144 80.8751 277.144ZM94.1304 272.28C94.1304 272.557 94.1144 272.851 94.0824 273.16H87.0744C87.1278 274.024 87.4211 274.701 87.9544 275.192C88.4984 275.672 89.1544 275.912 89.9224 275.912C90.5518 275.912 91.0744 275.768 91.4904 275.48C91.9171 275.181 92.2158 274.787 92.3864 274.296H93.9544C93.7198 275.139 93.2504 275.827 92.5464 276.36C91.8424 276.883 90.9678 277.144 89.9224 277.144C89.0904 277.144 88.3438 276.957 87.6824 276.584C87.0318 276.211 86.5198 275.683 86.1464 275C85.7731 274.307 85.5864 273.507 85.5864 272.6C85.5864 271.693 85.7678 270.899 86.1304 270.216C86.4931 269.533 86.9998 269.011 87.6504 268.648C88.3118 268.275 89.0691 268.088 89.9224 268.088C90.7544 268.088 91.4904 268.269 92.1304 268.632C92.7704 268.995 93.2611 269.496 93.6024 270.136C93.9544 270.765 94.1304 271.48 94.1304 272.28ZM92.6264 271.976C92.6264 271.421 92.5038 270.947 92.2584 270.552C92.0131 270.147 91.6771 269.843 91.2504 269.64C90.8344 269.427 90.3704 269.32 89.8584 269.32C89.1224 269.32 88.4931 269.555 87.9704 270.024C87.4584 270.493 87.1651 271.144 87.0904 271.976H92.6264ZM99.7739 272.584C99.7739 271.688 99.9553 270.904 100.318 270.232C100.681 269.549 101.177 269.021 101.806 268.648C102.446 268.275 103.155 268.088 103.934 268.088C104.702 268.088 105.369 268.253 105.934 268.584C106.499 268.915 106.921 269.331 107.198 269.832V268.232H108.67V277H107.198V275.368C106.91 275.88 106.478 276.307 105.902 276.648C105.337 276.979 104.675 277.144 103.918 277.144C103.139 277.144 102.435 276.952 101.806 276.568C101.177 276.184 100.681 275.645 100.318 274.952C99.9553 274.259 99.7739 273.469 99.7739 272.584ZM107.198 272.6C107.198 271.939 107.065 271.363 106.798 270.872C106.531 270.381 106.169 270.008 105.71 269.752C105.262 269.485 104.766 269.352 104.222 269.352C103.678 269.352 103.182 269.48 102.734 269.736C102.286 269.992 101.929 270.365 101.662 270.856C101.395 271.347 101.262 271.923 101.262 272.584C101.262 273.256 101.395 273.843 101.662 274.344C101.929 274.835 102.286 275.213 102.734 275.48C103.182 275.736 103.678 275.864 104.222 275.864C104.766 275.864 105.262 275.736 105.71 275.48C106.169 275.213 106.531 274.835 106.798 274.344C107.065 273.843 107.198 273.261 107.198 272.6ZM110.586 272.584C110.586 271.688 110.768 270.904 111.13 270.232C111.493 269.549 111.989 269.021 112.618 268.648C113.258 268.275 113.973 268.088 114.762 268.088C115.445 268.088 116.08 268.248 116.666 268.568C117.253 268.877 117.701 269.288 118.01 269.8V265.16H119.482V277H118.01V275.352C117.722 275.875 117.296 276.307 116.73 276.648C116.165 276.979 115.504 277.144 114.746 277.144C113.968 277.144 113.258 276.952 112.618 276.568C111.989 276.184 111.493 275.645 111.13 274.952C110.768 274.259 110.586 273.469 110.586 272.584ZM118.01 272.6C118.01 271.939 117.877 271.363 117.61 270.872C117.344 270.381 116.981 270.008 116.522 269.752C116.074 269.485 115.578 269.352 115.034 269.352C114.49 269.352 113.994 269.48 113.546 269.736C113.098 269.992 112.741 270.365 112.474 270.856C112.208 271.347 112.074 271.923 112.074 272.584C112.074 273.256 112.208 273.843 112.474 274.344C112.741 274.835 113.098 275.213 113.546 275.48C113.994 275.736 114.49 275.864 115.034 275.864C115.578 275.864 116.074 275.736 116.522 275.48C116.981 275.213 117.344 274.835 117.61 274.344C117.877 273.843 118.01 273.261 118.01 272.6ZM121.399 272.584C121.399 271.688 121.58 270.904 121.943 270.232C122.306 269.549 122.802 269.021 123.431 268.648C124.071 268.275 124.786 268.088 125.575 268.088C126.258 268.088 126.892 268.248 127.479 268.568C128.066 268.877 128.514 269.288 128.823 269.8V265.16H130.295V277H128.823V275.352C128.535 275.875 128.108 276.307 127.543 276.648C126.978 276.979 126.316 277.144 125.559 277.144C124.78 277.144 124.071 276.952 123.431 276.568C122.802 276.184 122.306 275.645 121.943 274.952C121.58 274.259 121.399 273.469 121.399 272.584ZM128.823 272.6C128.823 271.939 128.69 271.363 128.423 270.872C128.156 270.381 127.794 270.008 127.335 269.752C126.887 269.485 126.391 269.352 125.847 269.352C125.303 269.352 124.807 269.48 124.359 269.736C123.911 269.992 123.554 270.365 123.287 270.856C123.02 271.347 122.887 271.923 122.887 272.584C122.887 273.256 123.02 273.843 123.287 274.344C123.554 274.835 123.911 275.213 124.359 275.48C124.807 275.736 125.303 275.864 125.847 275.864C126.391 275.864 126.887 275.736 127.335 275.48C127.794 275.213 128.156 274.835 128.423 274.344C128.69 273.843 128.823 273.261 128.823 272.6ZM142.605 271.256C143.01 271.32 143.378 271.485 143.709 271.752C144.05 272.019 144.317 272.349 144.509 272.744C144.712 273.139 144.813 273.56 144.813 274.008C144.813 274.573 144.669 275.085 144.381 275.544C144.093 275.992 143.672 276.349 143.117 276.616C142.573 276.872 141.928 277 141.181 277H137.021V265.848H141.021C141.778 265.848 142.424 265.976 142.957 266.232C143.49 266.477 143.89 266.813 144.157 267.24C144.424 267.667 144.557 268.147 144.557 268.68C144.557 269.341 144.376 269.891 144.013 270.328C143.661 270.755 143.192 271.064 142.605 271.256ZM138.477 270.664H140.925C141.608 270.664 142.136 270.504 142.509 270.184C142.882 269.864 143.069 269.421 143.069 268.856C143.069 268.291 142.882 267.848 142.509 267.528C142.136 267.208 141.597 267.048 140.893 267.048H138.477V270.664ZM141.053 275.8C141.778 275.8 142.344 275.629 142.749 275.288C143.154 274.947 143.357 274.472 143.357 273.864C143.357 273.245 143.144 272.76 142.717 272.408C142.29 272.045 141.72 271.864 141.005 271.864H138.477V275.8H141.053ZM146.29 272.584C146.29 271.688 146.471 270.904 146.834 270.232C147.196 269.549 147.692 269.021 148.322 268.648C148.962 268.275 149.671 268.088 150.45 268.088C151.218 268.088 151.884 268.253 152.45 268.584C153.015 268.915 153.436 269.331 153.714 269.832V268.232H155.186V277H153.714V275.368C153.426 275.88 152.994 276.307 152.418 276.648C151.852 276.979 151.191 277.144 150.434 277.144C149.655 277.144 148.951 276.952 148.322 276.568C147.692 276.184 147.196 275.645 146.834 274.952C146.471 274.259 146.29 273.469 146.29 272.584ZM153.714 272.6C153.714 271.939 153.58 271.363 153.314 270.872C153.047 270.381 152.684 270.008 152.226 269.752C151.778 269.485 151.282 269.352 150.738 269.352C150.194 269.352 149.698 269.48 149.25 269.736C148.802 269.992 148.444 270.365 148.178 270.856C147.911 271.347 147.778 271.923 147.778 272.584C147.778 273.256 147.911 273.843 148.178 274.344C148.444 274.835 148.802 275.213 149.25 275.48C149.698 275.736 150.194 275.864 150.738 275.864C151.282 275.864 151.778 275.736 152.226 275.48C152.684 275.213 153.047 274.835 153.314 274.344C153.58 273.843 153.714 273.261 153.714 272.6ZM160.75 277.144C160.078 277.144 159.475 277.032 158.942 276.808C158.409 276.573 157.987 276.253 157.678 275.848C157.369 275.432 157.198 274.957 157.166 274.424H158.67C158.713 274.861 158.915 275.219 159.278 275.496C159.651 275.773 160.137 275.912 160.734 275.912C161.289 275.912 161.726 275.789 162.046 275.544C162.366 275.299 162.526 274.989 162.526 274.616C162.526 274.232 162.355 273.949 162.014 273.768C161.673 273.576 161.145 273.389 160.43 273.208C159.779 273.037 159.246 272.867 158.83 272.696C158.425 272.515 158.073 272.253 157.774 271.912C157.486 271.56 157.342 271.101 157.342 270.536C157.342 270.088 157.475 269.677 157.742 269.304C158.009 268.931 158.387 268.637 158.878 268.424C159.369 268.2 159.929 268.088 160.558 268.088C161.529 268.088 162.313 268.333 162.91 268.824C163.507 269.315 163.827 269.987 163.87 270.84H162.414C162.382 270.381 162.195 270.013 161.854 269.736C161.523 269.459 161.075 269.32 160.51 269.32C159.987 269.32 159.571 269.432 159.262 269.656C158.953 269.88 158.798 270.173 158.798 270.536C158.798 270.824 158.889 271.064 159.07 271.256C159.262 271.437 159.497 271.587 159.774 271.704C160.062 271.811 160.457 271.933 160.958 272.072C161.587 272.243 162.099 272.413 162.494 272.584C162.889 272.744 163.225 272.989 163.502 273.32C163.79 273.651 163.939 274.083 163.95 274.616C163.95 275.096 163.817 275.528 163.55 275.912C163.283 276.296 162.905 276.6 162.414 276.824C161.934 277.037 161.379 277.144 160.75 277.144ZM166.757 266.808C166.48 266.808 166.245 266.712 166.053 266.52C165.861 266.328 165.765 266.093 165.765 265.816C165.765 265.539 165.861 265.304 166.053 265.112C166.245 264.92 166.48 264.824 166.757 264.824C167.024 264.824 167.248 264.92 167.429 265.112C167.621 265.304 167.717 265.539 167.717 265.816C167.717 266.093 167.621 266.328 167.429 266.52C167.248 266.712 167.024 266.808 166.757 266.808ZM167.461 268.232V277H166.005V268.232H167.461ZM169.399 272.6C169.399 271.693 169.58 270.904 169.943 270.232C170.306 269.549 170.807 269.021 171.447 268.648C172.098 268.275 172.839 268.088 173.671 268.088C174.748 268.088 175.634 268.349 176.327 268.872C177.031 269.395 177.495 270.12 177.719 271.048H176.151C176.002 270.515 175.708 270.093 175.271 269.784C174.844 269.475 174.311 269.32 173.671 269.32C172.839 269.32 172.167 269.608 171.655 270.184C171.143 270.749 170.887 271.555 170.887 272.6C170.887 273.656 171.143 274.472 171.655 275.048C172.167 275.624 172.839 275.912 173.671 275.912C174.311 275.912 174.844 275.763 175.271 275.464C175.698 275.165 175.991 274.739 176.151 274.184H177.719C177.484 275.08 177.015 275.8 176.311 276.344C175.607 276.877 174.727 277.144 173.671 277.144C172.839 277.144 172.098 276.957 171.447 276.584C170.807 276.211 170.306 275.683 169.943 275C169.58 274.317 169.399 273.517 169.399 272.6ZM191.383 269.112C191.383 270.04 191.063 270.813 190.423 271.432C189.794 272.04 188.829 272.344 187.527 272.344H185.383V277H183.927V265.848H187.527C188.786 265.848 189.741 266.152 190.391 266.76C191.053 267.368 191.383 268.152 191.383 269.112ZM187.527 271.144C188.338 271.144 188.935 270.968 189.319 270.616C189.703 270.264 189.895 269.763 189.895 269.112C189.895 267.736 189.106 267.048 187.527 267.048H185.383V271.144H187.527ZM194.649 265.16V277H193.193V265.16H194.649ZM196.586 272.584C196.586 271.688 196.768 270.904 197.13 270.232C197.493 269.549 197.989 269.021 198.618 268.648C199.258 268.275 199.968 268.088 200.746 268.088C201.514 268.088 202.181 268.253 202.746 268.584C203.312 268.915 203.733 269.331 204.01 269.832V268.232H205.482V277H204.01V275.368C203.722 275.88 203.29 276.307 202.714 276.648C202.149 276.979 201.488 277.144 200.73 277.144C199.952 277.144 199.248 276.952 198.618 276.568C197.989 276.184 197.493 275.645 197.13 274.952C196.768 274.259 196.586 273.469 196.586 272.584ZM204.01 272.6C204.01 271.939 203.877 271.363 203.61 270.872C203.344 270.381 202.981 270.008 202.522 269.752C202.074 269.485 201.578 269.352 201.034 269.352C200.49 269.352 199.994 269.48 199.546 269.736C199.098 269.992 198.741 270.365 198.474 270.856C198.208 271.347 198.074 271.923 198.074 272.584C198.074 273.256 198.208 273.843 198.474 274.344C198.741 274.835 199.098 275.213 199.546 275.48C199.994 275.736 200.49 275.864 201.034 275.864C201.578 275.864 202.074 275.736 202.522 275.48C202.981 275.213 203.344 274.835 203.61 274.344C203.877 273.843 204.01 273.261 204.01 272.6ZM212.215 268.072C213.282 268.072 214.146 268.397 214.807 269.048C215.468 269.688 215.799 270.616 215.799 271.832V277H214.359V272.04C214.359 271.165 214.14 270.499 213.703 270.04C213.266 269.571 212.668 269.336 211.911 269.336C211.143 269.336 210.53 269.576 210.071 270.056C209.623 270.536 209.399 271.235 209.399 272.152V277H207.943V268.232H209.399V269.48C209.687 269.032 210.076 268.685 210.567 268.44C211.068 268.195 211.618 268.072 212.215 268.072Z" fill="black"/>
</svg>
