<svg width="26" height="22" viewBox="0 0 26 22" fill="none" xmlns="http://www.w3.org/2000/svg">
<path d="M22.7493 10.083H18.9577V2.74967C18.9577 2.50656 18.8435 2.2734 18.6404 2.10149C18.4372 1.92958 18.1617 1.83301 17.8743 1.83301H8.12435C7.83703 1.83301 7.56148 1.92958 7.35832 2.10149C7.15515 2.2734 7.04102 2.50656 7.04102 2.74967V10.083H3.24935C2.96203 10.083 2.68648 10.1796 2.48332 10.3515C2.28015 10.5234 2.16602 10.7566 2.16602 10.9997V19.2497C2.16602 19.4928 2.28015 19.7259 2.48332 19.8979C2.68648 20.0698 2.96203 20.1663 3.24935 20.1663H22.7493C23.0367 20.1663 23.3122 20.0698 23.5154 19.8979C23.7185 19.7259 23.8327 19.4928 23.8327 19.2497V10.9997C23.8327 10.7566 23.7185 10.5234 23.5154 10.3515C23.3122 10.1796 23.0367 10.083 22.7493 10.083ZM11.916 18.333H4.33268V11.9163H11.916V18.333ZM9.20768 10.083V3.66634H16.791V10.083H9.20768ZM21.666 18.333H14.0827V11.9163H21.666V18.333Z" fill="#DE0C0C"/>
</svg>
