<svg width="258" height="320" viewBox="0 0 258 320" fill="none" xmlns="http://www.w3.org/2000/svg">
<path d="M106.631 61.5669C120.111 51.7288 134.807 33.7094 150.001 31.0896C165.228 28.7859 180.81 42.0491 193.104 57.4092C205.365 72.4531 214.37 89.9103 215.701 107.171C217.031 124.431 211.004 141.477 201.375 154.594C191.922 167.859 179.009 177.029 165.836 188.281C152.522 199.7 138.947 213.201 122.301 217.177C105.512 221.319 85.7947 215.769 72.2802 203.978C58.4486 192.205 50.7869 173.875 45.3019 156.535C39.8169 139.194 36.8256 122.824 40.9984 109.384C45.1712 95.9432 56.8251 85.4145 68.7679 79.1636C80.7437 73.2289 93.0085 71.5721 106.631 61.5669Z" fill="#F66464"/>
<rect y="176" width="258" height="144" rx="28" fill="#EFEDED"/>
<path d="M51.6411 213.416C51.6411 212.328 51.8865 211.352 52.3771 210.488C52.8678 209.613 53.5345 208.931 54.3771 208.44C55.2305 207.949 56.1745 207.704 57.2091 207.704C58.4251 207.704 59.4865 207.997 60.3931 208.584C61.2998 209.171 61.9611 210.003 62.3771 211.08H60.6331C60.3238 210.408 59.8758 209.891 59.2891 209.528C58.7131 209.165 58.0198 208.984 57.2091 208.984C56.4305 208.984 55.7318 209.165 55.1131 209.528C54.4945 209.891 54.0091 210.408 53.6571 211.08C53.3051 211.741 53.1291 212.52 53.1291 213.416C53.1291 214.301 53.3051 215.08 53.6571 215.752C54.0091 216.413 54.4945 216.925 55.1131 217.288C55.7318 217.651 56.4305 217.832 57.2091 217.832C58.0198 217.832 58.7131 217.656 59.2891 217.304C59.8758 216.941 60.3238 216.424 60.6331 215.752H62.3771C61.9611 216.819 61.2998 217.645 60.3931 218.232C59.4865 218.808 58.4251 219.096 57.2091 219.096C56.1745 219.096 55.2305 218.856 54.3771 218.376C53.5345 217.885 52.8678 217.208 52.3771 216.344C51.8865 215.48 51.6411 214.504 51.6411 213.416ZM72.3205 210.232V219H70.8645V217.704C70.5872 218.152 70.1978 218.504 69.6965 218.76C69.2058 219.005 68.6618 219.128 68.0645 219.128C67.3818 219.128 66.7685 218.989 66.2245 218.712C65.6805 218.424 65.2485 217.997 64.9285 217.432C64.6192 216.867 64.4645 216.179 64.4645 215.368V210.232H65.9045V215.176C65.9045 216.04 66.1232 216.707 66.5605 217.176C66.9978 217.635 67.5952 217.864 68.3525 217.864C69.1312 217.864 69.7445 217.624 70.1925 217.144C70.6405 216.664 70.8645 215.965 70.8645 215.048V210.232H72.3205ZM76.2349 211.656C76.4909 211.155 76.8535 210.765 77.3229 210.488C77.8029 210.211 78.3842 210.072 79.0669 210.072V211.576H78.6829C77.0509 211.576 76.2349 212.461 76.2349 214.232V219H74.7789V210.232H76.2349V211.656ZM82.2036 211.656C82.4596 211.155 82.8223 210.765 83.2916 210.488C83.7716 210.211 84.353 210.072 85.0356 210.072V211.576H84.6516C83.0196 211.576 82.2036 212.461 82.2036 214.232V219H80.7476V210.232H82.2036V211.656ZM94.7164 214.28C94.7164 214.557 94.7004 214.851 94.6684 215.16H87.6604C87.7137 216.024 88.007 216.701 88.5404 217.192C89.0844 217.672 89.7404 217.912 90.5084 217.912C91.1377 217.912 91.6604 217.768 92.0764 217.48C92.503 217.181 92.8017 216.787 92.9724 216.296H94.5404C94.3057 217.139 93.8364 217.827 93.1324 218.36C92.4284 218.883 91.5537 219.144 90.5084 219.144C89.6764 219.144 88.9297 218.957 88.2684 218.584C87.6177 218.211 87.1057 217.683 86.7324 217C86.359 216.307 86.1724 215.507 86.1724 214.6C86.1724 213.693 86.3537 212.899 86.7164 212.216C87.079 211.533 87.5857 211.011 88.2364 210.648C88.8977 210.275 89.655 210.088 90.5084 210.088C91.3404 210.088 92.0764 210.269 92.7164 210.632C93.3564 210.995 93.847 211.496 94.1884 212.136C94.5404 212.765 94.7164 213.48 94.7164 214.28ZM93.2124 213.976C93.2124 213.421 93.0897 212.947 92.8444 212.552C92.599 212.147 92.263 211.843 91.8364 211.64C91.4204 211.427 90.9564 211.32 90.4444 211.32C89.7084 211.32 89.079 211.555 88.5564 212.024C88.0444 212.493 87.751 213.144 87.6764 213.976H93.2124ZM100.91 210.072C101.977 210.072 102.841 210.397 103.502 211.048C104.164 211.688 104.494 212.616 104.494 213.832V219H103.054V214.04C103.054 213.165 102.836 212.499 102.398 212.04C101.961 211.571 101.364 211.336 100.606 211.336C99.8383 211.336 99.2249 211.576 98.7663 212.056C98.3183 212.536 98.0943 213.235 98.0943 214.152V219H96.6383V210.232H98.0943V211.48C98.3823 211.032 98.7716 210.685 99.2623 210.44C99.7636 210.195 100.313 210.072 100.91 210.072ZM108.649 211.432V216.6C108.649 217.027 108.739 217.331 108.921 217.512C109.102 217.683 109.417 217.768 109.865 217.768H110.937V219H109.625C108.814 219 108.206 218.813 107.801 218.44C107.395 218.067 107.193 217.453 107.193 216.6V211.432H106.057V210.232H107.193V208.024H108.649V210.232H110.937V211.432H108.649ZM114.157 207.16V219H112.701V207.16H114.157ZM124.19 210.232L118.91 223.128H117.406L119.134 218.904L115.598 210.232H117.214L119.966 217.336L122.686 210.232H124.19ZM137.472 210.232L132.192 223.128H130.688L132.416 218.904L128.88 210.232H130.496L133.248 217.336L135.968 210.232H137.472ZM142.759 219.144C141.938 219.144 141.191 218.957 140.519 218.584C139.858 218.211 139.335 217.683 138.951 217C138.578 216.307 138.391 215.507 138.391 214.6C138.391 213.704 138.583 212.915 138.967 212.232C139.362 211.539 139.895 211.011 140.567 210.648C141.239 210.275 141.991 210.088 142.823 210.088C143.655 210.088 144.407 210.275 145.079 210.648C145.751 211.011 146.279 211.533 146.663 212.216C147.058 212.899 147.255 213.693 147.255 214.6C147.255 215.507 147.052 216.307 146.647 217C146.252 217.683 145.714 218.211 145.031 218.584C144.348 218.957 143.591 219.144 142.759 219.144ZM142.759 217.864C143.282 217.864 143.772 217.741 144.231 217.496C144.69 217.251 145.058 216.883 145.335 216.392C145.623 215.901 145.767 215.304 145.767 214.6C145.767 213.896 145.628 213.299 145.351 212.808C145.074 212.317 144.711 211.955 144.263 211.72C143.815 211.475 143.33 211.352 142.807 211.352C142.274 211.352 141.783 211.475 141.335 211.72C140.898 211.955 140.546 212.317 140.279 212.808C140.012 213.299 139.879 213.896 139.879 214.6C139.879 215.315 140.007 215.917 140.263 216.408C140.53 216.899 140.882 217.267 141.319 217.512C141.756 217.747 142.236 217.864 142.759 217.864ZM156.946 210.232V219H155.49V217.704C155.212 218.152 154.823 218.504 154.322 218.76C153.831 219.005 153.287 219.128 152.69 219.128C152.007 219.128 151.394 218.989 150.85 218.712C150.306 218.424 149.874 217.997 149.554 217.432C149.244 216.867 149.09 216.179 149.09 215.368V210.232H150.53V215.176C150.53 216.04 150.748 216.707 151.186 217.176C151.623 217.635 152.22 217.864 152.978 217.864C153.756 217.864 154.37 217.624 154.818 217.144C155.266 216.664 155.49 215.965 155.49 215.048V210.232H156.946ZM163.126 214.584C163.126 213.688 163.307 212.904 163.67 212.232C164.032 211.549 164.528 211.021 165.158 210.648C165.798 210.275 166.512 210.088 167.302 210.088C167.984 210.088 168.619 210.248 169.206 210.568C169.792 210.877 170.24 211.288 170.55 211.8V207.16H172.022V219H170.55V217.352C170.262 217.875 169.835 218.307 169.27 218.648C168.704 218.979 168.043 219.144 167.286 219.144C166.507 219.144 165.798 218.952 165.158 218.568C164.528 218.184 164.032 217.645 163.67 216.952C163.307 216.259 163.126 215.469 163.126 214.584ZM170.55 214.6C170.55 213.939 170.416 213.363 170.15 212.872C169.883 212.381 169.52 212.008 169.062 211.752C168.614 211.485 168.118 211.352 167.574 211.352C167.03 211.352 166.534 211.48 166.086 211.736C165.638 211.992 165.28 212.365 165.014 212.856C164.747 213.347 164.614 213.923 164.614 214.584C164.614 215.256 164.747 215.843 165.014 216.344C165.28 216.835 165.638 217.213 166.086 217.48C166.534 217.736 167.03 217.864 167.574 217.864C168.118 217.864 168.614 217.736 169.062 217.48C169.52 217.213 169.883 216.835 170.15 216.344C170.416 215.843 170.55 215.261 170.55 214.6ZM178.306 219.144C177.485 219.144 176.738 218.957 176.066 218.584C175.405 218.211 174.882 217.683 174.498 217C174.125 216.307 173.938 215.507 173.938 214.6C173.938 213.704 174.13 212.915 174.514 212.232C174.909 211.539 175.442 211.011 176.114 210.648C176.786 210.275 177.538 210.088 178.37 210.088C179.202 210.088 179.954 210.275 180.626 210.648C181.298 211.011 181.826 211.533 182.21 212.216C182.605 212.899 182.802 213.693 182.802 214.6C182.802 215.507 182.599 216.307 182.194 217C181.799 217.683 181.261 218.211 180.578 218.584C179.895 218.957 179.138 219.144 178.306 219.144ZM178.306 217.864C178.829 217.864 179.319 217.741 179.778 217.496C180.237 217.251 180.605 216.883 180.882 216.392C181.17 215.901 181.314 215.304 181.314 214.6C181.314 213.896 181.175 213.299 180.898 212.808C180.621 212.317 180.258 211.955 179.81 211.72C179.362 211.475 178.877 211.352 178.354 211.352C177.821 211.352 177.33 211.475 176.882 211.72C176.445 211.955 176.093 212.317 175.826 212.808C175.559 213.299 175.426 213.896 175.426 214.6C175.426 215.315 175.554 215.917 175.81 216.408C176.077 216.899 176.429 217.267 176.866 217.512C177.303 217.747 177.783 217.864 178.306 217.864ZM188.988 210.072C190.055 210.072 190.919 210.397 191.58 211.048C192.242 211.688 192.572 212.616 192.572 213.832V219H191.132V214.04C191.132 213.165 190.914 212.499 190.476 212.04C190.039 211.571 189.442 211.336 188.684 211.336C187.916 211.336 187.303 211.576 186.844 212.056C186.396 212.536 186.172 213.235 186.172 214.152V219H184.716V210.232H186.172V211.48C186.46 211.032 186.85 210.685 187.34 210.44C187.842 210.195 188.391 210.072 188.988 210.072ZM195.175 207.848H196.791L195.255 211.48H194.231L195.175 207.848ZM200.227 211.432V216.6C200.227 217.027 200.317 217.331 200.499 217.512C200.68 217.683 200.995 217.768 201.443 217.768H202.515V219H201.203C200.392 219 199.784 218.813 199.379 218.44C198.973 218.067 198.771 217.453 198.771 216.6V211.432H197.635V210.232H198.771V208.024H200.227V210.232H202.515V211.432H200.227ZM53.4356 234.072C54.0969 234.072 54.6942 234.216 55.2276 234.504C55.7609 234.781 56.1769 235.203 56.4756 235.768C56.7849 236.333 56.9396 237.021 56.9396 237.832V243H55.4996V238.04C55.4996 237.165 55.2809 236.499 54.8436 236.04C54.4062 235.571 53.8089 235.336 53.0516 235.336C52.2836 235.336 51.6702 235.576 51.2116 236.056C50.7636 236.536 50.5396 237.235 50.5396 238.152V243H49.0836V231.16H50.5396V235.48C50.8276 235.032 51.2222 234.685 51.7236 234.44C52.2356 234.195 52.8062 234.072 53.4356 234.072ZM58.7739 238.584C58.7739 237.688 58.9553 236.904 59.3179 236.232C59.6806 235.549 60.1766 235.021 60.8059 234.648C61.4459 234.275 62.1553 234.088 62.9339 234.088C63.7019 234.088 64.3686 234.253 64.9339 234.584C65.4993 234.915 65.9206 235.331 66.1979 235.832V234.232H67.6699V243H66.1979V241.368C65.9099 241.88 65.4779 242.307 64.9019 242.648C64.3366 242.979 63.6753 243.144 62.9179 243.144C62.1393 243.144 61.4353 242.952 60.8059 242.568C60.1766 242.184 59.6806 241.645 59.3179 240.952C58.9553 240.259 58.7739 239.469 58.7739 238.584ZM66.1979 238.6C66.1979 237.939 66.0646 237.363 65.7979 236.872C65.5313 236.381 65.1686 236.008 64.7099 235.752C64.2619 235.485 63.7659 235.352 63.2219 235.352C62.6779 235.352 62.1819 235.48 61.7339 235.736C61.2859 235.992 60.9286 236.365 60.6619 236.856C60.3953 237.347 60.2619 237.923 60.2619 238.584C60.2619 239.256 60.3953 239.843 60.6619 240.344C60.9286 240.835 61.2859 241.213 61.7339 241.48C62.1819 241.736 62.6779 241.864 63.2219 241.864C63.7659 241.864 64.2619 241.736 64.7099 241.48C65.1686 241.213 65.5313 240.835 65.7979 240.344C66.0646 239.843 66.1979 239.261 66.1979 238.6ZM73.3944 241.656L76.1144 234.232H77.6664L74.2264 243H72.5304L69.0904 234.232H70.6584L73.3944 241.656ZM87.0992 238.28C87.0992 238.557 87.0832 238.851 87.0512 239.16H80.0432C80.0965 240.024 80.3899 240.701 80.9232 241.192C81.4672 241.672 82.1232 241.912 82.8912 241.912C83.5205 241.912 84.0432 241.768 84.4592 241.48C84.8859 241.181 85.1845 240.787 85.3552 240.296H86.9232C86.6885 241.139 86.2192 241.827 85.5152 242.36C84.8112 242.883 83.9365 243.144 82.8912 243.144C82.0592 243.144 81.3125 242.957 80.6512 242.584C80.0005 242.211 79.4885 241.683 79.1152 241C78.7419 240.307 78.5552 239.507 78.5552 238.6C78.5552 237.693 78.7365 236.899 79.0992 236.216C79.4619 235.533 79.9685 235.011 80.6192 234.648C81.2805 234.275 82.0379 234.088 82.8912 234.088C83.7232 234.088 84.4592 234.269 85.0992 234.632C85.7392 234.995 86.2299 235.496 86.5712 236.136C86.9232 236.765 87.0992 237.48 87.0992 238.28ZM85.5952 237.976C85.5952 237.421 85.4725 236.947 85.2272 236.552C84.9819 236.147 84.6459 235.843 84.2192 235.64C83.8032 235.427 83.3392 235.32 82.8272 235.32C82.0912 235.32 81.4619 235.555 80.9392 236.024C80.4272 236.493 80.1339 237.144 80.0592 237.976H85.5952ZM98.8707 237.256C99.276 237.32 99.644 237.485 99.9747 237.752C100.316 238.019 100.583 238.349 100.775 238.744C100.977 239.139 101.079 239.56 101.079 240.008C101.079 240.573 100.935 241.085 100.647 241.544C100.359 241.992 99.9374 242.349 99.3827 242.616C98.8387 242.872 98.1934 243 97.4467 243H93.2867V231.848H97.2867C98.044 231.848 98.6894 231.976 99.2227 232.232C99.756 232.477 100.156 232.813 100.423 233.24C100.689 233.667 100.823 234.147 100.823 234.68C100.823 235.341 100.641 235.891 100.279 236.328C99.9267 236.755 99.4574 237.064 98.8707 237.256ZM94.7427 236.664H97.1907C97.8734 236.664 98.4014 236.504 98.7747 236.184C99.148 235.864 99.3347 235.421 99.3347 234.856C99.3347 234.291 99.148 233.848 98.7747 233.528C98.4014 233.208 97.8627 233.048 97.1587 233.048H94.7427V236.664ZM97.3187 241.8C98.044 241.8 98.6094 241.629 99.0147 241.288C99.42 240.947 99.6227 240.472 99.6227 239.864C99.6227 239.245 99.4094 238.76 98.9827 238.408C98.556 238.045 97.9854 237.864 97.2707 237.864H94.7427V241.8H97.3187ZM110.875 234.232V243H109.419V241.704C109.142 242.152 108.753 242.504 108.251 242.76C107.761 243.005 107.217 243.128 106.619 243.128C105.937 243.128 105.323 242.989 104.779 242.712C104.235 242.424 103.803 241.997 103.483 241.432C103.174 240.867 103.019 240.179 103.019 239.368V234.232H104.459V239.176C104.459 240.04 104.678 240.707 105.115 241.176C105.553 241.635 106.15 241.864 106.907 241.864C107.686 241.864 108.299 241.624 108.747 241.144C109.195 240.664 109.419 239.965 109.419 239.048V234.232H110.875ZM114.086 232.808C113.808 232.808 113.574 232.712 113.382 232.52C113.19 232.328 113.094 232.093 113.094 231.816C113.094 231.539 113.19 231.304 113.382 231.112C113.574 230.92 113.808 230.824 114.086 230.824C114.352 230.824 114.576 230.92 114.758 231.112C114.95 231.304 115.046 231.539 115.046 231.816C115.046 232.093 114.95 232.328 114.758 232.52C114.576 232.712 114.352 232.808 114.086 232.808ZM114.79 234.232V243H113.334V234.232H114.79ZM118.727 231.16V243H117.271V231.16H118.727ZM120.665 238.584C120.665 237.688 120.846 236.904 121.209 236.232C121.571 235.549 122.067 235.021 122.697 234.648C123.337 234.275 124.051 234.088 124.841 234.088C125.523 234.088 126.158 234.248 126.745 234.568C127.331 234.877 127.779 235.288 128.089 235.8V231.16H129.561V243H128.089V241.352C127.801 241.875 127.374 242.307 126.809 242.648C126.243 242.979 125.582 243.144 124.825 243.144C124.046 243.144 123.337 242.952 122.697 242.568C122.067 242.184 121.571 241.645 121.209 240.952C120.846 240.259 120.665 239.469 120.665 238.584ZM128.089 238.6C128.089 237.939 127.955 237.363 127.689 236.872C127.422 236.381 127.059 236.008 126.601 235.752C126.153 235.485 125.657 235.352 125.113 235.352C124.569 235.352 124.073 235.48 123.625 235.736C123.177 235.992 122.819 236.365 122.553 236.856C122.286 237.347 122.153 237.923 122.153 238.584C122.153 239.256 122.286 239.843 122.553 240.344C122.819 240.835 123.177 241.213 123.625 241.48C124.073 241.736 124.569 241.864 125.113 241.864C125.657 241.864 126.153 241.736 126.601 241.48C127.059 241.213 127.422 240.835 127.689 240.344C127.955 239.843 128.089 239.261 128.089 238.6ZM132.773 232.808C132.496 232.808 132.261 232.712 132.069 232.52C131.877 232.328 131.781 232.093 131.781 231.816C131.781 231.539 131.877 231.304 132.069 231.112C132.261 230.92 132.496 230.824 132.773 230.824C133.04 230.824 133.264 230.92 133.445 231.112C133.637 231.304 133.733 231.539 133.733 231.816C133.733 232.093 133.637 232.328 133.445 232.52C133.264 232.712 133.04 232.808 132.773 232.808ZM133.477 234.232V243H132.021V234.232H133.477ZM140.231 234.072C141.297 234.072 142.161 234.397 142.823 235.048C143.484 235.688 143.815 236.616 143.815 237.832V243H142.375V238.04C142.375 237.165 142.156 236.499 141.719 236.04C141.281 235.571 140.684 235.336 139.927 235.336C139.159 235.336 138.545 235.576 138.087 236.056C137.639 236.536 137.415 237.235 137.415 238.152V243H135.959V234.232H137.415V235.48C137.703 235.032 138.092 234.685 138.583 234.44C139.084 234.195 139.633 234.072 140.231 234.072ZM149.809 234.088C150.566 234.088 151.228 234.253 151.793 234.584C152.369 234.915 152.796 235.331 153.073 235.832V234.232H154.545V243.192C154.545 243.992 154.374 244.701 154.033 245.32C153.692 245.949 153.201 246.44 152.561 246.792C151.932 247.144 151.196 247.32 150.353 247.32C149.201 247.32 148.241 247.048 147.473 246.504C146.705 245.96 146.252 245.219 146.113 244.28H147.553C147.713 244.813 148.044 245.24 148.545 245.56C149.046 245.891 149.649 246.056 150.353 246.056C151.153 246.056 151.804 245.805 152.305 245.304C152.817 244.803 153.073 244.099 153.073 243.192V241.352C152.785 241.864 152.358 242.291 151.793 242.632C151.228 242.973 150.566 243.144 149.809 243.144C149.03 243.144 148.321 242.952 147.681 242.568C147.052 242.184 146.556 241.645 146.193 240.952C145.83 240.259 145.649 239.469 145.649 238.584C145.649 237.688 145.83 236.904 146.193 236.232C146.556 235.549 147.052 235.021 147.681 234.648C148.321 234.275 149.03 234.088 149.809 234.088ZM153.073 238.6C153.073 237.939 152.94 237.363 152.673 236.872C152.406 236.381 152.044 236.008 151.585 235.752C151.137 235.485 150.641 235.352 150.097 235.352C149.553 235.352 149.057 235.48 148.609 235.736C148.161 235.992 147.804 236.365 147.537 236.856C147.27 237.347 147.137 237.923 147.137 238.584C147.137 239.256 147.27 239.843 147.537 240.344C147.804 240.835 148.161 241.213 148.609 241.48C149.057 241.736 149.553 241.864 150.097 241.864C150.641 241.864 151.137 241.736 151.585 241.48C152.044 241.213 152.406 240.835 152.673 240.344C152.94 239.843 153.073 239.261 153.073 238.6ZM162.727 235.864C163.026 235.341 163.463 234.915 164.039 234.584C164.615 234.253 165.271 234.088 166.007 234.088C166.796 234.088 167.506 234.275 168.135 234.648C168.764 235.021 169.26 235.549 169.623 236.232C169.986 236.904 170.167 237.688 170.167 238.584C170.167 239.469 169.986 240.259 169.623 240.952C169.26 241.645 168.759 242.184 168.119 242.568C167.49 242.952 166.786 243.144 166.007 243.144C165.25 243.144 164.583 242.979 164.007 242.648C163.442 242.317 163.015 241.896 162.727 241.384V243H161.271V231.16H162.727V235.864ZM168.679 238.584C168.679 237.923 168.546 237.347 168.279 236.856C168.012 236.365 167.65 235.992 167.191 235.736C166.743 235.48 166.247 235.352 165.703 235.352C165.17 235.352 164.674 235.485 164.215 235.752C163.767 236.008 163.404 236.387 163.127 236.888C162.86 237.379 162.727 237.949 162.727 238.6C162.727 239.261 162.86 239.843 163.127 240.344C163.404 240.835 163.767 241.213 164.215 241.48C164.674 241.736 165.17 241.864 165.703 241.864C166.247 241.864 166.743 241.736 167.191 241.48C167.65 241.213 168.012 240.835 168.279 240.344C168.546 239.843 168.679 239.256 168.679 238.584ZM173.54 231.16V243H172.084V231.16H173.54ZM179.845 243.144C179.024 243.144 178.277 242.957 177.605 242.584C176.944 242.211 176.421 241.683 176.037 241C175.664 240.307 175.477 239.507 175.477 238.6C175.477 237.704 175.669 236.915 176.053 236.232C176.448 235.539 176.981 235.011 177.653 234.648C178.325 234.275 179.077 234.088 179.909 234.088C180.741 234.088 181.493 234.275 182.165 234.648C182.837 235.011 183.365 235.533 183.749 236.216C184.144 236.899 184.341 237.693 184.341 238.6C184.341 239.507 184.138 240.307 183.733 241C183.338 241.683 182.8 242.211 182.117 242.584C181.434 242.957 180.677 243.144 179.845 243.144ZM179.845 241.864C180.368 241.864 180.858 241.741 181.317 241.496C181.776 241.251 182.144 240.883 182.421 240.392C182.709 239.901 182.853 239.304 182.853 238.6C182.853 237.896 182.714 237.299 182.437 236.808C182.16 236.317 181.797 235.955 181.349 235.72C180.901 235.475 180.416 235.352 179.893 235.352C179.36 235.352 178.869 235.475 178.421 235.72C177.984 235.955 177.632 236.317 177.365 236.808C177.098 237.299 176.965 237.896 176.965 238.6C176.965 239.315 177.093 239.917 177.349 240.408C177.616 240.899 177.968 241.267 178.405 241.512C178.842 241.747 179.322 241.864 179.845 241.864ZM185.711 238.6C185.711 237.693 185.893 236.904 186.255 236.232C186.618 235.549 187.119 235.021 187.759 234.648C188.41 234.275 189.151 234.088 189.983 234.088C191.061 234.088 191.946 234.349 192.639 234.872C193.343 235.395 193.807 236.12 194.031 237.048H192.463C192.314 236.515 192.021 236.093 191.583 235.784C191.157 235.475 190.623 235.32 189.983 235.32C189.151 235.32 188.479 235.608 187.967 236.184C187.455 236.749 187.199 237.555 187.199 238.6C187.199 239.656 187.455 240.472 187.967 241.048C188.479 241.624 189.151 241.912 189.983 241.912C190.623 241.912 191.157 241.763 191.583 241.464C192.01 241.165 192.303 240.739 192.463 240.184H194.031C193.797 241.08 193.327 241.8 192.623 242.344C191.919 242.877 191.039 243.144 189.983 243.144C189.151 243.144 188.41 242.957 187.759 242.584C187.119 242.211 186.618 241.683 186.255 241C185.893 240.317 185.711 239.517 185.711 238.6ZM200.87 243L197.43 239.128V243H195.974V231.16H197.43V238.12L200.806 234.232H202.838L198.71 238.6L202.854 243H200.87ZM205.713 240.984L203.921 245.288H202.945L204.113 240.984H205.713ZM50.4614 260.848C50.7494 260.347 51.1761 259.931 51.7414 259.6C52.3174 259.259 52.9841 259.088 53.7414 259.088C54.5201 259.088 55.2241 259.275 55.8534 259.648C56.4934 260.021 56.9948 260.549 57.3574 261.232C57.7201 261.904 57.9014 262.688 57.9014 263.584C57.9014 264.469 57.7201 265.259 57.3574 265.952C56.9948 266.645 56.4934 267.184 55.8534 267.568C55.2241 267.952 54.5201 268.144 53.7414 268.144C52.9948 268.144 52.3334 267.979 51.7574 267.648C51.1921 267.307 50.7601 266.885 50.4614 266.384V272.16H49.0054V259.232H50.4614V260.848ZM56.4134 263.584C56.4134 262.923 56.2801 262.347 56.0134 261.856C55.7468 261.365 55.3841 260.992 54.9254 260.736C54.4774 260.48 53.9814 260.352 53.4374 260.352C52.9041 260.352 52.4081 260.485 51.9494 260.752C51.5014 261.008 51.1388 261.387 50.8614 261.888C50.5948 262.379 50.4614 262.949 50.4614 263.6C50.4614 264.261 50.5948 264.843 50.8614 265.344C51.1388 265.835 51.5014 266.213 51.9494 266.48C52.4081 266.736 52.9041 266.864 53.4374 266.864C53.9814 266.864 54.4774 266.736 54.9254 266.48C55.3841 266.213 55.7468 265.835 56.0134 265.344C56.2801 264.843 56.4134 264.256 56.4134 263.584ZM61.2739 256.16V268H59.8179V256.16H61.2739ZM71.7554 263.28C71.7554 263.557 71.7394 263.851 71.7074 264.16H64.6994C64.7528 265.024 65.0461 265.701 65.5794 266.192C66.1234 266.672 66.7794 266.912 67.5474 266.912C68.1768 266.912 68.6994 266.768 69.1154 266.48C69.5421 266.181 69.8408 265.787 70.0114 265.296H71.5794C71.3448 266.139 70.8754 266.827 70.1714 267.36C69.4674 267.883 68.5928 268.144 67.5474 268.144C66.7154 268.144 65.9688 267.957 65.3074 267.584C64.6568 267.211 64.1448 266.683 63.7714 266C63.3981 265.307 63.2114 264.507 63.2114 263.6C63.2114 262.693 63.3928 261.899 63.7554 261.216C64.1181 260.533 64.6248 260.011 65.2754 259.648C65.9368 259.275 66.6941 259.088 67.5474 259.088C68.3794 259.088 69.1154 259.269 69.7554 259.632C70.3954 259.995 70.8861 260.496 71.2274 261.136C71.5794 261.765 71.7554 262.48 71.7554 263.28ZM70.2514 262.976C70.2514 262.421 70.1288 261.947 69.8834 261.552C69.6381 261.147 69.3021 260.843 68.8754 260.64C68.4594 260.427 67.9954 260.32 67.4834 260.32C66.7474 260.32 66.1181 260.555 65.5954 261.024C65.0834 261.493 64.7901 262.144 64.7154 262.976H70.2514ZM73.1333 263.584C73.1333 262.688 73.3146 261.904 73.6773 261.232C74.04 260.549 74.536 260.021 75.1653 259.648C75.8053 259.275 76.5146 259.088 77.2933 259.088C78.0613 259.088 78.728 259.253 79.2933 259.584C79.8586 259.915 80.28 260.331 80.5573 260.832V259.232H82.0293V268H80.5573V266.368C80.2693 266.88 79.8373 267.307 79.2613 267.648C78.696 267.979 78.0346 268.144 77.2773 268.144C76.4986 268.144 75.7946 267.952 75.1653 267.568C74.536 267.184 74.04 266.645 73.6773 265.952C73.3146 265.259 73.1333 264.469 73.1333 263.584ZM80.5573 263.6C80.5573 262.939 80.424 262.363 80.1573 261.872C79.8906 261.381 79.528 261.008 79.0693 260.752C78.6213 260.485 78.1253 260.352 77.5813 260.352C77.0373 260.352 76.5413 260.48 76.0933 260.736C75.6453 260.992 75.288 261.365 75.0213 261.856C74.7546 262.347 74.6213 262.923 74.6213 263.584C74.6213 264.256 74.7546 264.843 75.0213 265.344C75.288 265.835 75.6453 266.213 76.0933 266.48C76.5413 266.736 77.0373 266.864 77.5813 266.864C78.1253 266.864 78.6213 266.736 79.0693 266.48C79.528 266.213 79.8906 265.835 80.1573 265.344C80.424 264.843 80.5573 264.261 80.5573 263.6ZM87.5938 268.144C86.9218 268.144 86.3191 268.032 85.7858 267.808C85.2525 267.573 84.8311 267.253 84.5218 266.848C84.2125 266.432 84.0418 265.957 84.0098 265.424H85.5138C85.5565 265.861 85.7591 266.219 86.1218 266.496C86.4951 266.773 86.9805 266.912 87.5778 266.912C88.1325 266.912 88.5698 266.789 88.8898 266.544C89.2098 266.299 89.3698 265.989 89.3698 265.616C89.3698 265.232 89.1991 264.949 88.8578 264.768C88.5165 264.576 87.9885 264.389 87.2738 264.208C86.6231 264.037 86.0898 263.867 85.6738 263.696C85.2685 263.515 84.9165 263.253 84.6178 262.912C84.3298 262.56 84.1858 262.101 84.1858 261.536C84.1858 261.088 84.3191 260.677 84.5858 260.304C84.8525 259.931 85.2311 259.637 85.7218 259.424C86.2125 259.2 86.7725 259.088 87.4018 259.088C88.3725 259.088 89.1565 259.333 89.7538 259.824C90.3511 260.315 90.6711 260.987 90.7138 261.84H89.2578C89.2258 261.381 89.0391 261.013 88.6978 260.736C88.3671 260.459 87.9191 260.32 87.3538 260.32C86.8311 260.32 86.4151 260.432 86.1058 260.656C85.7965 260.88 85.6418 261.173 85.6418 261.536C85.6418 261.824 85.7325 262.064 85.9138 262.256C86.1058 262.437 86.3405 262.587 86.6178 262.704C86.9058 262.811 87.3005 262.933 87.8018 263.072C88.4311 263.243 88.9431 263.413 89.3378 263.584C89.7325 263.744 90.0685 263.989 90.3458 264.32C90.6338 264.651 90.7831 265.083 90.7938 265.616C90.7938 266.096 90.6605 266.528 90.3938 266.912C90.1271 267.296 89.7485 267.6 89.2578 267.824C88.7778 268.037 88.2231 268.144 87.5938 268.144ZM100.849 263.28C100.849 263.557 100.833 263.851 100.801 264.16H93.7932C93.8465 265.024 94.1399 265.701 94.6732 266.192C95.2172 266.672 95.8732 266.912 96.6412 266.912C97.2705 266.912 97.7932 266.768 98.2092 266.48C98.6359 266.181 98.9345 265.787 99.1052 265.296H100.673C100.439 266.139 99.9692 266.827 99.2652 267.36C98.5612 267.883 97.6865 268.144 96.6412 268.144C95.8092 268.144 95.0625 267.957 94.4012 267.584C93.7505 267.211 93.2385 266.683 92.8652 266C92.4919 265.307 92.3052 264.507 92.3052 263.6C92.3052 262.693 92.4865 261.899 92.8492 261.216C93.2119 260.533 93.7185 260.011 94.3692 259.648C95.0305 259.275 95.7879 259.088 96.6412 259.088C97.4732 259.088 98.2092 259.269 98.8492 259.632C99.4892 259.995 99.9799 260.496 100.321 261.136C100.673 261.765 100.849 262.48 100.849 263.28ZM99.3452 262.976C99.3452 262.421 99.2225 261.947 98.9772 261.552C98.7319 261.147 98.3959 260.843 97.9692 260.64C97.5532 260.427 97.0892 260.32 96.5772 260.32C95.8412 260.32 95.2119 260.555 94.6892 261.024C94.1772 261.493 93.8839 262.144 93.8092 262.976H99.3452ZM106.493 263.584C106.493 262.688 106.674 261.904 107.037 261.232C107.399 260.549 107.895 260.021 108.525 259.648C109.165 259.275 109.874 259.088 110.653 259.088C111.421 259.088 112.087 259.253 112.653 259.584C113.218 259.915 113.639 260.331 113.917 260.832V259.232H115.389V268H113.917V266.368C113.629 266.88 113.197 267.307 112.621 267.648C112.055 267.979 111.394 268.144 110.637 268.144C109.858 268.144 109.154 267.952 108.525 267.568C107.895 267.184 107.399 266.645 107.037 265.952C106.674 265.259 106.493 264.469 106.493 263.584ZM113.917 263.6C113.917 262.939 113.783 262.363 113.517 261.872C113.25 261.381 112.887 261.008 112.429 260.752C111.981 260.485 111.485 260.352 110.941 260.352C110.397 260.352 109.901 260.48 109.453 260.736C109.005 260.992 108.647 261.365 108.381 261.856C108.114 262.347 107.981 262.923 107.981 263.584C107.981 264.256 108.114 264.843 108.381 265.344C108.647 265.835 109.005 266.213 109.453 266.48C109.901 266.736 110.397 266.864 110.941 266.864C111.485 266.864 111.981 266.736 112.429 266.48C112.887 266.213 113.25 265.835 113.517 265.344C113.783 264.843 113.917 264.261 113.917 263.6ZM117.305 263.584C117.305 262.688 117.487 261.904 117.849 261.232C118.212 260.549 118.708 260.021 119.337 259.648C119.977 259.275 120.692 259.088 121.481 259.088C122.164 259.088 122.799 259.248 123.385 259.568C123.972 259.877 124.42 260.288 124.729 260.8V256.16H126.201V268H124.729V266.352C124.441 266.875 124.015 267.307 123.449 267.648C122.884 267.979 122.223 268.144 121.465 268.144C120.687 268.144 119.977 267.952 119.337 267.568C118.708 267.184 118.212 266.645 117.849 265.952C117.487 265.259 117.305 264.469 117.305 263.584ZM124.729 263.6C124.729 262.939 124.596 262.363 124.329 261.872C124.063 261.381 123.7 261.008 123.241 260.752C122.793 260.485 122.297 260.352 121.753 260.352C121.209 260.352 120.713 260.48 120.265 260.736C119.817 260.992 119.46 261.365 119.193 261.856C118.927 262.347 118.793 262.923 118.793 263.584C118.793 264.256 118.927 264.843 119.193 265.344C119.46 265.835 119.817 266.213 120.265 266.48C120.713 266.736 121.209 266.864 121.753 266.864C122.297 266.864 122.793 266.736 123.241 266.48C123.7 266.213 124.063 265.835 124.329 265.344C124.596 264.843 124.729 264.261 124.729 263.6ZM128.118 263.584C128.118 262.688 128.299 261.904 128.662 261.232C129.024 260.549 129.52 260.021 130.15 259.648C130.79 259.275 131.504 259.088 132.294 259.088C132.976 259.088 133.611 259.248 134.198 259.568C134.784 259.877 135.232 260.288 135.542 260.8V256.16H137.014V268H135.542V266.352C135.254 266.875 134.827 267.307 134.262 267.648C133.696 267.979 133.035 268.144 132.278 268.144C131.499 268.144 130.79 267.952 130.15 267.568C129.52 267.184 129.024 266.645 128.662 265.952C128.299 265.259 128.118 264.469 128.118 263.584ZM135.542 263.6C135.542 262.939 135.408 262.363 135.142 261.872C134.875 261.381 134.512 261.008 134.054 260.752C133.606 260.485 133.11 260.352 132.566 260.352C132.022 260.352 131.526 260.48 131.078 260.736C130.63 260.992 130.272 261.365 130.006 261.856C129.739 262.347 129.606 262.923 129.606 263.584C129.606 264.256 129.739 264.843 130.006 265.344C130.272 265.835 130.63 266.213 131.078 266.48C131.526 266.736 132.022 266.864 132.566 266.864C133.11 266.864 133.606 266.736 134.054 266.48C134.512 266.213 134.875 265.835 135.142 265.344C135.408 264.843 135.542 264.261 135.542 263.6ZM149.324 262.256C149.729 262.32 150.097 262.485 150.428 262.752C150.769 263.019 151.036 263.349 151.228 263.744C151.43 264.139 151.532 264.56 151.532 265.008C151.532 265.573 151.388 266.085 151.1 266.544C150.812 266.992 150.39 267.349 149.836 267.616C149.292 267.872 148.646 268 147.9 268H143.74V256.848H147.74C148.497 256.848 149.142 256.976 149.676 257.232C150.209 257.477 150.609 257.813 150.876 258.24C151.142 258.667 151.276 259.147 151.276 259.68C151.276 260.341 151.094 260.891 150.732 261.328C150.38 261.755 149.91 262.064 149.324 262.256ZM145.196 261.664H147.644C148.326 261.664 148.854 261.504 149.228 261.184C149.601 260.864 149.788 260.421 149.788 259.856C149.788 259.291 149.601 258.848 149.228 258.528C148.854 258.208 148.316 258.048 147.612 258.048H145.196V261.664ZM147.772 266.8C148.497 266.8 149.062 266.629 149.468 266.288C149.873 265.947 150.076 265.472 150.076 264.864C150.076 264.245 149.862 263.76 149.436 263.408C149.009 263.045 148.438 262.864 147.724 262.864H145.196V266.8H147.772ZM161.328 259.232V268H159.872V266.704C159.595 267.152 159.206 267.504 158.704 267.76C158.214 268.005 157.67 268.128 157.072 268.128C156.39 268.128 155.776 267.989 155.232 267.712C154.688 267.424 154.256 266.997 153.936 266.432C153.627 265.867 153.472 265.179 153.472 264.368V259.232H154.912V264.176C154.912 265.04 155.131 265.707 155.568 266.176C156.006 266.635 156.603 266.864 157.36 266.864C158.139 266.864 158.752 266.624 159.2 266.144C159.648 265.664 159.872 264.965 159.872 264.048V259.232H161.328ZM164.539 257.808C164.261 257.808 164.027 257.712 163.835 257.52C163.643 257.328 163.547 257.093 163.547 256.816C163.547 256.539 163.643 256.304 163.835 256.112C164.027 255.92 164.261 255.824 164.539 255.824C164.805 255.824 165.029 255.92 165.211 256.112C165.403 256.304 165.499 256.539 165.499 256.816C165.499 257.093 165.403 257.328 165.211 257.52C165.029 257.712 164.805 257.808 164.539 257.808ZM165.243 259.232V268H163.787V259.232H165.243ZM169.18 256.16V268H167.724V256.16H169.18ZM171.118 263.584C171.118 262.688 171.299 261.904 171.662 261.232C172.024 260.549 172.52 260.021 173.15 259.648C173.79 259.275 174.504 259.088 175.294 259.088C175.976 259.088 176.611 259.248 177.198 259.568C177.784 259.877 178.232 260.288 178.542 260.8V256.16H180.014V268H178.542V266.352C178.254 266.875 177.827 267.307 177.262 267.648C176.696 267.979 176.035 268.144 175.278 268.144C174.499 268.144 173.79 267.952 173.15 267.568C172.52 267.184 172.024 266.645 171.662 265.952C171.299 265.259 171.118 264.469 171.118 263.584ZM178.542 263.6C178.542 262.939 178.408 262.363 178.142 261.872C177.875 261.381 177.512 261.008 177.054 260.752C176.606 260.485 176.11 260.352 175.566 260.352C175.022 260.352 174.526 260.48 174.078 260.736C173.63 260.992 173.272 261.365 173.006 261.856C172.739 262.347 172.606 262.923 172.606 263.584C172.606 264.256 172.739 264.843 173.006 265.344C173.272 265.835 173.63 266.213 174.078 266.48C174.526 266.736 175.022 266.864 175.566 266.864C176.11 266.864 176.606 266.736 177.054 266.48C177.512 266.213 177.875 265.835 178.142 265.344C178.408 264.843 178.542 264.261 178.542 263.6ZM183.226 257.808C182.949 257.808 182.714 257.712 182.522 257.52C182.33 257.328 182.234 257.093 182.234 256.816C182.234 256.539 182.33 256.304 182.522 256.112C182.714 255.92 182.949 255.824 183.226 255.824C183.493 255.824 183.717 255.92 183.898 256.112C184.09 256.304 184.186 256.539 184.186 256.816C184.186 257.093 184.09 257.328 183.898 257.52C183.717 257.712 183.493 257.808 183.226 257.808ZM183.93 259.232V268H182.474V259.232H183.93ZM190.684 259.072C191.75 259.072 192.614 259.397 193.276 260.048C193.937 260.688 194.268 261.616 194.268 262.832V268H192.828V263.04C192.828 262.165 192.609 261.499 192.172 261.04C191.734 260.571 191.137 260.336 190.38 260.336C189.612 260.336 188.998 260.576 188.54 261.056C188.092 261.536 187.868 262.235 187.868 263.152V268H186.412V259.232H187.868V260.48C188.156 260.032 188.545 259.685 189.036 259.44C189.537 259.195 190.086 259.072 190.684 259.072ZM200.262 259.088C201.019 259.088 201.681 259.253 202.246 259.584C202.822 259.915 203.249 260.331 203.526 260.832V259.232H204.998V268.192C204.998 268.992 204.827 269.701 204.486 270.32C204.145 270.949 203.654 271.44 203.014 271.792C202.385 272.144 201.649 272.32 200.806 272.32C199.654 272.32 198.694 272.048 197.926 271.504C197.158 270.96 196.705 270.219 196.566 269.28H198.006C198.166 269.813 198.497 270.24 198.998 270.56C199.499 270.891 200.102 271.056 200.806 271.056C201.606 271.056 202.257 270.805 202.758 270.304C203.27 269.803 203.526 269.099 203.526 268.192V266.352C203.238 266.864 202.811 267.291 202.246 267.632C201.681 267.973 201.019 268.144 200.262 268.144C199.483 268.144 198.774 267.952 198.134 267.568C197.505 267.184 197.009 266.645 196.646 265.952C196.283 265.259 196.102 264.469 196.102 263.584C196.102 262.688 196.283 261.904 196.646 261.232C197.009 260.549 197.505 260.021 198.134 259.648C198.774 259.275 199.483 259.088 200.262 259.088ZM203.526 263.6C203.526 262.939 203.393 262.363 203.126 261.872C202.859 261.381 202.497 261.008 202.038 260.752C201.59 260.485 201.094 260.352 200.55 260.352C200.006 260.352 199.51 260.48 199.062 260.736C198.614 260.992 198.257 261.365 197.99 261.856C197.723 262.347 197.59 262.923 197.59 263.584C197.59 264.256 197.723 264.843 197.99 265.344C198.257 265.835 198.614 266.213 199.062 266.48C199.51 266.736 200.006 266.864 200.55 266.864C201.094 266.864 201.59 266.736 202.038 266.48C202.497 266.213 202.859 265.835 203.126 265.344C203.393 264.843 203.526 264.261 203.526 263.6ZM108.219 284.864C108.518 284.341 108.955 283.915 109.531 283.584C110.107 283.253 110.763 283.088 111.499 283.088C112.289 283.088 112.998 283.275 113.627 283.648C114.257 284.021 114.753 284.549 115.115 285.232C115.478 285.904 115.659 286.688 115.659 287.584C115.659 288.469 115.478 289.259 115.115 289.952C114.753 290.645 114.251 291.184 113.611 291.568C112.982 291.952 112.278 292.144 111.499 292.144C110.742 292.144 110.075 291.979 109.499 291.648C108.934 291.317 108.507 290.896 108.219 290.384V292H106.763V280.16H108.219V284.864ZM114.171 287.584C114.171 286.923 114.038 286.347 113.771 285.856C113.505 285.365 113.142 284.992 112.683 284.736C112.235 284.48 111.739 284.352 111.195 284.352C110.662 284.352 110.166 284.485 109.707 284.752C109.259 285.008 108.897 285.387 108.619 285.888C108.353 286.379 108.219 286.949 108.219 287.6C108.219 288.261 108.353 288.843 108.619 289.344C108.897 289.835 109.259 290.213 109.707 290.48C110.166 290.736 110.662 290.864 111.195 290.864C111.739 290.864 112.235 290.736 112.683 290.48C113.142 290.213 113.505 289.835 113.771 289.344C114.038 288.843 114.171 288.256 114.171 287.584ZM119.032 280.16V292H117.576V280.16H119.032ZM125.337 292.144C124.516 292.144 123.769 291.957 123.097 291.584C122.436 291.211 121.913 290.683 121.529 290C121.156 289.307 120.969 288.507 120.969 287.6C120.969 286.704 121.161 285.915 121.545 285.232C121.94 284.539 122.473 284.011 123.145 283.648C123.817 283.275 124.569 283.088 125.401 283.088C126.233 283.088 126.985 283.275 127.657 283.648C128.329 284.011 128.857 284.533 129.241 285.216C129.636 285.899 129.833 286.693 129.833 287.6C129.833 288.507 129.631 289.307 129.225 290C128.831 290.683 128.292 291.211 127.609 291.584C126.927 291.957 126.169 292.144 125.337 292.144ZM125.337 290.864C125.86 290.864 126.351 290.741 126.809 290.496C127.268 290.251 127.636 289.883 127.913 289.392C128.201 288.901 128.345 288.304 128.345 287.6C128.345 286.896 128.207 286.299 127.929 285.808C127.652 285.317 127.289 284.955 126.841 284.72C126.393 284.475 125.908 284.352 125.385 284.352C124.852 284.352 124.361 284.475 123.913 284.72C123.476 284.955 123.124 285.317 122.857 285.808C122.591 286.299 122.457 286.896 122.457 287.6C122.457 288.315 122.585 288.917 122.841 289.408C123.108 289.899 123.46 290.267 123.897 290.512C124.335 290.747 124.815 290.864 125.337 290.864ZM131.204 287.6C131.204 286.693 131.385 285.904 131.748 285.232C132.11 284.549 132.612 284.021 133.252 283.648C133.902 283.275 134.644 283.088 135.476 283.088C136.553 283.088 137.438 283.349 138.132 283.872C138.836 284.395 139.3 285.12 139.524 286.048H137.956C137.806 285.515 137.513 285.093 137.076 284.784C136.649 284.475 136.116 284.32 135.476 284.32C134.644 284.32 133.972 284.608 133.46 285.184C132.948 285.749 132.692 286.555 132.692 287.6C132.692 288.656 132.948 289.472 133.46 290.048C133.972 290.624 134.644 290.912 135.476 290.912C136.116 290.912 136.649 290.763 137.076 290.464C137.502 290.165 137.796 289.739 137.956 289.184H139.524C139.289 290.08 138.82 290.8 138.116 291.344C137.412 291.877 136.532 292.144 135.476 292.144C134.644 292.144 133.902 291.957 133.252 291.584C132.612 291.211 132.11 290.683 131.748 290C131.385 289.317 131.204 288.517 131.204 287.6ZM146.362 292L142.922 288.128V292H141.466V280.16H142.922V287.12L146.298 283.232H148.33L144.202 287.6L148.346 292H146.362Z" fill="black"/>
<g clip-path="url(#clip0_1565_2053)">
<path d="M195.51 121.689L180.11 114.6V94.2892C180.103 93.863 179.974 93.4479 179.738 93.0933C179.501 92.7387 179.168 92.4596 178.777 92.2892L162.11 84.6225C161.818 84.4871 161.499 84.417 161.177 84.417C160.855 84.417 160.536 84.4871 160.244 84.6225L143.577 92.2892C143.191 92.4677 142.865 92.7531 142.637 93.1115C142.408 93.4699 142.287 93.8863 142.288 94.3114V114.622L126.955 121.689C126.569 121.868 126.243 122.153 126.014 122.511C125.786 122.87 125.665 123.286 125.666 123.711V145.445C125.665 145.87 125.786 146.286 126.014 146.645C126.243 147.003 126.569 147.288 126.955 147.467L143.622 155.134C143.914 155.269 144.233 155.339 144.555 155.339C144.877 155.339 145.196 155.269 145.488 155.134L161.222 147.889L176.955 155.134C177.247 155.269 177.566 155.339 177.888 155.339C178.211 155.339 178.529 155.269 178.822 155.134L195.488 147.467C195.874 147.288 196.2 147.003 196.429 146.645C196.657 146.286 196.778 145.87 196.777 145.445V123.711C196.78 123.289 196.663 122.874 196.438 122.516C196.214 122.158 195.892 121.871 195.51 121.689ZM189.266 123.711L177.91 128.889L166.555 123.711L177.91 118.489L189.266 123.711ZM161.222 89.0669L172.577 94.2892L161.222 99.5114L149.888 94.2892L161.222 89.0669ZM144.555 118.467L155.91 123.689L144.555 128.889L133.199 123.711L144.555 118.467ZM158.999 144L144.555 150.667L130.11 144V127.178L143.622 133.334C143.908 133.462 144.219 133.529 144.533 133.529C144.847 133.529 145.157 133.462 145.444 133.334L158.955 127.111L158.999 144ZM146.777 114.6V97.778L160.288 104C160.581 104.136 160.899 104.206 161.222 104.206C161.544 104.206 161.862 104.136 162.155 104L175.666 97.778V114.622L161.222 121.289L146.777 114.6ZM192.355 144.022L177.91 150.689L163.444 144.022V127.156L176.977 133.334C177.261 133.459 177.567 133.524 177.877 133.524C178.187 133.524 178.494 133.459 178.777 133.334L192.288 127.111L192.355 144.022Z" fill="white"/>
</g>
<path d="M68.5197 87C66.4147 87 64.6797 88.979 64.6797 91.38V160H113.32V91.38C113.32 88.979 111.585 87 109.48 87H68.5197ZM68.5197 89.92H109.48C110.19 89.92 110.76 90.5702 110.76 91.38V157.08H105.64V139.56H91.5597V157.08H67.2397V91.38C67.2397 90.5702 67.8097 89.92 68.5197 89.92ZM72.3597 95.76V107.44H86.4397V95.76H72.3597ZM91.5597 95.76V107.44H105.64V95.76H91.5597ZM74.9197 98.68H83.8797V104.52H74.9197V98.68ZM94.1197 98.68H103.08V104.52H94.1197V98.68ZM72.3597 110.36V122.04H86.4397V110.36H72.3597ZM91.5597 110.36V122.04H105.64V110.36H91.5597ZM74.9197 113.28H83.8797V119.12H74.9197V113.28ZM94.1197 113.28H103.08V119.12H94.1197V113.28ZM72.3597 124.96V136.64H86.4397V124.96H72.3597ZM91.5597 124.96V136.64H105.64V124.96H91.5597ZM74.9197 127.88H83.8797V133.72H74.9197V127.88ZM94.1197 127.88H103.08V133.72H94.1197V127.88ZM72.3597 139.56V151.24H86.4397V139.56H72.3597ZM74.9197 142.48H83.8797V148.32H74.9197V142.48ZM94.1197 142.48H103.08V157.08H94.1197V142.48Z" fill="white"/>
<defs>
<clipPath id="clip0_1565_2053">
<rect width="80" height="80" fill="white" transform="translate(121 80)"/>
</clipPath>
</defs>
</svg>
