<svg width="258" height="320" viewBox="0 0 258 320" fill="none" xmlns="http://www.w3.org/2000/svg">
<path d="M106.631 61.5669C120.111 51.7288 134.807 33.7094 150.001 31.0896C165.228 28.7859 180.81 42.0491 193.104 57.4092C205.365 72.4531 214.37 89.9103 215.701 107.171C217.031 124.431 211.004 141.477 201.375 154.594C191.922 167.859 179.009 177.029 165.836 188.281C152.522 199.7 138.947 213.201 122.301 217.177C105.512 221.319 85.7947 215.769 72.2802 203.978C58.4486 192.205 50.7869 173.875 45.3019 156.535C39.8169 139.194 36.8256 122.824 40.9984 109.384C45.1712 95.9432 56.8251 85.4145 68.7679 79.1636C80.7437 73.2289 93.0085 71.5721 106.631 61.5669Z" fill="#F66464"/>
<g clip-path="url(#clip0_1572_2051)">
<path d="M118.25 88.25V153.5H129.125V149.875H121.875V128.125H132.75V113.625H150.875V110H132.75V91.875H187.125V110H165.375V113.625H187.125V131.75H172.625V135.375H187.125V157.125H150.875V131.75H147.25V149.875H140V153.5H147.25V160.75H190.75V88.25H118.25ZM129.125 102.75H121.875V99.125H129.125V102.75ZM121.875 124.5V120.875H129.125V124.5H121.875ZM129.125 117.25H121.875V113.625H129.125V117.25ZM121.875 110V106.375H129.125V110H121.875ZM129.125 95.5H121.875V91.875H129.125V95.5Z" fill="white"/>
</g>
<g clip-path="url(#clip1_1572_2051)">
<path d="M106.667 158.541H63.3337V156.083H106.667V158.541ZM93.667 126.536V123.06L92.5837 121.829L86.1292 129.191L73.0837 114.291L63.2969 125.46V129L73.0837 117.856L84.5822 130.959L77.9999 138.469L79.5512 140.229L92.5837 125.305L93.667 126.536ZM100.167 130.452V133.931L106.667 141.326V137.845L100.167 130.452ZM104.5 104.458H89.3337V106.916H104.5V104.458ZM98.0004 149.428V113.571L103.733 120.076L105.265 118.338L96.917 108.866L88.5667 118.338L90.0985 120.076L95.8337 113.571V149.428L90.1007 142.924L88.5689 144.662L96.917 154.134L105.267 144.659L103.736 142.921L98.0004 149.428Z" fill="white"/>
</g>
<rect y="176" width="258" height="144" rx="28" fill="#EFEDED"/>
<path d="M51.6411 213.416C51.6411 212.328 51.8865 211.352 52.3771 210.488C52.8678 209.613 53.5345 208.931 54.3771 208.44C55.2305 207.949 56.1745 207.704 57.2091 207.704C58.4251 207.704 59.4865 207.997 60.3931 208.584C61.2998 209.171 61.9611 210.003 62.3771 211.08H60.6331C60.3238 210.408 59.8758 209.891 59.2891 209.528C58.7131 209.165 58.0198 208.984 57.2091 208.984C56.4305 208.984 55.7318 209.165 55.1131 209.528C54.4945 209.891 54.0091 210.408 53.6571 211.08C53.3051 211.741 53.1291 212.52 53.1291 213.416C53.1291 214.301 53.3051 215.08 53.6571 215.752C54.0091 216.413 54.4945 216.925 55.1131 217.288C55.7318 217.651 56.4305 217.832 57.2091 217.832C58.0198 217.832 58.7131 217.656 59.2891 217.304C59.8758 216.941 60.3238 216.424 60.6331 215.752H62.3771C61.9611 216.819 61.2998 217.645 60.3931 218.232C59.4865 218.808 58.4251 219.096 57.2091 219.096C56.1745 219.096 55.2305 218.856 54.3771 218.376C53.5345 217.885 52.8678 217.208 52.3771 216.344C51.8865 215.48 51.6411 214.504 51.6411 213.416ZM72.3205 210.232V219H70.8645V217.704C70.5872 218.152 70.1978 218.504 69.6965 218.76C69.2058 219.005 68.6618 219.128 68.0645 219.128C67.3818 219.128 66.7685 218.989 66.2245 218.712C65.6805 218.424 65.2485 217.997 64.9285 217.432C64.6192 216.867 64.4645 216.179 64.4645 215.368V210.232H65.9045V215.176C65.9045 216.04 66.1232 216.707 66.5605 217.176C66.9978 217.635 67.5952 217.864 68.3525 217.864C69.1312 217.864 69.7445 217.624 70.1925 217.144C70.6405 216.664 70.8645 215.965 70.8645 215.048V210.232H72.3205ZM76.2349 211.656C76.4909 211.155 76.8535 210.765 77.3229 210.488C77.8029 210.211 78.3842 210.072 79.0669 210.072V211.576H78.6829C77.0509 211.576 76.2349 212.461 76.2349 214.232V219H74.7789V210.232H76.2349V211.656ZM82.2036 211.656C82.4596 211.155 82.8223 210.765 83.2916 210.488C83.7716 210.211 84.353 210.072 85.0356 210.072V211.576H84.6516C83.0196 211.576 82.2036 212.461 82.2036 214.232V219H80.7476V210.232H82.2036V211.656ZM94.7164 214.28C94.7164 214.557 94.7004 214.851 94.6684 215.16H87.6604C87.7137 216.024 88.007 216.701 88.5404 217.192C89.0844 217.672 89.7404 217.912 90.5084 217.912C91.1377 217.912 91.6604 217.768 92.0764 217.48C92.503 217.181 92.8017 216.787 92.9724 216.296H94.5404C94.3057 217.139 93.8364 217.827 93.1324 218.36C92.4284 218.883 91.5537 219.144 90.5084 219.144C89.6764 219.144 88.9297 218.957 88.2684 218.584C87.6177 218.211 87.1057 217.683 86.7324 217C86.359 216.307 86.1724 215.507 86.1724 214.6C86.1724 213.693 86.3537 212.899 86.7164 212.216C87.079 211.533 87.5857 211.011 88.2364 210.648C88.8977 210.275 89.655 210.088 90.5084 210.088C91.3404 210.088 92.0764 210.269 92.7164 210.632C93.3564 210.995 93.847 211.496 94.1884 212.136C94.5404 212.765 94.7164 213.48 94.7164 214.28ZM93.2124 213.976C93.2124 213.421 93.0897 212.947 92.8444 212.552C92.599 212.147 92.263 211.843 91.8364 211.64C91.4204 211.427 90.9564 211.32 90.4444 211.32C89.7084 211.32 89.079 211.555 88.5564 212.024C88.0444 212.493 87.751 213.144 87.6764 213.976H93.2124ZM100.91 210.072C101.977 210.072 102.841 210.397 103.502 211.048C104.164 211.688 104.494 212.616 104.494 213.832V219H103.054V214.04C103.054 213.165 102.836 212.499 102.398 212.04C101.961 211.571 101.364 211.336 100.606 211.336C99.8383 211.336 99.2249 211.576 98.7663 212.056C98.3183 212.536 98.0943 213.235 98.0943 214.152V219H96.6383V210.232H98.0943V211.48C98.3823 211.032 98.7716 210.685 99.2623 210.44C99.7636 210.195 100.313 210.072 100.91 210.072ZM108.649 211.432V216.6C108.649 217.027 108.739 217.331 108.921 217.512C109.102 217.683 109.417 217.768 109.865 217.768H110.937V219H109.625C108.814 219 108.206 218.813 107.801 218.44C107.395 218.067 107.193 217.453 107.193 216.6V211.432H106.057V210.232H107.193V208.024H108.649V210.232H110.937V211.432H108.649ZM114.157 207.16V219H112.701V207.16H114.157ZM124.19 210.232L118.91 223.128H117.406L119.134 218.904L115.598 210.232H117.214L119.966 217.336L122.686 210.232H124.19ZM137.472 210.232L132.192 223.128H130.688L132.416 218.904L128.88 210.232H130.496L133.248 217.336L135.968 210.232H137.472ZM142.759 219.144C141.938 219.144 141.191 218.957 140.519 218.584C139.858 218.211 139.335 217.683 138.951 217C138.578 216.307 138.391 215.507 138.391 214.6C138.391 213.704 138.583 212.915 138.967 212.232C139.362 211.539 139.895 211.011 140.567 210.648C141.239 210.275 141.991 210.088 142.823 210.088C143.655 210.088 144.407 210.275 145.079 210.648C145.751 211.011 146.279 211.533 146.663 212.216C147.058 212.899 147.255 213.693 147.255 214.6C147.255 215.507 147.052 216.307 146.647 217C146.252 217.683 145.714 218.211 145.031 218.584C144.348 218.957 143.591 219.144 142.759 219.144ZM142.759 217.864C143.282 217.864 143.772 217.741 144.231 217.496C144.69 217.251 145.058 216.883 145.335 216.392C145.623 215.901 145.767 215.304 145.767 214.6C145.767 213.896 145.628 213.299 145.351 212.808C145.074 212.317 144.711 211.955 144.263 211.72C143.815 211.475 143.33 211.352 142.807 211.352C142.274 211.352 141.783 211.475 141.335 211.72C140.898 211.955 140.546 212.317 140.279 212.808C140.012 213.299 139.879 213.896 139.879 214.6C139.879 215.315 140.007 215.917 140.263 216.408C140.53 216.899 140.882 217.267 141.319 217.512C141.756 217.747 142.236 217.864 142.759 217.864ZM156.946 210.232V219H155.49V217.704C155.212 218.152 154.823 218.504 154.322 218.76C153.831 219.005 153.287 219.128 152.69 219.128C152.007 219.128 151.394 218.989 150.85 218.712C150.306 218.424 149.874 217.997 149.554 217.432C149.244 216.867 149.09 216.179 149.09 215.368V210.232H150.53V215.176C150.53 216.04 150.748 216.707 151.186 217.176C151.623 217.635 152.22 217.864 152.978 217.864C153.756 217.864 154.37 217.624 154.818 217.144C155.266 216.664 155.49 215.965 155.49 215.048V210.232H156.946ZM163.126 214.584C163.126 213.688 163.307 212.904 163.67 212.232C164.032 211.549 164.528 211.021 165.158 210.648C165.798 210.275 166.512 210.088 167.302 210.088C167.984 210.088 168.619 210.248 169.206 210.568C169.792 210.877 170.24 211.288 170.55 211.8V207.16H172.022V219H170.55V217.352C170.262 217.875 169.835 218.307 169.27 218.648C168.704 218.979 168.043 219.144 167.286 219.144C166.507 219.144 165.798 218.952 165.158 218.568C164.528 218.184 164.032 217.645 163.67 216.952C163.307 216.259 163.126 215.469 163.126 214.584ZM170.55 214.6C170.55 213.939 170.416 213.363 170.15 212.872C169.883 212.381 169.52 212.008 169.062 211.752C168.614 211.485 168.118 211.352 167.574 211.352C167.03 211.352 166.534 211.48 166.086 211.736C165.638 211.992 165.28 212.365 165.014 212.856C164.747 213.347 164.614 213.923 164.614 214.584C164.614 215.256 164.747 215.843 165.014 216.344C165.28 216.835 165.638 217.213 166.086 217.48C166.534 217.736 167.03 217.864 167.574 217.864C168.118 217.864 168.614 217.736 169.062 217.48C169.52 217.213 169.883 216.835 170.15 216.344C170.416 215.843 170.55 215.261 170.55 214.6ZM178.306 219.144C177.485 219.144 176.738 218.957 176.066 218.584C175.405 218.211 174.882 217.683 174.498 217C174.125 216.307 173.938 215.507 173.938 214.6C173.938 213.704 174.13 212.915 174.514 212.232C174.909 211.539 175.442 211.011 176.114 210.648C176.786 210.275 177.538 210.088 178.37 210.088C179.202 210.088 179.954 210.275 180.626 210.648C181.298 211.011 181.826 211.533 182.21 212.216C182.605 212.899 182.802 213.693 182.802 214.6C182.802 215.507 182.599 216.307 182.194 217C181.799 217.683 181.261 218.211 180.578 218.584C179.895 218.957 179.138 219.144 178.306 219.144ZM178.306 217.864C178.829 217.864 179.319 217.741 179.778 217.496C180.237 217.251 180.605 216.883 180.882 216.392C181.17 215.901 181.314 215.304 181.314 214.6C181.314 213.896 181.175 213.299 180.898 212.808C180.621 212.317 180.258 211.955 179.81 211.72C179.362 211.475 178.877 211.352 178.354 211.352C177.821 211.352 177.33 211.475 176.882 211.72C176.445 211.955 176.093 212.317 175.826 212.808C175.559 213.299 175.426 213.896 175.426 214.6C175.426 215.315 175.554 215.917 175.81 216.408C176.077 216.899 176.429 217.267 176.866 217.512C177.303 217.747 177.783 217.864 178.306 217.864ZM188.988 210.072C190.055 210.072 190.919 210.397 191.58 211.048C192.242 211.688 192.572 212.616 192.572 213.832V219H191.132V214.04C191.132 213.165 190.914 212.499 190.476 212.04C190.039 211.571 189.442 211.336 188.684 211.336C187.916 211.336 187.303 211.576 186.844 212.056C186.396 212.536 186.172 213.235 186.172 214.152V219H184.716V210.232H186.172V211.48C186.46 211.032 186.85 210.685 187.34 210.44C187.842 210.195 188.391 210.072 188.988 210.072ZM195.175 207.848H196.791L195.255 211.48H194.231L195.175 207.848ZM200.227 211.432V216.6C200.227 217.027 200.317 217.331 200.499 217.512C200.68 217.683 200.995 217.768 201.443 217.768H202.515V219H201.203C200.392 219 199.784 218.813 199.379 218.44C198.973 218.067 198.771 217.453 198.771 216.6V211.432H197.635V210.232H198.771V208.024H200.227V210.232H202.515V211.432H200.227ZM57.0059 234.072C57.6672 234.072 58.2645 234.216 58.7979 234.504C59.3312 234.781 59.7472 235.203 60.0459 235.768C60.3552 236.333 60.5099 237.021 60.5099 237.832V243H59.0699V238.04C59.0699 237.165 58.8512 236.499 58.4139 236.04C57.9765 235.571 57.3792 235.336 56.6219 235.336C55.8539 235.336 55.2405 235.576 54.7819 236.056C54.3339 236.536 54.1099 237.235 54.1099 238.152V243H52.6539V231.16H54.1099V235.48C54.3979 235.032 54.7925 234.685 55.2939 234.44C55.8059 234.195 56.3765 234.072 57.0059 234.072ZM62.3443 238.584C62.3443 237.688 62.5256 236.904 62.8883 236.232C63.2509 235.549 63.7469 235.021 64.3763 234.648C65.0163 234.275 65.7256 234.088 66.5043 234.088C67.2723 234.088 67.9389 234.253 68.5043 234.584C69.0696 234.915 69.4909 235.331 69.7683 235.832V234.232H71.2403V243H69.7683V241.368C69.4803 241.88 69.0483 242.307 68.4723 242.648C67.9069 242.979 67.2456 243.144 66.4883 243.144C65.7096 243.144 65.0056 242.952 64.3763 242.568C63.7469 242.184 63.2509 241.645 62.8883 240.952C62.5256 240.259 62.3443 239.469 62.3443 238.584ZM69.7683 238.6C69.7683 237.939 69.6349 237.363 69.3683 236.872C69.1016 236.381 68.7389 236.008 68.2803 235.752C67.8323 235.485 67.3363 235.352 66.7923 235.352C66.2483 235.352 65.7523 235.48 65.3043 235.736C64.8563 235.992 64.4989 236.365 64.2323 236.856C63.9656 237.347 63.8323 237.923 63.8323 238.584C63.8323 239.256 63.9656 239.843 64.2323 240.344C64.4989 240.835 64.8563 241.213 65.3043 241.48C65.7523 241.736 66.2483 241.864 66.7923 241.864C67.3363 241.864 67.8323 241.736 68.2803 241.48C68.7389 241.213 69.1016 240.835 69.3683 240.344C69.6349 239.843 69.7683 239.261 69.7683 238.6ZM76.9648 241.656L79.6848 234.232H81.2368L77.7968 243H76.1008L72.6608 234.232H74.2288L76.9648 241.656ZM90.6695 238.28C90.6695 238.557 90.6535 238.851 90.6215 239.16H83.6135C83.6668 240.024 83.9602 240.701 84.4935 241.192C85.0375 241.672 85.6935 241.912 86.4615 241.912C87.0908 241.912 87.6135 241.768 88.0295 241.48C88.4562 241.181 88.7548 240.787 88.9255 240.296H90.4935C90.2588 241.139 89.7895 241.827 89.0855 242.36C88.3815 242.883 87.5068 243.144 86.4615 243.144C85.6295 243.144 84.8828 242.957 84.2215 242.584C83.5708 242.211 83.0588 241.683 82.6855 241C82.3122 240.307 82.1255 239.507 82.1255 238.6C82.1255 237.693 82.3068 236.899 82.6695 236.216C83.0322 235.533 83.5388 235.011 84.1895 234.648C84.8508 234.275 85.6082 234.088 86.4615 234.088C87.2935 234.088 88.0295 234.269 88.6695 234.632C89.3095 234.995 89.8002 235.496 90.1415 236.136C90.4935 236.765 90.6695 237.48 90.6695 238.28ZM89.1655 237.976C89.1655 237.421 89.0428 236.947 88.7975 236.552C88.5522 236.147 88.2162 235.843 87.7895 235.64C87.3735 235.427 86.9095 235.32 86.3975 235.32C85.6615 235.32 85.0322 235.555 84.5095 236.024C83.9975 236.493 83.7042 237.144 83.6295 237.976H89.1655ZM102.441 237.256C102.846 237.32 103.214 237.485 103.545 237.752C103.886 238.019 104.153 238.349 104.345 238.744C104.548 239.139 104.649 239.56 104.649 240.008C104.649 240.573 104.505 241.085 104.217 241.544C103.929 241.992 103.508 242.349 102.953 242.616C102.409 242.872 101.764 243 101.017 243H96.857V231.848H100.857C101.614 231.848 102.26 231.976 102.793 232.232C103.326 232.477 103.726 232.813 103.993 233.24C104.26 233.667 104.393 234.147 104.393 234.68C104.393 235.341 104.212 235.891 103.849 236.328C103.497 236.755 103.028 237.064 102.441 237.256ZM98.313 236.664H100.761C101.444 236.664 101.972 236.504 102.345 236.184C102.718 235.864 102.905 235.421 102.905 234.856C102.905 234.291 102.718 233.848 102.345 233.528C101.972 233.208 101.433 233.048 100.729 233.048H98.313V236.664ZM100.889 241.8C101.614 241.8 102.18 241.629 102.585 241.288C102.99 240.947 103.193 240.472 103.193 239.864C103.193 239.245 102.98 238.76 102.553 238.408C102.126 238.045 101.556 237.864 100.841 237.864H98.313V241.8H100.889ZM114.446 234.232V243H112.99V241.704C112.712 242.152 112.323 242.504 111.822 242.76C111.331 243.005 110.787 243.128 110.19 243.128C109.507 243.128 108.894 242.989 108.35 242.712C107.806 242.424 107.374 241.997 107.054 241.432C106.744 240.867 106.59 240.179 106.59 239.368V234.232H108.03V239.176C108.03 240.04 108.248 240.707 108.686 241.176C109.123 241.635 109.72 241.864 110.478 241.864C111.256 241.864 111.87 241.624 112.318 241.144C112.766 240.664 112.99 239.965 112.99 239.048V234.232H114.446ZM117.656 232.808C117.379 232.808 117.144 232.712 116.952 232.52C116.76 232.328 116.664 232.093 116.664 231.816C116.664 231.539 116.76 231.304 116.952 231.112C117.144 230.92 117.379 230.824 117.656 230.824C117.923 230.824 118.147 230.92 118.328 231.112C118.52 231.304 118.616 231.539 118.616 231.816C118.616 232.093 118.52 232.328 118.328 232.52C118.147 232.712 117.923 232.808 117.656 232.808ZM118.36 234.232V243H116.904V234.232H118.36ZM122.297 231.16V243H120.841V231.16H122.297ZM124.235 238.584C124.235 237.688 124.416 236.904 124.779 236.232C125.142 235.549 125.638 235.021 126.267 234.648C126.907 234.275 127.622 234.088 128.411 234.088C129.094 234.088 129.728 234.248 130.315 234.568C130.902 234.877 131.35 235.288 131.659 235.8V231.16H133.131V243H131.659V241.352C131.371 241.875 130.944 242.307 130.379 242.648C129.814 242.979 129.152 243.144 128.395 243.144C127.616 243.144 126.907 242.952 126.267 242.568C125.638 242.184 125.142 241.645 124.779 240.952C124.416 240.259 124.235 239.469 124.235 238.584ZM131.659 238.6C131.659 237.939 131.526 237.363 131.259 236.872C130.992 236.381 130.63 236.008 130.171 235.752C129.723 235.485 129.227 235.352 128.683 235.352C128.139 235.352 127.643 235.48 127.195 235.736C126.747 235.992 126.39 236.365 126.123 236.856C125.856 237.347 125.723 237.923 125.723 238.584C125.723 239.256 125.856 239.843 126.123 240.344C126.39 240.835 126.747 241.213 127.195 241.48C127.643 241.736 128.139 241.864 128.683 241.864C129.227 241.864 129.723 241.736 130.171 241.48C130.63 241.213 130.992 240.835 131.259 240.344C131.526 239.843 131.659 239.261 131.659 238.6ZM136.343 232.808C136.066 232.808 135.831 232.712 135.639 232.52C135.447 232.328 135.351 232.093 135.351 231.816C135.351 231.539 135.447 231.304 135.639 231.112C135.831 230.92 136.066 230.824 136.343 230.824C136.61 230.824 136.834 230.92 137.015 231.112C137.207 231.304 137.303 231.539 137.303 231.816C137.303 232.093 137.207 232.328 137.015 232.52C136.834 232.712 136.61 232.808 136.343 232.808ZM137.047 234.232V243H135.591V234.232H137.047ZM143.801 234.072C144.868 234.072 145.732 234.397 146.393 235.048C147.054 235.688 147.385 236.616 147.385 237.832V243H145.945V238.04C145.945 237.165 145.726 236.499 145.289 236.04C144.852 235.571 144.254 235.336 143.497 235.336C142.729 235.336 142.116 235.576 141.657 236.056C141.209 236.536 140.985 237.235 140.985 238.152V243H139.529V234.232H140.985V235.48C141.273 235.032 141.662 234.685 142.153 234.44C142.654 234.195 143.204 234.072 143.801 234.072ZM153.379 234.088C154.137 234.088 154.798 234.253 155.363 234.584C155.939 234.915 156.366 235.331 156.643 235.832V234.232H158.115V243.192C158.115 243.992 157.945 244.701 157.603 245.32C157.262 245.949 156.771 246.44 156.131 246.792C155.502 247.144 154.766 247.32 153.923 247.32C152.771 247.32 151.811 247.048 151.043 246.504C150.275 245.96 149.822 245.219 149.683 244.28H151.123C151.283 244.813 151.614 245.24 152.115 245.56C152.617 245.891 153.219 246.056 153.923 246.056C154.723 246.056 155.374 245.805 155.875 245.304C156.387 244.803 156.643 244.099 156.643 243.192V241.352C156.355 241.864 155.929 242.291 155.363 242.632C154.798 242.973 154.137 243.144 153.379 243.144C152.601 243.144 151.891 242.952 151.251 242.568C150.622 242.184 150.126 241.645 149.763 240.952C149.401 240.259 149.219 239.469 149.219 238.584C149.219 237.688 149.401 236.904 149.763 236.232C150.126 235.549 150.622 235.021 151.251 234.648C151.891 234.275 152.601 234.088 153.379 234.088ZM156.643 238.6C156.643 237.939 156.51 237.363 156.243 236.872C155.977 236.381 155.614 236.008 155.155 235.752C154.707 235.485 154.211 235.352 153.667 235.352C153.123 235.352 152.627 235.48 152.179 235.736C151.731 235.992 151.374 236.365 151.107 236.856C150.841 237.347 150.707 237.923 150.707 238.584C150.707 239.256 150.841 239.843 151.107 240.344C151.374 240.835 151.731 241.213 152.179 241.48C152.627 241.736 153.123 241.864 153.667 241.864C154.211 241.864 154.707 241.736 155.155 241.48C155.614 241.213 155.977 240.835 156.243 240.344C156.51 239.843 156.643 239.261 156.643 238.6ZM166.297 235.848C166.585 235.347 167.012 234.931 167.577 234.6C168.153 234.259 168.82 234.088 169.577 234.088C170.356 234.088 171.06 234.275 171.689 234.648C172.329 235.021 172.831 235.549 173.193 236.232C173.556 236.904 173.737 237.688 173.737 238.584C173.737 239.469 173.556 240.259 173.193 240.952C172.831 241.645 172.329 242.184 171.689 242.568C171.06 242.952 170.356 243.144 169.577 243.144C168.831 243.144 168.169 242.979 167.593 242.648C167.028 242.307 166.596 241.885 166.297 241.384V247.16H164.841V234.232H166.297V235.848ZM172.249 238.584C172.249 237.923 172.116 237.347 171.849 236.856C171.583 236.365 171.22 235.992 170.761 235.736C170.313 235.48 169.817 235.352 169.273 235.352C168.74 235.352 168.244 235.485 167.785 235.752C167.337 236.008 166.975 236.387 166.697 236.888C166.431 237.379 166.297 237.949 166.297 238.6C166.297 239.261 166.431 239.843 166.697 240.344C166.975 240.835 167.337 241.213 167.785 241.48C168.244 241.736 168.74 241.864 169.273 241.864C169.817 241.864 170.313 241.736 170.761 241.48C171.22 241.213 171.583 240.835 171.849 240.344C172.116 239.843 172.249 239.256 172.249 238.584ZM177.11 231.16V243H175.654V231.16H177.11ZM179.047 238.584C179.047 237.688 179.229 236.904 179.591 236.232C179.954 235.549 180.45 235.021 181.079 234.648C181.719 234.275 182.429 234.088 183.207 234.088C183.975 234.088 184.642 234.253 185.207 234.584C185.773 234.915 186.194 235.331 186.471 235.832V234.232H187.943V243H186.471V241.368C186.183 241.88 185.751 242.307 185.175 242.648C184.61 242.979 183.949 243.144 183.191 243.144C182.413 243.144 181.709 242.952 181.079 242.568C180.45 242.184 179.954 241.645 179.591 240.952C179.229 240.259 179.047 239.469 179.047 238.584ZM186.471 238.6C186.471 237.939 186.338 237.363 186.071 236.872C185.805 236.381 185.442 236.008 184.983 235.752C184.535 235.485 184.039 235.352 183.495 235.352C182.951 235.352 182.455 235.48 182.007 235.736C181.559 235.992 181.202 236.365 180.935 236.856C180.669 237.347 180.535 237.923 180.535 238.584C180.535 239.256 180.669 239.843 180.935 240.344C181.202 240.835 181.559 241.213 182.007 241.48C182.455 241.736 182.951 241.864 183.495 241.864C184.039 241.864 184.535 241.736 184.983 241.48C185.442 241.213 185.805 240.835 186.071 240.344C186.338 239.843 186.471 239.261 186.471 238.6ZM194.676 234.072C195.743 234.072 196.607 234.397 197.268 235.048C197.929 235.688 198.26 236.616 198.26 237.832V243H196.82V238.04C196.82 237.165 196.601 236.499 196.164 236.04C195.727 235.571 195.129 235.336 194.372 235.336C193.604 235.336 192.991 235.576 192.532 236.056C192.084 236.536 191.86 237.235 191.86 238.152V243H190.404V234.232H191.86V235.48C192.148 235.032 192.537 234.685 193.028 234.44C193.529 234.195 194.079 234.072 194.676 234.072ZM202.142 240.984L200.35 245.288H199.374L200.542 240.984H202.142ZM50.4614 260.848C50.7494 260.347 51.1761 259.931 51.7414 259.6C52.3174 259.259 52.9841 259.088 53.7414 259.088C54.5201 259.088 55.2241 259.275 55.8534 259.648C56.4934 260.021 56.9948 260.549 57.3574 261.232C57.7201 261.904 57.9014 262.688 57.9014 263.584C57.9014 264.469 57.7201 265.259 57.3574 265.952C56.9948 266.645 56.4934 267.184 55.8534 267.568C55.2241 267.952 54.5201 268.144 53.7414 268.144C52.9948 268.144 52.3334 267.979 51.7574 267.648C51.1921 267.307 50.7601 266.885 50.4614 266.384V272.16H49.0054V259.232H50.4614V260.848ZM56.4134 263.584C56.4134 262.923 56.2801 262.347 56.0134 261.856C55.7468 261.365 55.3841 260.992 54.9254 260.736C54.4774 260.48 53.9814 260.352 53.4374 260.352C52.9041 260.352 52.4081 260.485 51.9494 260.752C51.5014 261.008 51.1388 261.387 50.8614 261.888C50.5948 262.379 50.4614 262.949 50.4614 263.6C50.4614 264.261 50.5948 264.843 50.8614 265.344C51.1388 265.835 51.5014 266.213 51.9494 266.48C52.4081 266.736 52.9041 266.864 53.4374 266.864C53.9814 266.864 54.4774 266.736 54.9254 266.48C55.3841 266.213 55.7468 265.835 56.0134 265.344C56.2801 264.843 56.4134 264.256 56.4134 263.584ZM61.2739 256.16V268H59.8179V256.16H61.2739ZM71.7554 263.28C71.7554 263.557 71.7394 263.851 71.7074 264.16H64.6994C64.7528 265.024 65.0461 265.701 65.5794 266.192C66.1234 266.672 66.7794 266.912 67.5474 266.912C68.1768 266.912 68.6994 266.768 69.1154 266.48C69.5421 266.181 69.8408 265.787 70.0114 265.296H71.5794C71.3448 266.139 70.8754 266.827 70.1714 267.36C69.4674 267.883 68.5928 268.144 67.5474 268.144C66.7154 268.144 65.9688 267.957 65.3074 267.584C64.6568 267.211 64.1448 266.683 63.7714 266C63.3981 265.307 63.2114 264.507 63.2114 263.6C63.2114 262.693 63.3928 261.899 63.7554 261.216C64.1181 260.533 64.6248 260.011 65.2754 259.648C65.9368 259.275 66.6941 259.088 67.5474 259.088C68.3794 259.088 69.1154 259.269 69.7554 259.632C70.3954 259.995 70.8861 260.496 71.2274 261.136C71.5794 261.765 71.7554 262.48 71.7554 263.28ZM70.2514 262.976C70.2514 262.421 70.1288 261.947 69.8834 261.552C69.6381 261.147 69.3021 260.843 68.8754 260.64C68.4594 260.427 67.9954 260.32 67.4834 260.32C66.7474 260.32 66.1181 260.555 65.5954 261.024C65.0834 261.493 64.7901 262.144 64.7154 262.976H70.2514ZM73.1333 263.584C73.1333 262.688 73.3146 261.904 73.6773 261.232C74.04 260.549 74.536 260.021 75.1653 259.648C75.8053 259.275 76.5146 259.088 77.2933 259.088C78.0613 259.088 78.728 259.253 79.2933 259.584C79.8586 259.915 80.28 260.331 80.5573 260.832V259.232H82.0293V268H80.5573V266.368C80.2693 266.88 79.8373 267.307 79.2613 267.648C78.696 267.979 78.0346 268.144 77.2773 268.144C76.4986 268.144 75.7946 267.952 75.1653 267.568C74.536 267.184 74.04 266.645 73.6773 265.952C73.3146 265.259 73.1333 264.469 73.1333 263.584ZM80.5573 263.6C80.5573 262.939 80.424 262.363 80.1573 261.872C79.8906 261.381 79.528 261.008 79.0693 260.752C78.6213 260.485 78.1253 260.352 77.5813 260.352C77.0373 260.352 76.5413 260.48 76.0933 260.736C75.6453 260.992 75.288 261.365 75.0213 261.856C74.7546 262.347 74.6213 262.923 74.6213 263.584C74.6213 264.256 74.7546 264.843 75.0213 265.344C75.288 265.835 75.6453 266.213 76.0933 266.48C76.5413 266.736 77.0373 266.864 77.5813 266.864C78.1253 266.864 78.6213 266.736 79.0693 266.48C79.528 266.213 79.8906 265.835 80.1573 265.344C80.424 264.843 80.5573 264.261 80.5573 263.6ZM87.5938 268.144C86.9218 268.144 86.3191 268.032 85.7858 267.808C85.2525 267.573 84.8311 267.253 84.5218 266.848C84.2125 266.432 84.0418 265.957 84.0098 265.424H85.5138C85.5565 265.861 85.7591 266.219 86.1218 266.496C86.4951 266.773 86.9805 266.912 87.5778 266.912C88.1325 266.912 88.5698 266.789 88.8898 266.544C89.2098 266.299 89.3698 265.989 89.3698 265.616C89.3698 265.232 89.1991 264.949 88.8578 264.768C88.5165 264.576 87.9885 264.389 87.2738 264.208C86.6231 264.037 86.0898 263.867 85.6738 263.696C85.2685 263.515 84.9165 263.253 84.6178 262.912C84.3298 262.56 84.1858 262.101 84.1858 261.536C84.1858 261.088 84.3191 260.677 84.5858 260.304C84.8525 259.931 85.2311 259.637 85.7218 259.424C86.2125 259.2 86.7725 259.088 87.4018 259.088C88.3725 259.088 89.1565 259.333 89.7538 259.824C90.3511 260.315 90.6711 260.987 90.7138 261.84H89.2578C89.2258 261.381 89.0391 261.013 88.6978 260.736C88.3671 260.459 87.9191 260.32 87.3538 260.32C86.8311 260.32 86.4151 260.432 86.1058 260.656C85.7965 260.88 85.6418 261.173 85.6418 261.536C85.6418 261.824 85.7325 262.064 85.9138 262.256C86.1058 262.437 86.3405 262.587 86.6178 262.704C86.9058 262.811 87.3005 262.933 87.8018 263.072C88.4311 263.243 88.9431 263.413 89.3378 263.584C89.7325 263.744 90.0685 263.989 90.3458 264.32C90.6338 264.651 90.7831 265.083 90.7938 265.616C90.7938 266.096 90.6605 266.528 90.3938 266.912C90.1271 267.296 89.7485 267.6 89.2578 267.824C88.7778 268.037 88.2231 268.144 87.5938 268.144ZM100.849 263.28C100.849 263.557 100.833 263.851 100.801 264.16H93.7932C93.8465 265.024 94.1399 265.701 94.6732 266.192C95.2172 266.672 95.8732 266.912 96.6412 266.912C97.2705 266.912 97.7932 266.768 98.2092 266.48C98.6359 266.181 98.9345 265.787 99.1052 265.296H100.673C100.439 266.139 99.9692 266.827 99.2652 267.36C98.5612 267.883 97.6865 268.144 96.6412 268.144C95.8092 268.144 95.0625 267.957 94.4012 267.584C93.7505 267.211 93.2385 266.683 92.8652 266C92.4919 265.307 92.3052 264.507 92.3052 263.6C92.3052 262.693 92.4865 261.899 92.8492 261.216C93.2119 260.533 93.7185 260.011 94.3692 259.648C95.0305 259.275 95.7879 259.088 96.6412 259.088C97.4732 259.088 98.2092 259.269 98.8492 259.632C99.4892 259.995 99.9799 260.496 100.321 261.136C100.673 261.765 100.849 262.48 100.849 263.28ZM99.3452 262.976C99.3452 262.421 99.2225 261.947 98.9772 261.552C98.7319 261.147 98.3959 260.843 97.9692 260.64C97.5532 260.427 97.0892 260.32 96.5772 260.32C95.8412 260.32 95.2119 260.555 94.6892 261.024C94.1772 261.493 93.8839 262.144 93.8092 262.976H99.3452ZM106.493 263.584C106.493 262.688 106.674 261.904 107.037 261.232C107.399 260.549 107.895 260.021 108.525 259.648C109.165 259.275 109.874 259.088 110.653 259.088C111.421 259.088 112.087 259.253 112.653 259.584C113.218 259.915 113.639 260.331 113.917 260.832V259.232H115.389V268H113.917V266.368C113.629 266.88 113.197 267.307 112.621 267.648C112.055 267.979 111.394 268.144 110.637 268.144C109.858 268.144 109.154 267.952 108.525 267.568C107.895 267.184 107.399 266.645 107.037 265.952C106.674 265.259 106.493 264.469 106.493 263.584ZM113.917 263.6C113.917 262.939 113.783 262.363 113.517 261.872C113.25 261.381 112.887 261.008 112.429 260.752C111.981 260.485 111.485 260.352 110.941 260.352C110.397 260.352 109.901 260.48 109.453 260.736C109.005 260.992 108.647 261.365 108.381 261.856C108.114 262.347 107.981 262.923 107.981 263.584C107.981 264.256 108.114 264.843 108.381 265.344C108.647 265.835 109.005 266.213 109.453 266.48C109.901 266.736 110.397 266.864 110.941 266.864C111.485 266.864 111.981 266.736 112.429 266.48C112.887 266.213 113.25 265.835 113.517 265.344C113.783 264.843 113.917 264.261 113.917 263.6ZM117.305 263.584C117.305 262.688 117.487 261.904 117.849 261.232C118.212 260.549 118.708 260.021 119.337 259.648C119.977 259.275 120.692 259.088 121.481 259.088C122.164 259.088 122.799 259.248 123.385 259.568C123.972 259.877 124.42 260.288 124.729 260.8V256.16H126.201V268H124.729V266.352C124.441 266.875 124.015 267.307 123.449 267.648C122.884 267.979 122.223 268.144 121.465 268.144C120.687 268.144 119.977 267.952 119.337 267.568C118.708 267.184 118.212 266.645 117.849 265.952C117.487 265.259 117.305 264.469 117.305 263.584ZM124.729 263.6C124.729 262.939 124.596 262.363 124.329 261.872C124.063 261.381 123.7 261.008 123.241 260.752C122.793 260.485 122.297 260.352 121.753 260.352C121.209 260.352 120.713 260.48 120.265 260.736C119.817 260.992 119.46 261.365 119.193 261.856C118.927 262.347 118.793 262.923 118.793 263.584C118.793 264.256 118.927 264.843 119.193 265.344C119.46 265.835 119.817 266.213 120.265 266.48C120.713 266.736 121.209 266.864 121.753 266.864C122.297 266.864 122.793 266.736 123.241 266.48C123.7 266.213 124.063 265.835 124.329 265.344C124.596 264.843 124.729 264.261 124.729 263.6ZM128.118 263.584C128.118 262.688 128.299 261.904 128.662 261.232C129.024 260.549 129.52 260.021 130.15 259.648C130.79 259.275 131.504 259.088 132.294 259.088C132.976 259.088 133.611 259.248 134.198 259.568C134.784 259.877 135.232 260.288 135.542 260.8V256.16H137.014V268H135.542V266.352C135.254 266.875 134.827 267.307 134.262 267.648C133.696 267.979 133.035 268.144 132.278 268.144C131.499 268.144 130.79 267.952 130.15 267.568C129.52 267.184 129.024 266.645 128.662 265.952C128.299 265.259 128.118 264.469 128.118 263.584ZM135.542 263.6C135.542 262.939 135.408 262.363 135.142 261.872C134.875 261.381 134.512 261.008 134.054 260.752C133.606 260.485 133.11 260.352 132.566 260.352C132.022 260.352 131.526 260.48 131.078 260.736C130.63 260.992 130.272 261.365 130.006 261.856C129.739 262.347 129.606 262.923 129.606 263.584C129.606 264.256 129.739 264.843 130.006 265.344C130.272 265.835 130.63 266.213 131.078 266.48C131.526 266.736 132.022 266.864 132.566 266.864C133.11 266.864 133.606 266.736 134.054 266.48C134.512 266.213 134.875 265.835 135.142 265.344C135.408 264.843 135.542 264.261 135.542 263.6ZM149.324 262.256C149.729 262.32 150.097 262.485 150.428 262.752C150.769 263.019 151.036 263.349 151.228 263.744C151.43 264.139 151.532 264.56 151.532 265.008C151.532 265.573 151.388 266.085 151.1 266.544C150.812 266.992 150.39 267.349 149.836 267.616C149.292 267.872 148.646 268 147.9 268H143.74V256.848H147.74C148.497 256.848 149.142 256.976 149.676 257.232C150.209 257.477 150.609 257.813 150.876 258.24C151.142 258.667 151.276 259.147 151.276 259.68C151.276 260.341 151.094 260.891 150.732 261.328C150.38 261.755 149.91 262.064 149.324 262.256ZM145.196 261.664H147.644C148.326 261.664 148.854 261.504 149.228 261.184C149.601 260.864 149.788 260.421 149.788 259.856C149.788 259.291 149.601 258.848 149.228 258.528C148.854 258.208 148.316 258.048 147.612 258.048H145.196V261.664ZM147.772 266.8C148.497 266.8 149.062 266.629 149.468 266.288C149.873 265.947 150.076 265.472 150.076 264.864C150.076 264.245 149.862 263.76 149.436 263.408C149.009 263.045 148.438 262.864 147.724 262.864H145.196V266.8H147.772ZM161.328 259.232V268H159.872V266.704C159.595 267.152 159.206 267.504 158.704 267.76C158.214 268.005 157.67 268.128 157.072 268.128C156.39 268.128 155.776 267.989 155.232 267.712C154.688 267.424 154.256 266.997 153.936 266.432C153.627 265.867 153.472 265.179 153.472 264.368V259.232H154.912V264.176C154.912 265.04 155.131 265.707 155.568 266.176C156.006 266.635 156.603 266.864 157.36 266.864C158.139 266.864 158.752 266.624 159.2 266.144C159.648 265.664 159.872 264.965 159.872 264.048V259.232H161.328ZM164.539 257.808C164.261 257.808 164.027 257.712 163.835 257.52C163.643 257.328 163.547 257.093 163.547 256.816C163.547 256.539 163.643 256.304 163.835 256.112C164.027 255.92 164.261 255.824 164.539 255.824C164.805 255.824 165.029 255.92 165.211 256.112C165.403 256.304 165.499 256.539 165.499 256.816C165.499 257.093 165.403 257.328 165.211 257.52C165.029 257.712 164.805 257.808 164.539 257.808ZM165.243 259.232V268H163.787V259.232H165.243ZM169.18 256.16V268H167.724V256.16H169.18ZM171.118 263.584C171.118 262.688 171.299 261.904 171.662 261.232C172.024 260.549 172.52 260.021 173.15 259.648C173.79 259.275 174.504 259.088 175.294 259.088C175.976 259.088 176.611 259.248 177.198 259.568C177.784 259.877 178.232 260.288 178.542 260.8V256.16H180.014V268H178.542V266.352C178.254 266.875 177.827 267.307 177.262 267.648C176.696 267.979 176.035 268.144 175.278 268.144C174.499 268.144 173.79 267.952 173.15 267.568C172.52 267.184 172.024 266.645 171.662 265.952C171.299 265.259 171.118 264.469 171.118 263.584ZM178.542 263.6C178.542 262.939 178.408 262.363 178.142 261.872C177.875 261.381 177.512 261.008 177.054 260.752C176.606 260.485 176.11 260.352 175.566 260.352C175.022 260.352 174.526 260.48 174.078 260.736C173.63 260.992 173.272 261.365 173.006 261.856C172.739 262.347 172.606 262.923 172.606 263.584C172.606 264.256 172.739 264.843 173.006 265.344C173.272 265.835 173.63 266.213 174.078 266.48C174.526 266.736 175.022 266.864 175.566 266.864C176.11 266.864 176.606 266.736 177.054 266.48C177.512 266.213 177.875 265.835 178.142 265.344C178.408 264.843 178.542 264.261 178.542 263.6ZM183.226 257.808C182.949 257.808 182.714 257.712 182.522 257.52C182.33 257.328 182.234 257.093 182.234 256.816C182.234 256.539 182.33 256.304 182.522 256.112C182.714 255.92 182.949 255.824 183.226 255.824C183.493 255.824 183.717 255.92 183.898 256.112C184.09 256.304 184.186 256.539 184.186 256.816C184.186 257.093 184.09 257.328 183.898 257.52C183.717 257.712 183.493 257.808 183.226 257.808ZM183.93 259.232V268H182.474V259.232H183.93ZM190.684 259.072C191.75 259.072 192.614 259.397 193.276 260.048C193.937 260.688 194.268 261.616 194.268 262.832V268H192.828V263.04C192.828 262.165 192.609 261.499 192.172 261.04C191.734 260.571 191.137 260.336 190.38 260.336C189.612 260.336 188.998 260.576 188.54 261.056C188.092 261.536 187.868 262.235 187.868 263.152V268H186.412V259.232H187.868V260.48C188.156 260.032 188.545 259.685 189.036 259.44C189.537 259.195 190.086 259.072 190.684 259.072ZM200.262 259.088C201.019 259.088 201.681 259.253 202.246 259.584C202.822 259.915 203.249 260.331 203.526 260.832V259.232H204.998V268.192C204.998 268.992 204.827 269.701 204.486 270.32C204.145 270.949 203.654 271.44 203.014 271.792C202.385 272.144 201.649 272.32 200.806 272.32C199.654 272.32 198.694 272.048 197.926 271.504C197.158 270.96 196.705 270.219 196.566 269.28H198.006C198.166 269.813 198.497 270.24 198.998 270.56C199.499 270.891 200.102 271.056 200.806 271.056C201.606 271.056 202.257 270.805 202.758 270.304C203.27 269.803 203.526 269.099 203.526 268.192V266.352C203.238 266.864 202.811 267.291 202.246 267.632C201.681 267.973 201.019 268.144 200.262 268.144C199.483 268.144 198.774 267.952 198.134 267.568C197.505 267.184 197.009 266.645 196.646 265.952C196.283 265.259 196.102 264.469 196.102 263.584C196.102 262.688 196.283 261.904 196.646 261.232C197.009 260.549 197.505 260.021 198.134 259.648C198.774 259.275 199.483 259.088 200.262 259.088ZM203.526 263.6C203.526 262.939 203.393 262.363 203.126 261.872C202.859 261.381 202.497 261.008 202.038 260.752C201.59 260.485 201.094 260.352 200.55 260.352C200.006 260.352 199.51 260.48 199.062 260.736C198.614 260.992 198.257 261.365 197.99 261.856C197.723 262.347 197.59 262.923 197.59 263.584C197.59 264.256 197.723 264.843 197.99 265.344C198.257 265.835 198.614 266.213 199.062 266.48C199.51 266.736 200.006 266.864 200.55 266.864C201.094 266.864 201.59 266.736 202.038 266.48C202.497 266.213 202.859 265.835 203.126 265.344C203.393 264.843 203.526 264.261 203.526 263.6ZM118.563 284.112C118.563 285.04 118.243 285.813 117.603 286.432C116.974 287.04 116.008 287.344 114.707 287.344H112.563V292H111.107V280.848H114.707C115.966 280.848 116.92 281.152 117.571 281.76C118.232 282.368 118.563 283.152 118.563 284.112ZM114.707 286.144C115.518 286.144 116.115 285.968 116.499 285.616C116.883 285.264 117.075 284.763 117.075 284.112C117.075 282.736 116.286 282.048 114.707 282.048H112.563V286.144H114.707ZM121.829 280.16V292H120.373V280.16H121.829ZM123.766 287.584C123.766 286.688 123.947 285.904 124.31 285.232C124.673 284.549 125.169 284.021 125.798 283.648C126.438 283.275 127.147 283.088 127.926 283.088C128.694 283.088 129.361 283.253 129.926 283.584C130.491 283.915 130.913 284.331 131.19 284.832V283.232H132.662V292H131.19V290.368C130.902 290.88 130.47 291.307 129.894 291.648C129.329 291.979 128.667 292.144 127.91 292.144C127.131 292.144 126.427 291.952 125.798 291.568C125.169 291.184 124.673 290.645 124.31 289.952C123.947 289.259 123.766 288.469 123.766 287.584ZM131.19 287.6C131.19 286.939 131.057 286.363 130.79 285.872C130.523 285.381 130.161 285.008 129.702 284.752C129.254 284.485 128.758 284.352 128.214 284.352C127.67 284.352 127.174 284.48 126.726 284.736C126.278 284.992 125.921 285.365 125.654 285.856C125.387 286.347 125.254 286.923 125.254 287.584C125.254 288.256 125.387 288.843 125.654 289.344C125.921 289.835 126.278 290.213 126.726 290.48C127.174 290.736 127.67 290.864 128.214 290.864C128.758 290.864 129.254 290.736 129.702 290.48C130.161 290.213 130.523 289.835 130.79 289.344C131.057 288.843 131.19 288.261 131.19 287.6ZM139.395 283.072C140.461 283.072 141.325 283.397 141.987 284.048C142.648 284.688 142.979 285.616 142.979 286.832V292H141.539V287.04C141.539 286.165 141.32 285.499 140.883 285.04C140.445 284.571 139.848 284.336 139.091 284.336C138.323 284.336 137.709 284.576 137.251 285.056C136.803 285.536 136.579 286.235 136.579 287.152V292H135.123V283.232H136.579V284.48C136.867 284.032 137.256 283.685 137.747 283.44C138.248 283.195 138.797 283.072 139.395 283.072Z" fill="black"/>
<defs>
<clipPath id="clip0_1572_2051">
<rect width="87" height="87" fill="white" transform="translate(111 81)"/>
</clipPath>
<clipPath id="clip1_1572_2051">
<rect width="52" height="59" fill="white" transform="translate(59 102)"/>
</clipPath>
</defs>
</svg>
