<svg width="21" height="21" viewBox="0 0 21 21" fill="none" xmlns="http://www.w3.org/2000/svg">
<path d="M2.625 7.62119C2.625 6.33185 2.625 5.68717 2.96856 5.31117C3.09054 5.17767 3.23879 5.07081 3.404 4.99731C3.86936 4.79029 4.48095 4.99415 5.70413 5.40188C6.63798 5.71316 7.1049 5.8688 7.57671 5.85269C7.75 5.84677 7.92226 5.82371 8.09099 5.78381C8.55042 5.67522 8.95991 5.40221 9.779 4.85618L10.9885 4.04979C12.0377 3.35036 12.5623 3.00065 13.1645 2.92001C13.7666 2.83937 14.3647 3.03874 15.5609 3.43748L16.5801 3.77719C17.4464 4.06595 17.8795 4.21034 18.1273 4.55406C18.375 4.89779 18.375 5.35436 18.375 6.26749V13.3798C18.375 14.6692 18.375 15.3139 18.0315 15.6898C17.9095 15.8234 17.7612 15.9302 17.596 16.0037C17.1307 16.2107 16.519 16.0069 15.2959 15.5991C14.362 15.2879 13.8951 15.1322 13.4233 15.1483C13.25 15.1543 13.0777 15.1773 12.909 15.2172C12.4496 15.3258 12.0401 15.5988 11.221 16.1448L10.0115 16.9512C8.96227 17.6506 8.43772 18.0004 7.83556 18.081C7.2334 18.1616 6.63529 17.9622 5.43908 17.5635L4.41991 17.2238C3.55363 16.9351 3.12049 16.7907 2.87275 16.4469C2.625 16.1032 2.625 15.6466 2.625 14.7335V7.62119Z" stroke="#DE0C0C" stroke-width="1.3125"/>
<path opacity="0.5" d="M7.875 5.80859V17.9373" stroke="#DE0C0C" stroke-width="1.3125"/>
<path opacity="0.5" d="M13.125 2.625V14.875" stroke="#DE0C0C" stroke-width="1.3125"/>
</svg>
