<svg width="258" height="320" viewBox="0 0 258 320" fill="none" xmlns="http://www.w3.org/2000/svg">
<path d="M106.631 61.5669C120.111 51.7288 134.807 33.7094 150.001 31.0896C165.228 28.7859 180.81 42.0491 193.104 57.4092C205.365 72.4531 214.37 89.9103 215.701 107.171C217.031 124.431 211.004 141.477 201.375 154.594C191.922 167.859 179.009 177.029 165.836 188.281C152.522 199.7 138.947 213.201 122.301 217.177C105.512 221.319 85.7947 215.769 72.2802 203.978C58.4486 192.205 50.7869 173.875 45.3019 156.535C39.8169 139.194 36.8256 122.824 40.9984 109.384C45.1712 95.9432 56.8251 85.4145 68.7679 79.1636C80.7437 73.2289 93.0085 71.5721 106.631 61.5669Z" fill="#F66464"/>
<path d="M136.82 168.122H166.158V145.261H136.82V168.122ZM138.993 147.438H163.984V165.945H138.993V147.438Z" fill="white"/>
<path d="M137 126.861H166.337V104H137V126.861ZM139.173 106.177H164.164V124.685H139.173V106.177Z" fill="white"/>
<path d="M90 99.8614H119.337V77H90V99.8614ZM92.1727 79.1774H117.164V97.6846H92.1727V79.1774Z" fill="white"/>
<path d="M147.088 139.635V143.808H156.324V139.635H152.792V133.011H156.324V128.838H147.088V133.011H150.619V139.635H147.088Z" fill="white"/>
<path d="M100 107.797V111.97H109.236V107.797H105.704V101.173H109.236V97H100V101.173H103.531V107.797H100Z" fill="white"/>
<path d="M147 99.7971V103.97H156.236V99.7971H152.704V93.1735H156.236V89H147V93.1735H150.531V99.7971H147Z" fill="white"/>
<path d="M136.75 94.8614H166.087V72H136.75V94.8614ZM138.924 74.1774H163.915V92.6835H138.924V74.1774Z" fill="white"/>
<path d="M135.329 78.8047H131.164V88.0586H135.329V78.8047Z" fill="white"/>
<path d="M130.105 82.4678H119V84.6457H130.105V82.4678Z" fill="white"/>
<path d="M90 134.861H119.337V112H90V134.861ZM92.1727 114.177H117.164V132.685H92.1727V114.177Z" fill="white"/>
<rect y="176" width="258" height="144" rx="28" fill="#EFEDED"/>
<path d="M51.6411 213.416C51.6411 212.328 51.8865 211.352 52.3771 210.488C52.8678 209.613 53.5345 208.931 54.3771 208.44C55.2305 207.949 56.1745 207.704 57.2091 207.704C58.4251 207.704 59.4865 207.997 60.3931 208.584C61.2998 209.171 61.9611 210.003 62.3771 211.08H60.6331C60.3238 210.408 59.8758 209.891 59.2891 209.528C58.7131 209.165 58.0198 208.984 57.2091 208.984C56.4305 208.984 55.7318 209.165 55.1131 209.528C54.4945 209.891 54.0091 210.408 53.6571 211.08C53.3051 211.741 53.1291 212.52 53.1291 213.416C53.1291 214.301 53.3051 215.08 53.6571 215.752C54.0091 216.413 54.4945 216.925 55.1131 217.288C55.7318 217.651 56.4305 217.832 57.2091 217.832C58.0198 217.832 58.7131 217.656 59.2891 217.304C59.8758 216.941 60.3238 216.424 60.6331 215.752H62.3771C61.9611 216.819 61.2998 217.645 60.3931 218.232C59.4865 218.808 58.4251 219.096 57.2091 219.096C56.1745 219.096 55.2305 218.856 54.3771 218.376C53.5345 217.885 52.8678 217.208 52.3771 216.344C51.8865 215.48 51.6411 214.504 51.6411 213.416ZM72.3205 210.232V219H70.8645V217.704C70.5872 218.152 70.1978 218.504 69.6965 218.76C69.2058 219.005 68.6618 219.128 68.0645 219.128C67.3818 219.128 66.7685 218.989 66.2245 218.712C65.6805 218.424 65.2485 217.997 64.9285 217.432C64.6192 216.867 64.4645 216.179 64.4645 215.368V210.232H65.9045V215.176C65.9045 216.04 66.1232 216.707 66.5605 217.176C66.9978 217.635 67.5952 217.864 68.3525 217.864C69.1312 217.864 69.7445 217.624 70.1925 217.144C70.6405 216.664 70.8645 215.965 70.8645 215.048V210.232H72.3205ZM76.2349 211.656C76.4909 211.155 76.8535 210.765 77.3229 210.488C77.8029 210.211 78.3842 210.072 79.0669 210.072V211.576H78.6829C77.0509 211.576 76.2349 212.461 76.2349 214.232V219H74.7789V210.232H76.2349V211.656ZM82.2036 211.656C82.4596 211.155 82.8223 210.765 83.2916 210.488C83.7716 210.211 84.353 210.072 85.0356 210.072V211.576H84.6516C83.0196 211.576 82.2036 212.461 82.2036 214.232V219H80.7476V210.232H82.2036V211.656ZM94.7164 214.28C94.7164 214.557 94.7004 214.851 94.6684 215.16H87.6604C87.7137 216.024 88.007 216.701 88.5404 217.192C89.0844 217.672 89.7404 217.912 90.5084 217.912C91.1377 217.912 91.6604 217.768 92.0764 217.48C92.503 217.181 92.8017 216.787 92.9724 216.296H94.5404C94.3057 217.139 93.8364 217.827 93.1324 218.36C92.4284 218.883 91.5537 219.144 90.5084 219.144C89.6764 219.144 88.9297 218.957 88.2684 218.584C87.6177 218.211 87.1057 217.683 86.7324 217C86.359 216.307 86.1724 215.507 86.1724 214.6C86.1724 213.693 86.3537 212.899 86.7164 212.216C87.079 211.533 87.5857 211.011 88.2364 210.648C88.8977 210.275 89.655 210.088 90.5084 210.088C91.3404 210.088 92.0764 210.269 92.7164 210.632C93.3564 210.995 93.847 211.496 94.1884 212.136C94.5404 212.765 94.7164 213.48 94.7164 214.28ZM93.2124 213.976C93.2124 213.421 93.0897 212.947 92.8444 212.552C92.599 212.147 92.263 211.843 91.8364 211.64C91.4204 211.427 90.9564 211.32 90.4444 211.32C89.7084 211.32 89.079 211.555 88.5564 212.024C88.0444 212.493 87.751 213.144 87.6764 213.976H93.2124ZM100.91 210.072C101.977 210.072 102.841 210.397 103.502 211.048C104.164 211.688 104.494 212.616 104.494 213.832V219H103.054V214.04C103.054 213.165 102.836 212.499 102.398 212.04C101.961 211.571 101.364 211.336 100.606 211.336C99.8383 211.336 99.2249 211.576 98.7663 212.056C98.3183 212.536 98.0943 213.235 98.0943 214.152V219H96.6383V210.232H98.0943V211.48C98.3823 211.032 98.7716 210.685 99.2623 210.44C99.7636 210.195 100.313 210.072 100.91 210.072ZM108.649 211.432V216.6C108.649 217.027 108.739 217.331 108.921 217.512C109.102 217.683 109.417 217.768 109.865 217.768H110.937V219H109.625C108.814 219 108.206 218.813 107.801 218.44C107.395 218.067 107.193 217.453 107.193 216.6V211.432H106.057V210.232H107.193V208.024H108.649V210.232H110.937V211.432H108.649ZM114.157 207.16V219H112.701V207.16H114.157ZM124.19 210.232L118.91 223.128H117.406L119.134 218.904L115.598 210.232H117.214L119.966 217.336L122.686 210.232H124.19ZM137.472 210.232L132.192 223.128H130.688L132.416 218.904L128.88 210.232H130.496L133.248 217.336L135.968 210.232H137.472ZM142.759 219.144C141.938 219.144 141.191 218.957 140.519 218.584C139.858 218.211 139.335 217.683 138.951 217C138.578 216.307 138.391 215.507 138.391 214.6C138.391 213.704 138.583 212.915 138.967 212.232C139.362 211.539 139.895 211.011 140.567 210.648C141.239 210.275 141.991 210.088 142.823 210.088C143.655 210.088 144.407 210.275 145.079 210.648C145.751 211.011 146.279 211.533 146.663 212.216C147.058 212.899 147.255 213.693 147.255 214.6C147.255 215.507 147.052 216.307 146.647 217C146.252 217.683 145.714 218.211 145.031 218.584C144.348 218.957 143.591 219.144 142.759 219.144ZM142.759 217.864C143.282 217.864 143.772 217.741 144.231 217.496C144.69 217.251 145.058 216.883 145.335 216.392C145.623 215.901 145.767 215.304 145.767 214.6C145.767 213.896 145.628 213.299 145.351 212.808C145.074 212.317 144.711 211.955 144.263 211.72C143.815 211.475 143.33 211.352 142.807 211.352C142.274 211.352 141.783 211.475 141.335 211.72C140.898 211.955 140.546 212.317 140.279 212.808C140.012 213.299 139.879 213.896 139.879 214.6C139.879 215.315 140.007 215.917 140.263 216.408C140.53 216.899 140.882 217.267 141.319 217.512C141.756 217.747 142.236 217.864 142.759 217.864ZM156.946 210.232V219H155.49V217.704C155.212 218.152 154.823 218.504 154.322 218.76C153.831 219.005 153.287 219.128 152.69 219.128C152.007 219.128 151.394 218.989 150.85 218.712C150.306 218.424 149.874 217.997 149.554 217.432C149.244 216.867 149.09 216.179 149.09 215.368V210.232H150.53V215.176C150.53 216.04 150.748 216.707 151.186 217.176C151.623 217.635 152.22 217.864 152.978 217.864C153.756 217.864 154.37 217.624 154.818 217.144C155.266 216.664 155.49 215.965 155.49 215.048V210.232H156.946ZM163.126 214.584C163.126 213.688 163.307 212.904 163.67 212.232C164.032 211.549 164.528 211.021 165.158 210.648C165.798 210.275 166.512 210.088 167.302 210.088C167.984 210.088 168.619 210.248 169.206 210.568C169.792 210.877 170.24 211.288 170.55 211.8V207.16H172.022V219H170.55V217.352C170.262 217.875 169.835 218.307 169.27 218.648C168.704 218.979 168.043 219.144 167.286 219.144C166.507 219.144 165.798 218.952 165.158 218.568C164.528 218.184 164.032 217.645 163.67 216.952C163.307 216.259 163.126 215.469 163.126 214.584ZM170.55 214.6C170.55 213.939 170.416 213.363 170.15 212.872C169.883 212.381 169.52 212.008 169.062 211.752C168.614 211.485 168.118 211.352 167.574 211.352C167.03 211.352 166.534 211.48 166.086 211.736C165.638 211.992 165.28 212.365 165.014 212.856C164.747 213.347 164.614 213.923 164.614 214.584C164.614 215.256 164.747 215.843 165.014 216.344C165.28 216.835 165.638 217.213 166.086 217.48C166.534 217.736 167.03 217.864 167.574 217.864C168.118 217.864 168.614 217.736 169.062 217.48C169.52 217.213 169.883 216.835 170.15 216.344C170.416 215.843 170.55 215.261 170.55 214.6ZM178.306 219.144C177.485 219.144 176.738 218.957 176.066 218.584C175.405 218.211 174.882 217.683 174.498 217C174.125 216.307 173.938 215.507 173.938 214.6C173.938 213.704 174.13 212.915 174.514 212.232C174.909 211.539 175.442 211.011 176.114 210.648C176.786 210.275 177.538 210.088 178.37 210.088C179.202 210.088 179.954 210.275 180.626 210.648C181.298 211.011 181.826 211.533 182.21 212.216C182.605 212.899 182.802 213.693 182.802 214.6C182.802 215.507 182.599 216.307 182.194 217C181.799 217.683 181.261 218.211 180.578 218.584C179.895 218.957 179.138 219.144 178.306 219.144ZM178.306 217.864C178.829 217.864 179.319 217.741 179.778 217.496C180.237 217.251 180.605 216.883 180.882 216.392C181.17 215.901 181.314 215.304 181.314 214.6C181.314 213.896 181.175 213.299 180.898 212.808C180.621 212.317 180.258 211.955 179.81 211.72C179.362 211.475 178.877 211.352 178.354 211.352C177.821 211.352 177.33 211.475 176.882 211.72C176.445 211.955 176.093 212.317 175.826 212.808C175.559 213.299 175.426 213.896 175.426 214.6C175.426 215.315 175.554 215.917 175.81 216.408C176.077 216.899 176.429 217.267 176.866 217.512C177.303 217.747 177.783 217.864 178.306 217.864ZM188.988 210.072C190.055 210.072 190.919 210.397 191.58 211.048C192.242 211.688 192.572 212.616 192.572 213.832V219H191.132V214.04C191.132 213.165 190.914 212.499 190.476 212.04C190.039 211.571 189.442 211.336 188.684 211.336C187.916 211.336 187.303 211.576 186.844 212.056C186.396 212.536 186.172 213.235 186.172 214.152V219H184.716V210.232H186.172V211.48C186.46 211.032 186.85 210.685 187.34 210.44C187.842 210.195 188.391 210.072 188.988 210.072ZM195.175 207.848H196.791L195.255 211.48H194.231L195.175 207.848ZM200.227 211.432V216.6C200.227 217.027 200.317 217.331 200.499 217.512C200.68 217.683 200.995 217.768 201.443 217.768H202.515V219H201.203C200.392 219 199.784 218.813 199.379 218.44C198.973 218.067 198.771 217.453 198.771 216.6V211.432H197.635V210.232H198.771V208.024H200.227V210.232H202.515V211.432H200.227ZM59.5059 234.072C60.1672 234.072 60.7645 234.216 61.2979 234.504C61.8312 234.781 62.2472 235.203 62.5459 235.768C62.8552 236.333 63.0099 237.021 63.0099 237.832V243H61.5699V238.04C61.5699 237.165 61.3512 236.499 60.9139 236.04C60.4765 235.571 59.8792 235.336 59.1219 235.336C58.3539 235.336 57.7405 235.576 57.2819 236.056C56.8339 236.536 56.6099 237.235 56.6099 238.152V243H55.1539V231.16H56.6099V235.48C56.8979 235.032 57.2925 234.685 57.7939 234.44C58.3059 234.195 58.8765 234.072 59.5059 234.072ZM64.8443 238.584C64.8443 237.688 65.0256 236.904 65.3883 236.232C65.7509 235.549 66.2469 235.021 66.8763 234.648C67.5163 234.275 68.2256 234.088 69.0043 234.088C69.7723 234.088 70.4389 234.253 71.0043 234.584C71.5696 234.915 71.9909 235.331 72.2683 235.832V234.232H73.7403V243H72.2683V241.368C71.9803 241.88 71.5483 242.307 70.9723 242.648C70.4069 242.979 69.7456 243.144 68.9883 243.144C68.2096 243.144 67.5056 242.952 66.8763 242.568C66.2469 242.184 65.7509 241.645 65.3883 240.952C65.0256 240.259 64.8443 239.469 64.8443 238.584ZM72.2683 238.6C72.2683 237.939 72.1349 237.363 71.8683 236.872C71.6016 236.381 71.2389 236.008 70.7803 235.752C70.3323 235.485 69.8363 235.352 69.2923 235.352C68.7483 235.352 68.2523 235.48 67.8043 235.736C67.3563 235.992 66.9989 236.365 66.7323 236.856C66.4656 237.347 66.3323 237.923 66.3323 238.584C66.3323 239.256 66.4656 239.843 66.7323 240.344C66.9989 240.835 67.3563 241.213 67.8043 241.48C68.2523 241.736 68.7483 241.864 69.2923 241.864C69.8363 241.864 70.3323 241.736 70.7803 241.48C71.2389 241.213 71.6016 240.835 71.8683 240.344C72.1349 239.843 72.2683 239.261 72.2683 238.6ZM79.4648 241.656L82.1848 234.232H83.7368L80.2968 243H78.6008L75.1608 234.232H76.7288L79.4648 241.656ZM93.1695 238.28C93.1695 238.557 93.1535 238.851 93.1215 239.16H86.1135C86.1668 240.024 86.4602 240.701 86.9935 241.192C87.5375 241.672 88.1935 241.912 88.9615 241.912C89.5908 241.912 90.1135 241.768 90.5295 241.48C90.9562 241.181 91.2548 240.787 91.4255 240.296H92.9935C92.7588 241.139 92.2895 241.827 91.5855 242.36C90.8815 242.883 90.0068 243.144 88.9615 243.144C88.1295 243.144 87.3828 242.957 86.7215 242.584C86.0708 242.211 85.5588 241.683 85.1855 241C84.8122 240.307 84.6255 239.507 84.6255 238.6C84.6255 237.693 84.8068 236.899 85.1695 236.216C85.5322 235.533 86.0388 235.011 86.6895 234.648C87.3508 234.275 88.1082 234.088 88.9615 234.088C89.7935 234.088 90.5295 234.269 91.1695 234.632C91.8095 234.995 92.3002 235.496 92.6415 236.136C92.9935 236.765 93.1695 237.48 93.1695 238.28ZM91.6655 237.976C91.6655 237.421 91.5428 236.947 91.2975 236.552C91.0522 236.147 90.7162 235.843 90.2895 235.64C89.8735 235.427 89.4095 235.32 88.8975 235.32C88.1615 235.32 87.5322 235.555 87.0095 236.024C86.4975 236.493 86.2042 237.144 86.1295 237.976H91.6655ZM104.941 237.256C105.346 237.32 105.714 237.485 106.045 237.752C106.386 238.019 106.653 238.349 106.845 238.744C107.048 239.139 107.149 239.56 107.149 240.008C107.149 240.573 107.005 241.085 106.717 241.544C106.429 241.992 106.008 242.349 105.453 242.616C104.909 242.872 104.264 243 103.517 243H99.357V231.848H103.357C104.114 231.848 104.76 231.976 105.293 232.232C105.826 232.477 106.226 232.813 106.493 233.24C106.76 233.667 106.893 234.147 106.893 234.68C106.893 235.341 106.712 235.891 106.349 236.328C105.997 236.755 105.528 237.064 104.941 237.256ZM100.813 236.664H103.261C103.944 236.664 104.472 236.504 104.845 236.184C105.218 235.864 105.405 235.421 105.405 234.856C105.405 234.291 105.218 233.848 104.845 233.528C104.472 233.208 103.933 233.048 103.229 233.048H100.813V236.664ZM103.389 241.8C104.114 241.8 104.68 241.629 105.085 241.288C105.49 240.947 105.693 240.472 105.693 239.864C105.693 239.245 105.48 238.76 105.053 238.408C104.626 238.045 104.056 237.864 103.341 237.864H100.813V241.8H103.389ZM116.946 234.232V243H115.49V241.704C115.212 242.152 114.823 242.504 114.322 242.76C113.831 243.005 113.287 243.128 112.69 243.128C112.007 243.128 111.394 242.989 110.85 242.712C110.306 242.424 109.874 241.997 109.554 241.432C109.244 240.867 109.09 240.179 109.09 239.368V234.232H110.53V239.176C110.53 240.04 110.748 240.707 111.186 241.176C111.623 241.635 112.22 241.864 112.978 241.864C113.756 241.864 114.37 241.624 114.818 241.144C115.266 240.664 115.49 239.965 115.49 239.048V234.232H116.946ZM120.156 232.808C119.879 232.808 119.644 232.712 119.452 232.52C119.26 232.328 119.164 232.093 119.164 231.816C119.164 231.539 119.26 231.304 119.452 231.112C119.644 230.92 119.879 230.824 120.156 230.824C120.423 230.824 120.647 230.92 120.828 231.112C121.02 231.304 121.116 231.539 121.116 231.816C121.116 232.093 121.02 232.328 120.828 232.52C120.647 232.712 120.423 232.808 120.156 232.808ZM120.86 234.232V243H119.404V234.232H120.86ZM124.797 231.16V243H123.341V231.16H124.797ZM126.735 238.584C126.735 237.688 126.916 236.904 127.279 236.232C127.642 235.549 128.138 235.021 128.767 234.648C129.407 234.275 130.122 234.088 130.911 234.088C131.594 234.088 132.228 234.248 132.815 234.568C133.402 234.877 133.85 235.288 134.159 235.8V231.16H135.631V243H134.159V241.352C133.871 241.875 133.444 242.307 132.879 242.648C132.314 242.979 131.652 243.144 130.895 243.144C130.116 243.144 129.407 242.952 128.767 242.568C128.138 242.184 127.642 241.645 127.279 240.952C126.916 240.259 126.735 239.469 126.735 238.584ZM134.159 238.6C134.159 237.939 134.026 237.363 133.759 236.872C133.492 236.381 133.13 236.008 132.671 235.752C132.223 235.485 131.727 235.352 131.183 235.352C130.639 235.352 130.143 235.48 129.695 235.736C129.247 235.992 128.89 236.365 128.623 236.856C128.356 237.347 128.223 237.923 128.223 238.584C128.223 239.256 128.356 239.843 128.623 240.344C128.89 240.835 129.247 241.213 129.695 241.48C130.143 241.736 130.639 241.864 131.183 241.864C131.727 241.864 132.223 241.736 132.671 241.48C133.13 241.213 133.492 240.835 133.759 240.344C134.026 239.843 134.159 239.261 134.159 238.6ZM138.843 232.808C138.566 232.808 138.331 232.712 138.139 232.52C137.947 232.328 137.851 232.093 137.851 231.816C137.851 231.539 137.947 231.304 138.139 231.112C138.331 230.92 138.566 230.824 138.843 230.824C139.11 230.824 139.334 230.92 139.515 231.112C139.707 231.304 139.803 231.539 139.803 231.816C139.803 232.093 139.707 232.328 139.515 232.52C139.334 232.712 139.11 232.808 138.843 232.808ZM139.547 234.232V243H138.091V234.232H139.547ZM146.301 234.072C147.368 234.072 148.232 234.397 148.893 235.048C149.554 235.688 149.885 236.616 149.885 237.832V243H148.445V238.04C148.445 237.165 148.226 236.499 147.789 236.04C147.352 235.571 146.754 235.336 145.997 235.336C145.229 235.336 144.616 235.576 144.157 236.056C143.709 236.536 143.485 237.235 143.485 238.152V243H142.029V234.232H143.485V235.48C143.773 235.032 144.162 234.685 144.653 234.44C145.154 234.195 145.704 234.072 146.301 234.072ZM155.879 234.088C156.637 234.088 157.298 234.253 157.863 234.584C158.439 234.915 158.866 235.331 159.143 235.832V234.232H160.615V243.192C160.615 243.992 160.445 244.701 160.103 245.32C159.762 245.949 159.271 246.44 158.631 246.792C158.002 247.144 157.266 247.32 156.423 247.32C155.271 247.32 154.311 247.048 153.543 246.504C152.775 245.96 152.322 245.219 152.183 244.28H153.623C153.783 244.813 154.114 245.24 154.615 245.56C155.117 245.891 155.719 246.056 156.423 246.056C157.223 246.056 157.874 245.805 158.375 245.304C158.887 244.803 159.143 244.099 159.143 243.192V241.352C158.855 241.864 158.429 242.291 157.863 242.632C157.298 242.973 156.637 243.144 155.879 243.144C155.101 243.144 154.391 242.952 153.751 242.568C153.122 242.184 152.626 241.645 152.263 240.952C151.901 240.259 151.719 239.469 151.719 238.584C151.719 237.688 151.901 236.904 152.263 236.232C152.626 235.549 153.122 235.021 153.751 234.648C154.391 234.275 155.101 234.088 155.879 234.088ZM159.143 238.6C159.143 237.939 159.01 237.363 158.743 236.872C158.477 236.381 158.114 236.008 157.655 235.752C157.207 235.485 156.711 235.352 156.167 235.352C155.623 235.352 155.127 235.48 154.679 235.736C154.231 235.992 153.874 236.365 153.607 236.856C153.341 237.347 153.207 237.923 153.207 238.584C153.207 239.256 153.341 239.843 153.607 240.344C153.874 240.835 154.231 241.213 154.679 241.48C155.127 241.736 155.623 241.864 156.167 241.864C156.711 241.864 157.207 241.736 157.655 241.48C158.114 241.213 158.477 240.835 158.743 240.344C159.01 239.843 159.143 239.261 159.143 238.6ZM168.765 231.848V238.904C168.765 239.896 169.005 240.632 169.485 241.112C169.976 241.592 170.653 241.832 171.517 241.832C172.371 241.832 173.037 241.592 173.517 241.112C174.008 240.632 174.253 239.896 174.253 238.904V231.848H175.709V238.888C175.709 239.816 175.523 240.6 175.149 241.24C174.776 241.869 174.269 242.339 173.629 242.648C173 242.957 172.291 243.112 171.501 243.112C170.712 243.112 169.997 242.957 169.357 242.648C168.728 242.339 168.227 241.869 167.853 241.24C167.491 240.6 167.309 239.816 167.309 238.888V231.848H168.765ZM182.41 234.072C183.477 234.072 184.341 234.397 185.002 235.048C185.664 235.688 185.994 236.616 185.994 237.832V243H184.554V238.04C184.554 237.165 184.336 236.499 183.898 236.04C183.461 235.571 182.864 235.336 182.106 235.336C181.338 235.336 180.725 235.576 180.266 236.056C179.818 236.536 179.594 237.235 179.594 238.152V243H178.138V234.232H179.594V235.48C179.882 235.032 180.272 234.685 180.762 234.44C181.264 234.195 181.813 234.072 182.41 234.072ZM189.125 232.808C188.847 232.808 188.613 232.712 188.421 232.52C188.229 232.328 188.133 232.093 188.133 231.816C188.133 231.539 188.229 231.304 188.421 231.112C188.613 230.92 188.847 230.824 189.125 230.824C189.391 230.824 189.615 230.92 189.797 231.112C189.989 231.304 190.085 231.539 190.085 231.816C190.085 232.093 189.989 232.328 189.797 232.52C189.615 232.712 189.391 232.808 189.125 232.808ZM189.829 234.232V243H188.373V234.232H189.829ZM194.086 235.432V240.6C194.086 241.027 194.177 241.331 194.358 241.512C194.539 241.683 194.854 241.768 195.302 241.768H196.374V243H195.062C194.251 243 193.643 242.813 193.238 242.44C192.833 242.067 192.63 241.453 192.63 240.6V235.432H191.494V234.232H192.63V232.024H194.086V234.232H196.374V235.432H194.086ZM199.642 240.984L197.85 245.288H196.874L198.042 240.984H199.642ZM50.4614 260.848C50.7494 260.347 51.1761 259.931 51.7414 259.6C52.3174 259.259 52.9841 259.088 53.7414 259.088C54.5201 259.088 55.2241 259.275 55.8534 259.648C56.4934 260.021 56.9948 260.549 57.3574 261.232C57.7201 261.904 57.9014 262.688 57.9014 263.584C57.9014 264.469 57.7201 265.259 57.3574 265.952C56.9948 266.645 56.4934 267.184 55.8534 267.568C55.2241 267.952 54.5201 268.144 53.7414 268.144C52.9948 268.144 52.3334 267.979 51.7574 267.648C51.1921 267.307 50.7601 266.885 50.4614 266.384V272.16H49.0054V259.232H50.4614V260.848ZM56.4134 263.584C56.4134 262.923 56.2801 262.347 56.0134 261.856C55.7468 261.365 55.3841 260.992 54.9254 260.736C54.4774 260.48 53.9814 260.352 53.4374 260.352C52.9041 260.352 52.4081 260.485 51.9494 260.752C51.5014 261.008 51.1388 261.387 50.8614 261.888C50.5948 262.379 50.4614 262.949 50.4614 263.6C50.4614 264.261 50.5948 264.843 50.8614 265.344C51.1388 265.835 51.5014 266.213 51.9494 266.48C52.4081 266.736 52.9041 266.864 53.4374 266.864C53.9814 266.864 54.4774 266.736 54.9254 266.48C55.3841 266.213 55.7468 265.835 56.0134 265.344C56.2801 264.843 56.4134 264.256 56.4134 263.584ZM61.2739 256.16V268H59.8179V256.16H61.2739ZM71.7554 263.28C71.7554 263.557 71.7394 263.851 71.7074 264.16H64.6994C64.7528 265.024 65.0461 265.701 65.5794 266.192C66.1234 266.672 66.7794 266.912 67.5474 266.912C68.1768 266.912 68.6994 266.768 69.1154 266.48C69.5421 266.181 69.8408 265.787 70.0114 265.296H71.5794C71.3448 266.139 70.8754 266.827 70.1714 267.36C69.4674 267.883 68.5928 268.144 67.5474 268.144C66.7154 268.144 65.9688 267.957 65.3074 267.584C64.6568 267.211 64.1448 266.683 63.7714 266C63.3981 265.307 63.2114 264.507 63.2114 263.6C63.2114 262.693 63.3928 261.899 63.7554 261.216C64.1181 260.533 64.6248 260.011 65.2754 259.648C65.9368 259.275 66.6941 259.088 67.5474 259.088C68.3794 259.088 69.1154 259.269 69.7554 259.632C70.3954 259.995 70.8861 260.496 71.2274 261.136C71.5794 261.765 71.7554 262.48 71.7554 263.28ZM70.2514 262.976C70.2514 262.421 70.1288 261.947 69.8834 261.552C69.6381 261.147 69.3021 260.843 68.8754 260.64C68.4594 260.427 67.9954 260.32 67.4834 260.32C66.7474 260.32 66.1181 260.555 65.5954 261.024C65.0834 261.493 64.7901 262.144 64.7154 262.976H70.2514ZM73.1333 263.584C73.1333 262.688 73.3146 261.904 73.6773 261.232C74.04 260.549 74.536 260.021 75.1653 259.648C75.8053 259.275 76.5146 259.088 77.2933 259.088C78.0613 259.088 78.728 259.253 79.2933 259.584C79.8586 259.915 80.28 260.331 80.5573 260.832V259.232H82.0293V268H80.5573V266.368C80.2693 266.88 79.8373 267.307 79.2613 267.648C78.696 267.979 78.0346 268.144 77.2773 268.144C76.4986 268.144 75.7946 267.952 75.1653 267.568C74.536 267.184 74.04 266.645 73.6773 265.952C73.3146 265.259 73.1333 264.469 73.1333 263.584ZM80.5573 263.6C80.5573 262.939 80.424 262.363 80.1573 261.872C79.8906 261.381 79.528 261.008 79.0693 260.752C78.6213 260.485 78.1253 260.352 77.5813 260.352C77.0373 260.352 76.5413 260.48 76.0933 260.736C75.6453 260.992 75.288 261.365 75.0213 261.856C74.7546 262.347 74.6213 262.923 74.6213 263.584C74.6213 264.256 74.7546 264.843 75.0213 265.344C75.288 265.835 75.6453 266.213 76.0933 266.48C76.5413 266.736 77.0373 266.864 77.5813 266.864C78.1253 266.864 78.6213 266.736 79.0693 266.48C79.528 266.213 79.8906 265.835 80.1573 265.344C80.424 264.843 80.5573 264.261 80.5573 263.6ZM87.5938 268.144C86.9218 268.144 86.3191 268.032 85.7858 267.808C85.2525 267.573 84.8311 267.253 84.5218 266.848C84.2125 266.432 84.0418 265.957 84.0098 265.424H85.5138C85.5565 265.861 85.7591 266.219 86.1218 266.496C86.4951 266.773 86.9805 266.912 87.5778 266.912C88.1325 266.912 88.5698 266.789 88.8898 266.544C89.2098 266.299 89.3698 265.989 89.3698 265.616C89.3698 265.232 89.1991 264.949 88.8578 264.768C88.5165 264.576 87.9885 264.389 87.2738 264.208C86.6231 264.037 86.0898 263.867 85.6738 263.696C85.2685 263.515 84.9165 263.253 84.6178 262.912C84.3298 262.56 84.1858 262.101 84.1858 261.536C84.1858 261.088 84.3191 260.677 84.5858 260.304C84.8525 259.931 85.2311 259.637 85.7218 259.424C86.2125 259.2 86.7725 259.088 87.4018 259.088C88.3725 259.088 89.1565 259.333 89.7538 259.824C90.3511 260.315 90.6711 260.987 90.7138 261.84H89.2578C89.2258 261.381 89.0391 261.013 88.6978 260.736C88.3671 260.459 87.9191 260.32 87.3538 260.32C86.8311 260.32 86.4151 260.432 86.1058 260.656C85.7965 260.88 85.6418 261.173 85.6418 261.536C85.6418 261.824 85.7325 262.064 85.9138 262.256C86.1058 262.437 86.3405 262.587 86.6178 262.704C86.9058 262.811 87.3005 262.933 87.8018 263.072C88.4311 263.243 88.9431 263.413 89.3378 263.584C89.7325 263.744 90.0685 263.989 90.3458 264.32C90.6338 264.651 90.7831 265.083 90.7938 265.616C90.7938 266.096 90.6605 266.528 90.3938 266.912C90.1271 267.296 89.7485 267.6 89.2578 267.824C88.7778 268.037 88.2231 268.144 87.5938 268.144ZM100.849 263.28C100.849 263.557 100.833 263.851 100.801 264.16H93.7932C93.8465 265.024 94.1399 265.701 94.6732 266.192C95.2172 266.672 95.8732 266.912 96.6412 266.912C97.2705 266.912 97.7932 266.768 98.2092 266.48C98.6359 266.181 98.9345 265.787 99.1052 265.296H100.673C100.439 266.139 99.9692 266.827 99.2652 267.36C98.5612 267.883 97.6865 268.144 96.6412 268.144C95.8092 268.144 95.0625 267.957 94.4012 267.584C93.7505 267.211 93.2385 266.683 92.8652 266C92.4919 265.307 92.3052 264.507 92.3052 263.6C92.3052 262.693 92.4865 261.899 92.8492 261.216C93.2119 260.533 93.7185 260.011 94.3692 259.648C95.0305 259.275 95.7879 259.088 96.6412 259.088C97.4732 259.088 98.2092 259.269 98.8492 259.632C99.4892 259.995 99.9799 260.496 100.321 261.136C100.673 261.765 100.849 262.48 100.849 263.28ZM99.3452 262.976C99.3452 262.421 99.2225 261.947 98.9772 261.552C98.7319 261.147 98.3959 260.843 97.9692 260.64C97.5532 260.427 97.0892 260.32 96.5772 260.32C95.8412 260.32 95.2119 260.555 94.6892 261.024C94.1772 261.493 93.8839 262.144 93.8092 262.976H99.3452ZM106.493 263.584C106.493 262.688 106.674 261.904 107.037 261.232C107.399 260.549 107.895 260.021 108.525 259.648C109.165 259.275 109.874 259.088 110.653 259.088C111.421 259.088 112.087 259.253 112.653 259.584C113.218 259.915 113.639 260.331 113.917 260.832V259.232H115.389V268H113.917V266.368C113.629 266.88 113.197 267.307 112.621 267.648C112.055 267.979 111.394 268.144 110.637 268.144C109.858 268.144 109.154 267.952 108.525 267.568C107.895 267.184 107.399 266.645 107.037 265.952C106.674 265.259 106.493 264.469 106.493 263.584ZM113.917 263.6C113.917 262.939 113.783 262.363 113.517 261.872C113.25 261.381 112.887 261.008 112.429 260.752C111.981 260.485 111.485 260.352 110.941 260.352C110.397 260.352 109.901 260.48 109.453 260.736C109.005 260.992 108.647 261.365 108.381 261.856C108.114 262.347 107.981 262.923 107.981 263.584C107.981 264.256 108.114 264.843 108.381 265.344C108.647 265.835 109.005 266.213 109.453 266.48C109.901 266.736 110.397 266.864 110.941 266.864C111.485 266.864 111.981 266.736 112.429 266.48C112.887 266.213 113.25 265.835 113.517 265.344C113.783 264.843 113.917 264.261 113.917 263.6ZM117.305 263.584C117.305 262.688 117.487 261.904 117.849 261.232C118.212 260.549 118.708 260.021 119.337 259.648C119.977 259.275 120.692 259.088 121.481 259.088C122.164 259.088 122.799 259.248 123.385 259.568C123.972 259.877 124.42 260.288 124.729 260.8V256.16H126.201V268H124.729V266.352C124.441 266.875 124.015 267.307 123.449 267.648C122.884 267.979 122.223 268.144 121.465 268.144C120.687 268.144 119.977 267.952 119.337 267.568C118.708 267.184 118.212 266.645 117.849 265.952C117.487 265.259 117.305 264.469 117.305 263.584ZM124.729 263.6C124.729 262.939 124.596 262.363 124.329 261.872C124.063 261.381 123.7 261.008 123.241 260.752C122.793 260.485 122.297 260.352 121.753 260.352C121.209 260.352 120.713 260.48 120.265 260.736C119.817 260.992 119.46 261.365 119.193 261.856C118.927 262.347 118.793 262.923 118.793 263.584C118.793 264.256 118.927 264.843 119.193 265.344C119.46 265.835 119.817 266.213 120.265 266.48C120.713 266.736 121.209 266.864 121.753 266.864C122.297 266.864 122.793 266.736 123.241 266.48C123.7 266.213 124.063 265.835 124.329 265.344C124.596 264.843 124.729 264.261 124.729 263.6ZM128.118 263.584C128.118 262.688 128.299 261.904 128.662 261.232C129.024 260.549 129.52 260.021 130.15 259.648C130.79 259.275 131.504 259.088 132.294 259.088C132.976 259.088 133.611 259.248 134.198 259.568C134.784 259.877 135.232 260.288 135.542 260.8V256.16H137.014V268H135.542V266.352C135.254 266.875 134.827 267.307 134.262 267.648C133.696 267.979 133.035 268.144 132.278 268.144C131.499 268.144 130.79 267.952 130.15 267.568C129.52 267.184 129.024 266.645 128.662 265.952C128.299 265.259 128.118 264.469 128.118 263.584ZM135.542 263.6C135.542 262.939 135.408 262.363 135.142 261.872C134.875 261.381 134.512 261.008 134.054 260.752C133.606 260.485 133.11 260.352 132.566 260.352C132.022 260.352 131.526 260.48 131.078 260.736C130.63 260.992 130.272 261.365 130.006 261.856C129.739 262.347 129.606 262.923 129.606 263.584C129.606 264.256 129.739 264.843 130.006 265.344C130.272 265.835 130.63 266.213 131.078 266.48C131.526 266.736 132.022 266.864 132.566 266.864C133.11 266.864 133.606 266.736 134.054 266.48C134.512 266.213 134.875 265.835 135.142 265.344C135.408 264.843 135.542 264.261 135.542 263.6ZM149.324 262.256C149.729 262.32 150.097 262.485 150.428 262.752C150.769 263.019 151.036 263.349 151.228 263.744C151.43 264.139 151.532 264.56 151.532 265.008C151.532 265.573 151.388 266.085 151.1 266.544C150.812 266.992 150.39 267.349 149.836 267.616C149.292 267.872 148.646 268 147.9 268H143.74V256.848H147.74C148.497 256.848 149.142 256.976 149.676 257.232C150.209 257.477 150.609 257.813 150.876 258.24C151.142 258.667 151.276 259.147 151.276 259.68C151.276 260.341 151.094 260.891 150.732 261.328C150.38 261.755 149.91 262.064 149.324 262.256ZM145.196 261.664H147.644C148.326 261.664 148.854 261.504 149.228 261.184C149.601 260.864 149.788 260.421 149.788 259.856C149.788 259.291 149.601 258.848 149.228 258.528C148.854 258.208 148.316 258.048 147.612 258.048H145.196V261.664ZM147.772 266.8C148.497 266.8 149.062 266.629 149.468 266.288C149.873 265.947 150.076 265.472 150.076 264.864C150.076 264.245 149.862 263.76 149.436 263.408C149.009 263.045 148.438 262.864 147.724 262.864H145.196V266.8H147.772ZM161.328 259.232V268H159.872V266.704C159.595 267.152 159.206 267.504 158.704 267.76C158.214 268.005 157.67 268.128 157.072 268.128C156.39 268.128 155.776 267.989 155.232 267.712C154.688 267.424 154.256 266.997 153.936 266.432C153.627 265.867 153.472 265.179 153.472 264.368V259.232H154.912V264.176C154.912 265.04 155.131 265.707 155.568 266.176C156.006 266.635 156.603 266.864 157.36 266.864C158.139 266.864 158.752 266.624 159.2 266.144C159.648 265.664 159.872 264.965 159.872 264.048V259.232H161.328ZM164.539 257.808C164.261 257.808 164.027 257.712 163.835 257.52C163.643 257.328 163.547 257.093 163.547 256.816C163.547 256.539 163.643 256.304 163.835 256.112C164.027 255.92 164.261 255.824 164.539 255.824C164.805 255.824 165.029 255.92 165.211 256.112C165.403 256.304 165.499 256.539 165.499 256.816C165.499 257.093 165.403 257.328 165.211 257.52C165.029 257.712 164.805 257.808 164.539 257.808ZM165.243 259.232V268H163.787V259.232H165.243ZM169.18 256.16V268H167.724V256.16H169.18ZM171.118 263.584C171.118 262.688 171.299 261.904 171.662 261.232C172.024 260.549 172.52 260.021 173.15 259.648C173.79 259.275 174.504 259.088 175.294 259.088C175.976 259.088 176.611 259.248 177.198 259.568C177.784 259.877 178.232 260.288 178.542 260.8V256.16H180.014V268H178.542V266.352C178.254 266.875 177.827 267.307 177.262 267.648C176.696 267.979 176.035 268.144 175.278 268.144C174.499 268.144 173.79 267.952 173.15 267.568C172.52 267.184 172.024 266.645 171.662 265.952C171.299 265.259 171.118 264.469 171.118 263.584ZM178.542 263.6C178.542 262.939 178.408 262.363 178.142 261.872C177.875 261.381 177.512 261.008 177.054 260.752C176.606 260.485 176.11 260.352 175.566 260.352C175.022 260.352 174.526 260.48 174.078 260.736C173.63 260.992 173.272 261.365 173.006 261.856C172.739 262.347 172.606 262.923 172.606 263.584C172.606 264.256 172.739 264.843 173.006 265.344C173.272 265.835 173.63 266.213 174.078 266.48C174.526 266.736 175.022 266.864 175.566 266.864C176.11 266.864 176.606 266.736 177.054 266.48C177.512 266.213 177.875 265.835 178.142 265.344C178.408 264.843 178.542 264.261 178.542 263.6ZM183.226 257.808C182.949 257.808 182.714 257.712 182.522 257.52C182.33 257.328 182.234 257.093 182.234 256.816C182.234 256.539 182.33 256.304 182.522 256.112C182.714 255.92 182.949 255.824 183.226 255.824C183.493 255.824 183.717 255.92 183.898 256.112C184.09 256.304 184.186 256.539 184.186 256.816C184.186 257.093 184.09 257.328 183.898 257.52C183.717 257.712 183.493 257.808 183.226 257.808ZM183.93 259.232V268H182.474V259.232H183.93ZM190.684 259.072C191.75 259.072 192.614 259.397 193.276 260.048C193.937 260.688 194.268 261.616 194.268 262.832V268H192.828V263.04C192.828 262.165 192.609 261.499 192.172 261.04C191.734 260.571 191.137 260.336 190.38 260.336C189.612 260.336 188.998 260.576 188.54 261.056C188.092 261.536 187.868 262.235 187.868 263.152V268H186.412V259.232H187.868V260.48C188.156 260.032 188.545 259.685 189.036 259.44C189.537 259.195 190.086 259.072 190.684 259.072ZM200.262 259.088C201.019 259.088 201.681 259.253 202.246 259.584C202.822 259.915 203.249 260.331 203.526 260.832V259.232H204.998V268.192C204.998 268.992 204.827 269.701 204.486 270.32C204.145 270.949 203.654 271.44 203.014 271.792C202.385 272.144 201.649 272.32 200.806 272.32C199.654 272.32 198.694 272.048 197.926 271.504C197.158 270.96 196.705 270.219 196.566 269.28H198.006C198.166 269.813 198.497 270.24 198.998 270.56C199.499 270.891 200.102 271.056 200.806 271.056C201.606 271.056 202.257 270.805 202.758 270.304C203.27 269.803 203.526 269.099 203.526 268.192V266.352C203.238 266.864 202.811 267.291 202.246 267.632C201.681 267.973 201.019 268.144 200.262 268.144C199.483 268.144 198.774 267.952 198.134 267.568C197.505 267.184 197.009 266.645 196.646 265.952C196.283 265.259 196.102 264.469 196.102 263.584C196.102 262.688 196.283 261.904 196.646 261.232C197.009 260.549 197.505 260.021 198.134 259.648C198.774 259.275 199.483 259.088 200.262 259.088ZM203.526 263.6C203.526 262.939 203.393 262.363 203.126 261.872C202.859 261.381 202.497 261.008 202.038 260.752C201.59 260.485 201.094 260.352 200.55 260.352C200.006 260.352 199.51 260.48 199.062 260.736C198.614 260.992 198.257 261.365 197.99 261.856C197.723 262.347 197.59 262.923 197.59 263.584C197.59 264.256 197.723 264.843 197.99 265.344C198.257 265.835 198.614 266.213 199.062 266.48C199.51 266.736 200.006 266.864 200.55 266.864C201.094 266.864 201.59 266.736 202.038 266.48C202.497 266.213 202.859 265.835 203.126 265.344C203.393 264.843 203.526 264.261 203.526 263.6ZM114.258 280.848V287.904C114.258 288.896 114.498 289.632 114.978 290.112C115.468 290.592 116.146 290.832 117.01 290.832C117.863 290.832 118.53 290.592 119.01 290.112C119.5 289.632 119.746 288.896 119.746 287.904V280.848H121.202V287.888C121.202 288.816 121.015 289.6 120.642 290.24C120.268 290.869 119.762 291.339 119.122 291.648C118.492 291.957 117.783 292.112 116.994 292.112C116.204 292.112 115.49 291.957 114.85 291.648C114.22 291.339 113.719 290.869 113.346 290.24C112.983 289.6 112.802 288.816 112.802 287.888V280.848H114.258ZM127.902 283.072C128.969 283.072 129.833 283.397 130.494 284.048C131.156 284.688 131.486 285.616 131.486 286.832V292H130.046V287.04C130.046 286.165 129.828 285.499 129.39 285.04C128.953 284.571 128.356 284.336 127.598 284.336C126.83 284.336 126.217 284.576 125.758 285.056C125.31 285.536 125.086 286.235 125.086 287.152V292H123.63V283.232H125.086V284.48C125.374 284.032 125.764 283.685 126.254 283.44C126.756 283.195 127.305 283.072 127.902 283.072ZM134.617 281.808C134.339 281.808 134.105 281.712 133.913 281.52C133.721 281.328 133.625 281.093 133.625 280.816C133.625 280.539 133.721 280.304 133.913 280.112C134.105 279.92 134.339 279.824 134.617 279.824C134.883 279.824 135.107 279.92 135.289 280.112C135.481 280.304 135.577 280.539 135.577 280.816C135.577 281.093 135.481 281.328 135.289 281.52C135.107 281.712 134.883 281.808 134.617 281.808ZM135.321 283.232V292H133.865V283.232H135.321ZM139.578 284.432V289.6C139.578 290.027 139.669 290.331 139.85 290.512C140.032 290.683 140.346 290.768 140.794 290.768H141.866V292H140.554C139.744 292 139.136 291.813 138.73 291.44C138.325 291.067 138.122 290.453 138.122 289.6V284.432H136.986V283.232H138.122V281.024H139.578V283.232H141.866V284.432H139.578Z" fill="black"/>
</svg>
