<svg width="258" height="313" viewBox="0 0 258 313" fill="none" xmlns="http://www.w3.org/2000/svg">
<path d="M109.631 61.5757C123.111 51.7376 137.807 33.7182 153.001 31.0984C168.228 28.7947 183.81 42.0579 196.104 57.418C208.365 72.4619 217.37 89.9191 218.701 107.18C220.031 124.44 214.004 141.486 204.375 154.602C194.922 167.868 182.009 177.037 168.836 188.289C155.522 199.709 141.947 213.21 125.301 217.186C108.512 221.328 88.7947 215.777 75.2802 203.986C61.4486 192.213 53.7869 173.884 48.3019 156.543C42.8169 139.203 39.8256 122.833 43.9984 109.392C48.1712 95.952 59.8251 85.4233 71.7679 79.1724C83.7437 73.2377 96.0085 71.5809 109.631 61.5757Z" fill="#F66464"/>
<rect y="169" width="258" height="144" rx="28" fill="#EFEDED"/>
<path d="M51.6411 194.416C51.6411 193.328 51.8865 192.352 52.3771 191.488C52.8678 190.613 53.5345 189.931 54.3771 189.44C55.2305 188.949 56.1745 188.704 57.2091 188.704C58.4251 188.704 59.4865 188.997 60.3931 189.584C61.2998 190.171 61.9611 191.003 62.3771 192.08H60.6331C60.3238 191.408 59.8758 190.891 59.2891 190.528C58.7131 190.165 58.0198 189.984 57.2091 189.984C56.4305 189.984 55.7318 190.165 55.1131 190.528C54.4945 190.891 54.0091 191.408 53.6571 192.08C53.3051 192.741 53.1291 193.52 53.1291 194.416C53.1291 195.301 53.3051 196.08 53.6571 196.752C54.0091 197.413 54.4945 197.925 55.1131 198.288C55.7318 198.651 56.4305 198.832 57.2091 198.832C58.0198 198.832 58.7131 198.656 59.2891 198.304C59.8758 197.941 60.3238 197.424 60.6331 196.752H62.3771C61.9611 197.819 61.2998 198.645 60.3931 199.232C59.4865 199.808 58.4251 200.096 57.2091 200.096C56.1745 200.096 55.2305 199.856 54.3771 199.376C53.5345 198.885 52.8678 198.208 52.3771 197.344C51.8865 196.48 51.6411 195.504 51.6411 194.416ZM72.3205 191.232V200H70.8645V198.704C70.5872 199.152 70.1978 199.504 69.6965 199.76C69.2058 200.005 68.6618 200.128 68.0645 200.128C67.3818 200.128 66.7685 199.989 66.2245 199.712C65.6805 199.424 65.2485 198.997 64.9285 198.432C64.6192 197.867 64.4645 197.179 64.4645 196.368V191.232H65.9045V196.176C65.9045 197.04 66.1232 197.707 66.5605 198.176C66.9978 198.635 67.5952 198.864 68.3525 198.864C69.1312 198.864 69.7445 198.624 70.1925 198.144C70.6405 197.664 70.8645 196.965 70.8645 196.048V191.232H72.3205ZM76.2349 192.656C76.4909 192.155 76.8535 191.765 77.3229 191.488C77.8029 191.211 78.3842 191.072 79.0669 191.072V192.576H78.6829C77.0509 192.576 76.2349 193.461 76.2349 195.232V200H74.7789V191.232H76.2349V192.656ZM82.2036 192.656C82.4596 192.155 82.8223 191.765 83.2916 191.488C83.7716 191.211 84.353 191.072 85.0356 191.072V192.576H84.6516C83.0196 192.576 82.2036 193.461 82.2036 195.232V200H80.7476V191.232H82.2036V192.656ZM94.7164 195.28C94.7164 195.557 94.7004 195.851 94.6684 196.16H87.6604C87.7137 197.024 88.007 197.701 88.5404 198.192C89.0844 198.672 89.7404 198.912 90.5084 198.912C91.1377 198.912 91.6604 198.768 92.0764 198.48C92.503 198.181 92.8017 197.787 92.9724 197.296H94.5404C94.3057 198.139 93.8364 198.827 93.1324 199.36C92.4284 199.883 91.5537 200.144 90.5084 200.144C89.6764 200.144 88.9297 199.957 88.2684 199.584C87.6177 199.211 87.1057 198.683 86.7324 198C86.359 197.307 86.1724 196.507 86.1724 195.6C86.1724 194.693 86.3537 193.899 86.7164 193.216C87.079 192.533 87.5857 192.011 88.2364 191.648C88.8977 191.275 89.655 191.088 90.5084 191.088C91.3404 191.088 92.0764 191.269 92.7164 191.632C93.3564 191.995 93.847 192.496 94.1884 193.136C94.5404 193.765 94.7164 194.48 94.7164 195.28ZM93.2124 194.976C93.2124 194.421 93.0897 193.947 92.8444 193.552C92.599 193.147 92.263 192.843 91.8364 192.64C91.4204 192.427 90.9564 192.32 90.4444 192.32C89.7084 192.32 89.079 192.555 88.5564 193.024C88.0444 193.493 87.751 194.144 87.6764 194.976H93.2124ZM100.91 191.072C101.977 191.072 102.841 191.397 103.502 192.048C104.164 192.688 104.494 193.616 104.494 194.832V200H103.054V195.04C103.054 194.165 102.836 193.499 102.398 193.04C101.961 192.571 101.364 192.336 100.606 192.336C99.8383 192.336 99.2249 192.576 98.7663 193.056C98.3183 193.536 98.0943 194.235 98.0943 195.152V200H96.6383V191.232H98.0943V192.48C98.3823 192.032 98.7716 191.685 99.2623 191.44C99.7636 191.195 100.313 191.072 100.91 191.072ZM108.649 192.432V197.6C108.649 198.027 108.739 198.331 108.921 198.512C109.102 198.683 109.417 198.768 109.865 198.768H110.937V200H109.625C108.814 200 108.206 199.813 107.801 199.44C107.395 199.067 107.193 198.453 107.193 197.6V192.432H106.057V191.232H107.193V189.024H108.649V191.232H110.937V192.432H108.649ZM114.157 188.16V200H112.701V188.16H114.157ZM124.19 191.232L118.91 204.128H117.406L119.134 199.904L115.598 191.232H117.214L119.966 198.336L122.686 191.232H124.19ZM137.472 191.232L132.192 204.128H130.688L132.416 199.904L128.88 191.232H130.496L133.248 198.336L135.968 191.232H137.472ZM142.759 200.144C141.938 200.144 141.191 199.957 140.519 199.584C139.858 199.211 139.335 198.683 138.951 198C138.578 197.307 138.391 196.507 138.391 195.6C138.391 194.704 138.583 193.915 138.967 193.232C139.362 192.539 139.895 192.011 140.567 191.648C141.239 191.275 141.991 191.088 142.823 191.088C143.655 191.088 144.407 191.275 145.079 191.648C145.751 192.011 146.279 192.533 146.663 193.216C147.058 193.899 147.255 194.693 147.255 195.6C147.255 196.507 147.052 197.307 146.647 198C146.252 198.683 145.714 199.211 145.031 199.584C144.348 199.957 143.591 200.144 142.759 200.144ZM142.759 198.864C143.282 198.864 143.772 198.741 144.231 198.496C144.69 198.251 145.058 197.883 145.335 197.392C145.623 196.901 145.767 196.304 145.767 195.6C145.767 194.896 145.628 194.299 145.351 193.808C145.074 193.317 144.711 192.955 144.263 192.72C143.815 192.475 143.33 192.352 142.807 192.352C142.274 192.352 141.783 192.475 141.335 192.72C140.898 192.955 140.546 193.317 140.279 193.808C140.012 194.299 139.879 194.896 139.879 195.6C139.879 196.315 140.007 196.917 140.263 197.408C140.53 197.899 140.882 198.267 141.319 198.512C141.756 198.747 142.236 198.864 142.759 198.864ZM156.946 191.232V200H155.49V198.704C155.212 199.152 154.823 199.504 154.322 199.76C153.831 200.005 153.287 200.128 152.69 200.128C152.007 200.128 151.394 199.989 150.85 199.712C150.306 199.424 149.874 198.997 149.554 198.432C149.244 197.867 149.09 197.179 149.09 196.368V191.232H150.53V196.176C150.53 197.04 150.748 197.707 151.186 198.176C151.623 198.635 152.22 198.864 152.978 198.864C153.756 198.864 154.37 198.624 154.818 198.144C155.266 197.664 155.49 196.965 155.49 196.048V191.232H156.946ZM163.126 195.584C163.126 194.688 163.307 193.904 163.67 193.232C164.032 192.549 164.528 192.021 165.158 191.648C165.798 191.275 166.512 191.088 167.302 191.088C167.984 191.088 168.619 191.248 169.206 191.568C169.792 191.877 170.24 192.288 170.55 192.8V188.16H172.022V200H170.55V198.352C170.262 198.875 169.835 199.307 169.27 199.648C168.704 199.979 168.043 200.144 167.286 200.144C166.507 200.144 165.798 199.952 165.158 199.568C164.528 199.184 164.032 198.645 163.67 197.952C163.307 197.259 163.126 196.469 163.126 195.584ZM170.55 195.6C170.55 194.939 170.416 194.363 170.15 193.872C169.883 193.381 169.52 193.008 169.062 192.752C168.614 192.485 168.118 192.352 167.574 192.352C167.03 192.352 166.534 192.48 166.086 192.736C165.638 192.992 165.28 193.365 165.014 193.856C164.747 194.347 164.614 194.923 164.614 195.584C164.614 196.256 164.747 196.843 165.014 197.344C165.28 197.835 165.638 198.213 166.086 198.48C166.534 198.736 167.03 198.864 167.574 198.864C168.118 198.864 168.614 198.736 169.062 198.48C169.52 198.213 169.883 197.835 170.15 197.344C170.416 196.843 170.55 196.261 170.55 195.6ZM178.306 200.144C177.485 200.144 176.738 199.957 176.066 199.584C175.405 199.211 174.882 198.683 174.498 198C174.125 197.307 173.938 196.507 173.938 195.6C173.938 194.704 174.13 193.915 174.514 193.232C174.909 192.539 175.442 192.011 176.114 191.648C176.786 191.275 177.538 191.088 178.37 191.088C179.202 191.088 179.954 191.275 180.626 191.648C181.298 192.011 181.826 192.533 182.21 193.216C182.605 193.899 182.802 194.693 182.802 195.6C182.802 196.507 182.599 197.307 182.194 198C181.799 198.683 181.261 199.211 180.578 199.584C179.895 199.957 179.138 200.144 178.306 200.144ZM178.306 198.864C178.829 198.864 179.319 198.741 179.778 198.496C180.237 198.251 180.605 197.883 180.882 197.392C181.17 196.901 181.314 196.304 181.314 195.6C181.314 194.896 181.175 194.299 180.898 193.808C180.621 193.317 180.258 192.955 179.81 192.72C179.362 192.475 178.877 192.352 178.354 192.352C177.821 192.352 177.33 192.475 176.882 192.72C176.445 192.955 176.093 193.317 175.826 193.808C175.559 194.299 175.426 194.896 175.426 195.6C175.426 196.315 175.554 196.917 175.81 197.408C176.077 197.899 176.429 198.267 176.866 198.512C177.303 198.747 177.783 198.864 178.306 198.864ZM188.988 191.072C190.055 191.072 190.919 191.397 191.58 192.048C192.242 192.688 192.572 193.616 192.572 194.832V200H191.132V195.04C191.132 194.165 190.914 193.499 190.476 193.04C190.039 192.571 189.442 192.336 188.684 192.336C187.916 192.336 187.303 192.576 186.844 193.056C186.396 193.536 186.172 194.235 186.172 195.152V200H184.716V191.232H186.172V192.48C186.46 192.032 186.85 191.685 187.34 191.44C187.842 191.195 188.391 191.072 188.988 191.072ZM195.175 188.848H196.791L195.255 192.48H194.231L195.175 188.848ZM200.227 192.432V197.6C200.227 198.027 200.317 198.331 200.499 198.512C200.68 198.683 200.995 198.768 201.443 198.768H202.515V200H201.203C200.392 200 199.784 199.813 199.379 199.44C198.973 199.067 198.771 198.453 198.771 197.6V192.432H197.635V191.232H198.771V189.024H200.227V191.232H202.515V192.432H200.227ZM70.5059 215.072C71.1672 215.072 71.7645 215.216 72.2979 215.504C72.8312 215.781 73.2472 216.203 73.5459 216.768C73.8552 217.333 74.0099 218.021 74.0099 218.832V224H72.5699V219.04C72.5699 218.165 72.3512 217.499 71.9139 217.04C71.4765 216.571 70.8792 216.336 70.1219 216.336C69.3539 216.336 68.7405 216.576 68.2819 217.056C67.8339 217.536 67.6099 218.235 67.6099 219.152V224H66.1539V212.16H67.6099V216.48C67.8979 216.032 68.2925 215.685 68.7939 215.44C69.3059 215.195 69.8765 215.072 70.5059 215.072ZM75.8443 219.584C75.8443 218.688 76.0256 217.904 76.3883 217.232C76.7509 216.549 77.2469 216.021 77.8763 215.648C78.5163 215.275 79.2256 215.088 80.0043 215.088C80.7723 215.088 81.4389 215.253 82.0043 215.584C82.5696 215.915 82.9909 216.331 83.2683 216.832V215.232H84.7403V224H83.2683V222.368C82.9803 222.88 82.5483 223.307 81.9723 223.648C81.4069 223.979 80.7456 224.144 79.9883 224.144C79.2096 224.144 78.5056 223.952 77.8763 223.568C77.2469 223.184 76.7509 222.645 76.3883 221.952C76.0256 221.259 75.8443 220.469 75.8443 219.584ZM83.2683 219.6C83.2683 218.939 83.1349 218.363 82.8683 217.872C82.6016 217.381 82.2389 217.008 81.7803 216.752C81.3323 216.485 80.8363 216.352 80.2923 216.352C79.7483 216.352 79.2523 216.48 78.8043 216.736C78.3563 216.992 77.9989 217.365 77.7323 217.856C77.4656 218.347 77.3323 218.923 77.3323 219.584C77.3323 220.256 77.4656 220.843 77.7323 221.344C77.9989 221.835 78.3563 222.213 78.8043 222.48C79.2523 222.736 79.7483 222.864 80.2923 222.864C80.8363 222.864 81.3323 222.736 81.7803 222.48C82.2389 222.213 82.6016 221.835 82.8683 221.344C83.1349 220.843 83.2683 220.261 83.2683 219.6ZM90.4648 222.656L93.1848 215.232H94.7368L91.2968 224H89.6008L86.1608 215.232H87.7288L90.4648 222.656ZM104.17 219.28C104.17 219.557 104.154 219.851 104.122 220.16H97.1135C97.1668 221.024 97.4602 221.701 97.9935 222.192C98.5375 222.672 99.1935 222.912 99.9615 222.912C100.591 222.912 101.114 222.768 101.53 222.48C101.956 222.181 102.255 221.787 102.426 221.296H103.994C103.759 222.139 103.29 222.827 102.586 223.36C101.882 223.883 101.007 224.144 99.9615 224.144C99.1295 224.144 98.3828 223.957 97.7215 223.584C97.0708 223.211 96.5588 222.683 96.1855 222C95.8122 221.307 95.6255 220.507 95.6255 219.6C95.6255 218.693 95.8068 217.899 96.1695 217.216C96.5322 216.533 97.0388 216.011 97.6895 215.648C98.3508 215.275 99.1082 215.088 99.9615 215.088C100.794 215.088 101.53 215.269 102.17 215.632C102.81 215.995 103.3 216.496 103.642 217.136C103.994 217.765 104.17 218.48 104.17 219.28ZM102.666 218.976C102.666 218.421 102.543 217.947 102.298 217.552C102.052 217.147 101.716 216.843 101.29 216.64C100.874 216.427 100.41 216.32 99.8975 216.32C99.1615 216.32 98.5322 216.555 98.0095 217.024C97.4975 217.493 97.2042 218.144 97.1295 218.976H102.666ZM109.813 218.416C109.813 217.328 110.058 216.352 110.549 215.488C111.04 214.613 111.706 213.931 112.549 213.44C113.402 212.949 114.346 212.704 115.381 212.704C116.597 212.704 117.658 212.997 118.565 213.584C119.472 214.171 120.133 215.003 120.549 216.08H118.805C118.496 215.408 118.048 214.891 117.461 214.528C116.885 214.165 116.192 213.984 115.381 213.984C114.602 213.984 113.904 214.165 113.285 214.528C112.666 214.891 112.181 215.408 111.829 216.08C111.477 216.741 111.301 217.52 111.301 218.416C111.301 219.301 111.477 220.08 111.829 220.752C112.181 221.413 112.666 221.925 113.285 222.288C113.904 222.651 114.602 222.832 115.381 222.832C116.192 222.832 116.885 222.656 117.461 222.304C118.048 221.941 118.496 221.424 118.805 220.752H120.549C120.133 221.819 119.472 222.645 118.565 223.232C117.658 223.808 116.597 224.096 115.381 224.096C114.346 224.096 113.402 223.856 112.549 223.376C111.706 222.885 111.04 222.208 110.549 221.344C110.058 220.48 109.813 219.504 109.813 218.416ZM126.54 224.144C125.719 224.144 124.972 223.957 124.3 223.584C123.639 223.211 123.116 222.683 122.732 222C122.359 221.307 122.172 220.507 122.172 219.6C122.172 218.704 122.364 217.915 122.748 217.232C123.143 216.539 123.676 216.011 124.348 215.648C125.02 215.275 125.772 215.088 126.604 215.088C127.436 215.088 128.188 215.275 128.86 215.648C129.532 216.011 130.06 216.533 130.444 217.216C130.839 217.899 131.036 218.693 131.036 219.6C131.036 220.507 130.834 221.307 130.428 222C130.034 222.683 129.495 223.211 128.812 223.584C128.13 223.957 127.372 224.144 126.54 224.144ZM126.54 222.864C127.063 222.864 127.554 222.741 128.012 222.496C128.471 222.251 128.839 221.883 129.116 221.392C129.404 220.901 129.548 220.304 129.548 219.6C129.548 218.896 129.41 218.299 129.132 217.808C128.855 217.317 128.492 216.955 128.044 216.72C127.596 216.475 127.111 216.352 126.588 216.352C126.055 216.352 125.564 216.475 125.116 216.72C124.679 216.955 124.327 217.317 124.06 217.808C123.794 218.299 123.66 218.896 123.66 219.6C123.66 220.315 123.788 220.917 124.044 221.408C124.311 221.899 124.663 222.267 125.1 222.512C125.538 222.747 126.018 222.864 126.54 222.864ZM143.495 215.072C144.177 215.072 144.785 215.216 145.319 215.504C145.852 215.781 146.273 216.203 146.583 216.768C146.892 217.333 147.047 218.021 147.047 218.832V224H145.607V219.04C145.607 218.165 145.388 217.499 144.951 217.04C144.524 216.571 143.943 216.336 143.207 216.336C142.449 216.336 141.847 216.581 141.399 217.072C140.951 217.552 140.727 218.251 140.727 219.168V224H139.287V219.04C139.287 218.165 139.068 217.499 138.631 217.04C138.204 216.571 137.623 216.336 136.887 216.336C136.129 216.336 135.527 216.581 135.079 217.072C134.631 217.552 134.407 218.251 134.407 219.168V224H132.951V215.232H134.407V216.496C134.695 216.037 135.079 215.685 135.559 215.44C136.049 215.195 136.588 215.072 137.175 215.072C137.911 215.072 138.561 215.237 139.127 215.568C139.692 215.899 140.113 216.384 140.391 217.024C140.636 216.405 141.041 215.925 141.607 215.584C142.172 215.243 142.801 215.072 143.495 215.072ZM150.891 216.848C151.179 216.347 151.606 215.931 152.171 215.6C152.747 215.259 153.414 215.088 154.171 215.088C154.95 215.088 155.654 215.275 156.283 215.648C156.923 216.021 157.424 216.549 157.787 217.232C158.15 217.904 158.331 218.688 158.331 219.584C158.331 220.469 158.15 221.259 157.787 221.952C157.424 222.645 156.923 223.184 156.283 223.568C155.654 223.952 154.95 224.144 154.171 224.144C153.424 224.144 152.763 223.979 152.187 223.648C151.622 223.307 151.19 222.885 150.891 222.384V228.16H149.435V215.232H150.891V216.848ZM156.843 219.584C156.843 218.923 156.71 218.347 156.443 217.856C156.176 217.365 155.814 216.992 155.355 216.736C154.907 216.48 154.411 216.352 153.867 216.352C153.334 216.352 152.838 216.485 152.379 216.752C151.931 217.008 151.568 217.387 151.291 217.888C151.024 218.379 150.891 218.949 150.891 219.6C150.891 220.261 151.024 220.843 151.291 221.344C151.568 221.835 151.931 222.213 152.379 222.48C152.838 222.736 153.334 222.864 153.867 222.864C154.411 222.864 154.907 222.736 155.355 222.48C155.814 222.213 156.176 221.835 156.443 221.344C156.71 220.843 156.843 220.256 156.843 219.584ZM159.704 219.584C159.704 218.688 159.885 217.904 160.248 217.232C160.61 216.549 161.106 216.021 161.736 215.648C162.376 215.275 163.085 215.088 163.864 215.088C164.632 215.088 165.298 215.253 165.864 215.584C166.429 215.915 166.85 216.331 167.128 216.832V215.232H168.6V224H167.128V222.368C166.84 222.88 166.408 223.307 165.832 223.648C165.266 223.979 164.605 224.144 163.848 224.144C163.069 224.144 162.365 223.952 161.736 223.568C161.106 223.184 160.61 222.645 160.248 221.952C159.885 221.259 159.704 220.469 159.704 219.584ZM167.128 219.6C167.128 218.939 166.994 218.363 166.728 217.872C166.461 217.381 166.098 217.008 165.64 216.752C165.192 216.485 164.696 216.352 164.152 216.352C163.608 216.352 163.112 216.48 162.664 216.736C162.216 216.992 161.858 217.365 161.592 217.856C161.325 218.347 161.192 218.923 161.192 219.584C161.192 220.256 161.325 220.843 161.592 221.344C161.858 221.835 162.216 222.213 162.664 222.48C163.112 222.736 163.608 222.864 164.152 222.864C164.696 222.864 165.192 222.736 165.64 222.48C166.098 222.213 166.461 221.835 166.728 221.344C166.994 220.843 167.128 220.261 167.128 219.6ZM175.332 215.072C176.399 215.072 177.263 215.397 177.924 216.048C178.585 216.688 178.916 217.616 178.916 218.832V224H177.476V219.04C177.476 218.165 177.257 217.499 176.82 217.04C176.383 216.571 175.785 216.336 175.028 216.336C174.26 216.336 173.647 216.576 173.188 217.056C172.74 217.536 172.516 218.235 172.516 219.152V224H171.06V215.232H172.516V216.48C172.804 216.032 173.193 215.685 173.684 215.44C174.185 215.195 174.735 215.072 175.332 215.072ZM188.847 215.232L183.567 228.128H182.062L183.791 223.904L180.255 215.232H181.871L184.623 222.336L187.343 215.232H188.847ZM65.998 237.848L62.766 249H61.134L58.542 240.024L55.854 249L54.238 249.016L51.118 237.848H52.67L55.102 247.304L57.79 237.848H59.422L61.982 247.272L64.43 237.848H65.998ZM67.0474 244.584C67.0474 243.688 67.2287 242.904 67.5914 242.232C67.954 241.549 68.45 241.021 69.0794 240.648C69.7194 240.275 70.4287 240.088 71.2074 240.088C71.9754 240.088 72.642 240.253 73.2074 240.584C73.7727 240.915 74.194 241.331 74.4714 241.832V240.232H75.9434V249H74.4714V247.368C74.1834 247.88 73.7514 248.307 73.1754 248.648C72.61 248.979 71.9487 249.144 71.1914 249.144C70.4127 249.144 69.7087 248.952 69.0794 248.568C68.45 248.184 67.954 247.645 67.5914 246.952C67.2287 246.259 67.0474 245.469 67.0474 244.584ZM74.4714 244.6C74.4714 243.939 74.338 243.363 74.0714 242.872C73.8047 242.381 73.442 242.008 72.9834 241.752C72.5354 241.485 72.0394 241.352 71.4954 241.352C70.9514 241.352 70.4554 241.48 70.0074 241.736C69.5594 241.992 69.202 242.365 68.9354 242.856C68.6687 243.347 68.5354 243.923 68.5354 244.584C68.5354 245.256 68.6687 245.843 68.9354 246.344C69.202 246.835 69.5594 247.213 70.0074 247.48C70.4554 247.736 70.9514 247.864 71.4954 247.864C72.0394 247.864 72.5354 247.736 72.9834 247.48C73.442 247.213 73.8047 246.835 74.0714 246.344C74.338 245.843 74.4714 245.261 74.4714 244.6ZM79.8599 241.656C80.1159 241.155 80.4785 240.765 80.9479 240.488C81.4279 240.211 82.0092 240.072 82.6919 240.072V241.576H82.3079C80.6759 241.576 79.8599 242.461 79.8599 244.232V249H78.4039V240.232H79.8599V241.656ZM92.3726 244.28C92.3726 244.557 92.3566 244.851 92.3246 245.16H85.3166C85.37 246.024 85.6633 246.701 86.1966 247.192C86.7406 247.672 87.3966 247.912 88.1646 247.912C88.794 247.912 89.3166 247.768 89.7326 247.48C90.1593 247.181 90.458 246.787 90.6286 246.296H92.1966C91.962 247.139 91.4926 247.827 90.7886 248.36C90.0846 248.883 89.21 249.144 88.1646 249.144C87.3326 249.144 86.586 248.957 85.9246 248.584C85.274 248.211 84.762 247.683 84.3886 247C84.0153 246.307 83.8286 245.507 83.8286 244.6C83.8286 243.693 84.01 242.899 84.3726 242.216C84.7353 241.533 85.242 241.011 85.8926 240.648C86.554 240.275 87.3113 240.088 88.1646 240.088C88.9966 240.088 89.7326 240.269 90.3726 240.632C91.0126 240.995 91.5033 241.496 91.8446 242.136C92.1966 242.765 92.3726 243.48 92.3726 244.28ZM90.8686 243.976C90.8686 243.421 90.746 242.947 90.5006 242.552C90.2553 242.147 89.9193 241.843 89.4926 241.64C89.0766 241.427 88.6126 241.32 88.1006 241.32C87.3646 241.32 86.7353 241.555 86.2126 242.024C85.7006 242.493 85.4073 243.144 85.3326 243.976H90.8686ZM98.6465 240.072C99.3078 240.072 99.9052 240.216 100.439 240.504C100.972 240.781 101.388 241.203 101.687 241.768C101.996 242.333 102.151 243.021 102.151 243.832V249H100.711V244.04C100.711 243.165 100.492 242.499 100.055 242.04C99.6172 241.571 99.0198 241.336 98.2625 241.336C97.4945 241.336 96.8812 241.576 96.4225 242.056C95.9745 242.536 95.7505 243.235 95.7505 244.152V249H94.2945V237.16H95.7505V241.48C96.0385 241.032 96.4332 240.685 96.9345 240.44C97.4465 240.195 98.0172 240.072 98.6465 240.072ZM108.353 249.144C107.532 249.144 106.785 248.957 106.113 248.584C105.452 248.211 104.929 247.683 104.545 247C104.172 246.307 103.985 245.507 103.985 244.6C103.985 243.704 104.177 242.915 104.561 242.232C104.956 241.539 105.489 241.011 106.161 240.648C106.833 240.275 107.585 240.088 108.417 240.088C109.249 240.088 110.001 240.275 110.673 240.648C111.345 241.011 111.873 241.533 112.257 242.216C112.652 242.899 112.849 243.693 112.849 244.6C112.849 245.507 112.646 246.307 112.241 247C111.846 247.683 111.308 248.211 110.625 248.584C109.942 248.957 109.185 249.144 108.353 249.144ZM108.353 247.864C108.876 247.864 109.366 247.741 109.825 247.496C110.284 247.251 110.652 246.883 110.929 246.392C111.217 245.901 111.361 245.304 111.361 244.6C111.361 243.896 111.222 243.299 110.945 242.808C110.668 242.317 110.305 241.955 109.857 241.72C109.409 241.475 108.924 241.352 108.401 241.352C107.868 241.352 107.377 241.475 106.929 241.72C106.492 241.955 106.14 242.317 105.873 242.808C105.606 243.299 105.473 243.896 105.473 244.6C105.473 245.315 105.601 245.917 105.857 246.408C106.124 246.899 106.476 247.267 106.913 247.512C107.35 247.747 107.83 247.864 108.353 247.864ZM122.539 240.232V249H121.083V247.704C120.806 248.152 120.417 248.504 119.915 248.76C119.425 249.005 118.881 249.128 118.283 249.128C117.601 249.128 116.987 248.989 116.443 248.712C115.899 248.424 115.467 247.997 115.147 247.432C114.838 246.867 114.683 246.179 114.683 245.368V240.232H116.123V245.176C116.123 246.04 116.342 246.707 116.779 247.176C117.217 247.635 117.814 247.864 118.571 247.864C119.35 247.864 119.963 247.624 120.411 247.144C120.859 246.664 121.083 245.965 121.083 245.048V240.232H122.539ZM128.102 249.144C127.43 249.144 126.827 249.032 126.294 248.808C125.76 248.573 125.339 248.253 125.03 247.848C124.72 247.432 124.55 246.957 124.518 246.424H126.022C126.064 246.861 126.267 247.219 126.63 247.496C127.003 247.773 127.488 247.912 128.086 247.912C128.64 247.912 129.078 247.789 129.398 247.544C129.718 247.299 129.878 246.989 129.878 246.616C129.878 246.232 129.707 245.949 129.366 245.768C129.024 245.576 128.496 245.389 127.782 245.208C127.131 245.037 126.598 244.867 126.182 244.696C125.776 244.515 125.424 244.253 125.126 243.912C124.838 243.56 124.694 243.101 124.694 242.536C124.694 242.088 124.827 241.677 125.094 241.304C125.36 240.931 125.739 240.637 126.23 240.424C126.72 240.2 127.28 240.088 127.91 240.088C128.88 240.088 129.664 240.333 130.262 240.824C130.859 241.315 131.179 241.987 131.222 242.84H129.766C129.734 242.381 129.547 242.013 129.206 241.736C128.875 241.459 128.427 241.32 127.862 241.32C127.339 241.32 126.923 241.432 126.614 241.656C126.304 241.88 126.15 242.173 126.15 242.536C126.15 242.824 126.24 243.064 126.422 243.256C126.614 243.437 126.848 243.587 127.126 243.704C127.414 243.811 127.808 243.933 128.31 244.072C128.939 244.243 129.451 244.413 129.846 244.584C130.24 244.744 130.576 244.989 130.854 245.32C131.142 245.651 131.291 246.083 131.302 246.616C131.302 247.096 131.168 247.528 130.902 247.912C130.635 248.296 130.256 248.6 129.766 248.824C129.286 249.037 128.731 249.144 128.102 249.144ZM141.357 244.28C141.357 244.557 141.341 244.851 141.309 245.16H134.301C134.354 246.024 134.648 246.701 135.181 247.192C135.725 247.672 136.381 247.912 137.149 247.912C137.778 247.912 138.301 247.768 138.717 247.48C139.144 247.181 139.442 246.787 139.613 246.296H141.181C140.946 247.139 140.477 247.827 139.773 248.36C139.069 248.883 138.194 249.144 137.149 249.144C136.317 249.144 135.57 248.957 134.909 248.584C134.258 248.211 133.746 247.683 133.373 247C133 246.307 132.813 245.507 132.813 244.6C132.813 243.693 132.994 242.899 133.357 242.216C133.72 241.533 134.226 241.011 134.877 240.648C135.538 240.275 136.296 240.088 137.149 240.088C137.981 240.088 138.717 240.269 139.357 240.632C139.997 240.995 140.488 241.496 140.829 242.136C141.181 242.765 141.357 243.48 141.357 244.28ZM139.853 243.976C139.853 243.421 139.73 242.947 139.485 242.552C139.24 242.147 138.904 241.843 138.477 241.64C138.061 241.427 137.597 241.32 137.085 241.32C136.349 241.32 135.72 241.555 135.197 242.024C134.685 242.493 134.392 243.144 134.317 243.976H139.853ZM144.783 246.984L142.991 251.288H142.015L143.183 246.984H144.783ZM152.172 241.848C152.46 241.347 152.887 240.931 153.452 240.6C154.028 240.259 154.695 240.088 155.452 240.088C156.231 240.088 156.935 240.275 157.564 240.648C158.204 241.021 158.706 241.549 159.068 242.232C159.431 242.904 159.612 243.688 159.612 244.584C159.612 245.469 159.431 246.259 159.068 246.952C158.706 247.645 158.204 248.184 157.564 248.568C156.935 248.952 156.231 249.144 155.452 249.144C154.706 249.144 154.044 248.979 153.468 248.648C152.903 248.307 152.471 247.885 152.172 247.384V253.16H150.716V240.232H152.172V241.848ZM158.124 244.584C158.124 243.923 157.991 243.347 157.724 242.856C157.458 242.365 157.095 241.992 156.636 241.736C156.188 241.48 155.692 241.352 155.148 241.352C154.615 241.352 154.119 241.485 153.66 241.752C153.212 242.008 152.85 242.387 152.572 242.888C152.306 243.379 152.172 243.949 152.172 244.6C152.172 245.261 152.306 245.843 152.572 246.344C152.85 246.835 153.212 247.213 153.66 247.48C154.119 247.736 154.615 247.864 155.148 247.864C155.692 247.864 156.188 247.736 156.636 247.48C157.095 247.213 157.458 246.835 157.724 246.344C157.991 245.843 158.124 245.256 158.124 244.584ZM162.985 237.16V249H161.529V237.16H162.985ZM173.466 244.28C173.466 244.557 173.45 244.851 173.418 245.16H166.41C166.464 246.024 166.757 246.701 167.29 247.192C167.834 247.672 168.49 247.912 169.258 247.912C169.888 247.912 170.41 247.768 170.826 247.48C171.253 247.181 171.552 246.787 171.722 246.296H173.29C173.056 247.139 172.586 247.827 171.882 248.36C171.178 248.883 170.304 249.144 169.258 249.144C168.426 249.144 167.68 248.957 167.018 248.584C166.368 248.211 165.856 247.683 165.482 247C165.109 246.307 164.922 245.507 164.922 244.6C164.922 243.693 165.104 242.899 165.466 242.216C165.829 241.533 166.336 241.011 166.986 240.648C167.648 240.275 168.405 240.088 169.258 240.088C170.09 240.088 170.826 240.269 171.466 240.632C172.106 240.995 172.597 241.496 172.938 242.136C173.29 242.765 173.466 243.48 173.466 244.28ZM171.962 243.976C171.962 243.421 171.84 242.947 171.594 242.552C171.349 242.147 171.013 241.843 170.586 241.64C170.17 241.427 169.706 241.32 169.194 241.32C168.458 241.32 167.829 241.555 167.306 242.024C166.794 242.493 166.501 243.144 166.426 243.976H171.962ZM174.844 244.584C174.844 243.688 175.026 242.904 175.388 242.232C175.751 241.549 176.247 241.021 176.876 240.648C177.516 240.275 178.226 240.088 179.004 240.088C179.772 240.088 180.439 240.253 181.004 240.584C181.57 240.915 181.991 241.331 182.268 241.832V240.232H183.74V249H182.268V247.368C181.98 247.88 181.548 248.307 180.972 248.648C180.407 248.979 179.746 249.144 178.988 249.144C178.21 249.144 177.506 248.952 176.876 248.568C176.247 248.184 175.751 247.645 175.388 246.952C175.026 246.259 174.844 245.469 174.844 244.584ZM182.268 244.6C182.268 243.939 182.135 243.363 181.868 242.872C181.602 242.381 181.239 242.008 180.78 241.752C180.332 241.485 179.836 241.352 179.292 241.352C178.748 241.352 178.252 241.48 177.804 241.736C177.356 241.992 176.999 242.365 176.732 242.856C176.466 243.347 176.332 243.923 176.332 244.584C176.332 245.256 176.466 245.843 176.732 246.344C176.999 246.835 177.356 247.213 177.804 247.48C178.252 247.736 178.748 247.864 179.292 247.864C179.836 247.864 180.332 247.736 180.78 247.48C181.239 247.213 181.602 246.835 181.868 246.344C182.135 245.843 182.268 245.261 182.268 244.6ZM189.305 249.144C188.633 249.144 188.03 249.032 187.497 248.808C186.963 248.573 186.542 248.253 186.233 247.848C185.923 247.432 185.753 246.957 185.721 246.424H187.225C187.267 246.861 187.47 247.219 187.833 247.496C188.206 247.773 188.691 247.912 189.289 247.912C189.843 247.912 190.281 247.789 190.601 247.544C190.921 247.299 191.081 246.989 191.081 246.616C191.081 246.232 190.91 245.949 190.569 245.768C190.227 245.576 189.699 245.389 188.985 245.208C188.334 245.037 187.801 244.867 187.385 244.696C186.979 244.515 186.627 244.253 186.329 243.912C186.041 243.56 185.897 243.101 185.897 242.536C185.897 242.088 186.03 241.677 186.297 241.304C186.563 240.931 186.942 240.637 187.433 240.424C187.923 240.2 188.483 240.088 189.113 240.088C190.083 240.088 190.867 240.333 191.465 240.824C192.062 241.315 192.382 241.987 192.425 242.84H190.969C190.937 242.381 190.75 242.013 190.409 241.736C190.078 241.459 189.63 241.32 189.065 241.32C188.542 241.32 188.126 241.432 187.817 241.656C187.507 241.88 187.353 242.173 187.353 242.536C187.353 242.824 187.443 243.064 187.625 243.256C187.817 243.437 188.051 243.587 188.329 243.704C188.617 243.811 189.011 243.933 189.513 244.072C190.142 244.243 190.654 244.413 191.049 244.584C191.443 244.744 191.779 244.989 192.057 245.32C192.345 245.651 192.494 246.083 192.505 246.616C192.505 247.096 192.371 247.528 192.105 247.912C191.838 248.296 191.459 248.6 190.969 248.824C190.489 249.037 189.934 249.144 189.305 249.144ZM202.56 244.28C202.56 244.557 202.544 244.851 202.512 245.16H195.504C195.557 246.024 195.851 246.701 196.384 247.192C196.928 247.672 197.584 247.912 198.352 247.912C198.981 247.912 199.504 247.768 199.92 247.48C200.347 247.181 200.645 246.787 200.816 246.296H202.384C202.149 247.139 201.68 247.827 200.976 248.36C200.272 248.883 199.397 249.144 198.352 249.144C197.52 249.144 196.773 248.957 196.112 248.584C195.461 248.211 194.949 247.683 194.576 247C194.203 246.307 194.016 245.507 194.016 244.6C194.016 243.693 194.197 242.899 194.56 242.216C194.923 241.533 195.429 241.011 196.08 240.648C196.741 240.275 197.499 240.088 198.352 240.088C199.184 240.088 199.92 240.269 200.56 240.632C201.2 240.995 201.691 241.496 202.032 242.136C202.384 242.765 202.56 243.48 202.56 244.28ZM201.056 243.976C201.056 243.421 200.933 242.947 200.688 242.552C200.443 242.147 200.107 241.843 199.68 241.64C199.264 241.427 198.8 241.32 198.288 241.32C197.552 241.32 196.923 241.555 196.4 242.024C195.888 242.493 195.595 243.144 195.52 243.976H201.056ZM69.3599 268.584C69.3599 267.688 69.5412 266.904 69.9039 266.232C70.2665 265.549 70.7625 265.021 71.3919 264.648C72.0319 264.275 72.7412 264.088 73.5199 264.088C74.2879 264.088 74.9545 264.253 75.5199 264.584C76.0852 264.915 76.5065 265.331 76.7839 265.832V264.232H78.2559V273H76.7839V271.368C76.4959 271.88 76.0639 272.307 75.4879 272.648C74.9225 272.979 74.2612 273.144 73.5039 273.144C72.7252 273.144 72.0212 272.952 71.3919 272.568C70.7625 272.184 70.2665 271.645 69.9039 270.952C69.5412 270.259 69.3599 269.469 69.3599 268.584ZM76.7839 268.6C76.7839 267.939 76.6505 267.363 76.3839 266.872C76.1172 266.381 75.7545 266.008 75.2959 265.752C74.8479 265.485 74.3519 265.352 73.8079 265.352C73.2639 265.352 72.7679 265.48 72.3199 265.736C71.8719 265.992 71.5145 266.365 71.2479 266.856C70.9812 267.347 70.8479 267.923 70.8479 268.584C70.8479 269.256 70.9812 269.843 71.2479 270.344C71.5145 270.835 71.8719 271.213 72.3199 271.48C72.7679 271.736 73.2639 271.864 73.8079 271.864C74.3519 271.864 74.8479 271.736 75.2959 271.48C75.7545 271.213 76.1172 270.835 76.3839 270.344C76.6505 269.843 76.7839 269.261 76.7839 268.6ZM80.1724 268.584C80.1724 267.688 80.3537 266.904 80.7164 266.232C81.079 265.549 81.575 265.021 82.2044 264.648C82.8444 264.275 83.559 264.088 84.3484 264.088C85.031 264.088 85.6657 264.248 86.2524 264.568C86.839 264.877 87.287 265.288 87.5964 265.8V261.16H89.0684V273H87.5964V271.352C87.3084 271.875 86.8817 272.307 86.3164 272.648C85.751 272.979 85.0897 273.144 84.3324 273.144C83.5537 273.144 82.8444 272.952 82.2044 272.568C81.575 272.184 81.079 271.645 80.7164 270.952C80.3537 270.259 80.1724 269.469 80.1724 268.584ZM87.5964 268.6C87.5964 267.939 87.463 267.363 87.1964 266.872C86.9297 266.381 86.567 266.008 86.1084 265.752C85.6604 265.485 85.1644 265.352 84.6204 265.352C84.0764 265.352 83.5804 265.48 83.1324 265.736C82.6844 265.992 82.327 266.365 82.0604 266.856C81.7937 267.347 81.6604 267.923 81.6604 268.584C81.6604 269.256 81.7937 269.843 82.0604 270.344C82.327 270.835 82.6844 271.213 83.1324 271.48C83.5804 271.736 84.0764 271.864 84.6204 271.864C85.1644 271.864 85.6604 271.736 86.1084 271.48C86.567 271.213 86.9297 270.835 87.1964 270.344C87.463 269.843 87.5964 269.261 87.5964 268.6ZM90.9849 268.584C90.9849 267.688 91.1662 266.904 91.5289 266.232C91.8915 265.549 92.3875 265.021 93.0169 264.648C93.6569 264.275 94.3715 264.088 95.1609 264.088C95.8435 264.088 96.4782 264.248 97.0649 264.568C97.6515 264.877 98.0995 265.288 98.4089 265.8V261.16H99.8809V273H98.4089V271.352C98.1209 271.875 97.6942 272.307 97.1289 272.648C96.5635 272.979 95.9022 273.144 95.1449 273.144C94.3662 273.144 93.6569 272.952 93.0169 272.568C92.3875 272.184 91.8915 271.645 91.5289 270.952C91.1662 270.259 90.9849 269.469 90.9849 268.584ZM98.4089 268.6C98.4089 267.939 98.2755 267.363 98.0089 266.872C97.7422 266.381 97.3795 266.008 96.9209 265.752C96.4729 265.485 95.9769 265.352 95.4329 265.352C94.8889 265.352 94.3929 265.48 93.9449 265.736C93.4969 265.992 93.1395 266.365 92.8729 266.856C92.6062 267.347 92.4729 267.923 92.4729 268.584C92.4729 269.256 92.6062 269.843 92.8729 270.344C93.1395 270.835 93.4969 271.213 93.9449 271.48C94.3929 271.736 94.8889 271.864 95.4329 271.864C95.9769 271.864 96.4729 271.736 96.9209 271.48C97.3795 271.213 97.7422 270.835 98.0089 270.344C98.2755 269.843 98.4089 269.261 98.4089 268.6ZM106.063 267.416C106.063 266.328 106.308 265.352 106.799 264.488C107.29 263.613 107.956 262.931 108.799 262.44C109.652 261.949 110.596 261.704 111.631 261.704C112.847 261.704 113.908 261.997 114.815 262.584C115.722 263.171 116.383 264.003 116.799 265.08H115.055C114.746 264.408 114.298 263.891 113.711 263.528C113.135 263.165 112.442 262.984 111.631 262.984C110.852 262.984 110.154 263.165 109.535 263.528C108.916 263.891 108.431 264.408 108.079 265.08C107.727 265.741 107.551 266.52 107.551 267.416C107.551 268.301 107.727 269.08 108.079 269.752C108.431 270.413 108.916 270.925 109.535 271.288C110.154 271.651 110.852 271.832 111.631 271.832C112.442 271.832 113.135 271.656 113.711 271.304C114.298 270.941 114.746 270.424 115.055 269.752H116.799C116.383 270.819 115.722 271.645 114.815 272.232C113.908 272.808 112.847 273.096 111.631 273.096C110.596 273.096 109.652 272.856 108.799 272.376C107.956 271.885 107.29 271.208 106.799 270.344C106.308 269.48 106.063 268.504 106.063 267.416ZM122.79 273.144C121.969 273.144 121.222 272.957 120.55 272.584C119.889 272.211 119.366 271.683 118.982 271C118.609 270.307 118.422 269.507 118.422 268.6C118.422 267.704 118.614 266.915 118.998 266.232C119.393 265.539 119.926 265.011 120.598 264.648C121.27 264.275 122.022 264.088 122.854 264.088C123.686 264.088 124.438 264.275 125.11 264.648C125.782 265.011 126.31 265.533 126.694 266.216C127.089 266.899 127.286 267.693 127.286 268.6C127.286 269.507 127.084 270.307 126.678 271C126.284 271.683 125.745 272.211 125.062 272.584C124.38 272.957 123.622 273.144 122.79 273.144ZM122.79 271.864C123.313 271.864 123.804 271.741 124.262 271.496C124.721 271.251 125.089 270.883 125.366 270.392C125.654 269.901 125.798 269.304 125.798 268.6C125.798 267.896 125.66 267.299 125.382 266.808C125.105 266.317 124.742 265.955 124.294 265.72C123.846 265.475 123.361 265.352 122.838 265.352C122.305 265.352 121.814 265.475 121.366 265.72C120.929 265.955 120.577 266.317 120.31 266.808C120.044 267.299 119.91 267.896 119.91 268.6C119.91 269.315 120.038 269.917 120.294 270.408C120.561 270.899 120.913 271.267 121.35 271.512C121.788 271.747 122.268 271.864 122.79 271.864ZM139.745 264.072C140.427 264.072 141.035 264.216 141.569 264.504C142.102 264.781 142.523 265.203 142.833 265.768C143.142 266.333 143.297 267.021 143.297 267.832V273H141.857V268.04C141.857 267.165 141.638 266.499 141.201 266.04C140.774 265.571 140.193 265.336 139.457 265.336C138.699 265.336 138.097 265.581 137.649 266.072C137.201 266.552 136.977 267.251 136.977 268.168V273H135.537V268.04C135.537 267.165 135.318 266.499 134.881 266.04C134.454 265.571 133.873 265.336 133.137 265.336C132.379 265.336 131.777 265.581 131.329 266.072C130.881 266.552 130.657 267.251 130.657 268.168V273H129.201V264.232H130.657V265.496C130.945 265.037 131.329 264.685 131.809 264.44C132.299 264.195 132.838 264.072 133.425 264.072C134.161 264.072 134.811 264.237 135.377 264.568C135.942 264.899 136.363 265.384 136.641 266.024C136.886 265.405 137.291 264.925 137.857 264.584C138.422 264.243 139.051 264.072 139.745 264.072ZM147.141 265.848C147.429 265.347 147.856 264.931 148.421 264.6C148.997 264.259 149.664 264.088 150.421 264.088C151.2 264.088 151.904 264.275 152.533 264.648C153.173 265.021 153.674 265.549 154.037 266.232C154.4 266.904 154.581 267.688 154.581 268.584C154.581 269.469 154.4 270.259 154.037 270.952C153.674 271.645 153.173 272.184 152.533 272.568C151.904 272.952 151.2 273.144 150.421 273.144C149.674 273.144 149.013 272.979 148.437 272.648C147.872 272.307 147.44 271.885 147.141 271.384V277.16H145.685V264.232H147.141V265.848ZM153.093 268.584C153.093 267.923 152.96 267.347 152.693 266.856C152.426 266.365 152.064 265.992 151.605 265.736C151.157 265.48 150.661 265.352 150.117 265.352C149.584 265.352 149.088 265.485 148.629 265.752C148.181 266.008 147.818 266.387 147.541 266.888C147.274 267.379 147.141 267.949 147.141 268.6C147.141 269.261 147.274 269.843 147.541 270.344C147.818 270.835 148.181 271.213 148.629 271.48C149.088 271.736 149.584 271.864 150.117 271.864C150.661 271.864 151.157 271.736 151.605 271.48C152.064 271.213 152.426 270.835 152.693 270.344C152.96 269.843 153.093 269.256 153.093 268.584ZM155.954 268.584C155.954 267.688 156.135 266.904 156.498 266.232C156.86 265.549 157.356 265.021 157.986 264.648C158.626 264.275 159.335 264.088 160.114 264.088C160.882 264.088 161.548 264.253 162.114 264.584C162.679 264.915 163.1 265.331 163.378 265.832V264.232H164.85V273H163.378V271.368C163.09 271.88 162.658 272.307 162.082 272.648C161.516 272.979 160.855 273.144 160.098 273.144C159.319 273.144 158.615 272.952 157.986 272.568C157.356 272.184 156.86 271.645 156.498 270.952C156.135 270.259 155.954 269.469 155.954 268.584ZM163.378 268.6C163.378 267.939 163.244 267.363 162.978 266.872C162.711 266.381 162.348 266.008 161.89 265.752C161.442 265.485 160.946 265.352 160.402 265.352C159.858 265.352 159.362 265.48 158.914 265.736C158.466 265.992 158.108 266.365 157.842 266.856C157.575 267.347 157.442 267.923 157.442 268.584C157.442 269.256 157.575 269.843 157.842 270.344C158.108 270.835 158.466 271.213 158.914 271.48C159.362 271.736 159.858 271.864 160.402 271.864C160.946 271.864 161.442 271.736 161.89 271.48C162.348 271.213 162.711 270.835 162.978 270.344C163.244 269.843 163.378 269.261 163.378 268.6ZM171.582 264.072C172.649 264.072 173.513 264.397 174.174 265.048C174.835 265.688 175.166 266.616 175.166 267.832V273H173.726V268.04C173.726 267.165 173.507 266.499 173.07 266.04C172.633 265.571 172.035 265.336 171.278 265.336C170.51 265.336 169.897 265.576 169.438 266.056C168.99 266.536 168.766 267.235 168.766 268.152V273H167.31V264.232H168.766V265.48C169.054 265.032 169.443 264.685 169.934 264.44C170.435 264.195 170.985 264.072 171.582 264.072ZM185.097 264.232L179.817 277.128H178.312L180.041 272.904L176.505 264.232H178.121L180.873 271.336L183.593 264.232H185.097ZM96.5996 286.848L93.3676 298H91.7356L89.1436 289.024L86.4556 298L84.8396 298.016L81.7196 286.848H83.2716L85.7036 296.304L88.3916 286.848H90.0236L92.5836 296.272L95.0316 286.848H96.5996ZM97.6489 293.584C97.6489 292.688 97.8303 291.904 98.1929 291.232C98.5556 290.549 99.0516 290.021 99.6809 289.648C100.321 289.275 101.03 289.088 101.809 289.088C102.577 289.088 103.244 289.253 103.809 289.584C104.374 289.915 104.796 290.331 105.073 290.832V289.232H106.545V298H105.073V296.368C104.785 296.88 104.353 297.307 103.777 297.648C103.212 297.979 102.55 298.144 101.793 298.144C101.014 298.144 100.31 297.952 99.6809 297.568C99.0516 297.184 98.5556 296.645 98.1929 295.952C97.8303 295.259 97.6489 294.469 97.6489 293.584ZM105.073 293.6C105.073 292.939 104.94 292.363 104.673 291.872C104.406 291.381 104.044 291.008 103.585 290.752C103.137 290.485 102.641 290.352 102.097 290.352C101.553 290.352 101.057 290.48 100.609 290.736C100.161 290.992 99.8036 291.365 99.5369 291.856C99.2703 292.347 99.1369 292.923 99.1369 293.584C99.1369 294.256 99.2703 294.843 99.5369 295.344C99.8036 295.835 100.161 296.213 100.609 296.48C101.057 296.736 101.553 296.864 102.097 296.864C102.641 296.864 103.137 296.736 103.585 296.48C104.044 296.213 104.406 295.835 104.673 295.344C104.94 294.843 105.073 294.261 105.073 293.6ZM110.461 290.656C110.717 290.155 111.08 289.765 111.549 289.488C112.029 289.211 112.611 289.072 113.293 289.072V290.576H112.909C111.277 290.576 110.461 291.461 110.461 293.232V298H109.005V289.232H110.461V290.656ZM122.974 293.28C122.974 293.557 122.958 293.851 122.926 294.16H115.918C115.972 295.024 116.265 295.701 116.798 296.192C117.342 296.672 117.998 296.912 118.766 296.912C119.396 296.912 119.918 296.768 120.334 296.48C120.761 296.181 121.06 295.787 121.23 295.296H122.798C122.564 296.139 122.094 296.827 121.39 297.36C120.686 297.883 119.812 298.144 118.766 298.144C117.934 298.144 117.188 297.957 116.526 297.584C115.876 297.211 115.364 296.683 114.99 296C114.617 295.307 114.43 294.507 114.43 293.6C114.43 292.693 114.612 291.899 114.974 291.216C115.337 290.533 115.844 290.011 116.494 289.648C117.156 289.275 117.913 289.088 118.766 289.088C119.598 289.088 120.334 289.269 120.974 289.632C121.614 289.995 122.105 290.496 122.446 291.136C122.798 291.765 122.974 292.48 122.974 293.28ZM121.47 292.976C121.47 292.421 121.348 291.947 121.102 291.552C120.857 291.147 120.521 290.843 120.094 290.64C119.678 290.427 119.214 290.32 118.702 290.32C117.966 290.32 117.337 290.555 116.814 291.024C116.302 291.493 116.009 292.144 115.934 292.976H121.47ZM129.248 289.072C129.909 289.072 130.507 289.216 131.04 289.504C131.573 289.781 131.989 290.203 132.288 290.768C132.597 291.333 132.752 292.021 132.752 292.832V298H131.312V293.04C131.312 292.165 131.093 291.499 130.656 291.04C130.219 290.571 129.621 290.336 128.864 290.336C128.096 290.336 127.483 290.576 127.024 291.056C126.576 291.536 126.352 292.235 126.352 293.152V298H124.896V286.16H126.352V290.48C126.64 290.032 127.035 289.685 127.536 289.44C128.048 289.195 128.619 289.072 129.248 289.072ZM138.954 298.144C138.133 298.144 137.386 297.957 136.714 297.584C136.053 297.211 135.53 296.683 135.146 296C134.773 295.307 134.586 294.507 134.586 293.6C134.586 292.704 134.778 291.915 135.162 291.232C135.557 290.539 136.09 290.011 136.762 289.648C137.434 289.275 138.186 289.088 139.018 289.088C139.85 289.088 140.602 289.275 141.274 289.648C141.946 290.011 142.474 290.533 142.858 291.216C143.253 291.899 143.45 292.693 143.45 293.6C143.45 294.507 143.248 295.307 142.842 296C142.448 296.683 141.909 297.211 141.226 297.584C140.544 297.957 139.786 298.144 138.954 298.144ZM138.954 296.864C139.477 296.864 139.968 296.741 140.426 296.496C140.885 296.251 141.253 295.883 141.53 295.392C141.818 294.901 141.962 294.304 141.962 293.6C141.962 292.896 141.824 292.299 141.546 291.808C141.269 291.317 140.906 290.955 140.458 290.72C140.01 290.475 139.525 290.352 139.002 290.352C138.469 290.352 137.978 290.475 137.53 290.72C137.093 290.955 136.741 291.317 136.474 291.808C136.208 292.299 136.074 292.896 136.074 293.6C136.074 294.315 136.202 294.917 136.458 295.408C136.725 295.899 137.077 296.267 137.514 296.512C137.952 296.747 138.432 296.864 138.954 296.864ZM153.141 289.232V298H151.685V296.704C151.407 297.152 151.018 297.504 150.517 297.76C150.026 298.005 149.482 298.128 148.885 298.128C148.202 298.128 147.589 297.989 147.045 297.712C146.501 297.424 146.069 296.997 145.749 296.432C145.439 295.867 145.285 295.179 145.285 294.368V289.232H146.725V294.176C146.725 295.04 146.943 295.707 147.381 296.176C147.818 296.635 148.415 296.864 149.173 296.864C149.951 296.864 150.565 296.624 151.013 296.144C151.461 295.664 151.685 294.965 151.685 294.048V289.232H153.141ZM158.703 298.144C158.031 298.144 157.429 298.032 156.895 297.808C156.362 297.573 155.941 297.253 155.631 296.848C155.322 296.432 155.151 295.957 155.119 295.424H156.623C156.666 295.861 156.869 296.219 157.231 296.496C157.605 296.773 158.09 296.912 158.687 296.912C159.242 296.912 159.679 296.789 159.999 296.544C160.319 296.299 160.479 295.989 160.479 295.616C160.479 295.232 160.309 294.949 159.967 294.768C159.626 294.576 159.098 294.389 158.383 294.208C157.733 294.037 157.199 293.867 156.783 293.696C156.378 293.515 156.026 293.253 155.727 292.912C155.439 292.56 155.295 292.101 155.295 291.536C155.295 291.088 155.429 290.677 155.695 290.304C155.962 289.931 156.341 289.637 156.831 289.424C157.322 289.2 157.882 289.088 158.511 289.088C159.482 289.088 160.266 289.333 160.863 289.824C161.461 290.315 161.781 290.987 161.823 291.84H160.367C160.335 291.381 160.149 291.013 159.807 290.736C159.477 290.459 159.029 290.32 158.463 290.32C157.941 290.32 157.525 290.432 157.215 290.656C156.906 290.88 156.751 291.173 156.751 291.536C156.751 291.824 156.842 292.064 157.023 292.256C157.215 292.437 157.45 292.587 157.727 292.704C158.015 292.811 158.41 292.933 158.911 293.072C159.541 293.243 160.053 293.413 160.447 293.584C160.842 293.744 161.178 293.989 161.455 294.32C161.743 294.651 161.893 295.083 161.903 295.616C161.903 296.096 161.77 296.528 161.503 296.912C161.237 297.296 160.858 297.6 160.367 297.824C159.887 298.037 159.333 298.144 158.703 298.144ZM171.959 293.28C171.959 293.557 171.943 293.851 171.911 294.16H164.903C164.956 295.024 165.249 295.701 165.783 296.192C166.327 296.672 166.983 296.912 167.751 296.912C168.38 296.912 168.903 296.768 169.319 296.48C169.745 296.181 170.044 295.787 170.215 295.296H171.783C171.548 296.139 171.079 296.827 170.375 297.36C169.671 297.883 168.796 298.144 167.751 298.144C166.919 298.144 166.172 297.957 165.511 297.584C164.86 297.211 164.348 296.683 163.975 296C163.601 295.307 163.415 294.507 163.415 293.6C163.415 292.693 163.596 291.899 163.959 291.216C164.321 290.533 164.828 290.011 165.479 289.648C166.14 289.275 166.897 289.088 167.751 289.088C168.583 289.088 169.319 289.269 169.959 289.632C170.599 289.995 171.089 290.496 171.431 291.136C171.783 291.765 171.959 292.48 171.959 293.28ZM170.455 292.976C170.455 292.421 170.332 291.947 170.087 291.552C169.841 291.147 169.505 290.843 169.079 290.64C168.663 290.427 168.199 290.32 167.687 290.32C166.951 290.32 166.321 290.555 165.799 291.024C165.287 291.493 164.993 292.144 164.919 292.976H170.455Z" fill="black"/>
<path d="M113.926 156H76.0742V117.676H113.926V156ZM79.2285 152.807H110.772V120.87H79.2285V152.807Z" fill="white"/>
<path d="M102.886 130.355L95.7886 127.544L88.6914 130.355V117.676H102.886V130.355ZM95.7886 124.063L99.7315 125.66V120.87H91.8457V125.66L95.7886 124.063Z" fill="white"/>
<path d="M95 151.209H80.8057V141.628H95V151.209ZM83.96 148.015H91.8457V144.822H83.96V148.015Z" fill="white"/>
<path d="M101.309 148.016H98.1543V151.209H101.309V148.016Z" fill="white"/>
<path d="M107.617 148.016H104.463V151.209H107.617V148.016Z" fill="white"/>
<path d="M121.812 156H68.1885V109.691H71.3428V152.807H118.657V109.691H121.812V156Z" fill="white"/>
<path d="M130.549 117.452L95 98.6089L59.451 117.452L58 114.625L95 95L132 114.625L130.549 117.452Z" fill="white"/>
<path d="M186.422 110.35H158.578V82.5752H186.422V110.35ZM161.109 107.825H183.891V85.1002H161.109V107.825Z" fill="white"/>
<path d="M177.562 92.0439L172.5 89.9356L167.438 92.0439V82.5752H177.562V92.0439ZM172.5 87.2086L175.031 88.2564V85.1002H169.969V88.2564L172.5 87.2086Z" fill="white"/>
<path d="M172.5 106.562H162.375V98.9873H172.5V106.562ZM164.906 104.037H169.969V101.512H164.906V104.037Z" fill="white"/>
<path d="M177.562 104.037H175.031V106.562H177.562V104.037Z" fill="white"/>
<path d="M181.359 104.037H178.828V106.562H181.359V104.037Z" fill="white"/>
<path d="M186.422 135.6H158.578V107.825H186.422V135.6ZM161.109 133.075H183.891V110.35H161.109V133.075Z" fill="white"/>
<path d="M177.562 117.294L172.5 115.186L167.438 117.294V107.825H177.562V117.294ZM172.5 112.459L175.031 113.506V110.35H169.969V113.506L172.5 112.459Z" fill="white"/>
<path d="M172.5 131.812H162.375V124.237H172.5V131.812ZM164.906 129.287H169.969V126.762H164.906V129.287Z" fill="white"/>
<path d="M177.562 129.287H175.031V131.812H177.562V129.287Z" fill="white"/>
<path d="M181.359 129.287H178.828V131.812H181.359V129.287Z" fill="white"/>
<path d="M154.781 135.6H147.188V83.8379H154.781V135.6ZM149.719 133.075H152.25V86.3629H149.719V133.075Z" fill="white"/>
<path d="M200.344 140.65H144.656V133.075H200.344V140.65ZM147.188 138.125H197.812V135.6H147.188V138.125Z" fill="white"/>
<path d="M157.945 149.488C156.819 149.488 155.718 149.154 154.781 148.53C153.845 147.906 153.115 147.018 152.684 145.98C152.252 144.942 152.14 143.8 152.359 142.698C152.579 141.596 153.122 140.584 153.918 139.789C154.715 138.994 155.729 138.453 156.834 138.234C157.939 138.015 159.084 138.127 160.125 138.557C161.165 138.987 162.055 139.716 162.681 140.65C163.307 141.584 163.641 142.683 163.641 143.806C163.637 145.312 163.036 146.755 161.969 147.82C160.901 148.885 159.455 149.484 157.945 149.488ZM157.945 140.65C157.32 140.65 156.708 140.835 156.187 141.182C155.667 141.529 155.262 142.022 155.022 142.598C154.783 143.175 154.72 143.81 154.842 144.422C154.964 145.034 155.265 145.597 155.708 146.038C156.15 146.479 156.714 146.78 157.328 146.902C157.942 147.024 158.578 146.961 159.156 146.722C159.734 146.483 160.228 146.079 160.576 145.56C160.924 145.041 161.109 144.43 161.109 143.806C161.109 142.969 160.776 142.166 160.183 141.574C159.589 140.983 158.784 140.65 157.945 140.65Z" fill="white"/>
<path d="M187.055 149.488C185.928 149.488 184.827 149.154 183.891 148.53C182.954 147.906 182.224 147.018 181.793 145.98C181.362 144.942 181.249 143.8 181.469 142.698C181.689 141.596 182.231 140.584 183.027 139.789C183.824 138.994 184.839 138.453 185.944 138.234C187.048 138.015 188.194 138.127 189.234 138.557C190.275 138.987 191.164 139.716 191.79 140.65C192.416 141.584 192.75 142.683 192.75 143.806C192.747 145.312 192.146 146.755 191.078 147.82C190.011 148.885 188.564 149.484 187.055 149.488ZM187.055 140.65C186.429 140.65 185.817 140.835 185.297 141.182C184.777 141.529 184.371 142.022 184.131 142.598C183.892 143.175 183.829 143.81 183.951 144.422C184.074 145.034 184.375 145.597 184.817 146.038C185.26 146.479 185.824 146.78 186.437 146.902C187.051 147.024 187.687 146.961 188.266 146.722C188.844 146.483 189.338 146.079 189.686 145.56C190.033 145.041 190.219 144.43 190.219 143.806C190.219 142.969 189.885 142.166 189.292 141.574C188.699 140.983 187.894 140.65 187.055 140.65Z" fill="white"/>
</svg>
