<svg width="258" height="313" viewBox="0 0 258 313" fill="none" xmlns="http://www.w3.org/2000/svg">
<path d="M109.631 61.5757C123.111 51.7376 137.807 33.7182 153.001 31.0984C168.228 28.7947 183.81 42.0579 196.104 57.418C208.365 72.4619 217.37 89.9191 218.701 107.18C220.031 124.44 214.004 141.486 204.375 154.602C194.922 167.868 182.009 177.037 168.836 188.289C155.522 199.709 141.947 213.21 125.301 217.186C108.512 221.328 88.7947 215.777 75.2802 203.986C61.4486 192.213 53.7869 173.884 48.3019 156.543C42.8169 139.203 39.8256 122.833 43.9984 109.392C48.1712 95.952 59.8251 85.4233 71.7679 79.1724C83.7437 73.2377 96.0085 71.5809 109.631 61.5757Z" fill="#F66464"/>
<path d="M72.888 169.9L72.9006 169.789L74.2291 158.092C74.2292 158.091 74.2292 158.09 74.2293 158.09C74.2536 157.756 74.3866 157.518 74.5798 157.371C74.7712 157.225 75.0112 157.177 75.2366 157.202C75.4615 157.226 75.6807 157.323 75.8333 157.481C75.9874 157.64 76.072 157.859 76.0224 158.114L74.8839 168.104H85.7456V146.971C84.562 147.29 82.4191 147.874 80.5139 148.684C79.5262 149.103 78.6076 149.581 77.9211 150.111C77.2319 150.643 76.7939 151.214 76.7317 151.815L76.3776 155.27C76.3775 155.27 76.3775 155.271 76.3775 155.271C76.353 155.585 76.2189 155.821 76.0281 155.975C75.8386 156.129 75.5987 156.199 75.3672 156.193C75.1359 156.187 74.9061 156.105 74.7388 155.945C74.5692 155.784 74.4704 155.549 74.495 155.254L74.4953 155.25L74.4954 155.25L74.9382 151.617C74.9382 151.617 74.9382 151.616 74.9382 151.616C75.0991 150.125 76.3675 148.879 78.1997 147.841C80.0378 146.8 82.4724 145.953 85.0225 145.27C90.1239 143.906 95.7111 143.196 97.9709 142.93L98.0406 142.921L98.072 142.984L98.1462 143.133L100.341 137.219C97.8891 135.613 96.2227 132.973 95.7664 129.984C94.6899 129.593 94.0064 128.463 93.5802 127.216C93.1545 125.971 92.9747 124.579 92.9249 123.601C89.9967 122.647 90.3508 118.372 93.4577 117.942C93.7615 112.728 97.6419 108.494 102.578 107.14V106.95C102.578 105.831 103.508 104.9 104.627 104.9H107.373C108.492 104.9 109.422 105.831 109.422 106.95V107.14C114.358 108.494 118.238 112.728 118.542 117.942C121.649 118.372 122.003 122.647 119.075 123.601C119.025 124.579 118.845 125.971 118.42 127.216C117.994 128.463 117.31 129.593 116.234 129.984C115.777 132.973 114.111 135.613 111.659 137.219L113.854 143.133L113.928 142.984L113.96 142.921L114.031 142.93C114.117 142.941 114.208 142.953 114.303 142.966C116.788 143.293 122.152 144 127.044 145.304C129.583 145.98 132.001 146.82 133.825 147.854C135.644 148.884 136.901 150.125 137.062 151.616L72.888 169.9ZM72.888 169.9H73H139H139.112L139.099 169.789L137.062 151.617L72.888 169.9ZM117.511 156.773L117.511 156.773L117.513 156.772C120.094 155.614 122.002 153.904 122.002 151.273V145.988C122.824 146.152 123.642 146.32 124.46 146.561V168.104H120.939V161.379V161.279H120.839H91.1611H91.0611V161.379V168.104H87.5403V146.561C88.3613 146.319 89.1853 146.151 90.0866 145.986V151.273C90.0866 153.903 91.9034 155.613 94.4866 156.772L94.4891 156.773C97.3856 157.977 101.697 158.576 106 158.576C110.303 158.576 114.614 157.977 117.511 156.773ZM137.116 168.104H126.254V146.971C127.438 147.29 129.581 147.874 131.486 148.684C132.474 149.103 133.392 149.581 134.079 150.111C134.768 150.643 135.206 151.214 135.268 151.815L135.268 151.816L137.116 168.104ZM118.181 119.549C118.62 119.549 118.941 119.71 119.153 119.946C119.367 120.183 119.477 120.501 119.477 120.823C119.477 121.145 119.367 121.464 119.153 121.701C118.941 121.936 118.62 122.097 118.181 122.097H118.133H118.086H118.038H117.99H117.942H117.895H117.847H117.799H117.751H117.704H117.656H117.608H117.561H117.513H117.465H117.417H117.37H117.322H117.274H117.226H117.179H117.131H117.083H117.036H116.988H116.94H116.893H116.845H116.797H116.749H116.702H116.654H116.606H116.559H116.511H116.463H116.416H116.368H116.32H116.273H116.225H116.177H116.129H116.082H116.034H115.986H115.939H115.891H115.843H115.796H115.748H115.7H115.653H115.605H115.557H115.51H115.462H115.415H115.367H115.319H115.272H115.224H115.176H115.129H115.081H115.033H114.986H114.938H114.89H114.843H114.795H114.748H114.7H114.652H114.605H114.557H114.509H114.462H114.414H114.367H114.319H114.271H114.224H114.176H114.128H114.081H114.033H113.986H113.938H113.89H113.843H113.795H113.748H113.7H113.652H113.605H113.557H113.51H113.462H113.414H113.367H113.319H113.272H113.224H113.176H113.129H113.081H113.034H112.986H112.939H112.891H112.843H112.796H112.748H112.701H112.653H112.606H112.558H112.51H112.463H112.415H112.368H112.32H112.273H112.225H112.177H112.13H112.082H112.035H111.987H111.94H111.892H111.845H111.797H111.749H111.702H111.654H111.607H111.559H111.512H111.464H111.417H111.369H111.321H111.274H111.226H111.179H111.131H111.084H111.036H110.989H110.941H110.894H110.846H110.798H110.751H110.703H110.656H110.608H110.561H110.513H110.466H110.418H110.371H110.323H110.276H110.228H110.181H110.133H110.086H110.038H109.99H109.943H109.895H109.848H109.8H109.753H109.705H109.658H109.61H109.563H109.515H109.468H109.42H109.373H109.325H109.278H109.23H109.183H109.135H109.088H109.04H108.993H108.945H108.898H108.85H108.803H108.755H108.708H108.66H108.613H108.565H108.518H108.47H108.422H108.375H108.327H108.28H108.232H108.185H108.137H108.09H108.042H107.995H107.947H107.9H107.852H107.805H107.757H107.71H107.662H107.615H107.567H107.52H107.472H107.425H107.377H107.33H107.282H107.235H107.187H107.14H107.092H107.045H106.997H106.95H106.902H106.855H106.807H106.76H106.712H106.665H106.617H106.57H106.522H106.475H106.427H106.38H106.332H106.285H106.237H106.19H106.142H106.095H106.047H106H105.953H105.905H105.858H105.81H105.763H105.715H105.668H105.62H105.573H105.525H105.478H105.43H105.383H105.335H105.288H105.24H105.193H105.145H105.098H105.05H105.003H104.955H104.908H104.86H104.813H104.765H104.718H104.67H104.623H104.575H104.528H104.48H104.433H104.385H104.338H104.29H104.243H104.195H104.148H104.1H104.053H104.005H103.958H103.91H103.863H103.815H103.768H103.72H103.673H103.625H103.578H103.53H103.482H103.435H103.387H103.34H103.292H103.245H103.197H103.15H103.102H103.055H103.007H102.96H102.912H102.865H102.817H102.77H102.722H102.675H102.627H102.58H102.532H102.485H102.437H102.39H102.342H102.295H102.247H102.2H102.152H102.105H102.057H102.01H101.962H101.914H101.867H101.819H101.772H101.724H101.677H101.629H101.582H101.534H101.487H101.439H101.392H101.344H101.297H101.249H101.202H101.154H101.106H101.059H101.011H100.964H100.916H100.869H100.821H100.774H100.726H100.679H100.631H100.583H100.536H100.488H100.441H100.393H100.346H100.298H100.251H100.203H100.155H100.108H100.06H100.013H99.9653H99.9177H99.8701H99.8226H99.775H99.7274H99.6799H99.6323H99.5847H99.5372H99.4896H99.442H99.3945H99.3469H99.2993H99.2517H99.2042H99.1566H99.109H99.0614H99.0138H98.9663H98.9187H98.8711H98.8235H98.7759H98.7283H98.6807H98.6332H98.5856H98.538H98.4904H98.4428H98.3952H98.3476H98.3H98.2524H98.2048H98.1572H98.1096H98.062H98.0144H97.9667H97.9191H97.8715H97.8239H97.7763H97.7287H97.6811H97.6334H97.5858H97.5382H97.4906H97.443H97.3953H97.3477H97.3001H97.2525H97.2048H97.1572H97.1096H97.0619H97.0143H96.9666H96.919H96.8714H96.8237H96.7761H96.7284H96.6808H96.6331H96.5855H96.5378H96.4902H96.4425H96.3949H96.3472H96.2995H96.2519H96.2042H96.1566H96.1089H96.0612H96.0135H95.9659H95.9182H95.8705H95.8228H95.7752H95.7275H95.6798H95.6321H95.5844H95.5368H95.4891H95.4414H95.3937H95.346H95.2983H95.2506H95.2029H95.1552H95.1075H95.0598H95.0121H94.9644H94.9167H94.8689H94.8212H94.7735H94.7258H94.6781H94.6304H94.5826H94.5349H94.4872H94.4394H94.3917H94.344H94.2963H94.2485H94.2008H94.153H94.1053H94.0575H94.0098H93.9621H93.9143H93.8665H93.8188C93.3803 122.097 93.059 121.936 92.8465 121.701C92.6325 121.464 92.5235 121.145 92.5235 120.823C92.5235 120.501 92.6325 120.183 92.8465 119.946C93.059 119.71 93.3803 119.549 93.8188 119.549H99.1342C99.4061 119.549 99.6167 119.443 99.7581 119.279C99.8977 119.117 99.9651 118.905 99.9651 118.696C99.9651 118.487 99.8977 118.274 99.7581 118.112C99.6167 117.948 99.4061 117.842 99.1342 117.842H95.0772C95.3823 113.553 98.5425 110.113 102.578 108.858V114.485C102.578 115.599 103.005 116.436 103.651 116.992C104.295 117.546 105.15 117.815 106.001 117.81C106.852 117.804 107.706 117.523 108.349 116.967C108.995 116.408 109.422 115.577 109.422 114.485V108.858C113.457 110.113 116.618 113.553 116.923 117.842H101.438C101.146 117.842 100.924 117.946 100.777 118.111C100.632 118.274 100.567 118.489 100.574 118.699C100.586 119.118 100.885 119.549 101.438 119.549H118.181ZM106 147.417C103.428 147.406 100.87 146.627 99.339 145.131L101.939 138.107C103.248 138.621 104.645 138.963 106.044 138.963C107.441 138.963 108.835 138.622 110.062 138.109L112.661 145.132C111.132 146.671 108.574 147.428 106 147.417ZM92.8557 163.163H119.144V168.104H92.8557V163.163ZM120.119 151.273C120.119 152.984 118.84 154.2 116.813 155.081C114.173 156.182 110.091 156.736 106 156.736C101.909 156.736 97.8268 156.182 95.1868 155.081C93.16 154.2 91.8812 152.984 91.8812 151.273V145.682C93.5993 145.341 95.3161 145.083 96.9505 144.909C98.459 147.798 102.245 149.246 106 149.257C109.755 149.268 113.542 147.842 115.05 144.909C116.684 145.083 118.401 145.341 120.119 145.682V151.273ZM117.099 126.04C116.919 126.748 116.67 127.422 116.332 127.924V123.804H117.454C117.405 124.449 117.296 125.26 117.099 126.04ZM97.3738 123.716H114.715V128.756C114.627 133.488 110.684 137.344 106.044 137.344C101.228 137.344 97.3738 133.401 97.3738 128.668V123.716ZM104.627 106.518H107.373C107.473 106.518 107.582 106.57 107.668 106.655C107.753 106.741 107.805 106.85 107.805 106.95V114.485C107.805 115.078 107.578 115.515 107.244 115.806C106.907 116.098 106.455 116.247 106 116.247C105.545 116.247 105.093 116.098 104.756 115.806C104.422 115.515 104.195 115.078 104.195 114.485V106.95C104.195 106.85 104.247 106.741 104.332 106.655C104.418 106.57 104.527 106.518 104.627 106.518ZM94.5463 123.804H95.6678V127.924C95.3304 127.422 95.0805 126.748 94.9013 126.04C94.7038 125.26 94.5946 124.449 94.5463 123.804Z" fill="white" stroke="white" stroke-width="0.2"/>
<rect y="169" width="258" height="144" rx="28" fill="#EFEDED"/>
<path d="M53.6411 209.416C53.6411 208.328 53.8865 207.352 54.3771 206.488C54.8678 205.613 55.5345 204.931 56.3771 204.44C57.2305 203.949 58.1745 203.704 59.2091 203.704C60.4251 203.704 61.4865 203.997 62.3931 204.584C63.2998 205.171 63.9611 206.003 64.3771 207.08H62.6331C62.3238 206.408 61.8758 205.891 61.2891 205.528C60.7131 205.165 60.0198 204.984 59.2091 204.984C58.4305 204.984 57.7318 205.165 57.1131 205.528C56.4945 205.891 56.0091 206.408 55.6571 207.08C55.3051 207.741 55.1291 208.52 55.1291 209.416C55.1291 210.301 55.3051 211.08 55.6571 211.752C56.0091 212.413 56.4945 212.925 57.1131 213.288C57.7318 213.651 58.4305 213.832 59.2091 213.832C60.0198 213.832 60.7131 213.656 61.2891 213.304C61.8758 212.941 62.3238 212.424 62.6331 211.752H64.3771C63.9611 212.819 63.2998 213.645 62.3931 214.232C61.4865 214.808 60.4251 215.096 59.2091 215.096C58.1745 215.096 57.2305 214.856 56.3771 214.376C55.5345 213.885 54.8678 213.208 54.3771 212.344C53.8865 211.48 53.6411 210.504 53.6411 209.416ZM74.3205 206.232V215H72.8645V213.704C72.5872 214.152 72.1978 214.504 71.6965 214.76C71.2058 215.005 70.6618 215.128 70.0645 215.128C69.3818 215.128 68.7685 214.989 68.2245 214.712C67.6805 214.424 67.2485 213.997 66.9285 213.432C66.6192 212.867 66.4645 212.179 66.4645 211.368V206.232H67.9045V211.176C67.9045 212.04 68.1232 212.707 68.5605 213.176C68.9978 213.635 69.5952 213.864 70.3525 213.864C71.1312 213.864 71.7445 213.624 72.1925 213.144C72.6405 212.664 72.8645 211.965 72.8645 211.048V206.232H74.3205ZM78.2349 207.656C78.4909 207.155 78.8535 206.765 79.3229 206.488C79.8029 206.211 80.3842 206.072 81.0669 206.072V207.576H80.6829C79.0509 207.576 78.2349 208.461 78.2349 210.232V215H76.7789V206.232H78.2349V207.656ZM84.2036 207.656C84.4596 207.155 84.8223 206.765 85.2916 206.488C85.7716 206.211 86.353 206.072 87.0356 206.072V207.576H86.6516C85.0196 207.576 84.2036 208.461 84.2036 210.232V215H82.7476V206.232H84.2036V207.656ZM96.7164 210.28C96.7164 210.557 96.7004 210.851 96.6684 211.16H89.6604C89.7137 212.024 90.007 212.701 90.5404 213.192C91.0844 213.672 91.7404 213.912 92.5084 213.912C93.1377 213.912 93.6604 213.768 94.0764 213.48C94.503 213.181 94.8017 212.787 94.9724 212.296H96.5404C96.3057 213.139 95.8364 213.827 95.1324 214.36C94.4284 214.883 93.5537 215.144 92.5084 215.144C91.6764 215.144 90.9297 214.957 90.2684 214.584C89.6177 214.211 89.1057 213.683 88.7324 213C88.359 212.307 88.1724 211.507 88.1724 210.6C88.1724 209.693 88.3537 208.899 88.7164 208.216C89.079 207.533 89.5857 207.011 90.2364 206.648C90.8977 206.275 91.655 206.088 92.5084 206.088C93.3404 206.088 94.0764 206.269 94.7164 206.632C95.3564 206.995 95.847 207.496 96.1884 208.136C96.5404 208.765 96.7164 209.48 96.7164 210.28ZM95.2124 209.976C95.2124 209.421 95.0897 208.947 94.8444 208.552C94.599 208.147 94.263 207.843 93.8364 207.64C93.4204 207.427 92.9564 207.32 92.4444 207.32C91.7084 207.32 91.079 207.555 90.5564 208.024C90.0444 208.493 89.751 209.144 89.6764 209.976H95.2124ZM102.91 206.072C103.977 206.072 104.841 206.397 105.502 207.048C106.164 207.688 106.494 208.616 106.494 209.832V215H105.054V210.04C105.054 209.165 104.836 208.499 104.398 208.04C103.961 207.571 103.364 207.336 102.606 207.336C101.838 207.336 101.225 207.576 100.766 208.056C100.318 208.536 100.094 209.235 100.094 210.152V215H98.6383V206.232H100.094V207.48C100.382 207.032 100.772 206.685 101.262 206.44C101.764 206.195 102.313 206.072 102.91 206.072ZM110.649 207.432V212.6C110.649 213.027 110.739 213.331 110.921 213.512C111.102 213.683 111.417 213.768 111.865 213.768H112.937V215H111.625C110.814 215 110.206 214.813 109.801 214.44C109.395 214.067 109.193 213.453 109.193 212.6V207.432H108.057V206.232H109.193V204.024H110.649V206.232H112.937V207.432H110.649ZM116.157 203.16V215H114.701V203.16H116.157ZM126.19 206.232L120.91 219.128H119.406L121.134 214.904L117.598 206.232H119.214L121.966 213.336L124.686 206.232H126.19ZM139.472 206.232L134.192 219.128H132.688L134.416 214.904L130.88 206.232H132.496L135.248 213.336L137.968 206.232H139.472ZM144.759 215.144C143.938 215.144 143.191 214.957 142.519 214.584C141.858 214.211 141.335 213.683 140.951 213C140.578 212.307 140.391 211.507 140.391 210.6C140.391 209.704 140.583 208.915 140.967 208.232C141.362 207.539 141.895 207.011 142.567 206.648C143.239 206.275 143.991 206.088 144.823 206.088C145.655 206.088 146.407 206.275 147.079 206.648C147.751 207.011 148.279 207.533 148.663 208.216C149.058 208.899 149.255 209.693 149.255 210.6C149.255 211.507 149.052 212.307 148.647 213C148.252 213.683 147.714 214.211 147.031 214.584C146.348 214.957 145.591 215.144 144.759 215.144ZM144.759 213.864C145.282 213.864 145.772 213.741 146.231 213.496C146.69 213.251 147.058 212.883 147.335 212.392C147.623 211.901 147.767 211.304 147.767 210.6C147.767 209.896 147.628 209.299 147.351 208.808C147.074 208.317 146.711 207.955 146.263 207.72C145.815 207.475 145.33 207.352 144.807 207.352C144.274 207.352 143.783 207.475 143.335 207.72C142.898 207.955 142.546 208.317 142.279 208.808C142.012 209.299 141.879 209.896 141.879 210.6C141.879 211.315 142.007 211.917 142.263 212.408C142.53 212.899 142.882 213.267 143.319 213.512C143.756 213.747 144.236 213.864 144.759 213.864ZM158.946 206.232V215H157.49V213.704C157.212 214.152 156.823 214.504 156.322 214.76C155.831 215.005 155.287 215.128 154.69 215.128C154.007 215.128 153.394 214.989 152.85 214.712C152.306 214.424 151.874 213.997 151.554 213.432C151.244 212.867 151.09 212.179 151.09 211.368V206.232H152.53V211.176C152.53 212.04 152.748 212.707 153.186 213.176C153.623 213.635 154.22 213.864 154.978 213.864C155.756 213.864 156.37 213.624 156.818 213.144C157.266 212.664 157.49 211.965 157.49 211.048V206.232H158.946ZM165.126 210.584C165.126 209.688 165.307 208.904 165.67 208.232C166.032 207.549 166.528 207.021 167.158 206.648C167.798 206.275 168.512 206.088 169.302 206.088C169.984 206.088 170.619 206.248 171.206 206.568C171.792 206.877 172.24 207.288 172.55 207.8V203.16H174.022V215H172.55V213.352C172.262 213.875 171.835 214.307 171.27 214.648C170.704 214.979 170.043 215.144 169.286 215.144C168.507 215.144 167.798 214.952 167.158 214.568C166.528 214.184 166.032 213.645 165.67 212.952C165.307 212.259 165.126 211.469 165.126 210.584ZM172.55 210.6C172.55 209.939 172.416 209.363 172.15 208.872C171.883 208.381 171.52 208.008 171.062 207.752C170.614 207.485 170.118 207.352 169.574 207.352C169.03 207.352 168.534 207.48 168.086 207.736C167.638 207.992 167.28 208.365 167.014 208.856C166.747 209.347 166.614 209.923 166.614 210.584C166.614 211.256 166.747 211.843 167.014 212.344C167.28 212.835 167.638 213.213 168.086 213.48C168.534 213.736 169.03 213.864 169.574 213.864C170.118 213.864 170.614 213.736 171.062 213.48C171.52 213.213 171.883 212.835 172.15 212.344C172.416 211.843 172.55 211.261 172.55 210.6ZM180.306 215.144C179.485 215.144 178.738 214.957 178.066 214.584C177.405 214.211 176.882 213.683 176.498 213C176.125 212.307 175.938 211.507 175.938 210.6C175.938 209.704 176.13 208.915 176.514 208.232C176.909 207.539 177.442 207.011 178.114 206.648C178.786 206.275 179.538 206.088 180.37 206.088C181.202 206.088 181.954 206.275 182.626 206.648C183.298 207.011 183.826 207.533 184.21 208.216C184.605 208.899 184.802 209.693 184.802 210.6C184.802 211.507 184.599 212.307 184.194 213C183.799 213.683 183.261 214.211 182.578 214.584C181.895 214.957 181.138 215.144 180.306 215.144ZM180.306 213.864C180.829 213.864 181.319 213.741 181.778 213.496C182.237 213.251 182.605 212.883 182.882 212.392C183.17 211.901 183.314 211.304 183.314 210.6C183.314 209.896 183.175 209.299 182.898 208.808C182.621 208.317 182.258 207.955 181.81 207.72C181.362 207.475 180.877 207.352 180.354 207.352C179.821 207.352 179.33 207.475 178.882 207.72C178.445 207.955 178.093 208.317 177.826 208.808C177.559 209.299 177.426 209.896 177.426 210.6C177.426 211.315 177.554 211.917 177.81 212.408C178.077 212.899 178.429 213.267 178.866 213.512C179.303 213.747 179.783 213.864 180.306 213.864ZM190.988 206.072C192.055 206.072 192.919 206.397 193.58 207.048C194.242 207.688 194.572 208.616 194.572 209.832V215H193.132V210.04C193.132 209.165 192.914 208.499 192.476 208.04C192.039 207.571 191.442 207.336 190.684 207.336C189.916 207.336 189.303 207.576 188.844 208.056C188.396 208.536 188.172 209.235 188.172 210.152V215H186.716V206.232H188.172V207.48C188.46 207.032 188.85 206.685 189.34 206.44C189.842 206.195 190.391 206.072 190.988 206.072ZM197.175 203.848H198.791L197.255 207.48H196.231L197.175 203.848ZM202.227 207.432V212.6C202.227 213.027 202.317 213.331 202.499 213.512C202.68 213.683 202.995 213.768 203.443 213.768H204.515V215H203.203C202.392 215 201.784 214.813 201.379 214.44C200.973 214.067 200.771 213.453 200.771 212.6V207.432H199.635V206.232H200.771V204.024H202.227V206.232H204.515V207.432H202.227ZM54.4903 230.072C55.1516 230.072 55.7489 230.216 56.2823 230.504C56.8156 230.781 57.2316 231.203 57.5303 231.768C57.8396 232.333 57.9943 233.021 57.9943 233.832V239H56.5543V234.04C56.5543 233.165 56.3356 232.499 55.8983 232.04C55.4609 231.571 54.8636 231.336 54.1063 231.336C53.3383 231.336 52.7249 231.576 52.2663 232.056C51.8183 232.536 51.5943 233.235 51.5943 234.152V239H50.1383V227.16H51.5943V231.48C51.8823 231.032 52.2769 230.685 52.7783 230.44C53.2903 230.195 53.8609 230.072 54.4903 230.072ZM59.8286 234.584C59.8286 233.688 60.01 232.904 60.3726 232.232C60.7353 231.549 61.2313 231.021 61.8606 230.648C62.5006 230.275 63.21 230.088 63.9886 230.088C64.7566 230.088 65.4233 230.253 65.9886 230.584C66.554 230.915 66.9753 231.331 67.2526 231.832V230.232H68.7246V239H67.2526V237.368C66.9646 237.88 66.5326 238.307 65.9566 238.648C65.3913 238.979 64.73 239.144 63.9726 239.144C63.194 239.144 62.49 238.952 61.8606 238.568C61.2313 238.184 60.7353 237.645 60.3726 236.952C60.01 236.259 59.8286 235.469 59.8286 234.584ZM67.2526 234.6C67.2526 233.939 67.1193 233.363 66.8526 232.872C66.586 232.381 66.2233 232.008 65.7646 231.752C65.3166 231.485 64.8206 231.352 64.2766 231.352C63.7326 231.352 63.2366 231.48 62.7886 231.736C62.3406 231.992 61.9833 232.365 61.7166 232.856C61.45 233.347 61.3166 233.923 61.3166 234.584C61.3166 235.256 61.45 235.843 61.7166 236.344C61.9833 236.835 62.3406 237.213 62.7886 237.48C63.2366 237.736 63.7326 237.864 64.2766 237.864C64.8206 237.864 65.3166 237.736 65.7646 237.48C66.2233 237.213 66.586 236.835 66.8526 236.344C67.1193 235.843 67.2526 235.261 67.2526 234.6ZM74.4491 237.656L77.1691 230.232H78.7211L75.2811 239H73.5851L70.1451 230.232H71.7131L74.4491 237.656ZM88.1539 234.28C88.1539 234.557 88.1379 234.851 88.1059 235.16H81.0979C81.1512 236.024 81.4445 236.701 81.9779 237.192C82.5219 237.672 83.1779 237.912 83.9459 237.912C84.5752 237.912 85.0979 237.768 85.5139 237.48C85.9405 237.181 86.2392 236.787 86.4099 236.296H87.9779C87.7432 237.139 87.2739 237.827 86.5699 238.36C85.8659 238.883 84.9912 239.144 83.9459 239.144C83.1139 239.144 82.3672 238.957 81.7059 238.584C81.0552 238.211 80.5432 237.683 80.1699 237C79.7965 236.307 79.6099 235.507 79.6099 234.6C79.6099 233.693 79.7912 232.899 80.1539 232.216C80.5165 231.533 81.0232 231.011 81.6739 230.648C82.3352 230.275 83.0925 230.088 83.9459 230.088C84.7779 230.088 85.5139 230.269 86.1539 230.632C86.7939 230.995 87.2845 231.496 87.6259 232.136C87.9779 232.765 88.1539 233.48 88.1539 234.28ZM86.6499 233.976C86.6499 233.421 86.5272 232.947 86.2819 232.552C86.0365 232.147 85.7005 231.843 85.2739 231.64C84.8579 231.427 84.3939 231.32 83.8819 231.32C83.1459 231.32 82.5165 231.555 81.9939 232.024C81.4819 232.493 81.1885 233.144 81.1139 233.976H86.6499ZM93.7974 233.416C93.7974 232.328 94.0427 231.352 94.5334 230.488C95.024 229.613 95.6907 228.931 96.5334 228.44C97.3867 227.949 98.3307 227.704 99.3654 227.704C100.581 227.704 101.643 227.997 102.549 228.584C103.456 229.171 104.117 230.003 104.533 231.08H102.789C102.48 230.408 102.032 229.891 101.445 229.528C100.869 229.165 100.176 228.984 99.3654 228.984C98.5867 228.984 97.888 229.165 97.2694 229.528C96.6507 229.891 96.1654 230.408 95.8134 231.08C95.4614 231.741 95.2854 232.52 95.2854 233.416C95.2854 234.301 95.4614 235.08 95.8134 235.752C96.1654 236.413 96.6507 236.925 97.2694 237.288C97.888 237.651 98.5867 237.832 99.3654 237.832C100.176 237.832 100.869 237.656 101.445 237.304C102.032 236.941 102.48 236.424 102.789 235.752H104.533C104.117 236.819 103.456 237.645 102.549 238.232C101.643 238.808 100.581 239.096 99.3654 239.096C98.3307 239.096 97.3867 238.856 96.5334 238.376C95.6907 237.885 95.024 237.208 94.5334 236.344C94.0427 235.48 93.7974 234.504 93.7974 233.416ZM110.525 239.144C109.703 239.144 108.957 238.957 108.285 238.584C107.623 238.211 107.101 237.683 106.717 237C106.343 236.307 106.157 235.507 106.157 234.6C106.157 233.704 106.349 232.915 106.733 232.232C107.127 231.539 107.661 231.011 108.333 230.648C109.005 230.275 109.757 230.088 110.589 230.088C111.421 230.088 112.173 230.275 112.845 230.648C113.517 231.011 114.045 231.533 114.429 232.216C114.823 232.899 115.021 233.693 115.021 234.6C115.021 235.507 114.818 236.307 114.413 237C114.018 237.683 113.479 238.211 112.797 238.584C112.114 238.957 111.357 239.144 110.525 239.144ZM110.525 237.864C111.047 237.864 111.538 237.741 111.997 237.496C112.455 237.251 112.823 236.883 113.101 236.392C113.389 235.901 113.533 235.304 113.533 234.6C113.533 233.896 113.394 233.299 113.117 232.808C112.839 232.317 112.477 231.955 112.029 231.72C111.581 231.475 111.095 231.352 110.573 231.352C110.039 231.352 109.549 231.475 109.101 231.72C108.663 231.955 108.311 232.317 108.045 232.808C107.778 233.299 107.645 233.896 107.645 234.6C107.645 235.315 107.773 235.917 108.029 236.408C108.295 236.899 108.647 237.267 109.085 237.512C109.522 237.747 110.002 237.864 110.525 237.864ZM121.207 230.072C122.274 230.072 123.138 230.397 123.799 231.048C124.46 231.688 124.791 232.616 124.791 233.832V239H123.351V234.04C123.351 233.165 123.132 232.499 122.695 232.04C122.258 231.571 121.66 231.336 120.903 231.336C120.135 231.336 119.522 231.576 119.063 232.056C118.615 232.536 118.391 233.235 118.391 234.152V239H116.935V230.232H118.391V231.48C118.679 231.032 119.068 230.685 119.559 230.44C120.06 230.195 120.61 230.072 121.207 230.072ZM128.946 231.432V236.6C128.946 237.027 129.036 237.331 129.218 237.512C129.399 237.683 129.714 237.768 130.161 237.768H131.234V239H129.922C129.111 239 128.503 238.813 128.098 238.44C127.692 238.067 127.49 237.453 127.49 236.6V231.432H126.354V230.232H127.49V228.024H128.946V230.232H131.234V231.432H128.946ZM134.454 231.656C134.71 231.155 135.072 230.765 135.542 230.488C136.022 230.211 136.603 230.072 137.286 230.072V231.576H136.902C135.27 231.576 134.454 232.461 134.454 234.232V239H132.998V230.232H134.454V231.656ZM138.422 234.584C138.422 233.688 138.604 232.904 138.966 232.232C139.329 231.549 139.825 231.021 140.454 230.648C141.094 230.275 141.804 230.088 142.582 230.088C143.35 230.088 144.017 230.253 144.582 230.584C145.148 230.915 145.569 231.331 145.846 231.832V230.232H147.318V239H145.846V237.368C145.558 237.88 145.126 238.307 144.55 238.648C143.985 238.979 143.324 239.144 142.566 239.144C141.788 239.144 141.084 238.952 140.454 238.568C139.825 238.184 139.329 237.645 138.966 236.952C138.604 236.259 138.422 235.469 138.422 234.584ZM145.846 234.6C145.846 233.939 145.713 233.363 145.446 232.872C145.18 232.381 144.817 232.008 144.358 231.752C143.91 231.485 143.414 231.352 142.87 231.352C142.326 231.352 141.83 231.48 141.382 231.736C140.934 231.992 140.577 232.365 140.31 232.856C140.044 233.347 139.91 233.923 139.91 234.584C139.91 235.256 140.044 235.843 140.31 236.344C140.577 236.835 140.934 237.213 141.382 237.48C141.83 237.736 142.326 237.864 142.87 237.864C143.414 237.864 143.91 237.736 144.358 237.48C144.817 237.213 145.18 236.835 145.446 236.344C145.713 235.843 145.846 235.261 145.846 234.6ZM149.235 234.6C149.235 233.693 149.416 232.904 149.779 232.232C150.142 231.549 150.643 231.021 151.283 230.648C151.934 230.275 152.675 230.088 153.507 230.088C154.584 230.088 155.47 230.349 156.163 230.872C156.867 231.395 157.331 232.12 157.555 233.048H155.987C155.838 232.515 155.544 232.093 155.107 231.784C154.68 231.475 154.147 231.32 153.507 231.32C152.675 231.32 152.003 231.608 151.491 232.184C150.979 232.749 150.723 233.555 150.723 234.6C150.723 235.656 150.979 236.472 151.491 237.048C152.003 237.624 152.675 237.912 153.507 237.912C154.147 237.912 154.68 237.763 155.107 237.464C155.534 237.165 155.827 236.739 155.987 236.184H157.555C157.32 237.08 156.851 237.8 156.147 238.344C155.443 238.877 154.563 239.144 153.507 239.144C152.675 239.144 151.934 238.957 151.283 238.584C150.643 238.211 150.142 237.683 149.779 237C149.416 236.317 149.235 235.517 149.235 234.6ZM161.274 231.432V236.6C161.274 237.027 161.364 237.331 161.546 237.512C161.727 237.683 162.042 237.768 162.49 237.768H163.562V239H162.25C161.439 239 160.831 238.813 160.426 238.44C160.02 238.067 159.818 237.453 159.818 236.6V231.432H158.682V230.232H159.818V228.024H161.274V230.232H163.562V231.432H161.274ZM181.271 230.232L178.535 239H177.031L174.919 232.04L172.807 239H171.303L168.551 230.232H170.039L172.055 237.592L174.231 230.232H175.719L177.847 237.608L179.831 230.232H181.271ZM186.54 239.144C185.719 239.144 184.972 238.957 184.3 238.584C183.639 238.211 183.116 237.683 182.732 237C182.359 236.307 182.172 235.507 182.172 234.6C182.172 233.704 182.364 232.915 182.748 232.232C183.143 231.539 183.676 231.011 184.348 230.648C185.02 230.275 185.772 230.088 186.604 230.088C187.436 230.088 188.188 230.275 188.86 230.648C189.532 231.011 190.06 231.533 190.444 232.216C190.839 232.899 191.036 233.693 191.036 234.6C191.036 235.507 190.834 236.307 190.428 237C190.034 237.683 189.495 238.211 188.812 238.584C188.13 238.957 187.372 239.144 186.54 239.144ZM186.54 237.864C187.063 237.864 187.554 237.741 188.012 237.496C188.471 237.251 188.839 236.883 189.116 236.392C189.404 235.901 189.548 235.304 189.548 234.6C189.548 233.896 189.41 233.299 189.132 232.808C188.855 232.317 188.492 231.955 188.044 231.72C187.596 231.475 187.111 231.352 186.588 231.352C186.055 231.352 185.564 231.475 185.116 231.72C184.679 231.955 184.327 232.317 184.06 232.808C183.794 233.299 183.66 233.896 183.66 234.6C183.66 235.315 183.788 235.917 184.044 236.408C184.311 236.899 184.663 237.267 185.1 237.512C185.538 237.747 186.018 237.864 186.54 237.864ZM194.407 231.656C194.663 231.155 195.025 230.765 195.495 230.488C195.975 230.211 196.556 230.072 197.239 230.072V231.576H196.855C195.223 231.576 194.407 232.461 194.407 234.232V239H192.951V230.232H194.407V231.656ZM203.816 239L200.376 235.128V239H198.92V227.16H200.376V234.12L203.752 230.232H205.784L201.656 234.6L205.8 239H203.816ZM208.658 236.984L206.866 241.288H205.89L207.058 236.984H208.658ZM48.8286 256.848C49.1166 256.347 49.5433 255.931 50.1086 255.6C50.6846 255.259 51.3513 255.088 52.1086 255.088C52.8873 255.088 53.5913 255.275 54.2206 255.648C54.8606 256.021 55.362 256.549 55.7246 257.232C56.0873 257.904 56.2686 258.688 56.2686 259.584C56.2686 260.469 56.0873 261.259 55.7246 261.952C55.362 262.645 54.8606 263.184 54.2206 263.568C53.5913 263.952 52.8873 264.144 52.1086 264.144C51.362 264.144 50.7006 263.979 50.1246 263.648C49.5593 263.307 49.1273 262.885 48.8286 262.384V268.16H47.3726V255.232H48.8286V256.848ZM54.7806 259.584C54.7806 258.923 54.6473 258.347 54.3806 257.856C54.114 257.365 53.7513 256.992 53.2926 256.736C52.8446 256.48 52.3486 256.352 51.8046 256.352C51.2713 256.352 50.7753 256.485 50.3166 256.752C49.8686 257.008 49.506 257.387 49.2286 257.888C48.962 258.379 48.8286 258.949 48.8286 259.6C48.8286 260.261 48.962 260.843 49.2286 261.344C49.506 261.835 49.8686 262.213 50.3166 262.48C50.7753 262.736 51.2713 262.864 51.8046 262.864C52.3486 262.864 52.8446 262.736 53.2926 262.48C53.7513 262.213 54.114 261.835 54.3806 261.344C54.6473 260.843 54.7806 260.256 54.7806 259.584ZM59.6411 252.16V264H58.1851V252.16H59.6411ZM70.1226 259.28C70.1226 259.557 70.1066 259.851 70.0746 260.16H63.0666C63.12 261.024 63.4133 261.701 63.9466 262.192C64.4906 262.672 65.1466 262.912 65.9146 262.912C66.544 262.912 67.0666 262.768 67.4826 262.48C67.9093 262.181 68.208 261.787 68.3786 261.296H69.9466C69.712 262.139 69.2426 262.827 68.5386 263.36C67.8346 263.883 66.96 264.144 65.9146 264.144C65.0826 264.144 64.336 263.957 63.6746 263.584C63.024 263.211 62.512 262.683 62.1386 262C61.7653 261.307 61.5786 260.507 61.5786 259.6C61.5786 258.693 61.76 257.899 62.1226 257.216C62.4853 256.533 62.992 256.011 63.6426 255.648C64.304 255.275 65.0613 255.088 65.9146 255.088C66.7466 255.088 67.4826 255.269 68.1226 255.632C68.7626 255.995 69.2533 256.496 69.5946 257.136C69.9466 257.765 70.1226 258.48 70.1226 259.28ZM68.6186 258.976C68.6186 258.421 68.496 257.947 68.2506 257.552C68.0053 257.147 67.6693 256.843 67.2426 256.64C66.8266 256.427 66.3626 256.32 65.8506 256.32C65.1146 256.32 64.4853 256.555 63.9626 257.024C63.4506 257.493 63.1573 258.144 63.0826 258.976H68.6186ZM71.5005 259.584C71.5005 258.688 71.6818 257.904 72.0445 257.232C72.4072 256.549 72.9032 256.021 73.5325 255.648C74.1725 255.275 74.8818 255.088 75.6605 255.088C76.4285 255.088 77.0952 255.253 77.6605 255.584C78.2258 255.915 78.6472 256.331 78.9245 256.832V255.232H80.3965V264H78.9245V262.368C78.6365 262.88 78.2045 263.307 77.6285 263.648C77.0632 263.979 76.4018 264.144 75.6445 264.144C74.8658 264.144 74.1618 263.952 73.5325 263.568C72.9032 263.184 72.4072 262.645 72.0445 261.952C71.6818 261.259 71.5005 260.469 71.5005 259.584ZM78.9245 259.6C78.9245 258.939 78.7912 258.363 78.5245 257.872C78.2578 257.381 77.8952 257.008 77.4365 256.752C76.9885 256.485 76.4925 256.352 75.9485 256.352C75.4045 256.352 74.9085 256.48 74.4605 256.736C74.0125 256.992 73.6552 257.365 73.3885 257.856C73.1218 258.347 72.9885 258.923 72.9885 259.584C72.9885 260.256 73.1218 260.843 73.3885 261.344C73.6552 261.835 74.0125 262.213 74.4605 262.48C74.9085 262.736 75.4045 262.864 75.9485 262.864C76.4925 262.864 76.9885 262.736 77.4365 262.48C77.8952 262.213 78.2578 261.835 78.5245 261.344C78.7912 260.843 78.9245 260.261 78.9245 259.6ZM85.961 264.144C85.289 264.144 84.6863 264.032 84.153 263.808C83.6197 263.573 83.1983 263.253 82.889 262.848C82.5797 262.432 82.409 261.957 82.377 261.424H83.881C83.9237 261.861 84.1263 262.219 84.489 262.496C84.8623 262.773 85.3477 262.912 85.945 262.912C86.4997 262.912 86.937 262.789 87.257 262.544C87.577 262.299 87.737 261.989 87.737 261.616C87.737 261.232 87.5663 260.949 87.225 260.768C86.8837 260.576 86.3557 260.389 85.641 260.208C84.9903 260.037 84.457 259.867 84.041 259.696C83.6357 259.515 83.2837 259.253 82.985 258.912C82.697 258.56 82.553 258.101 82.553 257.536C82.553 257.088 82.6863 256.677 82.953 256.304C83.2197 255.931 83.5983 255.637 84.089 255.424C84.5797 255.2 85.1397 255.088 85.769 255.088C86.7397 255.088 87.5237 255.333 88.121 255.824C88.7183 256.315 89.0383 256.987 89.081 257.84H87.625C87.593 257.381 87.4063 257.013 87.065 256.736C86.7343 256.459 86.2863 256.32 85.721 256.32C85.1983 256.32 84.7823 256.432 84.473 256.656C84.1637 256.88 84.009 257.173 84.009 257.536C84.009 257.824 84.0997 258.064 84.281 258.256C84.473 258.437 84.7077 258.587 84.985 258.704C85.273 258.811 85.6677 258.933 86.169 259.072C86.7983 259.243 87.3103 259.413 87.705 259.584C88.0997 259.744 88.4357 259.989 88.713 260.32C89.001 260.651 89.1503 261.083 89.161 261.616C89.161 262.096 89.0277 262.528 88.761 262.912C88.4943 263.296 88.1157 263.6 87.625 263.824C87.145 264.037 86.5903 264.144 85.961 264.144ZM99.2164 259.28C99.2164 259.557 99.2004 259.851 99.1684 260.16H92.1604C92.2137 261.024 92.507 261.701 93.0404 262.192C93.5844 262.672 94.2404 262.912 95.0084 262.912C95.6377 262.912 96.1604 262.768 96.5764 262.48C97.003 262.181 97.3017 261.787 97.4724 261.296H99.0404C98.8057 262.139 98.3364 262.827 97.6324 263.36C96.9284 263.883 96.0537 264.144 95.0084 264.144C94.1764 264.144 93.4297 263.957 92.7684 263.584C92.1177 263.211 91.6057 262.683 91.2324 262C90.859 261.307 90.6724 260.507 90.6724 259.6C90.6724 258.693 90.8537 257.899 91.2164 257.216C91.579 256.533 92.0857 256.011 92.7364 255.648C93.3977 255.275 94.155 255.088 95.0084 255.088C95.8404 255.088 96.5764 255.269 97.2164 255.632C97.8564 255.995 98.347 256.496 98.6884 257.136C99.0404 257.765 99.2164 258.48 99.2164 259.28ZM97.7124 258.976C97.7124 258.421 97.5897 257.947 97.3444 257.552C97.099 257.147 96.763 256.843 96.3364 256.64C95.9204 256.427 95.4564 256.32 94.9444 256.32C94.2084 256.32 93.579 256.555 93.0564 257.024C92.5444 257.493 92.251 258.144 92.1764 258.976H97.7124ZM104.86 259.584C104.86 258.688 105.041 257.904 105.404 257.232C105.767 256.549 106.263 256.021 106.892 255.648C107.532 255.275 108.241 255.088 109.02 255.088C109.788 255.088 110.455 255.253 111.02 255.584C111.585 255.915 112.007 256.331 112.284 256.832V255.232H113.756V264H112.284V262.368C111.996 262.88 111.564 263.307 110.988 263.648C110.423 263.979 109.761 264.144 109.004 264.144C108.225 264.144 107.521 263.952 106.892 263.568C106.263 263.184 105.767 262.645 105.404 261.952C105.041 261.259 104.86 260.469 104.86 259.584ZM112.284 259.6C112.284 258.939 112.151 258.363 111.884 257.872C111.617 257.381 111.255 257.008 110.796 256.752C110.348 256.485 109.852 256.352 109.308 256.352C108.764 256.352 108.268 256.48 107.82 256.736C107.372 256.992 107.015 257.365 106.748 257.856C106.481 258.347 106.348 258.923 106.348 259.584C106.348 260.256 106.481 260.843 106.748 261.344C107.015 261.835 107.372 262.213 107.82 262.48C108.268 262.736 108.764 262.864 109.308 262.864C109.852 262.864 110.348 262.736 110.796 262.48C111.255 262.213 111.617 261.835 111.884 261.344C112.151 260.843 112.284 260.261 112.284 259.6ZM115.672 259.584C115.672 258.688 115.854 257.904 116.216 257.232C116.579 256.549 117.075 256.021 117.704 255.648C118.344 255.275 119.059 255.088 119.848 255.088C120.531 255.088 121.166 255.248 121.752 255.568C122.339 255.877 122.787 256.288 123.096 256.8V252.16H124.568V264H123.096V262.352C122.808 262.875 122.382 263.307 121.816 263.648C121.251 263.979 120.59 264.144 119.832 264.144C119.054 264.144 118.344 263.952 117.704 263.568C117.075 263.184 116.579 262.645 116.216 261.952C115.854 261.259 115.672 260.469 115.672 259.584ZM123.096 259.6C123.096 258.939 122.963 258.363 122.696 257.872C122.43 257.381 122.067 257.008 121.608 256.752C121.16 256.485 120.664 256.352 120.12 256.352C119.576 256.352 119.08 256.48 118.632 256.736C118.184 256.992 117.827 257.365 117.56 257.856C117.294 258.347 117.16 258.923 117.16 259.584C117.16 260.256 117.294 260.843 117.56 261.344C117.827 261.835 118.184 262.213 118.632 262.48C119.08 262.736 119.576 262.864 120.12 262.864C120.664 262.864 121.16 262.736 121.608 262.48C122.067 262.213 122.43 261.835 122.696 261.344C122.963 260.843 123.096 260.261 123.096 259.6ZM126.485 259.584C126.485 258.688 126.666 257.904 127.029 257.232C127.392 256.549 127.888 256.021 128.517 255.648C129.157 255.275 129.872 255.088 130.661 255.088C131.344 255.088 131.978 255.248 132.565 255.568C133.152 255.877 133.6 256.288 133.909 256.8V252.16H135.381V264H133.909V262.352C133.621 262.875 133.194 263.307 132.629 263.648C132.064 263.979 131.402 264.144 130.645 264.144C129.866 264.144 129.157 263.952 128.517 263.568C127.888 263.184 127.392 262.645 127.029 261.952C126.666 261.259 126.485 260.469 126.485 259.584ZM133.909 259.6C133.909 258.939 133.776 258.363 133.509 257.872C133.242 257.381 132.88 257.008 132.421 256.752C131.973 256.485 131.477 256.352 130.933 256.352C130.389 256.352 129.893 256.48 129.445 256.736C128.997 256.992 128.64 257.365 128.373 257.856C128.106 258.347 127.973 258.923 127.973 259.584C127.973 260.256 128.106 260.843 128.373 261.344C128.64 261.835 128.997 262.213 129.445 262.48C129.893 262.736 130.389 262.864 130.933 262.864C131.477 262.864 131.973 262.736 132.421 262.48C132.88 262.213 133.242 261.835 133.509 261.344C133.776 260.843 133.909 260.261 133.909 259.6ZM141.563 258.416C141.563 257.328 141.808 256.352 142.299 255.488C142.79 254.613 143.456 253.931 144.299 253.44C145.152 252.949 146.096 252.704 147.131 252.704C148.347 252.704 149.408 252.997 150.315 253.584C151.222 254.171 151.883 255.003 152.299 256.08H150.555C150.246 255.408 149.798 254.891 149.211 254.528C148.635 254.165 147.942 253.984 147.131 253.984C146.352 253.984 145.654 254.165 145.035 254.528C144.416 254.891 143.931 255.408 143.579 256.08C143.227 256.741 143.051 257.52 143.051 258.416C143.051 259.301 143.227 260.08 143.579 260.752C143.931 261.413 144.416 261.925 145.035 262.288C145.654 262.651 146.352 262.832 147.131 262.832C147.942 262.832 148.635 262.656 149.211 262.304C149.798 261.941 150.246 261.424 150.555 260.752H152.299C151.883 261.819 151.222 262.645 150.315 263.232C149.408 263.808 148.347 264.096 147.131 264.096C146.096 264.096 145.152 263.856 144.299 263.376C143.456 262.885 142.79 262.208 142.299 261.344C141.808 260.48 141.563 259.504 141.563 258.416ZM158.29 264.144C157.469 264.144 156.722 263.957 156.05 263.584C155.389 263.211 154.866 262.683 154.482 262C154.109 261.307 153.922 260.507 153.922 259.6C153.922 258.704 154.114 257.915 154.498 257.232C154.893 256.539 155.426 256.011 156.098 255.648C156.77 255.275 157.522 255.088 158.354 255.088C159.186 255.088 159.938 255.275 160.61 255.648C161.282 256.011 161.81 256.533 162.194 257.216C162.589 257.899 162.786 258.693 162.786 259.6C162.786 260.507 162.584 261.307 162.178 262C161.784 262.683 161.245 263.211 160.562 263.584C159.88 263.957 159.122 264.144 158.29 264.144ZM158.29 262.864C158.813 262.864 159.304 262.741 159.762 262.496C160.221 262.251 160.589 261.883 160.866 261.392C161.154 260.901 161.298 260.304 161.298 259.6C161.298 258.896 161.16 258.299 160.882 257.808C160.605 257.317 160.242 256.955 159.794 256.72C159.346 256.475 158.861 256.352 158.338 256.352C157.805 256.352 157.314 256.475 156.866 256.72C156.429 256.955 156.077 257.317 155.81 257.808C155.544 258.299 155.41 258.896 155.41 259.6C155.41 260.315 155.538 260.917 155.794 261.408C156.061 261.899 156.413 262.267 156.85 262.512C157.288 262.747 157.768 262.864 158.29 262.864ZM168.973 255.072C170.039 255.072 170.903 255.397 171.565 256.048C172.226 256.688 172.557 257.616 172.557 258.832V264H171.117V259.04C171.117 258.165 170.898 257.499 170.461 257.04C170.023 256.571 169.426 256.336 168.669 256.336C167.901 256.336 167.287 256.576 166.829 257.056C166.381 257.536 166.157 258.235 166.157 259.152V264H164.701V255.232H166.157V256.48C166.445 256.032 166.834 255.685 167.325 255.44C167.826 255.195 168.375 255.072 168.973 255.072ZM176.711 256.432V261.6C176.711 262.027 176.802 262.331 176.983 262.512C177.164 262.683 177.479 262.768 177.927 262.768H178.999V264H177.687C176.876 264 176.268 263.813 175.863 263.44C175.458 263.067 175.255 262.453 175.255 261.6V256.432H174.119V255.232H175.255V253.024H176.711V255.232H178.999V256.432H176.711ZM182.219 256.656C182.475 256.155 182.838 255.765 183.307 255.488C183.787 255.211 184.369 255.072 185.051 255.072V256.576H184.667C183.035 256.576 182.219 257.461 182.219 259.232V264H180.763V255.232H182.219V256.656ZM186.188 259.584C186.188 258.688 186.369 257.904 186.732 257.232C187.095 256.549 187.591 256.021 188.22 255.648C188.86 255.275 189.569 255.088 190.348 255.088C191.116 255.088 191.783 255.253 192.348 255.584C192.913 255.915 193.335 256.331 193.612 256.832V255.232H195.084V264H193.612V262.368C193.324 262.88 192.892 263.307 192.316 263.648C191.751 263.979 191.089 264.144 190.332 264.144C189.553 264.144 188.849 263.952 188.22 263.568C187.591 263.184 187.095 262.645 186.732 261.952C186.369 261.259 186.188 260.469 186.188 259.584ZM193.612 259.6C193.612 258.939 193.479 258.363 193.212 257.872C192.945 257.381 192.583 257.008 192.124 256.752C191.676 256.485 191.18 256.352 190.636 256.352C190.092 256.352 189.596 256.48 189.148 256.736C188.7 256.992 188.343 257.365 188.076 257.856C187.809 258.347 187.676 258.923 187.676 259.584C187.676 260.256 187.809 260.843 188.076 261.344C188.343 261.835 188.7 262.213 189.148 262.48C189.596 262.736 190.092 262.864 190.636 262.864C191.18 262.864 191.676 262.736 192.124 262.48C192.583 262.213 192.945 261.835 193.212 261.344C193.479 260.843 193.612 260.261 193.612 259.6ZM197.001 259.6C197.001 258.693 197.182 257.904 197.545 257.232C197.907 256.549 198.409 256.021 199.049 255.648C199.699 255.275 200.441 255.088 201.273 255.088C202.35 255.088 203.235 255.349 203.929 255.872C204.633 256.395 205.097 257.12 205.321 258.048H203.753C203.603 257.515 203.31 257.093 202.873 256.784C202.446 256.475 201.913 256.32 201.273 256.32C200.441 256.32 199.769 256.608 199.257 257.184C198.745 257.749 198.489 258.555 198.489 259.6C198.489 260.656 198.745 261.472 199.257 262.048C199.769 262.624 200.441 262.912 201.273 262.912C201.913 262.912 202.446 262.763 202.873 262.464C203.299 262.165 203.593 261.739 203.753 261.184H205.321C205.086 262.08 204.617 262.8 203.913 263.344C203.209 263.877 202.329 264.144 201.273 264.144C200.441 264.144 199.699 263.957 199.049 263.584C198.409 263.211 197.907 262.683 197.545 262C197.182 261.317 197.001 260.517 197.001 259.6ZM209.039 256.432V261.6C209.039 262.027 209.13 262.331 209.311 262.512C209.493 262.683 209.807 262.768 210.255 262.768H211.327V264H210.015C209.205 264 208.597 263.813 208.191 263.44C207.786 263.067 207.583 262.453 207.583 261.6V256.432H206.447V255.232H207.583V253.024H209.039V255.232H211.327V256.432H209.039ZM123.131 279.232L120.395 288H118.891L116.779 281.04L114.667 288H113.163L110.411 279.232H111.899L113.915 286.592L116.091 279.232H117.579L119.707 286.608L121.691 279.232H123.131ZM128.4 288.144C127.578 288.144 126.832 287.957 126.16 287.584C125.498 287.211 124.976 286.683 124.592 286C124.218 285.307 124.032 284.507 124.032 283.6C124.032 282.704 124.224 281.915 124.608 281.232C125.002 280.539 125.536 280.011 126.208 279.648C126.88 279.275 127.632 279.088 128.464 279.088C129.296 279.088 130.048 279.275 130.72 279.648C131.392 280.011 131.92 280.533 132.304 281.216C132.698 281.899 132.896 282.693 132.896 283.6C132.896 284.507 132.693 285.307 132.288 286C131.893 286.683 131.354 287.211 130.672 287.584C129.989 287.957 129.232 288.144 128.4 288.144ZM128.4 286.864C128.922 286.864 129.413 286.741 129.872 286.496C130.33 286.251 130.698 285.883 130.976 285.392C131.264 284.901 131.408 284.304 131.408 283.6C131.408 282.896 131.269 282.299 130.992 281.808C130.714 281.317 130.352 280.955 129.904 280.72C129.456 280.475 128.97 280.352 128.448 280.352C127.914 280.352 127.424 280.475 126.976 280.72C126.538 280.955 126.186 281.317 125.92 281.808C125.653 282.299 125.52 282.896 125.52 283.6C125.52 284.315 125.648 284.917 125.904 285.408C126.17 285.899 126.522 286.267 126.96 286.512C127.397 286.747 127.877 286.864 128.4 286.864ZM136.266 280.656C136.522 280.155 136.885 279.765 137.354 279.488C137.834 279.211 138.415 279.072 139.098 279.072V280.576H138.714C137.082 280.576 136.266 281.461 136.266 283.232V288H134.81V279.232H136.266V280.656ZM145.675 288L142.235 284.128V288H140.779V276.16H142.235V283.12L145.611 279.232H147.643L143.515 283.6L147.659 288H145.675Z" fill="black"/>
<path d="M209.955 92.438H198.632C198.079 92.438 197.632 91.99 197.632 91.438C197.632 90.886 198.079 90.438 198.632 90.438H208.274L196.689 69.096L185.103 90.438H194.632C195.185 90.438 195.632 90.886 195.632 91.438C195.632 91.99 195.185 92.438 194.632 92.438H183.422C183.069 92.438 182.743 92.252 182.563 91.949C182.382 91.646 182.375 91.27 182.543 90.961L195.81 66.523C195.985 66.201 196.323 66 196.689 66C197.055 66 197.393 66.201 197.568 66.523L210.834 90.961C211.002 91.271 210.995 91.647 210.814 91.949C210.633 92.252 210.307 92.438 209.955 92.438Z" fill="white"/>
<path d="M196.642 119.046C194.186 119.046 192.187 117.047 192.187 114.59V98.2568C192.187 97.7048 192.634 97.2568 193.187 97.2568H200.097C200.65 97.2568 201.097 97.7048 201.097 98.2568V114.59C201.097 117.047 199.098 119.046 196.642 119.046ZM194.187 99.2568V114.59C194.187 115.944 195.289 117.046 196.642 117.046C197.995 117.046 199.097 115.944 199.097 114.59V99.2568H194.187Z" fill="white"/>
<path d="M200.097 103.475H193.187C192.634 103.475 192.187 103.027 192.187 102.475C192.187 101.923 192.634 101.475 193.187 101.475H200.097C200.65 101.475 201.097 101.923 201.097 102.475C201.097 103.027 200.65 103.475 200.097 103.475Z" fill="white"/>
<path d="M156.118 104.377H133C132.447 104.377 132 103.929 132 103.377V95.2319C132 94.6799 132.447 94.2319 133 94.2319H156.117C156.67 94.2319 157.117 94.6799 157.117 95.2319V103.377C157.118 103.929 156.67 104.377 156.118 104.377ZM134 102.377H155.117V96.2319H134V102.377Z" fill="white"/>
<path d="M150.118 137.377H130C129.447 137.377 129 136.929 129 136.377V84.2329C129 83.6809 129.447 83.2329 130 83.2329H150.117C150.67 83.2329 151.117 83.6809 151.117 84.2329V92.3779C151.117 92.9299 150.67 93.3779 150.117 93.3779H131V127.233H150.117C150.67 127.233 151.117 127.681 151.117 128.233V136.378C151.118 136.929 150.67 137.377 150.118 137.377ZM131 135.377H149.117V129.232H131V135.377ZM131 91.3769H149.117V85.2319H131V91.3769Z" fill="white"/>
<path d="M176.118 93.3769H153C152.447 93.3769 152 92.9289 152 92.3769V84.2319C152 83.6799 152.447 83.2319 153 83.2319H176.117C176.67 83.2319 177.117 83.6799 177.117 84.2319V92.3769C177.118 92.9289 176.67 93.3769 176.118 93.3769ZM154 91.3769H175.117V85.2319H154V91.3769Z" fill="white"/>
<path d="M150.118 115.377H130C129.447 115.377 129 114.929 129 114.377C129 113.825 129.447 113.377 130 113.377H149.117V107.232H130C129.447 107.232 129 106.784 129 106.232C129 105.68 129.447 105.232 130 105.232H150.117C150.67 105.232 151.117 105.68 151.117 106.232V114.377C151.118 114.929 150.67 115.377 150.118 115.377Z" fill="white"/>
<path d="M176.118 115.377H153C152.447 115.377 152 114.929 152 114.377V106.232C152 105.68 152.447 105.232 153 105.232H176.117C176.67 105.232 177.117 105.68 177.117 106.232V114.377C177.118 114.929 176.67 115.377 176.118 115.377ZM154 113.377H175.117V107.232H154V113.377Z" fill="white"/>
<path d="M143.118 126.377H130C129.447 126.377 129 125.929 129 125.377C129 124.825 129.447 124.377 130 124.377H142.117V118.232H130C129.447 118.232 129 117.784 129 117.232C129 116.68 129.447 116.232 130 116.232H143.117C143.67 116.232 144.117 116.68 144.117 117.232V125.377C144.118 125.929 143.67 126.377 143.118 126.377Z" fill="white"/>
<path d="M169.118 126.377H146C145.447 126.377 145 125.929 145 125.377V117.232C145 116.68 145.447 116.232 146 116.232H169.117C169.67 116.232 170.117 116.68 170.117 117.232V125.377C170.118 125.929 169.67 126.377 169.118 126.377ZM147 124.377H168.117V118.232H147V124.377Z" fill="white"/>
<path d="M176.118 137.377H153C152.447 137.377 152 136.929 152 136.377V128.232C152 127.68 152.447 127.232 153 127.232H176.117C176.67 127.232 177.117 127.68 177.117 128.232V136.377C177.118 136.929 176.67 137.377 176.118 137.377ZM154 135.377H175.117V129.232H154V135.377Z" fill="white"/>
<path d="M182.118 104.377H159C158.447 104.377 158 103.929 158 103.377V95.2319C158 94.6799 158.447 94.2319 159 94.2319H182.117C182.67 94.2319 183.117 94.6799 183.117 95.2319V103.377C183.118 103.929 182.67 104.377 182.118 104.377ZM160 102.377H181.117V96.2319H160V102.377Z" fill="white"/>
<path d="M198.167 98.8567C197.614 98.8567 197.167 98.4087 197.167 97.8567V89.8297C197.167 89.5397 196.932 89.3047 196.643 89.3047C196.353 89.3047 196.118 89.5397 196.118 89.8297V97.8567C196.118 98.4087 195.671 98.8567 195.118 98.8567C194.565 98.8567 194.118 98.4087 194.118 97.8567V89.8297C194.118 88.4377 195.251 87.3047 196.643 87.3047C198.035 87.3047 199.167 88.4377 199.167 89.8297V97.8567C199.167 98.4087 198.72 98.8567 198.167 98.8567Z" fill="white"/>
</svg>
