<svg width="258" height="281" viewBox="0 0 258 281" fill="none" xmlns="http://www.w3.org/2000/svg">
<path d="M163.621 22.6767C179.838 26.5881 203.069 26.1279 214.903 36.0215C226.519 46.1453 226.519 66.6227 222.793 85.9498C219.286 105.047 211.835 123.223 199.562 135.418C187.29 147.612 170.415 154.055 154.197 155.205C137.98 156.586 122.639 152.674 105.545 149.913C88.2313 147.152 69.1648 145.542 55.358 135.418C41.332 125.294 32.785 106.657 33.0041 88.7108C33.0041 70.5342 41.9895 52.8177 51.6323 37.4021C61.2752 21.9864 71.7947 9.10169 84.7248 3.57967C97.655 -1.94236 113.215 0.128399 125.707 5.19025C137.98 10.4822 147.184 18.7652 163.621 22.6767Z" fill="#F66464"/>
<rect y="137" width="258" height="144" rx="28" fill="#EFEDED"/>
<path d="M60.1704 170.8C61.3224 170.8 62.3464 171.072 63.2424 171.616C64.1491 172.16 64.8158 172.944 65.2424 173.968H63.4824C63.1624 173.36 62.7144 172.896 62.1384 172.576C61.5624 172.256 60.9064 172.096 60.1704 172.096C59.3811 172.096 58.6664 172.277 58.0264 172.64C57.3971 172.992 56.9011 173.499 56.5384 174.16C56.1864 174.821 56.0104 175.584 56.0104 176.448C56.0104 177.312 56.1864 178.075 56.5384 178.736C56.9011 179.397 57.3971 179.909 58.0264 180.272C58.6664 180.635 59.3811 180.816 60.1704 180.816C60.9064 180.816 61.5624 180.656 62.1384 180.336C62.7144 180.005 63.1624 179.536 63.4824 178.928H65.2424C64.8158 179.952 64.1491 180.736 63.2424 181.28C62.3464 181.824 61.3224 182.096 60.1704 182.096C59.1358 182.096 58.1864 181.856 57.3224 181.376C56.4584 180.885 55.7758 180.213 55.2744 179.36C54.7731 178.496 54.5224 177.525 54.5224 176.448C54.5224 175.36 54.7731 174.389 55.2744 173.536C55.7758 172.672 56.4584 172 57.3224 171.52C58.1864 171.04 59.1358 170.8 60.1704 170.8ZM75.1839 173.216V182H73.7279V180.592C73.4399 181.104 73.0453 181.493 72.5439 181.76C72.0426 182.016 71.4826 182.144 70.8639 182.144C70.2346 182.144 69.6586 182.005 69.1359 181.728C68.6239 181.44 68.2133 181.019 67.9039 180.464C67.6053 179.909 67.4559 179.232 67.4559 178.432V173.216H68.8959V178.192C68.8959 179.067 69.1093 179.739 69.5359 180.208C69.9733 180.667 70.5653 180.896 71.3119 180.896C72.0586 180.896 72.6453 180.667 73.0719 180.208C73.5093 179.739 73.7279 179.067 73.7279 178.192V173.216H75.1839ZM79.0388 174.704C79.5615 173.616 80.4521 173.072 81.7108 173.072V174.592H81.3268C80.5801 174.592 80.0095 174.789 79.6148 175.184C79.2308 175.568 79.0388 176.24 79.0388 177.2V182H77.5828V173.216H79.0388V174.704ZM84.9294 174.704C85.4521 173.616 86.3428 173.072 87.6014 173.072V174.592H87.2174C86.4708 174.592 85.9001 174.789 85.5054 175.184C85.1214 175.568 84.9294 176.24 84.9294 177.2V182H83.4734V173.216H84.9294V174.704ZM97.3321 177.248C97.3321 177.557 97.3107 177.845 97.2681 178.112H90.2761C90.3187 178.987 90.5907 179.68 91.0921 180.192C91.6041 180.693 92.2547 180.944 93.0441 180.944C93.6414 180.944 94.1427 180.811 94.5481 180.544C94.9641 180.277 95.2681 179.925 95.4601 179.488H97.0281C96.7507 180.256 96.2707 180.891 95.5881 181.392C94.9161 181.893 94.0681 182.144 93.0441 182.144C92.2227 182.144 91.4867 181.957 90.8361 181.584C90.1961 181.211 89.6947 180.683 89.3321 180C88.9694 179.307 88.7881 178.512 88.7881 177.616C88.7881 176.709 88.9694 175.915 89.3321 175.232C89.6947 174.539 90.2067 174.005 90.8681 173.632C91.5294 173.259 92.2921 173.072 93.1561 173.072C93.9774 173.072 94.7027 173.253 95.3321 173.616C95.9614 173.979 96.4521 174.475 96.8041 175.104C97.1561 175.733 97.3321 176.448 97.3321 177.248ZM95.8121 177.056C95.8121 176.491 95.6894 176 95.4441 175.584C95.1987 175.157 94.8627 174.832 94.4361 174.608C94.0201 174.384 93.5561 174.272 93.0441 174.272C92.2867 174.272 91.6521 174.523 91.1401 175.024C90.6281 175.515 90.3454 176.192 90.2921 177.056H95.8121ZM103.465 173.072C104.095 173.072 104.665 173.216 105.177 173.504C105.7 173.781 106.111 174.203 106.409 174.768C106.719 175.323 106.873 176 106.873 176.8V182H105.433V177.04C105.433 176.155 105.22 175.483 104.793 175.024C104.367 174.565 103.775 174.336 103.017 174.336C102.271 174.336 101.679 174.565 101.241 175.024C100.815 175.483 100.601 176.155 100.601 177.04V182H99.1453V173.216H100.601V174.64C100.889 174.128 101.284 173.739 101.785 173.472C102.287 173.205 102.847 173.072 103.465 173.072ZM113.272 180.816V182H111.8C111.054 182 110.483 181.819 110.088 181.456C109.704 181.093 109.512 180.523 109.512 179.744V174.4H108.376V173.216H109.512V171.04H110.984V173.216H113.256V174.4H110.984V179.744C110.984 180.139 111.064 180.416 111.224 180.576C111.384 180.736 111.667 180.816 112.072 180.816H113.272ZM116.336 170.16V182H114.88V170.16H116.336ZM119.331 173.216L122.019 180.32L124.755 173.216H126.259L120.963 186.112H119.459L121.203 181.856L117.731 173.216H119.331ZM133.034 173.216L135.722 180.32L138.458 173.216H139.962L134.666 186.112H133.162L134.906 181.856L131.434 173.216H133.034ZM145.204 173.072C146.036 173.072 146.788 173.259 147.46 173.632C148.132 174.005 148.66 174.539 149.044 175.232C149.439 175.925 149.636 176.72 149.636 177.616C149.636 178.501 149.434 179.291 149.028 179.984C148.623 180.667 148.074 181.2 147.38 181.584C146.687 181.957 145.919 182.144 145.076 182.144C144.255 182.144 143.514 181.957 142.852 181.584C142.202 181.211 141.69 180.683 141.316 180C140.954 179.307 140.772 178.512 140.772 177.616C140.772 176.709 140.964 175.915 141.348 175.232C141.743 174.539 142.276 174.005 142.948 173.632C143.62 173.259 144.372 173.072 145.204 173.072ZM145.156 174.272C144.623 174.272 144.138 174.4 143.7 174.656C143.263 174.912 142.911 175.291 142.644 175.792C142.388 176.293 142.26 176.901 142.26 177.616C142.26 178.32 142.383 178.923 142.628 179.424C142.884 179.925 143.226 180.304 143.652 180.56C144.079 180.816 144.554 180.944 145.076 180.944C145.61 180.944 146.106 180.816 146.564 180.56C147.034 180.293 147.412 179.909 147.7 179.408C147.988 178.907 148.132 178.309 148.132 177.616C148.132 176.912 147.994 176.309 147.716 175.808C147.45 175.296 147.087 174.912 146.628 174.656C146.18 174.4 145.69 174.272 145.156 174.272ZM159.106 173.216V182H157.65V180.592C157.362 181.104 156.967 181.493 156.466 181.76C155.964 182.016 155.404 182.144 154.786 182.144C154.156 182.144 153.58 182.005 153.058 181.728C152.546 181.44 152.135 181.019 151.826 180.464C151.527 179.909 151.378 179.232 151.378 178.432V173.216H152.818V178.192C152.818 179.067 153.031 179.739 153.458 180.208C153.895 180.667 154.487 180.896 155.234 180.896C155.98 180.896 156.567 180.667 156.994 180.208C157.431 179.739 157.65 179.067 157.65 178.192V173.216H159.106ZM169.918 173.072C170.664 173.072 171.315 173.248 171.87 173.6C172.435 173.952 172.862 174.411 173.15 174.976V170.16H174.622V182H173.15V180.208C172.862 180.784 172.435 181.253 171.87 181.616C171.315 181.968 170.664 182.144 169.918 182.144C169.128 182.144 168.414 181.952 167.774 181.568C167.144 181.173 166.643 180.629 166.27 179.936C165.907 179.232 165.726 178.437 165.726 177.552C165.726 176.667 165.907 175.888 166.27 175.216C166.643 174.533 167.144 174.005 167.774 173.632C168.414 173.259 169.128 173.072 169.918 173.072ZM170.174 174.336C169.651 174.336 169.16 174.464 168.702 174.72C168.254 174.976 167.891 175.349 167.614 175.84C167.347 176.32 167.214 176.891 167.214 177.552C167.214 178.213 167.347 178.8 167.614 179.312C167.891 179.813 168.254 180.203 168.702 180.48C169.16 180.757 169.651 180.896 170.174 180.896C170.707 180.896 171.198 180.763 171.646 180.496C172.104 180.229 172.467 179.851 172.734 179.36C173.011 178.859 173.15 178.277 173.15 177.616C173.15 176.955 173.011 176.379 172.734 175.888C172.467 175.387 172.104 175.003 171.646 174.736C171.198 174.469 170.707 174.336 170.174 174.336ZM180.876 173.072C181.708 173.072 182.46 173.259 183.132 173.632C183.804 174.005 184.332 174.539 184.716 175.232C185.111 175.925 185.308 176.72 185.308 177.616C185.308 178.501 185.106 179.291 184.7 179.984C184.295 180.667 183.746 181.2 183.052 181.584C182.359 181.957 181.591 182.144 180.748 182.144C179.927 182.144 179.186 181.957 178.524 181.584C177.874 181.211 177.362 180.683 176.988 180C176.626 179.307 176.444 178.512 176.444 177.616C176.444 176.709 176.636 175.915 177.02 175.232C177.415 174.539 177.948 174.005 178.62 173.632C179.292 173.259 180.044 173.072 180.876 173.072ZM180.828 174.272C180.295 174.272 179.81 174.4 179.372 174.656C178.935 174.912 178.583 175.291 178.316 175.792C178.06 176.293 177.932 176.901 177.932 177.616C177.932 178.32 178.055 178.923 178.3 179.424C178.556 179.925 178.898 180.304 179.324 180.56C179.751 180.816 180.226 180.944 180.748 180.944C181.282 180.944 181.778 180.816 182.236 180.56C182.706 180.293 183.084 179.909 183.372 179.408C183.66 178.907 183.804 178.309 183.804 177.616C183.804 176.912 183.666 176.309 183.388 175.808C183.122 175.296 182.759 174.912 182.3 174.656C181.852 174.4 181.362 174.272 180.828 174.272ZM191.45 173.072C192.079 173.072 192.65 173.216 193.162 173.504C193.684 173.781 194.095 174.203 194.394 174.768C194.703 175.323 194.858 176 194.858 176.8V182H193.418V177.04C193.418 176.155 193.204 175.483 192.778 175.024C192.351 174.565 191.759 174.336 191.002 174.336C190.255 174.336 189.663 174.565 189.226 175.024C188.799 175.483 188.586 176.155 188.586 177.04V182H187.13V173.216H188.586V174.64C188.874 174.128 189.268 173.739 189.77 173.472C190.271 173.205 190.831 173.072 191.45 173.072ZM197.833 169.472C197.961 170.027 198.025 170.517 198.025 170.944C198.025 171.573 197.886 172.032 197.609 172.32C197.342 172.608 196.942 172.752 196.409 172.752V172.048C196.665 172.048 196.851 171.984 196.969 171.856C197.097 171.717 197.161 171.504 197.161 171.216V170.848H196.377V169.472H197.833ZM203.694 180.816V182H202.222C201.475 182 200.905 181.819 200.51 181.456C200.126 181.093 199.934 180.523 199.934 179.744V174.4H198.798V173.216H199.934V171.04H201.406V173.216H203.678V174.4H201.406V179.744C201.406 180.139 201.486 180.416 201.646 180.576C201.806 180.736 202.089 180.816 202.494 180.816H203.694ZM45.5903 197.072C46.2196 197.072 46.7903 197.216 47.3023 197.504C47.825 197.781 48.2356 198.203 48.5343 198.768C48.8436 199.323 48.9983 200 48.9983 200.8V206H47.5583V201.04C47.5583 200.155 47.345 199.483 46.9183 199.024C46.4916 198.565 45.8996 198.336 45.1423 198.336C44.3956 198.336 43.8036 198.565 43.3663 199.024C42.9396 199.483 42.7263 200.155 42.7263 201.04V206H41.2703V194.16H42.7263V198.64C43.0143 198.128 43.409 197.739 43.9103 197.472C44.4116 197.205 44.9716 197.072 45.5903 197.072ZM54.9332 197.072C55.6799 197.072 56.3305 197.248 56.8852 197.6C57.4505 197.952 57.8772 198.411 58.1652 198.976V197.216H59.6372V206H58.1652V204.208C57.8772 204.784 57.4505 205.253 56.8852 205.616C56.3305 205.968 55.6799 206.144 54.9332 206.144C54.1439 206.144 53.4292 205.952 52.7892 205.568C52.1599 205.173 51.6585 204.629 51.2852 203.936C50.9225 203.232 50.7412 202.437 50.7412 201.552C50.7412 200.667 50.9225 199.888 51.2852 199.216C51.6585 198.533 52.1599 198.005 52.7892 197.632C53.4292 197.259 54.1439 197.072 54.9332 197.072ZM55.1892 198.336C54.6665 198.336 54.1759 198.464 53.7172 198.72C53.2692 198.976 52.9065 199.349 52.6292 199.84C52.3625 200.32 52.2292 200.891 52.2292 201.552C52.2292 202.213 52.3625 202.8 52.6292 203.312C52.9065 203.813 53.2692 204.203 53.7172 204.48C54.1759 204.757 54.6665 204.896 55.1892 204.896C55.7225 204.896 56.2132 204.763 56.6612 204.496C57.1199 204.229 57.4825 203.851 57.7492 203.36C58.0265 202.859 58.1652 202.277 58.1652 201.616C58.1652 200.955 58.0265 200.379 57.7492 199.888C57.4825 199.387 57.1199 199.003 56.6612 198.736C56.2132 198.469 55.7225 198.336 55.1892 198.336ZM65.2679 204.64L67.9719 197.216H69.5399L66.0999 206H64.4519L61.0279 197.216H62.5799L65.2679 204.64ZM78.8946 201.248C78.8946 201.557 78.8732 201.845 78.8306 202.112H71.8386C71.8812 202.987 72.1532 203.68 72.6546 204.192C73.1666 204.693 73.8172 204.944 74.6066 204.944C75.2039 204.944 75.7052 204.811 76.1106 204.544C76.5266 204.277 76.8306 203.925 77.0226 203.488H78.5906C78.3132 204.256 77.8332 204.891 77.1506 205.392C76.4786 205.893 75.6306 206.144 74.6066 206.144C73.7852 206.144 73.0492 205.957 72.3986 205.584C71.7586 205.211 71.2572 204.683 70.8946 204C70.5319 203.307 70.3506 202.512 70.3506 201.616C70.3506 200.709 70.5319 199.915 70.8946 199.232C71.2572 198.539 71.7692 198.005 72.4306 197.632C73.0919 197.259 73.8546 197.072 74.7186 197.072C75.5399 197.072 76.2652 197.253 76.8946 197.616C77.5239 197.979 78.0146 198.475 78.3666 199.104C78.7186 199.733 78.8946 200.448 78.8946 201.248ZM77.3746 201.056C77.3746 200.491 77.2519 200 77.0066 199.584C76.7612 199.157 76.4252 198.832 75.9986 198.608C75.5826 198.384 75.1186 198.272 74.6066 198.272C73.8492 198.272 73.2146 198.523 72.7026 199.024C72.1906 199.515 71.9079 200.192 71.8546 201.056H77.3746ZM86.9607 194.16V206H85.5047V194.16H86.9607ZM92.9801 197.072C93.7267 197.072 94.3774 197.248 94.9321 197.6C95.4974 197.952 95.9241 198.411 96.2121 198.976V197.216H97.6841V206H96.2121V204.208C95.9241 204.784 95.4974 205.253 94.9321 205.616C94.3774 205.968 93.7267 206.144 92.9801 206.144C92.1907 206.144 91.4761 205.952 90.8361 205.568C90.2067 205.173 89.7054 204.629 89.3321 203.936C88.9694 203.232 88.7881 202.437 88.7881 201.552C88.7881 200.667 88.9694 199.888 89.3321 199.216C89.7054 198.533 90.2067 198.005 90.8361 197.632C91.4761 197.259 92.1907 197.072 92.9801 197.072ZM93.2361 198.336C92.7134 198.336 92.2227 198.464 91.7641 198.72C91.3161 198.976 90.9534 199.349 90.6761 199.84C90.4094 200.32 90.2761 200.891 90.2761 201.552C90.2761 202.213 90.4094 202.8 90.6761 203.312C90.9534 203.813 91.3161 204.203 91.7641 204.48C92.2227 204.757 92.7134 204.896 93.2361 204.896C93.7694 204.896 94.2601 204.763 94.7081 204.496C95.1667 204.229 95.5294 203.851 95.7961 203.36C96.0734 202.859 96.2121 202.277 96.2121 201.616C96.2121 200.955 96.0734 200.379 95.7961 199.888C95.5294 199.387 95.1667 199.003 94.7081 198.736C94.2601 198.469 93.7694 198.336 93.2361 198.336ZM104.787 197.072C105.576 197.072 106.285 197.259 106.915 197.632C107.555 198.005 108.056 198.533 108.419 199.216C108.792 199.888 108.979 200.667 108.979 201.552C108.979 202.437 108.792 203.232 108.419 203.936C108.056 204.629 107.555 205.173 106.915 205.568C106.285 205.952 105.576 206.144 104.787 206.144C104.04 206.144 103.384 205.968 102.819 205.616C102.264 205.253 101.837 204.784 101.539 204.208V206H100.083V194.16H101.539V198.976C101.837 198.411 102.264 197.952 102.819 197.6C103.384 197.248 104.04 197.072 104.787 197.072ZM104.499 198.336C103.976 198.336 103.485 198.469 103.027 198.736C102.579 199.003 102.216 199.387 101.939 199.888C101.672 200.379 101.539 200.955 101.539 201.616C101.539 202.277 101.672 202.859 101.939 203.36C102.216 203.851 102.579 204.229 103.027 204.496C103.485 204.763 103.976 204.896 104.499 204.896C105.021 204.896 105.512 204.763 105.971 204.496C106.429 204.219 106.792 203.824 107.059 203.312C107.336 202.8 107.475 202.213 107.475 201.552C107.475 200.891 107.336 200.32 107.059 199.84C106.792 199.349 106.429 198.976 105.971 198.72C105.523 198.464 105.032 198.336 104.499 198.336ZM114.658 197.072C115.49 197.072 116.242 197.259 116.914 197.632C117.586 198.005 118.114 198.539 118.498 199.232C118.892 199.925 119.09 200.72 119.09 201.616C119.09 202.501 118.887 203.291 118.482 203.984C118.076 204.667 117.527 205.2 116.834 205.584C116.14 205.957 115.372 206.144 114.53 206.144C113.708 206.144 112.967 205.957 112.306 205.584C111.655 205.211 111.143 204.683 110.77 204C110.407 203.307 110.226 202.512 110.226 201.616C110.226 200.709 110.418 199.915 110.802 199.232C111.196 198.539 111.73 198.005 112.402 197.632C113.074 197.259 113.826 197.072 114.658 197.072ZM114.61 198.272C114.076 198.272 113.591 198.4 113.154 198.656C112.716 198.912 112.364 199.291 112.098 199.792C111.842 200.293 111.714 200.901 111.714 201.616C111.714 202.32 111.836 202.923 112.082 203.424C112.338 203.925 112.679 204.304 113.106 204.56C113.532 204.816 114.007 204.944 114.53 204.944C115.063 204.944 115.559 204.816 116.018 204.56C116.487 204.293 116.866 203.909 117.154 203.408C117.442 202.907 117.586 202.309 117.586 201.616C117.586 200.912 117.447 200.309 117.17 199.808C116.903 199.296 116.54 198.912 116.082 198.656C115.634 198.4 115.143 198.272 114.61 198.272ZM122.367 198.704C122.89 197.616 123.78 197.072 125.039 197.072V198.592H124.655C123.908 198.592 123.338 198.789 122.943 199.184C122.559 199.568 122.367 200.24 122.367 201.2V206H120.911V197.216H122.367V198.704ZM135.278 197.072C136.334 197.072 137.193 197.317 137.854 197.808C138.526 198.299 138.996 198.997 139.262 199.904H137.694C137.524 199.392 137.23 198.992 136.814 198.704C136.398 198.416 135.886 198.272 135.278 198.272C134.446 198.272 133.774 198.565 133.262 199.152C132.761 199.728 132.51 200.549 132.51 201.616C132.51 202.672 132.761 203.493 133.262 204.08C133.774 204.656 134.446 204.944 135.278 204.944C135.897 204.944 136.409 204.805 136.814 204.528C137.22 204.251 137.513 203.845 137.694 203.312H139.262C138.996 204.176 138.521 204.864 137.838 205.376C137.166 205.888 136.313 206.144 135.278 206.144C134.457 206.144 133.721 205.957 133.07 205.584C132.43 205.211 131.929 204.683 131.566 204C131.204 203.307 131.022 202.512 131.022 201.616C131.022 200.709 131.204 199.915 131.566 199.232C131.929 198.539 132.43 198.005 133.07 197.632C133.71 197.259 134.446 197.072 135.278 197.072ZM144.808 197.072C145.555 197.072 146.206 197.248 146.76 197.6C147.326 197.952 147.752 198.411 148.04 198.976V197.216H149.512V206H148.04V204.208C147.752 204.784 147.326 205.253 146.76 205.616C146.206 205.968 145.555 206.144 144.808 206.144C144.019 206.144 143.304 205.952 142.664 205.568C142.035 205.173 141.534 204.629 141.16 203.936C140.798 203.232 140.616 202.437 140.616 201.552C140.616 200.667 140.798 199.888 141.16 199.216C141.534 198.533 142.035 198.005 142.664 197.632C143.304 197.259 144.019 197.072 144.808 197.072ZM145.064 198.336C144.542 198.336 144.051 198.464 143.592 198.72C143.144 198.976 142.782 199.349 142.504 199.84C142.238 200.32 142.104 200.891 142.104 201.552C142.104 202.213 142.238 202.8 142.504 203.312C142.782 203.813 143.144 204.203 143.592 204.48C144.051 204.757 144.542 204.896 145.064 204.896C145.598 204.896 146.088 204.763 146.536 204.496C146.995 204.229 147.358 203.851 147.624 203.36C147.902 202.859 148.04 202.277 148.04 201.616C148.04 200.955 147.902 200.379 147.624 199.888C147.358 199.387 146.995 199.003 146.536 198.736C146.088 198.469 145.598 198.336 145.064 198.336ZM155.991 204.816V206H154.519C153.772 206 153.202 205.819 152.807 205.456C152.423 205.093 152.231 204.523 152.231 203.744V198.4H151.095V197.216H152.231V195.04H153.703V197.216H155.975V198.4H153.703V203.744C153.703 204.139 153.783 204.416 153.943 204.576C154.103 204.736 154.386 204.816 154.791 204.816H155.991ZM165.566 201.248C165.566 201.557 165.545 201.845 165.502 202.112H158.51C158.553 202.987 158.825 203.68 159.326 204.192C159.838 204.693 160.489 204.944 161.278 204.944C161.876 204.944 162.377 204.811 162.782 204.544C163.198 204.277 163.502 203.925 163.694 203.488H165.262C164.985 204.256 164.505 204.891 163.822 205.392C163.15 205.893 162.302 206.144 161.278 206.144C160.457 206.144 159.721 205.957 159.07 205.584C158.43 205.211 157.929 204.683 157.566 204C157.204 203.307 157.022 202.512 157.022 201.616C157.022 200.709 157.204 199.915 157.566 199.232C157.929 198.539 158.441 198.005 159.102 197.632C159.764 197.259 160.526 197.072 161.39 197.072C162.212 197.072 162.937 197.253 163.566 197.616C164.196 197.979 164.686 198.475 165.038 199.104C165.39 199.733 165.566 200.448 165.566 201.248ZM164.046 201.056C164.046 200.491 163.924 200 163.678 199.584C163.433 199.157 163.097 198.832 162.67 198.608C162.254 198.384 161.79 198.272 161.278 198.272C160.521 198.272 159.886 198.523 159.374 199.024C158.862 199.515 158.58 200.192 158.526 201.056H164.046ZM170.996 197.072C171.742 197.072 172.393 197.248 172.948 197.6C173.513 197.952 173.94 198.411 174.228 198.976V197.216H175.7V206.224C175.7 207.024 175.524 207.733 175.172 208.352C174.82 208.971 174.324 209.451 173.684 209.792C173.044 210.144 172.302 210.32 171.46 210.32C170.724 210.32 170.052 210.192 169.444 209.936C168.836 209.691 168.34 209.339 167.956 208.88C167.572 208.421 167.342 207.899 167.268 207.312H168.692C168.83 207.813 169.156 208.229 169.668 208.56C170.18 208.891 170.777 209.056 171.46 209.056C172.292 209.056 172.958 208.805 173.46 208.304C173.972 207.813 174.228 207.12 174.228 206.224V204.208C173.94 204.784 173.513 205.253 172.948 205.616C172.393 205.968 171.742 206.144 170.996 206.144C170.206 206.144 169.492 205.952 168.852 205.568C168.222 205.173 167.721 204.629 167.348 203.936C166.985 203.232 166.804 202.437 166.804 201.552C166.804 200.667 166.985 199.888 167.348 199.216C167.721 198.533 168.222 198.005 168.852 197.632C169.492 197.259 170.206 197.072 170.996 197.072ZM171.252 198.336C170.729 198.336 170.238 198.464 169.78 198.72C169.332 198.976 168.969 199.349 168.692 199.84C168.425 200.32 168.292 200.891 168.292 201.552C168.292 202.213 168.425 202.8 168.692 203.312C168.969 203.813 169.332 204.203 169.78 204.48C170.238 204.757 170.729 204.896 171.252 204.896C171.785 204.896 172.276 204.763 172.724 204.496C173.182 204.229 173.545 203.851 173.812 203.36C174.089 202.859 174.228 202.277 174.228 201.616C174.228 200.955 174.089 200.379 173.812 199.888C173.545 199.387 173.182 199.003 172.724 198.736C172.276 198.469 171.785 198.336 171.252 198.336ZM181.954 197.072C182.786 197.072 183.538 197.259 184.21 197.632C184.882 198.005 185.41 198.539 185.794 199.232C186.189 199.925 186.386 200.72 186.386 201.616C186.386 202.501 186.184 203.291 185.778 203.984C185.373 204.667 184.824 205.2 184.13 205.584C183.437 205.957 182.669 206.144 181.826 206.144C181.005 206.144 180.264 205.957 179.602 205.584C178.952 205.211 178.44 204.683 178.066 204C177.704 203.307 177.522 202.512 177.522 201.616C177.522 200.709 177.714 199.915 178.098 199.232C178.493 198.539 179.026 198.005 179.698 197.632C180.37 197.259 181.122 197.072 181.954 197.072ZM181.906 198.272C181.373 198.272 180.888 198.4 180.45 198.656C180.013 198.912 179.661 199.291 179.394 199.792C179.138 200.293 179.01 200.901 179.01 201.616C179.01 202.32 179.133 202.923 179.378 203.424C179.634 203.925 179.976 204.304 180.402 204.56C180.829 204.816 181.304 204.944 181.826 204.944C182.36 204.944 182.856 204.816 183.314 204.56C183.784 204.293 184.162 203.909 184.45 203.408C184.738 202.907 184.882 202.309 184.882 201.616C184.882 200.912 184.744 200.309 184.466 199.808C184.2 199.296 183.837 198.912 183.378 198.656C182.93 198.4 182.44 198.272 181.906 198.272ZM189.664 198.704C190.186 197.616 191.077 197.072 192.336 197.072V198.592H191.952C191.205 198.592 190.634 198.789 190.24 199.184C189.856 199.568 189.664 200.24 189.664 201.2V206H188.208V197.216H189.664V198.704ZM193.858 194.816C193.858 194.539 193.954 194.304 194.146 194.112C194.338 193.92 194.568 193.824 194.834 193.824C195.112 193.824 195.346 193.92 195.538 194.112C195.73 194.304 195.826 194.539 195.826 194.816C195.826 195.093 195.73 195.328 195.538 195.52C195.346 195.712 195.112 195.808 194.834 195.808C194.557 195.808 194.322 195.712 194.13 195.52C193.949 195.328 193.858 195.093 193.858 194.816ZM195.554 197.216V206H194.098V197.216H195.554ZM205.926 201.248C205.926 201.557 205.904 201.845 205.862 202.112H198.87C198.912 202.987 199.184 203.68 199.686 204.192C200.198 204.693 200.848 204.944 201.638 204.944C202.235 204.944 202.736 204.811 203.142 204.544C203.558 204.277 203.862 203.925 204.054 203.488H205.622C205.344 204.256 204.864 204.891 204.182 205.392C203.51 205.893 202.662 206.144 201.638 206.144C200.816 206.144 200.08 205.957 199.43 205.584C198.79 205.211 198.288 204.683 197.926 204C197.563 203.307 197.382 202.512 197.382 201.616C197.382 200.709 197.563 199.915 197.926 199.232C198.288 198.539 198.8 198.005 199.462 197.632C200.123 197.259 200.886 197.072 201.75 197.072C202.571 197.072 203.296 197.253 203.926 197.616C204.555 197.979 205.046 198.475 205.398 199.104C205.75 199.733 205.926 200.448 205.926 201.248ZM204.406 201.056C204.406 200.491 204.283 200 204.038 199.584C203.792 199.157 203.456 198.832 203.03 198.608C202.614 198.384 202.15 198.272 201.638 198.272C200.88 198.272 200.246 198.523 199.734 199.024C199.222 199.515 198.939 200.192 198.886 201.056H204.406ZM210.763 197.072C211.712 197.072 212.464 197.323 213.019 197.824C213.574 198.315 213.878 198.992 213.931 199.856H212.427C212.406 199.365 212.24 198.971 211.931 198.672C211.622 198.373 211.195 198.224 210.651 198.224C210.096 198.224 209.659 198.357 209.339 198.624C209.03 198.88 208.875 199.205 208.875 199.6C208.875 199.931 208.971 200.197 209.163 200.4C209.366 200.592 209.611 200.736 209.899 200.832C210.198 200.928 210.598 201.029 211.099 201.136C211.739 201.285 212.251 201.435 212.635 201.584C213.03 201.723 213.366 201.963 213.643 202.304C213.92 202.635 214.059 203.088 214.059 203.664C214.059 204.144 213.92 204.576 213.643 204.96C213.366 205.333 212.976 205.627 212.475 205.84C211.974 206.043 211.398 206.144 210.747 206.144C209.766 206.144 208.976 205.899 208.379 205.408C207.792 204.917 207.472 204.24 207.419 203.376H208.923C208.944 203.867 209.115 204.261 209.435 204.56C209.766 204.848 210.203 204.992 210.747 204.992C211.344 204.992 211.803 204.869 212.123 204.624C212.454 204.379 212.619 204.053 212.619 203.648C212.619 203.317 212.518 203.056 212.315 202.864C212.123 202.661 211.878 202.512 211.579 202.416C211.28 202.309 210.87 202.197 210.347 202.08C209.718 201.941 209.206 201.803 208.811 201.664C208.427 201.515 208.096 201.285 207.819 200.976C207.552 200.667 207.419 200.24 207.419 199.696C207.419 199.216 207.552 198.779 207.819 198.384C208.096 197.979 208.486 197.659 208.987 197.424C209.499 197.189 210.091 197.072 210.763 197.072ZM217.073 204.928C217.212 205.493 217.281 206.011 217.281 206.48C217.281 207.685 216.732 208.288 215.633 208.288V207.584C215.9 207.584 216.092 207.52 216.209 207.392C216.337 207.264 216.401 207.061 216.401 206.784V206.416H215.585V204.928H217.073ZM57.0915 222.072C57.8808 222.072 58.5902 222.259 59.2195 222.632C59.8595 223.005 60.3608 223.533 60.7235 224.216C61.0968 224.888 61.2835 225.667 61.2835 226.552C61.2835 227.437 61.0968 228.232 60.7235 228.936C60.3608 229.629 59.8595 230.173 59.2195 230.568C58.5902 230.952 57.8808 231.144 57.0915 231.144C56.3448 231.144 55.6888 230.968 55.1235 230.616C54.5688 230.253 54.1422 229.784 53.8435 229.208V235.16H52.3875V222.216H53.8435V223.976C54.1422 223.411 54.5688 222.952 55.1235 222.6C55.6888 222.248 56.3448 222.072 57.0915 222.072ZM56.8035 223.336C56.2808 223.336 55.7902 223.469 55.3315 223.736C54.8835 224.003 54.5208 224.387 54.2435 224.888C53.9768 225.379 53.8435 225.955 53.8435 226.616C53.8435 227.277 53.9768 227.859 54.2435 228.36C54.5208 228.851 54.8835 229.229 55.3315 229.496C55.7902 229.763 56.2808 229.896 56.8035 229.896C57.3262 229.896 57.8168 229.763 58.2755 229.496C58.7342 229.219 59.0968 228.824 59.3635 228.312C59.6408 227.8 59.7795 227.213 59.7795 226.552C59.7795 225.891 59.6408 225.32 59.3635 224.84C59.0968 224.349 58.7342 223.976 58.2755 223.72C57.8275 223.464 57.3368 223.336 56.8035 223.336ZM64.5623 219.16V231H63.1063V219.16H64.5623ZM74.9336 226.248C74.9336 226.557 74.9123 226.845 74.8696 227.112H67.8776C67.9203 227.987 68.1923 228.68 68.6936 229.192C69.2056 229.693 69.8563 229.944 70.6456 229.944C71.243 229.944 71.7443 229.811 72.1496 229.544C72.5656 229.277 72.8696 228.925 73.0616 228.488H74.6296C74.3523 229.256 73.8723 229.891 73.1896 230.392C72.5176 230.893 71.6696 231.144 70.6456 231.144C69.8243 231.144 69.0883 230.957 68.4376 230.584C67.7976 230.211 67.2963 229.683 66.9336 229C66.571 228.307 66.3896 227.512 66.3896 226.616C66.3896 225.709 66.571 224.915 66.9336 224.232C67.2963 223.539 67.8083 223.005 68.4696 222.632C69.131 222.259 69.8936 222.072 70.7576 222.072C71.579 222.072 72.3043 222.253 72.9336 222.616C73.563 222.979 74.0536 223.475 74.4056 224.104C74.7576 224.733 74.9336 225.448 74.9336 226.248ZM73.4136 226.056C73.4136 225.491 73.291 225 73.0456 224.584C72.8003 224.157 72.4643 223.832 72.0376 223.608C71.6216 223.384 71.1576 223.272 70.6456 223.272C69.8883 223.272 69.2536 223.523 68.7416 224.024C68.2296 224.515 67.947 225.192 67.8936 226.056H73.4136ZM80.3629 222.072C81.1095 222.072 81.7602 222.248 82.3149 222.6C82.8802 222.952 83.3069 223.411 83.5949 223.976V222.216H85.0669V231H83.5949V229.208C83.3069 229.784 82.8802 230.253 82.3149 230.616C81.7602 230.968 81.1095 231.144 80.3629 231.144C79.5735 231.144 78.8589 230.952 78.2189 230.568C77.5895 230.173 77.0882 229.629 76.7149 228.936C76.3522 228.232 76.1709 227.437 76.1709 226.552C76.1709 225.667 76.3522 224.888 76.7149 224.216C77.0882 223.533 77.5895 223.005 78.2189 222.632C78.8589 222.259 79.5735 222.072 80.3629 222.072ZM80.6189 223.336C80.0962 223.336 79.6055 223.464 79.1469 223.72C78.6989 223.976 78.3362 224.349 78.0589 224.84C77.7922 225.32 77.6589 225.891 77.6589 226.552C77.6589 227.213 77.7922 227.8 78.0589 228.312C78.3362 228.813 78.6989 229.203 79.1469 229.48C79.6055 229.757 80.0962 229.896 80.6189 229.896C81.1522 229.896 81.6429 229.763 82.0909 229.496C82.5495 229.229 82.9122 228.851 83.1789 228.36C83.4562 227.859 83.5949 227.277 83.5949 226.616C83.5949 225.955 83.4562 225.379 83.1789 224.888C82.9122 224.387 82.5495 224.003 82.0909 223.736C81.6429 223.469 81.1522 223.336 80.6189 223.336ZM90.4896 222.072C91.439 222.072 92.191 222.323 92.7456 222.824C93.3003 223.315 93.6043 223.992 93.6576 224.856H92.1536C92.1323 224.365 91.967 223.971 91.6576 223.672C91.3483 223.373 90.9216 223.224 90.3776 223.224C89.823 223.224 89.3856 223.357 89.0656 223.624C88.7563 223.88 88.6016 224.205 88.6016 224.6C88.6016 224.931 88.6976 225.197 88.8896 225.4C89.0923 225.592 89.3376 225.736 89.6256 225.832C89.9243 225.928 90.3243 226.029 90.8256 226.136C91.4656 226.285 91.9776 226.435 92.3616 226.584C92.7563 226.723 93.0923 226.963 93.3696 227.304C93.647 227.635 93.7856 228.088 93.7856 228.664C93.7856 229.144 93.647 229.576 93.3696 229.96C93.0923 230.333 92.703 230.627 92.2016 230.84C91.7003 231.043 91.1243 231.144 90.4736 231.144C89.4923 231.144 88.703 230.899 88.1056 230.408C87.519 229.917 87.199 229.24 87.1456 228.376H88.6496C88.671 228.867 88.8416 229.261 89.1616 229.56C89.4923 229.848 89.9296 229.992 90.4736 229.992C91.071 229.992 91.5296 229.869 91.8496 229.624C92.1803 229.379 92.3456 229.053 92.3456 228.648C92.3456 228.317 92.2443 228.056 92.0416 227.864C91.8496 227.661 91.6043 227.512 91.3056 227.416C91.007 227.309 90.5963 227.197 90.0736 227.08C89.4443 226.941 88.9323 226.803 88.5376 226.664C88.1536 226.515 87.823 226.285 87.5456 225.976C87.279 225.667 87.1456 225.24 87.1456 224.696C87.1456 224.216 87.279 223.779 87.5456 223.384C87.823 222.979 88.2123 222.659 88.7136 222.424C89.2256 222.189 89.8176 222.072 90.4896 222.072ZM103.856 226.248C103.856 226.557 103.834 226.845 103.792 227.112H96.7995C96.8422 227.987 97.1142 228.68 97.6155 229.192C98.1275 229.693 98.7782 229.944 99.5675 229.944C100.165 229.944 100.666 229.811 101.072 229.544C101.488 229.277 101.792 228.925 101.984 228.488H103.552C103.274 229.256 102.794 229.891 102.112 230.392C101.44 230.893 100.592 231.144 99.5675 231.144C98.7462 231.144 98.0102 230.957 97.3595 230.584C96.7195 230.211 96.2182 229.683 95.8555 229C95.4928 228.307 95.3115 227.512 95.3115 226.616C95.3115 225.709 95.4928 224.915 95.8555 224.232C96.2182 223.539 96.7302 223.005 97.3915 222.632C98.0528 222.259 98.8155 222.072 99.6795 222.072C100.501 222.072 101.226 222.253 101.856 222.616C102.485 222.979 102.976 223.475 103.328 224.104C103.68 224.733 103.856 225.448 103.856 226.248ZM102.336 226.056C102.336 225.491 102.213 225 101.968 224.584C101.722 224.157 101.386 223.832 100.96 223.608C100.544 223.384 100.08 223.272 99.5675 223.272C98.8102 223.272 98.1755 223.523 97.6635 224.024C97.1515 224.515 96.8688 225.192 96.8155 226.056H102.336ZM114.146 222.072C115.202 222.072 116.06 222.317 116.722 222.808C117.394 223.299 117.863 223.997 118.13 224.904H116.562C116.391 224.392 116.098 223.992 115.682 223.704C115.266 223.416 114.754 223.272 114.146 223.272C113.314 223.272 112.642 223.565 112.13 224.152C111.628 224.728 111.378 225.549 111.378 226.616C111.378 227.672 111.628 228.493 112.13 229.08C112.642 229.656 113.314 229.944 114.146 229.944C114.764 229.944 115.276 229.805 115.682 229.528C116.087 229.251 116.38 228.845 116.562 228.312H118.13C117.863 229.176 117.388 229.864 116.706 230.376C116.034 230.888 115.18 231.144 114.146 231.144C113.324 231.144 112.588 230.957 111.938 230.584C111.298 230.211 110.796 229.683 110.434 229C110.071 228.307 109.89 227.512 109.89 226.616C109.89 225.709 110.071 224.915 110.434 224.232C110.796 223.539 111.298 223.005 111.938 222.632C112.578 222.259 113.314 222.072 114.146 222.072ZM121.515 223.704C122.038 222.616 122.929 222.072 124.187 222.072V223.592H123.803C123.057 223.592 122.486 223.789 122.091 224.184C121.707 224.568 121.515 225.24 121.515 226.2V231H120.059V222.216H121.515V223.704ZM133.918 226.248C133.918 226.557 133.897 226.845 133.854 227.112H126.862C126.905 227.987 127.177 228.68 127.678 229.192C128.19 229.693 128.841 229.944 129.63 229.944C130.227 229.944 130.729 229.811 131.134 229.544C131.55 229.277 131.854 228.925 132.046 228.488H133.614C133.337 229.256 132.857 229.891 132.174 230.392C131.502 230.893 130.654 231.144 129.63 231.144C128.809 231.144 128.073 230.957 127.422 230.584C126.782 230.211 126.281 229.683 125.918 229C125.555 228.307 125.374 227.512 125.374 226.616C125.374 225.709 125.555 224.915 125.918 224.232C126.281 223.539 126.793 223.005 127.454 222.632C128.115 222.259 128.878 222.072 129.742 222.072C130.563 222.072 131.289 222.253 131.918 222.616C132.547 222.979 133.038 223.475 133.39 224.104C133.742 224.733 133.918 225.448 133.918 226.248ZM132.398 226.056C132.398 225.491 132.275 225 132.03 224.584C131.785 224.157 131.449 223.832 131.022 223.608C130.606 223.384 130.142 223.272 129.63 223.272C128.873 223.272 128.238 223.523 127.726 224.024C127.214 224.515 126.931 225.192 126.878 226.056H132.398ZM139.347 222.072C140.094 222.072 140.745 222.248 141.299 222.6C141.865 222.952 142.291 223.411 142.579 223.976V222.216H144.051V231H142.579V229.208C142.291 229.784 141.865 230.253 141.299 230.616C140.745 230.968 140.094 231.144 139.347 231.144C138.558 231.144 137.843 230.952 137.203 230.568C136.574 230.173 136.073 229.629 135.699 228.936C135.337 228.232 135.155 227.437 135.155 226.552C135.155 225.667 135.337 224.888 135.699 224.216C136.073 223.533 136.574 223.005 137.203 222.632C137.843 222.259 138.558 222.072 139.347 222.072ZM139.603 223.336C139.081 223.336 138.59 223.464 138.131 223.72C137.683 223.976 137.321 224.349 137.043 224.84C136.777 225.32 136.643 225.891 136.643 226.552C136.643 227.213 136.777 227.8 137.043 228.312C137.321 228.813 137.683 229.203 138.131 229.48C138.59 229.757 139.081 229.896 139.603 229.896C140.137 229.896 140.627 229.763 141.075 229.496C141.534 229.229 141.897 228.851 142.163 228.36C142.441 227.859 142.579 227.277 142.579 226.616C142.579 225.955 142.441 225.379 142.163 224.888C141.897 224.387 141.534 224.003 141.075 223.736C140.627 223.469 140.137 223.336 139.603 223.336ZM150.53 229.816V231H149.058C148.311 231 147.741 230.819 147.346 230.456C146.962 230.093 146.77 229.523 146.77 228.744V223.4H145.634V222.216H146.77V220.04H148.242V222.216H150.514V223.4H148.242V228.744C148.242 229.139 148.322 229.416 148.482 229.576C148.642 229.736 148.925 229.816 149.33 229.816H150.53ZM160.106 226.248C160.106 226.557 160.084 226.845 160.042 227.112H153.049C153.092 227.987 153.364 228.68 153.866 229.192C154.378 229.693 155.028 229.944 155.818 229.944C156.415 229.944 156.916 229.811 157.322 229.544C157.738 229.277 158.042 228.925 158.234 228.488H159.802C159.524 229.256 159.044 229.891 158.362 230.392C157.69 230.893 156.842 231.144 155.818 231.144C154.996 231.144 154.26 230.957 153.61 230.584C152.97 230.211 152.468 229.683 152.106 229C151.743 228.307 151.562 227.512 151.562 226.616C151.562 225.709 151.743 224.915 152.106 224.232C152.468 223.539 152.98 223.005 153.642 222.632C154.303 222.259 155.066 222.072 155.93 222.072C156.751 222.072 157.476 222.253 158.106 222.616C158.735 222.979 159.226 223.475 159.578 224.104C159.93 224.733 160.106 225.448 160.106 226.248ZM158.586 226.056C158.586 225.491 158.463 225 158.218 224.584C157.972 224.157 157.636 223.832 157.21 223.608C156.794 223.384 156.33 223.272 155.818 223.272C155.06 223.272 154.426 223.523 153.914 224.024C153.402 224.515 153.119 225.192 153.066 226.056H158.586ZM168.172 219.16V231H166.716V219.16H168.172ZM174.191 222.072C174.938 222.072 175.588 222.248 176.143 222.6C176.708 222.952 177.135 223.411 177.423 223.976V222.216H178.895V231H177.423V229.208C177.135 229.784 176.708 230.253 176.143 230.616C175.588 230.968 174.938 231.144 174.191 231.144C173.402 231.144 172.687 230.952 172.047 230.568C171.418 230.173 170.916 229.629 170.543 228.936C170.18 228.232 169.999 227.437 169.999 226.552C169.999 225.667 170.18 224.888 170.543 224.216C170.916 223.533 171.418 223.005 172.047 222.632C172.687 222.259 173.402 222.072 174.191 222.072ZM174.447 223.336C173.924 223.336 173.434 223.464 172.975 223.72C172.527 223.976 172.164 224.349 171.887 224.84C171.62 225.32 171.487 225.891 171.487 226.552C171.487 227.213 171.62 227.8 171.887 228.312C172.164 228.813 172.527 229.203 172.975 229.48C173.434 229.757 173.924 229.896 174.447 229.896C174.98 229.896 175.471 229.763 175.919 229.496C176.378 229.229 176.74 228.851 177.007 228.36C177.284 227.859 177.423 227.277 177.423 226.616C177.423 225.955 177.284 225.379 177.007 224.888C176.74 224.387 176.378 224.003 175.919 223.736C175.471 223.469 174.98 223.336 174.447 223.336ZM185.998 222.072C186.787 222.072 187.496 222.259 188.126 222.632C188.766 223.005 189.267 223.533 189.63 224.216C190.003 224.888 190.19 225.667 190.19 226.552C190.19 227.437 190.003 228.232 189.63 228.936C189.267 229.629 188.766 230.173 188.126 230.568C187.496 230.952 186.787 231.144 185.998 231.144C185.251 231.144 184.595 230.968 184.03 230.616C183.475 230.253 183.048 229.784 182.75 229.208V231H181.294V219.16H182.75V223.976C183.048 223.411 183.475 222.952 184.03 222.6C184.595 222.248 185.251 222.072 185.998 222.072ZM185.71 223.336C185.187 223.336 184.696 223.469 184.238 223.736C183.79 224.003 183.427 224.387 183.15 224.888C182.883 225.379 182.75 225.955 182.75 226.616C182.75 227.277 182.883 227.859 183.15 228.36C183.427 228.851 183.79 229.229 184.238 229.496C184.696 229.763 185.187 229.896 185.71 229.896C186.232 229.896 186.723 229.763 187.182 229.496C187.64 229.219 188.003 228.824 188.27 228.312C188.547 227.8 188.686 227.213 188.686 226.552C188.686 225.891 188.547 225.32 188.27 224.84C188.003 224.349 187.64 223.976 187.182 223.72C186.734 223.464 186.243 223.336 185.71 223.336ZM195.869 222.072C196.701 222.072 197.453 222.259 198.125 222.632C198.797 223.005 199.325 223.539 199.709 224.232C200.103 224.925 200.301 225.72 200.301 226.616C200.301 227.501 200.098 228.291 199.693 228.984C199.287 229.667 198.738 230.2 198.045 230.584C197.351 230.957 196.583 231.144 195.741 231.144C194.919 231.144 194.178 230.957 193.517 230.584C192.866 230.211 192.354 229.683 191.981 229C191.618 228.307 191.437 227.512 191.437 226.616C191.437 225.709 191.629 224.915 192.013 224.232C192.407 223.539 192.941 223.005 193.613 222.632C194.285 222.259 195.037 222.072 195.869 222.072ZM195.821 223.272C195.287 223.272 194.802 223.4 194.365 223.656C193.927 223.912 193.575 224.291 193.309 224.792C193.053 225.293 192.924 225.901 192.924 226.616C192.924 227.32 193.047 227.923 193.293 228.424C193.549 228.925 193.89 229.304 194.317 229.56C194.743 229.816 195.218 229.944 195.741 229.944C196.274 229.944 196.77 229.816 197.229 229.56C197.698 229.293 198.077 228.909 198.365 228.408C198.653 227.907 198.797 227.309 198.797 226.616C198.797 225.912 198.658 225.309 198.381 224.808C198.114 224.296 197.751 223.912 197.293 223.656C196.845 223.4 196.354 223.272 195.821 223.272ZM203.578 223.704C204.101 222.616 204.991 222.072 206.25 222.072V223.592H205.866C205.119 223.592 204.549 223.789 204.154 224.184C203.77 224.568 203.578 225.24 203.578 226.2V231H202.122V222.216H203.578V223.704ZM87.9894 246.072C89.0454 246.072 89.904 246.317 90.5654 246.808C91.2374 247.299 91.7067 247.997 91.9734 248.904H90.4054C90.2347 248.392 89.9414 247.992 89.5254 247.704C89.1094 247.416 88.5974 247.272 87.9894 247.272C87.1574 247.272 86.4854 247.565 85.9734 248.152C85.472 248.728 85.2214 249.549 85.2214 250.616C85.2214 251.672 85.472 252.493 85.9734 253.08C86.4854 253.656 87.1574 253.944 87.9894 253.944C88.608 253.944 89.12 253.805 89.5254 253.528C89.9307 253.251 90.224 252.845 90.4054 252.312H91.9734C91.7067 253.176 91.232 253.864 90.5494 254.376C89.8774 254.888 89.024 255.144 87.9894 255.144C87.168 255.144 86.432 254.957 85.7814 254.584C85.1414 254.211 84.64 253.683 84.2774 253C83.9147 252.307 83.7334 251.512 83.7334 250.616C83.7334 249.709 83.9147 248.915 84.2774 248.232C84.64 247.539 85.1414 247.005 85.7814 246.632C86.4214 246.259 87.1574 246.072 87.9894 246.072ZM97.5191 246.072C98.2658 246.072 98.9165 246.248 99.4711 246.6C100.036 246.952 100.463 247.411 100.751 247.976V246.216H102.223V255H100.751V253.208C100.463 253.784 100.036 254.253 99.4711 254.616C98.9165 254.968 98.2658 255.144 97.5191 255.144C96.7298 255.144 96.0151 254.952 95.3751 254.568C94.7458 254.173 94.2445 253.629 93.8711 252.936C93.5085 252.232 93.3271 251.437 93.3271 250.552C93.3271 249.667 93.5085 248.888 93.8711 248.216C94.2445 247.533 94.7458 247.005 95.3751 246.632C96.0151 246.259 96.7298 246.072 97.5191 246.072ZM97.7751 247.336C97.2525 247.336 96.7618 247.464 96.3031 247.72C95.8551 247.976 95.4925 248.349 95.2151 248.84C94.9485 249.32 94.8151 249.891 94.8151 250.552C94.8151 251.213 94.9485 251.8 95.2151 252.312C95.4925 252.813 95.8551 253.203 96.3031 253.48C96.7618 253.757 97.2525 253.896 97.7751 253.896C98.3085 253.896 98.7991 253.763 99.2471 253.496C99.7058 253.229 100.068 252.851 100.335 252.36C100.612 251.859 100.751 251.277 100.751 250.616C100.751 249.955 100.612 249.379 100.335 248.888C100.068 248.387 99.7058 248.003 99.2471 247.736C98.7991 247.469 98.3085 247.336 97.7751 247.336ZM108.702 253.816V255H107.23C106.483 255 105.913 254.819 105.518 254.456C105.134 254.093 104.942 253.523 104.942 252.744V247.4H103.806V246.216H104.942V244.04H106.414V246.216H108.686V247.4H106.414V252.744C106.414 253.139 106.494 253.416 106.654 253.576C106.814 253.736 107.097 253.816 107.502 253.816H108.702ZM118.277 250.248C118.277 250.557 118.256 250.845 118.213 251.112H111.221C111.264 251.987 111.536 252.68 112.037 253.192C112.549 253.693 113.2 253.944 113.989 253.944C114.587 253.944 115.088 253.811 115.493 253.544C115.909 253.277 116.213 252.925 116.405 252.488H117.973C117.696 253.256 117.216 253.891 116.533 254.392C115.861 254.893 115.013 255.144 113.989 255.144C113.168 255.144 112.432 254.957 111.781 254.584C111.141 254.211 110.64 253.683 110.277 253C109.915 252.307 109.733 251.512 109.733 250.616C109.733 249.709 109.915 248.915 110.277 248.232C110.64 247.539 111.152 247.005 111.813 246.632C112.475 246.259 113.237 246.072 114.101 246.072C114.923 246.072 115.648 246.253 116.277 246.616C116.907 246.979 117.397 247.475 117.749 248.104C118.101 248.733 118.277 249.448 118.277 250.248ZM116.757 250.056C116.757 249.491 116.635 249 116.389 248.584C116.144 248.157 115.808 247.832 115.381 247.608C114.965 247.384 114.501 247.272 113.989 247.272C113.232 247.272 112.597 247.523 112.085 248.024C111.573 248.515 111.291 249.192 111.237 250.056H116.757ZM123.707 246.072C124.453 246.072 125.104 246.248 125.659 246.6C126.224 246.952 126.651 247.411 126.939 247.976V246.216H128.411V255.224C128.411 256.024 128.235 256.733 127.883 257.352C127.531 257.971 127.035 258.451 126.395 258.792C125.755 259.144 125.013 259.32 124.171 259.32C123.435 259.32 122.763 259.192 122.155 258.936C121.547 258.691 121.051 258.339 120.667 257.88C120.283 257.421 120.053 256.899 119.979 256.312H121.403C121.541 256.813 121.867 257.229 122.379 257.56C122.891 257.891 123.488 258.056 124.171 258.056C125.003 258.056 125.669 257.805 126.171 257.304C126.683 256.813 126.939 256.12 126.939 255.224V253.208C126.651 253.784 126.224 254.253 125.659 254.616C125.104 254.968 124.453 255.144 123.707 255.144C122.917 255.144 122.203 254.952 121.563 254.568C120.933 254.173 120.432 253.629 120.059 252.936C119.696 252.232 119.515 251.437 119.515 250.552C119.515 249.667 119.696 248.888 120.059 248.216C120.432 247.533 120.933 247.005 121.563 246.632C122.203 246.259 122.917 246.072 123.707 246.072ZM123.963 247.336C123.44 247.336 122.949 247.464 122.491 247.72C122.043 247.976 121.68 248.349 121.403 248.84C121.136 249.32 121.003 249.891 121.003 250.552C121.003 251.213 121.136 251.8 121.403 252.312C121.68 252.813 122.043 253.203 122.491 253.48C122.949 253.757 123.44 253.896 123.963 253.896C124.496 253.896 124.987 253.763 125.435 253.496C125.893 253.229 126.256 252.851 126.523 252.36C126.8 251.859 126.939 251.277 126.939 250.616C126.939 249.955 126.8 249.379 126.523 248.888C126.256 248.387 125.893 248.003 125.435 247.736C124.987 247.469 124.496 247.336 123.963 247.336ZM134.665 246.072C135.497 246.072 136.249 246.259 136.921 246.632C137.593 247.005 138.121 247.539 138.505 248.232C138.9 248.925 139.097 249.72 139.097 250.616C139.097 251.501 138.895 252.291 138.489 252.984C138.084 253.667 137.535 254.2 136.841 254.584C136.148 254.957 135.38 255.144 134.537 255.144C133.716 255.144 132.975 254.957 132.313 254.584C131.663 254.211 131.151 253.683 130.777 253C130.415 252.307 130.233 251.512 130.233 250.616C130.233 249.709 130.425 248.915 130.809 248.232C131.204 247.539 131.737 247.005 132.409 246.632C133.081 246.259 133.833 246.072 134.665 246.072ZM134.617 247.272C134.084 247.272 133.599 247.4 133.161 247.656C132.724 247.912 132.372 248.291 132.105 248.792C131.849 249.293 131.721 249.901 131.721 250.616C131.721 251.32 131.844 251.923 132.089 252.424C132.345 252.925 132.687 253.304 133.113 253.56C133.54 253.816 134.015 253.944 134.537 253.944C135.071 253.944 135.567 253.816 136.025 253.56C136.495 253.293 136.873 252.909 137.161 252.408C137.449 251.907 137.593 251.309 137.593 250.616C137.593 249.912 137.455 249.309 137.177 248.808C136.911 248.296 136.548 247.912 136.089 247.656C135.641 247.4 135.151 247.272 134.617 247.272ZM142.375 247.704C142.897 246.616 143.788 246.072 145.047 246.072V247.592H144.663C143.916 247.592 143.345 247.789 142.951 248.184C142.567 248.568 142.375 249.24 142.375 250.2V255H140.919V246.216H142.375V247.704ZM146.569 243.816C146.569 243.539 146.665 243.304 146.857 243.112C147.049 242.92 147.279 242.824 147.545 242.824C147.823 242.824 148.057 242.92 148.249 243.112C148.441 243.304 148.537 243.539 148.537 243.816C148.537 244.093 148.441 244.328 148.249 244.52C148.057 244.712 147.823 244.808 147.545 244.808C147.268 244.808 147.033 244.712 146.841 244.52C146.66 244.328 146.569 244.093 146.569 243.816ZM148.265 246.216V255H146.809V246.216H148.265ZM158.637 250.248C158.637 250.557 158.615 250.845 158.573 251.112H151.581C151.623 251.987 151.895 252.68 152.397 253.192C152.909 253.693 153.559 253.944 154.349 253.944C154.946 253.944 155.447 253.811 155.853 253.544C156.269 253.277 156.573 252.925 156.765 252.488H158.333C158.055 253.256 157.575 253.891 156.893 254.392C156.221 254.893 155.373 255.144 154.349 255.144C153.527 255.144 152.791 254.957 152.141 254.584C151.501 254.211 150.999 253.683 150.637 253C150.274 252.307 150.093 251.512 150.093 250.616C150.093 249.709 150.274 248.915 150.637 248.232C150.999 247.539 151.511 247.005 152.173 246.632C152.834 246.259 153.597 246.072 154.461 246.072C155.282 246.072 156.007 246.253 156.637 246.616C157.266 246.979 157.757 247.475 158.109 248.104C158.461 248.733 158.637 249.448 158.637 250.248ZM157.117 250.056C157.117 249.491 156.994 249 156.749 248.584C156.503 248.157 156.167 247.832 155.741 247.608C155.325 247.384 154.861 247.272 154.349 247.272C153.591 247.272 152.957 247.523 152.445 248.024C151.933 248.515 151.65 249.192 151.597 250.056H157.117ZM163.474 246.072C164.423 246.072 165.175 246.323 165.73 246.824C166.285 247.315 166.589 247.992 166.642 248.856H165.138C165.117 248.365 164.951 247.971 164.642 247.672C164.333 247.373 163.906 247.224 163.362 247.224C162.807 247.224 162.37 247.357 162.05 247.624C161.741 247.88 161.586 248.205 161.586 248.6C161.586 248.931 161.682 249.197 161.874 249.4C162.077 249.592 162.322 249.736 162.61 249.832C162.909 249.928 163.309 250.029 163.81 250.136C164.45 250.285 164.962 250.435 165.346 250.584C165.741 250.723 166.077 250.963 166.354 251.304C166.631 251.635 166.77 252.088 166.77 252.664C166.77 253.144 166.631 253.576 166.354 253.96C166.077 254.333 165.687 254.627 165.186 254.84C164.685 255.043 164.109 255.144 163.458 255.144C162.477 255.144 161.687 254.899 161.09 254.408C160.503 253.917 160.183 253.24 160.13 252.376H161.634C161.655 252.867 161.826 253.261 162.146 253.56C162.477 253.848 162.914 253.992 163.458 253.992C164.055 253.992 164.514 253.869 164.834 253.624C165.165 253.379 165.33 253.053 165.33 252.648C165.33 252.317 165.229 252.056 165.026 251.864C164.834 251.661 164.589 251.512 164.29 251.416C163.991 251.309 163.581 251.197 163.058 251.08C162.429 250.941 161.917 250.803 161.522 250.664C161.138 250.515 160.807 250.285 160.53 249.976C160.263 249.667 160.13 249.24 160.13 248.696C160.13 248.216 160.263 247.779 160.53 247.384C160.807 246.979 161.197 246.659 161.698 246.424C162.21 246.189 162.802 246.072 163.474 246.072ZM168.552 254.072C168.552 253.805 168.643 253.581 168.824 253.4C169.005 253.219 169.224 253.128 169.48 253.128C169.736 253.128 169.955 253.219 170.136 253.4C170.317 253.581 170.408 253.805 170.408 254.072C170.408 254.328 170.317 254.547 170.136 254.728C169.955 254.909 169.736 255 169.48 255C169.224 255 169.005 254.909 168.824 254.728C168.643 254.547 168.552 254.328 168.552 254.072ZM172.161 254.072C172.161 253.805 172.252 253.581 172.433 253.4C172.615 253.219 172.833 253.128 173.089 253.128C173.345 253.128 173.564 253.219 173.745 253.4C173.927 253.581 174.017 253.805 174.017 254.072C174.017 254.328 173.927 254.547 173.745 254.728C173.564 254.909 173.345 255 173.089 255C172.833 255 172.615 254.909 172.433 254.728C172.252 254.547 172.161 254.328 172.161 254.072Z" fill="black"/>
<path d="M92.4195 91.9714C94.859 91.9727 97.2611 91.3711 99.4128 90.2201C101.565 89.0691 103.399 87.4043 104.755 85.3732C106.11 83.3421 106.944 81.0075 107.182 78.5765C107.42 76.1455 107.056 73.6931 106.121 71.4369C106.491 72.0265 106.989 72.5253 107.577 72.8967C108.166 73.2681 108.83 73.5025 109.521 73.5827C110.585 78.3187 112.52 82.8154 115.226 86.8433C117.817 90.4555 122.966 92.6151 129 92.6151C135.034 92.6151 140.183 90.4582 142.774 86.8475C145.48 82.8195 147.415 78.3229 148.479 73.5868C149.171 73.507 149.835 73.2725 150.423 72.9009C151.012 72.5292 151.509 72.0298 151.879 71.4397C150.376 75.0426 150.344 79.092 151.789 82.7186C153.234 86.3452 156.042 89.2599 159.609 90.837C163.176 92.4142 167.219 92.5281 170.869 91.1543C174.519 89.7806 177.486 87.0286 179.132 83.4891C180.779 79.9497 180.974 75.9049 179.676 72.223C178.378 68.5411 175.69 65.5156 172.189 63.7959C168.688 62.0762 164.653 61.7994 160.95 63.025C157.248 64.2505 154.173 66.8807 152.385 70.3509C152.525 69.9048 152.596 69.4402 152.596 68.9728V68.1238C152.594 67.173 152.302 66.2455 151.758 65.4661C151.214 64.6868 150.444 64.093 149.553 63.7647C149.158 59.9986 147.745 56.4116 145.465 53.3903C143.186 50.369 140.126 48.0278 136.615 46.619C135.827 44.414 132.953 43 129.061 43H128.941C125.038 43 122.162 44.4154 121.371 46.619C117.861 48.0278 114.801 50.369 112.521 53.3903C110.241 56.4116 108.828 59.9986 108.433 63.7647C107.542 64.093 106.773 64.6868 106.229 65.4661C105.685 66.2455 105.392 67.173 105.39 68.1238V68.9728C105.39 69.4401 105.461 69.9046 105.599 70.3509C104.397 68.0033 102.592 66.0188 100.37 64.6014C98.1481 63.1841 95.589 62.3851 92.9561 62.2866C90.3233 62.1882 87.7117 62.7939 85.3902 64.0413C83.0687 65.2888 81.121 67.133 79.7474 69.3843C78.3739 71.6356 77.6241 74.2126 77.5752 76.8504C77.5263 79.4881 78.1801 82.0912 79.4692 84.392C80.7584 86.6927 82.6364 88.6081 84.9101 89.9409C87.1838 91.2738 89.7711 91.9761 92.4058 91.9756L92.4195 91.9714ZM165.58 65.7589C167.825 65.7589 170.018 66.4253 171.884 67.6738C173.75 68.9222 175.205 70.6967 176.063 72.7729C176.922 74.849 177.147 77.1335 176.709 79.3375C176.271 81.5414 175.19 83.5658 173.603 85.1547C172.016 86.7436 169.994 87.8256 167.793 88.2638C165.592 88.702 163.311 88.4769 161.237 87.6167C159.164 86.7566 157.392 85.3001 156.145 83.4316C154.899 81.563 154.234 79.3662 154.234 77.119C154.238 74.107 155.434 71.2194 157.561 69.0897C159.688 66.9601 162.572 65.7622 165.58 65.7589ZM139.943 84.8064C138.034 87.4676 133.841 89.1214 129 89.1214C124.159 89.1214 119.966 87.4676 118.057 84.8064C115.766 81.3988 114.099 77.6099 113.135 73.6172H144.865C143.901 77.6099 142.234 81.3988 139.943 84.8064ZM149.108 68.9659C149.104 69.2722 148.981 69.5648 148.765 69.7816C148.549 69.9983 148.257 70.122 147.951 70.1263H110.049C109.743 70.122 109.451 69.9984 109.234 69.7817C109.018 69.565 108.895 69.2723 108.89 68.9659V68.1169C108.895 67.8106 109.018 67.5181 109.234 67.3016C109.451 67.0851 109.743 66.9618 110.049 66.9579H147.951C148.257 66.9618 148.549 67.0852 148.765 67.3017C148.981 67.5182 149.104 67.8108 149.108 68.1169V68.9659ZM146.007 63.4656H135.492C135.407 60.2747 135.658 57.0836 136.241 53.9453C136.427 52.6967 136.6 51.5349 136.714 50.4793C139.191 51.7377 141.328 53.5748 142.946 55.8352C144.564 58.0956 145.614 60.7129 146.007 63.4656ZM124.649 47.8511C124.681 47.3839 126.225 46.484 128.96 46.484H129.052C131.775 46.484 133.319 47.3839 133.351 47.8511C133.326 49.7238 133.14 51.5908 132.793 53.4313C132.186 56.7401 131.919 60.1024 131.996 63.4656H126.002C126.08 60.1024 125.814 56.74 125.207 53.4313C124.86 51.5908 124.674 49.7238 124.649 47.8511ZM121.292 50.4793C121.407 51.5349 121.58 52.6981 121.765 53.9453C122.349 57.0834 122.6 60.2746 122.515 63.4656H111.999C112.393 60.7129 113.443 58.0956 115.061 55.8352C116.678 53.5748 118.816 51.7377 121.292 50.4793ZM92.4195 65.7589C94.6638 65.7586 96.8577 66.4248 98.7239 67.6731C100.59 68.9214 102.045 70.6958 102.904 72.7719C103.762 74.848 103.987 77.1326 103.55 79.3366C103.112 81.5407 102.031 83.5652 100.444 85.1542C98.8572 86.7433 96.8353 87.8254 94.6342 88.2637C92.433 88.7021 90.1515 88.4769 88.0781 87.6168C86.0047 86.7567 84.2327 85.3003 82.986 83.4317C81.7393 81.5631 81.0741 79.3663 81.0743 77.119C81.078 74.1073 82.2744 71.2199 84.4013 69.0902C86.5281 66.9606 89.4117 65.7625 92.4195 65.7589ZM165.58 95.2818C159.483 95.2838 153.559 97.3205 148.746 101.07C146.329 99.6686 143.77 98.5275 141.112 97.666C140.8 97.5674 140.467 97.5584 140.151 97.64C139.835 97.7217 139.548 97.8906 139.323 98.1277C137.189 100.352 133.334 101.683 129 101.683C124.666 101.683 120.811 100.352 118.684 98.1222C118.459 97.8861 118.171 97.7182 117.855 97.6375C117.539 97.5569 117.206 97.5667 116.895 97.666C114.237 98.5257 111.678 99.6649 109.26 101.065C105.209 97.9075 100.353 95.9529 95.2462 95.4232C90.1395 94.8935 84.9868 95.81 80.3747 98.0684C75.7626 100.327 71.8763 103.836 69.1582 108.198C66.4401 112.559 64.9994 117.597 65 122.737C65 122.967 65.0451 123.194 65.1328 123.405C65.2204 123.617 65.3489 123.81 65.5108 123.972C65.6728 124.134 65.865 124.262 66.0766 124.35C66.2882 124.437 66.5149 124.482 66.7438 124.482H91.0432C90.0571 127.987 89.5592 131.612 89.5636 135.254C89.5636 135.717 89.7473 136.161 90.0744 136.489C90.4014 136.816 90.8449 137 91.3074 137H166.693C167.155 137 167.599 136.816 167.926 136.489C168.253 136.161 168.436 135.717 168.436 135.254C168.441 131.612 167.943 127.987 166.957 124.482H191.256C191.485 124.482 191.712 124.437 191.923 124.35C192.135 124.262 192.327 124.134 192.489 123.972C192.651 123.81 192.78 123.617 192.867 123.405C192.955 123.194 193 122.967 193 122.737C192.992 115.458 190.1 108.48 184.96 103.333C179.819 98.1855 172.85 95.2902 165.58 95.2818ZM68.5496 120.991C68.8575 116.77 70.2764 112.706 72.6619 109.213C75.0475 105.719 78.3146 102.921 82.1309 101.102C85.9472 99.2829 90.1766 98.5086 94.3887 98.8577C98.6009 99.2067 102.646 100.667 106.111 103.089C99.8408 107.581 95.0109 113.803 92.2103 120.995L68.5496 120.991ZM152.147 133.509V119.832C152.135 119.378 151.945 118.946 151.62 118.629C151.294 118.313 150.858 118.135 150.404 118.135C149.95 118.135 149.514 118.313 149.189 118.629C148.863 118.946 148.674 119.378 148.661 119.832V133.509H109.339V119.832C109.326 119.378 109.137 118.946 108.811 118.629C108.486 118.313 108.05 118.135 107.596 118.135C107.142 118.135 106.706 118.313 106.38 118.629C106.055 118.946 105.865 119.378 105.853 119.832V133.509H93.0912C93.4199 126.37 95.8704 119.492 100.129 113.756C104.387 108.02 110.259 103.689 116.991 101.317C120.429 103.953 124.672 105.317 129 105.176C133.328 105.317 137.571 103.954 141.009 101.317C147.741 103.689 153.613 108.02 157.871 113.756C162.13 119.492 164.58 126.37 164.909 133.509H152.147ZM165.791 120.991C162.989 113.8 158.159 107.58 151.889 103.089C155.354 100.667 159.399 99.2067 163.611 98.8577C167.823 98.5086 172.053 99.2829 175.869 101.102C179.685 102.921 182.953 105.719 185.338 109.213C187.724 112.706 189.143 116.77 189.45 120.991H165.791Z" fill="white"/>
</svg>
