<svg width="29" height="29" viewBox="0 0 29 29" fill="none" xmlns="http://www.w3.org/2000/svg">
<g clip-path="url(#clip0_3009_2077)">
<g filter="url(#filter0_d_3009_2077)">
<path fill-rule="evenodd" clip-rule="evenodd" d="M2.00648 2.69818C2.00378 1.20918 3.19857 0.00367172 4.69847 0.00637162L11.1557 0.017173C13.409 -0.155621 16.5276 0.994536 18.1449 2.61178L27.7924 12.2585C29.3989 13.865 29.4043 16.465 27.7978 18.0701L20.0715 25.7958C18.4676 27.3982 15.8769 27.4063 14.2595 25.7904L4.61207 16.1437C3.00551 14.5372 1.84312 11.4081 2.01727 9.15634L2.00648 2.70088V2.69818ZM6.52239 14.2322L16.1698 23.8789C16.7287 24.4378 17.6117 24.4378 18.1638 23.8843L25.8902 16.1585C26.4396 15.6091 26.4383 14.7195 25.8848 14.166L16.2373 4.51926C15.1802 3.46225 12.8366 2.59423 11.4514 2.69818L6.05257 2.69548C5.30734 2.69548 4.70252 3.2935 4.70252 4.04543L4.70117 9.44928C4.59722 10.8262 5.47205 13.1832 6.52239 14.2322ZM10.1014 10.7992C11.5932 10.7992 12.8015 9.59103 12.8015 8.09933C12.8015 6.60764 11.5932 5.39943 10.1014 5.39943C8.60956 5.39943 7.40126 6.60764 7.40126 8.09933C7.40126 9.59103 8.60956 10.7992 10.1014 10.7992Z" fill="#DE0C0C"/>
</g>
</g>
<defs>
<filter id="filter0_d_3009_2077" x="-273.862" y="-262.069" width="578.724" height="578.724" filterUnits="userSpaceOnUse" color-interpolation-filters="sRGB">
<feFlood flood-opacity="0" result="BackgroundImageFix"/>
<feColorMatrix in="SourceAlpha" type="matrix" values="0 0 0 0 0 0 0 0 0 0 0 0 0 0 0 0 0 0 127 0" result="hardAlpha"/>
<feOffset dy="13.7931"/>
<feGaussianBlur stdDeviation="137.931"/>
<feColorMatrix type="matrix" values="0 0 0 0 0 0 0 0 0 0 0 0 0 0 0 0 0 0 0.1 0"/>
<feBlend mode="normal" in2="BackgroundImageFix" result="effect1_dropShadow_3009_2077"/>
<feBlend mode="normal" in="SourceGraphic" in2="effect1_dropShadow_3009_2077" result="shape"/>
</filter>
<clipPath id="clip0_3009_2077">
<rect width="29" height="29" fill="white"/>
</clipPath>
</defs>
</svg>
