<svg width="392" height="784" viewBox="0 0 392 784" fill="none" xmlns="http://www.w3.org/2000/svg">
<path d="M258.218 259.54C277.398 266.536 305.71 269.214 318.732 282.847C331.456 296.729 328.622 321.537 321.417 344.432C314.511 367.079 302.935 388.061 286.323 401.126C269.712 414.19 248.3 419.645 228.419 418.78C208.507 418.194 190.394 411.319 169.989 405.594C149.317 399.839 126.355 395.233 110.966 381.046C95.3109 366.828 87.4964 343.06 90.2463 321.349C92.7615 299.329 106.14 279.117 119.999 261.785C133.858 244.452 148.433 230.308 164.921 225.418C181.408 220.529 200.043 225.204 214.533 233.076C228.725 241.196 238.772 252.512 258.218 259.54Z" fill="#F66464"/>
<path d="M135.75 328.1V325.5C129.314 325.5 124.078 320.252 124.078 313.8H121.484C121.484 321.684 127.884 328.1 135.75 328.1Z" fill="white"/>
<path d="M135.75 322.9C140.755 322.9 144.828 318.816 144.828 313.8C144.828 308.783 140.755 304.7 135.75 304.7C130.745 304.7 126.672 308.783 126.672 313.8C126.672 318.816 130.745 322.9 135.75 322.9ZM135.75 307.3C139.325 307.3 142.234 310.216 142.234 313.8C142.234 317.384 139.325 320.3 135.75 320.3C132.175 320.3 129.266 317.384 129.266 313.8C129.266 310.216 132.175 307.3 135.75 307.3Z" fill="white"/>
<path d="M135.75 317.7C137.895 317.7 139.641 315.95 139.641 313.8C139.641 311.65 137.895 309.9 135.75 309.9C133.605 309.9 131.859 311.65 131.859 313.8C131.859 315.95 133.605 317.7 135.75 317.7ZM135.75 312.5C136.466 312.5 137.047 313.082 137.047 313.8C137.047 314.518 136.466 315.1 135.75 315.1C135.034 315.1 134.453 314.518 134.453 313.8C134.453 313.082 135.034 312.5 135.75 312.5Z" fill="white"/>
<path d="M196.703 356.323V346.677L193.194 345.45C192.8 344.152 192.285 342.902 191.653 341.716L193.269 338.365L192.016 337.109C191.437 336.346 190.485 335.338 189.765 334.609C188.869 333.7 187.835 332.715 187.133 332.099L178.505 324.535L179.246 322.308L182.248 323.814L187.239 318.811L185.737 315.802L188.922 314.737V307.664L185.737 306.6L187.239 303.591L182.248 298.589L179.246 300.094L178.185 296.9H171.129L170.068 300.093L167.066 298.587L162.075 303.59L163.577 306.599L160.391 307.663V308.654L149.716 299.297C146.042 296.074 141.33 294.3 136.448 294.3V294.335C136.214 294.327 135.986 294.3 135.75 294.3C125.024 294.3 116.297 303.048 116.297 313.8C116.297 314.036 116.324 314.265 116.332 314.499H116.297C116.297 319.394 118.067 324.115 121.282 327.798L130.623 338.5H129.627L128.567 341.693L125.564 340.187L120.574 345.19L122.076 348.199L118.891 349.263V356.336L122.076 357.399L120.574 360.409L125.564 365.411L128.567 363.906L129.627 367.1H136.684L137.745 363.907L140.747 365.412L145.737 360.41L144.235 357.401L146.471 356.654L154 365.279C154.59 365.953 155.474 366.893 156.307 367.734C157.095 368.529 158.181 369.576 158.995 370.199L160.252 371.459L163.595 369.839C164.778 370.471 166.026 370.988 167.32 371.383L168.548 374.9H178.171L179.395 371.382C180.689 370.987 181.937 370.471 183.12 369.838L186.463 371.457L193.269 364.635L191.653 361.284C192.283 360.098 192.8 358.847 193.194 357.55L196.703 356.323ZM155.066 341.716C154.435 342.902 153.919 344.152 153.525 345.45L150.016 346.677V356.323L153.525 357.55C153.919 358.847 154.434 360.098 155.066 361.284L154.673 362.099L128.194 331.768C130.518 332.754 133.072 333.3 135.75 333.3C146.476 333.3 155.203 324.552 155.203 313.8C155.203 311.113 154.658 308.552 153.674 306.221L183.95 332.76L183.121 333.162C181.938 332.53 180.691 332.013 179.396 331.618L178.171 328.1H168.548L167.324 331.618C166.029 332.013 164.782 332.529 163.599 333.162L160.256 331.542L153.45 338.365L155.066 341.716ZM162.984 309.537L165.962 308.543L166.18 307.967C166.243 307.799 166.31 307.637 166.38 307.475L166.631 306.912L165.229 304.102L167.575 301.75L170.379 303.155L170.941 302.903C171.102 302.832 171.264 302.767 171.431 302.703L172.005 302.485L172.998 299.5H176.316L177.308 302.485L177.883 302.703C178.05 302.767 178.212 302.833 178.373 302.903L178.935 303.155L181.738 301.75L184.085 304.102L182.683 306.912L182.934 307.475C183.006 307.637 183.07 307.799 183.134 307.967L183.352 308.543L186.328 309.537V312.864L183.35 313.858L183.133 314.434C183.069 314.602 183.003 314.764 182.933 314.926L182.681 315.489L184.083 318.299L181.737 320.651L178.933 319.246L178.372 319.498C178.211 319.569 178.049 319.634 177.882 319.698L177.307 319.916L176.389 322.68L162.984 310.928V309.537ZM135.75 296.9C145.046 296.9 152.609 304.481 152.609 313.8C152.609 323.118 145.046 330.7 135.75 330.7C126.454 330.7 118.891 323.118 118.891 313.8C118.891 304.481 126.454 296.9 135.75 296.9ZM141.851 355.457L141.633 356.033C141.569 356.201 141.503 356.363 141.433 356.524L141.181 357.087L142.583 359.898L140.237 362.25L137.433 360.844L136.872 361.096C136.711 361.168 136.549 361.233 136.382 361.297L135.807 361.515L134.815 364.5H131.496L130.504 361.515L129.93 361.297C129.762 361.233 129.6 361.167 129.439 361.096L128.878 360.844L126.075 362.25L123.729 359.898L125.131 357.087L124.88 356.524C124.808 356.363 124.743 356.201 124.68 356.033L124.462 355.457L121.484 354.463V351.136L124.462 350.141L124.68 349.565C124.743 349.398 124.81 349.235 124.88 349.074L125.131 348.511L123.729 345.702L126.075 343.35L128.879 344.755L129.441 344.503C129.602 344.432 129.764 344.367 129.931 344.303L130.505 344.085L131.498 341.1H132.894L144.621 354.533L141.851 355.457ZM191.057 355.544L190.879 356.208C190.466 357.753 189.858 359.227 189.071 360.591L188.726 361.187L190.131 364.102L185.931 368.311L183.024 366.904L182.428 367.249C181.068 368.037 179.596 368.647 178.057 369.062L177.394 369.24L176.329 372.3H170.39L169.325 369.24L168.662 369.062C167.121 368.648 165.651 368.038 164.29 367.249L163.695 366.904L160.787 368.311L156.588 364.102L157.993 361.187L157.648 360.591C156.862 359.227 156.254 357.752 155.84 356.208L155.662 355.544L152.609 354.477V348.523L155.662 347.456L155.84 346.791C156.252 345.247 156.861 343.773 157.648 342.409L157.993 341.812L156.588 338.898L160.787 334.688L163.695 336.096L164.29 335.75C165.651 334.963 167.123 334.353 168.662 333.938L169.325 333.76L170.39 330.7H176.329L177.394 333.76L178.057 333.938C179.597 334.352 181.068 334.961 182.428 335.75L183.024 336.096L185.931 334.688L190.131 338.898L188.726 341.812L189.071 342.409C189.857 343.773 190.465 345.248 190.879 346.791L191.057 347.456L194.109 348.523V354.477L191.057 355.544Z" fill="white"/>
<path d="M173.359 338.5C166.208 338.5 160.391 344.332 160.391 351.5C160.391 358.668 166.208 364.5 173.359 364.5C180.51 364.5 186.328 358.668 186.328 351.5C186.328 344.332 180.51 338.5 173.359 338.5ZM173.359 361.9C167.639 361.9 162.984 357.234 162.984 351.5C162.984 345.766 167.639 341.1 173.359 341.1C179.08 341.1 183.734 345.766 183.734 351.5C183.734 357.234 179.08 361.9 173.359 361.9Z" fill="white"/>
<path d="M173.359 343.7C169.068 343.7 165.578 347.198 165.578 351.5C165.578 355.801 169.068 359.3 173.359 359.3C177.651 359.3 181.141 355.801 181.141 351.5C181.141 347.198 177.651 343.7 173.359 343.7ZM173.359 356.7C170.498 356.7 168.172 354.368 168.172 351.5C168.172 348.632 170.498 346.3 173.359 346.3C176.22 346.3 178.547 348.632 178.547 351.5C178.547 354.368 176.22 356.7 173.359 356.7Z" fill="white"/>
<path d="M181.141 311.2C181.141 307.616 178.232 304.7 174.656 304.7C171.081 304.7 168.172 307.616 168.172 311.2C168.172 314.784 171.081 317.7 174.656 317.7C178.232 317.7 181.141 314.784 181.141 311.2ZM170.766 311.2C170.766 309.05 172.511 307.3 174.656 307.3C176.801 307.3 178.547 309.05 178.547 311.2C178.547 313.35 176.801 315.1 174.656 315.1C172.511 315.1 170.766 313.35 170.766 311.2Z" fill="white"/>
<path d="M126.672 352.8C126.672 356.384 129.581 359.3 133.156 359.3C136.732 359.3 139.641 356.384 139.641 352.8C139.641 349.216 136.732 346.3 133.156 346.3C129.581 346.3 126.672 349.216 126.672 352.8ZM137.047 352.8C137.047 354.95 135.301 356.7 133.156 356.7C131.011 356.7 129.266 354.95 129.266 352.8C129.266 350.65 131.011 348.9 133.156 348.9C135.301 348.9 137.047 350.65 137.047 352.8Z" fill="white"/>
<path d="M231 358.4C227.857 358.4 225.3 360.957 225.3 364.1C225.3 367.243 227.857 369.8 231 369.8C234.143 369.8 236.7 367.243 236.7 364.1C236.7 360.957 234.143 358.4 231 358.4ZM231 367.4C229.179 367.4 227.7 365.92 227.7 364.1C227.7 362.28 229.179 360.8 231 360.8C232.82 360.8 234.3 362.28 234.3 364.1C234.3 365.92 232.82 367.4 231 367.4Z" fill="white"/>
<path d="M218.046 330.2H230.4C231.062 330.2 231.6 329.662 231.6 329C231.6 328.337 231.062 327.8 230.4 327.8H218.046C217.383 327.8 216.846 328.337 216.846 329C216.846 329.662 217.382 330.2 218.046 330.2Z" fill="white"/>
<path d="M218.046 335H230.4C231.062 335 231.6 334.462 231.6 333.8C231.6 333.138 231.062 332.6 230.4 332.6H218.046C217.383 332.6 216.846 333.138 216.846 333.8C216.846 334.462 217.382 335 218.046 335Z" fill="white"/>
<path d="M231.6 338.6C231.6 337.938 231.062 337.4 230.4 337.4H218.046C217.383 337.4 216.846 337.938 216.846 338.6C216.846 339.264 217.383 339.8 218.046 339.8H230.4C231.062 339.8 231.6 339.264 231.6 338.6Z" fill="white"/>
<path d="M279.3 376C285.966 372.69 290.619 365.953 290.954 358.1H299.7V345.484L287.501 345.634C284.564 341.22 280.025 338.017 274.803 336.778L271.56 301.1H278.965L282.165 291.5H231.735L234.936 301.1H241.347L236.828 322.4H215.376C213.667 322.4 212.033 323.128 210.891 324.4C209.75 325.672 209.201 327.375 209.384 329.074L211.776 351.2H205.8V358.1H212.522H214.446H218.259C217.397 359.924 216.9 361.952 216.9 364.1C216.9 369.104 219.529 373.497 223.47 376H218.1V378.4H302.799V376H279.3ZM297.3 355.7H247.8V354.35H297.3V355.7ZM276.531 358.1C276.09 361.314 273.332 363.8 270 363.8C266.667 363.8 263.91 361.314 263.468 358.1H276.531ZM266.004 351.95C267.133 351.086 268.523 350.6 270 350.6C271.478 350.6 272.868 351.086 273.997 351.95H266.004ZM297.3 347.916V351.95H290.317C289.963 350.577 289.484 349.261 288.877 348.019L297.3 347.916ZM287.843 351.95H277.284C275.601 349.628 272.881 348.2 270 348.2C267.073 348.2 264.407 349.597 262.716 351.95H252.155C254.453 344.13 261.723 338.6 270 338.6C278.269 338.6 285.545 344.133 287.843 351.95ZM272.353 336.35C271.578 336.261 270.794 336.2 270 336.2C266.309 336.2 262.796 337.177 259.735 338.9H255.757V333.26L270.362 314.439L272.353 336.35ZM269.772 307.953L270.043 310.934L255.757 329.346V325.849L269.772 307.953ZM255.757 321.957V301.1H269.149L269.455 304.466L255.757 321.957ZM236.665 298.7L235.065 293.9H278.835L277.236 298.7H236.665ZM243.799 301.1H253.357V302.038L239.976 319.124L243.799 301.1ZM238.843 324.462L253.356 305.931V309.242L237.827 329.256L238.843 324.462ZM236.719 334.599L253.357 313.156V338.9H240.408C239.273 338.9 238.211 338.394 237.495 337.512C236.828 336.688 236.563 335.638 236.719 334.599ZM208.2 355.7V353.6H212.036L212.263 355.7H208.2ZM214.677 355.7L211.771 328.816C211.659 327.78 211.981 326.78 212.678 326.004C213.375 325.227 214.333 324.8 215.376 324.8H236.121L236.289 324.932L234.392 333.877C234.006 335.7 234.456 337.575 235.629 339.022C236.803 340.47 238.543 341.3 240.407 341.3H256.328C253.143 344.034 250.776 347.71 249.683 351.95H245.4V355.7H242.298C239.725 352.249 235.626 350 231 350C226.374 350 222.275 352.249 219.702 355.7H214.677ZM219.3 364.1C219.3 357.649 224.549 352.4 231 352.4C237.451 352.4 242.7 357.649 242.7 364.1C242.7 370.551 237.451 375.8 231 375.8C224.549 375.8 219.3 370.551 219.3 364.1ZM238.53 376C242.472 373.497 245.1 369.104 245.1 364.1C245.1 361.952 244.603 359.924 243.74 358.1H249.045C249.38 365.953 254.035 372.69 260.7 376H238.53ZM251.445 358.1H261.045C261.499 362.642 265.34 366.2 270 366.2C274.659 366.2 278.501 362.642 278.954 358.1H288.554C288.08 367.936 279.953 375.8 270 375.8C260.047 375.8 251.919 367.936 251.445 358.1Z" fill="white"/>
<path d="M252 382.8H202.8V385.2H252V382.8Z" fill="white"/>
<path d="M288.15 382.8H268.4V385.2H288.15V382.8Z" fill="white"/>
<rect x="84" y="397" width="258" height="144" rx="28" fill="#EFEDED"/>
<path d="M137.641 436.416C137.641 435.328 137.886 434.352 138.377 433.488C138.868 432.613 139.534 431.931 140.377 431.44C141.23 430.949 142.174 430.704 143.209 430.704C144.425 430.704 145.486 430.997 146.393 431.584C147.3 432.171 147.961 433.003 148.377 434.08H146.633C146.324 433.408 145.876 432.891 145.289 432.528C144.713 432.165 144.02 431.984 143.209 431.984C142.43 431.984 141.732 432.165 141.113 432.528C140.494 432.891 140.009 433.408 139.657 434.08C139.305 434.741 139.129 435.52 139.129 436.416C139.129 437.301 139.305 438.08 139.657 438.752C140.009 439.413 140.494 439.925 141.113 440.288C141.732 440.651 142.43 440.832 143.209 440.832C144.02 440.832 144.713 440.656 145.289 440.304C145.876 439.941 146.324 439.424 146.633 438.752H148.377C147.961 439.819 147.3 440.645 146.393 441.232C145.486 441.808 144.425 442.096 143.209 442.096C142.174 442.096 141.23 441.856 140.377 441.376C139.534 440.885 138.868 440.208 138.377 439.344C137.886 438.48 137.641 437.504 137.641 436.416ZM158.321 433.232V442H156.865V440.704C156.587 441.152 156.198 441.504 155.697 441.76C155.206 442.005 154.662 442.128 154.065 442.128C153.382 442.128 152.769 441.989 152.225 441.712C151.681 441.424 151.249 440.997 150.929 440.432C150.619 439.867 150.465 439.179 150.465 438.368V433.232H151.905V438.176C151.905 439.04 152.123 439.707 152.561 440.176C152.998 440.635 153.595 440.864 154.353 440.864C155.131 440.864 155.745 440.624 156.193 440.144C156.641 439.664 156.865 438.965 156.865 438.048V433.232H158.321ZM162.235 434.656C162.491 434.155 162.854 433.765 163.323 433.488C163.803 433.211 164.384 433.072 165.067 433.072V434.576H164.683C163.051 434.576 162.235 435.461 162.235 437.232V442H160.779V433.232H162.235V434.656ZM168.204 434.656C168.46 434.155 168.822 433.765 169.292 433.488C169.772 433.211 170.353 433.072 171.036 433.072V434.576H170.652C169.02 434.576 168.204 435.461 168.204 437.232V442H166.748V433.232H168.204V434.656ZM180.716 437.28C180.716 437.557 180.7 437.851 180.668 438.16H173.66C173.714 439.024 174.007 439.701 174.54 440.192C175.084 440.672 175.74 440.912 176.508 440.912C177.138 440.912 177.66 440.768 178.076 440.48C178.503 440.181 178.802 439.787 178.972 439.296H180.54C180.306 440.139 179.836 440.827 179.132 441.36C178.428 441.883 177.554 442.144 176.508 442.144C175.676 442.144 174.93 441.957 174.268 441.584C173.618 441.211 173.106 440.683 172.732 440C172.359 439.307 172.172 438.507 172.172 437.6C172.172 436.693 172.354 435.899 172.716 435.216C173.079 434.533 173.586 434.011 174.236 433.648C174.898 433.275 175.655 433.088 176.508 433.088C177.34 433.088 178.076 433.269 178.716 433.632C179.356 433.995 179.847 434.496 180.188 435.136C180.54 435.765 180.716 436.48 180.716 437.28ZM179.212 436.976C179.212 436.421 179.09 435.947 178.844 435.552C178.599 435.147 178.263 434.843 177.836 434.64C177.42 434.427 176.956 434.32 176.444 434.32C175.708 434.32 175.079 434.555 174.556 435.024C174.044 435.493 173.751 436.144 173.676 436.976H179.212ZM186.91 433.072C187.977 433.072 188.841 433.397 189.502 434.048C190.164 434.688 190.494 435.616 190.494 436.832V442H189.054V437.04C189.054 436.165 188.836 435.499 188.398 435.04C187.961 434.571 187.364 434.336 186.606 434.336C185.838 434.336 185.225 434.576 184.766 435.056C184.318 435.536 184.094 436.235 184.094 437.152V442H182.638V433.232H184.094V434.48C184.382 434.032 184.772 433.685 185.262 433.44C185.764 433.195 186.313 433.072 186.91 433.072ZM194.649 434.432V439.6C194.649 440.027 194.739 440.331 194.921 440.512C195.102 440.683 195.417 440.768 195.865 440.768H196.937V442H195.625C194.814 442 194.206 441.813 193.801 441.44C193.395 441.067 193.193 440.453 193.193 439.6V434.432H192.057V433.232H193.193V431.024H194.649V433.232H196.937V434.432H194.649ZM200.157 430.16V442H198.701V430.16H200.157ZM210.19 433.232L204.91 446.128H203.406L205.134 441.904L201.598 433.232H203.214L205.966 440.336L208.686 433.232H210.19ZM223.472 433.232L218.192 446.128H216.688L218.416 441.904L214.88 433.232H216.496L219.248 440.336L221.968 433.232H223.472ZM228.759 442.144C227.938 442.144 227.191 441.957 226.519 441.584C225.858 441.211 225.335 440.683 224.951 440C224.578 439.307 224.391 438.507 224.391 437.6C224.391 436.704 224.583 435.915 224.967 435.232C225.362 434.539 225.895 434.011 226.567 433.648C227.239 433.275 227.991 433.088 228.823 433.088C229.655 433.088 230.407 433.275 231.079 433.648C231.751 434.011 232.279 434.533 232.663 435.216C233.058 435.899 233.255 436.693 233.255 437.6C233.255 438.507 233.052 439.307 232.647 440C232.252 440.683 231.714 441.211 231.031 441.584C230.348 441.957 229.591 442.144 228.759 442.144ZM228.759 440.864C229.282 440.864 229.772 440.741 230.231 440.496C230.69 440.251 231.058 439.883 231.335 439.392C231.623 438.901 231.767 438.304 231.767 437.6C231.767 436.896 231.628 436.299 231.351 435.808C231.074 435.317 230.711 434.955 230.263 434.72C229.815 434.475 229.33 434.352 228.807 434.352C228.274 434.352 227.783 434.475 227.335 434.72C226.898 434.955 226.546 435.317 226.279 435.808C226.012 436.299 225.879 436.896 225.879 437.6C225.879 438.315 226.007 438.917 226.263 439.408C226.53 439.899 226.882 440.267 227.319 440.512C227.756 440.747 228.236 440.864 228.759 440.864ZM242.946 433.232V442H241.49V440.704C241.212 441.152 240.823 441.504 240.322 441.76C239.831 442.005 239.287 442.128 238.69 442.128C238.007 442.128 237.394 441.989 236.85 441.712C236.306 441.424 235.874 440.997 235.554 440.432C235.244 439.867 235.09 439.179 235.09 438.368V433.232H236.53V438.176C236.53 439.04 236.748 439.707 237.186 440.176C237.623 440.635 238.22 440.864 238.978 440.864C239.756 440.864 240.37 440.624 240.818 440.144C241.266 439.664 241.49 438.965 241.49 438.048V433.232H242.946ZM249.126 437.584C249.126 436.688 249.307 435.904 249.67 435.232C250.032 434.549 250.528 434.021 251.158 433.648C251.798 433.275 252.512 433.088 253.302 433.088C253.984 433.088 254.619 433.248 255.206 433.568C255.792 433.877 256.24 434.288 256.55 434.8V430.16H258.022V442H256.55V440.352C256.262 440.875 255.835 441.307 255.27 441.648C254.704 441.979 254.043 442.144 253.286 442.144C252.507 442.144 251.798 441.952 251.158 441.568C250.528 441.184 250.032 440.645 249.67 439.952C249.307 439.259 249.126 438.469 249.126 437.584ZM256.55 437.6C256.55 436.939 256.416 436.363 256.15 435.872C255.883 435.381 255.52 435.008 255.062 434.752C254.614 434.485 254.118 434.352 253.574 434.352C253.03 434.352 252.534 434.48 252.086 434.736C251.638 434.992 251.28 435.365 251.014 435.856C250.747 436.347 250.614 436.923 250.614 437.584C250.614 438.256 250.747 438.843 251.014 439.344C251.28 439.835 251.638 440.213 252.086 440.48C252.534 440.736 253.03 440.864 253.574 440.864C254.118 440.864 254.614 440.736 255.062 440.48C255.52 440.213 255.883 439.835 256.15 439.344C256.416 438.843 256.55 438.261 256.55 437.6ZM264.306 442.144C263.485 442.144 262.738 441.957 262.066 441.584C261.405 441.211 260.882 440.683 260.498 440C260.125 439.307 259.938 438.507 259.938 437.6C259.938 436.704 260.13 435.915 260.514 435.232C260.909 434.539 261.442 434.011 262.114 433.648C262.786 433.275 263.538 433.088 264.37 433.088C265.202 433.088 265.954 433.275 266.626 433.648C267.298 434.011 267.826 434.533 268.21 435.216C268.605 435.899 268.802 436.693 268.802 437.6C268.802 438.507 268.599 439.307 268.194 440C267.799 440.683 267.261 441.211 266.578 441.584C265.895 441.957 265.138 442.144 264.306 442.144ZM264.306 440.864C264.829 440.864 265.319 440.741 265.778 440.496C266.237 440.251 266.605 439.883 266.882 439.392C267.17 438.901 267.314 438.304 267.314 437.6C267.314 436.896 267.175 436.299 266.898 435.808C266.621 435.317 266.258 434.955 265.81 434.72C265.362 434.475 264.877 434.352 264.354 434.352C263.821 434.352 263.33 434.475 262.882 434.72C262.445 434.955 262.093 435.317 261.826 435.808C261.559 436.299 261.426 436.896 261.426 437.6C261.426 438.315 261.554 438.917 261.81 439.408C262.077 439.899 262.429 440.267 262.866 440.512C263.303 440.747 263.783 440.864 264.306 440.864ZM274.988 433.072C276.055 433.072 276.919 433.397 277.58 434.048C278.242 434.688 278.572 435.616 278.572 436.832V442H277.132V437.04C277.132 436.165 276.914 435.499 276.476 435.04C276.039 434.571 275.442 434.336 274.684 434.336C273.916 434.336 273.303 434.576 272.844 435.056C272.396 435.536 272.172 436.235 272.172 437.152V442H270.716V433.232H272.172V434.48C272.46 434.032 272.85 433.685 273.34 433.44C273.842 433.195 274.391 433.072 274.988 433.072ZM281.175 430.848H282.791L281.255 434.48H280.231L281.175 430.848ZM286.227 434.432V439.6C286.227 440.027 286.317 440.331 286.499 440.512C286.68 440.683 286.995 440.768 287.443 440.768H288.515V442H287.203C286.392 442 285.784 441.813 285.379 441.44C284.973 441.067 284.771 440.453 284.771 439.6V434.432H283.635V433.232H284.771V431.024H286.227V433.232H288.515V434.432H286.227ZM131.795 457.072C132.456 457.072 133.054 457.216 133.587 457.504C134.12 457.781 134.536 458.203 134.835 458.768C135.144 459.333 135.299 460.021 135.299 460.832V466H133.859V461.04C133.859 460.165 133.64 459.499 133.203 459.04C132.766 458.571 132.168 458.336 131.411 458.336C130.643 458.336 130.03 458.576 129.571 459.056C129.123 459.536 128.899 460.235 128.899 461.152V466H127.443V454.16H128.899V458.48C129.187 458.032 129.582 457.685 130.083 457.44C130.595 457.195 131.166 457.072 131.795 457.072ZM137.133 461.584C137.133 460.688 137.315 459.904 137.677 459.232C138.04 458.549 138.536 458.021 139.165 457.648C139.805 457.275 140.515 457.088 141.293 457.088C142.061 457.088 142.728 457.253 143.293 457.584C143.859 457.915 144.28 458.331 144.557 458.832V457.232H146.029V466H144.557V464.368C144.269 464.88 143.837 465.307 143.261 465.648C142.696 465.979 142.035 466.144 141.277 466.144C140.499 466.144 139.795 465.952 139.165 465.568C138.536 465.184 138.04 464.645 137.677 463.952C137.315 463.259 137.133 462.469 137.133 461.584ZM144.557 461.6C144.557 460.939 144.424 460.363 144.157 459.872C143.891 459.381 143.528 459.008 143.069 458.752C142.621 458.485 142.125 458.352 141.581 458.352C141.037 458.352 140.541 458.48 140.093 458.736C139.645 458.992 139.288 459.365 139.021 459.856C138.755 460.347 138.621 460.923 138.621 461.584C138.621 462.256 138.755 462.843 139.021 463.344C139.288 463.835 139.645 464.213 140.093 464.48C140.541 464.736 141.037 464.864 141.581 464.864C142.125 464.864 142.621 464.736 143.069 464.48C143.528 464.213 143.891 463.835 144.157 463.344C144.424 462.843 144.557 462.261 144.557 461.6ZM151.754 464.656L154.474 457.232H156.026L152.586 466H150.89L147.45 457.232H149.018L151.754 464.656ZM165.459 461.28C165.459 461.557 165.443 461.851 165.411 462.16H158.403C158.456 463.024 158.749 463.701 159.283 464.192C159.827 464.672 160.483 464.912 161.251 464.912C161.88 464.912 162.403 464.768 162.819 464.48C163.245 464.181 163.544 463.787 163.715 463.296H165.283C165.048 464.139 164.579 464.827 163.875 465.36C163.171 465.883 162.296 466.144 161.251 466.144C160.419 466.144 159.672 465.957 159.011 465.584C158.36 465.211 157.848 464.683 157.475 464C157.101 463.307 156.915 462.507 156.915 461.6C156.915 460.693 157.096 459.899 157.459 459.216C157.821 458.533 158.328 458.011 158.979 457.648C159.64 457.275 160.397 457.088 161.251 457.088C162.083 457.088 162.819 457.269 163.459 457.632C164.099 457.995 164.589 458.496 164.931 459.136C165.283 459.765 165.459 460.48 165.459 461.28ZM163.955 460.976C163.955 460.421 163.832 459.947 163.587 459.552C163.341 459.147 163.005 458.843 162.579 458.64C162.163 458.427 161.699 458.32 161.187 458.32C160.451 458.32 159.821 458.555 159.299 459.024C158.787 459.493 158.493 460.144 158.419 460.976H163.955ZM182.958 454.928V466H181.502V457.744L177.822 466H176.798L173.102 457.728V466H171.646V454.928H173.214L177.31 464.08L181.406 454.928H182.958ZM193.987 466L192.531 464.528C191.987 465.093 191.406 465.515 190.787 465.792C190.169 466.059 189.47 466.192 188.691 466.192C187.923 466.192 187.241 466.053 186.643 465.776C186.057 465.499 185.598 465.104 185.267 464.592C184.947 464.08 184.787 463.483 184.787 462.8C184.787 462.021 185.006 461.339 185.443 460.752C185.891 460.155 186.547 459.685 187.411 459.344C187.07 458.939 186.825 458.565 186.675 458.224C186.526 457.883 186.451 457.509 186.451 457.104C186.451 456.635 186.569 456.213 186.803 455.84C187.049 455.456 187.395 455.157 187.843 454.944C188.291 454.731 188.809 454.624 189.395 454.624C189.971 454.624 190.473 454.736 190.899 454.96C191.326 455.184 191.646 455.499 191.859 455.904C192.073 456.299 192.169 456.741 192.147 457.232H190.691C190.702 456.795 190.579 456.453 190.323 456.208C190.067 455.952 189.737 455.824 189.331 455.824C188.905 455.824 188.558 455.947 188.291 456.192C188.035 456.427 187.907 456.731 187.907 457.104C187.907 457.424 187.993 457.733 188.163 458.032C188.345 458.331 188.643 458.699 189.059 459.136L192.387 462.48L192.675 462.032L193.763 460.208H195.331L194.019 462.48C193.838 462.8 193.625 463.136 193.379 463.488L195.891 466H193.987ZM188.691 464.944C189.267 464.944 189.785 464.832 190.243 464.608C190.713 464.384 191.155 464.037 191.571 463.568L188.291 460.272C186.926 460.795 186.243 461.621 186.243 462.752C186.243 463.381 186.467 463.904 186.915 464.32C187.374 464.736 187.966 464.944 188.691 464.944ZM206.471 454.848L202.263 466H200.583L196.375 454.848H197.927L201.431 464.464L204.935 454.848H206.471ZM211.79 461.6C211.79 460.693 211.971 459.904 212.334 459.232C212.696 458.549 213.198 458.021 213.838 457.648C214.488 457.275 215.23 457.088 216.062 457.088C217.139 457.088 218.024 457.349 218.718 457.872C219.422 458.395 219.886 459.12 220.11 460.048H218.542C218.392 459.515 218.099 459.093 217.662 458.784C217.235 458.475 216.702 458.32 216.062 458.32C215.23 458.32 214.558 458.608 214.046 459.184C213.534 459.749 213.278 460.555 213.278 461.6C213.278 462.656 213.534 463.472 214.046 464.048C214.558 464.624 215.23 464.912 216.062 464.912C216.702 464.912 217.235 464.763 217.662 464.464C218.088 464.165 218.382 463.739 218.542 463.184H220.11C219.875 464.08 219.406 464.8 218.702 465.344C217.998 465.877 217.118 466.144 216.062 466.144C215.23 466.144 214.488 465.957 213.838 465.584C213.198 465.211 212.696 464.683 212.334 464C211.971 463.317 211.79 462.517 211.79 461.6ZM221.508 461.584C221.508 460.688 221.69 459.904 222.052 459.232C222.415 458.549 222.911 458.021 223.54 457.648C224.18 457.275 224.89 457.088 225.668 457.088C226.436 457.088 227.103 457.253 227.668 457.584C228.234 457.915 228.655 458.331 228.932 458.832V457.232H230.404V466H228.932V464.368C228.644 464.88 228.212 465.307 227.636 465.648C227.071 465.979 226.41 466.144 225.652 466.144C224.874 466.144 224.17 465.952 223.54 465.568C222.911 465.184 222.415 464.645 222.052 463.952C221.69 463.259 221.508 462.469 221.508 461.584ZM228.932 461.6C228.932 460.939 228.799 460.363 228.532 459.872C228.266 459.381 227.903 459.008 227.444 458.752C226.996 458.485 226.5 458.352 225.956 458.352C225.412 458.352 224.916 458.48 224.468 458.736C224.02 458.992 223.663 459.365 223.396 459.856C223.13 460.347 222.996 460.923 222.996 461.584C222.996 462.256 223.13 462.843 223.396 463.344C223.663 463.835 224.02 464.213 224.468 464.48C224.916 464.736 225.412 464.864 225.956 464.864C226.5 464.864 226.996 464.736 227.444 464.48C227.903 464.213 228.266 463.835 228.532 463.344C228.799 462.843 228.932 462.261 228.932 461.6ZM234.641 458.432V463.6C234.641 464.027 234.731 464.331 234.913 464.512C235.094 464.683 235.409 464.768 235.857 464.768H236.929V466H235.617C234.806 466 234.198 465.813 233.793 465.44C233.387 465.067 233.185 464.453 233.185 463.6V458.432H232.049V457.232H233.185V455.024H234.641V457.232H236.929V458.432H234.641ZM246.693 461.28C246.693 461.557 246.677 461.851 246.645 462.16H239.637C239.69 463.024 239.984 463.701 240.517 464.192C241.061 464.672 241.717 464.912 242.485 464.912C243.114 464.912 243.637 464.768 244.053 464.48C244.48 464.181 244.778 463.787 244.949 463.296H246.517C246.282 464.139 245.813 464.827 245.109 465.36C244.405 465.883 243.53 466.144 242.485 466.144C241.653 466.144 240.906 465.957 240.245 465.584C239.594 465.211 239.082 464.683 238.709 464C238.336 463.307 238.149 462.507 238.149 461.6C238.149 460.693 238.33 459.899 238.693 459.216C239.056 458.533 239.562 458.011 240.213 457.648C240.874 457.275 241.632 457.088 242.485 457.088C243.317 457.088 244.053 457.269 244.693 457.632C245.333 457.995 245.824 458.496 246.165 459.136C246.517 459.765 246.693 460.48 246.693 461.28ZM245.189 460.976C245.189 460.421 245.066 459.947 244.821 459.552C244.576 459.147 244.24 458.843 243.813 458.64C243.397 458.427 242.933 458.32 242.421 458.32C241.685 458.32 241.056 458.555 240.533 459.024C240.021 459.493 239.728 460.144 239.653 460.976H245.189ZM252.231 457.088C252.988 457.088 253.649 457.253 254.215 457.584C254.791 457.915 255.217 458.331 255.495 458.832V457.232H256.967V466.192C256.967 466.992 256.796 467.701 256.455 468.32C256.113 468.949 255.623 469.44 254.983 469.792C254.353 470.144 253.617 470.32 252.775 470.32C251.623 470.32 250.663 470.048 249.895 469.504C249.127 468.96 248.673 468.219 248.535 467.28H249.975C250.135 467.813 250.465 468.24 250.967 468.56C251.468 468.891 252.071 469.056 252.775 469.056C253.575 469.056 254.225 468.805 254.727 468.304C255.239 467.803 255.495 467.099 255.495 466.192V464.352C255.207 464.864 254.78 465.291 254.215 465.632C253.649 465.973 252.988 466.144 252.231 466.144C251.452 466.144 250.743 465.952 250.103 465.568C249.473 465.184 248.977 464.645 248.615 463.952C248.252 463.259 248.071 462.469 248.071 461.584C248.071 460.688 248.252 459.904 248.615 459.232C248.977 458.549 249.473 458.021 250.103 457.648C250.743 457.275 251.452 457.088 252.231 457.088ZM255.495 461.6C255.495 460.939 255.361 460.363 255.095 459.872C254.828 459.381 254.465 459.008 254.007 458.752C253.559 458.485 253.063 458.352 252.519 458.352C251.975 458.352 251.479 458.48 251.031 458.736C250.583 458.992 250.225 459.365 249.959 459.856C249.692 460.347 249.559 460.923 249.559 461.584C249.559 462.256 249.692 462.843 249.959 463.344C250.225 463.835 250.583 464.213 251.031 464.48C251.479 464.736 251.975 464.864 252.519 464.864C253.063 464.864 253.559 464.736 254.007 464.48C254.465 464.213 254.828 463.835 255.095 463.344C255.361 462.843 255.495 462.261 255.495 461.6ZM263.251 466.144C262.43 466.144 261.683 465.957 261.011 465.584C260.35 465.211 259.827 464.683 259.443 464C259.07 463.307 258.883 462.507 258.883 461.6C258.883 460.704 259.075 459.915 259.459 459.232C259.854 458.539 260.387 458.011 261.059 457.648C261.731 457.275 262.483 457.088 263.315 457.088C264.147 457.088 264.899 457.275 265.571 457.648C266.243 458.011 266.771 458.533 267.155 459.216C267.55 459.899 267.747 460.693 267.747 461.6C267.747 462.507 267.545 463.307 267.139 464C266.745 464.683 266.206 465.211 265.523 465.584C264.841 465.957 264.083 466.144 263.251 466.144ZM263.251 464.864C263.774 464.864 264.265 464.741 264.723 464.496C265.182 464.251 265.55 463.883 265.827 463.392C266.115 462.901 266.259 462.304 266.259 461.6C266.259 460.896 266.121 460.299 265.843 459.808C265.566 459.317 265.203 458.955 264.755 458.72C264.307 458.475 263.822 458.352 263.299 458.352C262.766 458.352 262.275 458.475 261.827 458.72C261.39 458.955 261.038 459.317 260.771 459.808C260.505 460.299 260.371 460.896 260.371 461.6C260.371 462.315 260.499 462.917 260.755 463.408C261.022 463.899 261.374 464.267 261.811 464.512C262.249 464.747 262.729 464.864 263.251 464.864ZM271.118 458.656C271.374 458.155 271.736 457.765 272.206 457.488C272.686 457.211 273.267 457.072 273.95 457.072V458.576H273.566C271.934 458.576 271.118 459.461 271.118 461.232V466H269.662V457.232H271.118V458.656ZM276.382 455.808C276.105 455.808 275.87 455.712 275.678 455.52C275.486 455.328 275.39 455.093 275.39 454.816C275.39 454.539 275.486 454.304 275.678 454.112C275.87 453.92 276.105 453.824 276.382 453.824C276.649 453.824 276.873 453.92 277.054 454.112C277.246 454.304 277.342 454.539 277.342 454.816C277.342 455.093 277.246 455.328 277.054 455.52C276.873 455.712 276.649 455.808 276.382 455.808ZM277.086 457.232V466H275.63V457.232H277.086ZM287.568 461.28C287.568 461.557 287.552 461.851 287.52 462.16H280.512C280.565 463.024 280.859 463.701 281.392 464.192C281.936 464.672 282.592 464.912 283.36 464.912C283.989 464.912 284.512 464.768 284.928 464.48C285.355 464.181 285.653 463.787 285.824 463.296H287.392C287.157 464.139 286.688 464.827 285.984 465.36C285.28 465.883 284.405 466.144 283.36 466.144C282.528 466.144 281.781 465.957 281.12 465.584C280.469 465.211 279.957 464.683 279.584 464C279.211 463.307 279.024 462.507 279.024 461.6C279.024 460.693 279.205 459.899 279.568 459.216C279.931 458.533 280.437 458.011 281.088 457.648C281.749 457.275 282.507 457.088 283.36 457.088C284.192 457.088 284.928 457.269 285.568 457.632C286.208 457.995 286.699 458.496 287.04 459.136C287.392 459.765 287.568 460.48 287.568 461.28ZM286.064 460.976C286.064 460.421 285.941 459.947 285.696 459.552C285.451 459.147 285.115 458.843 284.688 458.64C284.272 458.427 283.808 458.32 283.296 458.32C282.56 458.32 281.931 458.555 281.408 459.024C280.896 459.493 280.603 460.144 280.528 460.976H286.064ZM292.594 466.144C291.922 466.144 291.319 466.032 290.786 465.808C290.252 465.573 289.831 465.253 289.522 464.848C289.212 464.432 289.042 463.957 289.01 463.424H290.514C290.556 463.861 290.759 464.219 291.122 464.496C291.495 464.773 291.98 464.912 292.578 464.912C293.132 464.912 293.57 464.789 293.89 464.544C294.21 464.299 294.37 463.989 294.37 463.616C294.37 463.232 294.199 462.949 293.858 462.768C293.516 462.576 292.988 462.389 292.274 462.208C291.623 462.037 291.09 461.867 290.674 461.696C290.268 461.515 289.916 461.253 289.618 460.912C289.33 460.56 289.186 460.101 289.186 459.536C289.186 459.088 289.319 458.677 289.586 458.304C289.852 457.931 290.231 457.637 290.722 457.424C291.212 457.2 291.772 457.088 292.402 457.088C293.372 457.088 294.156 457.333 294.754 457.824C295.351 458.315 295.671 458.987 295.714 459.84H294.258C294.226 459.381 294.039 459.013 293.698 458.736C293.367 458.459 292.919 458.32 292.354 458.32C291.831 458.32 291.415 458.432 291.106 458.656C290.796 458.88 290.642 459.173 290.642 459.536C290.642 459.824 290.732 460.064 290.914 460.256C291.106 460.437 291.34 460.587 291.618 460.704C291.906 460.811 292.3 460.933 292.802 461.072C293.431 461.243 293.943 461.413 294.338 461.584C294.732 461.744 295.068 461.989 295.346 462.32C295.634 462.651 295.783 463.083 295.794 463.616C295.794 464.096 295.66 464.528 295.394 464.912C295.127 465.296 294.748 465.6 294.258 465.824C293.778 466.037 293.223 466.144 292.594 466.144ZM299.353 463.984L297.561 468.288H296.585L297.753 463.984H299.353ZM140.243 483.848C140.531 483.347 140.957 482.931 141.523 482.6C142.099 482.259 142.765 482.088 143.523 482.088C144.301 482.088 145.005 482.275 145.635 482.648C146.275 483.021 146.776 483.549 147.139 484.232C147.501 484.904 147.683 485.688 147.683 486.584C147.683 487.469 147.501 488.259 147.139 488.952C146.776 489.645 146.275 490.184 145.635 490.568C145.005 490.952 144.301 491.144 143.523 491.144C142.776 491.144 142.115 490.979 141.539 490.648C140.973 490.307 140.541 489.885 140.243 489.384V495.16H138.787V482.232H140.243V483.848ZM146.195 486.584C146.195 485.923 146.061 485.347 145.795 484.856C145.528 484.365 145.165 483.992 144.707 483.736C144.259 483.48 143.763 483.352 143.219 483.352C142.685 483.352 142.189 483.485 141.731 483.752C141.283 484.008 140.92 484.387 140.643 484.888C140.376 485.379 140.243 485.949 140.243 486.6C140.243 487.261 140.376 487.843 140.643 488.344C140.92 488.835 141.283 489.213 141.731 489.48C142.189 489.736 142.685 489.864 143.219 489.864C143.763 489.864 144.259 489.736 144.707 489.48C145.165 489.213 145.528 488.835 145.795 488.344C146.061 487.843 146.195 487.256 146.195 486.584ZM151.055 479.16V491H149.599V479.16H151.055ZM161.537 486.28C161.537 486.557 161.521 486.851 161.489 487.16H154.481C154.534 488.024 154.827 488.701 155.361 489.192C155.905 489.672 156.561 489.912 157.329 489.912C157.958 489.912 158.481 489.768 158.897 489.48C159.323 489.181 159.622 488.787 159.793 488.296H161.361C161.126 489.139 160.657 489.827 159.953 490.36C159.249 490.883 158.374 491.144 157.329 491.144C156.497 491.144 155.75 490.957 155.089 490.584C154.438 490.211 153.926 489.683 153.553 489C153.179 488.307 152.993 487.507 152.993 486.6C152.993 485.693 153.174 484.899 153.537 484.216C153.899 483.533 154.406 483.011 155.057 482.648C155.718 482.275 156.475 482.088 157.329 482.088C158.161 482.088 158.897 482.269 159.537 482.632C160.177 482.995 160.667 483.496 161.009 484.136C161.361 484.765 161.537 485.48 161.537 486.28ZM160.033 485.976C160.033 485.421 159.91 484.947 159.665 484.552C159.419 484.147 159.083 483.843 158.657 483.64C158.241 483.427 157.777 483.32 157.265 483.32C156.529 483.32 155.899 483.555 155.377 484.024C154.865 484.493 154.571 485.144 154.497 485.976H160.033ZM162.915 486.584C162.915 485.688 163.096 484.904 163.459 484.232C163.821 483.549 164.317 483.021 164.947 482.648C165.587 482.275 166.296 482.088 167.075 482.088C167.843 482.088 168.509 482.253 169.075 482.584C169.64 482.915 170.061 483.331 170.339 483.832V482.232H171.811V491H170.339V489.368C170.051 489.88 169.619 490.307 169.043 490.648C168.477 490.979 167.816 491.144 167.059 491.144C166.28 491.144 165.576 490.952 164.947 490.568C164.317 490.184 163.821 489.645 163.459 488.952C163.096 488.259 162.915 487.469 162.915 486.584ZM170.339 486.6C170.339 485.939 170.205 485.363 169.939 484.872C169.672 484.381 169.309 484.008 168.851 483.752C168.403 483.485 167.907 483.352 167.363 483.352C166.819 483.352 166.323 483.48 165.875 483.736C165.427 483.992 165.069 484.365 164.803 484.856C164.536 485.347 164.403 485.923 164.403 486.584C164.403 487.256 164.536 487.843 164.803 488.344C165.069 488.835 165.427 489.213 165.875 489.48C166.323 489.736 166.819 489.864 167.363 489.864C167.907 489.864 168.403 489.736 168.851 489.48C169.309 489.213 169.672 488.835 169.939 488.344C170.205 487.843 170.339 487.261 170.339 486.6ZM177.375 491.144C176.703 491.144 176.1 491.032 175.567 490.808C175.034 490.573 174.612 490.253 174.303 489.848C173.994 489.432 173.823 488.957 173.791 488.424H175.295C175.338 488.861 175.54 489.219 175.903 489.496C176.276 489.773 176.762 489.912 177.359 489.912C177.914 489.912 178.351 489.789 178.671 489.544C178.991 489.299 179.151 488.989 179.151 488.616C179.151 488.232 178.98 487.949 178.639 487.768C178.298 487.576 177.77 487.389 177.055 487.208C176.404 487.037 175.871 486.867 175.455 486.696C175.05 486.515 174.698 486.253 174.399 485.912C174.111 485.56 173.967 485.101 173.967 484.536C173.967 484.088 174.1 483.677 174.367 483.304C174.634 482.931 175.012 482.637 175.503 482.424C175.994 482.2 176.554 482.088 177.183 482.088C178.154 482.088 178.938 482.333 179.535 482.824C180.132 483.315 180.452 483.987 180.495 484.84H179.039C179.007 484.381 178.82 484.013 178.479 483.736C178.148 483.459 177.7 483.32 177.135 483.32C176.612 483.32 176.196 483.432 175.887 483.656C175.578 483.88 175.423 484.173 175.423 484.536C175.423 484.824 175.514 485.064 175.695 485.256C175.887 485.437 176.122 485.587 176.399 485.704C176.687 485.811 177.082 485.933 177.583 486.072C178.212 486.243 178.724 486.413 179.119 486.584C179.514 486.744 179.85 486.989 180.127 487.32C180.415 487.651 180.564 488.083 180.575 488.616C180.575 489.096 180.442 489.528 180.175 489.912C179.908 490.296 179.53 490.6 179.039 490.824C178.559 491.037 178.004 491.144 177.375 491.144ZM190.63 486.28C190.63 486.557 190.614 486.851 190.582 487.16H183.574C183.628 488.024 183.921 488.701 184.454 489.192C184.998 489.672 185.654 489.912 186.422 489.912C187.052 489.912 187.574 489.768 187.99 489.48C188.417 489.181 188.716 488.787 188.886 488.296H190.454C190.22 489.139 189.75 489.827 189.046 490.36C188.342 490.883 187.468 491.144 186.422 491.144C185.59 491.144 184.844 490.957 184.182 490.584C183.532 490.211 183.02 489.683 182.646 489C182.273 488.307 182.086 487.507 182.086 486.6C182.086 485.693 182.268 484.899 182.63 484.216C182.993 483.533 183.5 483.011 184.15 482.648C184.812 482.275 185.569 482.088 186.422 482.088C187.254 482.088 187.99 482.269 188.63 482.632C189.27 482.995 189.761 483.496 190.102 484.136C190.454 484.765 190.63 485.48 190.63 486.28ZM189.126 485.976C189.126 485.421 189.004 484.947 188.758 484.552C188.513 484.147 188.177 483.843 187.75 483.64C187.334 483.427 186.87 483.32 186.358 483.32C185.622 483.32 184.993 483.555 184.47 484.024C183.958 484.493 183.665 485.144 183.59 485.976H189.126ZM196.274 486.6C196.274 485.693 196.455 484.904 196.818 484.232C197.181 483.549 197.682 483.021 198.322 482.648C198.973 482.275 199.714 482.088 200.546 482.088C201.623 482.088 202.509 482.349 203.202 482.872C203.906 483.395 204.37 484.12 204.594 485.048H203.026C202.877 484.515 202.583 484.093 202.146 483.784C201.719 483.475 201.186 483.32 200.546 483.32C199.714 483.32 199.042 483.608 198.53 484.184C198.018 484.749 197.762 485.555 197.762 486.6C197.762 487.656 198.018 488.472 198.53 489.048C199.042 489.624 199.714 489.912 200.546 489.912C201.186 489.912 201.719 489.763 202.146 489.464C202.573 489.165 202.866 488.739 203.026 488.184H204.594C204.359 489.08 203.89 489.8 203.186 490.344C202.482 490.877 201.602 491.144 200.546 491.144C199.714 491.144 198.973 490.957 198.322 490.584C197.682 490.211 197.181 489.683 196.818 489C196.455 488.317 196.274 487.517 196.274 486.6ZM207.993 483.656C208.249 483.155 208.611 482.765 209.081 482.488C209.561 482.211 210.142 482.072 210.825 482.072V483.576H210.441C208.809 483.576 207.993 484.461 207.993 486.232V491H206.537V482.232H207.993V483.656ZM220.505 486.28C220.505 486.557 220.489 486.851 220.457 487.16H213.449C213.503 488.024 213.796 488.701 214.329 489.192C214.873 489.672 215.529 489.912 216.297 489.912C216.927 489.912 217.449 489.768 217.865 489.48C218.292 489.181 218.591 488.787 218.761 488.296H220.329C220.095 489.139 219.625 489.827 218.921 490.36C218.217 490.883 217.343 491.144 216.297 491.144C215.465 491.144 214.719 490.957 214.057 490.584C213.407 490.211 212.895 489.683 212.521 489C212.148 488.307 211.961 487.507 211.961 486.6C211.961 485.693 212.143 484.899 212.505 484.216C212.868 483.533 213.375 483.011 214.025 482.648C214.687 482.275 215.444 482.088 216.297 482.088C217.129 482.088 217.865 482.269 218.505 482.632C219.145 482.995 219.636 483.496 219.977 484.136C220.329 484.765 220.505 485.48 220.505 486.28ZM219.001 485.976C219.001 485.421 218.879 484.947 218.633 484.552C218.388 484.147 218.052 483.843 217.625 483.64C217.209 483.427 216.745 483.32 216.233 483.32C215.497 483.32 214.868 483.555 214.345 484.024C213.833 484.493 213.54 485.144 213.465 485.976H219.001ZM221.883 486.584C221.883 485.688 222.065 484.904 222.427 484.232C222.79 483.549 223.286 483.021 223.915 482.648C224.555 482.275 225.265 482.088 226.043 482.088C226.811 482.088 227.478 482.253 228.043 482.584C228.609 482.915 229.03 483.331 229.307 483.832V482.232H230.779V491H229.307V489.368C229.019 489.88 228.587 490.307 228.011 490.648C227.446 490.979 226.785 491.144 226.027 491.144C225.249 491.144 224.545 490.952 223.915 490.568C223.286 490.184 222.79 489.645 222.427 488.952C222.065 488.259 221.883 487.469 221.883 486.584ZM229.307 486.6C229.307 485.939 229.174 485.363 228.907 484.872C228.641 484.381 228.278 484.008 227.819 483.752C227.371 483.485 226.875 483.352 226.331 483.352C225.787 483.352 225.291 483.48 224.843 483.736C224.395 483.992 224.038 484.365 223.771 484.856C223.505 485.347 223.371 485.923 223.371 486.584C223.371 487.256 223.505 487.843 223.771 488.344C224.038 488.835 224.395 489.213 224.843 489.48C225.291 489.736 225.787 489.864 226.331 489.864C226.875 489.864 227.371 489.736 227.819 489.48C228.278 489.213 228.641 488.835 228.907 488.344C229.174 487.843 229.307 487.261 229.307 486.6ZM235.016 483.432V488.6C235.016 489.027 235.106 489.331 235.288 489.512C235.469 489.683 235.784 489.768 236.232 489.768H237.304V491H235.992C235.181 491 234.573 490.813 234.168 490.44C233.762 490.067 233.56 489.453 233.56 488.6V483.432H232.424V482.232H233.56V480.024H235.016V482.232H237.304V483.432H235.016ZM247.068 486.28C247.068 486.557 247.052 486.851 247.02 487.16H240.012C240.065 488.024 240.359 488.701 240.892 489.192C241.436 489.672 242.092 489.912 242.86 489.912C243.489 489.912 244.012 489.768 244.428 489.48C244.855 489.181 245.153 488.787 245.324 488.296H246.892C246.657 489.139 246.188 489.827 245.484 490.36C244.78 490.883 243.905 491.144 242.86 491.144C242.028 491.144 241.281 490.957 240.62 490.584C239.969 490.211 239.457 489.683 239.084 489C238.711 488.307 238.524 487.507 238.524 486.6C238.524 485.693 238.705 484.899 239.068 484.216C239.431 483.533 239.937 483.011 240.588 482.648C241.249 482.275 242.007 482.088 242.86 482.088C243.692 482.088 244.428 482.269 245.068 482.632C245.708 482.995 246.199 483.496 246.54 484.136C246.892 484.765 247.068 485.48 247.068 486.28ZM245.564 485.976C245.564 485.421 245.441 484.947 245.196 484.552C244.951 484.147 244.615 483.843 244.188 483.64C243.772 483.427 243.308 483.32 242.796 483.32C242.06 483.32 241.431 483.555 240.908 484.024C240.396 484.493 240.103 485.144 240.028 485.976H245.564ZM264.567 479.928V491H263.111V482.744L259.431 491H258.407L254.711 482.728V491H253.255V479.928H254.823L258.919 489.08L263.015 479.928H264.567ZM275.597 491L274.141 489.528C273.597 490.093 273.015 490.515 272.397 490.792C271.778 491.059 271.079 491.192 270.301 491.192C269.533 491.192 268.85 491.053 268.253 490.776C267.666 490.499 267.207 490.104 266.877 489.592C266.557 489.08 266.397 488.483 266.397 487.8C266.397 487.021 266.615 486.339 267.053 485.752C267.501 485.155 268.157 484.685 269.021 484.344C268.679 483.939 268.434 483.565 268.285 483.224C268.135 482.883 268.061 482.509 268.061 482.104C268.061 481.635 268.178 481.213 268.413 480.84C268.658 480.456 269.005 480.157 269.453 479.944C269.901 479.731 270.418 479.624 271.005 479.624C271.581 479.624 272.082 479.736 272.509 479.96C272.935 480.184 273.255 480.499 273.469 480.904C273.682 481.299 273.778 481.741 273.757 482.232H272.301C272.311 481.795 272.189 481.453 271.933 481.208C271.677 480.952 271.346 480.824 270.941 480.824C270.514 480.824 270.167 480.947 269.901 481.192C269.645 481.427 269.517 481.731 269.517 482.104C269.517 482.424 269.602 482.733 269.773 483.032C269.954 483.331 270.253 483.699 270.669 484.136L273.997 487.48L274.285 487.032L275.373 485.208H276.941L275.629 487.48C275.447 487.8 275.234 488.136 274.989 488.488L277.501 491H275.597ZM270.301 489.944C270.877 489.944 271.394 489.832 271.853 489.608C272.322 489.384 272.765 489.037 273.181 488.568L269.901 485.272C268.535 485.795 267.853 486.621 267.853 487.752C267.853 488.381 268.077 488.904 268.525 489.32C268.983 489.736 269.575 489.944 270.301 489.944ZM288.081 479.848L283.873 491H282.193L277.985 479.848H279.537L283.041 489.464L286.545 479.848H288.081ZM167.571 510.6C167.571 509.693 167.752 508.904 168.115 508.232C168.477 507.549 168.979 507.021 169.619 506.648C170.269 506.275 171.011 506.088 171.843 506.088C172.92 506.088 173.805 506.349 174.499 506.872C175.203 507.395 175.667 508.12 175.891 509.048H174.323C174.173 508.515 173.88 508.093 173.443 507.784C173.016 507.475 172.483 507.32 171.843 507.32C171.011 507.32 170.339 507.608 169.827 508.184C169.315 508.749 169.059 509.555 169.059 510.6C169.059 511.656 169.315 512.472 169.827 513.048C170.339 513.624 171.011 513.912 171.843 513.912C172.483 513.912 173.016 513.763 173.443 513.464C173.869 513.165 174.163 512.739 174.323 512.184H175.891C175.656 513.08 175.187 513.8 174.483 514.344C173.779 514.877 172.899 515.144 171.843 515.144C171.011 515.144 170.269 514.957 169.619 514.584C168.979 514.211 168.477 513.683 168.115 513C167.752 512.317 167.571 511.517 167.571 510.6ZM177.29 510.584C177.29 509.688 177.471 508.904 177.834 508.232C178.196 507.549 178.692 507.021 179.322 506.648C179.962 506.275 180.671 506.088 181.45 506.088C182.218 506.088 182.884 506.253 183.45 506.584C184.015 506.915 184.436 507.331 184.714 507.832V506.232H186.186V515H184.714V513.368C184.426 513.88 183.994 514.307 183.418 514.648C182.852 514.979 182.191 515.144 181.434 515.144C180.655 515.144 179.951 514.952 179.322 514.568C178.692 514.184 178.196 513.645 177.834 512.952C177.471 512.259 177.29 511.469 177.29 510.584ZM184.714 510.6C184.714 509.939 184.58 509.363 184.314 508.872C184.047 508.381 183.684 508.008 183.226 507.752C182.778 507.485 182.282 507.352 181.738 507.352C181.194 507.352 180.698 507.48 180.25 507.736C179.802 507.992 179.444 508.365 179.178 508.856C178.911 509.347 178.778 509.923 178.778 510.584C178.778 511.256 178.911 511.843 179.178 512.344C179.444 512.835 179.802 513.213 180.25 513.48C180.698 513.736 181.194 513.864 181.738 513.864C182.282 513.864 182.778 513.736 183.226 513.48C183.684 513.213 184.047 512.835 184.314 512.344C184.58 511.843 184.714 511.261 184.714 510.6ZM190.422 507.432V512.6C190.422 513.027 190.513 513.331 190.694 513.512C190.875 513.683 191.19 513.768 191.638 513.768H192.71V515H191.398C190.587 515 189.979 514.813 189.574 514.44C189.169 514.067 188.966 513.453 188.966 512.6V507.432H187.83V506.232H188.966V504.024H190.422V506.232H192.71V507.432H190.422ZM202.474 510.28C202.474 510.557 202.458 510.851 202.426 511.16H195.418C195.472 512.024 195.765 512.701 196.298 513.192C196.842 513.672 197.498 513.912 198.266 513.912C198.896 513.912 199.418 513.768 199.834 513.48C200.261 513.181 200.56 512.787 200.73 512.296H202.298C202.064 513.139 201.594 513.827 200.89 514.36C200.186 514.883 199.312 515.144 198.266 515.144C197.434 515.144 196.688 514.957 196.026 514.584C195.376 514.211 194.864 513.683 194.49 513C194.117 512.307 193.93 511.507 193.93 510.6C193.93 509.693 194.112 508.899 194.474 508.216C194.837 507.533 195.344 507.011 195.994 506.648C196.656 506.275 197.413 506.088 198.266 506.088C199.098 506.088 199.834 506.269 200.474 506.632C201.114 506.995 201.605 507.496 201.946 508.136C202.298 508.765 202.474 509.48 202.474 510.28ZM200.97 509.976C200.97 509.421 200.848 508.947 200.602 508.552C200.357 508.147 200.021 507.843 199.594 507.64C199.178 507.427 198.714 507.32 198.202 507.32C197.466 507.32 196.837 507.555 196.314 508.024C195.802 508.493 195.509 509.144 195.434 509.976H200.97ZM208.012 506.088C208.769 506.088 209.431 506.253 209.996 506.584C210.572 506.915 210.999 507.331 211.276 507.832V506.232H212.748V515.192C212.748 515.992 212.577 516.701 212.236 517.32C211.895 517.949 211.404 518.44 210.764 518.792C210.135 519.144 209.399 519.32 208.556 519.32C207.404 519.32 206.444 519.048 205.676 518.504C204.908 517.96 204.455 517.219 204.316 516.28H205.756C205.916 516.813 206.247 517.24 206.748 517.56C207.249 517.891 207.852 518.056 208.556 518.056C209.356 518.056 210.007 517.805 210.508 517.304C211.02 516.803 211.276 516.099 211.276 515.192V513.352C210.988 513.864 210.561 514.291 209.996 514.632C209.431 514.973 208.769 515.144 208.012 515.144C207.233 515.144 206.524 514.952 205.884 514.568C205.255 514.184 204.759 513.645 204.396 512.952C204.033 512.259 203.852 511.469 203.852 510.584C203.852 509.688 204.033 508.904 204.396 508.232C204.759 507.549 205.255 507.021 205.884 506.648C206.524 506.275 207.233 506.088 208.012 506.088ZM211.276 510.6C211.276 509.939 211.143 509.363 210.876 508.872C210.609 508.381 210.247 508.008 209.788 507.752C209.34 507.485 208.844 507.352 208.3 507.352C207.756 507.352 207.26 507.48 206.812 507.736C206.364 507.992 206.007 508.365 205.74 508.856C205.473 509.347 205.34 509.923 205.34 510.584C205.34 511.256 205.473 511.843 205.74 512.344C206.007 512.835 206.364 513.213 206.812 513.48C207.26 513.736 207.756 513.864 208.3 513.864C208.844 513.864 209.34 513.736 209.788 513.48C210.247 513.213 210.609 512.835 210.876 512.344C211.143 511.843 211.276 511.261 211.276 510.6ZM219.033 515.144C218.211 515.144 217.465 514.957 216.793 514.584C216.131 514.211 215.609 513.683 215.225 513C214.851 512.307 214.665 511.507 214.665 510.6C214.665 509.704 214.857 508.915 215.241 508.232C215.635 507.539 216.169 507.011 216.841 506.648C217.513 506.275 218.265 506.088 219.097 506.088C219.929 506.088 220.681 506.275 221.353 506.648C222.025 507.011 222.553 507.533 222.937 508.216C223.331 508.899 223.529 509.693 223.529 510.6C223.529 511.507 223.326 512.307 222.921 513C222.526 513.683 221.987 514.211 221.305 514.584C220.622 514.957 219.865 515.144 219.033 515.144ZM219.033 513.864C219.555 513.864 220.046 513.741 220.505 513.496C220.963 513.251 221.331 512.883 221.609 512.392C221.897 511.901 222.041 511.304 222.041 510.6C222.041 509.896 221.902 509.299 221.625 508.808C221.347 508.317 220.985 507.955 220.537 507.72C220.089 507.475 219.603 507.352 219.081 507.352C218.547 507.352 218.057 507.475 217.609 507.72C217.171 507.955 216.819 508.317 216.553 508.808C216.286 509.299 216.153 509.896 216.153 510.6C216.153 511.315 216.281 511.917 216.537 512.408C216.803 512.899 217.155 513.267 217.593 513.512C218.03 513.747 218.51 513.864 219.033 513.864ZM226.899 507.656C227.155 507.155 227.518 506.765 227.987 506.488C228.467 506.211 229.048 506.072 229.731 506.072V507.576H229.347C227.715 507.576 226.899 508.461 226.899 510.232V515H225.443V506.232H226.899V507.656ZM232.164 504.808C231.886 504.808 231.652 504.712 231.46 504.52C231.268 504.328 231.172 504.093 231.172 503.816C231.172 503.539 231.268 503.304 231.46 503.112C231.652 502.92 231.886 502.824 232.164 502.824C232.43 502.824 232.654 502.92 232.836 503.112C233.028 503.304 233.124 503.539 233.124 503.816C233.124 504.093 233.028 504.328 232.836 504.52C232.654 504.712 232.43 504.808 232.164 504.808ZM232.868 506.232V515H231.412V506.232H232.868ZM243.349 510.28C243.349 510.557 243.333 510.851 243.301 511.16H236.293C236.347 512.024 236.64 512.701 237.173 513.192C237.717 513.672 238.373 513.912 239.141 513.912C239.771 513.912 240.293 513.768 240.709 513.48C241.136 513.181 241.435 512.787 241.605 512.296H243.173C242.939 513.139 242.469 513.827 241.765 514.36C241.061 514.883 240.187 515.144 239.141 515.144C238.309 515.144 237.563 514.957 236.901 514.584C236.251 514.211 235.739 513.683 235.365 513C234.992 512.307 234.805 511.507 234.805 510.6C234.805 509.693 234.987 508.899 235.349 508.216C235.712 507.533 236.219 507.011 236.869 506.648C237.531 506.275 238.288 506.088 239.141 506.088C239.973 506.088 240.709 506.269 241.349 506.632C241.989 506.995 242.48 507.496 242.821 508.136C243.173 508.765 243.349 509.48 243.349 510.28ZM241.845 509.976C241.845 509.421 241.723 508.947 241.477 508.552C241.232 508.147 240.896 507.843 240.469 507.64C240.053 507.427 239.589 507.32 239.077 507.32C238.341 507.32 237.712 507.555 237.189 508.024C236.677 508.493 236.384 509.144 236.309 509.976H241.845ZM248.375 515.144C247.703 515.144 247.1 515.032 246.567 514.808C246.034 514.573 245.612 514.253 245.303 513.848C244.994 513.432 244.823 512.957 244.791 512.424H246.295C246.338 512.861 246.54 513.219 246.903 513.496C247.276 513.773 247.762 513.912 248.359 513.912C248.914 513.912 249.351 513.789 249.671 513.544C249.991 513.299 250.151 512.989 250.151 512.616C250.151 512.232 249.98 511.949 249.639 511.768C249.298 511.576 248.77 511.389 248.055 511.208C247.404 511.037 246.871 510.867 246.455 510.696C246.05 510.515 245.698 510.253 245.399 509.912C245.111 509.56 244.967 509.101 244.967 508.536C244.967 508.088 245.1 507.677 245.367 507.304C245.634 506.931 246.012 506.637 246.503 506.424C246.994 506.2 247.554 506.088 248.183 506.088C249.154 506.088 249.938 506.333 250.535 506.824C251.132 507.315 251.452 507.987 251.495 508.84H250.039C250.007 508.381 249.82 508.013 249.479 507.736C249.148 507.459 248.7 507.32 248.135 507.32C247.612 507.32 247.196 507.432 246.887 507.656C246.578 507.88 246.423 508.173 246.423 508.536C246.423 508.824 246.514 509.064 246.695 509.256C246.887 509.437 247.122 509.587 247.399 509.704C247.687 509.811 248.082 509.933 248.583 510.072C249.212 510.243 249.724 510.413 250.119 510.584C250.514 510.744 250.85 510.989 251.127 511.32C251.415 511.651 251.564 512.083 251.575 512.616C251.575 513.096 251.442 513.528 251.175 513.912C250.908 514.296 250.53 514.6 250.039 514.824C249.559 515.037 249.004 515.144 248.375 515.144ZM254.094 515.096C253.817 515.096 253.582 515 253.39 514.808C253.198 514.616 253.102 514.381 253.102 514.104C253.102 513.827 253.198 513.592 253.39 513.4C253.582 513.208 253.817 513.112 254.094 513.112C254.361 513.112 254.585 513.208 254.766 513.4C254.958 513.592 255.054 513.827 255.054 514.104C255.054 514.381 254.958 514.616 254.766 514.808C254.585 515 254.361 515.096 254.094 515.096ZM257.454 515.096C257.176 515.096 256.942 515 256.75 514.808C256.558 514.616 256.462 514.381 256.462 514.104C256.462 513.827 256.558 513.592 256.75 513.4C256.942 513.208 257.176 513.112 257.454 513.112C257.72 513.112 257.944 513.208 258.126 513.4C258.318 513.592 258.414 513.827 258.414 514.104C258.414 514.381 258.318 514.616 258.126 514.808C257.944 515 257.72 515.096 257.454 515.096Z" fill="black"/>
</svg>
