<svg width="258" height="313" viewBox="0 0 258 313" fill="none" xmlns="http://www.w3.org/2000/svg">
<path d="M109.631 61.4797C123.111 51.6416 137.807 33.6222 153.001 31.0024C168.228 28.6988 183.81 41.9619 196.104 57.3221C208.365 72.366 217.37 89.8231 218.701 107.084C220.031 124.344 214.004 141.39 204.375 154.506C194.922 167.772 182.009 176.941 168.836 188.193C155.522 199.613 141.947 213.114 125.301 217.09C108.512 221.232 88.7947 215.681 75.2802 203.89C61.4486 192.118 53.7869 173.788 48.3019 156.448C42.8169 139.107 39.8256 122.737 43.9984 109.296C48.1712 95.8561 59.8251 85.3273 71.7679 79.0764C83.7437 73.1418 96.0085 71.485 109.631 61.4797Z" fill="#F66464"/>
<rect y="169" width="258" height="144" rx="28" fill="#EFEDED"/>
<path d="M31.5396 204.416C31.5396 203.328 31.7849 202.352 32.2756 201.488C32.7662 200.613 33.4329 199.931 34.2756 199.44C35.1289 198.949 36.0729 198.704 37.1076 198.704C38.3236 198.704 39.3849 198.997 40.2916 199.584C41.1982 200.171 41.8596 201.003 42.2756 202.08H40.5316C40.2222 201.408 39.7742 200.891 39.1876 200.528C38.6116 200.165 37.9182 199.984 37.1076 199.984C36.3289 199.984 35.6302 200.165 35.0116 200.528C34.3929 200.891 33.9076 201.408 33.5556 202.08C33.2036 202.741 33.0276 203.52 33.0276 204.416C33.0276 205.301 33.2036 206.08 33.5556 206.752C33.9076 207.413 34.3929 207.925 35.0116 208.288C35.6302 208.651 36.3289 208.832 37.1076 208.832C37.9182 208.832 38.6116 208.656 39.1876 208.304C39.7742 207.941 40.2222 207.424 40.5316 206.752H42.2756C41.8596 207.819 41.1982 208.645 40.2916 209.232C39.3849 209.808 38.3236 210.096 37.1076 210.096C36.0729 210.096 35.1289 209.856 34.2756 209.376C33.4329 208.885 32.7662 208.208 32.2756 207.344C31.7849 206.48 31.5396 205.504 31.5396 204.416ZM52.2189 201.232V210H50.7629V208.704C50.4856 209.152 50.0963 209.504 49.5949 209.76C49.1043 210.005 48.5603 210.128 47.9629 210.128C47.2803 210.128 46.6669 209.989 46.1229 209.712C45.5789 209.424 45.1469 208.997 44.8269 208.432C44.5176 207.867 44.3629 207.179 44.3629 206.368V201.232H45.8029V206.176C45.8029 207.04 46.0216 207.707 46.4589 208.176C46.8963 208.635 47.4936 208.864 48.2509 208.864C49.0296 208.864 49.6429 208.624 50.0909 208.144C50.5389 207.664 50.7629 206.965 50.7629 206.048V201.232H52.2189ZM56.1333 202.656C56.3893 202.155 56.752 201.765 57.2213 201.488C57.7013 201.211 58.2826 201.072 58.9653 201.072V202.576H58.5813C56.9493 202.576 56.1333 203.461 56.1333 205.232V210H54.6773V201.232H56.1333V202.656ZM62.1021 202.656C62.3581 202.155 62.7207 201.765 63.1901 201.488C63.6701 201.211 64.2514 201.072 64.9341 201.072V202.576H64.5501C62.9181 202.576 62.1021 203.461 62.1021 205.232V210H60.6461V201.232H62.1021V202.656ZM74.6148 205.28C74.6148 205.557 74.5988 205.851 74.5668 206.16H67.5588C67.6121 207.024 67.9055 207.701 68.4388 208.192C68.9828 208.672 69.6388 208.912 70.4068 208.912C71.0361 208.912 71.5588 208.768 71.9748 208.48C72.4015 208.181 72.7001 207.787 72.8708 207.296H74.4388C74.2041 208.139 73.7348 208.827 73.0308 209.36C72.3268 209.883 71.4521 210.144 70.4068 210.144C69.5748 210.144 68.8281 209.957 68.1668 209.584C67.5161 209.211 67.0041 208.683 66.6308 208C66.2575 207.307 66.0708 206.507 66.0708 205.6C66.0708 204.693 66.2521 203.899 66.6148 203.216C66.9775 202.533 67.4841 202.011 68.1348 201.648C68.7961 201.275 69.5535 201.088 70.4068 201.088C71.2388 201.088 71.9748 201.269 72.6148 201.632C73.2548 201.995 73.7455 202.496 74.0868 203.136C74.4388 203.765 74.6148 204.48 74.6148 205.28ZM73.1108 204.976C73.1108 204.421 72.9881 203.947 72.7428 203.552C72.4975 203.147 72.1615 202.843 71.7348 202.64C71.3188 202.427 70.8548 202.32 70.3428 202.32C69.6068 202.32 68.9775 202.555 68.4548 203.024C67.9428 203.493 67.6495 204.144 67.5748 204.976H73.1108ZM80.8087 201.072C81.8754 201.072 82.7394 201.397 83.4007 202.048C84.062 202.688 84.3927 203.616 84.3927 204.832V210H82.9527V205.04C82.9527 204.165 82.734 203.499 82.2967 203.04C81.8594 202.571 81.262 202.336 80.5047 202.336C79.7367 202.336 79.1234 202.576 78.6647 203.056C78.2167 203.536 77.9927 204.235 77.9927 205.152V210H76.5367V201.232H77.9927V202.48C78.2807 202.032 78.67 201.685 79.1607 201.44C79.662 201.195 80.2114 201.072 80.8087 201.072ZM88.5471 202.432V207.6C88.5471 208.027 88.6377 208.331 88.8191 208.512C89.0004 208.683 89.3151 208.768 89.7631 208.768H90.8351V210H89.5231C88.7124 210 88.1044 209.813 87.6991 209.44C87.2937 209.067 87.0911 208.453 87.0911 207.6V202.432H85.9551V201.232H87.0911V199.024H88.5471V201.232H90.8351V202.432H88.5471ZM94.0552 198.16V210H92.5992V198.16H94.0552ZM104.089 201.232L98.8087 214.128H97.3047L99.0327 209.904L95.4967 201.232H97.1127L99.8647 208.336L102.585 201.232H104.089ZM117.37 201.232L112.09 214.128H110.586L112.314 209.904L108.778 201.232H110.394L113.146 208.336L115.866 201.232H117.37ZM122.658 210.144C121.836 210.144 121.09 209.957 120.418 209.584C119.756 209.211 119.234 208.683 118.85 208C118.476 207.307 118.29 206.507 118.29 205.6C118.29 204.704 118.482 203.915 118.866 203.232C119.26 202.539 119.794 202.011 120.466 201.648C121.138 201.275 121.89 201.088 122.722 201.088C123.554 201.088 124.306 201.275 124.978 201.648C125.65 202.011 126.178 202.533 126.562 203.216C126.956 203.899 127.154 204.693 127.154 205.6C127.154 206.507 126.951 207.307 126.546 208C126.151 208.683 125.612 209.211 124.93 209.584C124.247 209.957 123.49 210.144 122.658 210.144ZM122.658 208.864C123.18 208.864 123.671 208.741 124.13 208.496C124.588 208.251 124.956 207.883 125.234 207.392C125.522 206.901 125.666 206.304 125.666 205.6C125.666 204.896 125.527 204.299 125.25 203.808C124.972 203.317 124.61 202.955 124.162 202.72C123.714 202.475 123.228 202.352 122.706 202.352C122.172 202.352 121.682 202.475 121.234 202.72C120.796 202.955 120.444 203.317 120.178 203.808C119.911 204.299 119.778 204.896 119.778 205.6C119.778 206.315 119.906 206.917 120.162 207.408C120.428 207.899 120.78 208.267 121.218 208.512C121.655 208.747 122.135 208.864 122.658 208.864ZM136.844 201.232V210H135.388V208.704C135.111 209.152 134.721 209.504 134.22 209.76C133.729 210.005 133.185 210.128 132.588 210.128C131.905 210.128 131.292 209.989 130.748 209.712C130.204 209.424 129.772 208.997 129.452 208.432C129.143 207.867 128.988 207.179 128.988 206.368V201.232H130.428V206.176C130.428 207.04 130.647 207.707 131.084 208.176C131.521 208.635 132.119 208.864 132.876 208.864C133.655 208.864 134.268 208.624 134.716 208.144C135.164 207.664 135.388 206.965 135.388 206.048V201.232H136.844ZM143.024 205.584C143.024 204.688 143.205 203.904 143.568 203.232C143.931 202.549 144.427 202.021 145.056 201.648C145.696 201.275 146.411 201.088 147.2 201.088C147.883 201.088 148.517 201.248 149.104 201.568C149.691 201.877 150.139 202.288 150.448 202.8V198.16H151.92V210H150.448V208.352C150.16 208.875 149.733 209.307 149.168 209.648C148.603 209.979 147.941 210.144 147.184 210.144C146.405 210.144 145.696 209.952 145.056 209.568C144.427 209.184 143.931 208.645 143.568 207.952C143.205 207.259 143.024 206.469 143.024 205.584ZM150.448 205.6C150.448 204.939 150.315 204.363 150.048 203.872C149.781 203.381 149.419 203.008 148.96 202.752C148.512 202.485 148.016 202.352 147.472 202.352C146.928 202.352 146.432 202.48 145.984 202.736C145.536 202.992 145.179 203.365 144.912 203.856C144.645 204.347 144.512 204.923 144.512 205.584C144.512 206.256 144.645 206.843 144.912 207.344C145.179 207.835 145.536 208.213 145.984 208.48C146.432 208.736 146.928 208.864 147.472 208.864C148.016 208.864 148.512 208.736 148.96 208.48C149.419 208.213 149.781 207.835 150.048 207.344C150.315 206.843 150.448 206.261 150.448 205.6ZM158.204 210.144C157.383 210.144 156.636 209.957 155.964 209.584C155.303 209.211 154.78 208.683 154.396 208C154.023 207.307 153.836 206.507 153.836 205.6C153.836 204.704 154.028 203.915 154.412 203.232C154.807 202.539 155.34 202.011 156.012 201.648C156.684 201.275 157.436 201.088 158.268 201.088C159.1 201.088 159.852 201.275 160.524 201.648C161.196 202.011 161.724 202.533 162.108 203.216C162.503 203.899 162.7 204.693 162.7 205.6C162.7 206.507 162.498 207.307 162.092 208C161.698 208.683 161.159 209.211 160.476 209.584C159.794 209.957 159.036 210.144 158.204 210.144ZM158.204 208.864C158.727 208.864 159.218 208.741 159.676 208.496C160.135 208.251 160.503 207.883 160.78 207.392C161.068 206.901 161.212 206.304 161.212 205.6C161.212 204.896 161.074 204.299 160.796 203.808C160.519 203.317 160.156 202.955 159.708 202.72C159.26 202.475 158.775 202.352 158.252 202.352C157.719 202.352 157.228 202.475 156.78 202.72C156.343 202.955 155.991 203.317 155.724 203.808C155.458 204.299 155.324 204.896 155.324 205.6C155.324 206.315 155.452 206.917 155.708 207.408C155.975 207.899 156.327 208.267 156.764 208.512C157.202 208.747 157.682 208.864 158.204 208.864ZM168.887 201.072C169.953 201.072 170.817 201.397 171.479 202.048C172.14 202.688 172.471 203.616 172.471 204.832V210H171.031V205.04C171.031 204.165 170.812 203.499 170.375 203.04C169.937 202.571 169.34 202.336 168.583 202.336C167.815 202.336 167.201 202.576 166.743 203.056C166.295 203.536 166.071 204.235 166.071 205.152V210H164.615V201.232H166.071V202.48C166.359 202.032 166.748 201.685 167.239 201.44C167.74 201.195 168.289 201.072 168.887 201.072ZM175.073 198.848H176.689L175.153 202.48H174.129L175.073 198.848ZM180.125 202.432V207.6C180.125 208.027 180.216 208.331 180.397 208.512C180.579 208.683 180.893 208.768 181.341 208.768H182.413V210H181.101C180.291 210 179.683 209.813 179.277 209.44C178.872 209.067 178.669 208.453 178.669 207.6V202.432H177.533V201.232H178.669V199.024H180.125V201.232H182.413V202.432H180.125ZM192.795 201.072C193.456 201.072 194.054 201.216 194.587 201.504C195.12 201.781 195.536 202.203 195.835 202.768C196.144 203.333 196.299 204.021 196.299 204.832V210H194.859V205.04C194.859 204.165 194.64 203.499 194.203 203.04C193.766 202.571 193.168 202.336 192.411 202.336C191.643 202.336 191.03 202.576 190.571 203.056C190.123 203.536 189.899 204.235 189.899 205.152V210H188.443V198.16H189.899V202.48C190.187 202.032 190.582 201.685 191.083 201.44C191.595 201.195 192.166 201.072 192.795 201.072ZM198.133 205.584C198.133 204.688 198.315 203.904 198.677 203.232C199.04 202.549 199.536 202.021 200.165 201.648C200.805 201.275 201.515 201.088 202.293 201.088C203.061 201.088 203.728 201.253 204.293 201.584C204.859 201.915 205.28 202.331 205.557 202.832V201.232H207.029V210H205.557V208.368C205.269 208.88 204.837 209.307 204.261 209.648C203.696 209.979 203.035 210.144 202.277 210.144C201.499 210.144 200.795 209.952 200.165 209.568C199.536 209.184 199.04 208.645 198.677 207.952C198.315 207.259 198.133 206.469 198.133 205.584ZM205.557 205.6C205.557 204.939 205.424 204.363 205.157 203.872C204.891 203.381 204.528 203.008 204.069 202.752C203.621 202.485 203.125 202.352 202.581 202.352C202.037 202.352 201.541 202.48 201.093 202.736C200.645 202.992 200.288 203.365 200.021 203.856C199.755 204.347 199.621 204.923 199.621 205.584C199.621 206.256 199.755 206.843 200.021 207.344C200.288 207.835 200.645 208.213 201.093 208.48C201.541 208.736 202.037 208.864 202.581 208.864C203.125 208.864 203.621 208.736 204.069 208.48C204.528 208.213 204.891 207.835 205.157 207.344C205.424 206.843 205.557 206.261 205.557 205.6ZM212.754 208.656L215.474 201.232H217.026L213.586 210H211.89L208.45 201.232H210.018L212.754 208.656ZM226.459 205.28C226.459 205.557 226.443 205.851 226.411 206.16H219.403C219.456 207.024 219.749 207.701 220.283 208.192C220.827 208.672 221.483 208.912 222.251 208.912C222.88 208.912 223.403 208.768 223.819 208.48C224.245 208.181 224.544 207.787 224.715 207.296H226.283C226.048 208.139 225.579 208.827 224.875 209.36C224.171 209.883 223.296 210.144 222.251 210.144C221.419 210.144 220.672 209.957 220.011 209.584C219.36 209.211 218.848 208.683 218.475 208C218.101 207.307 217.915 206.507 217.915 205.6C217.915 204.693 218.096 203.899 218.459 203.216C218.821 202.533 219.328 202.011 219.979 201.648C220.64 201.275 221.397 201.088 222.251 201.088C223.083 201.088 223.819 201.269 224.459 201.632C225.099 201.995 225.589 202.496 225.931 203.136C226.283 203.765 226.459 204.48 226.459 205.28ZM224.955 204.976C224.955 204.421 224.832 203.947 224.587 203.552C224.341 203.147 224.005 202.843 223.579 202.64C223.163 202.427 222.699 202.32 222.187 202.32C221.451 202.32 220.821 202.555 220.299 203.024C219.787 203.493 219.493 204.144 219.419 204.976H224.955ZM44.3956 222.928V234H42.9396V225.744L39.2596 234H38.2356L34.5396 225.728V234H33.0836V222.928H34.6516L38.7476 232.08L42.8436 222.928H44.3956ZM47.6168 223.808C47.3395 223.808 47.1048 223.712 46.9128 223.52C46.7208 223.328 46.6248 223.093 46.6248 222.816C46.6248 222.539 46.7208 222.304 46.9128 222.112C47.1048 221.92 47.3395 221.824 47.6168 221.824C47.8835 221.824 48.1075 221.92 48.2888 222.112C48.4808 222.304 48.5768 222.539 48.5768 222.816C48.5768 223.093 48.4808 223.328 48.2888 223.52C48.1075 223.712 47.8835 223.808 47.6168 223.808ZM48.3208 225.232V234H46.8648V225.232H48.3208ZM53.9063 234.144C53.2343 234.144 52.6316 234.032 52.0983 233.808C51.565 233.573 51.1436 233.253 50.8343 232.848C50.525 232.432 50.3543 231.957 50.3223 231.424H51.8263C51.869 231.861 52.0716 232.219 52.4343 232.496C52.8076 232.773 53.293 232.912 53.8903 232.912C54.445 232.912 54.8823 232.789 55.2023 232.544C55.5223 232.299 55.6823 231.989 55.6823 231.616C55.6823 231.232 55.5116 230.949 55.1703 230.768C54.829 230.576 54.301 230.389 53.5863 230.208C52.9356 230.037 52.4023 229.867 51.9863 229.696C51.581 229.515 51.229 229.253 50.9303 228.912C50.6423 228.56 50.4983 228.101 50.4983 227.536C50.4983 227.088 50.6316 226.677 50.8983 226.304C51.165 225.931 51.5436 225.637 52.0343 225.424C52.525 225.2 53.085 225.088 53.7143 225.088C54.685 225.088 55.469 225.333 56.0663 225.824C56.6636 226.315 56.9836 226.987 57.0263 227.84H55.5703C55.5383 227.381 55.3516 227.013 55.0103 226.736C54.6796 226.459 54.2316 226.32 53.6663 226.32C53.1436 226.32 52.7276 226.432 52.4183 226.656C52.109 226.88 51.9543 227.173 51.9543 227.536C51.9543 227.824 52.045 228.064 52.2263 228.256C52.4183 228.437 52.653 228.587 52.9303 228.704C53.2183 228.811 53.613 228.933 54.1143 229.072C54.7436 229.243 55.2556 229.413 55.6503 229.584C56.045 229.744 56.381 229.989 56.6583 230.32C56.9463 230.651 57.0956 231.083 57.1063 231.616C57.1063 232.096 56.973 232.528 56.7063 232.912C56.4396 233.296 56.061 233.6 55.5703 233.824C55.0903 234.037 54.5356 234.144 53.9063 234.144ZM58.6177 229.6C58.6177 228.693 58.799 227.904 59.1617 227.232C59.5244 226.549 60.0257 226.021 60.6657 225.648C61.3164 225.275 62.0577 225.088 62.8897 225.088C63.967 225.088 64.8524 225.349 65.5457 225.872C66.2497 226.395 66.7137 227.12 66.9377 228.048H65.3697C65.2204 227.515 64.927 227.093 64.4897 226.784C64.063 226.475 63.5297 226.32 62.8897 226.32C62.0577 226.32 61.3857 226.608 60.8737 227.184C60.3617 227.749 60.1057 228.555 60.1057 229.6C60.1057 230.656 60.3617 231.472 60.8737 232.048C61.3857 232.624 62.0577 232.912 62.8897 232.912C63.5297 232.912 64.063 232.763 64.4897 232.464C64.9164 232.165 65.2097 231.739 65.3697 231.184H66.9377C66.703 232.08 66.2337 232.8 65.5297 233.344C64.8257 233.877 63.9457 234.144 62.8897 234.144C62.0577 234.144 61.3164 233.957 60.6657 233.584C60.0257 233.211 59.5244 232.683 59.1617 232C58.799 231.317 58.6177 230.517 58.6177 229.6ZM76.8804 229.28C76.8804 229.557 76.8644 229.851 76.8324 230.16H69.8244C69.8778 231.024 70.1711 231.701 70.7044 232.192C71.2484 232.672 71.9044 232.912 72.6724 232.912C73.3018 232.912 73.8244 232.768 74.2404 232.48C74.6671 232.181 74.9658 231.787 75.1364 231.296H76.7044C76.4698 232.139 76.0004 232.827 75.2964 233.36C74.5924 233.883 73.7178 234.144 72.6724 234.144C71.8404 234.144 71.0938 233.957 70.4324 233.584C69.7818 233.211 69.2698 232.683 68.8964 232C68.5231 231.307 68.3364 230.507 68.3364 229.6C68.3364 228.693 68.5178 227.899 68.8804 227.216C69.2431 226.533 69.7498 226.011 70.4004 225.648C71.0618 225.275 71.8191 225.088 72.6724 225.088C73.5044 225.088 74.2404 225.269 74.8804 225.632C75.5204 225.995 76.0111 226.496 76.3524 227.136C76.7044 227.765 76.8804 228.48 76.8804 229.28ZM75.3764 228.976C75.3764 228.421 75.2538 227.947 75.0084 227.552C74.7631 227.147 74.4271 226.843 74.0004 226.64C73.5844 226.427 73.1204 226.32 72.6084 226.32C71.8724 226.32 71.2431 226.555 70.7204 227.024C70.2084 227.493 69.9151 228.144 69.8404 228.976H75.3764ZM80.2583 222.16V234H78.8023V222.16H80.2583ZM84.1958 222.16V234H82.7398V222.16H84.1958ZM86.1333 229.584C86.1333 228.688 86.3146 227.904 86.6773 227.232C87.04 226.549 87.536 226.021 88.1653 225.648C88.8053 225.275 89.5146 225.088 90.2933 225.088C91.0613 225.088 91.728 225.253 92.2933 225.584C92.8586 225.915 93.28 226.331 93.5573 226.832V225.232H95.0293V234H93.5573V232.368C93.2693 232.88 92.8373 233.307 92.2613 233.648C91.696 233.979 91.0346 234.144 90.2773 234.144C89.4986 234.144 88.7946 233.952 88.1653 233.568C87.536 233.184 87.04 232.645 86.6773 231.952C86.3146 231.259 86.1333 230.469 86.1333 229.584ZM93.5573 229.6C93.5573 228.939 93.424 228.363 93.1573 227.872C92.8906 227.381 92.528 227.008 92.0693 226.752C91.6213 226.485 91.1253 226.352 90.5813 226.352C90.0373 226.352 89.5413 226.48 89.0933 226.736C88.6453 226.992 88.288 227.365 88.0213 227.856C87.7546 228.347 87.6213 228.923 87.6213 229.584C87.6213 230.256 87.7546 230.843 88.0213 231.344C88.288 231.835 88.6453 232.213 89.0933 232.48C89.5413 232.736 90.0373 232.864 90.5813 232.864C91.1253 232.864 91.6213 232.736 92.0693 232.48C92.528 232.213 92.8906 231.835 93.1573 231.344C93.424 230.843 93.5573 230.261 93.5573 229.6ZM101.762 225.072C102.828 225.072 103.692 225.397 104.354 226.048C105.015 226.688 105.346 227.616 105.346 228.832V234H103.906V229.04C103.906 228.165 103.687 227.499 103.25 227.04C102.812 226.571 102.215 226.336 101.458 226.336C100.69 226.336 100.076 226.576 99.6178 227.056C99.1698 227.536 98.9458 228.235 98.9458 229.152V234H97.4898V225.232H98.9458V226.48C99.2338 226.032 99.6231 225.685 100.114 225.44C100.615 225.195 101.164 225.072 101.762 225.072ZM115.724 229.28C115.724 229.557 115.708 229.851 115.676 230.16H108.668C108.722 231.024 109.015 231.701 109.548 232.192C110.092 232.672 110.748 232.912 111.516 232.912C112.146 232.912 112.668 232.768 113.084 232.48C113.511 232.181 113.81 231.787 113.98 231.296H115.548C115.314 232.139 114.844 232.827 114.14 233.36C113.436 233.883 112.562 234.144 111.516 234.144C110.684 234.144 109.938 233.957 109.276 233.584C108.626 233.211 108.114 232.683 107.74 232C107.367 231.307 107.18 230.507 107.18 229.6C107.18 228.693 107.362 227.899 107.724 227.216C108.087 226.533 108.594 226.011 109.244 225.648C109.906 225.275 110.663 225.088 111.516 225.088C112.348 225.088 113.084 225.269 113.724 225.632C114.364 225.995 114.855 226.496 115.196 227.136C115.548 227.765 115.724 228.48 115.724 229.28ZM114.22 228.976C114.22 228.421 114.098 227.947 113.852 227.552C113.607 227.147 113.271 226.843 112.844 226.64C112.428 226.427 111.964 226.32 111.452 226.32C110.716 226.32 110.087 226.555 109.564 227.024C109.052 227.493 108.759 228.144 108.684 228.976H114.22ZM121.47 234.144C120.649 234.144 119.902 233.957 119.23 233.584C118.569 233.211 118.046 232.683 117.662 232C117.289 231.307 117.102 230.507 117.102 229.6C117.102 228.704 117.294 227.915 117.678 227.232C118.073 226.539 118.606 226.011 119.278 225.648C119.95 225.275 120.702 225.088 121.534 225.088C122.366 225.088 123.118 225.275 123.79 225.648C124.462 226.011 124.99 226.533 125.374 227.216C125.769 227.899 125.966 228.693 125.966 229.6C125.966 230.507 125.763 231.307 125.358 232C124.963 232.683 124.425 233.211 123.742 233.584C123.059 233.957 122.302 234.144 121.47 234.144ZM121.47 232.864C121.993 232.864 122.483 232.741 122.942 232.496C123.401 232.251 123.769 231.883 124.046 231.392C124.334 230.901 124.478 230.304 124.478 229.6C124.478 228.896 124.339 228.299 124.062 227.808C123.785 227.317 123.422 226.955 122.974 226.72C122.526 226.475 122.041 226.352 121.518 226.352C120.985 226.352 120.494 226.475 120.046 226.72C119.609 226.955 119.257 227.317 118.99 227.808C118.723 228.299 118.59 228.896 118.59 229.6C118.59 230.315 118.718 230.917 118.974 231.408C119.241 231.899 119.593 232.267 120.03 232.512C120.467 232.747 120.947 232.864 121.47 232.864ZM135.656 225.232V234H134.2V232.704C133.923 233.152 133.534 233.504 133.032 233.76C132.542 234.005 131.998 234.128 131.4 234.128C130.718 234.128 130.104 233.989 129.56 233.712C129.016 233.424 128.584 232.997 128.264 232.432C127.955 231.867 127.8 231.179 127.8 230.368V225.232H129.24V230.176C129.24 231.04 129.459 231.707 129.896 232.176C130.334 232.635 130.931 232.864 131.688 232.864C132.467 232.864 133.08 232.624 133.528 232.144C133.976 231.664 134.2 230.965 134.2 230.048V225.232H135.656ZM141.219 234.144C140.547 234.144 139.944 234.032 139.411 233.808C138.877 233.573 138.456 233.253 138.147 232.848C137.837 232.432 137.667 231.957 137.635 231.424H139.139C139.181 231.861 139.384 232.219 139.747 232.496C140.12 232.773 140.605 232.912 141.203 232.912C141.757 232.912 142.195 232.789 142.515 232.544C142.835 232.299 142.995 231.989 142.995 231.616C142.995 231.232 142.824 230.949 142.483 230.768C142.141 230.576 141.613 230.389 140.899 230.208C140.248 230.037 139.715 229.867 139.299 229.696C138.893 229.515 138.541 229.253 138.243 228.912C137.955 228.56 137.811 228.101 137.811 227.536C137.811 227.088 137.944 226.677 138.211 226.304C138.477 225.931 138.856 225.637 139.347 225.424C139.837 225.2 140.397 225.088 141.027 225.088C141.997 225.088 142.781 225.333 143.379 225.824C143.976 226.315 144.296 226.987 144.339 227.84H142.883C142.851 227.381 142.664 227.013 142.323 226.736C141.992 226.459 141.544 226.32 140.979 226.32C140.456 226.32 140.04 226.432 139.731 226.656C139.421 226.88 139.267 227.173 139.267 227.536C139.267 227.824 139.357 228.064 139.539 228.256C139.731 228.437 139.965 228.587 140.243 228.704C140.531 228.811 140.925 228.933 141.427 229.072C142.056 229.243 142.568 229.413 142.963 229.584C143.357 229.744 143.693 229.989 143.971 230.32C144.259 230.651 144.408 231.083 144.419 231.616C144.419 232.096 144.285 232.528 144.019 232.912C143.752 233.296 143.373 233.6 142.883 233.824C142.403 234.037 141.848 234.144 141.219 234.144ZM152.196 224.032V227.76H156.26V228.96H152.196V232.8H156.74V234H150.74V222.832H156.74V224.032H152.196ZM163.519 234L161.439 230.736L159.439 234H157.919L160.751 229.648L157.919 225.232H159.567L161.647 228.48L163.631 225.232H165.151L162.335 229.568L165.167 234H163.519ZM168.055 226.848C168.343 226.347 168.77 225.931 169.335 225.6C169.911 225.259 170.578 225.088 171.335 225.088C172.114 225.088 172.818 225.275 173.447 225.648C174.087 226.021 174.589 226.549 174.951 227.232C175.314 227.904 175.495 228.688 175.495 229.584C175.495 230.469 175.314 231.259 174.951 231.952C174.589 232.645 174.087 233.184 173.447 233.568C172.818 233.952 172.114 234.144 171.335 234.144C170.589 234.144 169.927 233.979 169.351 233.648C168.786 233.307 168.354 232.885 168.055 232.384V238.16H166.599V225.232H168.055V226.848ZM174.007 229.584C174.007 228.923 173.874 228.347 173.607 227.856C173.341 227.365 172.978 226.992 172.519 226.736C172.071 226.48 171.575 226.352 171.031 226.352C170.498 226.352 170.002 226.485 169.543 226.752C169.095 227.008 168.733 227.387 168.455 227.888C168.189 228.379 168.055 228.949 168.055 229.6C168.055 230.261 168.189 230.843 168.455 231.344C168.733 231.835 169.095 232.213 169.543 232.48C170.002 232.736 170.498 232.864 171.031 232.864C171.575 232.864 172.071 232.736 172.519 232.48C172.978 232.213 173.341 231.835 173.607 231.344C173.874 230.843 174.007 230.256 174.007 229.584ZM185.412 229.28C185.412 229.557 185.396 229.851 185.364 230.16H178.356C178.409 231.024 178.702 231.701 179.236 232.192C179.78 232.672 180.436 232.912 181.204 232.912C181.833 232.912 182.356 232.768 182.772 232.48C183.198 232.181 183.497 231.787 183.668 231.296H185.236C185.001 232.139 184.532 232.827 183.828 233.36C183.124 233.883 182.249 234.144 181.204 234.144C180.372 234.144 179.625 233.957 178.964 233.584C178.313 233.211 177.801 232.683 177.428 232C177.054 231.307 176.868 230.507 176.868 229.6C176.868 228.693 177.049 227.899 177.412 227.216C177.774 226.533 178.281 226.011 178.932 225.648C179.593 225.275 180.35 225.088 181.204 225.088C182.036 225.088 182.772 225.269 183.412 225.632C184.052 225.995 184.542 226.496 184.884 227.136C185.236 227.765 185.412 228.48 185.412 229.28ZM183.908 228.976C183.908 228.421 183.785 227.947 183.54 227.552C183.294 227.147 182.958 226.843 182.532 226.64C182.116 226.427 181.652 226.32 181.14 226.32C180.404 226.32 179.774 226.555 179.252 227.024C178.74 227.493 178.446 228.144 178.372 228.976H183.908ZM191.606 225.072C192.672 225.072 193.536 225.397 194.198 226.048C194.859 226.688 195.19 227.616 195.19 228.832V234H193.75V229.04C193.75 228.165 193.531 227.499 193.094 227.04C192.656 226.571 192.059 226.336 191.302 226.336C190.534 226.336 189.92 226.576 189.462 227.056C189.014 227.536 188.79 228.235 188.79 229.152V234H187.334V225.232H188.79V226.48C189.078 226.032 189.467 225.685 189.958 225.44C190.459 225.195 191.008 225.072 191.606 225.072ZM200.672 234.144C200 234.144 199.397 234.032 198.864 233.808C198.331 233.573 197.909 233.253 197.6 232.848C197.291 232.432 197.12 231.957 197.088 231.424H198.592C198.635 231.861 198.837 232.219 199.2 232.496C199.573 232.773 200.059 232.912 200.656 232.912C201.211 232.912 201.648 232.789 201.968 232.544C202.288 232.299 202.448 231.989 202.448 231.616C202.448 231.232 202.277 230.949 201.936 230.768C201.595 230.576 201.067 230.389 200.352 230.208C199.701 230.037 199.168 229.867 198.752 229.696C198.347 229.515 197.995 229.253 197.696 228.912C197.408 228.56 197.264 228.101 197.264 227.536C197.264 227.088 197.397 226.677 197.664 226.304C197.931 225.931 198.309 225.637 198.8 225.424C199.291 225.2 199.851 225.088 200.48 225.088C201.451 225.088 202.235 225.333 202.832 225.824C203.429 226.315 203.749 226.987 203.792 227.84H202.336C202.304 227.381 202.117 227.013 201.776 226.736C201.445 226.459 200.997 226.32 200.432 226.32C199.909 226.32 199.493 226.432 199.184 226.656C198.875 226.88 198.72 227.173 198.72 227.536C198.72 227.824 198.811 228.064 198.992 228.256C199.184 228.437 199.419 228.587 199.696 228.704C199.984 228.811 200.379 228.933 200.88 229.072C201.509 229.243 202.021 229.413 202.416 229.584C202.811 229.744 203.147 229.989 203.424 230.32C203.712 230.651 203.861 231.083 203.872 231.616C203.872 232.096 203.739 232.528 203.472 232.912C203.205 233.296 202.827 233.6 202.336 233.824C201.856 234.037 201.301 234.144 200.672 234.144ZM213.927 229.28C213.927 229.557 213.911 229.851 213.879 230.16H206.871C206.925 231.024 207.218 231.701 207.751 232.192C208.295 232.672 208.951 232.912 209.719 232.912C210.349 232.912 210.871 232.768 211.287 232.48C211.714 232.181 212.013 231.787 212.183 231.296H213.751C213.517 232.139 213.047 232.827 212.343 233.36C211.639 233.883 210.765 234.144 209.719 234.144C208.887 234.144 208.141 233.957 207.479 233.584C206.829 233.211 206.317 232.683 205.943 232C205.57 231.307 205.383 230.507 205.383 229.6C205.383 228.693 205.565 227.899 205.927 227.216C206.29 226.533 206.797 226.011 207.447 225.648C208.109 225.275 208.866 225.088 209.719 225.088C210.551 225.088 211.287 225.269 211.927 225.632C212.567 225.995 213.058 226.496 213.399 227.136C213.751 227.765 213.927 228.48 213.927 229.28ZM212.423 228.976C212.423 228.421 212.301 227.947 212.055 227.552C211.81 227.147 211.474 226.843 211.047 226.64C210.631 226.427 210.167 226.32 209.655 226.32C208.919 226.32 208.29 226.555 207.767 227.024C207.255 227.493 206.962 228.144 206.887 228.976H212.423ZM218.953 234.144C218.281 234.144 217.679 234.032 217.145 233.808C216.612 233.573 216.191 233.253 215.881 232.848C215.572 232.432 215.401 231.957 215.369 231.424H216.873C216.916 231.861 217.119 232.219 217.481 232.496C217.855 232.773 218.34 232.912 218.937 232.912C219.492 232.912 219.929 232.789 220.249 232.544C220.569 232.299 220.729 231.989 220.729 231.616C220.729 231.232 220.559 230.949 220.217 230.768C219.876 230.576 219.348 230.389 218.633 230.208C217.983 230.037 217.449 229.867 217.033 229.696C216.628 229.515 216.276 229.253 215.977 228.912C215.689 228.56 215.545 228.101 215.545 227.536C215.545 227.088 215.679 226.677 215.945 226.304C216.212 225.931 216.591 225.637 217.081 225.424C217.572 225.2 218.132 225.088 218.761 225.088C219.732 225.088 220.516 225.333 221.113 225.824C221.711 226.315 222.031 226.987 222.073 227.84H220.617C220.585 227.381 220.399 227.013 220.057 226.736C219.727 226.459 219.279 226.32 218.713 226.32C218.191 226.32 217.775 226.432 217.465 226.656C217.156 226.88 217.001 227.173 217.001 227.536C217.001 227.824 217.092 228.064 217.273 228.256C217.465 228.437 217.7 228.587 217.977 228.704C218.265 228.811 218.66 228.933 219.161 229.072C219.791 229.243 220.303 229.413 220.697 229.584C221.092 229.744 221.428 229.989 221.705 230.32C221.993 230.651 222.143 231.083 222.153 231.616C222.153 232.096 222.02 232.528 221.753 232.912C221.487 233.296 221.108 233.6 220.617 233.824C220.137 234.037 219.583 234.144 218.953 234.144ZM225.713 231.984L223.921 236.288H222.945L224.113 231.984H225.713ZM86.4536 251.848C86.7416 251.347 87.1683 250.931 87.7336 250.6C88.3096 250.259 88.9763 250.088 89.7336 250.088C90.5123 250.088 91.2163 250.275 91.8456 250.648C92.4856 251.021 92.987 251.549 93.3496 252.232C93.7123 252.904 93.8936 253.688 93.8936 254.584C93.8936 255.469 93.7123 256.259 93.3496 256.952C92.987 257.645 92.4856 258.184 91.8456 258.568C91.2163 258.952 90.5123 259.144 89.7336 259.144C88.987 259.144 88.3256 258.979 87.7496 258.648C87.1843 258.307 86.7523 257.885 86.4536 257.384V263.16H84.9976V250.232H86.4536V251.848ZM92.4056 254.584C92.4056 253.923 92.2723 253.347 92.0056 252.856C91.739 252.365 91.3763 251.992 90.9176 251.736C90.4696 251.48 89.9736 251.352 89.4296 251.352C88.8963 251.352 88.4003 251.485 87.9416 251.752C87.4936 252.008 87.131 252.387 86.8536 252.888C86.587 253.379 86.4536 253.949 86.4536 254.6C86.4536 255.261 86.587 255.843 86.8536 256.344C87.131 256.835 87.4936 257.213 87.9416 257.48C88.4003 257.736 88.8963 257.864 89.4296 257.864C89.9736 257.864 90.4696 257.736 90.9176 257.48C91.3763 257.213 91.739 256.835 92.0056 256.344C92.2723 255.843 92.4056 255.256 92.4056 254.584ZM97.2661 247.16V259H95.8101V247.16H97.2661ZM107.748 254.28C107.748 254.557 107.732 254.851 107.7 255.16H100.692C100.745 256.024 101.038 256.701 101.572 257.192C102.116 257.672 102.772 257.912 103.54 257.912C104.169 257.912 104.692 257.768 105.108 257.48C105.534 257.181 105.833 256.787 106.004 256.296H107.572C107.337 257.139 106.868 257.827 106.164 258.36C105.46 258.883 104.585 259.144 103.54 259.144C102.708 259.144 101.961 258.957 101.3 258.584C100.649 258.211 100.137 257.683 99.7636 257C99.3903 256.307 99.2036 255.507 99.2036 254.6C99.2036 253.693 99.385 252.899 99.7476 252.216C100.11 251.533 100.617 251.011 101.268 250.648C101.929 250.275 102.686 250.088 103.54 250.088C104.372 250.088 105.108 250.269 105.748 250.632C106.388 250.995 106.878 251.496 107.22 252.136C107.572 252.765 107.748 253.48 107.748 254.28ZM106.244 253.976C106.244 253.421 106.121 252.947 105.876 252.552C105.63 252.147 105.294 251.843 104.868 251.64C104.452 251.427 103.988 251.32 103.476 251.32C102.74 251.32 102.11 251.555 101.588 252.024C101.076 252.493 100.782 253.144 100.708 253.976H106.244ZM109.126 254.584C109.126 253.688 109.307 252.904 109.67 252.232C110.032 251.549 110.528 251.021 111.158 250.648C111.798 250.275 112.507 250.088 113.286 250.088C114.054 250.088 114.72 250.253 115.286 250.584C115.851 250.915 116.272 251.331 116.55 251.832V250.232H118.022V259H116.55V257.368C116.262 257.88 115.83 258.307 115.254 258.648C114.688 258.979 114.027 259.144 113.27 259.144C112.491 259.144 111.787 258.952 111.158 258.568C110.528 258.184 110.032 257.645 109.67 256.952C109.307 256.259 109.126 255.469 109.126 254.584ZM116.55 254.6C116.55 253.939 116.416 253.363 116.15 252.872C115.883 252.381 115.52 252.008 115.062 251.752C114.614 251.485 114.118 251.352 113.574 251.352C113.03 251.352 112.534 251.48 112.086 251.736C111.638 251.992 111.28 252.365 111.014 252.856C110.747 253.347 110.614 253.923 110.614 254.584C110.614 255.256 110.747 255.843 111.014 256.344C111.28 256.835 111.638 257.213 112.086 257.48C112.534 257.736 113.03 257.864 113.574 257.864C114.118 257.864 114.614 257.736 115.062 257.48C115.52 257.213 115.883 256.835 116.15 256.344C116.416 255.843 116.55 255.261 116.55 254.6ZM123.586 259.144C122.914 259.144 122.311 259.032 121.778 258.808C121.245 258.573 120.823 258.253 120.514 257.848C120.205 257.432 120.034 256.957 120.002 256.424H121.506C121.549 256.861 121.751 257.219 122.114 257.496C122.487 257.773 122.973 257.912 123.57 257.912C124.125 257.912 124.562 257.789 124.882 257.544C125.202 257.299 125.362 256.989 125.362 256.616C125.362 256.232 125.191 255.949 124.85 255.768C124.509 255.576 123.981 255.389 123.266 255.208C122.615 255.037 122.082 254.867 121.666 254.696C121.261 254.515 120.909 254.253 120.61 253.912C120.322 253.56 120.178 253.101 120.178 252.536C120.178 252.088 120.311 251.677 120.578 251.304C120.845 250.931 121.223 250.637 121.714 250.424C122.205 250.2 122.765 250.088 123.394 250.088C124.365 250.088 125.149 250.333 125.746 250.824C126.343 251.315 126.663 251.987 126.706 252.84H125.25C125.218 252.381 125.031 252.013 124.69 251.736C124.359 251.459 123.911 251.32 123.346 251.32C122.823 251.32 122.407 251.432 122.098 251.656C121.789 251.88 121.634 252.173 121.634 252.536C121.634 252.824 121.725 253.064 121.906 253.256C122.098 253.437 122.333 253.587 122.61 253.704C122.898 253.811 123.293 253.933 123.794 254.072C124.423 254.243 124.935 254.413 125.33 254.584C125.725 254.744 126.061 254.989 126.338 255.32C126.626 255.651 126.775 256.083 126.786 256.616C126.786 257.096 126.653 257.528 126.386 257.912C126.119 258.296 125.741 258.6 125.25 258.824C124.77 259.037 124.215 259.144 123.586 259.144ZM136.841 254.28C136.841 254.557 136.825 254.851 136.793 255.16H129.785C129.839 256.024 130.132 256.701 130.665 257.192C131.209 257.672 131.865 257.912 132.633 257.912C133.263 257.912 133.785 257.768 134.201 257.48C134.628 257.181 134.927 256.787 135.097 256.296H136.665C136.431 257.139 135.961 257.827 135.257 258.36C134.553 258.883 133.679 259.144 132.633 259.144C131.801 259.144 131.055 258.957 130.393 258.584C129.743 258.211 129.231 257.683 128.857 257C128.484 256.307 128.297 255.507 128.297 254.6C128.297 253.693 128.479 252.899 128.841 252.216C129.204 251.533 129.711 251.011 130.361 250.648C131.023 250.275 131.78 250.088 132.633 250.088C133.465 250.088 134.201 250.269 134.841 250.632C135.481 250.995 135.972 251.496 136.313 252.136C136.665 252.765 136.841 253.48 136.841 254.28ZM135.337 253.976C135.337 253.421 135.215 252.947 134.969 252.552C134.724 252.147 134.388 251.843 133.961 251.64C133.545 251.427 133.081 251.32 132.569 251.32C131.833 251.32 131.204 251.555 130.681 252.024C130.169 252.493 129.876 253.144 129.801 253.976H135.337ZM142.485 254.584C142.485 253.688 142.666 252.904 143.029 252.232C143.392 251.549 143.888 251.021 144.517 250.648C145.157 250.275 145.866 250.088 146.645 250.088C147.413 250.088 148.08 250.253 148.645 250.584C149.21 250.915 149.632 251.331 149.909 251.832V250.232H151.381V259H149.909V257.368C149.621 257.88 149.189 258.307 148.613 258.648C148.048 258.979 147.386 259.144 146.629 259.144C145.85 259.144 145.146 258.952 144.517 258.568C143.888 258.184 143.392 257.645 143.029 256.952C142.666 256.259 142.485 255.469 142.485 254.584ZM149.909 254.6C149.909 253.939 149.776 253.363 149.509 252.872C149.242 252.381 148.88 252.008 148.421 251.752C147.973 251.485 147.477 251.352 146.933 251.352C146.389 251.352 145.893 251.48 145.445 251.736C144.997 251.992 144.64 252.365 144.373 252.856C144.106 253.347 143.973 253.923 143.973 254.584C143.973 255.256 144.106 255.843 144.373 256.344C144.64 256.835 144.997 257.213 145.445 257.48C145.893 257.736 146.389 257.864 146.933 257.864C147.477 257.864 147.973 257.736 148.421 257.48C148.88 257.213 149.242 256.835 149.509 256.344C149.776 255.843 149.909 255.261 149.909 254.6ZM153.297 254.584C153.297 253.688 153.479 252.904 153.841 252.232C154.204 251.549 154.7 251.021 155.329 250.648C155.969 250.275 156.684 250.088 157.473 250.088C158.156 250.088 158.791 250.248 159.377 250.568C159.964 250.877 160.412 251.288 160.721 251.8V247.16H162.193V259H160.721V257.352C160.433 257.875 160.007 258.307 159.441 258.648C158.876 258.979 158.215 259.144 157.457 259.144C156.679 259.144 155.969 258.952 155.329 258.568C154.7 258.184 154.204 257.645 153.841 256.952C153.479 256.259 153.297 255.469 153.297 254.584ZM160.721 254.6C160.721 253.939 160.588 253.363 160.321 252.872C160.055 252.381 159.692 252.008 159.233 251.752C158.785 251.485 158.289 251.352 157.745 251.352C157.201 251.352 156.705 251.48 156.257 251.736C155.809 251.992 155.452 252.365 155.185 252.856C154.919 253.347 154.785 253.923 154.785 254.584C154.785 255.256 154.919 255.843 155.185 256.344C155.452 256.835 155.809 257.213 156.257 257.48C156.705 257.736 157.201 257.864 157.745 257.864C158.289 257.864 158.785 257.736 159.233 257.48C159.692 257.213 160.055 256.835 160.321 256.344C160.588 255.843 160.721 255.261 160.721 254.6ZM164.11 254.584C164.11 253.688 164.291 252.904 164.654 252.232C165.017 251.549 165.513 251.021 166.142 250.648C166.782 250.275 167.497 250.088 168.286 250.088C168.969 250.088 169.603 250.248 170.19 250.568C170.777 250.877 171.225 251.288 171.534 251.8V247.16H173.006V259H171.534V257.352C171.246 257.875 170.819 258.307 170.254 258.648C169.689 258.979 169.027 259.144 168.27 259.144C167.491 259.144 166.782 258.952 166.142 258.568C165.513 258.184 165.017 257.645 164.654 256.952C164.291 256.259 164.11 255.469 164.11 254.584ZM171.534 254.6C171.534 253.939 171.401 253.363 171.134 252.872C170.867 252.381 170.505 252.008 170.046 251.752C169.598 251.485 169.102 251.352 168.558 251.352C168.014 251.352 167.518 251.48 167.07 251.736C166.622 251.992 166.265 252.365 165.998 252.856C165.731 253.347 165.598 253.923 165.598 254.584C165.598 255.256 165.731 255.843 165.998 256.344C166.265 256.835 166.622 257.213 167.07 257.48C167.518 257.736 168.014 257.864 168.558 257.864C169.102 257.864 169.598 257.736 170.046 257.48C170.505 257.213 170.867 256.835 171.134 256.344C171.401 255.843 171.534 255.261 171.534 254.6ZM45.9815 271.928V283H44.5255V274.744L40.8455 283H39.8215L36.1255 274.728V283H34.6695V271.928H36.2375L40.3335 281.08L44.4295 271.928H45.9815ZM49.2028 272.808C48.9254 272.808 48.6908 272.712 48.4988 272.52C48.3068 272.328 48.2108 272.093 48.2108 271.816C48.2108 271.539 48.3068 271.304 48.4988 271.112C48.6908 270.92 48.9254 270.824 49.2028 270.824C49.4694 270.824 49.6934 270.92 49.8748 271.112C50.0668 271.304 50.1628 271.539 50.1628 271.816C50.1628 272.093 50.0668 272.328 49.8748 272.52C49.6934 272.712 49.4694 272.808 49.2028 272.808ZM49.9068 274.232V283H48.4508V274.232H49.9068ZM55.4923 283.144C54.8203 283.144 54.2176 283.032 53.6843 282.808C53.1509 282.573 52.7296 282.253 52.4203 281.848C52.1109 281.432 51.9403 280.957 51.9083 280.424H53.4123C53.4549 280.861 53.6576 281.219 54.0203 281.496C54.3936 281.773 54.8789 281.912 55.4763 281.912C56.0309 281.912 56.4683 281.789 56.7883 281.544C57.1083 281.299 57.2683 280.989 57.2683 280.616C57.2683 280.232 57.0976 279.949 56.7563 279.768C56.4149 279.576 55.8869 279.389 55.1723 279.208C54.5216 279.037 53.9883 278.867 53.5723 278.696C53.1669 278.515 52.8149 278.253 52.5163 277.912C52.2283 277.56 52.0843 277.101 52.0843 276.536C52.0843 276.088 52.2176 275.677 52.4843 275.304C52.7509 274.931 53.1296 274.637 53.6203 274.424C54.1109 274.2 54.6709 274.088 55.3003 274.088C56.2709 274.088 57.0549 274.333 57.6523 274.824C58.2496 275.315 58.5696 275.987 58.6123 276.84H57.1563C57.1243 276.381 56.9376 276.013 56.5963 275.736C56.2656 275.459 55.8176 275.32 55.2523 275.32C54.7296 275.32 54.3136 275.432 54.0043 275.656C53.6949 275.88 53.5403 276.173 53.5403 276.536C53.5403 276.824 53.6309 277.064 53.8123 277.256C54.0043 277.437 54.2389 277.587 54.5163 277.704C54.8043 277.811 55.1989 277.933 55.7003 278.072C56.3296 278.243 56.8416 278.413 57.2363 278.584C57.6309 278.744 57.9669 278.989 58.2443 279.32C58.5323 279.651 58.6816 280.083 58.6923 280.616C58.6923 281.096 58.5589 281.528 58.2923 281.912C58.0256 282.296 57.6469 282.6 57.1563 282.824C56.6763 283.037 56.1216 283.144 55.4923 283.144ZM60.2036 278.6C60.2036 277.693 60.385 276.904 60.7476 276.232C61.1103 275.549 61.6116 275.021 62.2516 274.648C62.9023 274.275 63.6436 274.088 64.4756 274.088C65.553 274.088 66.4383 274.349 67.1316 274.872C67.8356 275.395 68.2996 276.12 68.5236 277.048H66.9556C66.8063 276.515 66.513 276.093 66.0756 275.784C65.649 275.475 65.1156 275.32 64.4756 275.32C63.6436 275.32 62.9716 275.608 62.4596 276.184C61.9476 276.749 61.6916 277.555 61.6916 278.6C61.6916 279.656 61.9476 280.472 62.4596 281.048C62.9716 281.624 63.6436 281.912 64.4756 281.912C65.1156 281.912 65.649 281.763 66.0756 281.464C66.5023 281.165 66.7956 280.739 66.9556 280.184H68.5236C68.289 281.08 67.8196 281.8 67.1156 282.344C66.4116 282.877 65.5316 283.144 64.4756 283.144C63.6436 283.144 62.9023 282.957 62.2516 282.584C61.6116 282.211 61.1103 281.683 60.7476 281C60.385 280.317 60.2036 279.517 60.2036 278.6ZM78.4664 278.28C78.4664 278.557 78.4504 278.851 78.4184 279.16H71.4104C71.4637 280.024 71.757 280.701 72.2904 281.192C72.8344 281.672 73.4904 281.912 74.2584 281.912C74.8877 281.912 75.4104 281.768 75.8264 281.48C76.253 281.181 76.5517 280.787 76.7224 280.296H78.2904C78.0557 281.139 77.5864 281.827 76.8824 282.36C76.1784 282.883 75.3037 283.144 74.2584 283.144C73.4264 283.144 72.6797 282.957 72.0184 282.584C71.3677 282.211 70.8557 281.683 70.4824 281C70.109 280.307 69.9224 279.507 69.9224 278.6C69.9224 277.693 70.1037 276.899 70.4664 276.216C70.829 275.533 71.3357 275.011 71.9864 274.648C72.6477 274.275 73.405 274.088 74.2584 274.088C75.0904 274.088 75.8264 274.269 76.4664 274.632C77.1064 274.995 77.597 275.496 77.9384 276.136C78.2904 276.765 78.4664 277.48 78.4664 278.28ZM76.9624 277.976C76.9624 277.421 76.8397 276.947 76.5944 276.552C76.349 276.147 76.013 275.843 75.5864 275.64C75.1704 275.427 74.7064 275.32 74.1944 275.32C73.4584 275.32 72.829 275.555 72.3064 276.024C71.7944 276.493 71.501 277.144 71.4264 277.976H76.9624ZM81.8443 271.16V283H80.3883V271.16H81.8443ZM85.7818 271.16V283H84.3258V271.16H85.7818ZM87.7193 278.584C87.7193 277.688 87.9006 276.904 88.2633 276.232C88.6259 275.549 89.1219 275.021 89.7513 274.648C90.3913 274.275 91.1006 274.088 91.8793 274.088C92.6473 274.088 93.3139 274.253 93.8793 274.584C94.4446 274.915 94.8659 275.331 95.1433 275.832V274.232H96.6153V283H95.1433V281.368C94.8553 281.88 94.4233 282.307 93.8473 282.648C93.2819 282.979 92.6206 283.144 91.8633 283.144C91.0846 283.144 90.3806 282.952 89.7513 282.568C89.1219 282.184 88.6259 281.645 88.2633 280.952C87.9006 280.259 87.7193 279.469 87.7193 278.584ZM95.1433 278.6C95.1433 277.939 95.0099 277.363 94.7433 276.872C94.4766 276.381 94.1139 276.008 93.6553 275.752C93.2073 275.485 92.7113 275.352 92.1673 275.352C91.6233 275.352 91.1273 275.48 90.6793 275.736C90.2313 275.992 89.8739 276.365 89.6073 276.856C89.3406 277.347 89.2073 277.923 89.2073 278.584C89.2073 279.256 89.3406 279.843 89.6073 280.344C89.8739 280.835 90.2313 281.213 90.6793 281.48C91.1273 281.736 91.6233 281.864 92.1673 281.864C92.7113 281.864 93.2073 281.736 93.6553 281.48C94.1139 281.213 94.4766 280.835 94.7433 280.344C95.0099 279.843 95.1433 279.261 95.1433 278.6ZM103.348 274.072C104.414 274.072 105.278 274.397 105.94 275.048C106.601 275.688 106.932 276.616 106.932 277.832V283H105.492V278.04C105.492 277.165 105.273 276.499 104.836 276.04C104.398 275.571 103.801 275.336 103.044 275.336C102.276 275.336 101.662 275.576 101.204 276.056C100.756 276.536 100.532 277.235 100.532 278.152V283H99.0758V274.232H100.532V275.48C100.82 275.032 101.209 274.685 101.7 274.44C102.201 274.195 102.75 274.072 103.348 274.072ZM117.31 278.28C117.31 278.557 117.294 278.851 117.262 279.16H110.254C110.307 280.024 110.601 280.701 111.134 281.192C111.678 281.672 112.334 281.912 113.102 281.912C113.731 281.912 114.254 281.768 114.67 281.48C115.097 281.181 115.395 280.787 115.566 280.296H117.134C116.899 281.139 116.43 281.827 115.726 282.36C115.022 282.883 114.147 283.144 113.102 283.144C112.27 283.144 111.523 282.957 110.862 282.584C110.211 282.211 109.699 281.683 109.326 281C108.953 280.307 108.766 279.507 108.766 278.6C108.766 277.693 108.947 276.899 109.31 276.216C109.673 275.533 110.179 275.011 110.83 274.648C111.491 274.275 112.249 274.088 113.102 274.088C113.934 274.088 114.67 274.269 115.31 274.632C115.95 274.995 116.441 275.496 116.782 276.136C117.134 276.765 117.31 277.48 117.31 278.28ZM115.806 277.976C115.806 277.421 115.683 276.947 115.438 276.552C115.193 276.147 114.857 275.843 114.43 275.64C114.014 275.427 113.55 275.32 113.038 275.32C112.302 275.32 111.673 275.555 111.15 276.024C110.638 276.493 110.345 277.144 110.27 277.976H115.806ZM123.056 283.144C122.235 283.144 121.488 282.957 120.816 282.584C120.155 282.211 119.632 281.683 119.248 281C118.875 280.307 118.688 279.507 118.688 278.6C118.688 277.704 118.88 276.915 119.264 276.232C119.659 275.539 120.192 275.011 120.864 274.648C121.536 274.275 122.288 274.088 123.12 274.088C123.952 274.088 124.704 274.275 125.376 274.648C126.048 275.011 126.576 275.533 126.96 276.216C127.355 276.899 127.552 277.693 127.552 278.6C127.552 279.507 127.349 280.307 126.944 281C126.549 281.683 126.011 282.211 125.328 282.584C124.645 282.957 123.888 283.144 123.056 283.144ZM123.056 281.864C123.579 281.864 124.069 281.741 124.528 281.496C124.987 281.251 125.355 280.883 125.632 280.392C125.92 279.901 126.064 279.304 126.064 278.6C126.064 277.896 125.925 277.299 125.648 276.808C125.371 276.317 125.008 275.955 124.56 275.72C124.112 275.475 123.627 275.352 123.104 275.352C122.571 275.352 122.08 275.475 121.632 275.72C121.195 275.955 120.843 276.317 120.576 276.808C120.309 277.299 120.176 277.896 120.176 278.6C120.176 279.315 120.304 279.917 120.56 280.408C120.827 280.899 121.179 281.267 121.616 281.512C122.053 281.747 122.533 281.864 123.056 281.864ZM137.242 274.232V283H135.786V281.704C135.509 282.152 135.12 282.504 134.618 282.76C134.128 283.005 133.584 283.128 132.986 283.128C132.304 283.128 131.69 282.989 131.146 282.712C130.602 282.424 130.17 281.997 129.85 281.432C129.541 280.867 129.386 280.179 129.386 279.368V274.232H130.826V279.176C130.826 280.04 131.045 280.707 131.482 281.176C131.92 281.635 132.517 281.864 133.274 281.864C134.053 281.864 134.666 281.624 135.114 281.144C135.562 280.664 135.786 279.965 135.786 279.048V274.232H137.242ZM142.805 283.144C142.133 283.144 141.53 283.032 140.997 282.808C140.463 282.573 140.042 282.253 139.733 281.848C139.423 281.432 139.253 280.957 139.221 280.424H140.725C140.767 280.861 140.97 281.219 141.333 281.496C141.706 281.773 142.191 281.912 142.789 281.912C143.343 281.912 143.781 281.789 144.101 281.544C144.421 281.299 144.581 280.989 144.581 280.616C144.581 280.232 144.41 279.949 144.069 279.768C143.727 279.576 143.199 279.389 142.485 279.208C141.834 279.037 141.301 278.867 140.885 278.696C140.479 278.515 140.127 278.253 139.829 277.912C139.541 277.56 139.397 277.101 139.397 276.536C139.397 276.088 139.53 275.677 139.797 275.304C140.063 274.931 140.442 274.637 140.933 274.424C141.423 274.2 141.983 274.088 142.613 274.088C143.583 274.088 144.367 274.333 144.965 274.824C145.562 275.315 145.882 275.987 145.925 276.84H144.469C144.437 276.381 144.25 276.013 143.909 275.736C143.578 275.459 143.13 275.32 142.565 275.32C142.042 275.32 141.626 275.432 141.317 275.656C141.007 275.88 140.853 276.173 140.853 276.536C140.853 276.824 140.943 277.064 141.125 277.256C141.317 277.437 141.551 277.587 141.829 277.704C142.117 277.811 142.511 277.933 143.013 278.072C143.642 278.243 144.154 278.413 144.549 278.584C144.943 278.744 145.279 278.989 145.557 279.32C145.845 279.651 145.994 280.083 146.005 280.616C146.005 281.096 145.871 281.528 145.605 281.912C145.338 282.296 144.959 282.6 144.469 282.824C143.989 283.037 143.434 283.144 142.805 283.144ZM153.782 273.032V276.76H157.846V277.96H153.782V281.8H158.326V283H152.326V271.832H158.326V273.032H153.782ZM165.105 283L163.025 279.736L161.025 283H159.505L162.337 278.648L159.505 274.232H161.153L163.233 277.48L165.217 274.232H166.737L163.921 278.568L166.753 283H165.105ZM169.641 275.848C169.929 275.347 170.356 274.931 170.921 274.6C171.497 274.259 172.164 274.088 172.921 274.088C173.7 274.088 174.404 274.275 175.033 274.648C175.673 275.021 176.174 275.549 176.537 276.232C176.9 276.904 177.081 277.688 177.081 278.584C177.081 279.469 176.9 280.259 176.537 280.952C176.174 281.645 175.673 282.184 175.033 282.568C174.404 282.952 173.7 283.144 172.921 283.144C172.174 283.144 171.513 282.979 170.937 282.648C170.372 282.307 169.94 281.885 169.641 281.384V287.16H168.185V274.232H169.641V275.848ZM175.593 278.584C175.593 277.923 175.46 277.347 175.193 276.856C174.926 276.365 174.564 275.992 174.105 275.736C173.657 275.48 173.161 275.352 172.617 275.352C172.084 275.352 171.588 275.485 171.129 275.752C170.681 276.008 170.318 276.387 170.041 276.888C169.774 277.379 169.641 277.949 169.641 278.6C169.641 279.261 169.774 279.843 170.041 280.344C170.318 280.835 170.681 281.213 171.129 281.48C171.588 281.736 172.084 281.864 172.617 281.864C173.161 281.864 173.657 281.736 174.105 281.48C174.564 281.213 174.926 280.835 175.193 280.344C175.46 279.843 175.593 279.256 175.593 278.584ZM186.998 278.28C186.998 278.557 186.982 278.851 186.95 279.16H179.942C179.995 280.024 180.288 280.701 180.822 281.192C181.366 281.672 182.022 281.912 182.79 281.912C183.419 281.912 183.942 281.768 184.358 281.48C184.784 281.181 185.083 280.787 185.254 280.296H186.822C186.587 281.139 186.118 281.827 185.414 282.36C184.71 282.883 183.835 283.144 182.79 283.144C181.958 283.144 181.211 282.957 180.55 282.584C179.899 282.211 179.387 281.683 179.014 281C178.64 280.307 178.454 279.507 178.454 278.6C178.454 277.693 178.635 276.899 178.998 276.216C179.36 275.533 179.867 275.011 180.518 274.648C181.179 274.275 181.936 274.088 182.79 274.088C183.622 274.088 184.358 274.269 184.998 274.632C185.638 274.995 186.128 275.496 186.47 276.136C186.822 276.765 186.998 277.48 186.998 278.28ZM185.494 277.976C185.494 277.421 185.371 276.947 185.126 276.552C184.88 276.147 184.544 275.843 184.118 275.64C183.702 275.427 183.238 275.32 182.726 275.32C181.99 275.32 181.36 275.555 180.838 276.024C180.326 276.493 180.032 277.144 179.958 277.976H185.494ZM193.192 274.072C194.258 274.072 195.122 274.397 195.784 275.048C196.445 275.688 196.776 276.616 196.776 277.832V283H195.336V278.04C195.336 277.165 195.117 276.499 194.68 276.04C194.242 275.571 193.645 275.336 192.888 275.336C192.12 275.336 191.506 275.576 191.048 276.056C190.6 276.536 190.376 277.235 190.376 278.152V283H188.92V274.232H190.376V275.48C190.664 275.032 191.053 274.685 191.544 274.44C192.045 274.195 192.594 274.072 193.192 274.072ZM202.258 283.144C201.586 283.144 200.983 283.032 200.45 282.808C199.917 282.573 199.495 282.253 199.186 281.848C198.877 281.432 198.706 280.957 198.674 280.424H200.178C200.221 280.861 200.423 281.219 200.786 281.496C201.159 281.773 201.645 281.912 202.242 281.912C202.797 281.912 203.234 281.789 203.554 281.544C203.874 281.299 204.034 280.989 204.034 280.616C204.034 280.232 203.863 279.949 203.522 279.768C203.181 279.576 202.653 279.389 201.938 279.208C201.287 279.037 200.754 278.867 200.338 278.696C199.933 278.515 199.581 278.253 199.282 277.912C198.994 277.56 198.85 277.101 198.85 276.536C198.85 276.088 198.983 275.677 199.25 275.304C199.517 274.931 199.895 274.637 200.386 274.424C200.877 274.2 201.437 274.088 202.066 274.088C203.037 274.088 203.821 274.333 204.418 274.824C205.015 275.315 205.335 275.987 205.378 276.84H203.922C203.89 276.381 203.703 276.013 203.362 275.736C203.031 275.459 202.583 275.32 202.018 275.32C201.495 275.32 201.079 275.432 200.77 275.656C200.461 275.88 200.306 276.173 200.306 276.536C200.306 276.824 200.397 277.064 200.578 277.256C200.77 277.437 201.005 277.587 201.282 277.704C201.57 277.811 201.965 277.933 202.466 278.072C203.095 278.243 203.607 278.413 204.002 278.584C204.397 278.744 204.733 278.989 205.01 279.32C205.298 279.651 205.447 280.083 205.458 280.616C205.458 281.096 205.325 281.528 205.058 281.912C204.791 282.296 204.413 282.6 203.922 282.824C203.442 283.037 202.887 283.144 202.258 283.144ZM215.513 278.28C215.513 278.557 215.497 278.851 215.465 279.16H208.457C208.511 280.024 208.804 280.701 209.337 281.192C209.881 281.672 210.537 281.912 211.305 281.912C211.935 281.912 212.457 281.768 212.873 281.48C213.3 281.181 213.599 280.787 213.769 280.296H215.337C215.103 281.139 214.633 281.827 213.929 282.36C213.225 282.883 212.351 283.144 211.305 283.144C210.473 283.144 209.727 282.957 209.065 282.584C208.415 282.211 207.903 281.683 207.529 281C207.156 280.307 206.969 279.507 206.969 278.6C206.969 277.693 207.151 276.899 207.513 276.216C207.876 275.533 208.383 275.011 209.033 274.648C209.695 274.275 210.452 274.088 211.305 274.088C212.137 274.088 212.873 274.269 213.513 274.632C214.153 274.995 214.644 275.496 214.985 276.136C215.337 276.765 215.513 277.48 215.513 278.28ZM214.009 277.976C214.009 277.421 213.887 276.947 213.641 276.552C213.396 276.147 213.06 275.843 212.633 275.64C212.217 275.427 211.753 275.32 211.241 275.32C210.505 275.32 209.876 275.555 209.353 276.024C208.841 276.493 208.548 277.144 208.473 277.976H214.009ZM220.539 283.144C219.867 283.144 219.264 283.032 218.731 282.808C218.198 282.573 217.776 282.253 217.467 281.848C217.158 281.432 216.987 280.957 216.955 280.424H218.459C218.502 280.861 218.704 281.219 219.067 281.496C219.44 281.773 219.926 281.912 220.523 281.912C221.078 281.912 221.515 281.789 221.835 281.544C222.155 281.299 222.315 280.989 222.315 280.616C222.315 280.232 222.144 279.949 221.803 279.768C221.462 279.576 220.934 279.389 220.219 279.208C219.568 279.037 219.035 278.867 218.619 278.696C218.214 278.515 217.862 278.253 217.563 277.912C217.275 277.56 217.131 277.101 217.131 276.536C217.131 276.088 217.264 275.677 217.531 275.304C217.798 274.931 218.176 274.637 218.667 274.424C219.158 274.2 219.718 274.088 220.347 274.088C221.318 274.088 222.102 274.333 222.699 274.824C223.296 275.315 223.616 275.987 223.659 276.84H222.203C222.171 276.381 221.984 276.013 221.643 275.736C221.312 275.459 220.864 275.32 220.299 275.32C219.776 275.32 219.36 275.432 219.051 275.656C218.742 275.88 218.587 276.173 218.587 276.536C218.587 276.824 218.678 277.064 218.859 277.256C219.051 277.437 219.286 277.587 219.563 277.704C219.851 277.811 220.246 277.933 220.747 278.072C221.376 278.243 221.888 278.413 222.283 278.584C222.678 278.744 223.014 278.989 223.291 279.32C223.579 279.651 223.728 280.083 223.739 280.616C223.739 281.096 223.606 281.528 223.339 281.912C223.072 282.296 222.694 282.6 222.203 282.824C221.723 283.037 221.168 283.144 220.539 283.144Z" fill="black"/>
<path d="M127.596 96.1351H130.405C131.18 96.1351 131.809 96.7651 131.809 97.5412H134.618C134.618 95.2155 132.728 93.3228 130.405 93.3228V90.5105H127.596V93.3228C125.273 93.3228 123.383 95.2155 123.383 97.5412C123.383 99.867 125.273 101.76 127.596 101.76H130.405C131.18 101.76 131.809 102.39 131.809 103.166C131.809 103.942 131.18 104.572 130.405 104.572H127.596C126.821 104.572 126.192 103.942 126.192 103.166H123.383C123.383 105.492 125.273 107.384 127.596 107.384V110.197H130.405V107.384C132.728 107.384 134.618 105.492 134.618 103.166C134.618 100.84 132.728 98.9474 130.405 98.9474H127.596C126.821 98.9474 126.192 98.3174 126.192 97.5412C126.192 96.7651 126.821 96.1351 127.596 96.1351Z" fill="white"/>
<path d="M129 79.261C117.385 79.261 107.934 88.723 107.934 100.353C107.934 111.983 117.385 121.445 129 121.445C140.616 121.445 150.066 111.983 150.066 100.353C150.066 88.723 140.618 79.261 129 79.261ZM129 113.009C122.03 113.009 116.361 107.332 116.361 100.353C116.361 93.3745 122.03 87.6979 129 87.6979C135.97 87.6979 141.64 93.3745 141.64 100.353C141.64 107.332 135.97 113.009 129 113.009ZM138.879 88.4741C136.538 86.5181 133.611 85.2484 130.405 84.9573V82.145C134.383 82.4501 138.004 84.0306 140.863 86.4872L138.879 88.4741ZM127.596 84.9573C124.39 85.2484 121.464 86.5195 119.122 88.4741L117.137 86.4872C119.997 84.0306 123.619 82.4501 127.596 82.145V84.9573ZM117.136 90.4624C115.184 92.8078 113.914 95.7368 113.624 98.9471H110.815C111.12 94.9635 112.698 91.3384 115.152 88.4755L117.136 90.4624ZM113.624 101.759C113.914 104.97 115.184 107.899 117.136 110.244L115.152 112.231C112.698 109.368 111.12 105.742 110.815 101.759H113.624ZM119.122 112.232C121.463 114.188 124.39 115.458 127.596 115.749V118.561C123.617 118.256 119.997 116.676 117.137 114.219L119.122 112.232ZM130.405 115.749C133.611 115.458 136.536 114.187 138.879 112.232L140.863 114.219C138.004 116.676 134.382 118.256 130.405 118.561V115.749ZM140.865 110.244C142.818 107.9 144.086 104.97 144.377 101.759H147.186C146.881 105.743 145.303 109.368 142.849 112.231L140.865 110.244ZM144.379 98.9471C144.088 95.7368 142.818 92.8078 140.866 90.4624L142.851 88.4755C145.304 91.3384 146.883 94.9649 147.187 98.9471H144.379Z" fill="white"/>
<path d="M166.919 152.38V120.039H164.11V155.193H167.455L163.482 163.147C163.186 163.744 162.225 163.742 161.93 163.149L157.956 155.193H161.301V122.851H158.493V152.38H153.411L159.417 164.409C160.046 165.662 161.306 166.442 162.706 166.442C164.106 166.442 165.367 165.662 165.995 164.407L172 152.38H166.919Z" fill="white"/>
<path d="M145.853 124.258H112.148C109.825 124.258 107.934 126.15 107.934 128.476V162.224C107.934 164.55 109.825 166.442 112.148 166.442H145.853C148.176 166.442 150.066 164.55 150.066 162.224V128.476C150.066 126.15 148.176 124.258 145.853 124.258ZM130.405 129.882V132.695H127.596V129.882H124.787V132.695H121.978V127.07H136.022V132.695H133.214V129.882H130.405ZM147.258 162.224C147.258 163 146.628 163.63 145.853 163.63H112.148C111.372 163.63 110.743 163 110.743 162.224V128.476C110.743 127.7 111.372 127.07 112.148 127.07H119.17V135.507H138.831V127.07H145.853C146.628 127.07 147.258 127.7 147.258 128.476V162.224Z" fill="white"/>
<path d="M124.787 158.005H113.552V160.817H124.787V158.005Z" fill="white"/>
<path d="M124.787 152.38H113.552V155.193H124.787V152.38Z" fill="white"/>
<path d="M166.919 114.414H164.11V117.227H166.919V114.414Z" fill="white"/>
<path d="M95.2943 87.6975C93.8941 87.6975 92.6344 88.4779 92.0052 89.7322L86 101.759H91.0811V134.1H93.8899V98.9467H90.5446L94.5177 90.9921C94.814 90.3959 95.7746 90.3973 96.071 90.9907L100.044 98.9467H96.6987V131.288H99.5075V101.759H104.589L98.5834 89.7308C97.9557 88.4779 96.6945 87.6975 95.2943 87.6975Z" fill="white"/>
<path d="M93.8903 136.913H91.0815V139.725H93.8903V136.913Z" fill="white"/>
</svg>
