<svg width="20" height="19" viewBox="0 0 20 19" fill="none" xmlns="http://www.w3.org/2000/svg">
<path d="M19.8661 19H18.1852V9.91049H1.8129V19H0.131913V8.5479C0.132924 8.42815 0.177322 8.31361 0.255553 8.22893C0.333784 8.14425 0.439601 8.0962 0.550231 8.09511H19.444C19.5546 8.0962 19.6604 8.14425 19.7386 8.22893C19.8169 8.31361 19.8613 8.42815 19.8623 8.5479V19H19.8661ZM0.747759 6.27551H19.2503C20.1644 6.27551 20.2573 5.8898 19.4478 5.437L10.1985 0.0453446C10.1377 0.0154648 10.0716 0 10.0048 0C9.93804 0 9.87201 0.0154648 9.81118 0.0453446L0.550231 5.42024C-0.255405 5.88981 -0.166325 6.27551 0.751636 6.27551H0.747759ZM5.35306 18.2957H9.61364V13.6838H5.35306V18.2957ZM15.0362 13.6838V18.2957H10.7756V13.6838H15.0362Z" fill="#DE0C0C"/>
</svg>
