<svg width="23" height="23" viewBox="0 0 23 23" fill="none" xmlns="http://www.w3.org/2000/svg">
<path d="M20.4589 1.62917H17.6572L17.2011 0.527083C17.0057 0.191667 16.6147 0 16.1586 0H6.7762C6.32011 0 5.92918 0.191667 5.79887 0.527083L5.34278 1.62917H2.54108C1.10765 1.62917 0 2.49167 0 3.49792V21.1312C0 22.1854 1.1728 23 2.54108 23H20.4589C21.8924 23 23 22.1375 23 21.1312V3.49792C23 2.49167 21.8272 1.62917 20.4589 1.62917ZM21.6969 21.1312C21.6969 21.6583 21.1105 22.0896 20.3938 22.0896H2.47592C1.75921 22.0896 1.1728 21.6583 1.1728 21.1312V3.49792C1.1728 2.97083 1.75921 2.53958 2.47592 2.53958H4.88669L4.75637 2.875C4.56091 3.35417 5.017 3.83333 5.73371 3.83333H17.2011C17.9178 3.83333 18.3739 3.35417 18.1785 2.875L18.0482 2.53958H20.4589C21.1756 2.53958 21.762 2.97083 21.762 3.49792V21.1312H21.6969Z" fill="#DE0C0C"/>
<path d="M5.01696 7.42773H3.97447C3.51838 7.42773 3.12744 7.71523 3.12744 8.05065V8.81732C3.12744 9.15273 3.51838 9.44023 3.97447 9.44023H5.01696C5.47305 9.44023 5.86399 9.15273 5.86399 8.81732V8.05065C5.86399 7.71523 5.47305 7.42773 5.01696 7.42773Z" fill="#DE0C0C"/>
<path d="M19.8725 7.95508H8.7309C8.40512 7.95508 8.07935 8.14674 8.07935 8.43424C8.07935 8.67383 8.33997 8.91341 8.7309 8.91341H19.9377C20.2635 8.91341 20.5893 8.72174 20.5893 8.43424C20.5241 8.19466 20.2635 7.95508 19.8725 7.95508Z" fill="#DE0C0C"/>
<path d="M5.01696 10.9727H3.97447C3.51838 10.9727 3.12744 11.2602 3.12744 11.5956V12.3622C3.12744 12.6977 3.51838 12.9852 3.97447 12.9852H5.01696C5.47305 12.9852 5.86399 12.6977 5.86399 12.3622V11.5956C5.86399 11.2602 5.47305 10.9727 5.01696 10.9727Z" fill="#DE0C0C"/>
<path d="M19.8725 11.5H8.7309C8.40512 11.5 8.07935 11.6917 8.07935 11.9792C8.07935 12.2187 8.33997 12.4583 8.7309 12.4583H19.9377C20.2635 12.4583 20.5893 12.2667 20.5893 11.9792C20.5241 11.7396 20.2635 11.5 19.8725 11.5Z" fill="#DE0C0C"/>
<path d="M5.01696 14.5664H3.97447C3.51838 14.5664 3.12744 14.8539 3.12744 15.1893V15.956C3.12744 16.2914 3.51838 16.5789 3.97447 16.5789H5.01696C5.47305 16.5789 5.86399 16.2914 5.86399 15.956V15.1893C5.86399 14.806 5.47305 14.5664 5.01696 14.5664Z" fill="#DE0C0C"/>
<path d="M19.8725 15.0938H8.7309C8.40512 15.0938 8.07935 15.2854 8.07935 15.5729C8.07935 15.8125 8.33997 16.0521 8.7309 16.0521H19.9377C20.2635 16.0521 20.5893 15.8604 20.5893 15.5729C20.5241 15.2854 20.2635 15.0938 19.8725 15.0938Z" fill="#DE0C0C"/>
<path d="M5.01696 18.1133H3.97447C3.51838 18.1133 3.12744 18.4008 3.12744 18.7362V19.5029C3.12744 19.8383 3.51838 20.1258 3.97447 20.1258H5.01696C5.47305 20.1258 5.86399 19.8383 5.86399 19.5029V18.7362C5.86399 18.4008 5.47305 18.1133 5.01696 18.1133Z" fill="#DE0C0C"/>
<path d="M19.8725 18.6387H8.7309C8.40512 18.6387 8.07935 18.8303 8.07935 19.1178C8.07935 19.4053 8.33997 19.597 8.7309 19.597H19.9377C20.2635 19.597 20.5893 19.4053 20.5893 19.1178C20.5893 18.8303 20.2635 18.6387 19.8725 18.6387Z" fill="#DE0C0C"/>
</svg>
