<svg width="25" height="25" viewBox="0 0 25 25" fill="none" xmlns="http://www.w3.org/2000/svg">
<path d="M13.3329 15.9976L13.3332 15.9977L13.3363 15.9902C13.4064 15.8216 13.4868 15.4956 13.5756 15.0246C13.6649 14.5506 13.764 13.9222 13.8695 13.1433L13.8695 13.1431C14.0804 11.5571 14.1864 10.3421 14.1864 9.47143C14.1864 8.66026 14.0876 8.04458 13.8767 7.62864C13.7706 7.41919 13.6346 7.25765 13.4661 7.1488C13.2972 7.0397 13.1014 6.9872 12.8819 6.9872C12.6558 6.9872 12.455 7.04153 12.2826 7.15282C12.1105 7.26385 11.972 7.42799 11.8642 7.6392C11.6499 8.05876 11.5511 8.67447 11.5511 9.47143C11.5511 10.5441 11.6835 11.8459 11.8944 13.374L11.8945 13.3743C11.9999 14.1238 12.0923 14.7234 12.1751 15.1649C12.2164 15.3857 12.2556 15.5682 12.293 15.7108C12.3287 15.8469 12.3647 15.954 12.4029 16.0234C12.447 16.1333 12.5084 16.2199 12.5911 16.2787C12.6758 16.3389 12.7748 16.3643 12.8819 16.3643C13.0979 16.3643 13.2265 16.2011 13.3329 15.9976Z" fill="#DE0C0C" stroke="#DE0C0C" stroke-width="0.185268"/>
<path d="M12.8556 17.3893C12.4822 17.3893 12.1689 17.5482 11.8915 17.8516C11.6131 18.1561 11.472 18.4951 11.472 18.9227C11.472 19.3191 11.6116 19.6876 11.8651 19.9649C12.1434 20.2692 12.457 20.4272 12.8556 20.4272C13.2268 20.4272 13.5669 20.2701 13.846 19.9649C14.1237 19.6612 14.2655 19.3224 14.2655 18.9227C14.2655 18.5229 14.1237 18.1841 13.846 17.8805C13.5433 17.5493 13.2302 17.3893 12.8556 17.3893Z" fill="#DE0C0C" stroke="#DE0C0C" stroke-width="0.185268"/>
<path d="M24.3717 19.37L24.3716 19.3698L15.7568 2.77285C15.7568 2.7728 15.7568 2.77276 15.7568 2.77271C15.1631 1.62179 14.0796 0.907366 12.8556 0.907366C11.6328 0.907366 10.5484 1.59183 9.95416 2.77314C9.95407 2.77332 9.95397 2.77351 9.95388 2.77369L1.33953 19.3698L1.33942 19.37C0.745575 20.5214 0.7728 21.8789 1.36622 22.9999C1.96073 24.1231 3.04482 24.8069 4.26703 24.8069H21.4705C22.667 24.8069 23.75 24.1226 24.3705 23.0015L24.3705 23.0015L24.3721 22.9984C24.9381 21.8781 24.9656 20.5213 24.3717 19.37ZM2.5048 20.0608L2.50514 20.0601L11.0933 3.46363C11.0934 3.46352 11.0935 3.4634 11.0935 3.46329C11.4744 2.74144 12.1296 2.33166 12.8556 2.33166C13.5833 2.33166 14.263 2.74296 14.6166 3.46133L14.6166 3.46134L14.6175 3.46299L23.206 20.0601L23.206 20.0601L23.2071 20.0621C23.5866 20.754 23.5876 21.5851 23.2067 22.3076C22.8259 23.0012 22.1705 23.4114 21.4441 23.4114H4.26703C3.54039 23.4114 2.88477 23.0009 2.50408 22.3069C2.12442 21.6149 2.1236 20.7834 2.5048 20.0608Z" fill="#DE0C0C" stroke="#DE0C0C" stroke-width="0.185268"/>
</svg>
