<svg width="258" height="313" viewBox="0 0 258 313" fill="none" xmlns="http://www.w3.org/2000/svg">
<path d="M109.631 61.5307C123.111 51.6926 137.807 33.6732 153.001 31.0534C168.228 28.7498 183.81 42.013 196.104 57.3731C208.365 72.417 217.37 89.8741 218.701 107.135C220.031 124.395 214.004 141.441 204.375 154.557C194.922 167.823 182.009 176.993 168.836 188.244C155.522 199.664 141.947 213.165 125.301 217.141C108.512 221.283 88.7947 215.733 75.2802 203.941C61.4486 192.169 53.7869 173.839 48.3019 156.499C42.8169 139.158 39.8256 122.788 43.9984 109.347C48.1712 95.9071 59.8251 85.3783 71.7679 79.1275C83.7437 73.1928 96.0085 71.536 109.631 61.5307Z" fill="#F66464"/>
<rect y="169" width="258" height="144" rx="28" fill="#EFEDED"/>
<path d="M31.5396 204.416C31.5396 203.328 31.7849 202.352 32.2756 201.488C32.7662 200.613 33.4329 199.931 34.2756 199.44C35.1289 198.949 36.0729 198.704 37.1076 198.704C38.3236 198.704 39.3849 198.997 40.2916 199.584C41.1982 200.171 41.8596 201.003 42.2756 202.08H40.5316C40.2222 201.408 39.7742 200.891 39.1876 200.528C38.6116 200.165 37.9182 199.984 37.1076 199.984C36.3289 199.984 35.6302 200.165 35.0116 200.528C34.3929 200.891 33.9076 201.408 33.5556 202.08C33.2036 202.741 33.0276 203.52 33.0276 204.416C33.0276 205.301 33.2036 206.08 33.5556 206.752C33.9076 207.413 34.3929 207.925 35.0116 208.288C35.6302 208.651 36.3289 208.832 37.1076 208.832C37.9182 208.832 38.6116 208.656 39.1876 208.304C39.7742 207.941 40.2222 207.424 40.5316 206.752H42.2756C41.8596 207.819 41.1982 208.645 40.2916 209.232C39.3849 209.808 38.3236 210.096 37.1076 210.096C36.0729 210.096 35.1289 209.856 34.2756 209.376C33.4329 208.885 32.7662 208.208 32.2756 207.344C31.7849 206.48 31.5396 205.504 31.5396 204.416ZM52.2189 201.232V210H50.7629V208.704C50.4856 209.152 50.0963 209.504 49.5949 209.76C49.1043 210.005 48.5603 210.128 47.9629 210.128C47.2803 210.128 46.6669 209.989 46.1229 209.712C45.5789 209.424 45.1469 208.997 44.8269 208.432C44.5176 207.867 44.3629 207.179 44.3629 206.368V201.232H45.8029V206.176C45.8029 207.04 46.0216 207.707 46.4589 208.176C46.8963 208.635 47.4936 208.864 48.2509 208.864C49.0296 208.864 49.6429 208.624 50.0909 208.144C50.5389 207.664 50.7629 206.965 50.7629 206.048V201.232H52.2189ZM56.1333 202.656C56.3893 202.155 56.752 201.765 57.2213 201.488C57.7013 201.211 58.2826 201.072 58.9653 201.072V202.576H58.5813C56.9493 202.576 56.1333 203.461 56.1333 205.232V210H54.6773V201.232H56.1333V202.656ZM62.1021 202.656C62.3581 202.155 62.7207 201.765 63.1901 201.488C63.6701 201.211 64.2514 201.072 64.9341 201.072V202.576H64.5501C62.9181 202.576 62.1021 203.461 62.1021 205.232V210H60.6461V201.232H62.1021V202.656ZM74.6148 205.28C74.6148 205.557 74.5988 205.851 74.5668 206.16H67.5588C67.6121 207.024 67.9055 207.701 68.4388 208.192C68.9828 208.672 69.6388 208.912 70.4068 208.912C71.0361 208.912 71.5588 208.768 71.9748 208.48C72.4015 208.181 72.7001 207.787 72.8708 207.296H74.4388C74.2041 208.139 73.7348 208.827 73.0308 209.36C72.3268 209.883 71.4521 210.144 70.4068 210.144C69.5748 210.144 68.8281 209.957 68.1668 209.584C67.5161 209.211 67.0041 208.683 66.6308 208C66.2575 207.307 66.0708 206.507 66.0708 205.6C66.0708 204.693 66.2521 203.899 66.6148 203.216C66.9775 202.533 67.4841 202.011 68.1348 201.648C68.7961 201.275 69.5535 201.088 70.4068 201.088C71.2388 201.088 71.9748 201.269 72.6148 201.632C73.2548 201.995 73.7455 202.496 74.0868 203.136C74.4388 203.765 74.6148 204.48 74.6148 205.28ZM73.1108 204.976C73.1108 204.421 72.9881 203.947 72.7428 203.552C72.4975 203.147 72.1615 202.843 71.7348 202.64C71.3188 202.427 70.8548 202.32 70.3428 202.32C69.6068 202.32 68.9775 202.555 68.4548 203.024C67.9428 203.493 67.6495 204.144 67.5748 204.976H73.1108ZM80.8087 201.072C81.8754 201.072 82.7394 201.397 83.4007 202.048C84.062 202.688 84.3927 203.616 84.3927 204.832V210H82.9527V205.04C82.9527 204.165 82.734 203.499 82.2967 203.04C81.8594 202.571 81.262 202.336 80.5047 202.336C79.7367 202.336 79.1234 202.576 78.6647 203.056C78.2167 203.536 77.9927 204.235 77.9927 205.152V210H76.5367V201.232H77.9927V202.48C78.2807 202.032 78.67 201.685 79.1607 201.44C79.662 201.195 80.2114 201.072 80.8087 201.072ZM88.5471 202.432V207.6C88.5471 208.027 88.6377 208.331 88.8191 208.512C89.0004 208.683 89.3151 208.768 89.7631 208.768H90.8351V210H89.5231C88.7124 210 88.1044 209.813 87.6991 209.44C87.2937 209.067 87.0911 208.453 87.0911 207.6V202.432H85.9551V201.232H87.0911V199.024H88.5471V201.232H90.8351V202.432H88.5471ZM94.0552 198.16V210H92.5992V198.16H94.0552ZM104.089 201.232L98.8087 214.128H97.3047L99.0327 209.904L95.4967 201.232H97.1127L99.8647 208.336L102.585 201.232H104.089ZM117.37 201.232L112.09 214.128H110.586L112.314 209.904L108.778 201.232H110.394L113.146 208.336L115.866 201.232H117.37ZM122.658 210.144C121.836 210.144 121.09 209.957 120.418 209.584C119.756 209.211 119.234 208.683 118.85 208C118.476 207.307 118.29 206.507 118.29 205.6C118.29 204.704 118.482 203.915 118.866 203.232C119.26 202.539 119.794 202.011 120.466 201.648C121.138 201.275 121.89 201.088 122.722 201.088C123.554 201.088 124.306 201.275 124.978 201.648C125.65 202.011 126.178 202.533 126.562 203.216C126.956 203.899 127.154 204.693 127.154 205.6C127.154 206.507 126.951 207.307 126.546 208C126.151 208.683 125.612 209.211 124.93 209.584C124.247 209.957 123.49 210.144 122.658 210.144ZM122.658 208.864C123.18 208.864 123.671 208.741 124.13 208.496C124.588 208.251 124.956 207.883 125.234 207.392C125.522 206.901 125.666 206.304 125.666 205.6C125.666 204.896 125.527 204.299 125.25 203.808C124.972 203.317 124.61 202.955 124.162 202.72C123.714 202.475 123.228 202.352 122.706 202.352C122.172 202.352 121.682 202.475 121.234 202.72C120.796 202.955 120.444 203.317 120.178 203.808C119.911 204.299 119.778 204.896 119.778 205.6C119.778 206.315 119.906 206.917 120.162 207.408C120.428 207.899 120.78 208.267 121.218 208.512C121.655 208.747 122.135 208.864 122.658 208.864ZM136.844 201.232V210H135.388V208.704C135.111 209.152 134.721 209.504 134.22 209.76C133.729 210.005 133.185 210.128 132.588 210.128C131.905 210.128 131.292 209.989 130.748 209.712C130.204 209.424 129.772 208.997 129.452 208.432C129.143 207.867 128.988 207.179 128.988 206.368V201.232H130.428V206.176C130.428 207.04 130.647 207.707 131.084 208.176C131.521 208.635 132.119 208.864 132.876 208.864C133.655 208.864 134.268 208.624 134.716 208.144C135.164 207.664 135.388 206.965 135.388 206.048V201.232H136.844ZM143.024 205.584C143.024 204.688 143.205 203.904 143.568 203.232C143.931 202.549 144.427 202.021 145.056 201.648C145.696 201.275 146.411 201.088 147.2 201.088C147.883 201.088 148.517 201.248 149.104 201.568C149.691 201.877 150.139 202.288 150.448 202.8V198.16H151.92V210H150.448V208.352C150.16 208.875 149.733 209.307 149.168 209.648C148.603 209.979 147.941 210.144 147.184 210.144C146.405 210.144 145.696 209.952 145.056 209.568C144.427 209.184 143.931 208.645 143.568 207.952C143.205 207.259 143.024 206.469 143.024 205.584ZM150.448 205.6C150.448 204.939 150.315 204.363 150.048 203.872C149.781 203.381 149.419 203.008 148.96 202.752C148.512 202.485 148.016 202.352 147.472 202.352C146.928 202.352 146.432 202.48 145.984 202.736C145.536 202.992 145.179 203.365 144.912 203.856C144.645 204.347 144.512 204.923 144.512 205.584C144.512 206.256 144.645 206.843 144.912 207.344C145.179 207.835 145.536 208.213 145.984 208.48C146.432 208.736 146.928 208.864 147.472 208.864C148.016 208.864 148.512 208.736 148.96 208.48C149.419 208.213 149.781 207.835 150.048 207.344C150.315 206.843 150.448 206.261 150.448 205.6ZM158.204 210.144C157.383 210.144 156.636 209.957 155.964 209.584C155.303 209.211 154.78 208.683 154.396 208C154.023 207.307 153.836 206.507 153.836 205.6C153.836 204.704 154.028 203.915 154.412 203.232C154.807 202.539 155.34 202.011 156.012 201.648C156.684 201.275 157.436 201.088 158.268 201.088C159.1 201.088 159.852 201.275 160.524 201.648C161.196 202.011 161.724 202.533 162.108 203.216C162.503 203.899 162.7 204.693 162.7 205.6C162.7 206.507 162.498 207.307 162.092 208C161.698 208.683 161.159 209.211 160.476 209.584C159.794 209.957 159.036 210.144 158.204 210.144ZM158.204 208.864C158.727 208.864 159.218 208.741 159.676 208.496C160.135 208.251 160.503 207.883 160.78 207.392C161.068 206.901 161.212 206.304 161.212 205.6C161.212 204.896 161.074 204.299 160.796 203.808C160.519 203.317 160.156 202.955 159.708 202.72C159.26 202.475 158.775 202.352 158.252 202.352C157.719 202.352 157.228 202.475 156.78 202.72C156.343 202.955 155.991 203.317 155.724 203.808C155.458 204.299 155.324 204.896 155.324 205.6C155.324 206.315 155.452 206.917 155.708 207.408C155.975 207.899 156.327 208.267 156.764 208.512C157.202 208.747 157.682 208.864 158.204 208.864ZM168.887 201.072C169.953 201.072 170.817 201.397 171.479 202.048C172.14 202.688 172.471 203.616 172.471 204.832V210H171.031V205.04C171.031 204.165 170.812 203.499 170.375 203.04C169.937 202.571 169.34 202.336 168.583 202.336C167.815 202.336 167.201 202.576 166.743 203.056C166.295 203.536 166.071 204.235 166.071 205.152V210H164.615V201.232H166.071V202.48C166.359 202.032 166.748 201.685 167.239 201.44C167.74 201.195 168.289 201.072 168.887 201.072ZM175.073 198.848H176.689L175.153 202.48H174.129L175.073 198.848ZM180.125 202.432V207.6C180.125 208.027 180.216 208.331 180.397 208.512C180.579 208.683 180.893 208.768 181.341 208.768H182.413V210H181.101C180.291 210 179.683 209.813 179.277 209.44C178.872 209.067 178.669 208.453 178.669 207.6V202.432H177.533V201.232H178.669V199.024H180.125V201.232H182.413V202.432H180.125ZM192.795 201.072C193.456 201.072 194.054 201.216 194.587 201.504C195.12 201.781 195.536 202.203 195.835 202.768C196.144 203.333 196.299 204.021 196.299 204.832V210H194.859V205.04C194.859 204.165 194.64 203.499 194.203 203.04C193.766 202.571 193.168 202.336 192.411 202.336C191.643 202.336 191.03 202.576 190.571 203.056C190.123 203.536 189.899 204.235 189.899 205.152V210H188.443V198.16H189.899V202.48C190.187 202.032 190.582 201.685 191.083 201.44C191.595 201.195 192.166 201.072 192.795 201.072ZM198.133 205.584C198.133 204.688 198.315 203.904 198.677 203.232C199.04 202.549 199.536 202.021 200.165 201.648C200.805 201.275 201.515 201.088 202.293 201.088C203.061 201.088 203.728 201.253 204.293 201.584C204.859 201.915 205.28 202.331 205.557 202.832V201.232H207.029V210H205.557V208.368C205.269 208.88 204.837 209.307 204.261 209.648C203.696 209.979 203.035 210.144 202.277 210.144C201.499 210.144 200.795 209.952 200.165 209.568C199.536 209.184 199.04 208.645 198.677 207.952C198.315 207.259 198.133 206.469 198.133 205.584ZM205.557 205.6C205.557 204.939 205.424 204.363 205.157 203.872C204.891 203.381 204.528 203.008 204.069 202.752C203.621 202.485 203.125 202.352 202.581 202.352C202.037 202.352 201.541 202.48 201.093 202.736C200.645 202.992 200.288 203.365 200.021 203.856C199.755 204.347 199.621 204.923 199.621 205.584C199.621 206.256 199.755 206.843 200.021 207.344C200.288 207.835 200.645 208.213 201.093 208.48C201.541 208.736 202.037 208.864 202.581 208.864C203.125 208.864 203.621 208.736 204.069 208.48C204.528 208.213 204.891 207.835 205.157 207.344C205.424 206.843 205.557 206.261 205.557 205.6ZM212.754 208.656L215.474 201.232H217.026L213.586 210H211.89L208.45 201.232H210.018L212.754 208.656ZM226.459 205.28C226.459 205.557 226.443 205.851 226.411 206.16H219.403C219.456 207.024 219.749 207.701 220.283 208.192C220.827 208.672 221.483 208.912 222.251 208.912C222.88 208.912 223.403 208.768 223.819 208.48C224.245 208.181 224.544 207.787 224.715 207.296H226.283C226.048 208.139 225.579 208.827 224.875 209.36C224.171 209.883 223.296 210.144 222.251 210.144C221.419 210.144 220.672 209.957 220.011 209.584C219.36 209.211 218.848 208.683 218.475 208C218.101 207.307 217.915 206.507 217.915 205.6C217.915 204.693 218.096 203.899 218.459 203.216C218.821 202.533 219.328 202.011 219.979 201.648C220.64 201.275 221.397 201.088 222.251 201.088C223.083 201.088 223.819 201.269 224.459 201.632C225.099 201.995 225.589 202.496 225.931 203.136C226.283 203.765 226.459 204.48 226.459 205.28ZM224.955 204.976C224.955 204.421 224.832 203.947 224.587 203.552C224.341 203.147 224.005 202.843 223.579 202.64C223.163 202.427 222.699 202.32 222.187 202.32C221.451 202.32 220.821 202.555 220.299 203.024C219.787 203.493 219.493 204.144 219.419 204.976H224.955ZM47.9424 222.928V234H46.4864V225.744L42.8064 234H41.7824L38.0864 225.728V234H36.6304V222.928H38.1984L42.2944 232.08L46.3904 222.928H47.9424ZM49.8677 229.584C49.8677 228.688 50.049 227.904 50.4117 227.232C50.7744 226.549 51.2704 226.021 51.8997 225.648C52.5397 225.275 53.249 225.088 54.0277 225.088C54.7957 225.088 55.4624 225.253 56.0277 225.584C56.593 225.915 57.0144 226.331 57.2917 226.832V225.232H58.7637V234H57.2917V232.368C57.0037 232.88 56.5717 233.307 55.9957 233.648C55.4304 233.979 54.769 234.144 54.0117 234.144C53.233 234.144 52.529 233.952 51.8997 233.568C51.2704 233.184 50.7744 232.645 50.4117 231.952C50.049 231.259 49.8677 230.469 49.8677 229.584ZM57.2917 229.6C57.2917 228.939 57.1584 228.363 56.8917 227.872C56.625 227.381 56.2624 227.008 55.8037 226.752C55.3557 226.485 54.8597 226.352 54.3157 226.352C53.7717 226.352 53.2757 226.48 52.8277 226.736C52.3797 226.992 52.0224 227.365 51.7557 227.856C51.489 228.347 51.3557 228.923 51.3557 229.584C51.3557 230.256 51.489 230.843 51.7557 231.344C52.0224 231.835 52.3797 232.213 52.8277 232.48C53.2757 232.736 53.7717 232.864 54.3157 232.864C54.8597 232.864 55.3557 232.736 55.8037 232.48C56.2624 232.213 56.625 231.835 56.8917 231.344C57.1584 230.843 57.2917 230.261 57.2917 229.6ZM60.6802 229.6C60.6802 228.693 60.8615 227.904 61.2242 227.232C61.5869 226.549 62.0882 226.021 62.7282 225.648C63.3789 225.275 64.1202 225.088 64.9522 225.088C66.0295 225.088 66.9149 225.349 67.6082 225.872C68.3122 226.395 68.7762 227.12 69.0002 228.048H67.4322C67.2829 227.515 66.9895 227.093 66.5522 226.784C66.1255 226.475 65.5922 226.32 64.9522 226.32C64.1202 226.32 63.4482 226.608 62.9362 227.184C62.4242 227.749 62.1682 228.555 62.1682 229.6C62.1682 230.656 62.4242 231.472 62.9362 232.048C63.4482 232.624 64.1202 232.912 64.9522 232.912C65.5922 232.912 66.1255 232.763 66.5522 232.464C66.9789 232.165 67.2722 231.739 67.4322 231.184H69.0002C68.7655 232.08 68.2962 232.8 67.5922 233.344C66.8882 233.877 66.0082 234.144 64.9522 234.144C64.1202 234.144 63.3789 233.957 62.7282 233.584C62.0882 233.211 61.5869 232.683 61.2242 232C60.8615 231.317 60.6802 230.517 60.6802 229.6ZM75.2949 225.072C75.9563 225.072 76.5536 225.216 77.0869 225.504C77.6203 225.781 78.0363 226.203 78.3349 226.768C78.6443 227.333 78.7989 228.021 78.7989 228.832V234H77.3589V229.04C77.3589 228.165 77.1403 227.499 76.7029 227.04C76.2656 226.571 75.6683 226.336 74.9109 226.336C74.1429 226.336 73.5296 226.576 73.0709 227.056C72.6229 227.536 72.3989 228.235 72.3989 229.152V234H70.9429V222.16H72.3989V226.48C72.6869 226.032 73.0816 225.685 73.5829 225.44C74.0949 225.195 74.6656 225.072 75.2949 225.072ZM81.9293 223.808C81.652 223.808 81.4173 223.712 81.2253 223.52C81.0333 223.328 80.9373 223.093 80.9373 222.816C80.9373 222.539 81.0333 222.304 81.2253 222.112C81.4173 221.92 81.652 221.824 81.9293 221.824C82.196 221.824 82.42 221.92 82.6013 222.112C82.7933 222.304 82.8893 222.539 82.8893 222.816C82.8893 223.093 82.7933 223.328 82.6013 223.52C82.42 223.712 82.196 223.808 81.9293 223.808ZM82.6333 225.232V234H81.1773V225.232H82.6333ZM89.3868 225.072C90.4535 225.072 91.3175 225.397 91.9788 226.048C92.6401 226.688 92.9708 227.616 92.9708 228.832V234H91.5308V229.04C91.5308 228.165 91.3121 227.499 90.8748 227.04C90.4375 226.571 89.8401 226.336 89.0828 226.336C88.3148 226.336 87.7015 226.576 87.2428 227.056C86.7948 227.536 86.5708 228.235 86.5708 229.152V234H85.1148V225.232H86.5708V226.48C86.8588 226.032 87.2481 225.685 87.7388 225.44C88.2401 225.195 88.7895 225.072 89.3868 225.072ZM103.349 229.28C103.349 229.557 103.333 229.851 103.301 230.16H96.2932C96.3465 231.024 96.6399 231.701 97.1732 232.192C97.7172 232.672 98.3732 232.912 99.1412 232.912C99.7705 232.912 100.293 232.768 100.709 232.48C101.136 232.181 101.435 231.787 101.605 231.296H103.173C102.939 232.139 102.469 232.827 101.765 233.36C101.061 233.883 100.187 234.144 99.1412 234.144C98.3092 234.144 97.5625 233.957 96.9012 233.584C96.2505 233.211 95.7385 232.683 95.3652 232C94.9919 231.307 94.8052 230.507 94.8052 229.6C94.8052 228.693 94.9865 227.899 95.3492 227.216C95.7119 226.533 96.2185 226.011 96.8692 225.648C97.5305 225.275 98.2879 225.088 99.1412 225.088C99.9732 225.088 100.709 225.269 101.349 225.632C101.989 225.995 102.48 226.496 102.821 227.136C103.173 227.765 103.349 228.48 103.349 229.28ZM101.845 228.976C101.845 228.421 101.723 227.947 101.477 227.552C101.232 227.147 100.896 226.843 100.469 226.64C100.053 226.427 99.5892 226.32 99.0772 226.32C98.3412 226.32 97.7119 226.555 97.1892 227.024C96.6772 227.493 96.3839 228.144 96.3092 228.976H101.845ZM106.727 226.656C106.983 226.155 107.346 225.765 107.815 225.488C108.295 225.211 108.876 225.072 109.559 225.072V226.576H109.175C107.543 226.576 106.727 227.461 106.727 229.232V234H105.271V225.232H106.727V226.656ZM111.992 223.808C111.714 223.808 111.48 223.712 111.288 223.52C111.096 223.328 111 223.093 111 222.816C111 222.539 111.096 222.304 111.288 222.112C111.48 221.92 111.714 221.824 111.992 221.824C112.258 221.824 112.482 221.92 112.664 222.112C112.856 222.304 112.952 222.539 112.952 222.816C112.952 223.093 112.856 223.328 112.664 223.52C112.482 223.712 112.258 223.808 111.992 223.808ZM112.696 225.232V234H111.24V225.232H112.696ZM123.177 229.28C123.177 229.557 123.161 229.851 123.129 230.16H116.121C116.175 231.024 116.468 231.701 117.001 232.192C117.545 232.672 118.201 232.912 118.969 232.912C119.599 232.912 120.121 232.768 120.537 232.48C120.964 232.181 121.263 231.787 121.433 231.296H123.001C122.767 232.139 122.297 232.827 121.593 233.36C120.889 233.883 120.015 234.144 118.969 234.144C118.137 234.144 117.391 233.957 116.729 233.584C116.079 233.211 115.567 232.683 115.193 232C114.82 231.307 114.633 230.507 114.633 229.6C114.633 228.693 114.815 227.899 115.177 227.216C115.54 226.533 116.047 226.011 116.697 225.648C117.359 225.275 118.116 225.088 118.969 225.088C119.801 225.088 120.537 225.269 121.177 225.632C121.817 225.995 122.308 226.496 122.649 227.136C123.001 227.765 123.177 228.48 123.177 229.28ZM121.673 228.976C121.673 228.421 121.551 227.947 121.305 227.552C121.06 227.147 120.724 226.843 120.297 226.64C119.881 226.427 119.417 226.32 118.905 226.32C118.169 226.32 117.54 226.555 117.017 227.024C116.505 227.493 116.212 228.144 116.137 228.976H121.673ZM128.203 234.144C127.531 234.144 126.929 234.032 126.395 233.808C125.862 233.573 125.441 233.253 125.131 232.848C124.822 232.432 124.651 231.957 124.619 231.424H126.123C126.166 231.861 126.369 232.219 126.731 232.496C127.105 232.773 127.59 232.912 128.187 232.912C128.742 232.912 129.179 232.789 129.499 232.544C129.819 232.299 129.979 231.989 129.979 231.616C129.979 231.232 129.809 230.949 129.467 230.768C129.126 230.576 128.598 230.389 127.883 230.208C127.233 230.037 126.699 229.867 126.283 229.696C125.878 229.515 125.526 229.253 125.227 228.912C124.939 228.56 124.795 228.101 124.795 227.536C124.795 227.088 124.929 226.677 125.195 226.304C125.462 225.931 125.841 225.637 126.331 225.424C126.822 225.2 127.382 225.088 128.011 225.088C128.982 225.088 129.766 225.333 130.363 225.824C130.961 226.315 131.281 226.987 131.323 227.84H129.867C129.835 227.381 129.649 227.013 129.307 226.736C128.977 226.459 128.529 226.32 127.963 226.32C127.441 226.32 127.025 226.432 126.715 226.656C126.406 226.88 126.251 227.173 126.251 227.536C126.251 227.824 126.342 228.064 126.523 228.256C126.715 228.437 126.95 228.587 127.227 228.704C127.515 228.811 127.91 228.933 128.411 229.072C129.041 229.243 129.553 229.413 129.947 229.584C130.342 229.744 130.678 229.989 130.955 230.32C131.243 230.651 131.393 231.083 131.403 231.616C131.403 232.096 131.27 232.528 131.003 232.912C130.737 233.296 130.358 233.6 129.867 233.824C129.387 234.037 128.833 234.144 128.203 234.144ZM146.284 234L144.828 232.528C144.284 233.093 143.703 233.515 143.084 233.792C142.466 234.059 141.767 234.192 140.988 234.192C140.22 234.192 139.538 234.053 138.94 233.776C138.354 233.499 137.895 233.104 137.564 232.592C137.244 232.08 137.084 231.483 137.084 230.8C137.084 230.021 137.303 229.339 137.74 228.752C138.188 228.155 138.844 227.685 139.708 227.344C139.367 226.939 139.122 226.565 138.972 226.224C138.823 225.883 138.748 225.509 138.748 225.104C138.748 224.635 138.866 224.213 139.1 223.84C139.346 223.456 139.692 223.157 140.14 222.944C140.588 222.731 141.106 222.624 141.692 222.624C142.268 222.624 142.77 222.736 143.196 222.96C143.623 223.184 143.943 223.499 144.156 223.904C144.37 224.299 144.466 224.741 144.444 225.232H142.988C142.999 224.795 142.876 224.453 142.62 224.208C142.364 223.952 142.034 223.824 141.628 223.824C141.202 223.824 140.855 223.947 140.588 224.192C140.332 224.427 140.204 224.731 140.204 225.104C140.204 225.424 140.29 225.733 140.46 226.032C140.642 226.331 140.94 226.699 141.356 227.136L144.684 230.48L144.972 230.032L146.06 228.208H147.628L146.316 230.48C146.135 230.8 145.922 231.136 145.676 231.488L148.188 234H146.284ZM140.988 232.944C141.564 232.944 142.082 232.832 142.54 232.608C143.01 232.384 143.452 232.037 143.868 231.568L140.588 228.272C139.223 228.795 138.54 229.621 138.54 230.752C138.54 231.381 138.764 231.904 139.212 232.32C139.671 232.736 140.263 232.944 140.988 232.944ZM163.034 222.848L158.826 234H157.146L152.938 222.848H154.49L157.994 232.464L161.498 222.848H163.034ZM172.63 229.28C172.63 229.557 172.614 229.851 172.582 230.16H165.574C165.628 231.024 165.921 231.701 166.454 232.192C166.998 232.672 167.654 232.912 168.422 232.912C169.052 232.912 169.574 232.768 169.99 232.48C170.417 232.181 170.716 231.787 170.886 231.296H172.454C172.22 232.139 171.75 232.827 171.046 233.36C170.342 233.883 169.468 234.144 168.422 234.144C167.59 234.144 166.844 233.957 166.182 233.584C165.532 233.211 165.02 232.683 164.646 232C164.273 231.307 164.086 230.507 164.086 229.6C164.086 228.693 164.268 227.899 164.63 227.216C164.993 226.533 165.5 226.011 166.15 225.648C166.812 225.275 167.569 225.088 168.422 225.088C169.254 225.088 169.99 225.269 170.63 225.632C171.27 225.995 171.761 226.496 172.102 227.136C172.454 227.765 172.63 228.48 172.63 229.28ZM171.126 228.976C171.126 228.421 171.004 227.947 170.758 227.552C170.513 227.147 170.177 226.843 169.75 226.64C169.334 226.427 168.87 226.32 168.358 226.32C167.622 226.32 166.993 226.555 166.47 227.024C165.958 227.493 165.665 228.144 165.59 228.976H171.126ZM178.904 225.072C179.566 225.072 180.163 225.216 180.696 225.504C181.23 225.781 181.646 226.203 181.944 226.768C182.254 227.333 182.408 228.021 182.408 228.832V234H180.968V229.04C180.968 228.165 180.75 227.499 180.312 227.04C179.875 226.571 179.278 226.336 178.52 226.336C177.752 226.336 177.139 226.576 176.68 227.056C176.232 227.536 176.008 228.235 176.008 229.152V234H174.552V222.16H176.008V226.48C176.296 226.032 176.691 225.685 177.192 225.44C177.704 225.195 178.275 225.072 178.904 225.072ZM185.539 223.808C185.261 223.808 185.027 223.712 184.835 223.52C184.643 223.328 184.547 223.093 184.547 222.816C184.547 222.539 184.643 222.304 184.835 222.112C185.027 221.92 185.261 221.824 185.539 221.824C185.805 221.824 186.029 221.92 186.211 222.112C186.403 222.304 186.499 222.539 186.499 222.816C186.499 223.093 186.403 223.328 186.211 223.52C186.029 223.712 185.805 223.808 185.539 223.808ZM186.243 225.232V234H184.787V225.232H186.243ZM188.18 229.6C188.18 228.693 188.362 227.904 188.724 227.232C189.087 226.549 189.588 226.021 190.228 225.648C190.879 225.275 191.62 225.088 192.452 225.088C193.53 225.088 194.415 225.349 195.108 225.872C195.812 226.395 196.276 227.12 196.5 228.048H194.932C194.783 227.515 194.49 227.093 194.052 226.784C193.626 226.475 193.092 226.32 192.452 226.32C191.62 226.32 190.948 226.608 190.436 227.184C189.924 227.749 189.668 228.555 189.668 229.6C189.668 230.656 189.924 231.472 190.436 232.048C190.948 232.624 191.62 232.912 192.452 232.912C193.092 232.912 193.626 232.763 194.052 232.464C194.479 232.165 194.772 231.739 194.932 231.184H196.5C196.266 232.08 195.796 232.8 195.092 233.344C194.388 233.877 193.508 234.144 192.452 234.144C191.62 234.144 190.879 233.957 190.228 233.584C189.588 233.211 189.087 232.683 188.724 232C188.362 231.317 188.18 230.517 188.18 229.6ZM199.899 222.16V234H198.443V222.16H199.899ZM210.38 229.28C210.38 229.557 210.364 229.851 210.332 230.16H203.324C203.378 231.024 203.671 231.701 204.204 232.192C204.748 232.672 205.404 232.912 206.172 232.912C206.802 232.912 207.324 232.768 207.74 232.48C208.167 232.181 208.466 231.787 208.636 231.296H210.204C209.97 232.139 209.5 232.827 208.796 233.36C208.092 233.883 207.218 234.144 206.172 234.144C205.34 234.144 204.594 233.957 203.932 233.584C203.282 233.211 202.77 232.683 202.396 232C202.023 231.307 201.836 230.507 201.836 229.6C201.836 228.693 202.018 227.899 202.38 227.216C202.743 226.533 203.25 226.011 203.9 225.648C204.562 225.275 205.319 225.088 206.172 225.088C207.004 225.088 207.74 225.269 208.38 225.632C209.02 225.995 209.511 226.496 209.852 227.136C210.204 227.765 210.38 228.48 210.38 229.28ZM208.876 228.976C208.876 228.421 208.754 227.947 208.508 227.552C208.263 227.147 207.927 226.843 207.5 226.64C207.084 226.427 206.62 226.32 206.108 226.32C205.372 226.32 204.743 226.555 204.22 227.024C203.708 227.493 203.415 228.144 203.34 228.976H208.876ZM215.406 234.144C214.734 234.144 214.132 234.032 213.598 233.808C213.065 233.573 212.644 233.253 212.334 232.848C212.025 232.432 211.854 231.957 211.822 231.424H213.326C213.369 231.861 213.572 232.219 213.934 232.496C214.308 232.773 214.793 232.912 215.39 232.912C215.945 232.912 216.382 232.789 216.702 232.544C217.022 232.299 217.182 231.989 217.182 231.616C217.182 231.232 217.012 230.949 216.67 230.768C216.329 230.576 215.801 230.389 215.086 230.208C214.436 230.037 213.902 229.867 213.486 229.696C213.081 229.515 212.729 229.253 212.43 228.912C212.142 228.56 211.998 228.101 211.998 227.536C211.998 227.088 212.132 226.677 212.398 226.304C212.665 225.931 213.044 225.637 213.534 225.424C214.025 225.2 214.585 225.088 215.214 225.088C216.185 225.088 216.969 225.333 217.566 225.824C218.164 226.315 218.484 226.987 218.526 227.84H217.07C217.038 227.381 216.852 227.013 216.51 226.736C216.18 226.459 215.732 226.32 215.166 226.32C214.644 226.32 214.228 226.432 213.918 226.656C213.609 226.88 213.454 227.173 213.454 227.536C213.454 227.824 213.545 228.064 213.726 228.256C213.918 228.437 214.153 228.587 214.43 228.704C214.718 228.811 215.113 228.933 215.614 229.072C216.244 229.243 216.756 229.413 217.15 229.584C217.545 229.744 217.881 229.989 218.158 230.32C218.446 230.651 218.596 231.083 218.606 231.616C218.606 232.096 218.473 232.528 218.206 232.912C217.94 233.296 217.561 233.6 217.07 233.824C216.59 234.037 216.036 234.144 215.406 234.144ZM222.166 231.984L220.374 236.288H219.398L220.566 231.984H222.166ZM80.0552 251.848C80.3432 251.347 80.7699 250.931 81.3352 250.6C81.9112 250.259 82.5779 250.088 83.3352 250.088C84.1139 250.088 84.8179 250.275 85.4472 250.648C86.0872 251.021 86.5885 251.549 86.9512 252.232C87.3139 252.904 87.4952 253.688 87.4952 254.584C87.4952 255.469 87.3139 256.259 86.9512 256.952C86.5885 257.645 86.0872 258.184 85.4472 258.568C84.8179 258.952 84.1139 259.144 83.3352 259.144C82.5885 259.144 81.9272 258.979 81.3512 258.648C80.7859 258.307 80.3539 257.885 80.0552 257.384V263.16H78.5992V250.232H80.0552V251.848ZM86.0072 254.584C86.0072 253.923 85.8739 253.347 85.6072 252.856C85.3405 252.365 84.9779 251.992 84.5192 251.736C84.0712 251.48 83.5752 251.352 83.0312 251.352C82.4979 251.352 82.0019 251.485 81.5432 251.752C81.0952 252.008 80.7325 252.387 80.4552 252.888C80.1885 253.379 80.0552 253.949 80.0552 254.6C80.0552 255.261 80.1885 255.843 80.4552 256.344C80.7325 256.835 81.0952 257.213 81.5432 257.48C82.0019 257.736 82.4979 257.864 83.0312 257.864C83.5752 257.864 84.0712 257.736 84.5192 257.48C84.9779 257.213 85.3405 256.835 85.6072 256.344C85.8739 255.843 86.0072 255.256 86.0072 254.584ZM90.8677 247.16V259H89.4117V247.16H90.8677ZM101.349 254.28C101.349 254.557 101.333 254.851 101.301 255.16H94.2932C94.3465 256.024 94.6399 256.701 95.1732 257.192C95.7172 257.672 96.3732 257.912 97.1412 257.912C97.7705 257.912 98.2932 257.768 98.7092 257.48C99.1359 257.181 99.4345 256.787 99.6052 256.296H101.173C100.939 257.139 100.469 257.827 99.7652 258.36C99.0612 258.883 98.1865 259.144 97.1412 259.144C96.3092 259.144 95.5625 258.957 94.9012 258.584C94.2505 258.211 93.7385 257.683 93.3652 257C92.9919 256.307 92.8052 255.507 92.8052 254.6C92.8052 253.693 92.9865 252.899 93.3492 252.216C93.7119 251.533 94.2185 251.011 94.8692 250.648C95.5305 250.275 96.2879 250.088 97.1412 250.088C97.9732 250.088 98.7092 250.269 99.3492 250.632C99.9892 250.995 100.48 251.496 100.821 252.136C101.173 252.765 101.349 253.48 101.349 254.28ZM99.8452 253.976C99.8452 253.421 99.7225 252.947 99.4772 252.552C99.2319 252.147 98.8959 251.843 98.4692 251.64C98.0532 251.427 97.5892 251.32 97.0772 251.32C96.3412 251.32 95.7119 251.555 95.1892 252.024C94.6772 252.493 94.3839 253.144 94.3092 253.976H99.8452ZM102.727 254.584C102.727 253.688 102.908 252.904 103.271 252.232C103.634 251.549 104.13 251.021 104.759 250.648C105.399 250.275 106.108 250.088 106.887 250.088C107.655 250.088 108.322 250.253 108.887 250.584C109.452 250.915 109.874 251.331 110.151 251.832V250.232H111.623V259H110.151V257.368C109.863 257.88 109.431 258.307 108.855 258.648C108.29 258.979 107.628 259.144 106.871 259.144C106.092 259.144 105.388 258.952 104.759 258.568C104.13 258.184 103.634 257.645 103.271 256.952C102.908 256.259 102.727 255.469 102.727 254.584ZM110.151 254.6C110.151 253.939 110.018 253.363 109.751 252.872C109.484 252.381 109.122 252.008 108.663 251.752C108.215 251.485 107.719 251.352 107.175 251.352C106.631 251.352 106.135 251.48 105.687 251.736C105.239 251.992 104.882 252.365 104.615 252.856C104.348 253.347 104.215 253.923 104.215 254.584C104.215 255.256 104.348 255.843 104.615 256.344C104.882 256.835 105.239 257.213 105.687 257.48C106.135 257.736 106.631 257.864 107.175 257.864C107.719 257.864 108.215 257.736 108.663 257.48C109.122 257.213 109.484 256.835 109.751 256.344C110.018 255.843 110.151 255.261 110.151 254.6ZM117.188 259.144C116.516 259.144 115.913 259.032 115.38 258.808C114.846 258.573 114.425 258.253 114.116 257.848C113.806 257.432 113.636 256.957 113.604 256.424H115.108C115.15 256.861 115.353 257.219 115.716 257.496C116.089 257.773 116.574 257.912 117.172 257.912C117.726 257.912 118.164 257.789 118.484 257.544C118.804 257.299 118.964 256.989 118.964 256.616C118.964 256.232 118.793 255.949 118.452 255.768C118.11 255.576 117.582 255.389 116.868 255.208C116.217 255.037 115.684 254.867 115.268 254.696C114.862 254.515 114.51 254.253 114.212 253.912C113.924 253.56 113.78 253.101 113.78 252.536C113.78 252.088 113.913 251.677 114.18 251.304C114.446 250.931 114.825 250.637 115.316 250.424C115.806 250.2 116.366 250.088 116.996 250.088C117.966 250.088 118.75 250.333 119.348 250.824C119.945 251.315 120.265 251.987 120.308 252.84H118.852C118.82 252.381 118.633 252.013 118.292 251.736C117.961 251.459 117.513 251.32 116.948 251.32C116.425 251.32 116.009 251.432 115.7 251.656C115.39 251.88 115.236 252.173 115.236 252.536C115.236 252.824 115.326 253.064 115.508 253.256C115.7 253.437 115.934 253.587 116.212 253.704C116.5 253.811 116.894 253.933 117.396 254.072C118.025 254.243 118.537 254.413 118.932 254.584C119.326 254.744 119.662 254.989 119.94 255.32C120.228 255.651 120.377 256.083 120.388 256.616C120.388 257.096 120.254 257.528 119.988 257.912C119.721 258.296 119.342 258.6 118.852 258.824C118.372 259.037 117.817 259.144 117.188 259.144ZM130.443 254.28C130.443 254.557 130.427 254.851 130.395 255.16H123.387C123.44 256.024 123.734 256.701 124.267 257.192C124.811 257.672 125.467 257.912 126.235 257.912C126.864 257.912 127.387 257.768 127.803 257.48C128.23 257.181 128.528 256.787 128.699 256.296H130.267C130.032 257.139 129.563 257.827 128.859 258.36C128.155 258.883 127.28 259.144 126.235 259.144C125.403 259.144 124.656 258.957 123.995 258.584C123.344 258.211 122.832 257.683 122.459 257C122.086 256.307 121.899 255.507 121.899 254.6C121.899 253.693 122.08 252.899 122.443 252.216C122.806 251.533 123.312 251.011 123.963 250.648C124.624 250.275 125.382 250.088 126.235 250.088C127.067 250.088 127.803 250.269 128.443 250.632C129.083 250.995 129.574 251.496 129.915 252.136C130.267 252.765 130.443 253.48 130.443 254.28ZM128.939 253.976C128.939 253.421 128.816 252.947 128.571 252.552C128.326 252.147 127.99 251.843 127.563 251.64C127.147 251.427 126.683 251.32 126.171 251.32C125.435 251.32 124.806 251.555 124.283 252.024C123.771 252.493 123.478 253.144 123.403 253.976H128.939ZM136.086 254.584C136.086 253.688 136.268 252.904 136.63 252.232C136.993 251.549 137.489 251.021 138.118 250.648C138.758 250.275 139.468 250.088 140.246 250.088C141.014 250.088 141.681 250.253 142.246 250.584C142.812 250.915 143.233 251.331 143.51 251.832V250.232H144.982V259H143.51V257.368C143.222 257.88 142.79 258.307 142.214 258.648C141.649 258.979 140.988 259.144 140.23 259.144C139.452 259.144 138.748 258.952 138.118 258.568C137.489 258.184 136.993 257.645 136.63 256.952C136.268 256.259 136.086 255.469 136.086 254.584ZM143.51 254.6C143.51 253.939 143.377 253.363 143.11 252.872C142.844 252.381 142.481 252.008 142.022 251.752C141.574 251.485 141.078 251.352 140.534 251.352C139.99 251.352 139.494 251.48 139.046 251.736C138.598 251.992 138.241 252.365 137.974 252.856C137.708 253.347 137.574 253.923 137.574 254.584C137.574 255.256 137.708 255.843 137.974 256.344C138.241 256.835 138.598 257.213 139.046 257.48C139.494 257.736 139.99 257.864 140.534 257.864C141.078 257.864 141.574 257.736 142.022 257.48C142.481 257.213 142.844 256.835 143.11 256.344C143.377 255.843 143.51 255.261 143.51 254.6ZM146.899 254.584C146.899 253.688 147.08 252.904 147.443 252.232C147.806 251.549 148.302 251.021 148.931 250.648C149.571 250.275 150.286 250.088 151.075 250.088C151.758 250.088 152.392 250.248 152.979 250.568C153.566 250.877 154.014 251.288 154.323 251.8V247.16H155.795V259H154.323V257.352C154.035 257.875 153.608 258.307 153.043 258.648C152.478 258.979 151.816 259.144 151.059 259.144C150.28 259.144 149.571 258.952 148.931 258.568C148.302 258.184 147.806 257.645 147.443 256.952C147.08 256.259 146.899 255.469 146.899 254.584ZM154.323 254.6C154.323 253.939 154.19 253.363 153.923 252.872C153.656 252.381 153.294 252.008 152.835 251.752C152.387 251.485 151.891 251.352 151.347 251.352C150.803 251.352 150.307 251.48 149.859 251.736C149.411 251.992 149.054 252.365 148.787 252.856C148.52 253.347 148.387 253.923 148.387 254.584C148.387 255.256 148.52 255.843 148.787 256.344C149.054 256.835 149.411 257.213 149.859 257.48C150.307 257.736 150.803 257.864 151.347 257.864C151.891 257.864 152.387 257.736 152.835 257.48C153.294 257.213 153.656 256.835 153.923 256.344C154.19 255.843 154.323 255.261 154.323 254.6ZM157.711 254.584C157.711 253.688 157.893 252.904 158.255 252.232C158.618 251.549 159.114 251.021 159.743 250.648C160.383 250.275 161.098 250.088 161.887 250.088C162.57 250.088 163.205 250.248 163.791 250.568C164.378 250.877 164.826 251.288 165.135 251.8V247.16H166.607V259H165.135V257.352C164.847 257.875 164.421 258.307 163.855 258.648C163.29 258.979 162.629 259.144 161.871 259.144C161.093 259.144 160.383 258.952 159.743 258.568C159.114 258.184 158.618 257.645 158.255 256.952C157.893 256.259 157.711 255.469 157.711 254.584ZM165.135 254.6C165.135 253.939 165.002 253.363 164.735 252.872C164.469 252.381 164.106 252.008 163.647 251.752C163.199 251.485 162.703 251.352 162.159 251.352C161.615 251.352 161.119 251.48 160.671 251.736C160.223 251.992 159.866 252.365 159.599 252.856C159.333 253.347 159.199 253.923 159.199 254.584C159.199 255.256 159.333 255.843 159.599 256.344C159.866 256.835 160.223 257.213 160.671 257.48C161.119 257.736 161.615 257.864 162.159 257.864C162.703 257.864 163.199 257.736 163.647 257.48C164.106 257.213 164.469 256.835 164.735 256.344C165.002 255.843 165.135 255.261 165.135 254.6ZM49.5284 271.928V283H48.0724V274.744L44.3924 283H43.3684L39.6724 274.728V283H38.2164V271.928H39.7844L43.8804 281.08L47.9764 271.928H49.5284ZM51.4536 278.584C51.4536 277.688 51.635 276.904 51.9976 276.232C52.3603 275.549 52.8563 275.021 53.4856 274.648C54.1256 274.275 54.835 274.088 55.6136 274.088C56.3816 274.088 57.0483 274.253 57.6136 274.584C58.179 274.915 58.6003 275.331 58.8776 275.832V274.232H60.3496V283H58.8776V281.368C58.5896 281.88 58.1576 282.307 57.5816 282.648C57.0163 282.979 56.355 283.144 55.5976 283.144C54.819 283.144 54.115 282.952 53.4856 282.568C52.8563 282.184 52.3603 281.645 51.9976 280.952C51.635 280.259 51.4536 279.469 51.4536 278.584ZM58.8776 278.6C58.8776 277.939 58.7443 277.363 58.4776 276.872C58.211 276.381 57.8483 276.008 57.3896 275.752C56.9416 275.485 56.4456 275.352 55.9016 275.352C55.3576 275.352 54.8616 275.48 54.4136 275.736C53.9656 275.992 53.6083 276.365 53.3416 276.856C53.075 277.347 52.9416 277.923 52.9416 278.584C52.9416 279.256 53.075 279.843 53.3416 280.344C53.6083 280.835 53.9656 281.213 54.4136 281.48C54.8616 281.736 55.3576 281.864 55.9016 281.864C56.4456 281.864 56.9416 281.736 57.3896 281.48C57.8483 281.213 58.211 280.835 58.4776 280.344C58.7443 279.843 58.8776 279.261 58.8776 278.6ZM62.2661 278.6C62.2661 277.693 62.4475 276.904 62.8101 276.232C63.1728 275.549 63.6741 275.021 64.3141 274.648C64.9648 274.275 65.7061 274.088 66.5381 274.088C67.6155 274.088 68.5008 274.349 69.1941 274.872C69.8981 275.395 70.3621 276.12 70.5861 277.048H69.0181C68.8688 276.515 68.5755 276.093 68.1381 275.784C67.7115 275.475 67.1781 275.32 66.5381 275.32C65.7061 275.32 65.0341 275.608 64.5221 276.184C64.0101 276.749 63.7541 277.555 63.7541 278.6C63.7541 279.656 64.0101 280.472 64.5221 281.048C65.0341 281.624 65.7061 281.912 66.5381 281.912C67.1781 281.912 67.7115 281.763 68.1381 281.464C68.5648 281.165 68.8581 280.739 69.0181 280.184H70.5861C70.3515 281.08 69.8821 281.8 69.1781 282.344C68.4741 282.877 67.5941 283.144 66.5381 283.144C65.7061 283.144 64.9648 282.957 64.3141 282.584C63.6741 282.211 63.1728 281.683 62.8101 281C62.4475 280.317 62.2661 279.517 62.2661 278.6ZM76.8809 274.072C77.5422 274.072 78.1395 274.216 78.6729 274.504C79.2062 274.781 79.6222 275.203 79.9209 275.768C80.2302 276.333 80.3849 277.021 80.3849 277.832V283H78.9449V278.04C78.9449 277.165 78.7262 276.499 78.2889 276.04C77.8515 275.571 77.2542 275.336 76.4969 275.336C75.7289 275.336 75.1155 275.576 74.6569 276.056C74.2089 276.536 73.9849 277.235 73.9849 278.152V283H72.5289V271.16H73.9849V275.48C74.2729 275.032 74.6675 274.685 75.1689 274.44C75.6809 274.195 76.2515 274.072 76.8809 274.072ZM83.5153 272.808C83.2379 272.808 83.0033 272.712 82.8113 272.52C82.6193 272.328 82.5233 272.093 82.5233 271.816C82.5233 271.539 82.6193 271.304 82.8113 271.112C83.0033 270.92 83.2379 270.824 83.5153 270.824C83.7819 270.824 84.0059 270.92 84.1873 271.112C84.3793 271.304 84.4753 271.539 84.4753 271.816C84.4753 272.093 84.3793 272.328 84.1873 272.52C84.0059 272.712 83.7819 272.808 83.5153 272.808ZM84.2193 274.232V283H82.7633V274.232H84.2193ZM90.9728 274.072C92.0394 274.072 92.9034 274.397 93.5648 275.048C94.2261 275.688 94.5568 276.616 94.5568 277.832V283H93.1168V278.04C93.1168 277.165 92.8981 276.499 92.4608 276.04C92.0234 275.571 91.4261 275.336 90.6688 275.336C89.9008 275.336 89.2874 275.576 88.8288 276.056C88.3808 276.536 88.1568 277.235 88.1568 278.152V283H86.7008V274.232H88.1568V275.48C88.4448 275.032 88.8341 274.685 89.3248 274.44C89.8261 274.195 90.3754 274.072 90.9728 274.072ZM104.935 278.28C104.935 278.557 104.919 278.851 104.887 279.16H97.8791C97.9325 280.024 98.2258 280.701 98.7591 281.192C99.3031 281.672 99.9591 281.912 100.727 281.912C101.356 281.912 101.879 281.768 102.295 281.48C102.722 281.181 103.02 280.787 103.191 280.296H104.759C104.524 281.139 104.055 281.827 103.351 282.36C102.647 282.883 101.772 283.144 100.727 283.144C99.8951 283.144 99.1485 282.957 98.4871 282.584C97.8365 282.211 97.3245 281.683 96.9511 281C96.5778 280.307 96.3911 279.507 96.3911 278.6C96.3911 277.693 96.5725 276.899 96.9351 276.216C97.2978 275.533 97.8045 275.011 98.4551 274.648C99.1165 274.275 99.8738 274.088 100.727 274.088C101.559 274.088 102.295 274.269 102.935 274.632C103.575 274.995 104.066 275.496 104.407 276.136C104.759 276.765 104.935 277.48 104.935 278.28ZM103.431 277.976C103.431 277.421 103.308 276.947 103.063 276.552C102.818 276.147 102.482 275.843 102.055 275.64C101.639 275.427 101.175 275.32 100.663 275.32C99.9271 275.32 99.2978 275.555 98.7751 276.024C98.2631 276.493 97.9698 277.144 97.8951 277.976H103.431ZM108.313 275.656C108.569 275.155 108.932 274.765 109.401 274.488C109.881 274.211 110.462 274.072 111.145 274.072V275.576H110.761C109.129 275.576 108.313 276.461 108.313 278.232V283H106.857V274.232H108.313V275.656ZM113.578 272.808C113.3 272.808 113.066 272.712 112.874 272.52C112.682 272.328 112.586 272.093 112.586 271.816C112.586 271.539 112.682 271.304 112.874 271.112C113.066 270.92 113.3 270.824 113.578 270.824C113.844 270.824 114.068 270.92 114.25 271.112C114.442 271.304 114.538 271.539 114.538 271.816C114.538 272.093 114.442 272.328 114.25 272.52C114.068 272.712 113.844 272.808 113.578 272.808ZM114.282 274.232V283H112.826V274.232H114.282ZM124.763 278.28C124.763 278.557 124.747 278.851 124.715 279.16H117.707C117.761 280.024 118.054 280.701 118.587 281.192C119.131 281.672 119.787 281.912 120.555 281.912C121.185 281.912 121.707 281.768 122.123 281.48C122.55 281.181 122.849 280.787 123.019 280.296H124.587C124.353 281.139 123.883 281.827 123.179 282.36C122.475 282.883 121.601 283.144 120.555 283.144C119.723 283.144 118.977 282.957 118.315 282.584C117.665 282.211 117.153 281.683 116.779 281C116.406 280.307 116.219 279.507 116.219 278.6C116.219 277.693 116.401 276.899 116.763 276.216C117.126 275.533 117.633 275.011 118.283 274.648C118.945 274.275 119.702 274.088 120.555 274.088C121.387 274.088 122.123 274.269 122.763 274.632C123.403 274.995 123.894 275.496 124.235 276.136C124.587 276.765 124.763 277.48 124.763 278.28ZM123.259 277.976C123.259 277.421 123.137 276.947 122.891 276.552C122.646 276.147 122.31 275.843 121.883 275.64C121.467 275.427 121.003 275.32 120.491 275.32C119.755 275.32 119.126 275.555 118.603 276.024C118.091 276.493 117.798 277.144 117.723 277.976H123.259ZM129.789 283.144C129.117 283.144 128.514 283.032 127.981 282.808C127.448 282.573 127.026 282.253 126.717 281.848C126.408 281.432 126.237 280.957 126.205 280.424H127.709C127.752 280.861 127.954 281.219 128.317 281.496C128.69 281.773 129.176 281.912 129.773 281.912C130.328 281.912 130.765 281.789 131.085 281.544C131.405 281.299 131.565 280.989 131.565 280.616C131.565 280.232 131.394 279.949 131.053 279.768C130.712 279.576 130.184 279.389 129.469 279.208C128.818 279.037 128.285 278.867 127.869 278.696C127.464 278.515 127.112 278.253 126.813 277.912C126.525 277.56 126.381 277.101 126.381 276.536C126.381 276.088 126.514 275.677 126.781 275.304C127.048 274.931 127.426 274.637 127.917 274.424C128.408 274.2 128.968 274.088 129.597 274.088C130.568 274.088 131.352 274.333 131.949 274.824C132.546 275.315 132.866 275.987 132.909 276.84H131.453C131.421 276.381 131.234 276.013 130.893 275.736C130.562 275.459 130.114 275.32 129.549 275.32C129.026 275.32 128.61 275.432 128.301 275.656C127.992 275.88 127.837 276.173 127.837 276.536C127.837 276.824 127.928 277.064 128.109 277.256C128.301 277.437 128.536 277.587 128.813 277.704C129.101 277.811 129.496 277.933 129.997 278.072C130.626 278.243 131.138 278.413 131.533 278.584C131.928 278.744 132.264 278.989 132.541 279.32C132.829 279.651 132.978 280.083 132.989 280.616C132.989 281.096 132.856 281.528 132.589 281.912C132.322 282.296 131.944 282.6 131.453 282.824C130.973 283.037 130.418 283.144 129.789 283.144ZM147.87 283L146.414 281.528C145.87 282.093 145.289 282.515 144.67 282.792C144.051 283.059 143.353 283.192 142.574 283.192C141.806 283.192 141.123 283.053 140.526 282.776C139.939 282.499 139.481 282.104 139.15 281.592C138.83 281.08 138.67 280.483 138.67 279.8C138.67 279.021 138.889 278.339 139.326 277.752C139.774 277.155 140.43 276.685 141.294 276.344C140.953 275.939 140.707 275.565 140.558 275.224C140.409 274.883 140.334 274.509 140.334 274.104C140.334 273.635 140.451 273.213 140.686 272.84C140.931 272.456 141.278 272.157 141.726 271.944C142.174 271.731 142.691 271.624 143.278 271.624C143.854 271.624 144.355 271.736 144.782 271.96C145.209 272.184 145.529 272.499 145.742 272.904C145.955 273.299 146.051 273.741 146.03 274.232H144.574C144.585 273.795 144.462 273.453 144.206 273.208C143.95 272.952 143.619 272.824 143.214 272.824C142.787 272.824 142.441 272.947 142.174 273.192C141.918 273.427 141.79 273.731 141.79 274.104C141.79 274.424 141.875 274.733 142.046 275.032C142.227 275.331 142.526 275.699 142.942 276.136L146.27 279.48L146.558 279.032L147.646 277.208H149.214L147.902 279.48C147.721 279.8 147.507 280.136 147.262 280.488L149.774 283H147.87ZM142.574 281.944C143.15 281.944 143.667 281.832 144.126 281.608C144.595 281.384 145.038 281.037 145.454 280.568L142.174 277.272C140.809 277.795 140.126 278.621 140.126 279.752C140.126 280.381 140.35 280.904 140.798 281.32C141.257 281.736 141.849 281.944 142.574 281.944ZM164.62 271.848L160.412 283H158.732L154.524 271.848H156.076L159.58 281.464L163.084 271.848H164.62ZM174.216 278.28C174.216 278.557 174.2 278.851 174.168 279.16H167.16C167.214 280.024 167.507 280.701 168.04 281.192C168.584 281.672 169.24 281.912 170.008 281.912C170.638 281.912 171.16 281.768 171.576 281.48C172.003 281.181 172.302 280.787 172.472 280.296H174.04C173.806 281.139 173.336 281.827 172.632 282.36C171.928 282.883 171.054 283.144 170.008 283.144C169.176 283.144 168.43 282.957 167.768 282.584C167.118 282.211 166.606 281.683 166.232 281C165.859 280.307 165.672 279.507 165.672 278.6C165.672 277.693 165.854 276.899 166.216 276.216C166.579 275.533 167.086 275.011 167.736 274.648C168.398 274.275 169.155 274.088 170.008 274.088C170.84 274.088 171.576 274.269 172.216 274.632C172.856 274.995 173.347 275.496 173.688 276.136C174.04 276.765 174.216 277.48 174.216 278.28ZM172.712 277.976C172.712 277.421 172.59 276.947 172.344 276.552C172.099 276.147 171.763 275.843 171.336 275.64C170.92 275.427 170.456 275.32 169.944 275.32C169.208 275.32 168.579 275.555 168.056 276.024C167.544 276.493 167.251 277.144 167.176 277.976H172.712ZM180.49 274.072C181.152 274.072 181.749 274.216 182.282 274.504C182.816 274.781 183.232 275.203 183.53 275.768C183.84 276.333 183.994 277.021 183.994 277.832V283H182.554V278.04C182.554 277.165 182.336 276.499 181.898 276.04C181.461 275.571 180.864 275.336 180.106 275.336C179.338 275.336 178.725 275.576 178.266 276.056C177.818 276.536 177.594 277.235 177.594 278.152V283H176.138V271.16H177.594V275.48C177.882 275.032 178.277 274.685 178.778 274.44C179.29 274.195 179.861 274.072 180.49 274.072ZM187.125 272.808C186.847 272.808 186.613 272.712 186.421 272.52C186.229 272.328 186.133 272.093 186.133 271.816C186.133 271.539 186.229 271.304 186.421 271.112C186.613 270.92 186.847 270.824 187.125 270.824C187.391 270.824 187.615 270.92 187.797 271.112C187.989 271.304 188.085 271.539 188.085 271.816C188.085 272.093 187.989 272.328 187.797 272.52C187.615 272.712 187.391 272.808 187.125 272.808ZM187.829 274.232V283H186.373V274.232H187.829ZM189.766 278.6C189.766 277.693 189.947 276.904 190.31 276.232C190.673 275.549 191.174 275.021 191.814 274.648C192.465 274.275 193.206 274.088 194.038 274.088C195.115 274.088 196.001 274.349 196.694 274.872C197.398 275.395 197.862 276.12 198.086 277.048H196.518C196.369 276.515 196.075 276.093 195.638 275.784C195.211 275.475 194.678 275.32 194.038 275.32C193.206 275.32 192.534 275.608 192.022 276.184C191.51 276.749 191.254 277.555 191.254 278.6C191.254 279.656 191.51 280.472 192.022 281.048C192.534 281.624 193.206 281.912 194.038 281.912C194.678 281.912 195.211 281.763 195.638 281.464C196.065 281.165 196.358 280.739 196.518 280.184H198.086C197.851 281.08 197.382 281.8 196.678 282.344C195.974 282.877 195.094 283.144 194.038 283.144C193.206 283.144 192.465 282.957 191.814 282.584C191.174 282.211 190.673 281.683 190.31 281C189.947 280.317 189.766 279.517 189.766 278.6ZM201.485 271.16V283H200.029V271.16H201.485ZM211.966 278.28C211.966 278.557 211.95 278.851 211.918 279.16H204.91C204.964 280.024 205.257 280.701 205.79 281.192C206.334 281.672 206.99 281.912 207.758 281.912C208.388 281.912 208.91 281.768 209.326 281.48C209.753 281.181 210.052 280.787 210.222 280.296H211.79C211.556 281.139 211.086 281.827 210.382 282.36C209.678 282.883 208.804 283.144 207.758 283.144C206.926 283.144 206.18 282.957 205.518 282.584C204.868 282.211 204.356 281.683 203.982 281C203.609 280.307 203.422 279.507 203.422 278.6C203.422 277.693 203.604 276.899 203.966 276.216C204.329 275.533 204.836 275.011 205.486 274.648C206.148 274.275 206.905 274.088 207.758 274.088C208.59 274.088 209.326 274.269 209.966 274.632C210.606 274.995 211.097 275.496 211.438 276.136C211.79 276.765 211.966 277.48 211.966 278.28ZM210.462 277.976C210.462 277.421 210.34 276.947 210.094 276.552C209.849 276.147 209.513 275.843 209.086 275.64C208.67 275.427 208.206 275.32 207.694 275.32C206.958 275.32 206.329 275.555 205.806 276.024C205.294 276.493 205.001 277.144 204.926 277.976H210.462ZM216.992 283.144C216.32 283.144 215.718 283.032 215.184 282.808C214.651 282.573 214.23 282.253 213.92 281.848C213.611 281.432 213.44 280.957 213.408 280.424H214.912C214.955 280.861 215.158 281.219 215.52 281.496C215.894 281.773 216.379 281.912 216.976 281.912C217.531 281.912 217.968 281.789 218.288 281.544C218.608 281.299 218.768 280.989 218.768 280.616C218.768 280.232 218.598 279.949 218.256 279.768C217.915 279.576 217.387 279.389 216.672 279.208C216.022 279.037 215.488 278.867 215.072 278.696C214.667 278.515 214.315 278.253 214.016 277.912C213.728 277.56 213.584 277.101 213.584 276.536C213.584 276.088 213.718 275.677 213.984 275.304C214.251 274.931 214.63 274.637 215.12 274.424C215.611 274.2 216.171 274.088 216.8 274.088C217.771 274.088 218.555 274.333 219.152 274.824C219.75 275.315 220.07 275.987 220.112 276.84H218.656C218.624 276.381 218.438 276.013 218.096 275.736C217.766 275.459 217.318 275.32 216.752 275.32C216.23 275.32 215.814 275.432 215.504 275.656C215.195 275.88 215.04 276.173 215.04 276.536C215.04 276.824 215.131 277.064 215.312 277.256C215.504 277.437 215.739 277.587 216.016 277.704C216.304 277.811 216.699 277.933 217.2 278.072C217.83 278.243 218.342 278.413 218.736 278.584C219.131 278.744 219.467 278.989 219.744 279.32C220.032 279.651 220.182 280.083 220.192 280.616C220.192 281.096 220.059 281.528 219.792 281.912C219.526 282.296 219.147 282.6 218.656 282.824C218.176 283.037 217.622 283.144 216.992 283.144Z" fill="black"/>
<path d="M75.214 140.435C74.7365 140.435 74.2701 140.581 73.8738 140.854C73.4775 141.128 73.1692 141.516 72.9873 141.97C72.8055 142.423 72.7579 142.922 72.8506 143.404C72.9433 143.885 73.1721 144.327 73.5088 144.675C73.8455 145.023 74.275 145.26 74.7432 145.357C75.2114 145.453 75.6967 145.403 76.1375 145.215C76.5782 145.026 76.9543 144.707 77.2186 144.299C77.4828 143.89 77.6236 143.41 77.6236 142.92C77.6236 142.262 77.3707 141.63 76.9193 141.164C76.4677 140.697 75.8544 140.435 75.214 140.435ZM75.214 143.918C75.0224 143.918 74.8348 143.859 74.6748 143.749C74.5148 143.638 74.3895 143.481 74.3153 143.296C74.2411 143.111 74.2217 142.907 74.2595 142.71C74.2974 142.514 74.3907 142.334 74.5272 142.193C74.6636 142.052 74.8369 141.956 75.0249 141.918C75.2129 141.879 75.4078 141.899 75.5852 141.975C75.7626 142.051 75.9149 142.18 76.0223 142.346C76.1298 142.512 76.1874 142.708 76.1874 142.908C76.1874 143.177 76.0839 143.435 75.9009 143.624C75.718 143.812 75.4709 143.918 75.214 143.918Z" fill="white" stroke="white" stroke-width="0.25"/>
<path d="M81.5191 140.435C81.0411 140.432 80.5736 140.576 80.1757 140.849C79.7779 141.121 79.4678 141.508 79.2841 141.962C79.1005 142.415 79.0513 142.914 79.1427 143.396C79.234 143.878 79.4619 144.322 79.7981 144.671C80.1344 145.02 80.5638 145.259 81.0323 145.356C81.5009 145.453 81.9868 145.404 82.4282 145.216C82.8697 145.028 83.2464 144.709 83.5112 144.3C83.776 143.891 83.9171 143.411 83.9171 142.92C83.9171 142.264 83.6658 141.634 83.2168 141.168C82.7678 140.702 82.1575 140.438 81.5191 140.435ZM81.5185 143.918C81.3269 143.918 81.1392 143.859 80.9793 143.749C80.8192 143.638 80.6939 143.481 80.6197 143.296C80.5456 143.111 80.5261 142.907 80.564 142.711C80.6018 142.514 80.6952 142.334 80.8316 142.193C80.968 142.052 81.1413 141.957 81.3294 141.918C81.5174 141.879 81.7123 141.899 81.8896 141.975C82.067 142.051 82.2193 142.18 82.3268 142.346C82.4342 142.512 82.4918 142.708 82.4918 142.908C82.4918 143.041 82.4664 143.173 82.4172 143.296C82.368 143.419 82.2959 143.53 82.2053 143.624C82.1147 143.717 82.0074 143.791 81.8896 143.842C81.7718 143.892 81.6457 143.918 81.5185 143.918Z" fill="white" stroke="white" stroke-width="0.25"/>
<path d="M87.8232 140.435C87.3457 140.435 86.8793 140.581 86.4829 140.854C86.0866 141.128 85.7783 141.516 85.5965 141.97C85.4146 142.423 85.3671 142.922 85.4597 143.404C85.5524 143.885 85.7812 144.327 86.1179 144.675C86.4546 145.023 86.8841 145.26 87.3523 145.357C87.8205 145.453 88.3058 145.403 88.7466 145.215C89.1874 145.026 89.5634 144.707 89.8277 144.299C90.0919 143.89 90.2328 143.41 90.2328 142.92C90.2328 142.262 89.9798 141.63 89.5284 141.164C89.0769 140.697 88.4636 140.435 87.8232 140.435ZM87.8232 143.918C87.6316 143.918 87.4439 143.859 87.284 143.749C87.1239 143.638 86.9986 143.481 86.9244 143.296C86.8503 143.111 86.8308 142.907 86.8687 142.71C86.9065 142.514 86.9999 142.334 87.1363 142.193C87.2727 142.052 87.446 141.956 87.634 141.918C87.822 141.879 88.017 141.899 88.1943 141.975C88.3717 142.051 88.524 142.18 88.6315 142.346C88.7389 142.512 88.7965 142.708 88.7965 142.908C88.7965 143.177 88.693 143.435 88.51 143.624C88.3271 143.812 88.08 143.918 87.8232 143.918Z" fill="white" stroke="white" stroke-width="0.25"/>
<path d="M94.1284 140.435C93.65 140.432 93.182 140.577 92.7838 140.849C92.3858 141.122 92.0757 141.51 91.8924 141.964C91.7091 142.418 91.6606 142.918 91.7529 143.401C91.8452 143.883 92.0742 144.327 92.4116 144.675C92.749 145.024 93.1796 145.261 93.6488 145.357C94.1182 145.453 94.6044 145.403 95.0457 145.213C95.4869 145.022 95.8628 144.702 96.1262 144.291C96.3895 143.881 96.5287 143.399 96.5264 142.908C96.5234 142.254 96.2707 141.627 95.8221 141.164C95.3734 140.7 94.7648 140.438 94.1284 140.435ZM94.1278 143.918C93.9362 143.918 93.7486 143.859 93.5886 143.749C93.4286 143.638 93.3033 143.481 93.2291 143.296C93.1549 143.111 93.1355 142.907 93.1733 142.711C93.2112 142.514 93.3045 142.334 93.441 142.193C93.5774 142.052 93.7507 141.957 93.9387 141.918C94.1267 141.879 94.3216 141.899 94.499 141.975C94.6764 142.051 94.8287 142.18 94.9361 142.346C95.0436 142.512 95.1012 142.708 95.1012 142.908C95.1012 143.177 94.9977 143.435 94.8147 143.624C94.6318 143.813 94.3846 143.918 94.1278 143.918Z" fill="white" stroke="white" stroke-width="0.25"/>
<path d="M100.444 145.392C100.921 145.392 101.387 145.246 101.784 144.972C102.18 144.699 102.488 144.311 102.67 143.857C102.852 143.403 102.9 142.905 102.807 142.423C102.714 141.942 102.485 141.499 102.149 141.152C101.812 140.804 101.383 140.566 100.914 140.47C100.446 140.374 99.9609 140.423 99.5201 140.612C99.0793 140.801 98.7033 141.12 98.439 141.528C98.1747 141.937 98.0339 142.417 98.0339 142.907C98.0339 143.565 98.2868 144.197 98.7383 144.663C99.1898 145.13 99.8031 145.392 100.444 145.392ZM100.444 141.909C100.635 141.909 100.823 141.968 100.983 142.078C101.143 142.189 101.268 142.346 101.342 142.531C101.416 142.716 101.436 142.92 101.398 143.116C101.36 143.313 101.267 143.493 101.13 143.634C100.994 143.775 100.821 143.87 100.633 143.909C100.445 143.948 100.25 143.928 100.072 143.852C99.895 143.776 99.7427 143.647 99.6352 143.481C99.5278 143.315 99.4702 143.119 99.4702 142.919C99.4702 142.65 99.5737 142.392 99.7567 142.203C99.9396 142.014 100.187 141.909 100.444 141.909Z" fill="white" stroke="white" stroke-width="0.25"/>
<path d="M94.3913 118.933H93.5237L94.3914 119.058V118.933H94.3913ZM99.1981 129.224H94.0881V120.397H94.3914C95.6649 120.397 96.8871 120.92 97.7888 121.851C98.6907 122.783 99.1981 124.048 99.1981 125.367V129.224Z" fill="white" stroke="white" stroke-width="0.25"/>
<mask id="path-10-outside-1_1_15511" maskUnits="userSpaceOnUse" x="66" y="96" width="72" height="54" fill="black">
<rect fill="white" x="66" y="96" width="72" height="54"/>
<path d="M135.118 117.741C134.238 116.83 133.13 116.189 131.918 115.891C130.706 115.592 129.437 115.648 128.254 116.051L126.936 116.516L110.68 98.0333C110.085 97.4153 109.288 97.0485 108.445 97.0045C107.603 96.9604 106.774 97.2423 106.122 97.795C106.02 97.8139 105.925 97.8609 105.847 97.9312L86.0767 115.824L85.9009 115.438C85.8529 115.333 85.7767 115.244 85.6814 115.181C85.5861 115.119 85.4755 115.086 85.3627 115.086H75.2468C75.0895 115.086 74.9387 115.151 74.8274 115.266C74.7162 115.381 74.6537 115.537 74.6537 115.699V133.944C74.6537 134.106 74.7162 134.262 74.8274 134.377C74.9387 134.492 75.0895 134.556 75.2468 134.556H78.6298V136.826H72.6437C71.1249 136.893 69.6901 137.564 68.6385 138.698C67.587 139.833 67 141.342 67 142.913C67 144.483 67.587 145.993 68.6385 147.127C69.6901 148.261 71.1249 148.932 72.6437 149H102.991C104.51 148.932 105.945 148.261 106.997 147.127C108.048 145.993 108.635 144.483 108.635 142.913C108.635 141.342 108.048 139.833 106.997 138.698C105.945 137.564 104.51 136.893 102.991 136.826H96.4013V134.556H99.4217C100.73 134.556 101.984 134.02 102.909 133.064C103.834 132.109 104.353 130.813 104.353 129.462V125.377C104.353 123.516 103.864 121.689 102.94 120.091C102.016 118.493 100.69 117.183 99.1032 116.301L108.483 105.556L123.75 120.306L131.351 128.248L133.032 132.889C133.061 132.969 133.106 133.042 133.163 133.104L134.262 134.239C134.372 134.354 134.522 134.419 134.679 134.42L134.844 134.341C134.948 134.304 135.04 134.238 135.11 134.149C135.18 134.061 135.225 133.955 135.239 133.842L135.569 131.243L136.887 123.812C137.082 122.727 137.024 121.611 136.716 120.555C136.409 119.499 135.861 118.534 135.118 117.741ZM124.596 119.387C124.428 119.214 124.314 118.993 124.268 118.753C124.221 118.514 124.245 118.265 124.336 118.039C124.426 117.812 124.58 117.619 124.777 117.483C124.973 117.347 125.205 117.275 125.442 117.275C125.679 117.275 125.91 117.347 126.107 117.483C126.304 117.619 126.458 117.812 126.548 118.039C126.639 118.265 126.662 118.514 126.616 118.753C126.57 118.993 126.455 119.214 126.288 119.387C126.062 119.617 125.757 119.745 125.44 119.742C125.123 119.74 124.819 119.608 124.596 119.375V119.387ZM109.812 98.8842C110.226 99.3161 110.457 99.8999 110.453 100.507C110.45 101.115 110.214 101.696 109.796 102.124C109.378 102.551 108.813 102.789 108.224 102.786C107.636 102.783 107.074 102.538 106.66 102.107C106.246 101.673 106.016 101.088 106.02 100.479C106.024 99.8708 106.262 99.2888 106.682 98.8615C107.101 98.4342 107.668 98.1966 108.257 98.2008C108.846 98.2051 109.41 98.4509 109.823 98.8842H109.812ZM75.84 116.301H84.9673L86.2085 119.012L88.9214 124.958V133.342H75.84V116.301ZM107.692 142.907C107.692 144.196 107.197 145.432 106.316 146.345C105.435 147.257 104.239 147.772 102.991 147.775H72.6437C72.0249 147.775 71.4122 147.649 70.8405 147.404C70.2689 147.159 69.7494 146.801 69.3119 146.349C68.8743 145.897 68.5272 145.36 68.2904 144.77C68.0536 144.179 67.9318 143.546 67.9318 142.907C67.9318 142.268 68.0536 141.635 68.2904 141.044C68.5272 140.454 68.8743 139.917 69.3119 139.465C69.7494 139.013 70.2689 138.655 70.8405 138.41C71.4122 138.166 72.0249 138.04 72.6437 138.04H102.991C103.612 138.037 104.227 138.16 104.801 138.404C105.376 138.647 105.898 139.005 106.337 139.457C106.777 139.91 107.126 140.447 107.365 141.039C107.603 141.631 107.725 142.266 107.725 142.907H107.692ZM95.226 136.826H79.849V134.556H95.226V136.826ZM103.178 125.377V129.462C103.178 130.488 102.784 131.472 102.081 132.198C101.379 132.923 100.426 133.331 99.4327 133.331H90.1077V119.841C90.1077 118.902 90.4687 118.001 91.1114 117.337C91.754 116.673 92.6257 116.301 93.5345 116.301H94.4022C94.7023 116.285 95.0029 116.285 95.3029 116.301H95.3688C95.6434 116.301 95.918 116.38 96.1926 116.437C96.4672 116.493 96.7527 116.573 97.0163 116.664C97.2873 116.754 97.5509 116.856 97.8072 116.97C99.4061 117.667 100.769 118.837 101.725 120.333C102.681 121.83 103.187 123.585 103.178 125.377ZM97.9829 115.767L97.7193 115.676L97.214 115.495L96.7637 115.37L96.3024 115.257L95.7203 115.166H95.3578C95.0393 115.166 94.7098 115.166 94.3913 115.166H93.5236C92.9178 115.166 92.3179 115.289 91.7582 115.529C91.1985 115.768 90.69 116.119 90.2616 116.562C89.8332 117.004 89.4934 117.529 89.2616 118.108C89.0298 118.686 88.9104 119.305 88.9104 119.931V122.2L87.9988 120.215L86.5709 117.083L104.837 100.439C104.832 100.901 104.916 101.359 105.083 101.788C105.251 102.216 105.5 102.606 105.814 102.935L107.616 104.671L97.9829 115.767ZM110.68 103.026C110.739 102.951 110.777 102.86 110.79 102.765C111.221 102.241 111.492 101.598 111.57 100.915L124.959 116.119C124.514 116.211 124.105 116.435 123.781 116.764C123.457 117.092 123.233 117.511 123.135 117.968L109.296 104.648L110.68 103.026ZM134.262 132.469L134.108 132.299L133.405 130.347L134.218 131.198L134.405 131.391L134.262 132.469ZM135.766 123.619L134.668 129.916L126.046 120.839C126.379 120.755 126.691 120.596 126.958 120.374C127.226 120.152 127.443 119.872 127.595 119.555C127.747 119.237 127.829 118.888 127.837 118.534C127.844 118.179 127.777 117.828 127.639 117.503L128.605 117.163C129.514 116.84 130.488 116.769 131.432 116.957C132.375 117.146 133.254 117.586 133.981 118.235C134.708 118.884 135.257 119.718 135.575 120.655C135.892 121.592 135.966 122.598 135.788 123.573L135.766 123.619Z"/>
</mask>
<path d="M135.118 117.741C134.238 116.83 133.13 116.189 131.918 115.891C130.706 115.592 129.437 115.648 128.254 116.051L126.936 116.516L110.68 98.0333C110.085 97.4153 109.288 97.0485 108.445 97.0045C107.603 96.9604 106.774 97.2423 106.122 97.795C106.02 97.8139 105.925 97.8609 105.847 97.9312L86.0767 115.824L85.9009 115.438C85.8529 115.333 85.7767 115.244 85.6814 115.181C85.5861 115.119 85.4755 115.086 85.3627 115.086H75.2468C75.0895 115.086 74.9387 115.151 74.8274 115.266C74.7162 115.381 74.6537 115.537 74.6537 115.699V133.944C74.6537 134.106 74.7162 134.262 74.8274 134.377C74.9387 134.492 75.0895 134.556 75.2468 134.556H78.6298V136.826H72.6437C71.1249 136.893 69.6901 137.564 68.6385 138.698C67.587 139.833 67 141.342 67 142.913C67 144.483 67.587 145.993 68.6385 147.127C69.6901 148.261 71.1249 148.932 72.6437 149H102.991C104.51 148.932 105.945 148.261 106.997 147.127C108.048 145.993 108.635 144.483 108.635 142.913C108.635 141.342 108.048 139.833 106.997 138.698C105.945 137.564 104.51 136.893 102.991 136.826H96.4013V134.556H99.4217C100.73 134.556 101.984 134.02 102.909 133.064C103.834 132.109 104.353 130.813 104.353 129.462V125.377C104.353 123.516 103.864 121.689 102.94 120.091C102.016 118.493 100.69 117.183 99.1032 116.301L108.483 105.556L123.75 120.306L131.351 128.248L133.032 132.889C133.061 132.969 133.106 133.042 133.163 133.104L134.262 134.239C134.372 134.354 134.522 134.419 134.679 134.42L134.844 134.341C134.948 134.304 135.04 134.238 135.11 134.149C135.18 134.061 135.225 133.955 135.239 133.842L135.569 131.243L136.887 123.812C137.082 122.727 137.024 121.611 136.716 120.555C136.409 119.499 135.861 118.534 135.118 117.741ZM124.596 119.387C124.428 119.214 124.314 118.993 124.268 118.753C124.221 118.514 124.245 118.265 124.336 118.039C124.426 117.812 124.58 117.619 124.777 117.483C124.973 117.347 125.205 117.275 125.442 117.275C125.679 117.275 125.91 117.347 126.107 117.483C126.304 117.619 126.458 117.812 126.548 118.039C126.639 118.265 126.662 118.514 126.616 118.753C126.57 118.993 126.455 119.214 126.288 119.387C126.062 119.617 125.757 119.745 125.44 119.742C125.123 119.74 124.819 119.608 124.596 119.375V119.387ZM109.812 98.8842C110.226 99.3161 110.457 99.8999 110.453 100.507C110.45 101.115 110.214 101.696 109.796 102.124C109.378 102.551 108.813 102.789 108.224 102.786C107.636 102.783 107.074 102.538 106.66 102.107C106.246 101.673 106.016 101.088 106.02 100.479C106.024 99.8708 106.262 99.2888 106.682 98.8615C107.101 98.4342 107.668 98.1966 108.257 98.2008C108.846 98.2051 109.41 98.4509 109.823 98.8842H109.812ZM75.84 116.301H84.9673L86.2085 119.012L88.9214 124.958V133.342H75.84V116.301ZM107.692 142.907C107.692 144.196 107.197 145.432 106.316 146.345C105.435 147.257 104.239 147.772 102.991 147.775H72.6437C72.0249 147.775 71.4122 147.649 70.8405 147.404C70.2689 147.159 69.7494 146.801 69.3119 146.349C68.8743 145.897 68.5272 145.36 68.2904 144.77C68.0536 144.179 67.9318 143.546 67.9318 142.907C67.9318 142.268 68.0536 141.635 68.2904 141.044C68.5272 140.454 68.8743 139.917 69.3119 139.465C69.7494 139.013 70.2689 138.655 70.8405 138.41C71.4122 138.166 72.0249 138.04 72.6437 138.04H102.991C103.612 138.037 104.227 138.16 104.801 138.404C105.376 138.647 105.898 139.005 106.337 139.457C106.777 139.91 107.126 140.447 107.365 141.039C107.603 141.631 107.725 142.266 107.725 142.907H107.692ZM95.226 136.826H79.849V134.556H95.226V136.826ZM103.178 125.377V129.462C103.178 130.488 102.784 131.472 102.081 132.198C101.379 132.923 100.426 133.331 99.4327 133.331H90.1077V119.841C90.1077 118.902 90.4687 118.001 91.1114 117.337C91.754 116.673 92.6257 116.301 93.5345 116.301H94.4022C94.7023 116.285 95.0029 116.285 95.3029 116.301H95.3688C95.6434 116.301 95.918 116.38 96.1926 116.437C96.4672 116.493 96.7527 116.573 97.0163 116.664C97.2873 116.754 97.5509 116.856 97.8072 116.97C99.4061 117.667 100.769 118.837 101.725 120.333C102.681 121.83 103.187 123.585 103.178 125.377ZM97.9829 115.767L97.7193 115.676L97.214 115.495L96.7637 115.37L96.3024 115.257L95.7203 115.166H95.3578C95.0393 115.166 94.7098 115.166 94.3913 115.166H93.5236C92.9178 115.166 92.3179 115.289 91.7582 115.529C91.1985 115.768 90.69 116.119 90.2616 116.562C89.8332 117.004 89.4934 117.529 89.2616 118.108C89.0298 118.686 88.9104 119.305 88.9104 119.931V122.2L87.9988 120.215L86.5709 117.083L104.837 100.439C104.832 100.901 104.916 101.359 105.083 101.788C105.251 102.216 105.5 102.606 105.814 102.935L107.616 104.671L97.9829 115.767ZM110.68 103.026C110.739 102.951 110.777 102.86 110.79 102.765C111.221 102.241 111.492 101.598 111.57 100.915L124.959 116.119C124.514 116.211 124.105 116.435 123.781 116.764C123.457 117.092 123.233 117.511 123.135 117.968L109.296 104.648L110.68 103.026ZM134.262 132.469L134.108 132.299L133.405 130.347L134.218 131.198L134.405 131.391L134.262 132.469ZM135.766 123.619L134.668 129.916L126.046 120.839C126.379 120.755 126.691 120.596 126.958 120.374C127.226 120.152 127.443 119.872 127.595 119.555C127.747 119.237 127.829 118.888 127.837 118.534C127.844 118.179 127.777 117.828 127.639 117.503L128.605 117.163C129.514 116.84 130.488 116.769 131.432 116.957C132.375 117.146 133.254 117.586 133.981 118.235C134.708 118.884 135.257 119.718 135.575 120.655C135.892 121.592 135.966 122.598 135.788 123.573L135.766 123.619Z" fill="white"/>
<path d="M135.118 117.741C134.238 116.83 133.13 116.189 131.918 115.891C130.706 115.592 129.437 115.648 128.254 116.051L126.936 116.516L110.68 98.0333C110.085 97.4153 109.288 97.0485 108.445 97.0045C107.603 96.9604 106.774 97.2423 106.122 97.795C106.02 97.8139 105.925 97.8609 105.847 97.9312L86.0767 115.824L85.9009 115.438C85.8529 115.333 85.7767 115.244 85.6814 115.181C85.5861 115.119 85.4755 115.086 85.3627 115.086H75.2468C75.0895 115.086 74.9387 115.151 74.8274 115.266C74.7162 115.381 74.6537 115.537 74.6537 115.699V133.944C74.6537 134.106 74.7162 134.262 74.8274 134.377C74.9387 134.492 75.0895 134.556 75.2468 134.556H78.6298V136.826H72.6437C71.1249 136.893 69.6901 137.564 68.6385 138.698C67.587 139.833 67 141.342 67 142.913C67 144.483 67.587 145.993 68.6385 147.127C69.6901 148.261 71.1249 148.932 72.6437 149H102.991C104.51 148.932 105.945 148.261 106.997 147.127C108.048 145.993 108.635 144.483 108.635 142.913C108.635 141.342 108.048 139.833 106.997 138.698C105.945 137.564 104.51 136.893 102.991 136.826H96.4013V134.556H99.4217C100.73 134.556 101.984 134.02 102.909 133.064C103.834 132.109 104.353 130.813 104.353 129.462V125.377C104.353 123.516 103.864 121.689 102.94 120.091C102.016 118.493 100.69 117.183 99.1032 116.301L108.483 105.556L123.75 120.306L131.351 128.248L133.032 132.889C133.061 132.969 133.106 133.042 133.163 133.104L134.262 134.239C134.372 134.354 134.522 134.419 134.679 134.42L134.844 134.341C134.948 134.304 135.04 134.238 135.11 134.149C135.18 134.061 135.225 133.955 135.239 133.842L135.569 131.243L136.887 123.812C137.082 122.727 137.024 121.611 136.716 120.555C136.409 119.499 135.861 118.534 135.118 117.741ZM124.596 119.387C124.428 119.214 124.314 118.993 124.268 118.753C124.221 118.514 124.245 118.265 124.336 118.039C124.426 117.812 124.58 117.619 124.777 117.483C124.973 117.347 125.205 117.275 125.442 117.275C125.679 117.275 125.91 117.347 126.107 117.483C126.304 117.619 126.458 117.812 126.548 118.039C126.639 118.265 126.662 118.514 126.616 118.753C126.57 118.993 126.455 119.214 126.288 119.387C126.062 119.617 125.757 119.745 125.44 119.742C125.123 119.74 124.819 119.608 124.596 119.375V119.387ZM109.812 98.8842C110.226 99.3161 110.457 99.8999 110.453 100.507C110.45 101.115 110.214 101.696 109.796 102.124C109.378 102.551 108.813 102.789 108.224 102.786C107.636 102.783 107.074 102.538 106.66 102.107C106.246 101.673 106.016 101.088 106.02 100.479C106.024 99.8708 106.262 99.2888 106.682 98.8615C107.101 98.4342 107.668 98.1966 108.257 98.2008C108.846 98.2051 109.41 98.4509 109.823 98.8842H109.812ZM75.84 116.301H84.9673L86.2085 119.012L88.9214 124.958V133.342H75.84V116.301ZM107.692 142.907C107.692 144.196 107.197 145.432 106.316 146.345C105.435 147.257 104.239 147.772 102.991 147.775H72.6437C72.0249 147.775 71.4122 147.649 70.8405 147.404C70.2689 147.159 69.7494 146.801 69.3119 146.349C68.8743 145.897 68.5272 145.36 68.2904 144.77C68.0536 144.179 67.9318 143.546 67.9318 142.907C67.9318 142.268 68.0536 141.635 68.2904 141.044C68.5272 140.454 68.8743 139.917 69.3119 139.465C69.7494 139.013 70.2689 138.655 70.8405 138.41C71.4122 138.166 72.0249 138.04 72.6437 138.04H102.991C103.612 138.037 104.227 138.16 104.801 138.404C105.376 138.647 105.898 139.005 106.337 139.457C106.777 139.91 107.126 140.447 107.365 141.039C107.603 141.631 107.725 142.266 107.725 142.907H107.692ZM95.226 136.826H79.849V134.556H95.226V136.826ZM103.178 125.377V129.462C103.178 130.488 102.784 131.472 102.081 132.198C101.379 132.923 100.426 133.331 99.4327 133.331H90.1077V119.841C90.1077 118.902 90.4687 118.001 91.1114 117.337C91.754 116.673 92.6257 116.301 93.5345 116.301H94.4022C94.7023 116.285 95.0029 116.285 95.3029 116.301H95.3688C95.6434 116.301 95.918 116.38 96.1926 116.437C96.4672 116.493 96.7527 116.573 97.0163 116.664C97.2873 116.754 97.5509 116.856 97.8072 116.97C99.4061 117.667 100.769 118.837 101.725 120.333C102.681 121.83 103.187 123.585 103.178 125.377ZM97.9829 115.767L97.7193 115.676L97.214 115.495L96.7637 115.37L96.3024 115.257L95.7203 115.166H95.3578C95.0393 115.166 94.7098 115.166 94.3913 115.166H93.5236C92.9178 115.166 92.3179 115.289 91.7582 115.529C91.1985 115.768 90.69 116.119 90.2616 116.562C89.8332 117.004 89.4934 117.529 89.2616 118.108C89.0298 118.686 88.9104 119.305 88.9104 119.931V122.2L87.9988 120.215L86.5709 117.083L104.837 100.439C104.832 100.901 104.916 101.359 105.083 101.788C105.251 102.216 105.5 102.606 105.814 102.935L107.616 104.671L97.9829 115.767ZM110.68 103.026C110.739 102.951 110.777 102.86 110.79 102.765C111.221 102.241 111.492 101.598 111.57 100.915L124.959 116.119C124.514 116.211 124.105 116.435 123.781 116.764C123.457 117.092 123.233 117.511 123.135 117.968L109.296 104.648L110.68 103.026ZM134.262 132.469L134.108 132.299L133.405 130.347L134.218 131.198L134.405 131.391L134.262 132.469ZM135.766 123.619L134.668 129.916L126.046 120.839C126.379 120.755 126.691 120.596 126.958 120.374C127.226 120.152 127.443 119.872 127.595 119.555C127.747 119.237 127.829 118.888 127.837 118.534C127.844 118.179 127.777 117.828 127.639 117.503L128.605 117.163C129.514 116.84 130.488 116.769 131.432 116.957C132.375 117.146 133.254 117.586 133.981 118.235C134.708 118.884 135.257 119.718 135.575 120.655C135.892 121.592 135.966 122.598 135.788 123.573L135.766 123.619Z" stroke="white" stroke-width="0.5" mask="url(#path-10-outside-1_1_15511)"/>
<path d="M84.1039 129.009V119.671C84.1039 119.477 84.0291 119.289 83.8949 119.151C83.7606 119.012 83.5775 118.933 83.3857 118.933H78.0587C77.8669 118.933 77.6838 119.012 77.5495 119.151C77.4153 119.289 77.3406 119.477 77.3406 119.671V129.009C77.3406 129.203 77.4153 129.39 77.5495 129.529C77.6838 129.668 77.8669 129.747 78.0587 129.747H83.3736C83.4692 129.748 83.564 129.73 83.6526 129.694C83.7416 129.657 83.8224 129.603 83.8903 129.534C83.9582 129.465 84.0119 129.383 84.0485 129.293C84.0851 129.203 84.1039 129.106 84.1039 129.009C84.1039 129.009 84.1039 129.009 84.1039 129.009ZM82.6676 128.271H78.7768V120.409H82.6676V128.271Z" fill="white" stroke="white" stroke-width="0.25"/>
<path d="M80.7279 127.659C80.9197 127.659 81.1027 127.58 81.2371 127.441C81.3713 127.302 81.446 127.115 81.446 126.921V121.86C81.446 121.666 81.3713 121.479 81.2371 121.34C81.1028 121.202 80.9197 121.123 80.7279 121.123C80.5361 121.123 80.353 121.202 80.2187 121.34C80.0845 121.479 80.0098 121.666 80.0098 121.86V126.921C80.0098 127.115 80.0845 127.302 80.2187 127.441C80.353 127.58 80.5361 127.659 80.7279 127.659Z" fill="white" stroke="white" stroke-width="0.25"/>
<path d="M156.04 152C151.048 152 146.986 147.893 146.986 142.844C146.986 137.777 151.048 133.655 156.04 133.655C161.015 133.655 165.062 137.777 165.062 142.844C165.062 147.893 161.015 152 156.04 152ZM156.04 135.637C152.125 135.637 148.94 138.87 148.94 142.844C148.94 146.799 152.125 150.018 156.04 150.018C159.938 150.018 163.108 146.799 163.108 142.844C163.108 138.87 159.938 135.637 156.04 135.637Z" fill="white"/>
<path d="M185.902 152C181.194 152 176.932 149.183 175.043 144.823C174.826 144.322 175.051 143.736 175.544 143.516C176.039 143.3 176.615 143.524 176.831 144.024C178.408 147.666 181.968 150.018 185.902 150.018C189.821 150.018 193.395 147.663 195.009 144.018C195.23 143.517 195.809 143.296 196.3 143.52C196.791 143.744 197.011 144.331 196.79 144.83C194.862 149.186 190.588 152 185.902 152ZM175.937 136.445C175.805 136.445 175.673 136.417 175.544 136.36C175.051 136.14 174.826 135.555 175.043 135.053C176.932 130.694 181.194 127.875 185.902 127.875C190.592 127.875 194.866 130.691 196.79 135.048C197.011 135.547 196.791 136.133 196.299 136.357C195.813 136.581 195.23 136.36 195.009 135.858C193.398 132.213 189.824 129.858 185.902 129.858C181.968 129.858 178.408 132.211 176.831 135.852C176.671 136.223 176.312 136.445 175.937 136.445Z" fill="white"/>
<path d="M197.951 145.415H169.779C169.24 145.415 168.802 144.971 168.802 144.424V135.453C168.802 134.905 169.24 134.462 169.779 134.462H202.024C202.563 134.462 203 134.905 203 135.453V141.971C203 142.321 202.819 142.645 202.522 142.823L198.449 145.276C198.299 145.367 198.127 145.415 197.951 145.415ZM170.756 143.433H197.683L201.048 141.406V136.444H170.756V143.433Z" fill="white"/>
<path d="M169.779 145.415H163.92C163.38 145.415 162.943 144.971 162.943 144.424C162.943 143.876 163.38 143.433 163.92 143.433H169.779C170.318 143.433 170.756 143.876 170.756 144.424C170.756 144.971 170.318 145.415 169.779 145.415Z" fill="white"/>
<path d="M160.874 137.283C160.335 137.283 159.897 136.84 159.897 136.292V110.991C159.897 110.444 160.335 110 160.874 110H178.552C179.035 110 179.444 110.358 179.517 110.842L182.364 129.691C182.446 130.232 182.08 130.738 181.547 130.821C181.015 130.904 180.516 130.533 180.434 129.991L177.714 111.983H161.851V136.292C161.851 136.84 161.414 137.283 160.874 137.283Z" fill="white"/>
<path d="M148.062 142.591H145.977C145.437 142.591 145 142.148 145 141.601V130.177C145 129.731 145.294 129.34 145.717 129.222L160.615 125.055C161.132 124.909 161.672 125.219 161.815 125.747C161.959 126.275 161.654 126.821 161.133 126.966L146.954 130.932V140.61H148.062C148.602 140.61 149.039 141.053 149.039 141.601C149.039 142.148 148.602 142.591 148.062 142.591Z" fill="white"/>
<path d="M185.902 142.76C184.352 142.76 183.137 141.514 183.137 139.921C183.137 138.374 184.377 137.116 185.902 137.116C187.444 137.116 188.698 138.374 188.698 139.921C188.698 141.487 187.444 142.76 185.902 142.76ZM185.902 139.098C185.447 139.098 185.09 139.459 185.09 139.921C185.09 140.409 185.439 140.779 185.902 140.779C186.375 140.779 186.746 140.401 186.746 139.921C186.746 139.467 186.367 139.098 185.902 139.098Z" fill="white"/>
<path d="M156.041 148.002C153.238 148.002 150.958 145.688 150.958 142.844C150.958 140 153.238 137.687 156.041 137.687C158.843 137.687 161.123 140 161.123 142.844C161.123 145.688 158.843 148.002 156.041 148.002ZM156.041 139.669C154.286 139.669 152.912 141.064 152.912 142.844C152.912 144.595 154.316 146.02 156.041 146.02C157.766 146.02 159.169 144.595 159.169 142.844C159.169 141.094 157.766 139.669 156.041 139.669Z" fill="white"/>
<path d="M180.769 127.002H160.874C160.335 127.002 159.897 126.558 159.897 126.011C159.897 125.463 160.335 125.019 160.874 125.019H180.769C181.309 125.019 181.746 125.463 181.746 126.011C181.746 126.558 181.309 127.002 180.769 127.002Z" fill="white"/>
<path d="M166.27 127.002C165.731 127.002 165.293 126.558 165.293 126.011V110.991C165.293 110.444 165.731 110 166.27 110C166.81 110 167.247 110.444 167.247 110.991V126.011C167.247 126.558 166.81 127.002 166.27 127.002Z" fill="white"/>
<path d="M167.991 130.698H165.145C164.605 130.698 164.168 130.254 164.168 129.707C164.168 129.159 164.605 128.715 165.145 128.715H167.991C168.531 128.715 168.968 129.159 168.968 129.707C168.968 130.254 168.531 130.698 167.991 130.698Z" fill="white"/>
<path d="M166.568 134.058H165.145C164.605 134.058 164.168 133.615 164.168 133.067C164.168 132.52 164.605 132.076 165.145 132.076H166.568C167.107 132.076 167.545 132.52 167.545 133.067C167.545 133.615 167.107 134.058 166.568 134.058Z" fill="white"/>
<path d="M125.097 90.2766C124.49 90.2766 124 89.7752 124 89.1537V76.9851C124 76.8086 124.041 76.632 124.117 76.4766C126 72.6912 127.87 68.8987 129.746 65.1132C129.932 64.7389 130.312 64.4988 130.726 64.4988H137.59C139.155 64.4988 140.425 65.7983 140.425 67.4014V84.6761C140.425 85.2976 139.935 85.799 139.328 85.799C138.721 85.799 138.231 85.2976 138.231 84.6761V67.4014C138.231 67.0342 137.941 66.7376 137.583 66.7376H131.388C129.657 70.2405 127.925 73.7505 126.18 77.2535V89.1607C126.194 89.7752 125.704 90.2766 125.097 90.2766Z" fill="white"/>
<path d="M139.335 90.2766H125.097C124.49 90.2766 124 89.7752 124 89.1537C124 88.5322 124.49 88.0308 125.097 88.0308H139.335C139.942 88.0308 140.432 88.5322 140.432 89.1537C140.432 89.7752 139.935 90.2766 139.335 90.2766Z" fill="white"/>
<path d="M171.088 90.2766H139.335C138.728 90.2766 138.238 89.7752 138.238 89.1537C138.238 88.5322 138.728 88.0308 139.335 88.0308H169.991V85.792H139.335C138.728 85.792 138.238 85.2906 138.238 84.6691C138.238 84.0476 138.728 83.5461 139.335 83.5461H171.088C171.695 83.5461 172.184 84.0476 172.184 84.6691V89.1537C172.184 89.7752 171.695 90.2766 171.088 90.2766Z" fill="white"/>
<path d="M162.327 97C159.912 97 157.946 94.9872 157.946 92.5154C157.946 90.0436 159.912 88.0308 162.327 88.0308C164.741 88.0308 166.707 90.0436 166.707 92.5154C166.707 94.9872 164.748 97 162.327 97ZM162.327 90.2766C161.119 90.2766 160.14 91.2795 160.14 92.5154C160.14 93.7513 161.119 94.7542 162.327 94.7542C163.534 94.7542 164.513 93.7513 164.513 92.5154C164.513 91.2795 163.534 90.2766 162.327 90.2766Z" fill="white"/>
<path d="M151.379 97C148.965 97 146.999 94.9872 146.999 92.5154C146.999 90.0436 148.965 88.0308 151.379 88.0308C153.794 88.0308 155.76 90.0436 155.76 92.5154C155.76 94.9872 153.794 97 151.379 97ZM151.379 90.2766C150.172 90.2766 149.192 91.2795 149.192 92.5154C149.192 93.7513 150.172 94.7542 151.379 94.7542C152.586 94.7542 153.566 93.7513 153.566 92.5154C153.566 91.2795 152.586 90.2766 151.379 90.2766Z" fill="white"/>
<path d="M130.574 97C128.16 97 126.194 94.9872 126.194 92.5154C126.194 90.0436 128.16 88.0308 130.574 88.0308C132.988 88.0308 134.954 90.0436 134.954 92.5154C134.954 94.9872 132.988 97 130.574 97ZM130.574 90.2766C129.367 90.2766 128.387 91.2795 128.387 92.5154C128.387 93.7513 129.367 94.7542 130.574 94.7542C131.781 94.7542 132.761 93.7513 132.761 92.5154C132.761 91.2795 131.781 90.2766 130.574 90.2766Z" fill="white"/>
<path d="M139.335 79.0616C139.328 79.0616 139.328 79.0616 139.335 79.0616L125.193 78.9768C124.586 78.9697 124.104 78.4683 124.104 77.8468C124.104 77.2324 124.593 76.731 125.2 76.731H125.207L139.342 76.8157C139.949 76.8157 140.432 77.3242 140.432 77.9457C140.425 78.5672 139.935 79.0616 139.335 79.0616Z" fill="white"/>
<path d="M171.087 85.7919H142.618C142.011 85.7919 141.521 85.2905 141.521 84.669V65.6146C141.521 64.9931 142.011 64.4917 142.618 64.4917H168.611C168.949 64.4917 169.259 64.6471 169.466 64.9154L174.75 71.7448C174.957 72.0132 175.033 72.3663 174.957 72.6982L172.157 84.9303C172.039 85.4388 171.598 85.7919 171.087 85.7919ZM143.715 83.5532H170.218L172.708 72.7124L168.08 66.7305H143.715V83.5532Z" fill="white"/>
<path d="M171.094 85.8061H142.632C142.025 85.8061 141.535 85.3047 141.535 84.6832V65.6217C141.535 65.0002 142.025 64.4988 142.632 64.4988H168.625C168.963 64.4988 169.273 64.6542 169.48 64.9225L174.764 71.7519C174.971 72.0203 175.047 72.3734 174.971 72.7053L172.157 84.9374C172.046 85.4459 171.605 85.8061 171.094 85.8061ZM143.722 83.5602H170.225L172.716 72.7194L168.087 66.7376H143.722V83.5602Z" fill="white"/>
<path d="M142.618 66.7305C142.011 66.7305 141.522 66.2291 141.522 65.6076V62.2458H134.954C134.347 62.2458 133.858 61.7444 133.858 61.1229C133.858 60.5014 134.347 60 134.954 60H142.618C143.225 60 143.715 60.5014 143.715 61.1229V65.6076C143.715 66.2291 143.225 66.7305 142.618 66.7305Z" fill="white"/>
<path d="M162.816 85.792C162.734 85.792 162.651 85.785 162.561 85.7638C161.975 85.6225 161.609 85.0152 161.747 84.4149L166.128 65.3534C166.265 64.7531 166.859 64.3788 167.445 64.52C168.031 64.6613 168.397 65.2687 168.259 65.869L163.879 84.9304C163.761 85.446 163.313 85.792 162.816 85.792Z" fill="white"/>
<path d="M154.663 85.792C154.58 85.792 154.497 85.785 154.408 85.7638C153.821 85.6225 153.456 85.0152 153.594 84.4149L157.974 65.3534C158.112 64.7531 158.705 64.3788 159.292 64.52C159.878 64.6613 160.243 65.2687 160.106 65.869L155.732 84.9304C155.608 85.446 155.159 85.792 154.663 85.792Z" fill="white"/>
<path d="M145.902 85.792C145.819 85.792 145.737 85.785 145.647 85.7638C145.06 85.6225 144.695 85.0152 144.833 84.4149L149.213 65.3534C149.351 64.7531 149.944 64.3788 150.531 64.52C151.117 64.6613 151.483 65.2687 151.345 65.869L146.971 84.9304C146.854 85.446 146.399 85.792 145.902 85.792Z" fill="white"/>
</svg>
