<svg width="24" height="24" viewBox="0 0 24 24" fill="none" xmlns="http://www.w3.org/2000/svg">
<path d="M22.9527 1.0474L22.9527 1.04736C22.7578 0.852544 22.464 0.795968 22.2107 0.904489L22.2107 0.904497L1.25843 9.88409C1.00125 9.99422 0.838968 10.2519 0.850584 10.5314L1.00045 10.5251L0.850584 10.5314C0.862215 10.8109 1.04535 11.0541 1.31071 11.1426L1.31074 11.1427L9.97066 14.0293L12.8573 22.6892L12.8573 22.6892C12.9459 22.9547 13.1891 23.1378 13.4686 23.1494C13.748 23.161 14.0057 22.9988 14.1159 22.7416C14.1159 22.7416 14.1159 22.7416 14.1159 22.7416L23.0955 1.78925L23.0955 1.78923C23.204 1.53599 23.1474 1.24221 22.9527 1.0474ZM10.7165 12.8573L10.7164 12.8573L3.4182 10.4246L21.1933 2.80672L13.5753 20.5818L11.1427 13.2836L11.1427 13.2835C11.0755 13.0823 10.9176 12.9244 10.7165 12.8573Z" fill="#DE0C0C" stroke="#DE0C0C" stroke-width="0.3"/>
<path d="M22.429 2.52411L22.535 2.41804L22.429 2.31198L21.6881 1.5712L21.582 1.46514L21.476 1.5712L9.95216 13.095L9.84609 13.2011L9.95217 13.3072L10.693 14.048L10.7991 14.154L10.9052 14.0479L22.429 2.52411Z" fill="#DE0C0C" stroke="#DE0C0C" stroke-width="0.3"/>
</svg>
