<svg width="26" height="29" viewBox="0 0 26 29" fill="none" xmlns="http://www.w3.org/2000/svg">
<path d="M7.8204 9.1858L7.82041 9.1858C7.93503 9.2961 7.98608 9.43806 7.96641 9.57888C7.94688 9.71879 7.85941 9.84514 7.72156 9.93103M7.8204 9.1858L7.67057 9.84918M7.8204 9.1858C7.59725 8.97108 7.20483 8.94133 6.93563 9.10919L7.8204 9.1858ZM7.72156 9.93103L7.67057 9.84918M7.72156 9.93103C7.72156 9.93102 7.72157 9.93102 7.72157 9.93102L7.67057 9.84918M7.72156 9.93103C4.45809 11.965 2.18734 15.623 2.18734 18.8129C2.18734 23.3964 7.0136 27.1645 13 27.1645C18.9865 27.1645 23.8127 23.3964 23.8127 18.8129C23.8127 15.623 21.5419 11.965 18.2784 9.93097L18.3294 9.84913C21.6146 11.8967 23.9091 15.5827 23.9091 18.8129C23.9091 23.4712 19.0153 27.2609 13 27.2609C6.98473 27.2609 2.09091 23.4712 2.09091 18.8129C2.09091 15.5827 4.38536 11.8967 7.67057 9.84918" fill="#DE0C0C" stroke="#DE0C0C" stroke-width="0.192857"/>
<path d="M6.45452 10.0389H19.5454C20.7774 10.0389 21.8237 9.25923 21.8237 8.25283C21.8237 7.24644 20.7774 6.4668 19.5454 6.4668H6.45452C5.22258 6.4668 4.17628 7.24644 4.17628 8.25283C4.17628 9.25923 5.22258 10.0389 6.45452 10.0389ZM5.46004 8.25283C5.46004 7.86177 5.88189 7.50446 6.45452 7.50446H19.5454C20.1181 7.50446 20.5399 7.86177 20.5399 8.25283C20.5399 8.6439 20.1181 9.00121 19.5454 9.00121H6.45452C5.88189 9.00121 5.46004 8.6439 5.46004 8.25283Z" fill="#DE0C0C" stroke="#DE0C0C" stroke-width="0.192857"/>
<path d="M4.17628 18.3905C4.17628 22.1918 8.15883 25.2453 13 25.2453C17.8411 25.2453 21.8237 22.1918 21.8237 18.3905C21.8237 14.5892 17.8411 11.5357 13 11.5357C8.15883 11.5357 4.17628 14.5892 4.17628 18.3905ZM5.46004 18.3905C5.46004 15.2045 8.81814 12.5733 13 12.5733C17.1818 12.5733 20.5399 15.2045 20.5399 18.3905C20.5399 21.5765 17.1818 24.2077 13 24.2077C8.81814 24.2077 5.46004 21.5765 5.46004 18.3905Z" fill="#DE0C0C" stroke="#DE0C0C" stroke-width="0.192857"/>
<path d="M10.1765 16.7009C10.1765 17.9402 11.4675 18.9093 13.0002 18.9093C13.3303 18.9093 13.6421 18.6985 13.6421 18.3905C13.6421 18.0825 13.3303 17.8716 13.0002 17.8716C12.1268 17.8716 11.4603 17.3248 11.4603 16.7009C11.4603 16.0769 12.1268 15.5301 13.0002 15.5301H15.182C15.5121 15.5301 15.8239 15.3193 15.8239 15.0113C15.8239 14.7033 15.5121 14.4924 15.182 14.4924H13.0002C11.4675 14.4924 10.1765 15.4616 10.1765 16.7009Z" fill="#DE0C0C" stroke="#DE0C0C" stroke-width="0.192857"/>
<path d="M10.8184 22.2885H13.0002C14.5329 22.2885 15.8239 21.3193 15.8239 20.08C15.8239 18.8407 14.5329 17.8716 13.0002 17.8716C12.6701 17.8716 12.3583 18.0824 12.3583 18.3904C12.3583 18.6984 12.6701 18.9092 13.0002 18.9092C13.8736 18.9092 14.5402 19.4561 14.5402 20.08C14.5402 20.704 13.8736 21.2508 13.0002 21.2508H10.8184C10.4883 21.2508 10.1765 21.4616 10.1765 21.7696C10.1765 22.0776 10.4883 22.2885 10.8184 22.2885Z" fill="#DE0C0C" stroke="#DE0C0C" stroke-width="0.192857"/>
<path d="M12.3584 15.0111C12.3584 15.3191 12.6702 15.53 13.0003 15.53C13.3304 15.53 13.6422 15.3191 13.6422 15.0111V13.7439C13.6422 13.4359 13.3304 13.2251 13.0003 13.2251C12.6702 13.2251 12.3584 13.4359 12.3584 13.7439V15.0111Z" fill="#DE0C0C" stroke="#DE0C0C" stroke-width="0.192857"/>
<path d="M12.3584 23.0368C12.3584 23.3448 12.6702 23.5556 13.0003 23.5556C13.3304 23.5556 13.6422 23.3448 13.6422 23.0368V21.7696C13.6422 21.4616 13.3304 21.2507 13.0003 21.2507C12.6702 21.2507 12.3584 21.4616 12.3584 21.7696V23.0368Z" fill="#DE0C0C" stroke="#DE0C0C" stroke-width="0.192857"/>
<path d="M18.5152 3.4703L16.7733 6.78133L16.8586 6.82623L16.7733 6.78133C16.7007 6.9192 16.7075 7.06897 16.7763 7.19558C16.8443 7.32051 16.9696 7.41845 17.129 7.46873L18.5152 3.4703ZM18.5152 3.4703L15.4096 4.10912C15.1776 4.15689 14.9252 4.09745 14.7633 3.94554L14.8293 3.87523L14.7633 3.94554L13.0076 2.29751L11.3112 3.9396C11.3112 3.9396 11.3112 3.9396 11.3112 3.9396C11.1521 4.09371 10.9006 4.15616 10.6675 4.11092M18.5152 3.4703L5.97974 2.41166C5.81601 2.55688 5.76386 2.77165 5.86254 2.96269L8.04435 7.18669C8.04436 7.18669 8.04436 7.1867 8.04436 7.1867C8.15087 7.39293 8.3955 7.50451 8.63662 7.50451C8.71329 7.50451 8.7915 7.49342 8.8674 7.46996L8.86745 7.46994C9.02718 7.42047 9.1532 7.32321 9.22209 7.19874C9.2919 7.0726 9.29993 6.92286 9.22848 6.78451L9.22848 6.78451L7.53415 3.50426L10.6675 4.11092M10.6675 4.11092L10.6859 4.01626M10.6675 4.11092L10.6676 4.11093L10.6859 4.01626M10.6859 4.01626C10.8929 4.05644 11.1109 3.99931 11.2442 3.87032L10.6859 4.01626ZM6.60526 2.25712L6.60527 2.25712L10.5801 3.02664L12.5071 1.16124L12.5071 1.16124C12.6303 1.04205 12.8104 0.976665 12.9955 0.975595L12.996 0.975591L12.996 0.975593H12.996H12.9961H12.9961H12.9961H12.9961H12.9961H12.9961H12.9961H12.9961H12.9961H12.9961H12.9961H12.9961H12.9962H12.9962H12.9962H12.9962H12.9962H12.9962H12.9962H12.9962H12.9962H12.9962H12.9962H12.9962H12.9963H12.9963H12.9963H12.9963H12.9963H12.9963H12.9963H12.9963H12.9963H12.9963H12.9963H12.9963H12.9964H12.9964H12.9964H12.9964H12.9964H12.9964H12.9964H12.9964H12.9964H12.9964H12.9964H12.9964H12.9965H12.9965H12.9965H12.9965H12.9965H12.9965H12.9965H12.9965H12.9965H12.9965H12.9965H12.9965H12.9966H12.9966H12.9966H12.9966H12.9966H12.9966H12.9966H12.9966H12.9966H12.9966H12.9966H12.9966H12.9967H12.9967H12.9967H12.9967H12.9967H12.9967H12.9967H12.9967H12.9967H12.9967H12.9967H12.9967H12.9968H12.9968H12.9968H12.9968H12.9968H12.9968H12.9968H12.9968H12.9968H12.9968H12.9968H12.9968H12.9969H12.9969H12.9969H12.9969H12.9969H12.9969H12.9969H12.9969H12.9969H12.9969H12.9969H12.9969H12.997H12.997H12.997H12.997H12.997H12.997H12.997H12.997H12.997H12.997H12.997H12.997H12.9971H12.9971H12.9971H12.9971H12.9971H12.9971H12.9971H12.9971H12.9971H12.9971H12.9971H12.9971H12.9972H12.9972H12.9972H12.9972H12.9972H12.9972H12.9972H12.9972H12.9972H12.9972H12.9972H12.9972H12.9973H12.9973H12.9973H12.9973H12.9973H12.9973H12.9973H12.9973H12.9973H12.9973H12.9973H12.9973H12.9973H12.9974H12.9974H12.9974H12.9974H12.9974H12.9974H12.9974H12.9974H12.9974H12.9974H12.9974H12.9974H12.9975H12.9975H12.9975H12.9975H12.9975H12.9975H12.9975H12.9975H12.9975H12.9975H12.9975H12.9975H12.9976H12.9976H12.9976H12.9976H12.9976H12.9976H12.9976H12.9976H12.9976H12.9976H12.9976H12.9976H12.9977H12.9977H12.9977H12.9977H12.9977H12.9977H12.9977H12.9977H12.9977H12.9977H12.9977H12.9977H12.9977H12.9978H12.9978H12.9978H12.9978H12.9978H12.9978H12.9978H12.9978H12.9978H12.9978H12.9978H12.9978H12.9979H12.9979H12.9979H12.9979H12.9979H12.9979H12.9979H12.9979H12.9979H12.9979H12.9979H12.9979H12.998H12.998H12.998H12.998H12.998H12.998H12.998H12.998H12.998H12.998H12.998H12.998H12.998H12.9981H12.9981H12.9981H12.9981H12.9981H12.9981H12.9981H12.9981H12.9981H12.9981H12.9981H12.9981H12.9982H12.9982H12.9982H12.9982H12.9982H12.9982H12.9982H12.9982H12.9982H12.9982H12.9982H12.9982H12.9983H12.9983H12.9983H12.9983H12.9983H12.9983H12.9983H12.9983H12.9983H12.9983H12.9983H12.9983H12.9983H12.9984H12.9984H12.9984H12.9984H12.9984H12.9984H12.9984H12.9984H12.9984H12.9984H12.9984H12.9984H12.9985H12.9985H12.9985H12.9985H12.9985H12.9985H12.9985H12.9985H12.9985H12.9985H12.9985H12.9985H12.9985H12.9986H12.9986H12.9986H12.9986H12.9986H12.9986H12.9986H12.9986H12.9986H12.9986H12.9986H12.9986H12.9987H12.9987H12.9987H12.9987H12.9987H12.9987H12.9987H12.9987H12.9987H12.9987H12.9987H12.9987H12.9988H12.9988H12.9988H12.9988H12.9988H12.9988H12.9988H12.9988H12.9988H12.9988H12.9988H12.9988H12.9988H12.9989H12.9989H12.9989H12.9989H12.9989H12.9989H12.9989H12.9989H12.9989H12.9989H12.9989H12.9989H12.999H12.999H12.999H12.999H12.999H12.999H12.999H12.999H12.999H12.999H12.999H12.999H12.999H12.9991H12.9991H12.9991H12.9991H12.9991H12.9991H12.9991H12.9991H12.9991H12.9991H12.9991H12.9991H12.9992H12.9992H12.9992H12.9992H12.9992H12.9992H12.9992H12.9992H12.9992H12.9992H12.9992H12.9992H12.9992H12.9993H12.9993H12.9993H12.9993H12.9993H12.9993H12.9993H12.9993H12.9993H12.9993H12.9993H12.9993H12.9994H12.9994H12.9994H12.9994H12.9994H12.9994H12.9994H12.9994H12.9994H12.9994H12.9994H12.9994H12.9994H12.9995H12.9995H12.9995H12.9995H12.9995H12.9995H12.9995H12.9995H12.9995H12.9995H12.9995H12.9995H12.9996H12.9996H12.9996H12.9996H12.9996H12.9996H12.9996H12.9996H12.9996H12.9996H12.9996H12.9996H12.9996H12.9997H12.9997H12.9997H12.9997H12.9997H12.9997H12.9997H12.9997H12.9997H12.9997H12.9997H12.9997H12.9998H12.9998H12.9998H12.9998H12.9998H12.9998H12.9998H12.9998H12.9998H12.9998H12.9998H12.9998H12.9998H12.9999H12.9999H12.9999H12.9999H12.9999H12.9999H12.9999H12.9999H12.9999H12.9999H12.9999H12.9999H13H13H13H13H13H13H13H13H13H13H13H13H13H13.0001H13.0001H13.0001H13.0001H13.0001H13.0001H13.0001H13.0001H13.0001H13.0001H13.0001H13.0001H13.0002H13.0002H13.0002H13.0002H13.0002H13.0002C13.1836 0.975593 13.3627 1.03876 13.4869 1.1553L13.4869 1.15531L15.4778 3.02411L19.4544 2.20612L19.4544 2.20612C19.6799 2.1598 19.9245 2.21449 20.0869 2.35731L20.087 2.35733C20.253 2.50343 20.3056 2.72069 20.2043 2.91308L17.9543 7.18988L17.9543 7.18988C17.8832 7.32514 17.7519 7.41882 17.6054 7.4666C17.4584 7.51457 17.2884 7.51907 17.129 7.46873L6.60526 2.25712ZM6.60526 2.25712C6.38141 2.21379 6.13994 2.26953 5.97975 2.41165L6.60526 2.25712Z" fill="#DE0C0C" stroke="#DE0C0C" stroke-width="0.192857"/>
</svg>
