<svg width="258" height="313" viewBox="0 0 258 313" fill="none" xmlns="http://www.w3.org/2000/svg">
<path d="M109.631 61.5757C123.111 51.7376 137.807 33.7182 153.001 31.0984C168.228 28.7947 183.81 42.0579 196.104 57.418C208.365 72.4619 217.37 89.9191 218.701 107.18C220.031 124.44 214.004 141.486 204.375 154.602C194.922 167.868 182.009 177.037 168.836 188.289C155.522 199.709 141.947 213.21 125.301 217.186C108.512 221.328 88.7947 215.777 75.2802 203.986C61.4486 192.213 53.7869 173.884 48.3019 156.543C42.8169 139.203 39.8256 122.833 43.9984 109.392C48.1712 95.952 59.8251 85.4233 71.7679 79.1724C83.7437 73.2377 96.0085 71.5809 109.631 61.5757Z" fill="#F66464"/>
<rect y="169" width="258" height="144" rx="28" fill="#EFEDED"/>
<path d="M51.6411 194.416C51.6411 193.328 51.8865 192.352 52.3771 191.488C52.8678 190.613 53.5345 189.931 54.3771 189.44C55.2305 188.949 56.1745 188.704 57.2091 188.704C58.4251 188.704 59.4865 188.997 60.3931 189.584C61.2998 190.171 61.9611 191.003 62.3771 192.08H60.6331C60.3238 191.408 59.8758 190.891 59.2891 190.528C58.7131 190.165 58.0198 189.984 57.2091 189.984C56.4305 189.984 55.7318 190.165 55.1131 190.528C54.4945 190.891 54.0091 191.408 53.6571 192.08C53.3051 192.741 53.1291 193.52 53.1291 194.416C53.1291 195.301 53.3051 196.08 53.6571 196.752C54.0091 197.413 54.4945 197.925 55.1131 198.288C55.7318 198.651 56.4305 198.832 57.2091 198.832C58.0198 198.832 58.7131 198.656 59.2891 198.304C59.8758 197.941 60.3238 197.424 60.6331 196.752H62.3771C61.9611 197.819 61.2998 198.645 60.3931 199.232C59.4865 199.808 58.4251 200.096 57.2091 200.096C56.1745 200.096 55.2305 199.856 54.3771 199.376C53.5345 198.885 52.8678 198.208 52.3771 197.344C51.8865 196.48 51.6411 195.504 51.6411 194.416ZM72.3205 191.232V200H70.8645V198.704C70.5872 199.152 70.1978 199.504 69.6965 199.76C69.2058 200.005 68.6618 200.128 68.0645 200.128C67.3818 200.128 66.7685 199.989 66.2245 199.712C65.6805 199.424 65.2485 198.997 64.9285 198.432C64.6192 197.867 64.4645 197.179 64.4645 196.368V191.232H65.9045V196.176C65.9045 197.04 66.1232 197.707 66.5605 198.176C66.9978 198.635 67.5952 198.864 68.3525 198.864C69.1312 198.864 69.7445 198.624 70.1925 198.144C70.6405 197.664 70.8645 196.965 70.8645 196.048V191.232H72.3205ZM76.2349 192.656C76.4909 192.155 76.8535 191.765 77.3229 191.488C77.8029 191.211 78.3842 191.072 79.0669 191.072V192.576H78.6829C77.0509 192.576 76.2349 193.461 76.2349 195.232V200H74.7789V191.232H76.2349V192.656ZM82.2036 192.656C82.4596 192.155 82.8223 191.765 83.2916 191.488C83.7716 191.211 84.353 191.072 85.0356 191.072V192.576H84.6516C83.0196 192.576 82.2036 193.461 82.2036 195.232V200H80.7476V191.232H82.2036V192.656ZM94.7164 195.28C94.7164 195.557 94.7004 195.851 94.6684 196.16H87.6604C87.7137 197.024 88.007 197.701 88.5404 198.192C89.0844 198.672 89.7404 198.912 90.5084 198.912C91.1377 198.912 91.6604 198.768 92.0764 198.48C92.503 198.181 92.8017 197.787 92.9724 197.296H94.5404C94.3057 198.139 93.8364 198.827 93.1324 199.36C92.4284 199.883 91.5537 200.144 90.5084 200.144C89.6764 200.144 88.9297 199.957 88.2684 199.584C87.6177 199.211 87.1057 198.683 86.7324 198C86.359 197.307 86.1724 196.507 86.1724 195.6C86.1724 194.693 86.3537 193.899 86.7164 193.216C87.079 192.533 87.5857 192.011 88.2364 191.648C88.8977 191.275 89.655 191.088 90.5084 191.088C91.3404 191.088 92.0764 191.269 92.7164 191.632C93.3564 191.995 93.847 192.496 94.1884 193.136C94.5404 193.765 94.7164 194.48 94.7164 195.28ZM93.2124 194.976C93.2124 194.421 93.0897 193.947 92.8444 193.552C92.599 193.147 92.263 192.843 91.8364 192.64C91.4204 192.427 90.9564 192.32 90.4444 192.32C89.7084 192.32 89.079 192.555 88.5564 193.024C88.0444 193.493 87.751 194.144 87.6764 194.976H93.2124ZM100.91 191.072C101.977 191.072 102.841 191.397 103.502 192.048C104.164 192.688 104.494 193.616 104.494 194.832V200H103.054V195.04C103.054 194.165 102.836 193.499 102.398 193.04C101.961 192.571 101.364 192.336 100.606 192.336C99.8383 192.336 99.2249 192.576 98.7663 193.056C98.3183 193.536 98.0943 194.235 98.0943 195.152V200H96.6383V191.232H98.0943V192.48C98.3823 192.032 98.7716 191.685 99.2623 191.44C99.7636 191.195 100.313 191.072 100.91 191.072ZM108.649 192.432V197.6C108.649 198.027 108.739 198.331 108.921 198.512C109.102 198.683 109.417 198.768 109.865 198.768H110.937V200H109.625C108.814 200 108.206 199.813 107.801 199.44C107.395 199.067 107.193 198.453 107.193 197.6V192.432H106.057V191.232H107.193V189.024H108.649V191.232H110.937V192.432H108.649ZM114.157 188.16V200H112.701V188.16H114.157ZM124.19 191.232L118.91 204.128H117.406L119.134 199.904L115.598 191.232H117.214L119.966 198.336L122.686 191.232H124.19ZM137.472 191.232L132.192 204.128H130.688L132.416 199.904L128.88 191.232H130.496L133.248 198.336L135.968 191.232H137.472ZM142.759 200.144C141.938 200.144 141.191 199.957 140.519 199.584C139.858 199.211 139.335 198.683 138.951 198C138.578 197.307 138.391 196.507 138.391 195.6C138.391 194.704 138.583 193.915 138.967 193.232C139.362 192.539 139.895 192.011 140.567 191.648C141.239 191.275 141.991 191.088 142.823 191.088C143.655 191.088 144.407 191.275 145.079 191.648C145.751 192.011 146.279 192.533 146.663 193.216C147.058 193.899 147.255 194.693 147.255 195.6C147.255 196.507 147.052 197.307 146.647 198C146.252 198.683 145.714 199.211 145.031 199.584C144.348 199.957 143.591 200.144 142.759 200.144ZM142.759 198.864C143.282 198.864 143.772 198.741 144.231 198.496C144.69 198.251 145.058 197.883 145.335 197.392C145.623 196.901 145.767 196.304 145.767 195.6C145.767 194.896 145.628 194.299 145.351 193.808C145.074 193.317 144.711 192.955 144.263 192.72C143.815 192.475 143.33 192.352 142.807 192.352C142.274 192.352 141.783 192.475 141.335 192.72C140.898 192.955 140.546 193.317 140.279 193.808C140.012 194.299 139.879 194.896 139.879 195.6C139.879 196.315 140.007 196.917 140.263 197.408C140.53 197.899 140.882 198.267 141.319 198.512C141.756 198.747 142.236 198.864 142.759 198.864ZM156.946 191.232V200H155.49V198.704C155.212 199.152 154.823 199.504 154.322 199.76C153.831 200.005 153.287 200.128 152.69 200.128C152.007 200.128 151.394 199.989 150.85 199.712C150.306 199.424 149.874 198.997 149.554 198.432C149.244 197.867 149.09 197.179 149.09 196.368V191.232H150.53V196.176C150.53 197.04 150.748 197.707 151.186 198.176C151.623 198.635 152.22 198.864 152.978 198.864C153.756 198.864 154.37 198.624 154.818 198.144C155.266 197.664 155.49 196.965 155.49 196.048V191.232H156.946ZM163.126 195.584C163.126 194.688 163.307 193.904 163.67 193.232C164.032 192.549 164.528 192.021 165.158 191.648C165.798 191.275 166.512 191.088 167.302 191.088C167.984 191.088 168.619 191.248 169.206 191.568C169.792 191.877 170.24 192.288 170.55 192.8V188.16H172.022V200H170.55V198.352C170.262 198.875 169.835 199.307 169.27 199.648C168.704 199.979 168.043 200.144 167.286 200.144C166.507 200.144 165.798 199.952 165.158 199.568C164.528 199.184 164.032 198.645 163.67 197.952C163.307 197.259 163.126 196.469 163.126 195.584ZM170.55 195.6C170.55 194.939 170.416 194.363 170.15 193.872C169.883 193.381 169.52 193.008 169.062 192.752C168.614 192.485 168.118 192.352 167.574 192.352C167.03 192.352 166.534 192.48 166.086 192.736C165.638 192.992 165.28 193.365 165.014 193.856C164.747 194.347 164.614 194.923 164.614 195.584C164.614 196.256 164.747 196.843 165.014 197.344C165.28 197.835 165.638 198.213 166.086 198.48C166.534 198.736 167.03 198.864 167.574 198.864C168.118 198.864 168.614 198.736 169.062 198.48C169.52 198.213 169.883 197.835 170.15 197.344C170.416 196.843 170.55 196.261 170.55 195.6ZM178.306 200.144C177.485 200.144 176.738 199.957 176.066 199.584C175.405 199.211 174.882 198.683 174.498 198C174.125 197.307 173.938 196.507 173.938 195.6C173.938 194.704 174.13 193.915 174.514 193.232C174.909 192.539 175.442 192.011 176.114 191.648C176.786 191.275 177.538 191.088 178.37 191.088C179.202 191.088 179.954 191.275 180.626 191.648C181.298 192.011 181.826 192.533 182.21 193.216C182.605 193.899 182.802 194.693 182.802 195.6C182.802 196.507 182.599 197.307 182.194 198C181.799 198.683 181.261 199.211 180.578 199.584C179.895 199.957 179.138 200.144 178.306 200.144ZM178.306 198.864C178.829 198.864 179.319 198.741 179.778 198.496C180.237 198.251 180.605 197.883 180.882 197.392C181.17 196.901 181.314 196.304 181.314 195.6C181.314 194.896 181.175 194.299 180.898 193.808C180.621 193.317 180.258 192.955 179.81 192.72C179.362 192.475 178.877 192.352 178.354 192.352C177.821 192.352 177.33 192.475 176.882 192.72C176.445 192.955 176.093 193.317 175.826 193.808C175.559 194.299 175.426 194.896 175.426 195.6C175.426 196.315 175.554 196.917 175.81 197.408C176.077 197.899 176.429 198.267 176.866 198.512C177.303 198.747 177.783 198.864 178.306 198.864ZM188.988 191.072C190.055 191.072 190.919 191.397 191.58 192.048C192.242 192.688 192.572 193.616 192.572 194.832V200H191.132V195.04C191.132 194.165 190.914 193.499 190.476 193.04C190.039 192.571 189.442 192.336 188.684 192.336C187.916 192.336 187.303 192.576 186.844 193.056C186.396 193.536 186.172 194.235 186.172 195.152V200H184.716V191.232H186.172V192.48C186.46 192.032 186.85 191.685 187.34 191.44C187.842 191.195 188.391 191.072 188.988 191.072ZM195.175 188.848H196.791L195.255 192.48H194.231L195.175 188.848ZM200.227 192.432V197.6C200.227 198.027 200.317 198.331 200.499 198.512C200.68 198.683 200.995 198.768 201.443 198.768H202.515V200H201.203C200.392 200 199.784 199.813 199.379 199.44C198.973 199.067 198.771 198.453 198.771 197.6V192.432H197.635V191.232H198.771V189.024H200.227V191.232H202.515V192.432H200.227ZM69.5684 215.072C70.2297 215.072 70.827 215.216 71.3604 215.504C71.8937 215.781 72.3097 216.203 72.6084 216.768C72.9177 217.333 73.0724 218.021 73.0724 218.832V224H71.6324V219.04C71.6324 218.165 71.4137 217.499 70.9764 217.04C70.539 216.571 69.9417 216.336 69.1844 216.336C68.4164 216.336 67.803 216.576 67.3444 217.056C66.8964 217.536 66.6724 218.235 66.6724 219.152V224H65.2164V212.16H66.6724V216.48C66.9604 216.032 67.355 215.685 67.8564 215.44C68.3684 215.195 68.939 215.072 69.5684 215.072ZM74.9068 219.584C74.9068 218.688 75.0881 217.904 75.4508 217.232C75.8134 216.549 76.3094 216.021 76.9388 215.648C77.5788 215.275 78.2881 215.088 79.0668 215.088C79.8348 215.088 80.5014 215.253 81.0668 215.584C81.6321 215.915 82.0534 216.331 82.3308 216.832V215.232H83.8028V224H82.3308V222.368C82.0428 222.88 81.6108 223.307 81.0348 223.648C80.4694 223.979 79.8081 224.144 79.0508 224.144C78.2721 224.144 77.5681 223.952 76.9388 223.568C76.3094 223.184 75.8134 222.645 75.4508 221.952C75.0881 221.259 74.9068 220.469 74.9068 219.584ZM82.3308 219.6C82.3308 218.939 82.1974 218.363 81.9308 217.872C81.6641 217.381 81.3014 217.008 80.8428 216.752C80.3948 216.485 79.8988 216.352 79.3548 216.352C78.8108 216.352 78.3148 216.48 77.8668 216.736C77.4188 216.992 77.0614 217.365 76.7948 217.856C76.5281 218.347 76.3948 218.923 76.3948 219.584C76.3948 220.256 76.5281 220.843 76.7948 221.344C77.0614 221.835 77.4188 222.213 77.8668 222.48C78.3148 222.736 78.8108 222.864 79.3548 222.864C79.8988 222.864 80.3948 222.736 80.8428 222.48C81.3014 222.213 81.6641 221.835 81.9308 221.344C82.1974 220.843 82.3308 220.261 82.3308 219.6ZM89.5273 222.656L92.2473 215.232H93.7993L90.3593 224H88.6633L85.2233 215.232H86.7913L89.5273 222.656ZM103.232 219.28C103.232 219.557 103.216 219.851 103.184 220.16H96.176C96.2293 221.024 96.5227 221.701 97.056 222.192C97.6 222.672 98.256 222.912 99.024 222.912C99.6533 222.912 100.176 222.768 100.592 222.48C101.019 222.181 101.317 221.787 101.488 221.296H103.056C102.821 222.139 102.352 222.827 101.648 223.36C100.944 223.883 100.069 224.144 99.024 224.144C98.192 224.144 97.4453 223.957 96.784 223.584C96.1333 223.211 95.6213 222.683 95.248 222C94.8747 221.307 94.688 220.507 94.688 219.6C94.688 218.693 94.8693 217.899 95.232 217.216C95.5947 216.533 96.1013 216.011 96.752 215.648C97.4133 215.275 98.1707 215.088 99.024 215.088C99.856 215.088 100.592 215.269 101.232 215.632C101.872 215.995 102.363 216.496 102.704 217.136C103.056 217.765 103.232 218.48 103.232 219.28ZM101.728 218.976C101.728 218.421 101.605 217.947 101.36 217.552C101.115 217.147 100.779 216.843 100.352 216.64C99.936 216.427 99.472 216.32 98.96 216.32C98.224 216.32 97.5947 216.555 97.072 217.024C96.56 217.493 96.2667 218.144 96.192 218.976H101.728ZM110.876 216.848C111.164 216.347 111.59 215.931 112.156 215.6C112.732 215.259 113.398 215.088 114.156 215.088C114.934 215.088 115.638 215.275 116.267 215.648C116.907 216.021 117.409 216.549 117.772 217.232C118.134 217.904 118.316 218.688 118.316 219.584C118.316 220.469 118.134 221.259 117.772 221.952C117.409 222.645 116.907 223.184 116.267 223.568C115.638 223.952 114.934 224.144 114.156 224.144C113.409 224.144 112.748 223.979 112.172 223.648C111.606 223.307 111.174 222.885 110.876 222.384V228.16H109.42V215.232H110.876V216.848ZM116.828 219.584C116.828 218.923 116.694 218.347 116.428 217.856C116.161 217.365 115.798 216.992 115.34 216.736C114.892 216.48 114.396 216.352 113.852 216.352C113.318 216.352 112.822 216.485 112.364 216.752C111.916 217.008 111.553 217.387 111.276 217.888C111.009 218.379 110.876 218.949 110.876 219.6C110.876 220.261 111.009 220.843 111.276 221.344C111.553 221.835 111.916 222.213 112.364 222.48C112.822 222.736 113.318 222.864 113.852 222.864C114.396 222.864 114.892 222.736 115.34 222.48C115.798 222.213 116.161 221.835 116.428 221.344C116.694 220.843 116.828 220.256 116.828 219.584ZM121.688 212.16V224H120.232V212.16H121.688ZM123.626 219.584C123.626 218.688 123.807 217.904 124.17 217.232C124.532 216.549 125.028 216.021 125.658 215.648C126.298 215.275 127.007 215.088 127.786 215.088C128.554 215.088 129.22 215.253 129.786 215.584C130.351 215.915 130.772 216.331 131.05 216.832V215.232H132.522V224H131.05V222.368C130.762 222.88 130.33 223.307 129.754 223.648C129.188 223.979 128.527 224.144 127.77 224.144C126.991 224.144 126.287 223.952 125.658 223.568C125.028 223.184 124.532 222.645 124.17 221.952C123.807 221.259 123.626 220.469 123.626 219.584ZM131.05 219.6C131.05 218.939 130.916 218.363 130.65 217.872C130.383 217.381 130.02 217.008 129.562 216.752C129.114 216.485 128.618 216.352 128.074 216.352C127.53 216.352 127.034 216.48 126.586 216.736C126.138 216.992 125.78 217.365 125.514 217.856C125.247 218.347 125.114 218.923 125.114 219.584C125.114 220.256 125.247 220.843 125.514 221.344C125.78 221.835 126.138 222.213 126.586 222.48C127.034 222.736 127.53 222.864 128.074 222.864C128.618 222.864 129.114 222.736 129.562 222.48C130.02 222.213 130.383 221.835 130.65 221.344C130.916 220.843 131.05 220.261 131.05 219.6ZM139.254 215.072C140.321 215.072 141.185 215.397 141.846 216.048C142.507 216.688 142.838 217.616 142.838 218.832V224H141.398V219.04C141.398 218.165 141.179 217.499 140.742 217.04C140.305 216.571 139.707 216.336 138.95 216.336C138.182 216.336 137.569 216.576 137.11 217.056C136.662 217.536 136.438 218.235 136.438 219.152V224H134.982V215.232H136.438V216.48C136.726 216.032 137.115 215.685 137.606 215.44C138.107 215.195 138.657 215.072 139.254 215.072ZM157.258 215.232V224H155.802V222.704C155.525 223.152 155.135 223.504 154.634 223.76C154.143 224.005 153.599 224.128 153.002 224.128C152.319 224.128 151.706 223.989 151.162 223.712C150.618 223.424 150.186 222.997 149.866 222.432C149.557 221.867 149.402 221.179 149.402 220.368V215.232H150.842V220.176C150.842 221.04 151.061 221.707 151.498 222.176C151.935 222.635 152.533 222.864 153.29 222.864C154.069 222.864 154.682 222.624 155.13 222.144C155.578 221.664 155.802 220.965 155.802 220.048V215.232H157.258ZM163.988 215.072C165.055 215.072 165.919 215.397 166.58 216.048C167.242 216.688 167.572 217.616 167.572 218.832V224H166.132V219.04C166.132 218.165 165.914 217.499 165.476 217.04C165.039 216.571 164.442 216.336 163.684 216.336C162.916 216.336 162.303 216.576 161.844 217.056C161.396 217.536 161.172 218.235 161.172 219.152V224H159.716V215.232H161.172V216.48C161.46 216.032 161.85 215.685 162.34 215.44C162.842 215.195 163.391 215.072 163.988 215.072ZM170.703 213.808C170.425 213.808 170.191 213.712 169.999 213.52C169.807 213.328 169.711 213.093 169.711 212.816C169.711 212.539 169.807 212.304 169.999 212.112C170.191 211.92 170.425 211.824 170.703 211.824C170.969 211.824 171.193 211.92 171.375 212.112C171.567 212.304 171.663 212.539 171.663 212.816C171.663 213.093 171.567 213.328 171.375 213.52C171.193 213.712 170.969 213.808 170.703 213.808ZM171.407 215.232V224H169.951V215.232H171.407ZM175.664 216.432V221.6C175.664 222.027 175.755 222.331 175.936 222.512C176.118 222.683 176.432 222.768 176.88 222.768H177.952V224H176.64C175.83 224 175.222 223.813 174.816 223.44C174.411 223.067 174.208 222.453 174.208 221.6V216.432H173.072V215.232H174.208V213.024H175.664V215.232H177.952V216.432H175.664ZM182.82 224.144C182.148 224.144 181.546 224.032 181.012 223.808C180.479 223.573 180.058 223.253 179.748 222.848C179.439 222.432 179.268 221.957 179.236 221.424H180.74C180.783 221.861 180.986 222.219 181.348 222.496C181.722 222.773 182.207 222.912 182.804 222.912C183.359 222.912 183.796 222.789 184.116 222.544C184.436 222.299 184.596 221.989 184.596 221.616C184.596 221.232 184.426 220.949 184.084 220.768C183.743 220.576 183.215 220.389 182.5 220.208C181.85 220.037 181.316 219.867 180.9 219.696C180.495 219.515 180.143 219.253 179.844 218.912C179.556 218.56 179.412 218.101 179.412 217.536C179.412 217.088 179.546 216.677 179.812 216.304C180.079 215.931 180.458 215.637 180.948 215.424C181.439 215.2 181.999 215.088 182.628 215.088C183.599 215.088 184.383 215.333 184.98 215.824C185.578 216.315 185.898 216.987 185.94 217.84H184.484C184.452 217.381 184.266 217.013 183.924 216.736C183.594 216.459 183.146 216.32 182.58 216.32C182.058 216.32 181.642 216.432 181.332 216.656C181.023 216.88 180.868 217.173 180.868 217.536C180.868 217.824 180.959 218.064 181.14 218.256C181.332 218.437 181.567 218.587 181.844 218.704C182.132 218.811 182.527 218.933 183.028 219.072C183.658 219.243 184.17 219.413 184.564 219.584C184.959 219.744 185.295 219.989 185.572 220.32C185.86 220.651 186.01 221.083 186.02 221.616C186.02 222.096 185.887 222.528 185.62 222.912C185.354 223.296 184.975 223.6 184.484 223.824C184.004 224.037 183.45 224.144 182.82 224.144ZM189.58 221.984L187.788 226.288H186.812L187.98 221.984H189.58ZM42.9927 241.848C43.2807 241.347 43.7074 240.931 44.2727 240.6C44.8487 240.259 45.5154 240.088 46.2727 240.088C47.0514 240.088 47.7554 240.275 48.3847 240.648C49.0247 241.021 49.526 241.549 49.8887 242.232C50.2514 242.904 50.4327 243.688 50.4327 244.584C50.4327 245.469 50.2514 246.259 49.8887 246.952C49.526 247.645 49.0247 248.184 48.3847 248.568C47.7554 248.952 47.0514 249.144 46.2727 249.144C45.526 249.144 44.8647 248.979 44.2887 248.648C43.7234 248.307 43.2914 247.885 42.9927 247.384V253.16H41.5367V240.232H42.9927V241.848ZM48.9447 244.584C48.9447 243.923 48.8114 243.347 48.5447 242.856C48.278 242.365 47.9154 241.992 47.4567 241.736C47.0087 241.48 46.5127 241.352 45.9687 241.352C45.4354 241.352 44.9394 241.485 44.4807 241.752C44.0327 242.008 43.67 242.387 43.3927 242.888C43.126 243.379 42.9927 243.949 42.9927 244.6C42.9927 245.261 43.126 245.843 43.3927 246.344C43.67 246.835 44.0327 247.213 44.4807 247.48C44.9394 247.736 45.4354 247.864 45.9687 247.864C46.5127 247.864 47.0087 247.736 47.4567 247.48C47.9154 247.213 48.278 246.835 48.5447 246.344C48.8114 245.843 48.9447 245.256 48.9447 244.584ZM53.8052 237.16V249H52.3492V237.16H53.8052ZM64.2867 244.28C64.2867 244.557 64.2707 244.851 64.2387 245.16H57.2307C57.284 246.024 57.5774 246.701 58.1107 247.192C58.6547 247.672 59.3107 247.912 60.0787 247.912C60.708 247.912 61.2307 247.768 61.6467 247.48C62.0734 247.181 62.372 246.787 62.5427 246.296H64.1107C63.876 247.139 63.4067 247.827 62.7027 248.36C61.9987 248.883 61.124 249.144 60.0787 249.144C59.2467 249.144 58.5 248.957 57.8387 248.584C57.188 248.211 56.676 247.683 56.3027 247C55.9294 246.307 55.7427 245.507 55.7427 244.6C55.7427 243.693 55.924 242.899 56.2867 242.216C56.6494 241.533 57.156 241.011 57.8067 240.648C58.468 240.275 59.2254 240.088 60.0787 240.088C60.9107 240.088 61.6467 240.269 62.2867 240.632C62.9267 240.995 63.4174 241.496 63.7587 242.136C64.1107 242.765 64.2867 243.48 64.2867 244.28ZM62.7827 243.976C62.7827 243.421 62.66 242.947 62.4147 242.552C62.1694 242.147 61.8334 241.843 61.4067 241.64C60.9907 241.427 60.5267 241.32 60.0147 241.32C59.2787 241.32 58.6494 241.555 58.1267 242.024C57.6147 242.493 57.3214 243.144 57.2467 243.976H62.7827ZM65.6646 244.584C65.6646 243.688 65.8459 242.904 66.2086 242.232C66.5712 241.549 67.0672 241.021 67.6966 240.648C68.3366 240.275 69.0459 240.088 69.8246 240.088C70.5926 240.088 71.2592 240.253 71.8246 240.584C72.3899 240.915 72.8112 241.331 73.0886 241.832V240.232H74.5606V249H73.0886V247.368C72.8006 247.88 72.3686 248.307 71.7926 248.648C71.2272 248.979 70.5659 249.144 69.8086 249.144C69.0299 249.144 68.3259 248.952 67.6966 248.568C67.0672 248.184 66.5712 247.645 66.2086 246.952C65.8459 246.259 65.6646 245.469 65.6646 244.584ZM73.0886 244.6C73.0886 243.939 72.9552 243.363 72.6886 242.872C72.4219 242.381 72.0592 242.008 71.6006 241.752C71.1526 241.485 70.6566 241.352 70.1126 241.352C69.5686 241.352 69.0726 241.48 68.6246 241.736C68.1766 241.992 67.8192 242.365 67.5526 242.856C67.2859 243.347 67.1526 243.923 67.1526 244.584C67.1526 245.256 67.2859 245.843 67.5526 246.344C67.8192 246.835 68.1766 247.213 68.6246 247.48C69.0726 247.736 69.5686 247.864 70.1126 247.864C70.6566 247.864 71.1526 247.736 71.6006 247.48C72.0592 247.213 72.4219 246.835 72.6886 246.344C72.9552 245.843 73.0886 245.261 73.0886 244.6ZM80.1251 249.144C79.4531 249.144 78.8504 249.032 78.3171 248.808C77.7837 248.573 77.3624 248.253 77.0531 247.848C76.7437 247.432 76.5731 246.957 76.5411 246.424H78.0451C78.0877 246.861 78.2904 247.219 78.6531 247.496C79.0264 247.773 79.5117 247.912 80.1091 247.912C80.6637 247.912 81.1011 247.789 81.4211 247.544C81.7411 247.299 81.9011 246.989 81.9011 246.616C81.9011 246.232 81.7304 245.949 81.3891 245.768C81.0477 245.576 80.5197 245.389 79.8051 245.208C79.1544 245.037 78.6211 244.867 78.2051 244.696C77.7997 244.515 77.4477 244.253 77.1491 243.912C76.8611 243.56 76.7171 243.101 76.7171 242.536C76.7171 242.088 76.8504 241.677 77.1171 241.304C77.3837 240.931 77.7624 240.637 78.2531 240.424C78.7437 240.2 79.3037 240.088 79.9331 240.088C80.9037 240.088 81.6877 240.333 82.2851 240.824C82.8824 241.315 83.2024 241.987 83.2451 242.84H81.7891C81.7571 242.381 81.5704 242.013 81.2291 241.736C80.8984 241.459 80.4504 241.32 79.8851 241.32C79.3624 241.32 78.9464 241.432 78.6371 241.656C78.3277 241.88 78.1731 242.173 78.1731 242.536C78.1731 242.824 78.2637 243.064 78.4451 243.256C78.6371 243.437 78.8717 243.587 79.1491 243.704C79.4371 243.811 79.8317 243.933 80.3331 244.072C80.9624 244.243 81.4744 244.413 81.8691 244.584C82.2637 244.744 82.5997 244.989 82.8771 245.32C83.1651 245.651 83.3144 246.083 83.3251 246.616C83.3251 247.096 83.1917 247.528 82.9251 247.912C82.6584 248.296 82.2797 248.6 81.7891 248.824C81.3091 249.037 80.7544 249.144 80.1251 249.144ZM93.3804 244.28C93.3804 244.557 93.3644 244.851 93.3324 245.16H86.3244C86.3778 246.024 86.6711 246.701 87.2044 247.192C87.7484 247.672 88.4044 247.912 89.1724 247.912C89.8018 247.912 90.3244 247.768 90.7404 247.48C91.1671 247.181 91.4658 246.787 91.6364 246.296H93.2044C92.9698 247.139 92.5004 247.827 91.7964 248.36C91.0924 248.883 90.2178 249.144 89.1724 249.144C88.3404 249.144 87.5938 248.957 86.9324 248.584C86.2818 248.211 85.7698 247.683 85.3964 247C85.0231 246.307 84.8364 245.507 84.8364 244.6C84.8364 243.693 85.0178 242.899 85.3804 242.216C85.7431 241.533 86.2498 241.011 86.9004 240.648C87.5618 240.275 88.3191 240.088 89.1724 240.088C90.0044 240.088 90.7404 240.269 91.3804 240.632C92.0204 240.995 92.5111 241.496 92.8524 242.136C93.2044 242.765 93.3804 243.48 93.3804 244.28ZM91.8764 243.976C91.8764 243.421 91.7538 242.947 91.5084 242.552C91.2631 242.147 90.9271 241.843 90.5004 241.64C90.0844 241.427 89.6204 241.32 89.1084 241.32C88.3724 241.32 87.7431 241.555 87.2204 242.024C86.7084 242.493 86.4151 243.144 86.3404 243.976H91.8764ZM99.0239 244.584C99.0239 243.688 99.2053 242.904 99.5679 242.232C99.9306 241.549 100.427 241.021 101.056 240.648C101.696 240.275 102.405 240.088 103.184 240.088C103.952 240.088 104.619 240.253 105.184 240.584C105.749 240.915 106.171 241.331 106.448 241.832V240.232H107.92V249H106.448V247.368C106.16 247.88 105.728 248.307 105.152 248.648C104.587 248.979 103.925 249.144 103.168 249.144C102.389 249.144 101.685 248.952 101.056 248.568C100.427 248.184 99.9306 247.645 99.5679 246.952C99.2053 246.259 99.0239 245.469 99.0239 244.584ZM106.448 244.6C106.448 243.939 106.315 243.363 106.048 242.872C105.781 242.381 105.419 242.008 104.96 241.752C104.512 241.485 104.016 241.352 103.472 241.352C102.928 241.352 102.432 241.48 101.984 241.736C101.536 241.992 101.179 242.365 100.912 242.856C100.645 243.347 100.512 243.923 100.512 244.584C100.512 245.256 100.645 245.843 100.912 246.344C101.179 246.835 101.536 247.213 101.984 247.48C102.432 247.736 102.928 247.864 103.472 247.864C104.016 247.864 104.512 247.736 104.96 247.48C105.419 247.213 105.781 246.835 106.048 246.344C106.315 245.843 106.448 245.261 106.448 244.6ZM109.836 244.584C109.836 243.688 110.018 242.904 110.38 242.232C110.743 241.549 111.239 241.021 111.868 240.648C112.508 240.275 113.223 240.088 114.012 240.088C114.695 240.088 115.33 240.248 115.916 240.568C116.503 240.877 116.951 241.288 117.26 241.8V237.16H118.732V249H117.26V247.352C116.972 247.875 116.546 248.307 115.98 248.648C115.415 248.979 114.754 249.144 113.996 249.144C113.218 249.144 112.508 248.952 111.868 248.568C111.239 248.184 110.743 247.645 110.38 246.952C110.018 246.259 109.836 245.469 109.836 244.584ZM117.26 244.6C117.26 243.939 117.127 243.363 116.86 242.872C116.594 242.381 116.231 242.008 115.772 241.752C115.324 241.485 114.828 241.352 114.284 241.352C113.74 241.352 113.244 241.48 112.796 241.736C112.348 241.992 111.991 242.365 111.724 242.856C111.458 243.347 111.324 243.923 111.324 244.584C111.324 245.256 111.458 245.843 111.724 246.344C111.991 246.835 112.348 247.213 112.796 247.48C113.244 247.736 113.74 247.864 114.284 247.864C114.828 247.864 115.324 247.736 115.772 247.48C116.231 247.213 116.594 246.835 116.86 246.344C117.127 245.843 117.26 245.261 117.26 244.6ZM120.649 244.584C120.649 243.688 120.83 242.904 121.193 242.232C121.556 241.549 122.052 241.021 122.681 240.648C123.321 240.275 124.036 240.088 124.825 240.088C125.508 240.088 126.142 240.248 126.729 240.568C127.316 240.877 127.764 241.288 128.073 241.8V237.16H129.545V249H128.073V247.352C127.785 247.875 127.358 248.307 126.793 248.648C126.228 248.979 125.566 249.144 124.809 249.144C124.03 249.144 123.321 248.952 122.681 248.568C122.052 248.184 121.556 247.645 121.193 246.952C120.83 246.259 120.649 245.469 120.649 244.584ZM128.073 244.6C128.073 243.939 127.94 243.363 127.673 242.872C127.406 242.381 127.044 242.008 126.585 241.752C126.137 241.485 125.641 241.352 125.097 241.352C124.553 241.352 124.057 241.48 123.609 241.736C123.161 241.992 122.804 242.365 122.537 242.856C122.27 243.347 122.137 243.923 122.137 244.584C122.137 245.256 122.27 245.843 122.537 246.344C122.804 246.835 123.161 247.213 123.609 247.48C124.057 247.736 124.553 247.864 125.097 247.864C125.641 247.864 126.137 247.736 126.585 247.48C127.044 247.213 127.406 246.835 127.673 246.344C127.94 245.843 128.073 245.261 128.073 244.6ZM137.727 241.848C138.015 241.347 138.442 240.931 139.007 240.6C139.583 240.259 140.25 240.088 141.007 240.088C141.786 240.088 142.49 240.275 143.119 240.648C143.759 241.021 144.26 241.549 144.623 242.232C144.986 242.904 145.167 243.688 145.167 244.584C145.167 245.469 144.986 246.259 144.623 246.952C144.26 247.645 143.759 248.184 143.119 248.568C142.49 248.952 141.786 249.144 141.007 249.144C140.26 249.144 139.599 248.979 139.023 248.648C138.458 248.307 138.026 247.885 137.727 247.384V253.16H136.271V240.232H137.727V241.848ZM143.679 244.584C143.679 243.923 143.546 243.347 143.279 242.856C143.012 242.365 142.65 241.992 142.191 241.736C141.743 241.48 141.247 241.352 140.703 241.352C140.17 241.352 139.674 241.485 139.215 241.752C138.767 242.008 138.404 242.387 138.127 242.888C137.86 243.379 137.727 243.949 137.727 244.6C137.727 245.261 137.86 245.843 138.127 246.344C138.404 246.835 138.767 247.213 139.215 247.48C139.674 247.736 140.17 247.864 140.703 247.864C141.247 247.864 141.743 247.736 142.191 247.48C142.65 247.213 143.012 246.835 143.279 246.344C143.546 245.843 143.679 245.256 143.679 244.584ZM148.54 237.16V249H147.084V237.16H148.54ZM150.477 244.584C150.477 243.688 150.658 242.904 151.021 242.232C151.384 241.549 151.88 241.021 152.509 240.648C153.149 240.275 153.858 240.088 154.637 240.088C155.405 240.088 156.072 240.253 156.637 240.584C157.202 240.915 157.624 241.331 157.901 241.832V240.232H159.373V249H157.901V247.368C157.613 247.88 157.181 248.307 156.605 248.648C156.04 248.979 155.378 249.144 154.621 249.144C153.842 249.144 153.138 248.952 152.509 248.568C151.88 248.184 151.384 247.645 151.021 246.952C150.658 246.259 150.477 245.469 150.477 244.584ZM157.901 244.6C157.901 243.939 157.768 243.363 157.501 242.872C157.234 242.381 156.872 242.008 156.413 241.752C155.965 241.485 155.469 241.352 154.925 241.352C154.381 241.352 153.885 241.48 153.437 241.736C152.989 241.992 152.632 242.365 152.365 242.856C152.098 243.347 151.965 243.923 151.965 244.584C151.965 245.256 152.098 245.843 152.365 246.344C152.632 246.835 152.989 247.213 153.437 247.48C153.885 247.736 154.381 247.864 154.925 247.864C155.469 247.864 155.965 247.736 156.413 247.48C156.872 247.213 157.234 246.835 157.501 246.344C157.768 245.843 157.901 245.261 157.901 244.6ZM166.106 240.072C167.172 240.072 168.036 240.397 168.698 241.048C169.359 241.688 169.69 242.616 169.69 243.832V249H168.25V244.04C168.25 243.165 168.031 242.499 167.594 242.04C167.156 241.571 166.559 241.336 165.802 241.336C165.034 241.336 164.42 241.576 163.962 242.056C163.514 242.536 163.29 243.235 163.29 244.152V249H161.834V240.232H163.29V241.48C163.578 241.032 163.967 240.685 164.458 240.44C164.959 240.195 165.508 240.072 166.106 240.072ZM184.11 240.232V249H182.654V247.704C182.376 248.152 181.987 248.504 181.486 248.76C180.995 249.005 180.451 249.128 179.854 249.128C179.171 249.128 178.558 248.989 178.014 248.712C177.47 248.424 177.038 247.997 176.718 247.432C176.408 246.867 176.254 246.179 176.254 245.368V240.232H177.694V245.176C177.694 246.04 177.912 246.707 178.35 247.176C178.787 247.635 179.384 247.864 180.142 247.864C180.92 247.864 181.534 247.624 181.982 247.144C182.43 246.664 182.654 245.965 182.654 245.048V240.232H184.11ZM190.84 240.072C191.907 240.072 192.771 240.397 193.432 241.048C194.093 241.688 194.424 242.616 194.424 243.832V249H192.984V244.04C192.984 243.165 192.765 242.499 192.328 242.04C191.891 241.571 191.293 241.336 190.536 241.336C189.768 241.336 189.155 241.576 188.696 242.056C188.248 242.536 188.024 243.235 188.024 244.152V249H186.568V240.232H188.024V241.48C188.312 241.032 188.701 240.685 189.192 240.44C189.693 240.195 190.243 240.072 190.84 240.072ZM197.554 238.808C197.277 238.808 197.042 238.712 196.85 238.52C196.658 238.328 196.562 238.093 196.562 237.816C196.562 237.539 196.658 237.304 196.85 237.112C197.042 236.92 197.277 236.824 197.554 236.824C197.821 236.824 198.045 236.92 198.226 237.112C198.418 237.304 198.514 237.539 198.514 237.816C198.514 238.093 198.418 238.328 198.226 238.52C198.045 238.712 197.821 238.808 197.554 238.808ZM198.258 240.232V249H196.802V240.232H198.258ZM202.516 241.432V246.6C202.516 247.027 202.606 247.331 202.788 247.512C202.969 247.683 203.284 247.768 203.732 247.768H204.804V249H203.492C202.681 249 202.073 248.813 201.668 248.44C201.262 248.067 201.06 247.453 201.06 246.6V241.432H199.924V240.232H201.06V238.024H202.516V240.232H204.804V241.432H202.516ZM209.672 249.144C209 249.144 208.397 249.032 207.864 248.808C207.331 248.573 206.909 248.253 206.6 247.848C206.291 247.432 206.12 246.957 206.088 246.424H207.592C207.635 246.861 207.837 247.219 208.2 247.496C208.573 247.773 209.059 247.912 209.656 247.912C210.211 247.912 210.648 247.789 210.968 247.544C211.288 247.299 211.448 246.989 211.448 246.616C211.448 246.232 211.277 245.949 210.936 245.768C210.595 245.576 210.067 245.389 209.352 245.208C208.701 245.037 208.168 244.867 207.752 244.696C207.347 244.515 206.995 244.253 206.696 243.912C206.408 243.56 206.264 243.101 206.264 242.536C206.264 242.088 206.397 241.677 206.664 241.304C206.931 240.931 207.309 240.637 207.8 240.424C208.291 240.2 208.851 240.088 209.48 240.088C210.451 240.088 211.235 240.333 211.832 240.824C212.429 241.315 212.749 241.987 212.792 242.84H211.336C211.304 242.381 211.117 242.013 210.776 241.736C210.445 241.459 209.997 241.32 209.432 241.32C208.909 241.32 208.493 241.432 208.184 241.656C207.875 241.88 207.72 242.173 207.72 242.536C207.72 242.824 207.811 243.064 207.992 243.256C208.184 243.437 208.419 243.587 208.696 243.704C208.984 243.811 209.379 243.933 209.88 244.072C210.509 244.243 211.021 244.413 211.416 244.584C211.811 244.744 212.147 244.989 212.424 245.32C212.712 245.651 212.861 246.083 212.872 246.616C212.872 247.096 212.739 247.528 212.472 247.912C212.205 248.296 211.827 248.6 211.336 248.824C210.856 249.037 210.301 249.144 209.672 249.144Z" fill="black"/>
<path d="M110.562 89.2299C110.558 89.8237 110.07 90.3041 109.476 90.3002C108.882 90.2963 108.402 89.808 108.41 89.2143L108.495 80.5034C108.492 79.9018 108.976 79.4136 109.574 79.4057V79.4018H116.933C117.542 79.4018 118.042 79.8979 118.042 80.5073C118.042 81.1206 117.542 81.6167 116.933 81.6167H110.644L110.562 89.2299ZM99.4408 101.074H117.117C117.136 101.078 117.152 101.07 117.168 101.058V101.05C117.179 101.039 117.187 101.023 117.187 101.007V95.3122C117.187 95.2966 117.179 95.277 117.168 95.2653C117.152 95.2536 117.136 95.2458 117.117 95.2458H99.4408C99.4252 95.2419 99.4057 95.2497 99.3979 95.2653C99.3822 95.277 99.3744 95.2927 99.3744 95.3122V101.007C99.3783 101.027 99.3862 101.043 99.3979 101.054C99.4096 101.066 99.4252 101.074 99.4408 101.074ZM117.113 103.293H99.4408C98.8471 103.293 98.2767 103.051 97.8627 102.621C97.4448 102.191 97.2065 101.609 97.2104 101.008V99.3044H93.5893C93.4565 99.3044 93.3276 99.3591 93.2377 99.4568C93.1401 99.5505 93.0854 99.6833 93.0893 99.82V135.461C93.0893 135.598 93.144 135.727 93.2377 135.824C93.3276 135.918 93.4565 135.973 93.5893 135.977H122.976C123.109 135.973 123.234 135.918 123.328 135.824C123.422 135.727 123.472 135.598 123.476 135.461V99.82C123.476 99.6833 123.422 99.5544 123.328 99.4568C123.234 99.3591 123.109 99.3083 122.976 99.3044H119.351V101.008C119.351 101.609 119.117 102.187 118.699 102.617H118.691C118.277 103.043 117.711 103.285 117.113 103.289L117.113 103.293ZM97.2108 97.0857V95.3123C97.2108 94.7107 97.4452 94.1326 97.8671 93.7029C98.2773 93.2771 98.8437 93.0349 99.4374 93.0349H117.109C117.703 93.0349 118.273 93.2771 118.687 93.7029C119.109 94.1365 119.344 94.7146 119.344 95.3162V97.0857H122.969H122.965C123.676 97.0857 124.355 97.3748 124.848 97.8865C125.352 98.4021 125.633 99.0974 125.633 99.8201V135.461C125.633 136.18 125.352 136.875 124.848 137.391C124.355 137.899 123.676 138.188 122.965 138.192H93.5898C92.8789 138.188 92.1992 137.899 91.707 137.391C91.2031 136.875 90.9219 136.184 90.9219 135.461V99.8201C90.9219 99.0974 91.2031 98.4021 91.707 97.8865C92.1992 97.3748 92.8789 97.0857 93.5898 97.0857H97.2108ZM108.031 133.563C107.429 133.547 106.957 133.055 106.957 132.457C106.957 131.86 107.429 131.367 108.031 131.348H119.34C119.938 131.367 120.414 131.86 120.414 132.457C120.414 133.055 119.937 133.547 119.34 133.563H108.031ZM108.031 129.582C107.429 129.567 106.953 129.074 106.953 128.473C106.953 127.871 107.429 127.379 108.031 127.36H116.644H116.64C117.242 127.379 117.718 127.871 117.718 128.473C117.718 129.074 117.242 129.567 116.64 129.582H108.031ZM98.0148 130.75C97.6477 130.266 97.7297 129.578 98.2063 129.195C98.4289 129.016 98.718 128.934 99.007 128.973C99.2922 129.012 99.55 129.16 99.7219 129.395L100.101 129.891L101.718 128.614C101.945 128.434 102.234 128.356 102.519 128.395C102.804 128.43 103.062 128.582 103.234 128.813C103.597 129.297 103.511 129.985 103.038 130.364L100.624 132.27C100.609 132.285 100.589 132.297 100.573 132.313C100.347 132.492 100.058 132.574 99.7726 132.539C99.4875 132.5 99.2257 132.352 99.0539 132.117L98.0148 130.75ZM108.031 122.981C107.453 122.938 107.004 122.457 107.004 121.875C107.004 121.297 107.453 120.813 108.031 120.77H119.34C119.914 120.813 120.363 121.297 120.363 121.875C120.363 122.457 119.914 122.938 119.34 122.981H108.031ZM108.031 119C107.429 118.981 106.953 118.488 106.953 117.891C106.953 117.289 107.429 116.797 108.031 116.778H116.644H116.64C117.242 116.797 117.718 117.289 117.718 117.891C117.718 118.488 117.242 118.981 116.64 119H108.031ZM98.0148 120.168C97.6477 119.684 97.7297 118.996 98.2063 118.617C98.4289 118.434 98.718 118.352 99.007 118.391C99.2922 118.426 99.55 118.578 99.7219 118.809L100.101 119.305L101.718 118.028V118.032C101.945 117.852 102.234 117.774 102.519 117.809C102.804 117.848 103.062 118 103.234 118.231C103.597 118.715 103.511 119.399 103.038 119.782L100.624 121.684C100.609 121.699 100.593 121.715 100.573 121.727C100.347 121.906 100.058 121.989 99.7726 121.949C99.4875 121.914 99.2257 121.762 99.0539 121.531L98.0148 120.168ZM108.031 112.399C107.429 112.379 106.957 111.891 106.957 111.289C106.957 110.692 107.429 110.2 108.031 110.184H119.34C119.938 110.199 120.414 110.692 120.414 111.289C120.414 111.891 119.937 112.379 119.34 112.399H108.031ZM108.031 108.418V108.414C107.429 108.399 106.957 107.906 106.957 107.309C106.957 106.711 107.429 106.219 108.031 106.199H116.644H116.64C117.238 106.219 117.714 106.711 117.714 107.309C117.714 107.906 117.238 108.399 116.64 108.414L108.031 108.418ZM98.0148 109.59C97.6477 109.106 97.7297 108.414 98.2063 108.035C98.4289 107.852 98.718 107.774 99.0031 107.809C99.2922 107.844 99.55 107.996 99.7219 108.227L100.101 108.723L101.718 107.446V107.45C101.945 107.27 102.234 107.188 102.519 107.227C102.804 107.266 103.062 107.414 103.234 107.645C103.597 108.133 103.511 108.817 103.038 109.196L100.624 111.102C100.609 111.117 100.589 111.133 100.573 111.149V111.153C100.347 111.332 100.058 111.41 99.7726 111.375C99.4836 111.336 99.2258 111.184 99.0539 110.953L98.0148 109.59ZM129.132 144.988V144.984C129.132 144.39 129.616 143.902 130.214 143.902C130.811 143.902 131.296 144.39 131.296 144.984V151.492C131.3 151.785 131.186 152.062 130.987 152.273C130.784 152.48 130.507 152.601 130.214 152.605H125.425C124.823 152.586 124.347 152.094 124.347 151.492C124.347 150.89 124.823 150.402 125.425 150.383H129.132L129.132 144.988ZM130.214 140.039C133.198 140.039 136.05 141.25 138.124 143.394C142.491 147.91 142.491 155.074 138.124 159.589C136.054 161.734 133.198 162.945 130.214 162.945C127.233 162.945 124.378 161.734 122.304 159.589C117.933 155.078 117.933 147.905 122.304 143.394C124.378 141.25 127.233 140.039 130.214 140.039ZM136.589 144.957C134.917 143.23 132.616 142.254 130.214 142.254C127.808 142.254 125.507 143.23 123.835 144.957C120.315 148.601 120.315 154.383 123.835 158.023C125.507 159.753 127.808 160.726 130.214 160.726C132.616 160.726 134.917 159.753 136.589 158.023C140.116 154.382 140.116 148.601 136.589 144.957ZM130.214 75.2148C131.593 75.2148 132.913 75.7734 133.87 76.7656C135.893 78.8515 135.893 82.1679 133.87 84.2539C132.909 85.2461 131.593 85.8047 130.214 85.8047C128.835 85.8047 127.515 85.2461 126.558 84.2539C124.538 82.1641 124.538 78.8516 126.558 76.7656C127.515 75.7773 128.835 75.2148 130.214 75.2148ZM132.339 78.332C131.78 77.7578 131.015 77.4297 130.214 77.4297C129.409 77.4297 128.644 77.7578 128.085 78.332C126.913 79.5468 126.913 81.4726 128.085 82.6875C128.644 83.2617 129.409 83.5859 130.214 83.5859C131.015 83.5859 131.78 83.2617 132.339 82.6875C133.515 81.4727 133.515 79.5469 132.339 78.332ZM135.077 71.5664L135.261 71.4687C135.632 71.2734 136.062 71.207 136.476 71.2773C136.893 71.3398 137.28 71.5391 137.573 71.8476L138.675 72.9726H138.671C138.972 73.2773 139.171 73.668 139.23 74.0937C139.296 74.5195 139.23 74.9531 139.042 75.3398L138.952 75.5273L138.948 75.5313C138.901 75.6172 138.874 75.7148 138.866 75.8125C138.87 75.9141 138.894 76.0117 138.944 76.1016C139.042 76.3008 139.128 76.5 139.206 76.6914C139.284 76.8867 139.366 77.1016 139.433 77.3047H139.429C139.456 77.3984 139.507 77.4844 139.577 77.5586C139.647 77.6289 139.733 77.6797 139.827 77.7109L140.022 77.7734C140.425 77.9062 140.776 78.1641 141.022 78.5078C141.265 78.8594 141.397 79.2773 141.397 79.707V81.3008C141.401 81.7305 141.269 82.1485 141.022 82.5C140.772 82.8477 140.425 83.1055 140.022 83.2461L139.827 83.3086C139.733 83.3359 139.647 83.3867 139.577 83.4531C139.511 83.5273 139.46 83.6133 139.429 83.707C139.362 83.918 139.284 84.1211 139.202 84.3203C139.12 84.5195 139.038 84.7148 138.94 84.918L138.944 84.9141C138.894 85.0039 138.87 85.1016 138.866 85.2031C138.874 85.3008 138.901 85.3984 138.944 85.4883L139.042 85.6758C139.23 86.0586 139.296 86.4961 139.23 86.918C139.167 87.3399 138.972 87.7344 138.671 88.0391L137.569 89.1641H137.573C137.276 89.4688 136.894 89.668 136.476 89.7344C136.061 89.8047 135.632 89.7344 135.261 89.5352L135.077 89.4414H135.073C134.991 89.3945 134.897 89.3672 134.8 89.3633C134.702 89.3672 134.604 89.3945 134.519 89.4375C134.323 89.5352 134.132 89.625 133.94 89.711C133.749 89.7969 133.542 89.8672 133.343 89.9414H133.339C133.249 89.9688 133.163 90.0196 133.097 90.086C133.026 90.1602 132.976 90.25 132.948 90.3438L132.886 90.543C132.757 90.9531 132.507 91.3125 132.163 91.5703C131.823 91.8203 131.413 91.957 130.991 91.957H129.436C129.015 91.9609 128.604 91.8281 128.261 91.5781C127.921 91.3203 127.667 90.9609 127.534 90.5508L127.472 90.3516H127.476C127.448 90.2578 127.397 90.168 127.331 90.0977C127.261 90.0274 127.179 89.9766 127.085 89.9492C126.882 89.875 126.683 89.8008 126.487 89.7188C126.292 89.6367 126.104 89.5469 125.905 89.4453H125.901C125.815 89.4023 125.722 89.375 125.624 89.3711C125.526 89.375 125.429 89.4023 125.347 89.4531L125.167 89.5469C124.792 89.7461 124.366 89.8125 123.948 89.7461C123.53 89.6758 123.147 89.4727 122.854 89.168L121.753 88.043H121.761C121.46 87.7344 121.264 87.3438 121.194 86.9219C121.128 86.4961 121.194 86.0625 121.389 85.6797L121.479 85.4922H121.483C121.53 85.4023 121.554 85.3047 121.557 85.207C121.557 85.1055 121.53 85.0078 121.487 84.918C121.389 84.7148 121.304 84.5156 121.221 84.3203C121.139 84.125 121.069 83.918 120.999 83.707L120.995 83.7109C120.968 83.6172 120.921 83.5312 120.854 83.457C120.78 83.3906 120.694 83.3398 120.6 83.3086L120.405 83.2461L120.409 83.25C119.577 82.9687 119.018 82.1836 119.026 81.3047V79.7109C119.026 79.2812 119.159 78.8632 119.405 78.5117C119.651 78.164 120.003 77.9062 120.409 77.7734L120.604 77.7109H120.6C120.698 77.6797 120.78 77.6289 120.854 77.5586C120.921 77.4883 120.971 77.4023 120.995 77.3086C121.065 77.1054 121.139 76.8984 121.218 76.6953C121.3 76.4922 121.386 76.3008 121.483 76.1054L121.487 76.1015C121.53 76.0117 121.557 75.914 121.557 75.8164C121.557 75.7148 121.53 75.6172 121.483 75.5312L121.393 75.3437H121.389C121.194 74.957 121.128 74.5234 121.194 74.0976C121.261 73.6718 121.456 73.2812 121.753 72.9765L122.854 71.8515V71.8476C123.456 71.2265 124.397 71.0742 125.171 71.4726L125.35 71.5703H125.347C125.432 71.6171 125.526 71.6445 125.624 71.6484C125.722 71.6445 125.819 71.621 125.905 71.5742C126.104 71.4765 126.3 71.3789 126.487 71.3007C126.679 71.2226 126.882 71.1367 127.085 71.0703L127.089 71.0742C127.182 71.0429 127.264 70.9882 127.335 70.9218C127.401 70.8476 127.452 70.7617 127.475 70.664L127.538 70.4687C127.667 70.0625 127.921 69.7031 128.264 69.4453C128.604 69.1914 129.014 69.0547 129.436 69.0508H130.991C131.413 69.0547 131.827 69.1914 132.163 69.4414C132.507 69.6992 132.761 70.0586 132.886 70.4687L132.948 70.664V70.6601C132.975 70.7578 133.026 70.8476 133.097 70.9179C133.163 70.9882 133.249 71.039 133.343 71.0703C133.542 71.1367 133.741 71.2148 133.94 71.3007C134.14 71.3867 134.323 71.4726 134.518 71.5742C134.604 71.6171 134.702 71.6445 134.8 71.6445C134.897 71.6445 134.991 71.6172 135.077 71.5664ZM136.128 73.5L136.058 73.543C135.671 73.7461 135.241 73.8516 134.808 73.8516C134.374 73.8555 133.944 73.7539 133.558 73.5547C133.421 73.4844 133.265 73.4141 133.108 73.3438C132.948 73.2734 132.804 73.2188 132.644 73.1641C132.23 73.0234 131.855 72.7852 131.554 72.4688C131.249 72.1523 131.023 71.7695 130.894 71.3477L130.874 71.2695H129.562L129.538 71.3477H129.534C129.405 71.7695 129.179 72.1523 128.874 72.4688C128.569 72.7852 128.194 73.0234 127.78 73.168C127.628 73.2188 127.476 73.2852 127.319 73.3477C127.167 73.4102 127.003 73.4883 126.862 73.5586V73.5547C126.479 73.7578 126.05 73.8594 125.616 73.8555C125.179 73.8516 124.753 73.7461 124.366 73.543L124.296 73.5L123.374 74.4492L123.409 74.5234C123.608 74.9219 123.714 75.3555 123.718 75.8007C123.718 76.2422 123.616 76.6797 123.425 77.078C123.354 77.2265 123.284 77.3788 123.214 77.539C123.144 77.703 123.097 77.8554 123.042 78.0155C122.909 78.4374 122.675 78.8202 122.366 79.1327C122.058 79.4452 121.683 79.6796 121.265 79.8163L121.194 79.8359V81.1757L121.265 81.203C121.683 81.3397 122.058 81.5702 122.366 81.8788C122.675 82.1952 122.905 82.578 123.042 82.9999C123.101 83.1561 123.155 83.3163 123.222 83.4725C123.288 83.6288 123.354 83.789 123.433 83.9374C123.827 84.746 123.819 85.6913 123.417 86.496L123.382 86.5702L124.304 87.5194L124.366 87.4726C124.753 87.2733 125.183 87.164 125.616 87.1561C126.05 87.1561 126.479 87.2616 126.866 87.4608C127.011 87.5311 127.159 87.6015 127.323 87.6718C127.487 87.7421 127.628 87.7929 127.784 87.8515H127.78C128.194 87.9921 128.569 88.2304 128.874 88.5429C129.179 88.8632 129.405 89.2499 129.534 89.6679L129.558 89.7421H130.866L130.886 89.6679H130.894C131.023 89.246 131.249 88.8593 131.558 88.5429C131.862 88.2304 132.233 87.9921 132.647 87.8515C132.808 87.7929 132.964 87.7343 133.112 87.6718C133.261 87.6093 133.429 87.5312 133.562 87.4608C134.347 87.0585 135.28 87.0624 136.058 87.4765L136.128 87.5116L137.054 86.5624L137.011 86.4882L137.015 86.4921C136.819 86.0976 136.714 85.6601 136.714 85.2148C136.71 84.7734 136.812 84.332 137.007 83.9375C137.073 83.789 137.144 83.6367 137.21 83.4726C137.276 83.3047 137.335 83.1562 137.382 83H137.386C137.522 82.5781 137.753 82.1914 138.065 81.8789C138.37 81.5703 138.745 81.3359 139.159 81.2031L139.237 81.1758V79.836L139.159 79.8164C138.745 79.6797 138.37 79.4453 138.065 79.1328C137.753 78.8203 137.519 78.4375 137.386 78.0195C137.335 77.8633 137.272 77.7031 137.214 77.543C137.151 77.3828 137.077 77.2266 137.011 77.082L137.007 77.0781C136.812 76.6836 136.71 76.2461 136.714 75.8008C136.714 75.3594 136.819 74.9219 137.015 74.5274L137.058 74.4532L136.128 73.5ZM143.64 121.051H144.062C144.03 120.754 143.952 120.457 143.831 120.184C143.655 119.805 143.405 119.465 143.089 119.192C141.745 118.02 140.667 116.571 139.933 114.942C139.194 113.305 138.815 111.531 138.815 109.735C138.804 106.453 140.077 103.297 142.366 100.949C144.616 98.6213 147.71 97.3049 150.948 97.3049C154.183 97.3049 157.276 98.6213 159.526 100.949C161.933 103.418 163.222 106.774 163.081 110.223C162.944 113.672 161.397 116.914 158.8 119.184C158.487 119.461 158.237 119.797 158.062 120.176C157.94 120.449 157.862 120.746 157.839 121.047H158.253C159.023 121.047 159.761 121.36 160.3 121.914C161.437 123.078 161.437 124.941 160.3 126.106C159.761 126.66 159.023 126.977 158.253 126.977H157.737C157.585 127.75 157.21 128.465 156.659 129.031C156.347 129.352 155.983 129.617 155.581 129.817C155.437 130.828 154.976 131.77 154.261 132.5C153.394 133.399 152.194 133.906 150.948 133.906C149.698 133.906 148.499 133.399 147.632 132.5C146.917 131.77 146.456 130.832 146.312 129.82C145.909 129.621 145.542 129.356 145.23 129.031C144.679 128.469 144.308 127.754 144.155 126.981H143.64C142.87 126.981 142.132 126.664 141.597 126.109C140.464 124.941 140.464 123.086 141.597 121.918C142.132 121.367 142.87 121.055 143.64 121.051ZM146.229 121.051H147.53V113.699C147.394 113.586 147.265 113.465 147.14 113.336C145.038 111.164 145.038 107.715 147.14 105.547C148.136 104.516 149.511 103.934 150.944 103.934C152.378 103.934 153.749 104.516 154.745 105.547C156.851 107.715 156.851 111.164 154.745 113.336C154.624 113.465 154.491 113.586 154.354 113.699V121.051H155.655C155.69 120.43 155.839 119.82 156.097 119.254C156.397 118.586 156.847 117.992 157.405 117.516C158.511 116.551 159.394 115.356 159.995 114.016C161.741 110.137 160.948 105.582 157.991 102.52C156.144 100.614 153.601 99.5354 150.944 99.5354C148.288 99.5354 145.745 100.614 143.897 102.52C141.921 104.555 140.866 107.309 140.976 110.145C141.085 112.977 142.354 115.641 144.479 117.516C145.522 118.407 146.155 119.684 146.229 121.051ZM155.464 126.981L146.421 126.985C146.507 127.164 146.624 127.328 146.765 127.469C147.089 127.805 147.538 127.996 148.007 127.996H153.882C154.351 127.996 154.796 127.805 155.124 127.469C155.265 127.328 155.382 127.164 155.468 126.985L155.464 126.981ZM158.241 123.266L143.639 123.27C143.448 123.27 143.26 123.348 143.124 123.489C142.838 123.782 142.838 124.25 143.124 124.547C143.26 124.688 143.444 124.766 143.639 124.766H158.244C158.439 124.766 158.627 124.688 158.76 124.547C159.049 124.25 159.049 123.782 158.76 123.489C158.627 123.348 158.439 123.27 158.244 123.27L158.241 123.266ZM152.186 114.805L152.19 114.809C151.37 115.004 150.515 115.004 149.694 114.809V121.051H152.19L152.186 114.805ZM153.21 107.121L153.214 107.125C152.62 106.508 151.8 106.16 150.944 106.16C150.085 106.16 149.268 106.508 148.671 107.125C147.417 108.418 147.417 110.481 148.671 111.778C148.831 111.938 149.007 112.086 149.198 112.211L149.206 112.215C150.261 112.914 151.632 112.914 152.687 112.215L152.698 112.211C152.89 112.086 153.065 111.938 153.226 111.778C154.479 110.481 154.479 108.418 153.226 107.125L153.21 107.121ZM152.729 130.941C152.932 130.73 153.097 130.488 153.222 130.223H148.667C148.788 130.488 148.956 130.73 149.159 130.941C149.628 131.422 150.272 131.695 150.944 131.695C151.616 131.695 152.261 131.422 152.729 130.941ZM143.448 81.6174C142.835 81.6174 142.339 81.1213 142.339 80.508C142.339 79.8986 142.835 79.4025 143.448 79.4025H150.944C151.233 79.4025 151.511 79.5236 151.714 79.7306C151.917 79.9377 152.03 80.215 152.03 80.508V93.848C152.038 94.1409 151.929 94.4261 151.722 94.637C151.518 94.848 151.237 94.9651 150.944 94.9651C150.651 94.9651 150.37 94.8479 150.163 94.637C149.96 94.4261 149.851 94.1409 149.858 93.848V81.618L143.448 81.6174ZM149.858 137.195C149.851 136.902 149.96 136.617 150.163 136.406C150.37 136.195 150.651 136.078 150.944 136.078C151.237 136.078 151.519 136.195 151.722 136.406C151.929 136.617 152.038 136.902 152.03 137.195V150.597C152.034 151.203 151.55 151.699 150.944 151.707H150.854L143.698 151.726H143.694C143.085 151.726 142.589 151.234 142.589 150.625C142.589 150.011 143.085 149.519 143.694 149.519L149.862 149.504L149.858 137.195ZM117.096 149.586C117.69 149.606 118.163 150.094 118.163 150.688C118.163 151.286 117.69 151.774 117.096 151.794L109.483 151.813H109.479C109.19 151.809 108.917 151.692 108.714 151.485C108.514 151.274 108.401 150.997 108.409 150.708H108.405L108.401 142.692C108.401 142.094 108.885 141.61 109.483 141.61C110.081 141.61 110.565 142.094 110.565 142.692V149.602L117.096 149.586Z" fill="white"/>
</svg>
