<svg width="38" height="30" viewBox="0 0 38 30" fill="none" xmlns="http://www.w3.org/2000/svg">
<g filter="url(#filter0_d_1965_72820)">
<path fill-rule="evenodd" clip-rule="evenodd" d="M29.3545 1.07471H5V17.0928H29.3545V1.07471ZM28.384 16.075H5.99877V2.09837H28.384V16.075ZM33.2698 5.79619C33.2694 5.6192 33.2358 5.39772 33.1296 5.27864C33.0303 5.16708 32.8004 5.09641 32.653 5.12847C32.3652 5.19063 32.2939 5.44745 32.2939 5.73567C32.2983 9.31179 32.2983 12.8876 32.2989 16.4637V20.0964H28.7582C22.4023 20.0958 16.0459 20.0941 9.69037 20.0945C9.55967 20.0945 9.4252 20.0981 9.29764 20.1255C9.03028 20.1844 8.89581 20.3788 8.91655 20.6467C8.93602 20.9038 9.11385 21.0471 9.35734 21.0906C9.43557 21.1057 9.51914 21.0972 9.6002 21.0972C17.3984 21.0982 25.1954 21.0988 32.9936 21.0982C33.0812 21.0982 33.1692 21.0857 33.2754 21.0776V13.3027C33.2754 10.8007 33.2782 8.29892 33.2698 5.79619ZM31.3087 19.097C31.3168 19.0165 31.325 18.9762 31.325 18.936C31.325 13.869 31.3244 8.80143 31.3222 3.73447C31.3222 3.6324 31.3259 3.50219 31.2706 3.4348C31.1622 3.30263 31.0199 3.12989 30.8792 3.11549C30.7369 3.1011 30.5257 3.22313 30.4415 3.35137C30.351 3.49009 30.3498 3.70633 30.3498 3.88823C30.3466 8.5384 30.3476 13.1886 30.347 17.8391C30.347 17.9182 30.3344 17.9974 30.3268 18.0942H27.0528C20.5955 18.0942 14.1376 18.0942 7.68025 18.0959C7.5505 18.0959 7.39184 18.0838 7.2979 18.1525C7.16312 18.2496 7.00194 18.4077 6.98812 18.5539C6.97398 18.6991 7.09651 18.8997 7.21841 19.0047C7.31706 19.0901 7.50274 19.0924 7.64978 19.0924C14.3104 19.0966 20.9712 19.097 27.6318 19.0976H31.3087V19.097ZM17.1549 13.5903C19.5763 13.606 21.554 11.5973 21.5754 9.10012C21.5968 6.65465 19.631 4.60045 17.2492 4.57983C14.8112 4.55857 12.8306 6.54276 12.8004 9.03567C12.7699 11.5168 14.738 13.5743 17.1549 13.5903ZM17.1622 5.58158C19.0563 5.57013 20.5842 7.13 20.5967 9.08965C20.609 10.975 19.0768 12.5716 17.2423 12.5846C15.333 12.5984 13.7882 11.0487 13.7766 9.10863C13.7646 7.17744 15.2859 5.5927 17.1622 5.58158ZM8.52477 14.0882C8.97058 14.0912 9.41577 14.0889 9.86128 14.0889V14.0879C10.3369 14.0879 10.8123 14.0987 11.288 14.0843C11.6094 14.0752 11.8265 13.8416 11.8142 13.5602C11.8032 13.2949 11.5792 13.0914 11.2701 13.0898C10.3492 13.0845 9.42803 13.0836 8.50686 13.0904C8.16 13.093 7.93474 13.308 7.93631 13.6008C7.93725 13.8893 8.17069 14.0863 8.52477 14.0882ZM23.1567 5.0794C23.5924 5.08071 24.0269 5.0794 24.4627 5.0794V5.07842C24.9387 5.07842 25.4147 5.08627 25.8903 5.07547C26.219 5.06795 26.4342 4.85726 26.437 4.57264C26.4398 4.29292 26.2139 4.08093 25.8859 4.07929C24.9751 4.07438 24.0631 4.07406 23.152 4.07929C22.7834 4.08093 22.5506 4.29423 22.5594 4.5975C22.5673 4.88245 22.8082 5.07776 23.1567 5.0794Z" fill="#DE0C0C"/>
<path d="M32.6348 5.04421C32.4642 5.08105 32.3534 5.17844 32.2884 5.30886C32.2258 5.4345 32.2077 5.58653 32.2077 5.73567V5.73578C32.2116 8.86537 32.212 11.9947 32.2125 15.1243C32.2126 15.5708 32.2127 16.0172 32.2127 16.4637V20.0102L32.653 5.12847M32.6348 5.04421L32.653 5.12847M32.6348 5.04421C32.6348 5.04422 32.6347 5.04423 32.6347 5.04424L32.653 5.12847M32.6348 5.04421C32.7277 5.02403 32.8379 5.03704 32.9351 5.06741C33.0321 5.09773 33.1303 5.14977 33.194 5.22126M32.653 5.12847C32.8004 5.09641 33.0303 5.16708 33.1296 5.27864M33.194 5.22126L33.1296 5.27864M33.194 5.22126C33.194 5.22128 33.194 5.2213 33.194 5.22133L33.1296 5.27864M33.194 5.22126C33.2606 5.29603 33.3 5.39698 33.3233 5.49597C33.3469 5.59625 33.3558 5.70263 33.356 5.7959C33.3627 7.79818 33.3623 9.79986 33.3618 11.8014C33.3617 12.3018 33.3616 12.8023 33.3616 13.3027V21.0776V21.1574L33.282 21.1635C33.2513 21.1659 33.2206 21.1688 33.1902 21.1717C33.1229 21.1781 33.0568 21.1844 32.9936 21.1844C25.1954 21.185 17.3984 21.1844 9.6002 21.1834C9.58378 21.1834 9.56549 21.1839 9.54595 21.1845C9.48389 21.1862 9.40919 21.1883 9.34164 21.1754M33.1296 5.27864L9.34164 21.1754M9.34164 21.1754C9.34182 21.1754 9.342 21.1755 9.34217 21.1755L9.35734 21.0906L9.34105 21.1753C9.34125 21.1753 9.34144 21.1754 9.34164 21.1754ZM30.4415 3.35137C30.5257 3.22313 30.7369 3.1011 30.8792 3.11549C31.0199 3.12989 31.1622 3.30263 31.2706 3.4348L30.4415 3.35137ZM30.4415 3.35137C30.351 3.49009 30.3498 3.70633 30.3498 3.88823L30.4415 3.35137ZM31.3373 3.38011L31.3371 3.37994C31.2836 3.31471 31.2173 3.2338 31.1455 3.16759C31.0757 3.10332 30.9874 3.03991 30.8879 3.02973L30.8878 3.02972C30.7919 3.02002 30.6852 3.05573 30.5969 3.10446C30.5074 3.15387 30.4213 3.22504 30.3695 3.30406L30.3693 3.30427C30.3136 3.38963 30.2885 3.49347 30.2762 3.59304C30.2638 3.69323 30.2636 3.79793 30.2636 3.88817C30.2613 7.24535 30.2612 10.6025 30.261 13.9598C30.261 15.2529 30.2609 16.546 30.2607 17.8391C30.2607 17.8863 30.2562 17.9302 30.2508 17.9827C30.2499 17.9909 30.249 17.9993 30.2481 18.008H27.0528H27.0303C20.5805 18.008 14.13 18.008 7.68023 18.0097C7.66572 18.0097 7.65 18.0095 7.63351 18.0093C7.5822 18.0087 7.52331 18.008 7.46858 18.0125C7.39628 18.0184 7.31386 18.0342 7.24749 18.0825C7.17599 18.1341 7.09628 18.2025 7.0317 18.2793C6.96875 18.354 6.91171 18.4466 6.90231 18.5457M31.3373 3.38011L31.4084 3.73447C31.4106 8.80144 31.4112 13.8691 31.4112 18.936C31.4112 18.9617 31.4086 18.9863 31.4055 19.0118C31.4047 19.0182 31.4039 19.0247 31.403 19.0315C31.4005 19.0515 31.3977 19.0738 31.3949 19.1014V19.1838H31.3087H27.6318L26.0988 19.1837C19.9492 19.1831 13.7993 19.1825 7.64972 19.1786C7.57678 19.1786 7.48767 19.1781 7.40351 19.1659C7.3209 19.1538 7.23007 19.1288 7.16207 19.07M31.3373 3.38011C31.3373 3.38012 31.3373 3.38013 31.3373 3.38013C31.3813 3.4338 31.3964 3.50417 31.4028 3.56211C31.4087 3.61471 31.4085 3.67071 31.4084 3.71651C31.4084 3.72268 31.4084 3.72866 31.4084 3.73443L31.3373 3.38011ZM6.90231 18.5457C6.90231 18.5456 6.90231 18.5456 6.90232 18.5455L6.98812 18.5539L6.9023 18.5458C6.9023 18.5457 6.9023 18.5457 6.90231 18.5457ZM6.90231 18.5457C6.89287 18.643 6.92882 18.7475 6.97645 18.8354C7.02508 18.9252 7.09254 19.01 7.16207 19.07M7.16207 19.07C7.16205 19.0699 7.16202 19.0699 7.16199 19.0699L7.21841 19.0047L7.16215 19.07C7.16212 19.07 7.1621 19.07 7.16207 19.07ZM9.94749 14.1751H9.86128C9.72594 14.1751 9.5905 14.1753 9.45499 14.1755C9.14502 14.176 8.83465 14.1765 8.5242 14.1744C8.33187 14.1734 8.16427 14.1193 8.04295 14.0182C7.9203 13.9161 7.85068 13.7704 7.8501 13.6012M9.94749 14.1751L8.50621 13.0042C8.31516 13.0057 8.15054 13.0658 8.03286 13.1731C7.91462 13.2808 7.84922 13.4314 7.8501 13.6012M9.94749 14.1751V14.1742M9.94749 14.1751V14.1742M7.8501 13.6012C7.8501 13.6011 7.8501 13.6011 7.8501 13.6011L7.93631 13.6008L7.8501 13.6012C7.8501 13.6012 7.8501 13.6012 7.8501 13.6012ZM9.94749 14.1742C10.0604 14.1745 10.1736 14.1753 10.287 14.1761C10.6205 14.1783 10.9559 14.1806 11.2904 14.1705C11.2905 14.1705 11.2905 14.1705 11.2906 14.1705L11.288 14.0843M9.94749 14.1742L11.2705 13.0036C11.618 13.0054 11.8871 13.238 11.9003 13.5566L11.8142 13.5602C11.8265 13.8416 11.6094 14.0752 11.288 14.0843M11.288 14.0843C10.955 14.0944 10.6222 14.0921 10.2893 14.0899C10.1754 14.0891 10.0614 14.0883 9.94749 14.088L11.288 14.0843ZM23.1564 5.16561L23.1563 5.16561C22.9665 5.16471 22.799 5.11103 22.6762 5.01175C22.5521 4.91152 22.4779 4.76798 22.4732 4.59988M23.1564 5.16561L23.152 4.07929M23.1564 5.16561C23.447 5.16648 23.7373 5.16619 24.0275 5.1659C24.1725 5.16575 24.3176 5.16561 24.4627 5.16561H24.5489M23.1564 5.16561L24.5489 5.16561M22.4732 4.59988L22.5594 4.5975L22.4732 4.6C22.4732 4.59996 22.4732 4.59992 22.4732 4.59988ZM22.4732 4.59988C22.4682 4.42409 22.5338 4.26998 22.657 4.16077C22.7791 4.05256 22.9511 3.99399 23.1515 3.99308M23.1515 3.99308L23.152 4.07929M23.1515 3.99308C23.1515 3.99308 23.1515 3.99308 23.1516 3.99308L23.152 4.07929M23.1515 3.99308L23.152 4.07929M24.5489 5.16561V5.16471M24.5489 5.16561V5.16471M24.5489 5.16471C24.6604 5.16491 24.7722 5.16545 24.8841 5.166C25.2195 5.16764 25.5563 5.16928 25.8923 5.16166C26.0747 5.15748 26.2319 5.09657 26.3448 4.99089C26.458 4.88488 26.5216 4.73827 26.5232 4.57349C26.5266 4.23718 26.2528 3.99493 25.8864 3.99308L24.5489 5.16471ZM29.4407 1.07471V0.9885H29.3545H5H4.91379V1.07471V17.0928V17.179H5H29.3545H29.4407V17.0928V1.07471ZM17.1544 13.6765L17.1544 13.6765L12.8004 9.03567L12.7142 9.03461C12.7142 9.03462 12.7142 9.03463 12.7142 9.03463C12.6832 11.5614 14.6875 13.6602 17.1544 13.6765ZM13.8628 9.10811V9.1081C13.8511 7.22217 15.3363 5.67861 17.1627 5.66779C19.0066 5.65664 20.4983 7.17541 20.5105 9.09021C20.5225 10.9303 19.0263 12.4857 17.2417 12.4984C15.3814 12.5118 13.8741 11.0018 13.8628 9.10811ZM23.1567 5.0794C23.4471 5.08027 23.737 5.07998 24.0271 5.07969C24.1722 5.07955 24.3174 5.0794 24.4627 5.0794H23.1567ZM28.2978 15.9888H6.08498V2.18458H28.2978V15.9888Z" stroke="#DE0C0C" stroke-width="0.172414"/>
</g>
<defs>
<filter id="filter0_d_1965_72820" x="0.827591" y="0.902344" width="36.6207" height="28.3696" filterUnits="userSpaceOnUse" color-interpolation-filters="sRGB">
<feFlood flood-opacity="0" result="BackgroundImageFix"/>
<feColorMatrix in="SourceAlpha" type="matrix" values="0 0 0 0 0 0 0 0 0 0 0 0 0 0 0 0 0 0 127 0" result="hardAlpha"/>
<feOffset dy="4"/>
<feGaussianBlur stdDeviation="2"/>
<feComposite in2="hardAlpha" operator="out"/>
<feColorMatrix type="matrix" values="0 0 0 0 0 0 0 0 0 0 0 0 0 0 0 0 0 0 0.25 0"/>
<feBlend mode="normal" in2="BackgroundImageFix" result="effect1_dropShadow_1965_72820"/>
<feBlend mode="normal" in="SourceGraphic" in2="effect1_dropShadow_1965_72820" result="shape"/>
</filter>
</defs>
</svg>
