<svg width="258" height="313" viewBox="0 0 258 313" fill="none" xmlns="http://www.w3.org/2000/svg">
<path d="M109.631 61.5307C123.111 51.6926 137.807 33.6732 153.001 31.0534C168.228 28.7498 183.81 42.013 196.104 57.3731C208.365 72.417 217.37 89.8741 218.701 107.135C220.031 124.395 214.004 141.441 204.375 154.557C194.922 167.823 182.009 176.993 168.836 188.244C155.522 199.664 141.947 213.165 125.301 217.141C108.512 221.283 88.7947 215.733 75.2802 203.941C61.4486 192.169 53.7869 173.839 48.3019 156.499C42.8169 139.158 39.8256 122.788 43.9984 109.347C48.1712 95.9071 59.8251 85.3783 71.7679 79.1275C83.7437 73.1928 96.0085 71.536 109.631 61.5307Z" fill="#F66464"/>
<rect y="169" width="258" height="144" rx="28" fill="#EFEDED"/>
<path d="M31.5396 209.416C31.5396 208.328 31.7849 207.352 32.2756 206.488C32.7662 205.613 33.4329 204.931 34.2756 204.44C35.1289 203.949 36.0729 203.704 37.1076 203.704C38.3236 203.704 39.3849 203.997 40.2916 204.584C41.1982 205.171 41.8596 206.003 42.2756 207.08H40.5316C40.2222 206.408 39.7742 205.891 39.1876 205.528C38.6116 205.165 37.9182 204.984 37.1076 204.984C36.3289 204.984 35.6302 205.165 35.0116 205.528C34.3929 205.891 33.9076 206.408 33.5556 207.08C33.2036 207.741 33.0276 208.52 33.0276 209.416C33.0276 210.301 33.2036 211.08 33.5556 211.752C33.9076 212.413 34.3929 212.925 35.0116 213.288C35.6302 213.651 36.3289 213.832 37.1076 213.832C37.9182 213.832 38.6116 213.656 39.1876 213.304C39.7742 212.941 40.2222 212.424 40.5316 211.752H42.2756C41.8596 212.819 41.1982 213.645 40.2916 214.232C39.3849 214.808 38.3236 215.096 37.1076 215.096C36.0729 215.096 35.1289 214.856 34.2756 214.376C33.4329 213.885 32.7662 213.208 32.2756 212.344C31.7849 211.48 31.5396 210.504 31.5396 209.416ZM52.2189 206.232V215H50.7629V213.704C50.4856 214.152 50.0963 214.504 49.5949 214.76C49.1043 215.005 48.5603 215.128 47.9629 215.128C47.2803 215.128 46.6669 214.989 46.1229 214.712C45.5789 214.424 45.1469 213.997 44.8269 213.432C44.5176 212.867 44.3629 212.179 44.3629 211.368V206.232H45.8029V211.176C45.8029 212.04 46.0216 212.707 46.4589 213.176C46.8963 213.635 47.4936 213.864 48.2509 213.864C49.0296 213.864 49.6429 213.624 50.0909 213.144C50.5389 212.664 50.7629 211.965 50.7629 211.048V206.232H52.2189ZM56.1333 207.656C56.3893 207.155 56.752 206.765 57.2213 206.488C57.7013 206.211 58.2826 206.072 58.9653 206.072V207.576H58.5813C56.9493 207.576 56.1333 208.461 56.1333 210.232V215H54.6773V206.232H56.1333V207.656ZM62.1021 207.656C62.3581 207.155 62.7207 206.765 63.1901 206.488C63.6701 206.211 64.2514 206.072 64.9341 206.072V207.576H64.5501C62.9181 207.576 62.1021 208.461 62.1021 210.232V215H60.6461V206.232H62.1021V207.656ZM74.6148 210.28C74.6148 210.557 74.5988 210.851 74.5668 211.16H67.5588C67.6121 212.024 67.9055 212.701 68.4388 213.192C68.9828 213.672 69.6388 213.912 70.4068 213.912C71.0361 213.912 71.5588 213.768 71.9748 213.48C72.4015 213.181 72.7001 212.787 72.8708 212.296H74.4388C74.2041 213.139 73.7348 213.827 73.0308 214.36C72.3268 214.883 71.4521 215.144 70.4068 215.144C69.5748 215.144 68.8281 214.957 68.1668 214.584C67.5161 214.211 67.0041 213.683 66.6308 213C66.2575 212.307 66.0708 211.507 66.0708 210.6C66.0708 209.693 66.2521 208.899 66.6148 208.216C66.9775 207.533 67.4841 207.011 68.1348 206.648C68.7961 206.275 69.5535 206.088 70.4068 206.088C71.2388 206.088 71.9748 206.269 72.6148 206.632C73.2548 206.995 73.7455 207.496 74.0868 208.136C74.4388 208.765 74.6148 209.48 74.6148 210.28ZM73.1108 209.976C73.1108 209.421 72.9881 208.947 72.7428 208.552C72.4975 208.147 72.1615 207.843 71.7348 207.64C71.3188 207.427 70.8548 207.32 70.3428 207.32C69.6068 207.32 68.9775 207.555 68.4548 208.024C67.9428 208.493 67.6495 209.144 67.5748 209.976H73.1108ZM80.8087 206.072C81.8754 206.072 82.7394 206.397 83.4007 207.048C84.062 207.688 84.3927 208.616 84.3927 209.832V215H82.9527V210.04C82.9527 209.165 82.734 208.499 82.2967 208.04C81.8594 207.571 81.262 207.336 80.5047 207.336C79.7367 207.336 79.1234 207.576 78.6647 208.056C78.2167 208.536 77.9927 209.235 77.9927 210.152V215H76.5367V206.232H77.9927V207.48C78.2807 207.032 78.67 206.685 79.1607 206.44C79.662 206.195 80.2114 206.072 80.8087 206.072ZM88.5471 207.432V212.6C88.5471 213.027 88.6377 213.331 88.8191 213.512C89.0004 213.683 89.3151 213.768 89.7631 213.768H90.8351V215H89.5231C88.7124 215 88.1044 214.813 87.6991 214.44C87.2937 214.067 87.0911 213.453 87.0911 212.6V207.432H85.9551V206.232H87.0911V204.024H88.5471V206.232H90.8351V207.432H88.5471ZM94.0552 203.16V215H92.5992V203.16H94.0552ZM104.089 206.232L98.8087 219.128H97.3047L99.0327 214.904L95.4967 206.232H97.1127L99.8647 213.336L102.585 206.232H104.089ZM117.37 206.232L112.09 219.128H110.586L112.314 214.904L108.778 206.232H110.394L113.146 213.336L115.866 206.232H117.37ZM122.658 215.144C121.836 215.144 121.09 214.957 120.418 214.584C119.756 214.211 119.234 213.683 118.85 213C118.476 212.307 118.29 211.507 118.29 210.6C118.29 209.704 118.482 208.915 118.866 208.232C119.26 207.539 119.794 207.011 120.466 206.648C121.138 206.275 121.89 206.088 122.722 206.088C123.554 206.088 124.306 206.275 124.978 206.648C125.65 207.011 126.178 207.533 126.562 208.216C126.956 208.899 127.154 209.693 127.154 210.6C127.154 211.507 126.951 212.307 126.546 213C126.151 213.683 125.612 214.211 124.93 214.584C124.247 214.957 123.49 215.144 122.658 215.144ZM122.658 213.864C123.18 213.864 123.671 213.741 124.13 213.496C124.588 213.251 124.956 212.883 125.234 212.392C125.522 211.901 125.666 211.304 125.666 210.6C125.666 209.896 125.527 209.299 125.25 208.808C124.972 208.317 124.61 207.955 124.162 207.72C123.714 207.475 123.228 207.352 122.706 207.352C122.172 207.352 121.682 207.475 121.234 207.72C120.796 207.955 120.444 208.317 120.178 208.808C119.911 209.299 119.778 209.896 119.778 210.6C119.778 211.315 119.906 211.917 120.162 212.408C120.428 212.899 120.78 213.267 121.218 213.512C121.655 213.747 122.135 213.864 122.658 213.864ZM136.844 206.232V215H135.388V213.704C135.111 214.152 134.721 214.504 134.22 214.76C133.729 215.005 133.185 215.128 132.588 215.128C131.905 215.128 131.292 214.989 130.748 214.712C130.204 214.424 129.772 213.997 129.452 213.432C129.143 212.867 128.988 212.179 128.988 211.368V206.232H130.428V211.176C130.428 212.04 130.647 212.707 131.084 213.176C131.521 213.635 132.119 213.864 132.876 213.864C133.655 213.864 134.268 213.624 134.716 213.144C135.164 212.664 135.388 211.965 135.388 211.048V206.232H136.844ZM143.024 210.584C143.024 209.688 143.205 208.904 143.568 208.232C143.931 207.549 144.427 207.021 145.056 206.648C145.696 206.275 146.411 206.088 147.2 206.088C147.883 206.088 148.517 206.248 149.104 206.568C149.691 206.877 150.139 207.288 150.448 207.8V203.16H151.92V215H150.448V213.352C150.16 213.875 149.733 214.307 149.168 214.648C148.603 214.979 147.941 215.144 147.184 215.144C146.405 215.144 145.696 214.952 145.056 214.568C144.427 214.184 143.931 213.645 143.568 212.952C143.205 212.259 143.024 211.469 143.024 210.584ZM150.448 210.6C150.448 209.939 150.315 209.363 150.048 208.872C149.781 208.381 149.419 208.008 148.96 207.752C148.512 207.485 148.016 207.352 147.472 207.352C146.928 207.352 146.432 207.48 145.984 207.736C145.536 207.992 145.179 208.365 144.912 208.856C144.645 209.347 144.512 209.923 144.512 210.584C144.512 211.256 144.645 211.843 144.912 212.344C145.179 212.835 145.536 213.213 145.984 213.48C146.432 213.736 146.928 213.864 147.472 213.864C148.016 213.864 148.512 213.736 148.96 213.48C149.419 213.213 149.781 212.835 150.048 212.344C150.315 211.843 150.448 211.261 150.448 210.6ZM158.204 215.144C157.383 215.144 156.636 214.957 155.964 214.584C155.303 214.211 154.78 213.683 154.396 213C154.023 212.307 153.836 211.507 153.836 210.6C153.836 209.704 154.028 208.915 154.412 208.232C154.807 207.539 155.34 207.011 156.012 206.648C156.684 206.275 157.436 206.088 158.268 206.088C159.1 206.088 159.852 206.275 160.524 206.648C161.196 207.011 161.724 207.533 162.108 208.216C162.503 208.899 162.7 209.693 162.7 210.6C162.7 211.507 162.498 212.307 162.092 213C161.698 213.683 161.159 214.211 160.476 214.584C159.794 214.957 159.036 215.144 158.204 215.144ZM158.204 213.864C158.727 213.864 159.218 213.741 159.676 213.496C160.135 213.251 160.503 212.883 160.78 212.392C161.068 211.901 161.212 211.304 161.212 210.6C161.212 209.896 161.074 209.299 160.796 208.808C160.519 208.317 160.156 207.955 159.708 207.72C159.26 207.475 158.775 207.352 158.252 207.352C157.719 207.352 157.228 207.475 156.78 207.72C156.343 207.955 155.991 208.317 155.724 208.808C155.458 209.299 155.324 209.896 155.324 210.6C155.324 211.315 155.452 211.917 155.708 212.408C155.975 212.899 156.327 213.267 156.764 213.512C157.202 213.747 157.682 213.864 158.204 213.864ZM168.887 206.072C169.953 206.072 170.817 206.397 171.479 207.048C172.14 207.688 172.471 208.616 172.471 209.832V215H171.031V210.04C171.031 209.165 170.812 208.499 170.375 208.04C169.937 207.571 169.34 207.336 168.583 207.336C167.815 207.336 167.201 207.576 166.743 208.056C166.295 208.536 166.071 209.235 166.071 210.152V215H164.615V206.232H166.071V207.48C166.359 207.032 166.748 206.685 167.239 206.44C167.74 206.195 168.289 206.072 168.887 206.072ZM175.073 203.848H176.689L175.153 207.48H174.129L175.073 203.848ZM180.125 207.432V212.6C180.125 213.027 180.216 213.331 180.397 213.512C180.579 213.683 180.893 213.768 181.341 213.768H182.413V215H181.101C180.291 215 179.683 214.813 179.277 214.44C178.872 214.067 178.669 213.453 178.669 212.6V207.432H177.533V206.232H178.669V204.024H180.125V206.232H182.413V207.432H180.125ZM192.795 206.072C193.456 206.072 194.054 206.216 194.587 206.504C195.12 206.781 195.536 207.203 195.835 207.768C196.144 208.333 196.299 209.021 196.299 209.832V215H194.859V210.04C194.859 209.165 194.64 208.499 194.203 208.04C193.766 207.571 193.168 207.336 192.411 207.336C191.643 207.336 191.03 207.576 190.571 208.056C190.123 208.536 189.899 209.235 189.899 210.152V215H188.443V203.16H189.899V207.48C190.187 207.032 190.582 206.685 191.083 206.44C191.595 206.195 192.166 206.072 192.795 206.072ZM198.133 210.584C198.133 209.688 198.315 208.904 198.677 208.232C199.04 207.549 199.536 207.021 200.165 206.648C200.805 206.275 201.515 206.088 202.293 206.088C203.061 206.088 203.728 206.253 204.293 206.584C204.859 206.915 205.28 207.331 205.557 207.832V206.232H207.029V215H205.557V213.368C205.269 213.88 204.837 214.307 204.261 214.648C203.696 214.979 203.035 215.144 202.277 215.144C201.499 215.144 200.795 214.952 200.165 214.568C199.536 214.184 199.04 213.645 198.677 212.952C198.315 212.259 198.133 211.469 198.133 210.584ZM205.557 210.6C205.557 209.939 205.424 209.363 205.157 208.872C204.891 208.381 204.528 208.008 204.069 207.752C203.621 207.485 203.125 207.352 202.581 207.352C202.037 207.352 201.541 207.48 201.093 207.736C200.645 207.992 200.288 208.365 200.021 208.856C199.755 209.347 199.621 209.923 199.621 210.584C199.621 211.256 199.755 211.843 200.021 212.344C200.288 212.835 200.645 213.213 201.093 213.48C201.541 213.736 202.037 213.864 202.581 213.864C203.125 213.864 203.621 213.736 204.069 213.48C204.528 213.213 204.891 212.835 205.157 212.344C205.424 211.843 205.557 211.261 205.557 210.6ZM212.754 213.656L215.474 206.232H217.026L213.586 215H211.89L208.45 206.232H210.018L212.754 213.656ZM226.459 210.28C226.459 210.557 226.443 210.851 226.411 211.16H219.403C219.456 212.024 219.749 212.701 220.283 213.192C220.827 213.672 221.483 213.912 222.251 213.912C222.88 213.912 223.403 213.768 223.819 213.48C224.245 213.181 224.544 212.787 224.715 212.296H226.283C226.048 213.139 225.579 213.827 224.875 214.36C224.171 214.883 223.296 215.144 222.251 215.144C221.419 215.144 220.672 214.957 220.011 214.584C219.36 214.211 218.848 213.683 218.475 213C218.101 212.307 217.915 211.507 217.915 210.6C217.915 209.693 218.096 208.899 218.459 208.216C218.821 207.533 219.328 207.011 219.979 206.648C220.64 206.275 221.397 206.088 222.251 206.088C223.083 206.088 223.819 206.269 224.459 206.632C225.099 206.995 225.589 207.496 225.931 208.136C226.283 208.765 226.459 209.48 226.459 210.28ZM224.955 209.976C224.955 209.421 224.832 208.947 224.587 208.552C224.341 208.147 224.005 207.843 223.579 207.64C223.163 207.427 222.699 207.32 222.187 207.32C221.451 207.32 220.821 207.555 220.299 208.024C219.787 208.493 219.493 209.144 219.419 209.976H224.955ZM39.1486 231.432V236.6C39.1486 237.027 39.2393 237.331 39.4206 237.512C39.602 237.683 39.9166 237.768 40.3646 237.768H41.4366V239H40.1246C39.314 239 38.706 238.813 38.3006 238.44C37.8953 238.067 37.6926 237.453 37.6926 236.6V231.432H36.5566V230.232H37.6926V228.024H39.1486V230.232H41.4366V231.432H39.1486ZM47.0248 239.144C46.2034 239.144 45.4568 238.957 44.7848 238.584C44.1234 238.211 43.6008 237.683 43.2168 237C42.8434 236.307 42.6568 235.507 42.6568 234.6C42.6568 233.704 42.8488 232.915 43.2328 232.232C43.6274 231.539 44.1608 231.011 44.8328 230.648C45.5048 230.275 46.2568 230.088 47.0888 230.088C47.9208 230.088 48.6728 230.275 49.3448 230.648C50.0168 231.011 50.5448 231.533 50.9288 232.216C51.3234 232.899 51.5208 233.693 51.5208 234.6C51.5208 235.507 51.3181 236.307 50.9128 237C50.5181 237.683 49.9794 238.211 49.2968 238.584C48.6141 238.957 47.8568 239.144 47.0248 239.144ZM47.0248 237.864C47.5474 237.864 48.0381 237.741 48.4968 237.496C48.9554 237.251 49.3234 236.883 49.6008 236.392C49.8888 235.901 50.0328 235.304 50.0328 234.6C50.0328 233.896 49.8941 233.299 49.6168 232.808C49.3394 232.317 48.9768 231.955 48.5288 231.72C48.0808 231.475 47.5954 231.352 47.0728 231.352C46.5394 231.352 46.0488 231.475 45.6008 231.72C45.1634 231.955 44.8114 232.317 44.5448 232.808C44.2781 233.299 44.1448 233.896 44.1448 234.6C44.1448 235.315 44.2728 235.917 44.5288 236.408C44.7954 236.899 45.1474 237.267 45.5848 237.512C46.0221 237.747 46.5021 237.864 47.0248 237.864ZM57.1568 234.584C57.1568 233.688 57.3381 232.904 57.7008 232.232C58.0634 231.549 58.5594 231.021 59.1888 230.648C59.8288 230.275 60.5434 230.088 61.3328 230.088C62.0154 230.088 62.6501 230.248 63.2368 230.568C63.8234 230.877 64.2714 231.288 64.5808 231.8V227.16H66.0528V239H64.5808V237.352C64.2928 237.875 63.8661 238.307 63.3008 238.648C62.7354 238.979 62.0741 239.144 61.3168 239.144C60.5381 239.144 59.8288 238.952 59.1888 238.568C58.5594 238.184 58.0634 237.645 57.7008 236.952C57.3381 236.259 57.1568 235.469 57.1568 234.584ZM64.5808 234.6C64.5808 233.939 64.4474 233.363 64.1808 232.872C63.9141 232.381 63.5514 232.008 63.0928 231.752C62.6448 231.485 62.1488 231.352 61.6048 231.352C61.0608 231.352 60.5648 231.48 60.1168 231.736C59.6688 231.992 59.3114 232.365 59.0448 232.856C58.7781 233.347 58.6448 233.923 58.6448 234.584C58.6448 235.256 58.7781 235.843 59.0448 236.344C59.3114 236.835 59.6688 237.213 60.1168 237.48C60.5648 237.736 61.0608 237.864 61.6048 237.864C62.1488 237.864 62.6448 237.736 63.0928 237.48C63.5514 237.213 63.9141 236.835 64.1808 236.344C64.4474 235.843 64.5808 235.261 64.5808 234.6ZM72.3373 239.144C71.5159 239.144 70.7693 238.957 70.0973 238.584C69.4359 238.211 68.9133 237.683 68.5293 237C68.1559 236.307 67.9693 235.507 67.9693 234.6C67.9693 233.704 68.1613 232.915 68.5453 232.232C68.9399 231.539 69.4733 231.011 70.1453 230.648C70.8173 230.275 71.5693 230.088 72.4013 230.088C73.2333 230.088 73.9853 230.275 74.6573 230.648C75.3293 231.011 75.8573 231.533 76.2413 232.216C76.6359 232.899 76.8333 233.693 76.8333 234.6C76.8333 235.507 76.6306 236.307 76.2253 237C75.8306 237.683 75.2919 238.211 74.6093 238.584C73.9266 238.957 73.1693 239.144 72.3373 239.144ZM72.3373 237.864C72.8599 237.864 73.3506 237.741 73.8093 237.496C74.2679 237.251 74.6359 236.883 74.9133 236.392C75.2013 235.901 75.3453 235.304 75.3453 234.6C75.3453 233.896 75.2066 233.299 74.9293 232.808C74.6519 232.317 74.2893 231.955 73.8413 231.72C73.3933 231.475 72.9079 231.352 72.3853 231.352C71.8519 231.352 71.3613 231.475 70.9133 231.72C70.4759 231.955 70.1239 232.317 69.8573 232.808C69.5906 233.299 69.4573 233.896 69.4573 234.6C69.4573 235.315 69.5853 235.917 69.8413 236.408C70.1079 236.899 70.4599 237.267 70.8973 237.512C71.3346 237.747 71.8146 237.864 72.3373 237.864ZM84.7893 231.432V236.6C84.7893 237.027 84.8799 237.331 85.0613 237.512C85.2426 237.683 85.5573 237.768 86.0052 237.768H87.0773V239H85.7653C84.9546 239 84.3466 238.813 83.9413 238.44C83.5359 238.067 83.3333 237.453 83.3333 236.6V231.432H82.1973V230.232H83.3333V228.024H84.7893V230.232H87.0773V231.432H84.7893ZM88.2974 234.584C88.2974 233.688 88.4787 232.904 88.8414 232.232C89.204 231.549 89.7 231.021 90.3294 230.648C90.9694 230.275 91.6787 230.088 92.4574 230.088C93.2254 230.088 93.892 230.253 94.4574 230.584C95.0227 230.915 95.444 231.331 95.7214 231.832V230.232H97.1934V239H95.7214V237.368C95.4334 237.88 95.0014 238.307 94.4254 238.648C93.86 238.979 93.1987 239.144 92.4414 239.144C91.6627 239.144 90.9587 238.952 90.3294 238.568C89.7 238.184 89.204 237.645 88.8414 236.952C88.4787 236.259 88.2974 235.469 88.2974 234.584ZM95.7214 234.6C95.7214 233.939 95.588 233.363 95.3214 232.872C95.0547 232.381 94.692 232.008 94.2334 231.752C93.7854 231.485 93.2894 231.352 92.7454 231.352C92.2014 231.352 91.7054 231.48 91.2574 231.736C90.8094 231.992 90.452 232.365 90.1854 232.856C89.9187 233.347 89.7854 233.923 89.7854 234.584C89.7854 235.256 89.9187 235.843 90.1854 236.344C90.452 236.835 90.8094 237.213 91.2574 237.48C91.7054 237.736 92.2014 237.864 92.7454 237.864C93.2894 237.864 93.7854 237.736 94.2334 237.48C94.692 237.213 95.0547 236.835 95.3214 236.344C95.588 235.843 95.7214 235.261 95.7214 234.6ZM102.758 239.144C102.086 239.144 101.483 239.032 100.95 238.808C100.417 238.573 99.9952 238.253 99.6859 237.848C99.3765 237.432 99.2059 236.957 99.1739 236.424H100.678C100.721 236.861 100.923 237.219 101.286 237.496C101.659 237.773 102.145 237.912 102.742 237.912C103.297 237.912 103.734 237.789 104.054 237.544C104.374 237.299 104.534 236.989 104.534 236.616C104.534 236.232 104.363 235.949 104.022 235.768C103.681 235.576 103.153 235.389 102.438 235.208C101.787 235.037 101.254 234.867 100.838 234.696C100.433 234.515 100.081 234.253 99.7819 233.912C99.4939 233.56 99.3499 233.101 99.3499 232.536C99.3499 232.088 99.4832 231.677 99.7499 231.304C100.017 230.931 100.395 230.637 100.886 230.424C101.377 230.2 101.937 230.088 102.566 230.088C103.537 230.088 104.321 230.333 104.918 230.824C105.515 231.315 105.835 231.987 105.878 232.84H104.422C104.39 232.381 104.203 232.013 103.862 231.736C103.531 231.459 103.083 231.32 102.518 231.32C101.995 231.32 101.579 231.432 101.27 231.656C100.961 231.88 100.806 232.173 100.806 232.536C100.806 232.824 100.897 233.064 101.078 233.256C101.27 233.437 101.505 233.587 101.782 233.704C102.07 233.811 102.465 233.933 102.966 234.072C103.595 234.243 104.107 234.413 104.502 234.584C104.897 234.744 105.233 234.989 105.51 235.32C105.798 235.651 105.947 236.083 105.958 236.616C105.958 237.096 105.825 237.528 105.558 237.912C105.291 238.296 104.913 238.6 104.422 238.824C103.942 239.037 103.387 239.144 102.758 239.144ZM112.909 239L109.469 235.128V239H108.013V227.16H109.469V234.12L112.845 230.232H114.877L110.749 234.6L114.893 239H112.909ZM117.752 236.984L115.96 241.288H114.984L116.152 236.984H117.752ZM125.141 231.848C125.429 231.347 125.856 230.931 126.421 230.6C126.997 230.259 127.664 230.088 128.421 230.088C129.2 230.088 129.904 230.275 130.533 230.648C131.173 231.021 131.674 231.549 132.037 232.232C132.4 232.904 132.581 233.688 132.581 234.584C132.581 235.469 132.4 236.259 132.037 236.952C131.674 237.645 131.173 238.184 130.533 238.568C129.904 238.952 129.2 239.144 128.421 239.144C127.674 239.144 127.013 238.979 126.437 238.648C125.872 238.307 125.44 237.885 125.141 237.384V243.16H123.685V230.232H125.141V231.848ZM131.093 234.584C131.093 233.923 130.96 233.347 130.693 232.856C130.426 232.365 130.064 231.992 129.605 231.736C129.157 231.48 128.661 231.352 128.117 231.352C127.584 231.352 127.088 231.485 126.629 231.752C126.181 232.008 125.818 232.387 125.541 232.888C125.274 233.379 125.141 233.949 125.141 234.6C125.141 235.261 125.274 235.843 125.541 236.344C125.818 236.835 126.181 237.213 126.629 237.48C127.088 237.736 127.584 237.864 128.117 237.864C128.661 237.864 129.157 237.736 129.605 237.48C130.064 237.213 130.426 236.835 130.693 236.344C130.96 235.843 131.093 235.256 131.093 234.584ZM135.954 227.16V239H134.498V227.16H135.954ZM146.435 234.28C146.435 234.557 146.419 234.851 146.387 235.16H139.379C139.432 236.024 139.726 236.701 140.259 237.192C140.803 237.672 141.459 237.912 142.227 237.912C142.856 237.912 143.379 237.768 143.795 237.48C144.222 237.181 144.52 236.787 144.691 236.296H146.259C146.024 237.139 145.555 237.827 144.851 238.36C144.147 238.883 143.272 239.144 142.227 239.144C141.395 239.144 140.648 238.957 139.987 238.584C139.336 238.211 138.824 237.683 138.451 237C138.078 236.307 137.891 235.507 137.891 234.6C137.891 233.693 138.072 232.899 138.435 232.216C138.798 231.533 139.304 231.011 139.955 230.648C140.616 230.275 141.374 230.088 142.227 230.088C143.059 230.088 143.795 230.269 144.435 230.632C145.075 230.995 145.566 231.496 145.907 232.136C146.259 232.765 146.435 233.48 146.435 234.28ZM144.931 233.976C144.931 233.421 144.808 232.947 144.563 232.552C144.318 232.147 143.982 231.843 143.555 231.64C143.139 231.427 142.675 231.32 142.163 231.32C141.427 231.32 140.798 231.555 140.275 232.024C139.763 232.493 139.47 233.144 139.395 233.976H144.931ZM147.813 234.584C147.813 233.688 147.994 232.904 148.357 232.232C148.72 231.549 149.216 231.021 149.845 230.648C150.485 230.275 151.194 230.088 151.973 230.088C152.741 230.088 153.408 230.253 153.973 230.584C154.538 230.915 154.96 231.331 155.237 231.832V230.232H156.709V239H155.237V237.368C154.949 237.88 154.517 238.307 153.941 238.648C153.376 238.979 152.714 239.144 151.957 239.144C151.178 239.144 150.474 238.952 149.845 238.568C149.216 238.184 148.72 237.645 148.357 236.952C147.994 236.259 147.813 235.469 147.813 234.584ZM155.237 234.6C155.237 233.939 155.104 233.363 154.837 232.872C154.57 232.381 154.208 232.008 153.749 231.752C153.301 231.485 152.805 231.352 152.261 231.352C151.717 231.352 151.221 231.48 150.773 231.736C150.325 231.992 149.968 232.365 149.701 232.856C149.434 233.347 149.301 233.923 149.301 234.584C149.301 235.256 149.434 235.843 149.701 236.344C149.968 236.835 150.325 237.213 150.773 237.48C151.221 237.736 151.717 237.864 152.261 237.864C152.805 237.864 153.301 237.736 153.749 237.48C154.208 237.213 154.57 236.835 154.837 236.344C155.104 235.843 155.237 235.261 155.237 234.6ZM162.274 239.144C161.602 239.144 160.999 239.032 160.466 238.808C159.932 238.573 159.511 238.253 159.202 237.848C158.892 237.432 158.722 236.957 158.69 236.424H160.194C160.236 236.861 160.439 237.219 160.802 237.496C161.175 237.773 161.66 237.912 162.258 237.912C162.812 237.912 163.25 237.789 163.57 237.544C163.89 237.299 164.05 236.989 164.05 236.616C164.05 236.232 163.879 235.949 163.538 235.768C163.196 235.576 162.668 235.389 161.954 235.208C161.303 235.037 160.77 234.867 160.354 234.696C159.948 234.515 159.596 234.253 159.298 233.912C159.01 233.56 158.866 233.101 158.866 232.536C158.866 232.088 158.999 231.677 159.266 231.304C159.532 230.931 159.911 230.637 160.402 230.424C160.892 230.2 161.452 230.088 162.082 230.088C163.052 230.088 163.836 230.333 164.434 230.824C165.031 231.315 165.351 231.987 165.394 232.84H163.938C163.906 232.381 163.719 232.013 163.378 231.736C163.047 231.459 162.599 231.32 162.034 231.32C161.511 231.32 161.095 231.432 160.786 231.656C160.476 231.88 160.322 232.173 160.322 232.536C160.322 232.824 160.412 233.064 160.594 233.256C160.786 233.437 161.02 233.587 161.298 233.704C161.586 233.811 161.98 233.933 162.482 234.072C163.111 234.243 163.623 234.413 164.018 234.584C164.412 234.744 164.748 234.989 165.026 235.32C165.314 235.651 165.463 236.083 165.474 236.616C165.474 237.096 165.34 237.528 165.074 237.912C164.807 238.296 164.428 238.6 163.938 238.824C163.458 239.037 162.903 239.144 162.274 239.144ZM175.529 234.28C175.529 234.557 175.513 234.851 175.481 235.16H168.473C168.526 236.024 168.82 236.701 169.353 237.192C169.897 237.672 170.553 237.912 171.321 237.912C171.95 237.912 172.473 237.768 172.889 237.48C173.316 237.181 173.614 236.787 173.785 236.296H175.353C175.118 237.139 174.649 237.827 173.945 238.36C173.241 238.883 172.366 239.144 171.321 239.144C170.489 239.144 169.742 238.957 169.081 238.584C168.43 238.211 167.918 237.683 167.545 237C167.172 236.307 166.985 235.507 166.985 234.6C166.985 233.693 167.166 232.899 167.529 232.216C167.892 231.533 168.398 231.011 169.049 230.648C169.71 230.275 170.468 230.088 171.321 230.088C172.153 230.088 172.889 230.269 173.529 230.632C174.169 230.995 174.66 231.496 175.001 232.136C175.353 232.765 175.529 233.48 175.529 234.28ZM174.025 233.976C174.025 233.421 173.902 232.947 173.657 232.552C173.412 232.147 173.076 231.843 172.649 231.64C172.233 231.427 171.769 231.32 171.257 231.32C170.521 231.32 169.892 231.555 169.369 232.024C168.857 232.493 168.564 233.144 168.489 233.976H174.025ZM183.492 231.432V236.6C183.492 237.027 183.583 237.331 183.764 237.512C183.946 237.683 184.26 237.768 184.708 237.768H185.78V239H184.468C183.658 239 183.05 238.813 182.644 238.44C182.239 238.067 182.036 237.453 182.036 236.6V231.432H180.9V230.232H182.036V228.024H183.492V230.232H185.78V231.432H183.492ZM191.369 239.144C190.547 239.144 189.801 238.957 189.129 238.584C188.467 238.211 187.945 237.683 187.561 237C187.187 236.307 187.001 235.507 187.001 234.6C187.001 233.704 187.193 232.915 187.577 232.232C187.971 231.539 188.505 231.011 189.177 230.648C189.849 230.275 190.601 230.088 191.433 230.088C192.265 230.088 193.017 230.275 193.689 230.648C194.361 231.011 194.889 231.533 195.273 232.216C195.667 232.899 195.865 233.693 195.865 234.6C195.865 235.507 195.662 236.307 195.257 237C194.862 237.683 194.323 238.211 193.641 238.584C192.958 238.957 192.201 239.144 191.369 239.144ZM191.369 237.864C191.891 237.864 192.382 237.741 192.841 237.496C193.299 237.251 193.667 236.883 193.945 236.392C194.233 235.901 194.377 235.304 194.377 234.6C194.377 233.896 194.238 233.299 193.961 232.808C193.683 232.317 193.321 231.955 192.873 231.72C192.425 231.475 191.939 231.352 191.417 231.352C190.883 231.352 190.393 231.475 189.945 231.72C189.507 231.955 189.155 232.317 188.889 232.808C188.622 233.299 188.489 233.896 188.489 234.6C188.489 235.315 188.617 235.917 188.873 236.408C189.139 236.899 189.491 237.267 189.929 237.512C190.366 237.747 190.846 237.864 191.369 237.864ZM201.501 234.584C201.501 233.688 201.682 232.904 202.045 232.232C202.407 231.549 202.903 231.021 203.533 230.648C204.173 230.275 204.887 230.088 205.677 230.088C206.359 230.088 206.994 230.248 207.581 230.568C208.167 230.877 208.615 231.288 208.925 231.8V227.16H210.397V239H208.925V237.352C208.637 237.875 208.21 238.307 207.645 238.648C207.079 238.979 206.418 239.144 205.661 239.144C204.882 239.144 204.173 238.952 203.533 238.568C202.903 238.184 202.407 237.645 202.045 236.952C201.682 236.259 201.501 235.469 201.501 234.584ZM208.925 234.6C208.925 233.939 208.791 233.363 208.525 232.872C208.258 232.381 207.895 232.008 207.437 231.752C206.989 231.485 206.493 231.352 205.949 231.352C205.405 231.352 204.909 231.48 204.461 231.736C204.013 231.992 203.655 232.365 203.389 232.856C203.122 233.347 202.989 233.923 202.989 234.584C202.989 235.256 203.122 235.843 203.389 236.344C203.655 236.835 204.013 237.213 204.461 237.48C204.909 237.736 205.405 237.864 205.949 237.864C206.493 237.864 206.989 237.736 207.437 237.48C207.895 237.213 208.258 236.835 208.525 236.344C208.791 235.843 208.925 235.261 208.925 234.6ZM216.681 239.144C215.86 239.144 215.113 238.957 214.441 238.584C213.78 238.211 213.257 237.683 212.873 237C212.5 236.307 212.313 235.507 212.313 234.6C212.313 233.704 212.505 232.915 212.889 232.232C213.284 231.539 213.817 231.011 214.489 230.648C215.161 230.275 215.913 230.088 216.745 230.088C217.577 230.088 218.329 230.275 219.001 230.648C219.673 231.011 220.201 231.533 220.585 232.216C220.98 232.899 221.177 233.693 221.177 234.6C221.177 235.507 220.974 236.307 220.569 237C220.174 237.683 219.636 238.211 218.953 238.584C218.27 238.957 217.513 239.144 216.681 239.144ZM216.681 237.864C217.204 237.864 217.694 237.741 218.153 237.496C218.612 237.251 218.98 236.883 219.257 236.392C219.545 235.901 219.689 235.304 219.689 234.6C219.689 233.896 219.55 233.299 219.273 232.808C218.996 232.317 218.633 231.955 218.185 231.72C217.737 231.475 217.252 231.352 216.729 231.352C216.196 231.352 215.705 231.475 215.257 231.72C214.82 231.955 214.468 232.317 214.201 232.808C213.934 233.299 213.801 233.896 213.801 234.6C213.801 235.315 213.929 235.917 214.185 236.408C214.452 236.899 214.804 237.267 215.241 237.512C215.678 237.747 216.158 237.864 216.681 237.864ZM109.531 256.432V261.6C109.531 262.027 109.622 262.331 109.803 262.512C109.985 262.683 110.299 262.768 110.747 262.768H111.819V264H110.507C109.697 264 109.089 263.813 108.683 263.44C108.278 263.067 108.075 262.453 108.075 261.6V256.432H106.939V255.232H108.075V253.024H109.531V255.232H111.819V256.432H109.531ZM113.04 259.584C113.04 258.688 113.221 257.904 113.584 257.232C113.946 256.549 114.442 256.021 115.072 255.648C115.712 255.275 116.421 255.088 117.2 255.088C117.968 255.088 118.634 255.253 119.2 255.584C119.765 255.915 120.186 256.331 120.464 256.832V255.232H121.936V264H120.464V262.368C120.176 262.88 119.744 263.307 119.168 263.648C118.602 263.979 117.941 264.144 117.184 264.144C116.405 264.144 115.701 263.952 115.072 263.568C114.442 263.184 113.946 262.645 113.584 261.952C113.221 261.259 113.04 260.469 113.04 259.584ZM120.464 259.6C120.464 258.939 120.33 258.363 120.064 257.872C119.797 257.381 119.434 257.008 118.976 256.752C118.528 256.485 118.032 256.352 117.488 256.352C116.944 256.352 116.448 256.48 116 256.736C115.552 256.992 115.194 257.365 114.928 257.856C114.661 258.347 114.528 258.923 114.528 259.584C114.528 260.256 114.661 260.843 114.928 261.344C115.194 261.835 115.552 262.213 116 262.48C116.448 262.736 116.944 262.864 117.488 262.864C118.032 262.864 118.528 262.736 118.976 262.48C119.434 262.213 119.797 261.835 120.064 261.344C120.33 260.843 120.464 260.261 120.464 259.6ZM127.5 264.144C126.828 264.144 126.225 264.032 125.692 263.808C125.159 263.573 124.737 263.253 124.428 262.848C124.119 262.432 123.948 261.957 123.916 261.424H125.42C125.463 261.861 125.665 262.219 126.028 262.496C126.401 262.773 126.887 262.912 127.484 262.912C128.039 262.912 128.476 262.789 128.796 262.544C129.116 262.299 129.276 261.989 129.276 261.616C129.276 261.232 129.105 260.949 128.764 260.768C128.423 260.576 127.895 260.389 127.18 260.208C126.529 260.037 125.996 259.867 125.58 259.696C125.175 259.515 124.823 259.253 124.524 258.912C124.236 258.56 124.092 258.101 124.092 257.536C124.092 257.088 124.225 256.677 124.492 256.304C124.759 255.931 125.137 255.637 125.628 255.424C126.119 255.2 126.679 255.088 127.308 255.088C128.279 255.088 129.063 255.333 129.66 255.824C130.257 256.315 130.577 256.987 130.62 257.84H129.164C129.132 257.381 128.945 257.013 128.604 256.736C128.273 256.459 127.825 256.32 127.26 256.32C126.737 256.32 126.321 256.432 126.012 256.656C125.703 256.88 125.548 257.173 125.548 257.536C125.548 257.824 125.639 258.064 125.82 258.256C126.012 258.437 126.247 258.587 126.524 258.704C126.812 258.811 127.207 258.933 127.708 259.072C128.337 259.243 128.849 259.413 129.244 259.584C129.639 259.744 129.975 259.989 130.252 260.32C130.54 260.651 130.689 261.083 130.7 261.616C130.7 262.096 130.567 262.528 130.3 262.912C130.033 263.296 129.655 263.6 129.164 263.824C128.684 264.037 128.129 264.144 127.5 264.144ZM137.651 264L134.211 260.128V264H132.755V252.16H134.211V259.12L137.587 255.232H139.619L135.491 259.6L139.635 264H137.651ZM144.094 264.144C143.422 264.144 142.819 264.032 142.286 263.808C141.752 263.573 141.331 263.253 141.022 262.848C140.712 262.432 140.542 261.957 140.51 261.424H142.014C142.056 261.861 142.259 262.219 142.622 262.496C142.995 262.773 143.48 262.912 144.078 262.912C144.632 262.912 145.07 262.789 145.39 262.544C145.71 262.299 145.87 261.989 145.87 261.616C145.87 261.232 145.699 260.949 145.358 260.768C145.016 260.576 144.488 260.389 143.774 260.208C143.123 260.037 142.59 259.867 142.174 259.696C141.768 259.515 141.416 259.253 141.118 258.912C140.83 258.56 140.686 258.101 140.686 257.536C140.686 257.088 140.819 256.677 141.086 256.304C141.352 255.931 141.731 255.637 142.222 255.424C142.712 255.2 143.272 255.088 143.902 255.088C144.872 255.088 145.656 255.333 146.254 255.824C146.851 256.315 147.171 256.987 147.214 257.84H145.758C145.726 257.381 145.539 257.013 145.198 256.736C144.867 256.459 144.419 256.32 143.854 256.32C143.331 256.32 142.915 256.432 142.606 256.656C142.296 256.88 142.142 257.173 142.142 257.536C142.142 257.824 142.232 258.064 142.414 258.256C142.606 258.437 142.84 258.587 143.118 258.704C143.406 258.811 143.8 258.933 144.302 259.072C144.931 259.243 145.443 259.413 145.838 259.584C146.232 259.744 146.568 259.989 146.846 260.32C147.134 260.651 147.283 261.083 147.294 261.616C147.294 262.096 147.16 262.528 146.894 262.912C146.627 263.296 146.248 263.6 145.758 263.824C145.278 264.037 144.723 264.144 144.094 264.144ZM149.813 264.096C149.536 264.096 149.301 264 149.109 263.808C148.917 263.616 148.821 263.381 148.821 263.104C148.821 262.827 148.917 262.592 149.109 262.4C149.301 262.208 149.536 262.112 149.813 262.112C150.08 262.112 150.304 262.208 150.485 262.4C150.677 262.592 150.773 262.827 150.773 263.104C150.773 263.381 150.677 263.616 150.485 263.808C150.304 264 150.08 264.096 149.813 264.096Z" fill="black"/>
<g clip-path="url(#clip0_1502_2053)">
<path d="M78.4947 152.403C76.3758 151.982 68.7379 149.371 68.0973 145.749C67.6538 143.391 68.7379 141.075 71.1032 139.391C72.8772 138.127 77.3121 135.727 79.1353 134.927C79.8252 134.632 80.8107 134.295 81.6977 133.958C84.2108 133.032 85.1964 132.611 85.4427 132.232C85.7384 131.642 85.7384 131.221 85.492 130.084V130L85.3935 129.916C84.3586 128.989 81.8455 126.379 81.2049 124.778C80.5643 123.178 79.8745 119.936 79.8252 118.462V118.125H74.7004C74.799 117.451 75.1439 116.019 75.6859 115.219C76.4744 114.04 77.7063 113.03 77.9034 112.945L78.1005 112.861V112.566C78.1005 111.598 78.7411 108.229 81.5992 105.787C85.0485 102.839 89.8776 100.733 93.0313 100.733H93.2285C96.3822 100.733 101.211 102.881 104.661 105.787C107.519 108.229 108.159 111.598 108.159 112.566V112.777L108.356 112.861C108.554 112.945 109.785 113.956 110.574 115.135C111.116 115.935 111.412 117.367 111.559 118.041H106.385V118.378C106.385 119.852 105.646 123.094 105.006 124.694C104.365 126.294 101.852 128.905 100.817 129.832L100.719 129.916V130C100.472 131.137 100.423 131.558 100.768 132.148C100.965 132.569 101.95 132.948 104.513 133.874C105.4 134.211 106.336 134.548 107.075 134.843C108.948 135.643 113.333 138.043 115.107 139.307C117.473 140.991 118.557 143.307 118.113 145.665C117.423 149.287 109.835 151.898 107.716 152.319C106.139 151.855 97.6634 151.224 94.6575 151.224H93.7705C93.5734 151.224 93.3763 151.266 93.0806 151.266C92.8342 151.266 92.5879 151.224 92.3907 151.224H91.5038C88.5472 151.308 80.0716 151.94 78.4947 152.403ZM107.272 150.339L107.42 150.297C108.159 150.171 114.861 148.866 115.797 144.781C116.29 142.465 113.136 140.444 111.609 139.517C110.574 138.843 109.687 138.38 108.554 137.875L108.061 137.664L105.498 150.003L105.893 150.045C106.533 150.129 106.977 150.213 107.124 150.255L107.272 150.339ZM77.657 137.875C76.3265 138.464 75.4888 138.97 74.6019 139.517C73.0743 140.486 69.9206 142.507 70.4133 144.781C71.3496 148.866 78.002 150.171 78.7904 150.297L78.9382 150.339L79.0368 150.255C79.1846 150.213 79.6774 150.129 80.2687 150.045L80.6629 150.003L78.1005 137.664L77.657 137.875ZM94.0169 149.245C96.8257 149.287 99.388 149.413 101.359 149.581L101.753 149.624L104.02 136.064L103.527 135.853C103.133 135.685 102.69 135.559 102.246 135.39C100.571 134.801 98.846 134.211 98.1561 132.148C98.0576 131.769 98.0083 131.39 98.0576 130.969C98.1068 130.463 98.304 130.042 98.5011 129.495C98.5503 129.284 98.6489 129.116 98.7474 128.863C99.8808 128.021 101.507 126 102.345 124.61L102.887 123.641C103.281 122.757 103.626 120.694 103.823 119.136L103.872 118.757H82.3383L82.3876 119.136C82.6832 121.41 83.0282 122.926 83.3238 123.641L83.8659 124.61C84.7529 126.042 86.379 128.063 87.5124 128.905C87.6109 129.116 87.6602 129.326 87.7587 129.495C87.9558 130 88.153 130.463 88.2022 130.969C88.2515 131.39 88.2515 131.769 88.1037 132.148C87.4138 134.211 85.6891 134.801 84.0137 135.39C83.5702 135.559 83.1267 135.685 82.7325 135.853L82.2397 136.064L84.5065 149.624L84.9007 149.581C86.921 149.413 89.4341 149.287 92.2429 149.245H94.0169ZM80.5151 113.282C80.1208 113.451 79.5295 113.746 78.8889 114.672C78.544 115.135 78.4947 115.514 78.4454 115.767L78.3962 116.146H107.765L107.716 115.767C107.716 115.514 107.617 115.177 107.322 114.672C106.681 113.746 106.04 113.451 105.695 113.282C105.695 112.061 105.745 109.619 103.133 107.387C99.733 104.439 95.9387 102.713 93.1299 102.713C89.3849 102.713 85.5906 105.281 83.1267 107.387C80.5151 109.619 80.5151 112.103 80.5151 113.282Z" fill="white"/>
</g>
<path d="M185.929 89.8583H178.133L176.864 86.7878C176.32 85.8533 175.232 85.3193 173.963 85.3193H147.856C146.586 85.3193 145.499 85.8533 145.136 86.7878L143.867 89.8583H136.071C132.082 89.8583 129 92.2613 129 95.0648V144.192C129 147.129 132.263 149.399 136.071 149.399H185.929C189.918 149.399 193 146.996 193 144.192V95.0648C193 92.2613 189.737 89.8583 185.929 89.8583ZM189.374 144.192C189.374 145.661 187.742 146.862 185.748 146.862H135.89C133.895 146.862 132.263 145.661 132.263 144.192V95.0648C132.263 93.5963 133.895 92.3948 135.89 92.3948H142.598L142.235 93.3293C141.691 94.6643 142.96 95.9993 144.955 95.9993H176.864C178.858 95.9993 180.127 94.6643 179.584 93.3293L179.221 92.3948H185.929C187.924 92.3948 189.555 93.5963 189.555 95.0648V144.192H189.374Z" fill="white"/>
<path d="M142.961 106.013H140.06C138.791 106.013 137.703 106.814 137.703 107.748V109.884C137.703 110.819 138.791 111.62 140.06 111.62H142.961C144.23 111.62 145.318 110.819 145.318 109.884V107.748C145.318 106.814 144.23 106.013 142.961 106.013Z" fill="white"/>
<path d="M184.296 107.482H153.293C152.387 107.482 151.48 108.016 151.48 108.817C151.48 109.485 152.206 110.152 153.293 110.152H184.478C185.384 110.152 186.291 109.618 186.291 108.817C186.109 108.15 185.384 107.482 184.296 107.482Z" fill="white"/>
<path d="M142.961 115.89H140.06C138.791 115.89 137.703 116.691 137.703 117.625V119.761C137.703 120.696 138.791 121.497 140.06 121.497H142.961C144.23 121.497 145.318 120.696 145.318 119.761V117.625C145.318 116.691 144.23 115.89 142.961 115.89Z" fill="white"/>
<path d="M184.296 117.359H153.293C152.387 117.359 151.48 117.893 151.48 118.694C151.48 119.362 152.206 120.029 153.293 120.029H184.478C185.384 120.029 186.291 119.495 186.291 118.694C186.109 118.027 185.384 117.359 184.296 117.359Z" fill="white"/>
<path d="M142.961 125.902H140.06C138.791 125.902 137.703 126.703 137.703 127.638V129.774C137.703 130.708 138.791 131.509 140.06 131.509H142.961C144.23 131.509 145.318 130.708 145.318 129.774V127.638C145.318 126.57 144.23 125.902 142.961 125.902Z" fill="white"/>
<path d="M184.296 127.372H153.293C152.387 127.372 151.48 127.906 151.48 128.707C151.48 129.375 152.206 130.042 153.293 130.042H184.478C185.384 130.042 186.291 129.508 186.291 128.707C186.109 127.906 185.384 127.372 184.296 127.372Z" fill="white"/>
<path d="M142.961 135.784H140.06C138.791 135.784 137.703 136.585 137.703 137.52V139.656C137.703 140.59 138.791 141.391 140.06 141.391H142.961C144.23 141.391 145.318 140.59 145.318 139.656V137.52C145.318 136.585 144.23 135.784 142.961 135.784Z" fill="white"/>
<path d="M184.296 137.249H153.293C152.387 137.249 151.48 137.783 151.48 138.584C151.48 139.385 152.206 139.919 153.293 139.919H184.478C185.384 139.919 186.291 139.385 186.291 138.584C186.291 137.783 185.384 137.249 184.296 137.249Z" fill="white"/>
<defs>
<clipPath id="clip0_1502_2053">
<rect width="53" height="53.0659" fill="white" transform="translate(68 99.3369)"/>
</clipPath>
</defs>
</svg>
