<svg width="258" height="313" viewBox="0 0 258 313" fill="none" xmlns="http://www.w3.org/2000/svg">
<path d="M109.631 61.5307C123.111 51.6926 137.807 33.6732 153.001 31.0534C168.228 28.7498 183.81 42.013 196.104 57.3731C208.365 72.417 217.37 89.8741 218.701 107.135C220.031 124.395 214.004 141.441 204.375 154.557C194.922 167.823 182.009 176.993 168.836 188.244C155.522 199.664 141.947 213.165 125.301 217.141C108.512 221.283 88.7947 215.733 75.2802 203.941C61.4486 192.169 53.7869 173.839 48.3019 156.499C42.8169 139.158 39.8256 122.788 43.9984 109.347C48.1712 95.9071 59.8251 85.3783 71.7679 79.1275C83.7437 73.1928 96.0085 71.536 109.631 61.5307Z" fill="#F66464"/>
<rect y="169" width="258" height="144" rx="28" fill="#EFEDED"/>
<path d="M31.5396 209.416C31.5396 208.328 31.7849 207.352 32.2756 206.488C32.7662 205.613 33.4329 204.931 34.2756 204.44C35.1289 203.949 36.0729 203.704 37.1076 203.704C38.3236 203.704 39.3849 203.997 40.2916 204.584C41.1982 205.171 41.8596 206.003 42.2756 207.08H40.5316C40.2222 206.408 39.7742 205.891 39.1876 205.528C38.6116 205.165 37.9182 204.984 37.1076 204.984C36.3289 204.984 35.6302 205.165 35.0116 205.528C34.3929 205.891 33.9076 206.408 33.5556 207.08C33.2036 207.741 33.0276 208.52 33.0276 209.416C33.0276 210.301 33.2036 211.08 33.5556 211.752C33.9076 212.413 34.3929 212.925 35.0116 213.288C35.6302 213.651 36.3289 213.832 37.1076 213.832C37.9182 213.832 38.6116 213.656 39.1876 213.304C39.7742 212.941 40.2222 212.424 40.5316 211.752H42.2756C41.8596 212.819 41.1982 213.645 40.2916 214.232C39.3849 214.808 38.3236 215.096 37.1076 215.096C36.0729 215.096 35.1289 214.856 34.2756 214.376C33.4329 213.885 32.7662 213.208 32.2756 212.344C31.7849 211.48 31.5396 210.504 31.5396 209.416ZM52.2189 206.232V215H50.7629V213.704C50.4856 214.152 50.0963 214.504 49.5949 214.76C49.1043 215.005 48.5603 215.128 47.9629 215.128C47.2803 215.128 46.6669 214.989 46.1229 214.712C45.5789 214.424 45.1469 213.997 44.8269 213.432C44.5176 212.867 44.3629 212.179 44.3629 211.368V206.232H45.8029V211.176C45.8029 212.04 46.0216 212.707 46.4589 213.176C46.8963 213.635 47.4936 213.864 48.2509 213.864C49.0296 213.864 49.6429 213.624 50.0909 213.144C50.5389 212.664 50.7629 211.965 50.7629 211.048V206.232H52.2189ZM56.1333 207.656C56.3893 207.155 56.752 206.765 57.2213 206.488C57.7013 206.211 58.2826 206.072 58.9653 206.072V207.576H58.5813C56.9493 207.576 56.1333 208.461 56.1333 210.232V215H54.6773V206.232H56.1333V207.656ZM62.1021 207.656C62.3581 207.155 62.7207 206.765 63.1901 206.488C63.6701 206.211 64.2514 206.072 64.9341 206.072V207.576H64.5501C62.9181 207.576 62.1021 208.461 62.1021 210.232V215H60.6461V206.232H62.1021V207.656ZM74.6148 210.28C74.6148 210.557 74.5988 210.851 74.5668 211.16H67.5588C67.6121 212.024 67.9055 212.701 68.4388 213.192C68.9828 213.672 69.6388 213.912 70.4068 213.912C71.0361 213.912 71.5588 213.768 71.9748 213.48C72.4015 213.181 72.7001 212.787 72.8708 212.296H74.4388C74.2041 213.139 73.7348 213.827 73.0308 214.36C72.3268 214.883 71.4521 215.144 70.4068 215.144C69.5748 215.144 68.8281 214.957 68.1668 214.584C67.5161 214.211 67.0041 213.683 66.6308 213C66.2575 212.307 66.0708 211.507 66.0708 210.6C66.0708 209.693 66.2521 208.899 66.6148 208.216C66.9775 207.533 67.4841 207.011 68.1348 206.648C68.7961 206.275 69.5535 206.088 70.4068 206.088C71.2388 206.088 71.9748 206.269 72.6148 206.632C73.2548 206.995 73.7455 207.496 74.0868 208.136C74.4388 208.765 74.6148 209.48 74.6148 210.28ZM73.1108 209.976C73.1108 209.421 72.9881 208.947 72.7428 208.552C72.4975 208.147 72.1615 207.843 71.7348 207.64C71.3188 207.427 70.8548 207.32 70.3428 207.32C69.6068 207.32 68.9775 207.555 68.4548 208.024C67.9428 208.493 67.6495 209.144 67.5748 209.976H73.1108ZM80.8087 206.072C81.8754 206.072 82.7394 206.397 83.4007 207.048C84.062 207.688 84.3927 208.616 84.3927 209.832V215H82.9527V210.04C82.9527 209.165 82.734 208.499 82.2967 208.04C81.8594 207.571 81.262 207.336 80.5047 207.336C79.7367 207.336 79.1234 207.576 78.6647 208.056C78.2167 208.536 77.9927 209.235 77.9927 210.152V215H76.5367V206.232H77.9927V207.48C78.2807 207.032 78.67 206.685 79.1607 206.44C79.662 206.195 80.2114 206.072 80.8087 206.072ZM88.5471 207.432V212.6C88.5471 213.027 88.6377 213.331 88.8191 213.512C89.0004 213.683 89.3151 213.768 89.7631 213.768H90.8351V215H89.5231C88.7124 215 88.1044 214.813 87.6991 214.44C87.2937 214.067 87.0911 213.453 87.0911 212.6V207.432H85.9551V206.232H87.0911V204.024H88.5471V206.232H90.8351V207.432H88.5471ZM94.0552 203.16V215H92.5992V203.16H94.0552ZM104.089 206.232L98.8087 219.128H97.3047L99.0327 214.904L95.4967 206.232H97.1127L99.8647 213.336L102.585 206.232H104.089ZM117.37 206.232L112.09 219.128H110.586L112.314 214.904L108.778 206.232H110.394L113.146 213.336L115.866 206.232H117.37ZM122.658 215.144C121.836 215.144 121.09 214.957 120.418 214.584C119.756 214.211 119.234 213.683 118.85 213C118.476 212.307 118.29 211.507 118.29 210.6C118.29 209.704 118.482 208.915 118.866 208.232C119.26 207.539 119.794 207.011 120.466 206.648C121.138 206.275 121.89 206.088 122.722 206.088C123.554 206.088 124.306 206.275 124.978 206.648C125.65 207.011 126.178 207.533 126.562 208.216C126.956 208.899 127.154 209.693 127.154 210.6C127.154 211.507 126.951 212.307 126.546 213C126.151 213.683 125.612 214.211 124.93 214.584C124.247 214.957 123.49 215.144 122.658 215.144ZM122.658 213.864C123.18 213.864 123.671 213.741 124.13 213.496C124.588 213.251 124.956 212.883 125.234 212.392C125.522 211.901 125.666 211.304 125.666 210.6C125.666 209.896 125.527 209.299 125.25 208.808C124.972 208.317 124.61 207.955 124.162 207.72C123.714 207.475 123.228 207.352 122.706 207.352C122.172 207.352 121.682 207.475 121.234 207.72C120.796 207.955 120.444 208.317 120.178 208.808C119.911 209.299 119.778 209.896 119.778 210.6C119.778 211.315 119.906 211.917 120.162 212.408C120.428 212.899 120.78 213.267 121.218 213.512C121.655 213.747 122.135 213.864 122.658 213.864ZM136.844 206.232V215H135.388V213.704C135.111 214.152 134.721 214.504 134.22 214.76C133.729 215.005 133.185 215.128 132.588 215.128C131.905 215.128 131.292 214.989 130.748 214.712C130.204 214.424 129.772 213.997 129.452 213.432C129.143 212.867 128.988 212.179 128.988 211.368V206.232H130.428V211.176C130.428 212.04 130.647 212.707 131.084 213.176C131.521 213.635 132.119 213.864 132.876 213.864C133.655 213.864 134.268 213.624 134.716 213.144C135.164 212.664 135.388 211.965 135.388 211.048V206.232H136.844ZM143.024 210.584C143.024 209.688 143.205 208.904 143.568 208.232C143.931 207.549 144.427 207.021 145.056 206.648C145.696 206.275 146.411 206.088 147.2 206.088C147.883 206.088 148.517 206.248 149.104 206.568C149.691 206.877 150.139 207.288 150.448 207.8V203.16H151.92V215H150.448V213.352C150.16 213.875 149.733 214.307 149.168 214.648C148.603 214.979 147.941 215.144 147.184 215.144C146.405 215.144 145.696 214.952 145.056 214.568C144.427 214.184 143.931 213.645 143.568 212.952C143.205 212.259 143.024 211.469 143.024 210.584ZM150.448 210.6C150.448 209.939 150.315 209.363 150.048 208.872C149.781 208.381 149.419 208.008 148.96 207.752C148.512 207.485 148.016 207.352 147.472 207.352C146.928 207.352 146.432 207.48 145.984 207.736C145.536 207.992 145.179 208.365 144.912 208.856C144.645 209.347 144.512 209.923 144.512 210.584C144.512 211.256 144.645 211.843 144.912 212.344C145.179 212.835 145.536 213.213 145.984 213.48C146.432 213.736 146.928 213.864 147.472 213.864C148.016 213.864 148.512 213.736 148.96 213.48C149.419 213.213 149.781 212.835 150.048 212.344C150.315 211.843 150.448 211.261 150.448 210.6ZM158.204 215.144C157.383 215.144 156.636 214.957 155.964 214.584C155.303 214.211 154.78 213.683 154.396 213C154.023 212.307 153.836 211.507 153.836 210.6C153.836 209.704 154.028 208.915 154.412 208.232C154.807 207.539 155.34 207.011 156.012 206.648C156.684 206.275 157.436 206.088 158.268 206.088C159.1 206.088 159.852 206.275 160.524 206.648C161.196 207.011 161.724 207.533 162.108 208.216C162.503 208.899 162.7 209.693 162.7 210.6C162.7 211.507 162.498 212.307 162.092 213C161.698 213.683 161.159 214.211 160.476 214.584C159.794 214.957 159.036 215.144 158.204 215.144ZM158.204 213.864C158.727 213.864 159.218 213.741 159.676 213.496C160.135 213.251 160.503 212.883 160.78 212.392C161.068 211.901 161.212 211.304 161.212 210.6C161.212 209.896 161.074 209.299 160.796 208.808C160.519 208.317 160.156 207.955 159.708 207.72C159.26 207.475 158.775 207.352 158.252 207.352C157.719 207.352 157.228 207.475 156.78 207.72C156.343 207.955 155.991 208.317 155.724 208.808C155.458 209.299 155.324 209.896 155.324 210.6C155.324 211.315 155.452 211.917 155.708 212.408C155.975 212.899 156.327 213.267 156.764 213.512C157.202 213.747 157.682 213.864 158.204 213.864ZM168.887 206.072C169.953 206.072 170.817 206.397 171.479 207.048C172.14 207.688 172.471 208.616 172.471 209.832V215H171.031V210.04C171.031 209.165 170.812 208.499 170.375 208.04C169.937 207.571 169.34 207.336 168.583 207.336C167.815 207.336 167.201 207.576 166.743 208.056C166.295 208.536 166.071 209.235 166.071 210.152V215H164.615V206.232H166.071V207.48C166.359 207.032 166.748 206.685 167.239 206.44C167.74 206.195 168.289 206.072 168.887 206.072ZM175.073 203.848H176.689L175.153 207.48H174.129L175.073 203.848ZM180.125 207.432V212.6C180.125 213.027 180.216 213.331 180.397 213.512C180.579 213.683 180.893 213.768 181.341 213.768H182.413V215H181.101C180.291 215 179.683 214.813 179.277 214.44C178.872 214.067 178.669 213.453 178.669 212.6V207.432H177.533V206.232H178.669V204.024H180.125V206.232H182.413V207.432H180.125ZM192.795 206.072C193.456 206.072 194.054 206.216 194.587 206.504C195.12 206.781 195.536 207.203 195.835 207.768C196.144 208.333 196.299 209.021 196.299 209.832V215H194.859V210.04C194.859 209.165 194.64 208.499 194.203 208.04C193.766 207.571 193.168 207.336 192.411 207.336C191.643 207.336 191.03 207.576 190.571 208.056C190.123 208.536 189.899 209.235 189.899 210.152V215H188.443V203.16H189.899V207.48C190.187 207.032 190.582 206.685 191.083 206.44C191.595 206.195 192.166 206.072 192.795 206.072ZM198.133 210.584C198.133 209.688 198.315 208.904 198.677 208.232C199.04 207.549 199.536 207.021 200.165 206.648C200.805 206.275 201.515 206.088 202.293 206.088C203.061 206.088 203.728 206.253 204.293 206.584C204.859 206.915 205.28 207.331 205.557 207.832V206.232H207.029V215H205.557V213.368C205.269 213.88 204.837 214.307 204.261 214.648C203.696 214.979 203.035 215.144 202.277 215.144C201.499 215.144 200.795 214.952 200.165 214.568C199.536 214.184 199.04 213.645 198.677 212.952C198.315 212.259 198.133 211.469 198.133 210.584ZM205.557 210.6C205.557 209.939 205.424 209.363 205.157 208.872C204.891 208.381 204.528 208.008 204.069 207.752C203.621 207.485 203.125 207.352 202.581 207.352C202.037 207.352 201.541 207.48 201.093 207.736C200.645 207.992 200.288 208.365 200.021 208.856C199.755 209.347 199.621 209.923 199.621 210.584C199.621 211.256 199.755 211.843 200.021 212.344C200.288 212.835 200.645 213.213 201.093 213.48C201.541 213.736 202.037 213.864 202.581 213.864C203.125 213.864 203.621 213.736 204.069 213.48C204.528 213.213 204.891 212.835 205.157 212.344C205.424 211.843 205.557 211.261 205.557 210.6ZM212.754 213.656L215.474 206.232H217.026L213.586 215H211.89L208.45 206.232H210.018L212.754 213.656ZM226.459 210.28C226.459 210.557 226.443 210.851 226.411 211.16H219.403C219.456 212.024 219.749 212.701 220.283 213.192C220.827 213.672 221.483 213.912 222.251 213.912C222.88 213.912 223.403 213.768 223.819 213.48C224.245 213.181 224.544 212.787 224.715 212.296H226.283C226.048 213.139 225.579 213.827 224.875 214.36C224.171 214.883 223.296 215.144 222.251 215.144C221.419 215.144 220.672 214.957 220.011 214.584C219.36 214.211 218.848 213.683 218.475 213C218.101 212.307 217.915 211.507 217.915 210.6C217.915 209.693 218.096 208.899 218.459 208.216C218.821 207.533 219.328 207.011 219.979 206.648C220.64 206.275 221.397 206.088 222.251 206.088C223.083 206.088 223.819 206.269 224.459 206.632C225.099 206.995 225.589 207.496 225.931 208.136C226.283 208.765 226.459 209.48 226.459 210.28ZM224.955 209.976C224.955 209.421 224.832 208.947 224.587 208.552C224.341 208.147 224.005 207.843 223.579 207.64C223.163 207.427 222.699 207.32 222.187 207.32C221.451 207.32 220.821 207.555 220.299 208.024C219.787 208.493 219.493 209.144 219.419 209.976H224.955ZM54.9462 227.848C56.1622 227.848 57.2129 228.077 58.0982 228.536C58.9942 228.984 59.6769 229.629 60.1462 230.472C60.6262 231.315 60.8662 232.307 60.8662 233.448C60.8662 234.589 60.6262 235.581 60.1462 236.424C59.6769 237.256 58.9942 237.896 58.0982 238.344C57.2129 238.781 56.1622 239 54.9462 239H51.4742V227.848H54.9462ZM54.9462 237.8C56.3862 237.8 57.4849 237.421 58.2422 236.664C58.9995 235.896 59.3782 234.824 59.3782 233.448C59.3782 232.061 58.9942 230.979 58.2262 230.2C57.4689 229.421 56.3755 229.032 54.9462 229.032H52.9302V237.8H54.9462ZM62.2427 234.584C62.2427 233.688 62.424 232.904 62.7867 232.232C63.1494 231.549 63.6454 231.021 64.2747 230.648C64.9147 230.275 65.624 230.088 66.4027 230.088C67.1707 230.088 67.8374 230.253 68.4027 230.584C68.968 230.915 69.3894 231.331 69.6667 231.832V230.232H71.1387V239H69.6667V237.368C69.3787 237.88 68.9467 238.307 68.3707 238.648C67.8054 238.979 67.144 239.144 66.3867 239.144C65.608 239.144 64.904 238.952 64.2747 238.568C63.6454 238.184 63.1494 237.645 62.7867 236.952C62.424 236.259 62.2427 235.469 62.2427 234.584ZM69.6667 234.6C69.6667 233.939 69.5334 233.363 69.2667 232.872C69 232.381 68.6374 232.008 68.1787 231.752C67.7307 231.485 67.2347 231.352 66.6907 231.352C66.1467 231.352 65.6507 231.48 65.2027 231.736C64.7547 231.992 64.3974 232.365 64.1307 232.856C63.864 233.347 63.7307 233.923 63.7307 234.584C63.7307 235.256 63.864 235.843 64.1307 236.344C64.3974 236.835 64.7547 237.213 65.2027 237.48C65.6507 237.736 66.1467 237.864 66.6907 237.864C67.2347 237.864 67.7307 237.736 68.1787 237.48C68.6374 237.213 69 236.835 69.2667 236.344C69.5334 235.843 69.6667 235.261 69.6667 234.6ZM74.3512 228.808C74.0739 228.808 73.8392 228.712 73.6472 228.52C73.4552 228.328 73.3592 228.093 73.3592 227.816C73.3592 227.539 73.4552 227.304 73.6472 227.112C73.8392 226.92 74.0739 226.824 74.3512 226.824C74.6179 226.824 74.8419 226.92 75.0232 227.112C75.2152 227.304 75.3112 227.539 75.3112 227.816C75.3112 228.093 75.2152 228.328 75.0232 228.52C74.8419 228.712 74.6179 228.808 74.3512 228.808ZM75.0552 230.232V239H73.5992V230.232H75.0552ZM78.9927 227.16V239H77.5367V227.16H78.9927ZM89.0262 230.232L83.7462 243.128H82.2422L83.9702 238.904L80.4342 230.232H82.0502L84.8022 237.336L87.5222 230.232H89.0262ZM106.435 230.232L103.699 239H102.195L100.083 232.04L97.9714 239H96.4674L93.7154 230.232H95.2034L97.2194 237.592L99.3954 230.232H100.883L103.011 237.608L104.995 230.232H106.435ZM107.336 234.584C107.336 233.688 107.518 232.904 107.88 232.232C108.243 231.549 108.739 231.021 109.368 230.648C110.008 230.275 110.718 230.088 111.496 230.088C112.264 230.088 112.931 230.253 113.496 230.584C114.062 230.915 114.483 231.331 114.76 231.832V230.232H116.232V239H114.76V237.368C114.472 237.88 114.04 238.307 113.464 238.648C112.899 238.979 112.238 239.144 111.48 239.144C110.702 239.144 109.998 238.952 109.368 238.568C108.739 238.184 108.243 237.645 107.88 236.952C107.518 236.259 107.336 235.469 107.336 234.584ZM114.76 234.6C114.76 233.939 114.627 233.363 114.36 232.872C114.094 232.381 113.731 232.008 113.272 231.752C112.824 231.485 112.328 231.352 111.784 231.352C111.24 231.352 110.744 231.48 110.296 231.736C109.848 231.992 109.491 232.365 109.224 232.856C108.958 233.347 108.824 233.923 108.824 234.584C108.824 235.256 108.958 235.843 109.224 236.344C109.491 236.835 109.848 237.213 110.296 237.48C110.744 237.736 111.24 237.864 111.784 237.864C112.328 237.864 112.824 237.736 113.272 237.48C113.731 237.213 114.094 236.835 114.36 236.344C114.627 235.843 114.76 235.261 114.76 234.6ZM122.309 230.088C123.066 230.088 123.728 230.253 124.293 230.584C124.869 230.915 125.296 231.331 125.573 231.832V230.232H127.045V239.192C127.045 239.992 126.874 240.701 126.533 241.32C126.192 241.949 125.701 242.44 125.061 242.792C124.432 243.144 123.696 243.32 122.853 243.32C121.701 243.32 120.741 243.048 119.973 242.504C119.205 241.96 118.752 241.219 118.613 240.28H120.053C120.213 240.813 120.544 241.24 121.045 241.56C121.546 241.891 122.149 242.056 122.853 242.056C123.653 242.056 124.304 241.805 124.805 241.304C125.317 240.803 125.573 240.099 125.573 239.192V237.352C125.285 237.864 124.858 238.291 124.293 238.632C123.728 238.973 123.066 239.144 122.309 239.144C121.53 239.144 120.821 238.952 120.181 238.568C119.552 238.184 119.056 237.645 118.693 236.952C118.33 236.259 118.149 235.469 118.149 234.584C118.149 233.688 118.33 232.904 118.693 232.232C119.056 231.549 119.552 231.021 120.181 230.648C120.821 230.275 121.53 230.088 122.309 230.088ZM125.573 234.6C125.573 233.939 125.44 233.363 125.173 232.872C124.906 232.381 124.544 232.008 124.085 231.752C123.637 231.485 123.141 231.352 122.597 231.352C122.053 231.352 121.557 231.48 121.109 231.736C120.661 231.992 120.304 232.365 120.037 232.856C119.77 233.347 119.637 233.923 119.637 234.584C119.637 235.256 119.77 235.843 120.037 236.344C120.304 236.835 120.661 237.213 121.109 237.48C121.557 237.736 122.053 237.864 122.597 237.864C123.141 237.864 123.637 237.736 124.085 237.48C124.544 237.213 124.906 236.835 125.173 236.344C125.44 235.843 125.573 235.261 125.573 234.6ZM137.505 234.28C137.505 234.557 137.489 234.851 137.457 235.16H130.449C130.503 236.024 130.796 236.701 131.329 237.192C131.873 237.672 132.529 237.912 133.297 237.912C133.927 237.912 134.449 237.768 134.865 237.48C135.292 237.181 135.591 236.787 135.761 236.296H137.329C137.095 237.139 136.625 237.827 135.921 238.36C135.217 238.883 134.343 239.144 133.297 239.144C132.465 239.144 131.719 238.957 131.057 238.584C130.407 238.211 129.895 237.683 129.521 237C129.148 236.307 128.961 235.507 128.961 234.6C128.961 233.693 129.143 232.899 129.505 232.216C129.868 231.533 130.375 231.011 131.025 230.648C131.687 230.275 132.444 230.088 133.297 230.088C134.129 230.088 134.865 230.269 135.505 230.632C136.145 230.995 136.636 231.496 136.977 232.136C137.329 232.765 137.505 233.48 137.505 234.28ZM136.001 233.976C136.001 233.421 135.879 232.947 135.633 232.552C135.388 232.147 135.052 231.843 134.625 231.64C134.209 231.427 133.745 231.32 133.233 231.32C132.497 231.32 131.868 231.555 131.345 232.024C130.833 232.493 130.54 233.144 130.465 233.976H136.001ZM142.531 239.144C141.859 239.144 141.257 239.032 140.723 238.808C140.19 238.573 139.769 238.253 139.459 237.848C139.15 237.432 138.979 236.957 138.947 236.424H140.451C140.494 236.861 140.697 237.219 141.059 237.496C141.433 237.773 141.918 237.912 142.515 237.912C143.07 237.912 143.507 237.789 143.827 237.544C144.147 237.299 144.307 236.989 144.307 236.616C144.307 236.232 144.137 235.949 143.795 235.768C143.454 235.576 142.926 235.389 142.211 235.208C141.561 235.037 141.027 234.867 140.611 234.696C140.206 234.515 139.854 234.253 139.555 233.912C139.267 233.56 139.123 233.101 139.123 232.536C139.123 232.088 139.257 231.677 139.523 231.304C139.79 230.931 140.169 230.637 140.659 230.424C141.15 230.2 141.71 230.088 142.339 230.088C143.31 230.088 144.094 230.333 144.691 230.824C145.289 231.315 145.609 231.987 145.651 232.84H144.195C144.163 232.381 143.977 232.013 143.635 231.736C143.305 231.459 142.857 231.32 142.291 231.32C141.769 231.32 141.353 231.432 141.043 231.656C140.734 231.88 140.579 232.173 140.579 232.536C140.579 232.824 140.67 233.064 140.851 233.256C141.043 233.437 141.278 233.587 141.555 233.704C141.843 233.811 142.238 233.933 142.739 234.072C143.369 234.243 143.881 234.413 144.275 234.584C144.67 234.744 145.006 234.989 145.283 235.32C145.571 235.651 145.721 236.083 145.731 236.616C145.731 237.096 145.598 237.528 145.331 237.912C145.065 238.296 144.686 238.6 144.195 238.824C143.715 239.037 143.161 239.144 142.531 239.144ZM149.291 236.984L147.499 241.288H146.523L147.691 236.984H149.291ZM156.68 231.848C156.968 231.347 157.395 230.931 157.96 230.6C158.536 230.259 159.203 230.088 159.96 230.088C160.739 230.088 161.443 230.275 162.072 230.648C162.712 231.021 163.214 231.549 163.576 232.232C163.939 232.904 164.12 233.688 164.12 234.584C164.12 235.469 163.939 236.259 163.576 236.952C163.214 237.645 162.712 238.184 162.072 238.568C161.443 238.952 160.739 239.144 159.96 239.144C159.214 239.144 158.552 238.979 157.976 238.648C157.411 238.307 156.979 237.885 156.68 237.384V243.16H155.224V230.232H156.68V231.848ZM162.632 234.584C162.632 233.923 162.499 233.347 162.232 232.856C161.966 232.365 161.603 231.992 161.144 231.736C160.696 231.48 160.2 231.352 159.656 231.352C159.123 231.352 158.627 231.485 158.168 231.752C157.72 232.008 157.358 232.387 157.08 232.888C156.814 233.379 156.68 233.949 156.68 234.6C156.68 235.261 156.814 235.843 157.08 236.344C157.358 236.835 157.72 237.213 158.168 237.48C158.627 237.736 159.123 237.864 159.656 237.864C160.2 237.864 160.696 237.736 161.144 237.48C161.603 237.213 161.966 236.835 162.232 236.344C162.499 235.843 162.632 235.256 162.632 234.584ZM167.493 227.16V239H166.037V227.16H167.493ZM177.974 234.28C177.974 234.557 177.958 234.851 177.926 235.16H170.918C170.972 236.024 171.265 236.701 171.798 237.192C172.342 237.672 172.998 237.912 173.766 237.912C174.396 237.912 174.918 237.768 175.334 237.48C175.761 237.181 176.06 236.787 176.23 236.296H177.798C177.564 237.139 177.094 237.827 176.39 238.36C175.686 238.883 174.812 239.144 173.766 239.144C172.934 239.144 172.188 238.957 171.526 238.584C170.876 238.211 170.364 237.683 169.99 237C169.617 236.307 169.43 235.507 169.43 234.6C169.43 233.693 169.612 232.899 169.974 232.216C170.337 231.533 170.844 231.011 171.494 230.648C172.156 230.275 172.913 230.088 173.766 230.088C174.598 230.088 175.334 230.269 175.974 230.632C176.614 230.995 177.105 231.496 177.446 232.136C177.798 232.765 177.974 233.48 177.974 234.28ZM176.47 233.976C176.47 233.421 176.348 232.947 176.102 232.552C175.857 232.147 175.521 231.843 175.094 231.64C174.678 231.427 174.214 231.32 173.702 231.32C172.966 231.32 172.337 231.555 171.814 232.024C171.302 232.493 171.009 233.144 170.934 233.976H176.47ZM179.352 234.584C179.352 233.688 179.533 232.904 179.896 232.232C180.259 231.549 180.755 231.021 181.384 230.648C182.024 230.275 182.733 230.088 183.512 230.088C184.28 230.088 184.947 230.253 185.512 230.584C186.077 230.915 186.499 231.331 186.776 231.832V230.232H188.248V239H186.776V237.368C186.488 237.88 186.056 238.307 185.48 238.648C184.915 238.979 184.253 239.144 183.496 239.144C182.717 239.144 182.013 238.952 181.384 238.568C180.755 238.184 180.259 237.645 179.896 236.952C179.533 236.259 179.352 235.469 179.352 234.584ZM186.776 234.6C186.776 233.939 186.643 233.363 186.376 232.872C186.109 232.381 185.747 232.008 185.288 231.752C184.84 231.485 184.344 231.352 183.8 231.352C183.256 231.352 182.76 231.48 182.312 231.736C181.864 231.992 181.507 232.365 181.24 232.856C180.973 233.347 180.84 233.923 180.84 234.584C180.84 235.256 180.973 235.843 181.24 236.344C181.507 236.835 181.864 237.213 182.312 237.48C182.76 237.736 183.256 237.864 183.8 237.864C184.344 237.864 184.84 237.736 185.288 237.48C185.747 237.213 186.109 236.835 186.376 236.344C186.643 235.843 186.776 235.261 186.776 234.6ZM193.813 239.144C193.141 239.144 192.538 239.032 192.005 238.808C191.471 238.573 191.05 238.253 190.741 237.848C190.431 237.432 190.261 236.957 190.229 236.424H191.733C191.775 236.861 191.978 237.219 192.341 237.496C192.714 237.773 193.199 237.912 193.797 237.912C194.351 237.912 194.789 237.789 195.109 237.544C195.429 237.299 195.589 236.989 195.589 236.616C195.589 236.232 195.418 235.949 195.077 235.768C194.735 235.576 194.207 235.389 193.493 235.208C192.842 235.037 192.309 234.867 191.893 234.696C191.487 234.515 191.135 234.253 190.837 233.912C190.549 233.56 190.405 233.101 190.405 232.536C190.405 232.088 190.538 231.677 190.805 231.304C191.071 230.931 191.45 230.637 191.941 230.424C192.431 230.2 192.991 230.088 193.621 230.088C194.591 230.088 195.375 230.333 195.973 230.824C196.57 231.315 196.89 231.987 196.933 232.84H195.477C195.445 232.381 195.258 232.013 194.917 231.736C194.586 231.459 194.138 231.32 193.573 231.32C193.05 231.32 192.634 231.432 192.325 231.656C192.015 231.88 191.861 232.173 191.861 232.536C191.861 232.824 191.951 233.064 192.133 233.256C192.325 233.437 192.559 233.587 192.837 233.704C193.125 233.811 193.519 233.933 194.021 234.072C194.65 234.243 195.162 234.413 195.557 234.584C195.951 234.744 196.287 234.989 196.565 235.32C196.853 235.651 197.002 236.083 197.013 236.616C197.013 237.096 196.879 237.528 196.613 237.912C196.346 238.296 195.967 238.6 195.477 238.824C194.997 239.037 194.442 239.144 193.813 239.144ZM207.068 234.28C207.068 234.557 207.052 234.851 207.02 235.16H200.012C200.065 236.024 200.359 236.701 200.892 237.192C201.436 237.672 202.092 237.912 202.86 237.912C203.489 237.912 204.012 237.768 204.428 237.48C204.855 237.181 205.153 236.787 205.324 236.296H206.892C206.657 237.139 206.188 237.827 205.484 238.36C204.78 238.883 203.905 239.144 202.86 239.144C202.028 239.144 201.281 238.957 200.62 238.584C199.969 238.211 199.457 237.683 199.084 237C198.711 236.307 198.524 235.507 198.524 234.6C198.524 233.693 198.705 232.899 199.068 232.216C199.431 231.533 199.937 231.011 200.588 230.648C201.249 230.275 202.007 230.088 202.86 230.088C203.692 230.088 204.428 230.269 205.068 230.632C205.708 230.995 206.199 231.496 206.54 232.136C206.892 232.765 207.068 233.48 207.068 234.28ZM205.564 233.976C205.564 233.421 205.441 232.947 205.196 232.552C204.951 232.147 204.615 231.843 204.188 231.64C203.772 231.427 203.308 231.32 202.796 231.32C202.06 231.32 201.431 231.555 200.908 232.024C200.396 232.493 200.103 233.144 200.028 233.976H205.564ZM61.5005 259.584C61.5005 258.688 61.6818 257.904 62.0445 257.232C62.4072 256.549 62.9032 256.021 63.5325 255.648C64.1725 255.275 64.8818 255.088 65.6605 255.088C66.4285 255.088 67.0952 255.253 67.6605 255.584C68.2258 255.915 68.6472 256.331 68.9245 256.832V255.232H70.3965V264H68.9245V262.368C68.6365 262.88 68.2045 263.307 67.6285 263.648C67.0632 263.979 66.4018 264.144 65.6445 264.144C64.8658 264.144 64.1618 263.952 63.5325 263.568C62.9032 263.184 62.4072 262.645 62.0445 261.952C61.6818 261.259 61.5005 260.469 61.5005 259.584ZM68.9245 259.6C68.9245 258.939 68.7912 258.363 68.5245 257.872C68.2578 257.381 67.8952 257.008 67.4365 256.752C66.9885 256.485 66.4925 256.352 65.9485 256.352C65.4045 256.352 64.9085 256.48 64.4605 256.736C64.0125 256.992 63.6552 257.365 63.3885 257.856C63.1218 258.347 62.9885 258.923 62.9885 259.584C62.9885 260.256 63.1218 260.843 63.3885 261.344C63.6552 261.835 64.0125 262.213 64.4605 262.48C64.9085 262.736 65.4045 262.864 65.9485 262.864C66.4925 262.864 66.9885 262.736 67.4365 262.48C67.8952 262.213 68.2578 261.835 68.5245 261.344C68.7912 260.843 68.9245 260.261 68.9245 259.6ZM72.313 259.584C72.313 258.688 72.4943 257.904 72.857 257.232C73.2197 256.549 73.7157 256.021 74.345 255.648C74.985 255.275 75.6997 255.088 76.489 255.088C77.1717 255.088 77.8063 255.248 78.393 255.568C78.9797 255.877 79.4277 256.288 79.737 256.8V252.16H81.209V264H79.737V262.352C79.449 262.875 79.0223 263.307 78.457 263.648C77.8917 263.979 77.2303 264.144 76.473 264.144C75.6943 264.144 74.985 263.952 74.345 263.568C73.7157 263.184 73.2197 262.645 72.857 261.952C72.4943 261.259 72.313 260.469 72.313 259.584ZM79.737 259.6C79.737 258.939 79.6037 258.363 79.337 257.872C79.0703 257.381 78.7077 257.008 78.249 256.752C77.801 256.485 77.305 256.352 76.761 256.352C76.217 256.352 75.721 256.48 75.273 256.736C74.825 256.992 74.4677 257.365 74.201 257.856C73.9343 258.347 73.801 258.923 73.801 259.584C73.801 260.256 73.9343 260.843 74.201 261.344C74.4677 261.835 74.825 262.213 75.273 262.48C75.721 262.736 76.217 262.864 76.761 262.864C77.305 262.864 77.801 262.736 78.249 262.48C78.7077 262.213 79.0703 261.835 79.337 261.344C79.6037 260.843 79.737 260.261 79.737 259.6ZM83.1255 259.584C83.1255 258.688 83.3068 257.904 83.6695 257.232C84.0322 256.549 84.5282 256.021 85.1575 255.648C85.7975 255.275 86.5122 255.088 87.3015 255.088C87.9842 255.088 88.6188 255.248 89.2055 255.568C89.7922 255.877 90.2402 256.288 90.5495 256.8V252.16H92.0215V264H90.5495V262.352C90.2615 262.875 89.8348 263.307 89.2695 263.648C88.7042 263.979 88.0428 264.144 87.2855 264.144C86.5068 264.144 85.7975 263.952 85.1575 263.568C84.5282 263.184 84.0322 262.645 83.6695 261.952C83.3068 261.259 83.1255 260.469 83.1255 259.584ZM90.5495 259.6C90.5495 258.939 90.4162 258.363 90.1495 257.872C89.8828 257.381 89.5202 257.008 89.0615 256.752C88.6135 256.485 88.1175 256.352 87.5735 256.352C87.0295 256.352 86.5335 256.48 86.0855 256.736C85.6375 256.992 85.2802 257.365 85.0135 257.856C84.7468 258.347 84.6135 258.923 84.6135 259.584C84.6135 260.256 84.7468 260.843 85.0135 261.344C85.2802 261.835 85.6375 262.213 86.0855 262.48C86.5335 262.736 87.0295 262.864 87.5735 262.864C88.1175 262.864 88.6135 262.736 89.0615 262.48C89.5202 262.213 89.8828 261.835 90.1495 261.344C90.4162 260.843 90.5495 260.261 90.5495 259.6ZM102.22 252.848C103.436 252.848 104.486 253.077 105.372 253.536C106.268 253.984 106.95 254.629 107.42 255.472C107.9 256.315 108.14 257.307 108.14 258.448C108.14 259.589 107.9 260.581 107.42 261.424C106.95 262.256 106.268 262.896 105.372 263.344C104.486 263.781 103.436 264 102.22 264H98.7476V252.848H102.22ZM102.22 262.8C103.66 262.8 104.758 262.421 105.516 261.664C106.273 260.896 106.652 259.824 106.652 258.448C106.652 257.061 106.268 255.979 105.5 255.2C104.742 254.421 103.649 254.032 102.22 254.032H100.204V262.8H102.22ZM109.516 259.584C109.516 258.688 109.697 257.904 110.06 257.232C110.423 256.549 110.919 256.021 111.548 255.648C112.188 255.275 112.897 255.088 113.676 255.088C114.444 255.088 115.111 255.253 115.676 255.584C116.241 255.915 116.663 256.331 116.94 256.832V255.232H118.412V264H116.94V262.368C116.652 262.88 116.22 263.307 115.644 263.648C115.079 263.979 114.417 264.144 113.66 264.144C112.881 264.144 112.177 263.952 111.548 263.568C110.919 263.184 110.423 262.645 110.06 261.952C109.697 261.259 109.516 260.469 109.516 259.584ZM116.94 259.6C116.94 258.939 116.807 258.363 116.54 257.872C116.273 257.381 115.911 257.008 115.452 256.752C115.004 256.485 114.508 256.352 113.964 256.352C113.42 256.352 112.924 256.48 112.476 256.736C112.028 256.992 111.671 257.365 111.404 257.856C111.137 258.347 111.004 258.923 111.004 259.584C111.004 260.256 111.137 260.843 111.404 261.344C111.671 261.835 112.028 262.213 112.476 262.48C112.924 262.736 113.42 262.864 113.964 262.864C114.508 262.864 115.004 262.736 115.452 262.48C115.911 262.213 116.273 261.835 116.54 261.344C116.807 260.843 116.94 260.261 116.94 259.6ZM121.625 253.808C121.347 253.808 121.113 253.712 120.921 253.52C120.729 253.328 120.633 253.093 120.633 252.816C120.633 252.539 120.729 252.304 120.921 252.112C121.113 251.92 121.347 251.824 121.625 251.824C121.891 251.824 122.115 251.92 122.297 252.112C122.489 252.304 122.585 252.539 122.585 252.816C122.585 253.093 122.489 253.328 122.297 253.52C122.115 253.712 121.891 253.808 121.625 253.808ZM122.329 255.232V264H120.873V255.232H122.329ZM126.266 252.16V264H124.81V252.16H126.266ZM136.3 255.232L131.02 268.128H129.516L131.244 263.904L127.708 255.232H129.324L132.076 262.336L134.796 255.232H136.3ZM153.709 255.232L150.973 264H149.469L147.357 257.04L145.245 264H143.741L140.989 255.232H142.477L144.493 262.592L146.669 255.232H148.157L150.285 262.608L152.269 255.232H153.709ZM154.61 259.584C154.61 258.688 154.791 257.904 155.154 257.232C155.517 256.549 156.013 256.021 156.642 255.648C157.282 255.275 157.991 255.088 158.77 255.088C159.538 255.088 160.205 255.253 160.77 255.584C161.335 255.915 161.757 256.331 162.034 256.832V255.232H163.506V264H162.034V262.368C161.746 262.88 161.314 263.307 160.738 263.648C160.173 263.979 159.511 264.144 158.754 264.144C157.975 264.144 157.271 263.952 156.642 263.568C156.013 263.184 155.517 262.645 155.154 261.952C154.791 261.259 154.61 260.469 154.61 259.584ZM162.034 259.6C162.034 258.939 161.901 258.363 161.634 257.872C161.367 257.381 161.005 257.008 160.546 256.752C160.098 256.485 159.602 256.352 159.058 256.352C158.514 256.352 158.018 256.48 157.57 256.736C157.122 256.992 156.765 257.365 156.498 257.856C156.231 258.347 156.098 258.923 156.098 259.584C156.098 260.256 156.231 260.843 156.498 261.344C156.765 261.835 157.122 262.213 157.57 262.48C158.018 262.736 158.514 262.864 159.058 262.864C159.602 262.864 160.098 262.736 160.546 262.48C161.005 262.213 161.367 261.835 161.634 261.344C161.901 260.843 162.034 260.261 162.034 259.6ZM169.582 255.088C170.34 255.088 171.001 255.253 171.566 255.584C172.142 255.915 172.569 256.331 172.846 256.832V255.232H174.318V264.192C174.318 264.992 174.148 265.701 173.806 266.32C173.465 266.949 172.974 267.44 172.334 267.792C171.705 268.144 170.969 268.32 170.126 268.32C168.974 268.32 168.014 268.048 167.246 267.504C166.478 266.96 166.025 266.219 165.886 265.28H167.326C167.486 265.813 167.817 266.24 168.318 266.56C168.82 266.891 169.422 267.056 170.126 267.056C170.926 267.056 171.577 266.805 172.078 266.304C172.59 265.803 172.846 265.099 172.846 264.192V262.352C172.558 262.864 172.132 263.291 171.566 263.632C171.001 263.973 170.34 264.144 169.582 264.144C168.804 264.144 168.094 263.952 167.454 263.568C166.825 263.184 166.329 262.645 165.966 261.952C165.604 261.259 165.422 260.469 165.422 259.584C165.422 258.688 165.604 257.904 165.966 257.232C166.329 256.549 166.825 256.021 167.454 255.648C168.094 255.275 168.804 255.088 169.582 255.088ZM172.846 259.6C172.846 258.939 172.713 258.363 172.446 257.872C172.18 257.381 171.817 257.008 171.358 256.752C170.91 256.485 170.414 256.352 169.87 256.352C169.326 256.352 168.83 256.48 168.382 256.736C167.934 256.992 167.577 257.365 167.31 257.856C167.044 258.347 166.91 258.923 166.91 259.584C166.91 260.256 167.044 260.843 167.31 261.344C167.577 261.835 167.934 262.213 168.382 262.48C168.83 262.736 169.326 262.864 169.87 262.864C170.414 262.864 170.91 262.736 171.358 262.48C171.817 262.213 172.18 261.835 172.446 261.344C172.713 260.843 172.846 260.261 172.846 259.6ZM184.779 259.28C184.779 259.557 184.763 259.851 184.731 260.16H177.723C177.776 261.024 178.07 261.701 178.603 262.192C179.147 262.672 179.803 262.912 180.571 262.912C181.2 262.912 181.723 262.768 182.139 262.48C182.566 262.181 182.864 261.787 183.035 261.296H184.603C184.368 262.139 183.899 262.827 183.195 263.36C182.491 263.883 181.616 264.144 180.571 264.144C179.739 264.144 178.992 263.957 178.331 263.584C177.68 263.211 177.168 262.683 176.795 262C176.422 261.307 176.235 260.507 176.235 259.6C176.235 258.693 176.416 257.899 176.779 257.216C177.142 256.533 177.648 256.011 178.299 255.648C178.96 255.275 179.718 255.088 180.571 255.088C181.403 255.088 182.139 255.269 182.779 255.632C183.419 255.995 183.91 256.496 184.251 257.136C184.603 257.765 184.779 258.48 184.779 259.28ZM183.275 258.976C183.275 258.421 183.152 257.947 182.907 257.552C182.662 257.147 182.326 256.843 181.899 256.64C181.483 256.427 181.019 256.32 180.507 256.32C179.771 256.32 179.142 256.555 178.619 257.024C178.107 257.493 177.814 258.144 177.739 258.976H183.275ZM189.805 264.144C189.133 264.144 188.53 264.032 187.997 263.808C187.463 263.573 187.042 263.253 186.733 262.848C186.423 262.432 186.253 261.957 186.221 261.424H187.725C187.767 261.861 187.97 262.219 188.333 262.496C188.706 262.773 189.191 262.912 189.789 262.912C190.343 262.912 190.781 262.789 191.101 262.544C191.421 262.299 191.581 261.989 191.581 261.616C191.581 261.232 191.41 260.949 191.069 260.768C190.727 260.576 190.199 260.389 189.485 260.208C188.834 260.037 188.301 259.867 187.885 259.696C187.479 259.515 187.127 259.253 186.829 258.912C186.541 258.56 186.397 258.101 186.397 257.536C186.397 257.088 186.53 256.677 186.797 256.304C187.063 255.931 187.442 255.637 187.933 255.424C188.423 255.2 188.983 255.088 189.613 255.088C190.583 255.088 191.367 255.333 191.965 255.824C192.562 256.315 192.882 256.987 192.925 257.84H191.469C191.437 257.381 191.25 257.013 190.909 256.736C190.578 256.459 190.13 256.32 189.565 256.32C189.042 256.32 188.626 256.432 188.317 256.656C188.007 256.88 187.853 257.173 187.853 257.536C187.853 257.824 187.943 258.064 188.125 258.256C188.317 258.437 188.551 258.587 188.829 258.704C189.117 258.811 189.511 258.933 190.013 259.072C190.642 259.243 191.154 259.413 191.549 259.584C191.943 259.744 192.279 259.989 192.557 260.32C192.845 260.651 192.994 261.083 193.005 261.616C193.005 262.096 192.871 262.528 192.605 262.912C192.338 263.296 191.959 263.6 191.469 263.824C190.989 264.037 190.434 264.144 189.805 264.144ZM195.524 264.096C195.247 264.096 195.012 264 194.82 263.808C194.628 263.616 194.532 263.381 194.532 263.104C194.532 262.827 194.628 262.592 194.82 262.4C195.012 262.208 195.247 262.112 195.524 262.112C195.791 262.112 196.015 262.208 196.196 262.4C196.388 262.592 196.484 262.827 196.484 263.104C196.484 263.381 196.388 263.616 196.196 263.808C196.015 264 195.791 264.096 195.524 264.096Z" fill="black"/>
<g clip-path="url(#clip0_2300_1787)">
<path d="M116.039 163.417C112.801 162.773 101.128 158.783 100.149 153.248C99.471 149.644 101.128 146.105 104.743 143.53C107.454 141.6 114.232 137.931 117.018 136.708C118.072 136.258 119.579 135.743 120.934 135.228C124.775 133.812 126.281 133.169 126.658 132.59C127.11 131.689 127.11 131.045 126.733 129.307V129.179L126.582 129.05C125.001 127.634 121.16 123.644 120.181 121.198C119.202 118.753 118.148 113.797 118.072 111.545V111.03H110.24C110.391 110 110.918 107.812 111.746 106.589C112.951 104.787 114.834 103.243 115.135 103.114L115.437 102.985V102.535C115.437 101.054 116.416 95.9058 120.784 92.1731C126.055 87.6681 133.436 84.4502 138.255 84.4502H138.557C143.377 84.4502 150.757 87.7324 156.029 92.1731C160.396 95.9058 161.376 101.054 161.376 102.535V102.856L161.677 102.985C161.978 103.114 163.861 104.658 165.066 106.46C165.894 107.683 166.346 109.871 166.572 110.901H158.664V111.416C158.664 113.668 157.535 118.624 156.556 121.07C155.577 123.515 151.736 127.505 150.154 128.921L150.004 129.05V129.179C149.627 130.916 149.552 131.56 150.079 132.461C150.38 133.104 151.887 133.684 155.803 135.099C157.158 135.614 158.589 136.129 159.719 136.58C162.58 137.802 169.283 141.471 171.994 143.402C175.609 145.976 177.266 149.516 176.588 153.12C175.534 158.654 163.936 162.644 160.698 163.288C158.288 162.58 145.335 161.615 140.741 161.615H139.385C139.084 161.615 138.783 161.679 138.331 161.679C137.954 161.679 137.578 161.615 137.276 161.615H135.921C131.402 161.743 118.449 162.709 116.039 163.417ZM160.02 160.263L160.246 160.199C161.376 160.006 171.618 158.011 173.049 151.768C173.802 148.228 168.982 145.139 166.647 143.723C165.066 142.694 163.71 141.986 161.978 141.213L161.225 140.892L157.309 159.748L157.911 159.813C158.89 159.941 159.568 160.07 159.794 160.134L160.02 160.263ZM114.759 141.213C112.725 142.114 111.445 142.887 110.09 143.723C107.755 145.204 102.935 148.293 103.688 151.768C105.119 158.011 115.286 160.006 116.491 160.199L116.717 160.263L116.868 160.134C117.093 160.07 117.847 159.941 118.75 159.813L119.353 159.748L115.437 140.892L114.759 141.213ZM139.762 158.59C144.054 158.654 147.97 158.847 150.983 159.105L151.585 159.169L155.05 138.446L154.296 138.124C153.694 137.867 153.016 137.674 152.338 137.416C149.778 136.515 147.142 135.614 146.088 132.461C145.937 131.882 145.862 131.302 145.937 130.659C146.012 129.887 146.314 129.243 146.615 128.406C146.69 128.085 146.841 127.827 146.991 127.441C148.723 126.154 151.209 123.065 152.489 120.941L153.317 119.461C153.92 118.109 154.447 114.956 154.748 112.574L154.824 111.995H121.913L121.989 112.574C122.44 116.05 122.968 118.367 123.419 119.461L124.248 120.941C125.603 123.129 128.089 126.218 129.821 127.505C129.971 127.827 130.047 128.149 130.197 128.406C130.499 129.179 130.8 129.887 130.875 130.659C130.95 131.302 130.95 131.882 130.724 132.461C129.67 135.614 127.034 136.515 124.474 137.416C123.796 137.674 123.118 137.867 122.516 138.124L121.763 138.446L125.227 159.169L125.829 159.105C128.917 158.847 132.758 158.654 137.05 158.59H139.762ZM119.127 103.629C118.524 103.886 117.621 104.337 116.642 105.752C116.114 106.46 116.039 107.04 115.964 107.426L115.888 108.005H160.773L160.698 107.426C160.698 107.04 160.547 106.525 160.095 105.752C159.116 104.337 158.137 103.886 157.61 103.629C157.61 101.762 157.685 98.0296 153.694 94.6187C148.498 90.1136 142.699 87.475 138.406 87.475C132.683 87.475 126.884 91.4008 123.118 94.6187C119.127 98.0296 119.127 101.827 119.127 103.629Z" fill="white"/>
</g>
<g clip-path="url(#clip1_2300_1787)">
<path d="M69.4947 143.392C67.3758 142.971 59.7379 140.36 59.0973 136.739C58.6538 134.38 59.7379 132.064 62.1032 130.38C63.8772 129.117 68.3121 126.716 70.1353 125.916C70.8252 125.622 71.8107 125.285 72.6977 124.948C75.2108 124.021 76.1964 123.6 76.4427 123.221C76.7384 122.632 76.7384 122.211 76.492 121.074V120.989L76.3935 120.905C75.3586 119.979 72.8455 117.368 72.2049 115.768C71.5643 114.167 70.8745 110.925 70.8252 109.451V109.114H65.7004C65.799 108.44 66.1439 107.009 66.6859 106.209C67.4744 105.03 68.7063 104.019 68.9034 103.935L69.1005 103.85V103.556C69.1005 102.587 69.7411 99.2183 72.5992 96.7759C76.0485 93.8282 80.8776 91.7227 84.0313 91.7227H84.2285C87.3822 91.7227 92.2113 93.8703 95.6606 96.7759C98.5187 99.2183 99.1593 102.587 99.1593 103.556V103.766L99.3564 103.85C99.5535 103.935 100.785 104.945 101.574 106.124C102.116 106.925 102.412 108.356 102.559 109.03H97.3853V109.367C97.3853 110.841 96.6462 114.083 96.0056 115.683C95.365 117.284 92.8519 119.895 91.8171 120.821L91.7185 120.905V120.989C91.4721 122.126 91.4229 122.547 91.7678 123.137C91.9649 123.558 92.9504 123.937 95.5128 124.864C96.3998 125.2 97.3361 125.537 98.0752 125.832C99.9477 126.632 104.333 129.032 106.107 130.296C108.473 131.98 109.557 134.296 109.113 136.654C108.423 140.276 100.835 142.887 98.7158 143.308C97.139 142.845 88.6634 142.213 85.6575 142.213H84.7705C84.5734 142.213 84.3763 142.255 84.0806 142.255C83.8342 142.255 83.5879 142.213 83.3907 142.213H82.5038C79.5472 142.297 71.0716 142.929 69.4947 143.392ZM98.2723 141.329L98.4201 141.287C99.1593 141.16 105.861 139.855 106.797 135.77C107.29 133.454 104.136 131.433 102.609 130.506C101.574 129.833 100.687 129.369 99.5535 128.864L99.0607 128.653L96.4984 140.992L96.8926 141.034C97.5332 141.118 97.9767 141.202 98.1245 141.244L98.2723 141.329ZM68.657 128.864C67.3265 129.454 66.4888 129.959 65.6019 130.506C64.0743 131.475 60.9206 133.496 61.4133 135.77C62.3496 139.855 69.002 141.16 69.7904 141.287L69.9382 141.329L70.0368 141.244C70.1846 141.202 70.6774 141.118 71.2687 141.034L71.6629 140.992L69.1005 128.653L68.657 128.864ZM85.0169 140.234C87.8257 140.276 90.388 140.402 92.3591 140.571L92.7533 140.613L95.0201 127.053L94.5273 126.843C94.1331 126.674 93.6896 126.548 93.2461 126.38C91.5707 125.79 89.846 125.2 89.1561 123.137C89.0576 122.758 89.0083 122.379 89.0576 121.958C89.1068 121.453 89.304 121.031 89.5011 120.484C89.5503 120.274 89.6489 120.105 89.7474 119.852C90.8808 119.01 92.5069 116.989 93.3446 115.599L93.8867 114.631C94.2809 113.746 94.6258 111.683 94.8229 110.125L94.8722 109.746H73.3383L73.3876 110.125C73.6832 112.399 74.0282 113.915 74.3238 114.631L74.8659 115.599C75.7529 117.031 77.379 119.052 78.5124 119.895C78.6109 120.105 78.6602 120.316 78.7587 120.484C78.9558 120.989 79.153 121.453 79.2022 121.958C79.2515 122.379 79.2515 122.758 79.1037 123.137C78.4138 125.2 76.6891 125.79 75.0137 126.38C74.5702 126.548 74.1267 126.674 73.7325 126.843L73.2397 127.053L75.5065 140.613L75.9007 140.571C77.921 140.402 80.4341 140.276 83.2429 140.234H85.0169ZM71.5151 104.272C71.1208 104.44 70.5295 104.735 69.8889 105.661C69.544 106.124 69.4947 106.503 69.4454 106.756L69.3962 107.135H98.7651L98.7158 106.756C98.7158 106.503 98.6173 106.167 98.3216 105.661C97.681 104.735 97.0404 104.44 96.6955 104.272C96.6955 103.05 96.7447 100.608 94.1331 98.3761C90.733 95.4284 86.9387 93.7018 84.1299 93.7018C80.3849 93.7018 76.5906 96.2706 74.1267 98.3761C71.5151 100.608 71.5151 103.092 71.5151 104.272Z" fill="white"/>
</g>
<g clip-path="url(#clip2_2300_1787)">
<path d="M176.495 130.376C174.376 129.954 166.738 127.344 166.097 123.722C165.654 121.364 166.738 119.048 169.103 117.363C170.877 116.1 175.312 113.7 177.135 112.9C177.825 112.605 178.811 112.268 179.698 111.931C182.211 111.005 183.196 110.584 183.443 110.205C183.738 109.615 183.738 109.194 183.492 108.057V107.973L183.393 107.889C182.359 106.962 179.846 104.351 179.205 102.751C178.564 101.151 177.874 97.9084 177.825 96.4345V96.0976H172.7C172.799 95.4239 173.144 93.9921 173.686 93.192C174.474 92.0129 175.706 91.0023 175.903 90.9181L176.101 90.8338V90.5391C176.101 89.5705 176.741 86.2017 179.599 83.7593C183.049 80.8116 187.878 78.7061 191.031 78.7061H191.228C194.382 78.7061 199.211 80.8537 202.661 83.7593C205.519 86.2017 206.159 89.5705 206.159 90.5391V90.7496L206.356 90.8338C206.554 90.9181 207.785 91.9287 208.574 93.1078C209.116 93.9079 209.412 95.3397 209.559 96.0134H204.385V96.3503C204.385 97.8242 203.646 101.067 203.006 102.667C202.365 104.267 199.852 106.878 198.817 107.804L198.719 107.889V107.973C198.472 109.11 198.423 109.531 198.768 110.12C198.965 110.542 199.95 110.921 202.513 111.847C203.4 112.184 204.336 112.521 205.075 112.815C206.948 113.616 211.333 116.016 213.107 117.279C215.473 118.964 216.557 121.28 216.113 123.638C215.423 127.259 207.835 129.87 205.716 130.291C204.139 129.828 195.663 129.196 192.657 129.196H191.77C191.573 129.196 191.376 129.239 191.081 129.239C190.834 129.239 190.588 129.196 190.391 129.196H189.504C186.547 129.281 178.072 129.912 176.495 130.376ZM205.272 128.312L205.42 128.27C206.159 128.144 212.861 126.838 213.797 122.754C214.29 120.437 211.136 118.416 209.609 117.49C208.574 116.816 207.687 116.353 206.554 115.847L206.061 115.637L203.498 127.975L203.893 128.017C204.533 128.102 204.977 128.186 205.124 128.228L205.272 128.312ZM175.657 115.847C174.327 116.437 173.489 116.942 172.602 117.49C171.074 118.458 167.921 120.48 168.413 122.754C169.35 126.838 176.002 128.144 176.79 128.27L176.938 128.312L177.037 128.228C177.185 128.186 177.677 128.102 178.269 128.017L178.663 127.975L176.101 115.637L175.657 115.847ZM192.017 127.217C194.826 127.259 197.388 127.386 199.359 127.554L199.753 127.596L202.02 114.037L201.527 113.826C201.133 113.658 200.69 113.531 200.246 113.363C198.571 112.773 196.846 112.184 196.156 110.12C196.058 109.741 196.008 109.362 196.058 108.941C196.107 108.436 196.304 108.015 196.501 107.467C196.55 107.257 196.649 107.088 196.747 106.836C197.881 105.994 199.507 103.972 200.345 102.583L200.887 101.614C201.281 100.73 201.626 98.6664 201.823 97.1083L201.872 96.7293H180.338L180.388 97.1083C180.683 99.3823 181.028 100.898 181.324 101.614L181.866 102.583C182.753 104.014 184.379 106.036 185.512 106.878C185.611 107.088 185.66 107.299 185.759 107.467C185.956 107.973 186.153 108.436 186.202 108.941C186.252 109.362 186.252 109.741 186.104 110.12C185.414 112.184 183.689 112.773 182.014 113.363C181.57 113.531 181.127 113.658 180.733 113.826L180.24 114.037L182.506 127.596L182.901 127.554C184.921 127.386 187.434 127.259 190.243 127.217H192.017ZM178.515 91.255C178.121 91.4234 177.53 91.7182 176.889 92.6446C176.544 93.1078 176.495 93.4868 176.445 93.7395L176.396 94.1185H205.765L205.716 93.7395C205.716 93.4868 205.617 93.1499 205.322 92.6446C204.681 91.7182 204.04 91.4234 203.695 91.255C203.695 90.0338 203.745 87.5913 201.133 85.3595C197.733 82.4118 193.939 80.6852 191.13 80.6852C187.385 80.6852 183.591 83.254 181.127 85.3595C178.515 87.5913 178.515 90.0759 178.515 91.255Z" fill="white"/>
</g>
<defs>
<clipPath id="clip0_2300_1787">
<rect width="81" height="81.1007" fill="white" transform="translate(100 82.3164)"/>
</clipPath>
<clipPath id="clip1_2300_1787">
<rect width="53" height="53.0659" fill="white" transform="translate(59 90.3262)"/>
</clipPath>
<clipPath id="clip2_2300_1787">
<rect width="53" height="53.0659" fill="white" transform="translate(166 77.3096)"/>
</clipPath>
</defs>
</svg>
