<svg width="23" height="25" viewBox="0 0 23 25" fill="none" xmlns="http://www.w3.org/2000/svg">
<path d="M4.80733 24.1021C3.83672 23.9063 0.338025 22.6921 0.0445857 21.0078C-0.158564 19.9111 0.338025 18.834 1.42149 18.0506C2.23409 17.4631 4.2656 16.3468 5.10077 15.9747C5.41678 15.8376 5.86823 15.6809 6.27453 15.5242C7.42571 15.0934 7.87715 14.8975 7.99002 14.7213C8.12545 14.4471 8.12545 14.2512 8.01259 13.7225V13.6833L7.96744 13.6441C7.49343 13.2133 6.34224 11.9991 6.0488 11.2549C5.75536 10.5107 5.43935 9.00267 5.41678 8.31723V8.16055H3.06927C3.11441 7.8472 3.27242 7.18134 3.52071 6.80924C3.88187 6.26088 4.44617 5.79086 4.53646 5.75169L4.62675 5.71252V5.57543C4.62675 5.125 4.92019 3.55826 6.22938 2.42237C7.80944 1.05148 10.0215 0.0722656 11.4661 0.0722656H11.5564C13.0011 0.0722656 15.2131 1.07106 16.7932 2.42237C18.1024 3.55826 18.3958 5.125 18.3958 5.57543V5.67336L18.4861 5.71252C18.5764 5.75169 19.1407 6.22171 19.5019 6.77007C19.7502 7.14217 19.8856 7.80804 19.9533 8.12138H17.5832V8.27806C17.5832 8.96351 17.2446 10.4715 16.9512 11.2157C16.6578 11.9599 15.5066 13.1741 15.0326 13.605L14.9874 13.6441V13.6833C14.8745 14.2121 14.852 14.4079 15.01 14.6821C15.1003 14.8779 15.5517 15.0542 16.7255 15.4851C17.1318 15.6417 17.5606 15.7984 17.8992 15.9355C18.757 16.3076 20.7659 17.4239 21.5785 18.0114C22.662 18.7948 23.1586 19.8719 22.9554 20.9686C22.6394 22.6529 19.1633 23.8671 18.1927 24.0629C17.4704 23.8475 13.5879 23.5538 12.211 23.5538H11.8047C11.7144 23.5538 11.6241 23.5733 11.4887 23.5733C11.3759 23.5733 11.263 23.5538 11.1727 23.5538H10.7664C9.41207 23.5929 5.52964 23.8867 4.80733 24.1021ZM17.9895 23.1425L18.0572 23.1229C18.3958 23.0641 21.4656 22.457 21.8945 20.5574C22.1202 19.4802 20.6756 18.5402 19.9759 18.1093C19.5019 17.796 19.0956 17.5806 18.5764 17.3456L18.3507 17.2476L17.1769 22.9858L17.3575 23.0054C17.6509 23.0446 17.8541 23.0837 17.9218 23.1033L17.9895 23.1425ZM4.4236 17.3456C3.81415 17.6197 3.43042 17.8547 3.02412 18.1093C2.32438 18.5598 0.879759 19.4998 1.10548 20.5574C1.53435 22.457 4.58161 23.0641 4.94276 23.1229L5.01048 23.1425L5.05562 23.1033C5.12334 23.0837 5.34906 23.0446 5.61993 23.0054L5.80051 22.9858L4.62675 17.2476L4.4236 17.3456ZM11.9176 22.6333C13.2042 22.6529 14.378 22.7116 15.2809 22.79L15.4614 22.8096L16.4998 16.5034L16.274 16.4055C16.0935 16.3272 15.8903 16.2684 15.6872 16.1901C14.9197 15.9159 14.1297 15.6417 13.8137 14.6821C13.7685 14.5058 13.7459 14.3296 13.7685 14.1337C13.7911 13.8987 13.8814 13.7029 13.9717 13.4483C13.9942 13.3504 14.0394 13.272 14.0845 13.1545C14.6037 12.7628 15.3486 11.8228 15.7323 11.1765L15.9806 10.7261C16.1612 10.3148 16.3192 9.35519 16.4095 8.63057L16.432 8.45432H6.56796L6.59054 8.63057C6.72597 9.68812 6.88398 10.3932 7.01941 10.7261L7.2677 11.1765C7.674 11.8424 8.41889 12.7824 8.93805 13.1741C8.98319 13.272 9.00577 13.37 9.05091 13.4483C9.1412 13.6833 9.23149 13.8987 9.25406 14.1337C9.27663 14.3296 9.27663 14.5058 9.20892 14.6821C8.89291 15.6417 8.10288 15.9159 7.33542 16.1901C7.13227 16.2684 6.92912 16.3272 6.74854 16.4055L6.52282 16.5034L7.56114 22.8096L7.74172 22.79C8.66718 22.7116 9.81837 22.6529 11.105 22.6333H11.9176ZM5.73279 5.90837C5.55221 5.9867 5.28135 6.12379 4.98791 6.55465C4.8299 6.77007 4.80733 6.94633 4.78476 7.06384L4.76219 7.24009H18.2152L18.1927 7.06384C18.1927 6.94633 18.1475 6.78966 18.0121 6.55465C17.7187 6.12379 17.4252 5.9867 17.2672 5.90837C17.2672 5.34042 17.2898 4.20454 16.0935 3.16657C14.536 1.79568 12.7979 0.992724 11.5113 0.992724C9.79579 0.992724 8.05773 2.18736 6.92912 3.16657C5.73279 4.20454 5.73279 5.36001 5.73279 5.90837Z" fill="#DE0C0C"/>
</svg>
