<svg width="258" height="313" viewBox="0 0 258 313" fill="none" xmlns="http://www.w3.org/2000/svg">
<path d="M109.631 61.5757C123.111 51.7376 137.807 33.7182 153.001 31.0984C168.228 28.7947 183.81 42.0579 196.104 57.418C208.365 72.4619 217.37 89.9191 218.701 107.18C220.031 124.44 214.004 141.486 204.375 154.602C194.922 167.868 182.009 177.037 168.836 188.289C155.522 199.709 141.947 213.21 125.301 217.186C108.512 221.328 88.7947 215.777 75.2802 203.986C61.4486 192.213 53.7869 173.884 48.3019 156.543C42.8169 139.203 39.8256 122.833 43.9984 109.392C48.1712 95.952 59.8251 85.4233 71.7679 79.1724C83.7437 73.2377 96.0085 71.5809 109.631 61.5757Z" fill="#F66464"/>
<rect y="169" width="258" height="144" rx="28" fill="#EFEDED"/>
<path d="M53.6411 208.416C53.6411 207.328 53.8865 206.352 54.3771 205.488C54.8678 204.613 55.5345 203.931 56.3771 203.44C57.2305 202.949 58.1745 202.704 59.2091 202.704C60.4251 202.704 61.4865 202.997 62.3931 203.584C63.2998 204.171 63.9611 205.003 64.3771 206.08H62.6331C62.3238 205.408 61.8758 204.891 61.2891 204.528C60.7131 204.165 60.0198 203.984 59.2091 203.984C58.4305 203.984 57.7318 204.165 57.1131 204.528C56.4945 204.891 56.0091 205.408 55.6571 206.08C55.3051 206.741 55.1291 207.52 55.1291 208.416C55.1291 209.301 55.3051 210.08 55.6571 210.752C56.0091 211.413 56.4945 211.925 57.1131 212.288C57.7318 212.651 58.4305 212.832 59.2091 212.832C60.0198 212.832 60.7131 212.656 61.2891 212.304C61.8758 211.941 62.3238 211.424 62.6331 210.752H64.3771C63.9611 211.819 63.2998 212.645 62.3931 213.232C61.4865 213.808 60.4251 214.096 59.2091 214.096C58.1745 214.096 57.2305 213.856 56.3771 213.376C55.5345 212.885 54.8678 212.208 54.3771 211.344C53.8865 210.48 53.6411 209.504 53.6411 208.416ZM74.3205 205.232V214H72.8645V212.704C72.5872 213.152 72.1978 213.504 71.6965 213.76C71.2058 214.005 70.6618 214.128 70.0645 214.128C69.3818 214.128 68.7685 213.989 68.2245 213.712C67.6805 213.424 67.2485 212.997 66.9285 212.432C66.6192 211.867 66.4645 211.179 66.4645 210.368V205.232H67.9045V210.176C67.9045 211.04 68.1232 211.707 68.5605 212.176C68.9978 212.635 69.5952 212.864 70.3525 212.864C71.1312 212.864 71.7445 212.624 72.1925 212.144C72.6405 211.664 72.8645 210.965 72.8645 210.048V205.232H74.3205ZM78.2349 206.656C78.4909 206.155 78.8535 205.765 79.3229 205.488C79.8029 205.211 80.3842 205.072 81.0669 205.072V206.576H80.6829C79.0509 206.576 78.2349 207.461 78.2349 209.232V214H76.7789V205.232H78.2349V206.656ZM84.2036 206.656C84.4596 206.155 84.8223 205.765 85.2916 205.488C85.7716 205.211 86.353 205.072 87.0356 205.072V206.576H86.6516C85.0196 206.576 84.2036 207.461 84.2036 209.232V214H82.7476V205.232H84.2036V206.656ZM96.7164 209.28C96.7164 209.557 96.7004 209.851 96.6684 210.16H89.6604C89.7137 211.024 90.007 211.701 90.5404 212.192C91.0844 212.672 91.7404 212.912 92.5084 212.912C93.1377 212.912 93.6604 212.768 94.0764 212.48C94.503 212.181 94.8017 211.787 94.9724 211.296H96.5404C96.3057 212.139 95.8364 212.827 95.1324 213.36C94.4284 213.883 93.5537 214.144 92.5084 214.144C91.6764 214.144 90.9297 213.957 90.2684 213.584C89.6177 213.211 89.1057 212.683 88.7324 212C88.359 211.307 88.1724 210.507 88.1724 209.6C88.1724 208.693 88.3537 207.899 88.7164 207.216C89.079 206.533 89.5857 206.011 90.2364 205.648C90.8977 205.275 91.655 205.088 92.5084 205.088C93.3404 205.088 94.0764 205.269 94.7164 205.632C95.3564 205.995 95.847 206.496 96.1884 207.136C96.5404 207.765 96.7164 208.48 96.7164 209.28ZM95.2124 208.976C95.2124 208.421 95.0897 207.947 94.8444 207.552C94.599 207.147 94.263 206.843 93.8364 206.64C93.4204 206.427 92.9564 206.32 92.4444 206.32C91.7084 206.32 91.079 206.555 90.5564 207.024C90.0444 207.493 89.751 208.144 89.6764 208.976H95.2124ZM102.91 205.072C103.977 205.072 104.841 205.397 105.502 206.048C106.164 206.688 106.494 207.616 106.494 208.832V214H105.054V209.04C105.054 208.165 104.836 207.499 104.398 207.04C103.961 206.571 103.364 206.336 102.606 206.336C101.838 206.336 101.225 206.576 100.766 207.056C100.318 207.536 100.094 208.235 100.094 209.152V214H98.6383V205.232H100.094V206.48C100.382 206.032 100.772 205.685 101.262 205.44C101.764 205.195 102.313 205.072 102.91 205.072ZM110.649 206.432V211.6C110.649 212.027 110.739 212.331 110.921 212.512C111.102 212.683 111.417 212.768 111.865 212.768H112.937V214H111.625C110.814 214 110.206 213.813 109.801 213.44C109.395 213.067 109.193 212.453 109.193 211.6V206.432H108.057V205.232H109.193V203.024H110.649V205.232H112.937V206.432H110.649ZM116.157 202.16V214H114.701V202.16H116.157ZM126.19 205.232L120.91 218.128H119.406L121.134 213.904L117.598 205.232H119.214L121.966 212.336L124.686 205.232H126.19ZM139.472 205.232L134.192 218.128H132.688L134.416 213.904L130.88 205.232H132.496L135.248 212.336L137.968 205.232H139.472ZM144.759 214.144C143.938 214.144 143.191 213.957 142.519 213.584C141.858 213.211 141.335 212.683 140.951 212C140.578 211.307 140.391 210.507 140.391 209.6C140.391 208.704 140.583 207.915 140.967 207.232C141.362 206.539 141.895 206.011 142.567 205.648C143.239 205.275 143.991 205.088 144.823 205.088C145.655 205.088 146.407 205.275 147.079 205.648C147.751 206.011 148.279 206.533 148.663 207.216C149.058 207.899 149.255 208.693 149.255 209.6C149.255 210.507 149.052 211.307 148.647 212C148.252 212.683 147.714 213.211 147.031 213.584C146.348 213.957 145.591 214.144 144.759 214.144ZM144.759 212.864C145.282 212.864 145.772 212.741 146.231 212.496C146.69 212.251 147.058 211.883 147.335 211.392C147.623 210.901 147.767 210.304 147.767 209.6C147.767 208.896 147.628 208.299 147.351 207.808C147.074 207.317 146.711 206.955 146.263 206.72C145.815 206.475 145.33 206.352 144.807 206.352C144.274 206.352 143.783 206.475 143.335 206.72C142.898 206.955 142.546 207.317 142.279 207.808C142.012 208.299 141.879 208.896 141.879 209.6C141.879 210.315 142.007 210.917 142.263 211.408C142.53 211.899 142.882 212.267 143.319 212.512C143.756 212.747 144.236 212.864 144.759 212.864ZM158.946 205.232V214H157.49V212.704C157.212 213.152 156.823 213.504 156.322 213.76C155.831 214.005 155.287 214.128 154.69 214.128C154.007 214.128 153.394 213.989 152.85 213.712C152.306 213.424 151.874 212.997 151.554 212.432C151.244 211.867 151.09 211.179 151.09 210.368V205.232H152.53V210.176C152.53 211.04 152.748 211.707 153.186 212.176C153.623 212.635 154.22 212.864 154.978 212.864C155.756 212.864 156.37 212.624 156.818 212.144C157.266 211.664 157.49 210.965 157.49 210.048V205.232H158.946ZM165.126 209.584C165.126 208.688 165.307 207.904 165.67 207.232C166.032 206.549 166.528 206.021 167.158 205.648C167.798 205.275 168.512 205.088 169.302 205.088C169.984 205.088 170.619 205.248 171.206 205.568C171.792 205.877 172.24 206.288 172.55 206.8V202.16H174.022V214H172.55V212.352C172.262 212.875 171.835 213.307 171.27 213.648C170.704 213.979 170.043 214.144 169.286 214.144C168.507 214.144 167.798 213.952 167.158 213.568C166.528 213.184 166.032 212.645 165.67 211.952C165.307 211.259 165.126 210.469 165.126 209.584ZM172.55 209.6C172.55 208.939 172.416 208.363 172.15 207.872C171.883 207.381 171.52 207.008 171.062 206.752C170.614 206.485 170.118 206.352 169.574 206.352C169.03 206.352 168.534 206.48 168.086 206.736C167.638 206.992 167.28 207.365 167.014 207.856C166.747 208.347 166.614 208.923 166.614 209.584C166.614 210.256 166.747 210.843 167.014 211.344C167.28 211.835 167.638 212.213 168.086 212.48C168.534 212.736 169.03 212.864 169.574 212.864C170.118 212.864 170.614 212.736 171.062 212.48C171.52 212.213 171.883 211.835 172.15 211.344C172.416 210.843 172.55 210.261 172.55 209.6ZM180.306 214.144C179.485 214.144 178.738 213.957 178.066 213.584C177.405 213.211 176.882 212.683 176.498 212C176.125 211.307 175.938 210.507 175.938 209.6C175.938 208.704 176.13 207.915 176.514 207.232C176.909 206.539 177.442 206.011 178.114 205.648C178.786 205.275 179.538 205.088 180.37 205.088C181.202 205.088 181.954 205.275 182.626 205.648C183.298 206.011 183.826 206.533 184.21 207.216C184.605 207.899 184.802 208.693 184.802 209.6C184.802 210.507 184.599 211.307 184.194 212C183.799 212.683 183.261 213.211 182.578 213.584C181.895 213.957 181.138 214.144 180.306 214.144ZM180.306 212.864C180.829 212.864 181.319 212.741 181.778 212.496C182.237 212.251 182.605 211.883 182.882 211.392C183.17 210.901 183.314 210.304 183.314 209.6C183.314 208.896 183.175 208.299 182.898 207.808C182.621 207.317 182.258 206.955 181.81 206.72C181.362 206.475 180.877 206.352 180.354 206.352C179.821 206.352 179.33 206.475 178.882 206.72C178.445 206.955 178.093 207.317 177.826 207.808C177.559 208.299 177.426 208.896 177.426 209.6C177.426 210.315 177.554 210.917 177.81 211.408C178.077 211.899 178.429 212.267 178.866 212.512C179.303 212.747 179.783 212.864 180.306 212.864ZM190.988 205.072C192.055 205.072 192.919 205.397 193.58 206.048C194.242 206.688 194.572 207.616 194.572 208.832V214H193.132V209.04C193.132 208.165 192.914 207.499 192.476 207.04C192.039 206.571 191.442 206.336 190.684 206.336C189.916 206.336 189.303 206.576 188.844 207.056C188.396 207.536 188.172 208.235 188.172 209.152V214H186.716V205.232H188.172V206.48C188.46 206.032 188.85 205.685 189.34 205.44C189.842 205.195 190.391 205.072 190.988 205.072ZM197.175 202.848H198.791L197.255 206.48H196.231L197.175 202.848ZM202.227 206.432V211.6C202.227 212.027 202.317 212.331 202.499 212.512C202.68 212.683 202.995 212.768 203.443 212.768H204.515V214H203.203C202.392 214 201.784 213.813 201.379 213.44C200.973 213.067 200.771 212.453 200.771 211.6V206.432H199.635V205.232H200.771V203.024H202.227V205.232H204.515V206.432H202.227ZM44.9512 229.072C45.6125 229.072 46.2099 229.216 46.7432 229.504C47.2765 229.781 47.6925 230.203 47.9912 230.768C48.3005 231.333 48.4552 232.021 48.4552 232.832V238H47.0152V233.04C47.0152 232.165 46.7965 231.499 46.3592 231.04C45.9219 230.571 45.3245 230.336 44.5672 230.336C43.7992 230.336 43.1859 230.576 42.7272 231.056C42.2792 231.536 42.0552 232.235 42.0552 233.152V238H40.5992V226.16H42.0552V230.48C42.3432 230.032 42.7379 229.685 43.2392 229.44C43.7512 229.195 44.3219 229.072 44.9512 229.072ZM50.2896 233.584C50.2896 232.688 50.4709 231.904 50.8336 231.232C51.1962 230.549 51.6922 230.021 52.3216 229.648C52.9616 229.275 53.6709 229.088 54.4496 229.088C55.2176 229.088 55.8842 229.253 56.4496 229.584C57.0149 229.915 57.4362 230.331 57.7136 230.832V229.232H59.1856V238H57.7136V236.368C57.4256 236.88 56.9936 237.307 56.4176 237.648C55.8522 237.979 55.1909 238.144 54.4336 238.144C53.6549 238.144 52.9509 237.952 52.3216 237.568C51.6922 237.184 51.1962 236.645 50.8336 235.952C50.4709 235.259 50.2896 234.469 50.2896 233.584ZM57.7136 233.6C57.7136 232.939 57.5802 232.363 57.3136 231.872C57.0469 231.381 56.6842 231.008 56.2256 230.752C55.7776 230.485 55.2816 230.352 54.7376 230.352C54.1936 230.352 53.6976 230.48 53.2496 230.736C52.8016 230.992 52.4442 231.365 52.1776 231.856C51.9109 232.347 51.7776 232.923 51.7776 233.584C51.7776 234.256 51.9109 234.843 52.1776 235.344C52.4442 235.835 52.8016 236.213 53.2496 236.48C53.6976 236.736 54.1936 236.864 54.7376 236.864C55.2816 236.864 55.7776 236.736 56.2256 236.48C56.6842 236.213 57.0469 235.835 57.3136 235.344C57.5802 234.843 57.7136 234.261 57.7136 233.6ZM64.9101 236.656L67.6301 229.232H69.1821L65.7421 238H64.0461L60.6061 229.232H62.1741L64.9101 236.656ZM78.6148 233.28C78.6148 233.557 78.5988 233.851 78.5668 234.16H71.5588C71.6121 235.024 71.9055 235.701 72.4388 236.192C72.9828 236.672 73.6388 236.912 74.4068 236.912C75.0361 236.912 75.5588 236.768 75.9748 236.48C76.4015 236.181 76.7001 235.787 76.8708 235.296H78.4388C78.2041 236.139 77.7348 236.827 77.0308 237.36C76.3268 237.883 75.4521 238.144 74.4068 238.144C73.5748 238.144 72.8281 237.957 72.1668 237.584C71.5161 237.211 71.0041 236.683 70.6308 236C70.2575 235.307 70.0708 234.507 70.0708 233.6C70.0708 232.693 70.2521 231.899 70.6148 231.216C70.9775 230.533 71.4841 230.011 72.1348 229.648C72.7961 229.275 73.5535 229.088 74.4068 229.088C75.2388 229.088 75.9748 229.269 76.6148 229.632C77.2548 229.995 77.7455 230.496 78.0868 231.136C78.4388 231.765 78.6148 232.48 78.6148 233.28ZM77.1108 232.976C77.1108 232.421 76.9881 231.947 76.7428 231.552C76.4975 231.147 76.1615 230.843 75.7348 230.64C75.3188 230.427 74.8548 230.32 74.3428 230.32C73.6068 230.32 72.9775 230.555 72.4548 231.024C71.9428 231.493 71.6495 232.144 71.5748 232.976H77.1108ZM90.6743 238L88.0183 233.44H86.2583V238H84.8023V226.848H88.4023C89.245 226.848 89.9543 226.992 90.5303 227.28C91.117 227.568 91.5543 227.957 91.8423 228.448C92.1303 228.939 92.2743 229.499 92.2743 230.128C92.2743 230.896 92.0503 231.573 91.6023 232.16C91.165 232.747 90.5036 233.136 89.6183 233.328L92.4183 238H90.6743ZM86.2583 232.272H88.4023C89.1916 232.272 89.7836 232.08 90.1783 231.696C90.573 231.301 90.7703 230.779 90.7703 230.128C90.7703 229.467 90.573 228.955 90.1783 228.592C89.7943 228.229 89.2023 228.048 88.4023 228.048H86.2583V232.272ZM93.9927 233.584C93.9927 232.688 94.174 231.904 94.5367 231.232C94.8994 230.549 95.3954 230.021 96.0247 229.648C96.6647 229.275 97.374 229.088 98.1527 229.088C98.9207 229.088 99.5874 229.253 100.153 229.584C100.718 229.915 101.139 230.331 101.417 230.832V229.232H102.889V238H101.417V236.368C101.129 236.88 100.697 237.307 100.121 237.648C99.5554 237.979 98.894 238.144 98.1367 238.144C97.358 238.144 96.654 237.952 96.0247 237.568C95.3954 237.184 94.8994 236.645 94.5367 235.952C94.174 235.259 93.9927 234.469 93.9927 233.584ZM101.417 233.6C101.417 232.939 101.283 232.363 101.017 231.872C100.75 231.381 100.387 231.008 99.9287 230.752C99.4807 230.485 98.9847 230.352 98.4407 230.352C97.8967 230.352 97.4007 230.48 96.9527 230.736C96.5047 230.992 96.1474 231.365 95.8807 231.856C95.614 232.347 95.4807 232.923 95.4807 233.584C95.4807 234.256 95.614 234.843 95.8807 235.344C96.1474 235.835 96.5047 236.213 96.9527 236.48C97.4007 236.736 97.8967 236.864 98.4407 236.864C98.9847 236.864 99.4807 236.736 99.9287 236.48C100.387 236.213 100.75 235.835 101.017 235.344C101.283 234.843 101.417 234.261 101.417 233.6ZM107.125 230.432V235.6C107.125 236.027 107.216 236.331 107.397 236.512C107.579 236.683 107.893 236.768 108.341 236.768H109.413V238H108.101C107.291 238 106.683 237.813 106.277 237.44C105.872 237.067 105.669 236.453 105.669 235.6V230.432H104.533V229.232H105.669V227.024H107.125V229.232H109.413V230.432H107.125ZM119.177 233.28C119.177 233.557 119.161 233.851 119.129 234.16H112.121C112.175 235.024 112.468 235.701 113.001 236.192C113.545 236.672 114.201 236.912 114.969 236.912C115.599 236.912 116.121 236.768 116.537 236.48C116.964 236.181 117.263 235.787 117.433 235.296H119.001C118.767 236.139 118.297 236.827 117.593 237.36C116.889 237.883 116.015 238.144 114.969 238.144C114.137 238.144 113.391 237.957 112.729 237.584C112.079 237.211 111.567 236.683 111.193 236C110.82 235.307 110.633 234.507 110.633 233.6C110.633 232.693 110.815 231.899 111.177 231.216C111.54 230.533 112.047 230.011 112.697 229.648C113.359 229.275 114.116 229.088 114.969 229.088C115.801 229.088 116.537 229.269 117.177 229.632C117.817 229.995 118.308 230.496 118.649 231.136C119.001 231.765 119.177 232.48 119.177 233.28ZM117.673 232.976C117.673 232.421 117.551 231.947 117.305 231.552C117.06 231.147 116.724 230.843 116.297 230.64C115.881 230.427 115.417 230.32 114.905 230.32C114.169 230.32 113.54 230.555 113.017 231.024C112.505 231.493 112.212 232.144 112.137 232.976H117.673ZM132.779 229.232L130.043 238H128.539L126.427 231.04L124.315 238H122.811L120.059 229.232H121.547L123.563 236.592L125.739 229.232H127.227L129.355 236.608L131.339 229.232H132.779ZM138.048 238.144C137.227 238.144 136.48 237.957 135.808 237.584C135.147 237.211 134.624 236.683 134.24 236C133.867 235.307 133.68 234.507 133.68 233.6C133.68 232.704 133.872 231.915 134.256 231.232C134.651 230.539 135.184 230.011 135.856 229.648C136.528 229.275 137.28 229.088 138.112 229.088C138.944 229.088 139.696 229.275 140.368 229.648C141.04 230.011 141.568 230.533 141.952 231.216C142.347 231.899 142.544 232.693 142.544 233.6C142.544 234.507 142.342 235.307 141.936 236C141.542 236.683 141.003 237.211 140.32 237.584C139.638 237.957 138.88 238.144 138.048 238.144ZM138.048 236.864C138.571 236.864 139.062 236.741 139.52 236.496C139.979 236.251 140.347 235.883 140.624 235.392C140.912 234.901 141.056 234.304 141.056 233.6C141.056 232.896 140.918 232.299 140.64 231.808C140.363 231.317 140 230.955 139.552 230.72C139.104 230.475 138.619 230.352 138.096 230.352C137.563 230.352 137.072 230.475 136.624 230.72C136.187 230.955 135.835 231.317 135.568 231.808C135.302 232.299 135.168 232.896 135.168 233.6C135.168 234.315 135.296 234.917 135.552 235.408C135.819 235.899 136.171 236.267 136.608 236.512C137.046 236.747 137.526 236.864 138.048 236.864ZM145.915 230.656C146.171 230.155 146.533 229.765 147.003 229.488C147.483 229.211 148.064 229.072 148.747 229.072V230.576H148.363C146.731 230.576 145.915 231.461 145.915 233.232V238H144.459V229.232H145.915V230.656ZM155.323 238L151.883 234.128V238H150.427V226.16H151.883V233.12L155.259 229.232H157.291L153.163 233.6L157.307 238H155.323ZM160.166 235.984L158.374 240.288H157.398L158.566 235.984H160.166ZM167.555 230.848C167.843 230.347 168.27 229.931 168.835 229.6C169.411 229.259 170.078 229.088 170.835 229.088C171.614 229.088 172.318 229.275 172.947 229.648C173.587 230.021 174.089 230.549 174.451 231.232C174.814 231.904 174.995 232.688 174.995 233.584C174.995 234.469 174.814 235.259 174.451 235.952C174.089 236.645 173.587 237.184 172.947 237.568C172.318 237.952 171.614 238.144 170.835 238.144C170.089 238.144 169.427 237.979 168.851 237.648C168.286 237.307 167.854 236.885 167.555 236.384V242.16H166.099V229.232H167.555V230.848ZM173.507 233.584C173.507 232.923 173.374 232.347 173.107 231.856C172.841 231.365 172.478 230.992 172.019 230.736C171.571 230.48 171.075 230.352 170.531 230.352C169.998 230.352 169.502 230.485 169.043 230.752C168.595 231.008 168.233 231.387 167.955 231.888C167.689 232.379 167.555 232.949 167.555 233.6C167.555 234.261 167.689 234.843 167.955 235.344C168.233 235.835 168.595 236.213 169.043 236.48C169.502 236.736 169.998 236.864 170.531 236.864C171.075 236.864 171.571 236.736 172.019 236.48C172.478 236.213 172.841 235.835 173.107 235.344C173.374 234.843 173.507 234.256 173.507 233.584ZM178.368 226.16V238H176.912V226.16H178.368ZM188.849 233.28C188.849 233.557 188.833 233.851 188.801 234.16H181.793C181.847 235.024 182.14 235.701 182.673 236.192C183.217 236.672 183.873 236.912 184.641 236.912C185.271 236.912 185.793 236.768 186.209 236.48C186.636 236.181 186.935 235.787 187.105 235.296H188.673C188.439 236.139 187.969 236.827 187.265 237.36C186.561 237.883 185.687 238.144 184.641 238.144C183.809 238.144 183.063 237.957 182.401 237.584C181.751 237.211 181.239 236.683 180.865 236C180.492 235.307 180.305 234.507 180.305 233.6C180.305 232.693 180.487 231.899 180.849 231.216C181.212 230.533 181.719 230.011 182.369 229.648C183.031 229.275 183.788 229.088 184.641 229.088C185.473 229.088 186.209 229.269 186.849 229.632C187.489 229.995 187.98 230.496 188.321 231.136C188.673 231.765 188.849 232.48 188.849 233.28ZM187.345 232.976C187.345 232.421 187.223 231.947 186.977 231.552C186.732 231.147 186.396 230.843 185.969 230.64C185.553 230.427 185.089 230.32 184.577 230.32C183.841 230.32 183.212 230.555 182.689 231.024C182.177 231.493 181.884 232.144 181.809 232.976H187.345ZM190.227 233.584C190.227 232.688 190.408 231.904 190.771 231.232C191.134 230.549 191.63 230.021 192.259 229.648C192.899 229.275 193.608 229.088 194.387 229.088C195.155 229.088 195.822 229.253 196.387 229.584C196.952 229.915 197.374 230.331 197.651 230.832V229.232H199.123V238H197.651V236.368C197.363 236.88 196.931 237.307 196.355 237.648C195.79 237.979 195.128 238.144 194.371 238.144C193.592 238.144 192.888 237.952 192.259 237.568C191.63 237.184 191.134 236.645 190.771 235.952C190.408 235.259 190.227 234.469 190.227 233.584ZM197.651 233.6C197.651 232.939 197.518 232.363 197.251 231.872C196.984 231.381 196.622 231.008 196.163 230.752C195.715 230.485 195.219 230.352 194.675 230.352C194.131 230.352 193.635 230.48 193.187 230.736C192.739 230.992 192.382 231.365 192.115 231.856C191.848 232.347 191.715 232.923 191.715 233.584C191.715 234.256 191.848 234.843 192.115 235.344C192.382 235.835 192.739 236.213 193.187 236.48C193.635 236.736 194.131 236.864 194.675 236.864C195.219 236.864 195.715 236.736 196.163 236.48C196.622 236.213 196.984 235.835 197.251 235.344C197.518 234.843 197.651 234.261 197.651 233.6ZM204.688 238.144C204.016 238.144 203.413 238.032 202.88 237.808C202.346 237.573 201.925 237.253 201.616 236.848C201.306 236.432 201.136 235.957 201.104 235.424H202.608C202.65 235.861 202.853 236.219 203.216 236.496C203.589 236.773 204.074 236.912 204.672 236.912C205.226 236.912 205.664 236.789 205.984 236.544C206.304 236.299 206.464 235.989 206.464 235.616C206.464 235.232 206.293 234.949 205.952 234.768C205.61 234.576 205.082 234.389 204.368 234.208C203.717 234.037 203.184 233.867 202.768 233.696C202.362 233.515 202.01 233.253 201.712 232.912C201.424 232.56 201.28 232.101 201.28 231.536C201.28 231.088 201.413 230.677 201.68 230.304C201.946 229.931 202.325 229.637 202.816 229.424C203.306 229.2 203.866 229.088 204.496 229.088C205.466 229.088 206.25 229.333 206.848 229.824C207.445 230.315 207.765 230.987 207.808 231.84H206.352C206.32 231.381 206.133 231.013 205.792 230.736C205.461 230.459 205.013 230.32 204.448 230.32C203.925 230.32 203.509 230.432 203.2 230.656C202.89 230.88 202.736 231.173 202.736 231.536C202.736 231.824 202.826 232.064 203.008 232.256C203.2 232.437 203.434 232.587 203.712 232.704C204 232.811 204.394 232.933 204.896 233.072C205.525 233.243 206.037 233.413 206.432 233.584C206.826 233.744 207.162 233.989 207.44 234.32C207.728 234.651 207.877 235.083 207.888 235.616C207.888 236.096 207.754 236.528 207.488 236.912C207.221 237.296 206.842 237.6 206.352 237.824C205.872 238.037 205.317 238.144 204.688 238.144ZM217.943 233.28C217.943 233.557 217.927 233.851 217.895 234.16H210.887C210.94 235.024 211.234 235.701 211.767 236.192C212.311 236.672 212.967 236.912 213.735 236.912C214.364 236.912 214.887 236.768 215.303 236.48C215.73 236.181 216.028 235.787 216.199 235.296H217.767C217.532 236.139 217.063 236.827 216.359 237.36C215.655 237.883 214.78 238.144 213.735 238.144C212.903 238.144 212.156 237.957 211.495 237.584C210.844 237.211 210.332 236.683 209.959 236C209.586 235.307 209.399 234.507 209.399 233.6C209.399 232.693 209.58 231.899 209.943 231.216C210.306 230.533 210.812 230.011 211.463 229.648C212.124 229.275 212.882 229.088 213.735 229.088C214.567 229.088 215.303 229.269 215.943 229.632C216.583 229.995 217.074 230.496 217.415 231.136C217.767 231.765 217.943 232.48 217.943 233.28ZM216.439 232.976C216.439 232.421 216.316 231.947 216.071 231.552C215.826 231.147 215.49 230.843 215.063 230.64C214.647 230.427 214.183 230.32 213.671 230.32C212.935 230.32 212.306 230.555 211.783 231.024C211.271 231.493 210.978 232.144 210.903 232.976H216.439ZM74.4068 258.584C74.4068 257.688 74.5881 256.904 74.9508 256.232C75.3134 255.549 75.8094 255.021 76.4388 254.648C77.0788 254.275 77.7881 254.088 78.5668 254.088C79.3348 254.088 80.0014 254.253 80.5668 254.584C81.1321 254.915 81.5534 255.331 81.8308 255.832V254.232H83.3028V263H81.8308V261.368C81.5428 261.88 81.1108 262.307 80.5348 262.648C79.9694 262.979 79.3081 263.144 78.5508 263.144C77.7721 263.144 77.0681 262.952 76.4388 262.568C75.8094 262.184 75.3134 261.645 74.9508 260.952C74.5881 260.259 74.4068 259.469 74.4068 258.584ZM81.8308 258.6C81.8308 257.939 81.6974 257.363 81.4308 256.872C81.1641 256.381 80.8014 256.008 80.3428 255.752C79.8948 255.485 79.3988 255.352 78.8548 255.352C78.3108 255.352 77.8148 255.48 77.3668 255.736C76.9188 255.992 76.5614 256.365 76.2948 256.856C76.0281 257.347 75.8948 257.923 75.8948 258.584C75.8948 259.256 76.0281 259.843 76.2948 260.344C76.5614 260.835 76.9188 261.213 77.3668 261.48C77.8148 261.736 78.3108 261.864 78.8548 261.864C79.3988 261.864 79.8948 261.736 80.3428 261.48C80.8014 261.213 81.1641 260.835 81.4308 260.344C81.6974 259.843 81.8308 259.261 81.8308 258.6ZM85.2193 258.584C85.2193 257.688 85.4006 256.904 85.7633 256.232C86.1259 255.549 86.6219 255.021 87.2513 254.648C87.8913 254.275 88.6059 254.088 89.3953 254.088C90.0779 254.088 90.7126 254.248 91.2993 254.568C91.8859 254.877 92.3339 255.288 92.6433 255.8V251.16H94.1153V263H92.6433V261.352C92.3553 261.875 91.9286 262.307 91.3633 262.648C90.7979 262.979 90.1366 263.144 89.3793 263.144C88.6006 263.144 87.8913 262.952 87.2513 262.568C86.6219 262.184 86.1259 261.645 85.7633 260.952C85.4006 260.259 85.2193 259.469 85.2193 258.584ZM92.6433 258.6C92.6433 257.939 92.5099 257.363 92.2433 256.872C91.9766 256.381 91.6139 256.008 91.1553 255.752C90.7073 255.485 90.2113 255.352 89.6673 255.352C89.1233 255.352 88.6273 255.48 88.1793 255.736C87.7313 255.992 87.3739 256.365 87.1073 256.856C86.8406 257.347 86.7073 257.923 86.7073 258.584C86.7073 259.256 86.8406 259.843 87.1073 260.344C87.3739 260.835 87.7313 261.213 88.1793 261.48C88.6273 261.736 89.1233 261.864 89.6673 261.864C90.2113 261.864 90.7073 261.736 91.1553 261.48C91.6139 261.213 91.9766 260.835 92.2433 260.344C92.5099 259.843 92.6433 259.261 92.6433 258.6ZM96.0318 258.584C96.0318 257.688 96.2131 256.904 96.5758 256.232C96.9384 255.549 97.4344 255.021 98.0638 254.648C98.7038 254.275 99.4184 254.088 100.208 254.088C100.89 254.088 101.525 254.248 102.112 254.568C102.698 254.877 103.146 255.288 103.456 255.8V251.16H104.928V263H103.456V261.352C103.168 261.875 102.741 262.307 102.176 262.648C101.61 262.979 100.949 263.144 100.192 263.144C99.4131 263.144 98.7038 262.952 98.0638 262.568C97.4344 262.184 96.9384 261.645 96.5758 260.952C96.2131 260.259 96.0318 259.469 96.0318 258.584ZM103.456 258.6C103.456 257.939 103.322 257.363 103.056 256.872C102.789 256.381 102.426 256.008 101.968 255.752C101.52 255.485 101.024 255.352 100.48 255.352C99.9358 255.352 99.4398 255.48 98.9918 255.736C98.5438 255.992 98.1864 256.365 97.9198 256.856C97.6531 257.347 97.5198 257.923 97.5198 258.584C97.5198 259.256 97.6531 259.843 97.9198 260.344C98.1864 260.835 98.5438 261.213 98.9918 261.48C99.4398 261.736 99.9358 261.864 100.48 261.864C101.024 261.864 101.52 261.736 101.968 261.48C102.426 261.213 102.789 260.835 103.056 260.344C103.322 259.843 103.456 259.261 103.456 258.6ZM117.526 263L114.87 258.44H113.11V263H111.654V251.848H115.254C116.097 251.848 116.806 251.992 117.382 252.28C117.969 252.568 118.406 252.957 118.694 253.448C118.982 253.939 119.126 254.499 119.126 255.128C119.126 255.896 118.902 256.573 118.454 257.16C118.017 257.747 117.355 258.136 116.47 258.328L119.27 263H117.526ZM113.11 257.272H115.254C116.043 257.272 116.635 257.08 117.03 256.696C117.425 256.301 117.622 255.779 117.622 255.128C117.622 254.467 117.425 253.955 117.03 253.592C116.646 253.229 116.054 253.048 115.254 253.048H113.11V257.272ZM120.844 258.584C120.844 257.688 121.026 256.904 121.388 256.232C121.751 255.549 122.247 255.021 122.876 254.648C123.516 254.275 124.226 254.088 125.004 254.088C125.772 254.088 126.439 254.253 127.004 254.584C127.57 254.915 127.991 255.331 128.268 255.832V254.232H129.74V263H128.268V261.368C127.98 261.88 127.548 262.307 126.972 262.648C126.407 262.979 125.746 263.144 124.988 263.144C124.21 263.144 123.506 262.952 122.876 262.568C122.247 262.184 121.751 261.645 121.388 260.952C121.026 260.259 120.844 259.469 120.844 258.584ZM128.268 258.6C128.268 257.939 128.135 257.363 127.868 256.872C127.602 256.381 127.239 256.008 126.78 255.752C126.332 255.485 125.836 255.352 125.292 255.352C124.748 255.352 124.252 255.48 123.804 255.736C123.356 255.992 122.999 256.365 122.732 256.856C122.466 257.347 122.332 257.923 122.332 258.584C122.332 259.256 122.466 259.843 122.732 260.344C122.999 260.835 123.356 261.213 123.804 261.48C124.252 261.736 124.748 261.864 125.292 261.864C125.836 261.864 126.332 261.736 126.78 261.48C127.239 261.213 127.602 260.835 127.868 260.344C128.135 259.843 128.268 259.261 128.268 258.6ZM133.977 255.432V260.6C133.977 261.027 134.067 261.331 134.249 261.512C134.43 261.683 134.745 261.768 135.193 261.768H136.265V263H134.953C134.142 263 133.534 262.813 133.129 262.44C132.723 262.067 132.521 261.453 132.521 260.6V255.432H131.385V254.232H132.521V252.024H133.977V254.232H136.265V255.432H133.977ZM146.029 258.28C146.029 258.557 146.013 258.851 145.981 259.16H138.973C139.026 260.024 139.32 260.701 139.853 261.192C140.397 261.672 141.053 261.912 141.821 261.912C142.45 261.912 142.973 261.768 143.389 261.48C143.816 261.181 144.114 260.787 144.285 260.296H145.853C145.618 261.139 145.149 261.827 144.445 262.36C143.741 262.883 142.866 263.144 141.821 263.144C140.989 263.144 140.242 262.957 139.581 262.584C138.93 262.211 138.418 261.683 138.045 261C137.672 260.307 137.485 259.507 137.485 258.6C137.485 257.693 137.666 256.899 138.029 256.216C138.392 255.533 138.898 255.011 139.549 254.648C140.21 254.275 140.968 254.088 141.821 254.088C142.653 254.088 143.389 254.269 144.029 254.632C144.669 254.995 145.16 255.496 145.501 256.136C145.853 256.765 146.029 257.48 146.029 258.28ZM144.525 257.976C144.525 257.421 144.402 256.947 144.157 256.552C143.912 256.147 143.576 255.843 143.149 255.64C142.733 255.427 142.269 255.32 141.757 255.32C141.021 255.32 140.392 255.555 139.869 256.024C139.357 256.493 139.064 257.144 138.989 257.976H144.525ZM159.631 254.232L156.895 263H155.391L153.279 256.04L151.167 263H149.663L146.911 254.232H148.399L150.415 261.592L152.591 254.232H154.079L156.207 261.608L158.191 254.232H159.631ZM164.9 263.144C164.078 263.144 163.332 262.957 162.66 262.584C161.998 262.211 161.476 261.683 161.092 261C160.718 260.307 160.532 259.507 160.532 258.6C160.532 257.704 160.724 256.915 161.108 256.232C161.502 255.539 162.036 255.011 162.708 254.648C163.38 254.275 164.132 254.088 164.964 254.088C165.796 254.088 166.548 254.275 167.22 254.648C167.892 255.011 168.42 255.533 168.804 256.216C169.198 256.899 169.396 257.693 169.396 258.6C169.396 259.507 169.193 260.307 168.788 261C168.393 261.683 167.854 262.211 167.172 262.584C166.489 262.957 165.732 263.144 164.9 263.144ZM164.9 261.864C165.422 261.864 165.913 261.741 166.372 261.496C166.83 261.251 167.198 260.883 167.476 260.392C167.764 259.901 167.908 259.304 167.908 258.6C167.908 257.896 167.769 257.299 167.492 256.808C167.214 256.317 166.852 255.955 166.404 255.72C165.956 255.475 165.47 255.352 164.948 255.352C164.414 255.352 163.924 255.475 163.476 255.72C163.038 255.955 162.686 256.317 162.42 256.808C162.153 257.299 162.02 257.896 162.02 258.6C162.02 259.315 162.148 259.917 162.404 260.408C162.67 260.899 163.022 261.267 163.46 261.512C163.897 261.747 164.377 261.864 164.9 261.864ZM172.766 255.656C173.022 255.155 173.385 254.765 173.854 254.488C174.334 254.211 174.915 254.072 175.598 254.072V255.576H175.214C173.582 255.576 172.766 256.461 172.766 258.232V263H171.31V254.232H172.766V255.656ZM182.175 263L178.735 259.128V263H177.279V251.16H178.735V258.12L182.111 254.232H184.143L180.015 258.6L184.159 263H182.175Z" fill="black"/>
<path d="M195.938 122.059H189.52V116.34H195.938C196.12 116.34 196.299 116.293 196.458 116.202C196.617 116.112 196.751 115.982 196.845 115.824C196.94 115.666 196.993 115.487 196.999 115.302C197.006 115.118 196.965 114.935 196.881 114.771C196.076 113.204 194.859 111.891 193.365 110.977C191.871 110.064 190.157 109.584 188.411 109.591C186.665 109.598 184.955 110.091 183.468 111.016C181.981 111.942 180.774 113.264 179.981 114.838H171.5V112.75C171.5 111.969 171.289 111.204 170.892 110.535C170.494 109.866 169.924 109.32 169.243 108.954C168.561 108.588 167.794 108.417 167.024 108.458C166.254 108.5 165.509 108.752 164.87 109.189C164.584 108.347 164.046 107.616 163.329 107.098C162.613 106.58 161.754 106.302 160.874 106.302C159.993 106.302 159.135 106.58 158.419 107.098C157.702 107.616 157.163 108.347 156.878 109.189C156.34 108.82 155.725 108.581 155.081 108.491C154.438 108.401 153.782 108.462 153.165 108.67C152.548 108.878 151.987 109.227 151.526 109.69C151.064 110.153 150.714 110.717 150.503 111.339C149.868 110.906 149.13 110.654 148.365 110.61C147.601 110.566 146.839 110.732 146.16 111.09C145.481 111.448 144.91 111.985 144.508 112.645C144.106 113.304 143.887 114.061 143.875 114.835H133.314C132.17 114.835 131.072 115.295 130.263 116.114C129.454 116.932 129 118.042 129 119.2C129 120.357 129.454 121.468 130.263 122.286C131.072 123.105 132.17 123.564 133.314 123.564H143.875V125.65C143.875 126.315 144.04 126.969 144.355 127.553L145.25 132.941C145.638 135.333 146.641 137.581 148.159 139.457C148.143 139.512 148.132 139.568 148.125 139.625V165.425C148.125 166.85 148.685 168.218 149.681 169.226C150.677 170.234 152.029 170.8 153.438 170.8H166.188C167.596 170.8 168.948 170.234 169.944 169.226C170.94 168.218 171.5 166.85 171.5 165.425V141.083C172.851 139.771 173.924 138.196 174.655 136.452C175.385 134.709 175.758 132.833 175.75 130.939V126.725C175.747 125.587 175.384 124.479 174.715 123.564H179.983C180.776 125.138 181.983 126.46 183.47 127.385C184.957 128.311 186.667 128.804 188.413 128.811C190.159 128.818 191.873 128.338 193.367 127.424C194.861 126.511 196.078 125.198 196.883 123.631C196.967 123.467 197.008 123.284 197.002 123.1C196.995 122.915 196.942 122.736 196.847 122.578C196.753 122.42 196.619 122.29 196.46 122.199C196.301 122.109 196.122 122.062 195.94 122.062L195.938 122.059ZM167.25 110.6C167.814 110.6 168.354 110.826 168.753 111.23C169.151 111.633 169.375 112.18 169.375 112.75V121.414H165.125V112.75C165.125 112.18 165.349 111.633 165.747 111.23C166.146 110.826 166.686 110.6 167.25 110.6ZM158.75 110.6C158.75 110.03 158.974 109.483 159.372 109.08C159.771 108.676 160.311 108.45 160.875 108.45C161.439 108.45 161.979 108.676 162.378 109.08C162.776 109.483 163 110.03 163 110.6V121.93C162.909 121.982 162.841 122.062 162.756 122.12C162.626 122.208 162.502 122.305 162.384 122.408C162.084 122.679 161.815 122.984 161.583 123.317C161.438 123.549 161.317 123.795 161.219 124.05C161.17 124.175 161.104 124.289 161.066 124.418C160.943 124.817 160.879 125.232 160.875 125.65C160.557 125.653 160.242 125.58 159.956 125.438C159.67 125.296 159.421 125.089 159.228 124.833C158.916 124.461 158.746 123.988 158.75 123.5V110.6ZM152.375 112.75C152.375 112.18 152.599 111.633 152.997 111.23C153.396 110.826 153.936 110.6 154.5 110.6C155.064 110.6 155.604 110.826 156.003 111.23C156.401 111.633 156.625 112.18 156.625 112.75V123.5C156.622 123.922 156.498 124.335 156.266 124.687C156.228 124.726 156.192 124.767 156.16 124.811C155.938 125.077 155.656 125.285 155.338 125.418C155.021 125.55 154.676 125.604 154.334 125.574C153.991 125.544 153.661 125.432 153.37 125.246C153.08 125.06 152.838 124.806 152.664 124.506C152.478 124.204 152.378 123.856 152.375 123.5V112.75ZM146 114.9C146 114.33 146.224 113.783 146.622 113.38C147.021 112.976 147.561 112.75 148.125 112.75C148.689 112.75 149.229 112.976 149.628 113.38C150.026 113.783 150.25 114.33 150.25 114.9V125.65C150.25 126.22 150.026 126.767 149.628 127.17C149.229 127.573 148.689 127.8 148.125 127.8C147.747 127.8 147.377 127.696 147.053 127.501C146.728 127.305 146.462 127.024 146.283 126.688C146.09 126.378 145.991 126.017 146 125.65V114.9ZM133.314 121.414C132.733 121.414 132.177 121.181 131.766 120.766C131.356 120.35 131.125 119.787 131.125 119.2C131.125 118.613 131.356 118.049 131.766 117.634C132.177 117.219 132.733 116.985 133.314 116.985H143.875V121.414H133.314ZM166.188 168.65H153.438C152.592 168.65 151.781 168.31 151.184 167.705C150.586 167.1 150.25 166.28 150.25 165.425V153.6H169.375V165.425C169.375 166.28 169.039 167.1 168.441 167.705C167.844 168.31 167.033 168.65 166.188 168.65ZM173.625 126.725V130.939C173.636 132.618 173.294 134.28 172.622 135.815C171.949 137.349 170.961 138.721 169.723 139.84C168.651 140.826 167.383 141.571 166.005 142.024C165.765 142.104 165.561 142.268 165.429 142.486C165.298 142.704 165.247 142.963 165.287 143.215C165.327 143.468 165.455 143.698 165.647 143.863C165.839 144.029 166.084 144.12 166.336 144.121C166.449 144.121 166.561 144.103 166.668 144.067C167.619 143.739 168.529 143.296 169.375 142.747V151.45H150.25V141.596C150.858 142.094 151.512 142.531 152.203 142.901C152.353 142.982 152.521 143.024 152.692 143.024C152.929 143.024 153.16 142.943 153.346 142.794C153.533 142.646 153.665 142.438 153.722 142.205C153.778 141.971 153.756 141.726 153.658 141.507C153.56 141.288 153.393 141.108 153.183 140.997C152.154 140.455 151.225 139.738 150.437 138.877C148.791 137.154 147.711 134.959 147.345 132.592L146.873 129.735C147.394 129.907 147.944 129.974 148.49 129.931C149.037 129.888 149.569 129.736 150.058 129.485C150.546 129.233 150.981 128.886 151.336 128.464C151.692 128.042 151.962 127.554 152.131 127.026C152.826 127.519 153.651 127.789 154.5 127.8C155.108 127.8 155.708 127.665 156.259 127.405C156.809 127.145 157.297 126.766 157.688 126.295C158.077 126.767 158.565 127.146 159.116 127.406C159.667 127.666 160.267 127.8 160.875 127.8C161.063 127.794 161.25 127.775 161.436 127.744C161.799 128.413 162.333 128.97 162.982 129.359C163.631 129.747 164.371 129.951 165.125 129.95H168.312C168.594 129.95 168.865 129.837 169.064 129.635C169.263 129.433 169.375 129.16 169.375 128.875C169.375 128.59 169.263 128.316 169.064 128.115C168.865 127.913 168.594 127.8 168.312 127.8H165.125C164.637 127.796 164.166 127.623 163.788 127.31C163.411 126.997 163.151 126.563 163.051 126.08C163.024 125.986 163.013 125.888 163.019 125.79C163.02 125.717 163.014 125.645 163 125.575C163.009 125.502 163.022 125.431 163.038 125.36C163.046 125.13 163.101 124.904 163.2 124.698C163.299 124.491 163.44 124.308 163.614 124.16C163.833 123.921 164.105 123.737 164.407 123.625C164.443 123.612 164.551 123.577 164.609 123.554H171.001C171.737 123.685 172.404 124.075 172.884 124.655C173.365 125.235 173.627 125.968 173.625 126.725ZM188.458 126.66C187 126.663 185.575 126.228 184.361 125.411C183.147 124.595 182.2 123.433 181.638 122.072C181.558 121.877 181.421 121.71 181.247 121.592C181.073 121.475 180.868 121.412 180.659 121.412H171.5V116.985H180.659C180.868 116.985 181.073 116.923 181.247 116.805C181.421 116.688 181.558 116.521 181.638 116.325C182.118 115.165 182.879 114.147 183.851 113.364C184.823 112.581 185.974 112.058 187.199 111.845C188.424 111.633 189.682 111.736 190.856 112.146C192.031 112.556 193.084 113.259 193.919 114.19H188.458C188.176 114.19 187.905 114.304 187.706 114.505C187.507 114.707 187.395 114.98 187.395 115.265V123.134C187.395 123.419 187.507 123.693 187.706 123.895C187.905 124.096 188.176 124.209 188.458 124.209H193.919C193.229 124.983 192.387 125.6 191.446 126.023C190.505 126.445 189.487 126.662 188.458 126.66Z" fill="white"/>
<path d="M111.181 121.197C113.042 121.197 113.042 118.449 111.181 118.449H94.4376C93.4631 118.449 93.3745 116.942 94.4376 116.942H110.03C109.764 112.51 106.486 108.964 102.322 107.723V113.485C102.322 117.74 95.6779 117.829 95.6779 113.485V107.723C91.5141 108.964 88.2362 112.51 87.9705 116.942H92.1342C93.1087 116.942 93.1087 118.449 92.1342 118.449H86.8188C84.9584 118.449 84.9584 121.197 86.8188 121.197C94.9691 121.197 103.031 121.197 111.181 121.197ZM66 168.8L67.3289 157.099C67.4174 155.858 69.1007 156.212 68.9235 157.099L67.7718 167.204H78.8456V145.841C76.5423 146.461 69.898 148.234 69.6322 150.805L69.2779 154.262C69.1893 155.415 67.506 155.326 67.5946 154.262L68.0376 150.628C68.6577 144.866 86.4644 142.561 90.9826 142.029L91.1597 142.384L93.4631 136.178C90.9826 134.583 89.2993 131.923 88.8564 128.909C86.7302 128.2 86.1101 124.477 86.0215 122.527C83.098 121.64 83.4523 117.385 86.553 117.031C86.8188 111.801 90.7168 107.546 95.6779 106.216V105.95C95.6779 104.886 96.5638 104 97.6268 104H100.373C101.436 104 102.322 104.886 102.322 105.95V106.216C107.283 107.546 111.181 111.801 111.447 117.031C114.548 117.385 114.902 121.64 111.979 122.527C111.89 124.477 111.27 128.2 109.144 128.909C108.701 131.923 107.017 134.583 104.537 136.178L106.84 142.384L107.017 142.029C111.713 142.65 129.342 144.866 129.962 150.628L132 168.8H66ZM94.8805 136.976L92.2228 144.157C95.3235 147.259 102.677 147.348 105.777 144.157L103.119 136.976C101.879 137.508 100.462 137.863 99.0443 137.863C97.6268 137.863 96.2094 137.508 94.8805 136.976ZM112.244 167.204V162.063H85.7557V167.204H112.244ZM113.839 167.204H117.56V145.486C116.674 145.22 115.788 145.043 114.902 144.866V150.273C114.902 152.844 113.042 154.528 110.472 155.68C104.714 158.074 93.2859 158.074 87.5275 155.68C84.9584 154.528 83.1866 152.844 83.1866 150.273V144.866C82.2121 145.043 81.3262 145.22 80.4403 145.486V167.204H84.1611V160.379H113.839V167.204ZM109.852 154.173C111.89 153.287 113.219 152.046 113.219 150.273V144.6C111.447 144.245 109.675 143.979 107.992 143.802C105.068 149.653 92.9315 149.564 90.0081 143.802C88.3248 143.979 86.553 144.245 84.7812 144.6V150.273C84.7812 152.046 86.1101 153.287 88.1477 154.173C93.4631 156.39 104.537 156.39 109.852 154.173ZM119.154 145.841V167.204H130.228L128.368 150.805C128.102 148.234 121.458 146.461 119.154 145.841ZM109.232 122.704V127.225C110.118 126.161 110.472 124.034 110.561 122.704H109.232ZM107.815 127.757V122.616H90.2738V127.668C90.2738 132.455 94.1718 136.444 99.0443 136.444C103.74 136.444 107.726 132.544 107.815 127.757ZM100.373 105.418H97.6268C97.3611 105.418 97.0953 105.684 97.0953 105.95V113.485C97.0953 115.967 100.905 115.967 100.905 113.485V105.95C100.905 105.684 100.639 105.418 100.373 105.418ZM88.7678 127.225V122.704H87.4389C87.5275 124.034 87.8819 126.161 88.7678 127.225Z" fill="white"/>
<path fill-rule="evenodd" clip-rule="evenodd" d="M149.72 65.4222C149.687 65.2446 149.73 65.0645 149.837 64.9134C149.939 64.7677 150.102 64.667 150.281 64.6352C152.277 64.3013 157.983 63.3474 157.983 63.3474C158.371 63.2812 158.74 63.5435 158.804 63.9277L161.206 78.0436H167.286C167.679 78.0436 168 78.3589 168 78.7511V103.681C168 104.07 167.682 104.388 167.286 104.388H114.159C113.766 104.388 113.445 104.073 113.445 103.681V97.5172L110.013 98.0922C109.626 98.1584 109.257 97.8961 109.193 97.5119L105.01 72.927C104.944 72.5427 105.206 72.177 105.593 72.1135C105.593 72.1135 140.277 66.313 145.559 65.4306C145.93 65.3696 146.283 65.6134 146.344 65.9818C146.347 65.9977 146.352 66.0189 146.355 66.0348C146.387 66.2123 146.344 66.3978 146.237 66.5435C146.136 66.6946 145.973 66.7926 145.794 66.8244C140.537 67.7042 106.534 73.3907 106.534 73.3907L110.478 96.5795L113.445 96.084V93.6276C113.284 93.5481 113.132 93.4554 112.982 93.3494C112.151 92.7611 111.585 91.8681 111.414 90.8665L109.308 78.4757C109.137 77.474 109.374 76.4485 109.968 75.6218C110.561 74.7978 111.459 74.2359 112.467 74.0664L152.13 67.4365C153.141 67.2669 154.175 67.5028 155.009 68.0884C155.84 68.6766 156.407 69.5696 156.578 70.5713L157.85 78.044H159.761L157.518 64.8609C157.518 64.8609 152.384 65.7194 150.517 66.0322C150.145 66.0931 149.792 65.8493 149.731 65.481C149.725 65.4624 149.723 65.4439 149.72 65.4253L149.72 65.4222ZM141.149 78.043H156.407L155.177 70.8036C155.068 70.1729 154.712 69.6112 154.188 69.2402C153.662 68.8692 153.007 68.7208 152.374 68.8268L112.715 75.4566C112.077 75.5653 111.51 75.9177 111.136 76.4371C110.762 76.9591 110.612 77.6083 110.719 78.2362L112.825 90.6271C112.905 91.0961 113.124 91.5306 113.45 91.8725V78.7429C113.45 78.3534 113.768 78.0354 114.164 78.0354H126.856C127.789 75.6002 129.962 73.7056 132.733 73.2419C136.395 72.6298 139.888 74.7152 141.152 78.0354L141.149 78.043ZM114.875 93.2585V102.972H166.578V79.4553H114.875V93.078C114.88 93.1337 114.88 93.1973 114.875 93.2556V93.2585ZM117.435 92.4079C117.059 92.4052 116.757 92.1031 116.757 91.7295V84.9324C116.757 83.9175 117.165 82.945 117.887 82.2269C118.611 81.5088 119.592 81.1061 120.616 81.1061H160.838C161.861 81.1061 162.842 81.5115 163.567 82.2269C164.291 82.945 164.694 83.9175 164.694 84.9324V97.4976C164.694 98.5124 164.291 99.4849 163.567 100.203C162.842 100.921 161.861 101.321 160.838 101.321H120.616C119.592 101.321 118.611 100.921 117.887 100.203C117.163 99.4849 116.757 98.5124 116.757 97.4976V96.4774C116.757 96.2972 116.831 96.125 116.96 95.9978C117.091 95.8679 117.267 95.7964 117.449 95.799H117.505C117.879 95.8017 118.181 96.1064 118.181 96.4774V97.4976C118.181 98.1362 118.438 98.751 118.895 99.2014C119.352 99.6572 119.969 99.9089 120.616 99.9089H160.838C161.482 99.9089 162.102 99.6572 162.556 99.2014C163.013 98.7483 163.27 98.1362 163.27 97.4976V84.9324C163.27 84.2938 163.013 83.679 162.556 83.2259C162.099 82.7729 161.482 82.5184 160.838 82.5184H120.616C119.969 82.5184 119.349 82.7728 118.895 83.2259C118.438 83.6817 118.181 84.2938 118.181 84.9324V91.7295C118.181 91.9097 118.109 92.0846 117.978 92.2118C117.85 92.339 117.673 92.4105 117.491 92.4079H117.435ZM140.727 83.6395C144.947 83.6395 148.368 87.0339 148.368 91.2153C148.368 95.3968 144.947 98.7912 140.727 98.7912C136.509 98.7912 133.086 95.3968 133.086 91.2153C133.086 87.0339 136.509 83.6395 140.727 83.6395ZM140.727 85.0518C137.298 85.0518 134.513 87.8129 134.513 91.2126C134.513 94.6123 137.298 97.3734 140.727 97.3734C144.158 97.3734 146.941 94.6123 146.941 91.2126C146.941 87.8129 144.158 85.0518 140.727 85.0518ZM128.406 78.043H139.604C138.434 75.6343 135.761 74.177 132.971 74.6433C130.908 74.9878 129.253 76.3048 128.406 78.043Z" fill="white"/>
</svg>
