<svg width="48" height="51" viewBox="0 0 48 51" fill="none" xmlns="http://www.w3.org/2000/svg">
<path d="M46.6136 51H0.754795C0.337897 51 0 50.6621 0 50.2452V41.4858C0 38.097 2.03291 35.0942 5.17915 33.8357L16.0296 29.4956C16.2195 29.4197 16.4324 29.4239 16.6188 29.5077C16.8055 29.5915 16.9502 29.7472 17.0199 29.9397L20.2137 38.7698L21.2646 35.7486L20.3357 33.4782C20.2403 33.2455 20.2675 32.9803 20.4074 32.7717C20.5478 32.5629 20.7825 32.4376 21.0341 32.4376H26.3343C26.5859 32.4376 26.8209 32.5629 26.961 32.7717C27.1012 32.9805 27.1281 33.2455 27.0327 33.4782L26.1041 35.7489L27.155 38.7701L30.3488 29.94C30.4182 29.7475 30.5632 29.5917 30.7499 29.508C30.9363 29.4242 31.1491 29.4199 31.3391 29.4959L42.1893 33.836C45.3358 35.0945 47.3687 38.0975 47.3687 41.4861V50.2455C47.3684 50.6621 47.0308 51 46.6136 51ZM1.50959 49.4904H45.8591V41.4858C45.8591 38.718 44.1985 36.2651 41.6287 35.2374L31.5031 31.1871L27.8509 41.284C27.7422 41.5844 27.4559 41.7799 27.1364 41.7819C26.8166 41.7799 26.5333 41.5769 26.4281 41.275L24.5849 35.9748C24.5246 35.8012 24.5293 35.6112 24.5993 35.4412L25.2104 33.9469H22.1583L22.7697 35.4409C22.8393 35.6112 22.8444 35.8009 22.7842 35.9748L20.9408 41.275C20.8356 41.5769 20.5521 41.7799 20.2325 41.7819C19.9037 41.7809 19.6267 41.5844 19.518 41.284L15.8658 31.1871L5.73971 35.2374C3.16989 36.2651 1.50959 38.7177 1.50959 41.4858V49.4904ZM40.8198 47.6983H32.3719C31.955 47.6983 31.6171 47.3604 31.6171 46.9435V41.7429C31.6171 41.326 31.955 40.9881 32.3719 40.9881L41.6287 35.2374C42.0456 35.2374 49.5 38.7701 41.5746 41.7429V46.9435C41.5746 47.3601 41.2367 47.6983 40.8198 47.6983ZM33.1267 46.1887H40.065V42.4977H33.1267V46.1887ZM23.6842 29.318C22.5158 29.318 21.3766 29.1011 20.298 28.6732C19.4644 28.3423 18.7755 27.9262 18.2509 27.4363C16.802 26.084 15.2957 23.1901 14.7404 22.0634C13.7974 22.0176 11.8634 21.5149 11.026 18.3138C10.6104 16.7242 10.7053 15.4466 11.3078 14.5167C11.6367 14.009 12.0506 13.7101 12.393 13.5365C12.3869 13.14 12.396 12.5621 12.4594 11.8697C11.9288 11.0593 10.7682 8.64266 12.7608 5.10569L12.7621 5.10367L12.7648 5.09864L12.7759 5.07927C12.7777 5.0765 12.7794 5.07348 12.7809 5.07071C12.783 5.06744 12.7847 5.06417 12.7865 5.0609L12.788 5.05864C14.0923 2.77765 15.7797 2.29709 16.9678 2.29634H16.9691H16.9703C17.2617 2.29634 17.5248 2.32603 17.7475 2.36653C18.2889 1.41499 19.8076 0 24.045 0C24.0475 0 24.0505 0 24.0531 0L24.2448 0.00100639H24.2501H24.2513C24.2538 0.00100639 24.2561 0.00100639 24.2581 0.00100639C27.0551 0.031953 29.2853 1.05722 30.6744 1.92221C33.3131 3.21316 34.9266 5.9103 35.3224 7.31019C35.4955 7.92334 35.5823 8.63612 35.5798 9.4284V9.42966V9.43242V9.43343V9.43544V9.43922V9.44249V9.44651C35.5712 11.26 35.107 12.9993 34.9762 13.4542C34.976 13.4822 34.9757 13.5093 34.9752 13.5355C35.3176 13.7091 35.7318 14.008 36.0603 14.5157C36.6632 15.4459 36.7578 16.7232 36.3421 18.3128C35.5051 21.5139 33.571 22.0169 32.628 22.0627C32.0728 23.1893 30.5664 26.0832 29.1172 27.4358C28.5924 27.9257 27.9038 28.3418 27.0702 28.6724C25.9916 29.1011 24.8524 29.318 23.6842 29.318ZM15.194 20.5357C15.4856 20.5357 15.7639 20.701 15.8892 20.97C15.9071 21.0087 17.7133 24.8695 19.281 26.3328C19.6674 26.6936 20.1968 27.0088 20.8545 27.27C21.7552 27.6273 22.707 27.8087 23.684 27.8087C24.6609 27.8087 25.6127 27.6275 26.5134 27.27C27.1709 27.0091 27.7005 26.6938 28.0872 26.333C29.6549 24.8695 31.4611 21.009 31.479 20.9702C31.6264 20.6537 31.9726 20.4799 32.3138 20.5488C32.3158 20.5488 32.3772 20.5579 32.4736 20.5579C33.1164 20.5579 34.2838 20.2167 34.8814 17.9319C35.1765 16.8035 35.1511 15.9146 34.8084 15.3616C34.519 14.8949 34.0793 14.7988 34.0604 14.795C33.6724 14.7303 33.413 14.3811 33.4462 13.9891C33.4462 13.9891 33.4651 13.7551 33.4669 13.3684C33.4533 13.1573 33.3471 12.52 33.0276 12.2166C32.6411 11.9079 30.2897 11.4543 28.0157 11.0155C27.0599 10.8311 25.9768 10.6222 24.835 10.3885L24.8307 10.3877C24.0845 10.2521 23.4409 10.0685 22.9163 9.84228C20.9984 9.13403 19.6788 8.11833 18.8767 7.3434C18.5878 8.14424 18.1241 9.1378 17.4285 9.88907C16.1944 11.222 14.7014 11.9278 13.9441 12.2234C13.8636 13.2728 13.9202 13.9816 13.9209 13.9896C13.9536 14.3811 13.6804 14.7333 13.2929 14.7978C13.2879 14.7993 12.8481 14.8954 12.5588 15.3621C12.2161 15.9151 12.1907 16.804 12.4858 17.9324C13.0836 20.2174 14.2513 20.5584 14.8939 20.5584C14.9995 20.5584 15.0642 20.5475 15.0642 20.5475C15.108 20.5392 15.1513 20.5357 15.194 20.5357ZM18.5355 5.05612C18.7858 5.05612 19.0241 5.18091 19.1655 5.39528C19.1768 5.41213 20.5017 7.34592 23.458 8.43232C23.4724 8.4376 23.486 8.44289 23.4998 8.44893C23.9242 8.6341 24.4677 8.78732 25.1148 8.90432C25.1244 8.90608 25.1337 8.90784 25.1432 8.90985C26.2717 9.14082 27.3503 9.34914 28.3023 9.53281C31.7344 10.195 33.2716 10.5078 33.9474 11.0198C34.0174 10.5241 34.0679 9.98191 34.0704 9.43997V9.43645V9.43393V9.43142V9.42915V9.42815V9.42513V9.42286C34.0722 8.81525 34.0133 8.27633 33.8963 7.81917C33.8878 7.78621 33.8792 7.75376 33.8702 7.72181C33.8518 7.65664 33.8299 7.58846 33.805 7.51751C33.3705 6.28367 31.9553 4.22937 29.9988 3.27304C29.9679 3.25895 29.9379 3.24285 29.909 3.22474C28.6875 2.45837 26.7122 1.53878 24.242 1.5116C24.24 1.5116 24.236 1.5116 24.236 1.5116L24.0453 1.50959C23.9247 1.50959 23.8072 1.51085 23.6925 1.51311H23.6885C19.4491 1.60318 18.9695 3.29745 18.9471 3.38928C18.9438 3.4084 18.9403 3.42753 18.9358 3.44665C18.9096 3.5581 18.8596 3.659 18.7919 3.74429C18.7401 3.80945 18.6787 3.86455 18.6102 3.90858C18.5018 3.97853 18.3752 4.0213 18.2411 4.02834C18.1609 4.03287 18.0806 4.02432 18.0011 4.00243C17.9641 3.99211 17.9281 3.97953 17.8937 3.96418C17.8411 3.9433 17.4743 3.80568 16.9703 3.80568H16.9691C15.8182 3.80618 14.8491 4.4855 14.0885 5.82475L14.087 5.82702C14.086 5.82878 14.0847 5.83079 14.0837 5.83255C14.0822 5.83532 14.0807 5.83784 14.0792 5.84061L14.0777 5.84337L14.0767 5.84488C12.6886 8.30753 13.1792 10.0046 13.5539 10.7513C14.2105 10.4763 15.3722 9.88782 16.3209 8.86306C17.2028 7.91076 17.6833 6.2326 17.794 5.66625C17.8529 5.36534 18.0879 5.13009 18.3886 5.07071C18.4379 5.06065 18.4869 5.05612 18.5355 5.05612Z" fill="white"/>
</svg>
