<svg width="51" height="51" viewBox="0 0 51 51" fill="none" xmlns="http://www.w3.org/2000/svg">
<g clip-path="url(#clip0_3623_1859)">
<path d="M48.4294 51H2.57059C2.15369 51 1.8158 50.6621 1.8158 50.2452V41.4858C1.8158 38.097 3.84871 35.0942 6.99495 33.8357L17.8454 29.4956C18.0353 29.4197 18.2482 29.4239 18.4346 29.5077C18.6213 29.5915 18.766 29.7472 18.8357 29.9397L22.0295 38.7698L23.0804 35.7486L22.1515 33.4782C22.0561 33.2455 22.0833 32.9803 22.2232 32.7717C22.3636 32.5629 22.5983 32.4376 22.8499 32.4376H28.1501C28.4017 32.4376 28.6367 32.5629 28.7768 32.7717C28.917 32.9805 28.9439 33.2455 28.8485 33.4782L27.9199 35.7489L28.9708 38.7701L32.1646 29.94C32.234 29.7475 32.379 29.5917 32.5656 29.508C32.7521 29.4242 32.9649 29.4199 33.1549 29.4959L44.0051 33.836C47.1516 35.0945 49.1845 38.0975 49.1845 41.4861V50.2455C49.1842 50.6621 48.8466 51 48.4294 51ZM3.32539 49.4904H47.6749V41.4858C47.6749 38.718 46.0143 36.2651 43.4445 35.2374L33.3189 31.1871L29.6667 41.284C29.558 41.5844 29.2717 41.7799 28.9522 41.7819C28.6324 41.7799 28.3491 41.5769 28.2439 41.275L26.4007 35.9748C26.3403 35.8012 26.3451 35.6112 26.4151 35.4412L27.0262 33.9469H23.9741L24.5854 35.4409C24.6551 35.6112 24.6602 35.8009 24.6 35.9748L22.7566 41.275C22.6514 41.5769 22.3679 41.7799 22.0483 41.7819C21.7195 41.7809 21.4425 41.5844 21.3338 41.284L17.6816 31.1871L7.55551 35.2374C4.98568 36.2651 3.32539 38.7177 3.32539 41.4858V49.4904ZM42.6356 47.6983H34.1877C33.7708 47.6983 33.4329 47.3604 33.4329 46.9435V41.7429C33.4329 41.326 33.7708 40.9881 34.1877 40.9881H42.6356C43.0525 40.9881 43.3904 41.326 43.3904 41.7429V46.9435C43.3904 47.3601 43.0525 47.6983 42.6356 47.6983ZM34.9425 46.1887H41.8808V42.4977H34.9425V46.1887ZM25.5 29.318C24.3316 29.318 23.1923 29.1011 22.1137 28.6732C21.2802 28.3423 20.5913 27.9262 20.0667 27.4363C18.6178 26.084 17.1115 23.1901 16.5562 22.0634C15.6132 22.0176 13.6792 21.5149 12.8418 18.3138C12.4262 16.7242 12.5211 15.4466 13.1236 14.5167C13.4525 14.009 13.8664 13.7101 14.2088 13.5365C14.2027 13.14 14.2118 12.5621 14.2752 11.8697C13.7446 11.0593 12.584 8.64266 14.5766 5.10569C14.5771 5.10493 14.5774 5.10443 14.5779 5.10367C14.5779 5.10367 14.5801 5.09965 14.5806 5.09864C14.5809 5.09814 14.591 5.08078 14.5917 5.07927C14.5935 5.0765 14.5952 5.07348 14.5967 5.07071C14.5988 5.06744 14.6005 5.06417 14.6023 5.0609C14.6028 5.06015 14.6033 5.05939 14.6038 5.05864C15.9081 2.77765 17.5955 2.29709 18.7836 2.29634C18.7838 2.29634 18.7841 2.29634 18.7843 2.29634H18.7848C18.7854 2.29634 18.7861 2.29634 18.7861 2.29634H18.7866C19.078 2.29634 19.3406 2.32603 19.5633 2.36653C20.1047 1.41499 21.6234 0 25.8608 0C25.8603 0 25.8611 0 25.8608 0H25.8613C25.8638 0 25.8663 0 25.8689 0L26.0606 0.00100639C26.0623 0.00100639 26.0641 0.00100639 26.0659 0.00100639H26.0671C26.0696 0.00100639 26.0719 0.00100639 26.0739 0.00100639C28.8709 0.031953 31.1011 1.05722 32.4902 1.92221C35.1289 3.21316 36.7424 5.9103 37.1382 7.31019C37.3113 7.92334 37.3981 8.63611 37.3956 9.4284C37.3956 9.42865 37.3956 9.4289 37.3956 9.42915C37.3956 9.42915 37.3956 9.4294 37.3956 9.42966C37.3956 9.43041 37.3956 9.43142 37.3956 9.43242C37.3956 9.43268 37.3956 9.43318 37.3956 9.43343C37.3956 9.43393 37.3956 9.43469 37.3956 9.43544C37.3956 9.43645 37.3956 9.43796 37.3956 9.43922C37.3956 9.44022 37.3956 9.44148 37.3956 9.44249C37.3956 9.44375 37.3956 9.44526 37.3956 9.44651C37.387 11.26 36.9228 12.9993 36.792 13.4542C36.7917 13.4822 36.7915 13.5093 36.791 13.5355C37.1334 13.7091 37.5476 14.008 37.8761 14.5157C38.479 15.4459 38.5736 16.7232 38.1579 18.3128C37.3209 21.5139 35.3868 22.0169 34.4438 22.0627C33.8885 23.1893 32.3822 26.0832 30.933 27.4358C30.4082 27.9257 29.7196 28.3418 28.886 28.6724C27.8074 29.1011 26.6682 29.318 25.5 29.318ZM17.0098 20.5357C17.3014 20.5357 17.5797 20.701 17.705 20.97C17.7229 21.0087 19.5291 24.8695 21.0968 26.3328C21.4832 26.6936 22.0126 27.0088 22.6703 27.27C23.571 27.6273 24.5228 27.8087 25.4998 27.8087C26.4767 27.8087 27.4285 27.6275 28.3292 27.27C28.9867 27.0091 29.5163 26.6938 29.903 26.333C31.4707 24.8695 33.2769 21.009 33.2948 20.9702C33.4422 20.6537 33.7884 20.4799 34.1296 20.5488C34.1293 20.5488 34.1293 20.5488 34.1293 20.5488C34.1313 20.5488 34.193 20.5579 34.2893 20.5579C34.9322 20.5579 36.0996 20.2167 36.6971 17.9319C36.9923 16.8035 36.9669 15.9146 36.6242 15.3616C36.3348 14.8949 35.8951 14.7988 35.8762 14.795C35.4882 14.7303 35.2288 14.3811 35.262 13.9891C35.262 13.9876 35.2809 13.7551 35.2827 13.3684C35.2691 13.1573 35.1629 12.52 34.8434 12.2166C34.4569 11.9079 32.1055 11.4543 29.8315 11.0155C28.8757 10.8311 27.7926 10.6222 26.6508 10.3885C26.6496 10.3882 26.6481 10.388 26.6465 10.3877C25.9003 10.2521 25.2567 10.0685 24.7321 9.84228C22.8142 9.13403 21.4946 8.11833 20.6925 7.3434C20.4036 8.14424 19.9399 9.1378 19.2443 9.88907C18.0102 11.222 16.5172 11.9278 15.7599 12.2234C15.6794 13.2728 15.736 13.9816 15.7367 13.9896C15.7694 14.3811 15.4962 14.7333 15.1087 14.7978C15.1037 14.7993 14.6639 14.8954 14.3746 15.3621C14.0319 15.9151 14.0065 16.804 14.3016 17.9324C14.8994 20.2174 16.0671 20.5584 16.7097 20.5584C16.8153 20.5584 16.8795 20.5475 16.88 20.5475C16.9238 20.5392 16.9671 20.5357 17.0098 20.5357ZM20.3513 5.05612C20.6016 5.05612 20.8399 5.18091 20.9813 5.39528C20.9926 5.41213 22.3175 7.34592 25.2738 8.43232C25.2882 8.4376 25.3018 8.44289 25.3156 8.44893C25.74 8.6341 26.2835 8.78732 26.9306 8.90432C26.9402 8.90608 26.9495 8.90784 26.959 8.90985C28.0874 9.14082 29.166 9.34914 30.1181 9.53281C33.5502 10.195 35.0874 10.5078 35.7632 11.0198C35.8332 10.5241 35.8837 9.98191 35.8862 9.43997C35.8862 9.43896 35.8862 9.43771 35.8862 9.43645C35.8862 9.43569 35.8862 9.43469 35.8862 9.43393C35.8862 9.43318 35.8862 9.43217 35.8862 9.43142C35.8862 9.43142 35.8862 9.43117 35.8862 9.43091C35.8862 9.43041 35.8862 9.42966 35.8862 9.42915C35.8862 9.4289 35.8862 9.42865 35.8862 9.42815C35.8862 9.42815 35.8862 9.42789 35.8862 9.42764C35.8862 9.42689 35.8862 9.42613 35.8862 9.42513C35.8862 9.42437 35.8862 9.42362 35.8862 9.42286C35.888 8.81525 35.8291 8.27633 35.7121 7.81917C35.7036 7.78622 35.695 7.75376 35.686 7.72181C35.6676 7.65664 35.6457 7.58846 35.6208 7.51751C35.1863 6.28367 33.7711 4.22937 31.8146 3.27304C31.7837 3.25895 31.7537 3.24285 31.7248 3.22474C30.5033 2.45837 28.528 1.53878 26.0578 1.5116C26.0558 1.5116 26.0535 1.5116 26.0518 1.5116L25.8611 1.50959C25.7405 1.50959 25.623 1.51085 25.5083 1.51311C25.5068 1.51311 25.5058 1.51311 25.5043 1.51311C21.2649 1.60318 20.7853 3.29745 20.7629 3.38928C20.7596 3.4084 20.7561 3.42753 20.7516 3.44665C20.7254 3.5581 20.6754 3.659 20.6077 3.74429C20.5558 3.80945 20.4945 3.86455 20.426 3.90858C20.3176 3.97853 20.191 4.0213 20.0569 4.02834C19.9767 4.03287 19.8964 4.02432 19.8169 4.00243C19.7799 3.99211 19.7439 3.97953 19.7095 3.96418C19.6569 3.9433 19.2901 3.80568 18.7861 3.80568C18.7856 3.80568 18.7854 3.80568 18.7848 3.80568C17.634 3.80618 16.6649 4.4855 15.9043 5.82475C15.9038 5.82551 15.9033 5.82626 15.9028 5.82702C15.9028 5.82727 15.9025 5.82727 15.9025 5.82752C15.9015 5.82928 15.9005 5.83079 15.8995 5.83255C15.898 5.83532 15.8965 5.83784 15.895 5.84061C15.8945 5.84161 15.894 5.84237 15.8935 5.84337C15.893 5.84388 15.8927 5.84438 15.8925 5.84488C14.5044 8.30753 14.995 10.0046 15.3697 10.7513C16.0263 10.4763 17.188 9.88782 18.1367 8.86306C19.0186 7.91076 19.4991 6.2326 19.6098 5.66625C19.6687 5.36534 19.9037 5.13009 20.2044 5.07071C20.2537 5.06065 20.3027 5.05612 20.3513 5.05612Z" fill="white"/>
</g>
<defs>
<clipPath id="clip0_3623_1859">
<rect width="51" height="51" fill="white"/>
</clipPath>
</defs>
</svg>
