<svg width="52" height="45" viewBox="0 0 52 45" fill="none" xmlns="http://www.w3.org/2000/svg">
<path d="M45.1022 0.918396V40.4082H39.796V5.51023H11.6736V0.918396H45.1022Z" fill="#DE0C0C"/>
<path d="M39.796 40.4082V44.0817H6.89807V5.51025H11.6736H39.796V40.4082Z" fill="#DE0C0C"/>
<path d="M45.1021 0H11.6735C11.0874 0 10.6123 0.411245 10.6123 0.918367V4.59184H6.89802C6.3119 4.59184 5.83679 5.00308 5.83679 5.5102V44.0816C5.83679 44.5888 6.3119 45 6.89802 45H39.796C40.382 45 40.8572 44.5888 40.8572 44.0816V41.3265H45.1021C45.6881 41.3265 46.1633 40.9153 46.1633 40.4082V0.918367C46.1633 0.411245 45.6881 0 45.1021 0ZM38.7348 43.1633H7.95924V6.42857H13.2654V23.8776C13.2654 24.5453 13.8232 25.2551 14.8572 25.2551H22.8164C22.8604 25.2551 22.9044 25.2528 22.948 25.248C23.6736 25.1695 24.4082 24.6736 24.4082 23.8776V9.64286C24.4082 9.62376 24.4076 9.60474 24.4061 9.58564C24.3599 8.94554 23.7871 8.26531 22.8164 8.26531C22.8164 8.26531 18.4835 8.2676 18.4399 8.27238C17.7142 8.3509 16.9796 8.84682 16.9796 9.64286V22.0408H19.1021V10.102H22.2858V23.4184H15.3878V6.42857H38.7348V43.1633ZM44.0409 39.4898H40.8572V5.5102C40.8572 5.00308 40.382 4.59184 39.796 4.59184H12.7348V1.83673H44.0409V39.4898Z" fill="white"/>
<path d="M36.0816 11.4796H28.6531V13.3163H36.0816V11.4796Z" fill="white"/>
<path d="M36.0817 15.1531H26.5306V16.9898H36.0817V15.1531Z" fill="white"/>
<path d="M36.0817 18.8265H26.5306V20.6633H36.0817V18.8265Z" fill="white"/>
<path d="M36.0817 22.5H26.5306V24.3367H36.0817V22.5Z" fill="white"/>
<path d="M36.0817 27.0919H10.6123V28.9286H36.0817V27.0919Z" fill="white"/>
<path d="M36.0817 30.7653H10.6123V32.6021H36.0817V30.7653Z" fill="white"/>
<path d="M36.0817 34.4388H10.6123V36.2755H36.0817V34.4388Z" fill="white"/>
<path d="M31.8368 38.1122H10.6123V39.949H31.8368V38.1122Z" fill="white"/>
<path d="M36.0817 38.1122H33.9592V39.949H36.0817V38.1122Z" fill="white"/>
</svg>
