<svg width="54" height="54" viewBox="0 0 54 54" fill="none" xmlns="http://www.w3.org/2000/svg">
<path d="M45.62 28.59L45.11 28.35L39.27 40.8L52.62 44.1L52.76 43.55C54.25 37.52 51.25 31.23 45.62 28.59ZM51.78 42.73L40.88 40.04L45.65 29.88C50.3 32.32 52.8 37.58 51.78 42.73ZM3.92 10.14H18.18C18.84 10.14 19.38 9.6 19.38 8.94V3.77C19.38 3.11 18.84 2.57 18.18 2.57H3.92C3.26 2.57 2.72 3.11 2.72 3.77V8.94C2.72 9.6 3.26 10.14 3.92 10.14ZM4.23 4.07H17.88V8.63H4.23V4.07ZM3.08 12.05L2.22 12.06V14.41L2.23 15.27H4.45L5.31 15.26V12.9L5.3 12.04H3.08V12.05ZM7.94 12.05L7.08 12.06V14.41L7.09 15.27H9.31L10.17 15.26V12.9L10.16 12.04H7.94V12.05ZM12.8 12.05L11.94 12.06V14.41L11.95 15.27H14.17L15.03 15.26V12.9L15.02 12.04H12.8V12.05ZM17.65 12.05L16.79 12.06V14.41L16.8 15.27H19.02L19.88 15.26V12.9L19.87 12.04H17.65V12.05ZM4.43 17.56H3.11C2.62 17.56 2.23 17.96 2.23 18.44V19.88C2.23 20.37 2.63 20.76 3.11 20.76H4.43C4.92 20.76 5.31 20.36 5.31 19.88V18.44C5.31 17.96 4.91 17.56 4.43 17.56ZM9.28 17.56H7.97C7.48 17.56 7.09 17.96 7.09 18.44V19.88C7.09 20.37 7.49 20.76 7.97 20.76H9.29C9.78 20.76 10.17 20.36 10.17 19.88V18.44C10.17 17.96 9.77 17.56 9.28 17.56ZM14.14 17.56H12.82C12.33 17.56 11.94 17.96 11.94 18.44V19.88C11.94 20.37 12.34 20.76 12.82 20.76H14.14C14.63 20.76 15.02 20.36 15.02 19.88V18.44C15.02 17.96 14.63 17.56 14.14 17.56ZM18.63 17.56H18.05C17.36 17.56 16.8 18.12 16.8 18.81V24.96C16.8 25.65 17.36 26.21 18.05 26.21H18.63C19.32 26.21 19.88 25.65 19.88 24.96V18.81C19.88 18.12 19.32 17.56 18.63 17.56ZM3.09 23.07L2.23 23.08V25.42L2.24 26.28H4.45L5.31 26.27V23.93L5.3 23.07H3.09ZM7.94 23.07L7.08 23.08V25.42L7.09 26.28H9.3L10.16 26.27V23.93L10.15 23.07H7.94ZM12.8 23.07L11.94 23.08V25.42L11.95 26.28H14.16L15.02 26.27V23.93L15.01 23.07H12.8ZM43.31 31.05L42.8 30.81C42.66 30.75 42.53 30.69 42.38 30.62C42.3 30.59 42.21 30.55 42.13 30.52L42.11 30.51C40.95 30.05 39.74 29.8 38.51 29.73V3.97H22.11V1.71C22.11 0.770001 21.34 0 20.4 0H1.71C0.769999 0 0 0.770001 0 1.71V26.98C0 27.92 0.769999 28.69 1.71 28.69H5.83V46.77H27.33C28.4 48.89 30.05 50.61 32.14 51.75L32.18 51.77C32.25 51.81 32.33 51.85 32.41 51.89C32.54 51.96 32.68 52.02 32.82 52.09C32.96 52.15 33.09 52.22 33.23 52.27C33.32 52.31 33.4 52.34 33.49 52.37L33.51 52.38C34.91 52.93 36.36 53.19 37.79 53.19C41.97 53.19 45.99 50.95 48.1 47.1V47.09C48.15 47.01 48.19 46.92 48.24 46.83C48.31 46.69 48.38 46.56 48.44 46.43C48.5 46.3 48.56 46.16 48.62 46.03C48.66 45.94 48.7 45.85 48.73 45.76C48.92 45.27 49.09 44.76 49.21 44.25L49.35 43.7L38.61 41.04L43.31 31.05ZM1.71 27.56C1.39 27.56 1.13 27.3 1.13 26.98V1.71C1.13 1.39 1.39 1.13 1.71 1.13H20.39C20.71 1.13 20.97 1.39 20.97 1.71V26.98C20.97 27.3 20.71 27.56 20.39 27.56H1.71ZM26.98 36.87C26.94 36.96 26.9 37.06 26.87 37.15V37.16C26.73 37.52 26.61 37.88 26.51 38.25C26.48 38.37 26.45 38.5 26.42 38.62C26.36 38.87 26.3 39.11 26.25 39.36C26.22 39.51 26.21 39.66 26.19 39.81C26.16 40.04 26.13 40.26 26.11 40.49C26.1 40.65 26.09 40.81 26.09 40.97C26.08 41.19 26.07 41.41 26.08 41.63C26.08 41.79 26.09 41.96 26.1 42.12C26.11 42.34 26.13 42.55 26.15 42.77C26.17 42.93 26.19 43.1 26.22 43.26C26.25 43.47 26.29 43.69 26.34 43.9C26.37 44.06 26.41 44.22 26.45 44.38C26.5 44.59 26.57 44.8 26.64 45.01C26.69 45.16 26.74 45.32 26.79 45.47C26.81 45.52 26.82 45.58 26.84 45.64H6.97V28.69H20.39C21.33 28.69 22.1 27.92 22.1 26.98V5.1H37.37V29.7C37.18 29.71 36.99 29.74 36.81 29.76C36.58 29.78 36.35 29.8 36.12 29.83C35.83 29.87 35.54 29.93 35.25 30C35.04 30.05 34.83 30.09 34.62 30.15C34.33 30.23 34.04 30.34 33.76 30.44C33.57 30.51 33.37 30.57 33.18 30.66C32.89 30.78 32.62 30.93 32.34 31.07C32.17 31.16 31.99 31.24 31.82 31.34C31.55 31.5 31.29 31.69 31.02 31.87C30.86 31.98 30.7 32.08 30.55 32.2C30.29 32.4 30.05 32.63 29.81 32.86C29.68 32.98 29.54 33.1 29.41 33.23C29.16 33.49 28.93 33.76 28.71 34.04C28.61 34.16 28.5 34.27 28.4 34.4C28.09 34.82 27.8 35.25 27.55 35.71L27.46 35.87C27.43 35.93 27.4 35.99 27.37 36.05C27.3 36.18 27.23 36.32 27.17 36.46C27.1 36.6 27.04 36.74 26.98 36.87ZM47.97 44.54C47.89 44.82 47.79 45.09 47.68 45.36C47.65 45.44 47.61 45.52 47.58 45.6C47.53 45.72 47.48 45.83 47.42 45.95C47.36 46.07 47.3 46.2 47.24 46.31C47.2 46.39 47.16 46.47 47.12 46.54L47.11 46.56C44.55 51.22 38.9 53.27 33.95 51.33L33.92 51.32C33.84 51.29 33.76 51.26 33.68 51.22C33.55 51.17 33.43 51.11 33.31 51.06C33.19 51 33.06 50.94 32.94 50.88C32.86 50.84 32.78 50.8 32.71 50.76L32.65 50.73C30.69 49.64 29.15 47.99 28.2 45.96C26.96 43.32 26.86 40.27 27.93 37.57L27.94 37.55C27.97 37.47 28 37.39 28.04 37.31C28.09 37.18 28.15 37.06 28.21 36.93C28.27 36.81 28.33 36.68 28.39 36.56C28.42 36.51 28.44 36.46 28.47 36.4L28.51 36.32C30.39 32.89 33.99 30.78 37.91 30.82C37.92 30.82 37.93 30.82 37.94 30.82C39.22 30.83 40.48 31.08 41.67 31.55L41.7 31.56C41.73 31.57 41.77 31.59 41.8 31.6L37 41.83L38.5 42.2L47.97 44.54ZM35.74 8.49H23.57V9.62H35.74V8.49ZM35.74 11.09H23.57V12.22H35.74V11.09ZM35.74 13.52H23.57V14.65H35.74V13.52ZM35.74 16.12H23.57V17.25H35.74V16.12ZM35.74 18.55H23.57V19.68H35.74V18.55ZM35.68 20.87H23.5V22H35.67V20.87H35.68ZM8.69 34.1H24.25V32.97H8.69V34.1ZM8.69 36.55H24.25V35.42H8.69V36.55ZM8.69 39H24.25V37.87H8.69V39ZM8.69 41.45H24.25V40.32H8.69V41.45ZM8.69 43.91H21.59V42.78H8.69V43.91Z" fill="white"/>
</svg>
