<svg width="48" height="48" viewBox="0 0 48 48" fill="none" xmlns="http://www.w3.org/2000/svg">
<path d="M7.67997 1.92V5.76H3.83997V46.08H44.16V13.44H28.8V5.76H24.96V1.92H7.67997ZM9.59997 3.84H23.04V7.68H26.88V44.16H18.24V37.44H14.4V44.16H5.75997V7.68H9.59997V3.84ZM9.59997 9.6V11.52H11.52V9.6H9.59997ZM13.44 9.6V11.52H15.36V9.6H13.44ZM17.28 9.6V11.52H19.2V9.6H17.28ZM21.12 9.6V11.52H23.04V9.6H21.12ZM9.59997 14.4V18.24H11.52V14.4H9.59997ZM13.44 14.4V18.24H15.36V14.4H13.44ZM17.28 14.4V18.24H19.2V14.4H17.28ZM21.12 14.4V18.24H23.04V14.4H21.12ZM28.8 15.36H42.24V44.16H28.8V15.36ZM30.72 17.28V19.2H32.64V17.28H30.72ZM34.56 17.28V19.2H36.48V17.28H34.56ZM38.4 17.28V19.2H40.32V17.28H38.4ZM9.59997 20.16V24H11.52V20.16H9.59997ZM13.44 20.16V24H15.36V20.16H13.44ZM17.28 20.16V24H19.2V20.16H17.28ZM21.12 20.16V24H23.04V20.16H21.12ZM30.72 21.12V23.04H32.64V21.12H30.72ZM34.56 21.12V23.04H36.48V21.12H34.56ZM38.4 21.12V23.04H40.32V21.12H38.4ZM30.72 24.96V26.88H32.64V24.96H30.72ZM34.56 24.96V26.88H36.48V24.96H34.56ZM38.4 24.96V26.88H40.32V24.96H38.4ZM9.59997 25.92V29.76H11.52V25.92H9.59997ZM13.44 25.92V29.76H15.36V25.92H13.44ZM17.28 25.92V29.76H19.2V25.92H17.28ZM21.12 25.92V29.76H23.04V25.92H21.12ZM30.72 28.8V30.72H32.64V28.8H30.72ZM34.56 28.8V30.72H36.48V28.8H34.56ZM38.4 28.8V30.72H40.32V28.8H38.4ZM9.59997 31.68V35.52H11.52V31.68H9.59997ZM13.44 31.68V35.52H15.36V31.68H13.44ZM17.28 31.68V35.52H19.2V31.68H17.28ZM21.12 31.68V35.52H23.04V31.68H21.12ZM30.72 32.64V34.56H32.64V32.64H30.72ZM34.56 32.64V34.56H36.48V32.64H34.56ZM38.4 32.64V34.56H40.32V32.64H38.4ZM30.72 36.48V38.4H32.64V36.48H30.72ZM34.56 36.48V38.4H36.48V36.48H34.56ZM38.4 36.48V38.4H40.32V36.48H38.4ZM9.59997 37.44V42.24H11.52V37.44H9.59997ZM21.12 37.44V42.24H23.04V37.44H21.12ZM30.72 40.32V42.24H32.64V40.32H30.72ZM34.56 40.32V42.24H36.48V40.32H34.56ZM38.4 40.32V42.24H40.32V40.32H38.4Z" fill="white"/>
</svg>
